<svg xmlns="http://www.w3.org/2000/svg" xmlns:xlink="http://www.w3.org/1999/xlink" width="813" height="170.25" viewBox="0 0 813 170.25"><defs><style>.a{fill:#2c323d;}.b,.c,.d{fill:none;stroke-linecap:round;stroke-linejoin:round;stroke-width:2px;}.b{stroke:#262b35;}.c{stroke:#575e6a;}.d{stroke:#2c323d;}.e{fill:#262b35;}.f{fill:#373d4a;}.g{fill:#454c59;}.h{fill:url(#a);}</style><linearGradient id="a" x1="408.45" y1="7803.97" x2="444.49" y2="7765.1" gradientTransform="matrix(1, 0, 0, -1, 0, 7882.15)" gradientUnits="userSpaceOnUse"><stop offset="0" stop-color="#22adf6"/><stop offset="1" stop-color="#9394ff"/></linearGradient></defs><title>cubo_doodle</title><path class="a" d="M709,49.77v0l-1.16-5v0h0a0,0,0,0,0,0,0h0l-4.94-1.52h-.07L699,46.7v0h0s0,0,0,0h0v0l1.16,5h0l0,0h0l0,0,4.92,1.5h.07L709,49.83v0h0s0,0,0,0Z"/><path class="a" d="M320.22,102.48v0l-2.33-10s0,0,0,0h0s0,0-.05,0h0l0,0-9.86-3h-.05l-.06,0h0a.05.05,0,0,0,0,0l-7.53,7s0,0,0,0v0s0,0,0,0h0v0l2.32,10a0,0,0,0,0,0,0h0a.13.13,0,0,0,0,0h0l0,0,9.85,3h.1s0,0,0,0h0l7.54-7,0,0h0a.1.1,0,0,0,0-.07Z"/><path class="a" d="M481.38,166.74v0l-1.16-4.92v0h0l0,0h0l-4.93-1.49h-.08l-3.76,3.45a0,0,0,0,0,0,0h0v0h0v0l1.16,4.92v0h0s0,0,0,0h0l4.93,1.47h.07l3.77-3.45v0h0a0,0,0,0,0,0,0Z"/><line class="b" x1="479.62" y1="1" x2="479.62" y2="16"/><line class="b" x1="487.12" y1="8.5" x2="472.12" y2="8.5"/><line class="b" x1="807" y1="86.41" x2="807" y2="96.41"/><line class="b" x1="812" y1="91.41" x2="802" y2="91.41"/><line class="c" x1="191" y1="98.47" x2="191" y2="108.47"/><line class="c" x1="196" y1="103.47" x2="186" y2="103.47"/><line class="d" x1="662.4" y1="94.02" x2="655.32" y2="101.09"/><line class="d" x1="662.4" y1="101.09" x2="655.32" y2="94.02"/><line class="b" x1="303.75" y1="140.06" x2="296.68" y2="147.13"/><line class="b" x1="303.75" y1="147.13" x2="296.68" y2="140.06"/><path class="e" d="M566.18,132.06a3,3,0,1,1-3,3,3,3,0,0,1,3-3m0-2a5,5,0,1,0,5,5,5,5,0,0,0-5-5Z"/><path class="a" d="M332.61,32.66a3,3,0,1,1-3,3,3,3,0,0,1,3-3m0-2a5,5,0,1,0,5,5,5,5,0,0,0-5-5Z"/><path class="a" d="M74.08,56.63a8,8,0,1,1-8,8,8,8,0,0,1,8-8m0-2a10,10,0,1,0,10,10,10,10,0,0,0-10-10Z"/><circle class="f" cx="2" cy="114.84" r="2"/><path class="g" d="M524.68,45.38l12.81,3.93,3,13.08-9.81,9.14-12.81-3.9-3-13.09,9.8-9.16m-.4-2.22h-.07l-.09,0s0,0-.07,0L512.77,53.78s0,0,0,.06v0s0,0,0,.06V54l3.48,15.07s0,0,0,0,0,0,0,.07l0,0,.07,0,14.78,4.5h.06s.05,0,.07,0h0s0,0,.05,0l11.31-10.55,0,0a.23.23,0,0,0,0-.11v-.07l-3.49-15.07s0,0,0-.07v0a.13.13,0,0,0-.07,0s0,0,0,0l-14.8-4.54ZM542.7,63Zm0,0h0Z"/><path class="f" d="M264,63.84l2.79.86.67,2.86-2.15,2-2.79-.85-.67-2.87,2.15-2m-.48-2.24h-.08l-3.76,3.52,0,0h0s0,0,0,0v0l1.17,5h0l0,0h0s0,0,0,0l4.92,1.5h.06a0,0,0,0,1,0,0l3.77-3.51,0,0v-.06l-1.16-5a0,0,0,0,0,0,0h0l0,0h0l-4.93-1.52Zm6.13,6.61h0Zm0,0h0Z"/><path class="f" d="M151.67,37.29h0m-.54,1.41.7,1.81a3.4,3.4,0,0,0,1.95,2l1.81.7-1.81.7a3.4,3.4,0,0,0-1.95,2l-.7,1.82-.71-1.82a3.4,3.4,0,0,0-1.95-2l-1.81-.7,1.81-.7a3.4,3.4,0,0,0,1.95-2l.71-1.81m0-3a1.38,1.38,0,0,0-1.32.9l-1.25,3.23a1.42,1.42,0,0,1-.81.8l-3.22,1.25a1.41,1.41,0,0,0,0,2.64l3.22,1.25a1.43,1.43,0,0,1,.81.81l1.25,3.22a1.41,1.41,0,0,0,2.63,0l1.25-3.22a1.43,1.43,0,0,1,.81-.81l3.22-1.25a1.41,1.41,0,0,0,0-2.64l-3.22-1.25a1.42,1.42,0,0,1-.81-.8l-1.25-3.23a1.38,1.38,0,0,0-1.31-.9Z"/><path class="a" d="M605.13,54.78h0m-1,2.48a3,3,0,0,0,1.2,1.19,3,3,0,0,0-1.2,1.2,2.93,2.93,0,0,0-1.19-1.2,2.9,2.9,0,0,0,1.19-1.19m0-3.81a.91.91,0,0,0-.87.61l-.84,2.14a.9.9,0,0,1-.54.54l-2.14.83a.94.94,0,0,0,0,1.76l2.14.83a1,1,0,0,1,.54.54l.84,2.15a.94.94,0,0,0,1.75,0l.84-2.15a1,1,0,0,1,.53-.54l2.15-.83a.94.94,0,0,0,0-1.76l-2.15-.83a.91.91,0,0,1-.53-.54L605,54.06a.91.91,0,0,0-.88-.61Z"/><path class="h" d="M468,100.51v-.24L455.45,46c0-.08-.08-.16-.08-.24v-.08c-.09-.08-.17-.16-.25-.16h0a.28.28,0,0,1-.16-.08L401.67,29.07h-.24a.56.56,0,0,0-.33.09h0c-.08,0-.16.08-.24.16l-40.66,38c-.08.08-.16.16-.16.25v.08c0,.08-.08.16-.08.24h0v.24l12.55,54.27a.28.28,0,0,0,.08.16h0c.08.08.08.16.17.24l.08.08c.08.08.16.08.24.16l53.21,16.2h.24a.32.32,0,0,0,.25-.08h.08c.08,0,.08-.08.16-.08h0l40.74-38,.16-.17h0a.72.72,0,0,0,.08-.4Zm-93.71,21.06,8.91-29.24,51.67,15.79L426,137.36ZM362.23,70.62l19.51,21L373.32,119Zm72.56,35.88L384.26,91l38.63-36.12,8.66,37.66ZM382.72,90.22,361.9,67.87,401.43,31l20.81,22.35Zm53.77,16.44L424.35,53.94l29.72-6.89,12.15,52.73ZM423.62,52.48l-19.52-21,47.46,14.58Zm13,55.88,27.94-6.47-36.29,33.85Z"/></svg>