<?xml version="1.0" encoding="utf-8"?>
<!-- Generator: Adobe Illustrator 21.1.0, SVG Export Plug-In . SVG Version: 6.00 Build 0)  -->
<svg version="1.1" id="Layer_1" xmlns="http://www.w3.org/2000/svg" xmlns:xlink="http://www.w3.org/1999/xlink" x="0px" y="0px"
	 viewBox="0 0 90 90" style="enable-background:new 0 0 90 90;" xml:space="preserve">
<style type="text/css">
	.st0{fill:url(#SVGID_1_);}
	.st1{fill:url(#SVGID_2_);}
	.st2{fill:url(#SVGID_3_);}
</style>
<linearGradient id="SVGID_1_" gradientUnits="userSpaceOnUse" x1="14.6466" y1="84.3557" x2="67.7716" y2="14.3557" gradientTransform="matrix(1 0 0 -1 0 92)">
	<stop  offset="0.2122" style="stop-color:#7CE490"/>
	<stop  offset="1" style="stop-color:#4ED8A0"/>
</linearGradient>
<path class="st0" d="M75,20.9c0-0.1,0-0.2-0.1-0.3v-0.1c0-0.1-0.1-0.2-0.2-0.3l-20-20c-0.1-0.1-0.2-0.1-0.3-0.2h-0.1
	c-0.1,0-0.2,0-0.3,0c0,0,0,0-0.1,0H20c-2.8,0-5,2.2-5,5v68c0,2.8,2.2,5,5,5h50c2.8,0,5-2.2,5-5V20.9C75,21,75,21,75,20.9z"/>
<linearGradient id="SVGID_2_" gradientUnits="userSpaceOnUse" x1="62.5496" y1="79.5308" x2="52.5496" y2="69.2808" gradientTransform="matrix(1 0 0 -1 0 92)">
	<stop  offset="0" style="stop-color:#F2FFF4"/>
	<stop  offset="1" style="stop-color:#A5F3B4"/>
</linearGradient>
<path class="st1" d="M71.6,20H58c-1.7,0-3-1.4-3-3V3.4L71.6,20z"/>
<linearGradient id="SVGID_3_" gradientUnits="userSpaceOnUse" x1="64.9631" y1="11.4346" x2="19.3381" y2="74.4346">
	<stop  offset="0" style="stop-color:#F2FFF4"/>
	<stop  offset="1" style="stop-color:#A5F3B4"/>
</linearGradient>
<path class="st2" d="M58,22c-2.8,0-5-2.3-5-5V2H20c-1.7,0-3,1.3-3,3v68c0,1.7,1.3,3,3,3h50c1.7,0,3-1.3,3-3V22H58z M60,40.7
	L43.6,57.1c-1.8,1.8-4.8,1.8-6.6,0L30,50.2c-0.8-0.8-0.8-2.1,0-2.9l2.7-2.7c0.8-0.8,2.1-0.8,2.9,0l3.1,3.1c0.8,0.8,2.1,0.8,2.9,0
	l12.6-12.6c0.8-0.8,2.1-0.8,2.9,0l2.7,2.7C60.8,38.6,60.8,39.9,60,40.7z"/>
</svg>
