<?xml version="1.0" encoding="utf-8"?>
<!-- Generator: Adobe Illustrator 21.1.0, SVG Export Plug-In . SVG Version: 6.00 Build 0)  -->
<svg version="1.1" id="Layer_1" xmlns="http://www.w3.org/2000/svg" xmlns:xlink="http://www.w3.org/1999/xlink" x="0px" y="0px"
	 width="40px" height="40px" viewBox="0 0 40 40" style="enable-background:new 0 0 40 40;" xml:space="preserve">
<style type="text/css">
	.st0{fill:#8E91A1;}
</style>
<path class="st0" d="M38.6,22.3L38.6,22.3c-1.2-1-1.7-1.4-2.2-1.8c-0.2-0.2-0.5-0.4-0.8-0.6l2.9-0.5c0.4,0,0.7,0,1-0.2l0,0l0.1-0.1
	l0.1-0.1c0,0,0,0,0.1-0.1c1.1-1.5-1.6-4.5-2.9-5.7c-1.2-1.2-3.9-3.6-5.4-3l-5.8,0.3c-3.5-3.5-3.1-3.3-5.5-6.2
	c-0.7-0.8-1.5-1.8-2.5-3l0,0c0,0,0,0-0.1-0.1C15.2-1.1,10,0.7,5.2,5.4s-6.5,10-4.3,12.3L22,38.8c2.3,2.3,7.5,0.5,12.3-4.3
	C39.1,29.9,40.9,24.6,38.6,22.3z M37,27.6c-0.5-0.6-1-1.2-1.5-1.8c0.2,0.1,0.3,0.1,0.5,0.2c0.7,0.4,1.1,0.6,1.3,0.8
	C37.2,27,37.1,27.3,37,27.6z M35.5,14.6c0.9,0.9,1.5,1.6,1.9,2.2c-0.6-0.4-1.3-1-2.2-1.9s-1.5-1.6-1.9-2.2
	C33.9,13.1,34.7,13.7,35.5,14.6z M6.7,6.9c3.9-3.9,8.2-5.5,9.4-4.2l0,0c1.2,1.2-0.4,5.5-4.3,9.4C8,16,3.7,17.5,2.4,16.3
	S2.8,10.8,6.7,6.9z M10.4,15.9c0.1,0.1,0.1,0.2,0.2,0.3c0.3,0.4,0.6,0.8,0.9,1.1c-0.2-0.1-0.5-0.2-0.7-0.3c-0.5-0.3-0.8-0.4-1.1-0.6
	C10,16.2,10.2,16.1,10.4,15.9z M23.5,37.4L4.7,18.6C6,18.4,7.4,17.8,8.8,17c0.4,0.2,0.9,0.5,1.6,0.9c1.8,0.9,3.7,1.4,3.8,1.4
	c0.3,0.1,0.6-0.1,0.6-0.4s-0.1-0.5-0.4-0.6c-1.3-0.4-2.1-1.5-3-2.8c-0.1-0.1-0.2-0.2-0.3-0.3c0.7-0.6,1.3-1.1,2-1.8
	c2.8-2.8,4.5-5.8,5-8.2c0.1,0.1,0.2,0.2,0.2,0.3c2.1,2.5,1.7,2.3,4.3,5l-1.4,0.1c-0.6,0-1,0.5-1,1c0,0.3,0.1,0.5,0.3,0.7
	s0.5,0.3,0.8,0.3l9.2-0.4c0.5,1.5,2.1,3.2,3,4.1c0.4,0.4,1,1,1.7,1.5L28.1,19c-0.6,0.1-0.9,0.6-0.8,1.1c0,0.2,0.1,0.4,0.3,0.6
	c0.2,0.2,0.5,0.3,0.9,0.3l4.4-0.8c1.2,1.1,1.6,1.4,2.2,1.8c0.4,0.3,0.9,0.7,2,1.6c0.4,0.4,0.5,1.1,0.4,1.9c-0.3-0.2-0.7-0.4-1.1-0.6
	c-1.8-0.9-3.7-1.4-3.8-1.4c-0.3,0-0.6,0.2-0.6,0.5c-0.1,0.2,0,0.4,0.1,0.5s0.1,0.1,0.2,0.1c1.4,0.5,3,2.5,4.1,3.9l0,0
	c-0.8,1.4-1.9,3-3.5,4.6C29,37.1,24.8,38.6,23.5,37.4z"/>
<path class="st0" d="M14.2,5.5c0-0.4-0.2-0.6-0.3-0.7c-1.3-1.3-5.6,2.8-6.1,3.3s-4.6,4.7-3.3,6c0.2,0.2,0.5,0.2,0.7,0s0.2-0.5,0-0.7
	C5.1,13,6.1,11.1,8.5,8.7c2.3-2.3,4.1-3.3,4.6-3.3c0,0.5-1,2.5-3.3,4.6c-0.7,0.7-1.2,1-1.5,1.2c0.2-0.3,0.5-0.9,1.2-1.4
	c0.2-0.2,0.2-0.5,0-0.7S9,8.9,8.8,9.1c-1.1,1.1-2,2.5-1.4,3.1c0.5,0.5,1.5,0.1,3.1-1.4C12.7,8.8,14.2,6.7,14.2,5.5z"/>
</svg>
