<?xml version="1.0" encoding="utf-8"?>
<!-- Generator: Adobe Illustrator 24.0.0, SVG Export Plug-In . SVG Version: 6.00 Build 0)  -->
<svg version="1.1" id="InfluxData_Complete_Logo" xmlns="http://www.w3.org/2000/svg" xmlns:xlink="http://www.w3.org/1999/xlink"
	 x="0px" y="0px" viewBox="0 0 1080 220" style="enable-background:new 0 0 1080 220;" xml:space="preserve">
<style type="text/css">
	.st0{fill:#FFFFFF;}
	.st1{fill:none;}
</style>
<path id="Cuboctahedron" class="st0" d="M213.4,130.6l-19.1-83.1c-1.1-4.6-5.2-9.1-9.8-10.4L97.3,10.2c-1.1-0.4-2.4-0.4-3.7-0.4
	c-3.7,0-7.6,1.5-10.2,3.7L20.9,71.6c-3.5,3-5.2,9.1-4.1,13.5L37.2,174c1.1,4.6,5.2,9.1,9.8,10.4l81.6,25.4c1.1,0.4,2.4,0.4,3.7,0.4
	c3.7,0,7.6-1.5,10.2-3.7l66.8-62C212.7,141,214.5,135.2,213.4,130.6z M106.4,29.9l59.9,18.4c2.4,0.7,2.4,1.7,0,2.4l-31.5,7.2
	c-2.4,0.7-5.6-0.4-7.4-2.2l-21.9-23.6C103.6,30.2,104,29.3,106.4,29.9z M143.7,137.3c0.7,2.4-0.9,3.7-3.3,3l-64.6-20
	c-2.4-0.7-2.8-2.6-1.1-4.3l49.5-46c1.7-1.7,3.7-1.1,4.3,1.3L143.7,137.3z M37.2,78.8L89.7,30c1.7-1.7,4.6-1.5,6.3,0.2l26.2,28.4
	c1.7,1.7,1.5,4.6-0.2,6.3l-52.5,48.8c-1.7,1.7-4.6,1.5-6.3-0.2L37,85.1C35.3,83.1,35.5,80.3,37.2,78.8z M50,156.2l-13.9-61
	c-0.7-2.4,0.4-2.8,2-1.1L60,117.7c1.7,1.7,2.4,5.2,1.7,7.6l-9.5,30.8C51.5,158.6,50.4,158.6,50,156.2z M126.8,192l-68.6-21.3
	c-2.4-0.7-3.7-3.3-3-5.6l11.5-36.9c0.7-2.4,3.3-3.7,5.6-3l68.6,21c2.4,0.7,3.7,3.3,3,5.6l-11.5,36.9
	C131.6,191.1,129.2,192.4,126.8,192z M187.6,142.1l-45.8,42.5c-1.7,1.7-2.6,1.1-2-1.3l9.5-30.8c0.7-2.4,3.3-4.8,5.6-5.2l31.5-7.2
	C188.9,139.3,189.3,140.4,187.6,142.1z M192.5,132.8l-37.7,8.7c-2.4,0.7-4.8-0.9-5.4-3.3l-16.1-69.9c-0.7-2.4,0.9-4.8,3.3-5.4
	l37.7-8.7c2.4-0.7,4.8,0.9,5.4,3.3l16.1,69.9C196.4,130,194.9,132.3,192.5,132.8z"/>
<g id="Type">
	<path class="st0" d="M777.4,159.9c-0.2,2.2,0.7,2.6,1.5,2.6h5.2c2,0,2.4-1.7,2.4-2.6l21.3-120.8c0.4-2.2-1.1-2.6-2.2-2.4l0,0
		l-5.6,0.9c-1.5,0.2-2.4,1.5-2.4,2.4l0,0l-6.1,35.1c-5.4-1.7-15.6-2.8-21.5-2.8c-22.6,0-33.4,8.7-37.5,32.8l-6.7,38
		c-0.4,2.4-0.7,4.6-0.7,6.5c0,10.8,6.1,15,17.4,15c12.8,0,26-6.1,36.2-14.8L777.4,159.9z M743.6,155.3c-5.4,0-8.2-1.5-8.2-7.2
		c0-1.5,0.2-3,0.7-5.2l6.3-36.2c3.5-19.7,10.2-25.4,26.5-25.4c7.2,0,14.1,1.1,21.3,2.8l-9.5,53.6C768.9,148,754.8,155.3,743.6,155.3
		z"/>
	<path class="st0" d="M867.2,159.9c-0.2,2.2,0.7,2.6,1.7,2.6h5.2c2,0,2.4-1.7,2.4-2.6l0,0L891,78.1c-10.4-3.9-22.3-5.9-30.6-5.9
		c-23.9,0-33.4,9.5-37.5,32.8l-6.7,38c-0.4,2.4-0.7,4.6-0.7,6.5c0,10.8,6.1,15,17.4,15c12.8,0,25.4-6.1,35.6-14.8L867.2,159.9z
		 M833.8,155.3c-5.4,0-8.2-1.5-8.2-7.2c0-1.5,0.2-3,0.7-5.2l6.3-36.2c3.5-19.5,9.8-25.4,26.5-25.4c7.4,0,15.8,1.5,20.8,2.8
		l-9.5,53.6C858.8,148,844.9,155.3,833.8,155.3z"/>
	<path class="st0" d="M1012.4,159.9c-0.2,2.2,0.7,2.6,1.5,2.6h5.2c2,0,2.4-1.7,2.4-2.6l0,0l14.5-81.8c-10.4-3.9-22.3-5.9-30.6-5.9
		c-23.9,0-33.4,9.5-37.5,32.8l-6.7,38c-0.4,2.4-0.7,4.6-0.7,6.5c0,10.8,6.1,15,17.4,15c12.8,0,25.4-6.1,35.6-14.8L1012.4,159.9z
		 M979.2,155.3c-5.4,0-8.2-1.5-8.2-7.2c0-1.5,0.2-3,0.7-5.2l6.3-36.2c3.5-19.5,9.8-25.4,26.5-25.4c7.4,0,15.8,1.5,20.8,2.8
		l-9.5,53.6C1004.1,148,990.2,155.3,979.2,155.3z"/>
	<g>
		<path class="st0" d="M926.9,52.3L926.9,52.3L926.9,52.3z"/>
		<path class="st0" d="M957.2,81.4L957.2,81.4l1.3-5.9c0.4-1.5-0.4-1.5-1.3-1.5h-24.9l3.5-20.4l0,0c0.4-2.2-1.1-2.6-2.2-2.4l0,0
			l-5.6,0.9l0,0c-1.5,0.2-2.4,1.5-2.4,2.4l0,0L922.1,74h-15.4c-0.4,0-1.7,0.2-2,1.5l-0.9,5.6l0,0c0,0.4,0,1.5,1.5,1.5h15.2
			L908.9,149c-0.2,1.3-0.4,2.4-0.4,3.5c0,8,5.6,11.7,14.5,11.7c6.9,0,19.3-2,25.6-5c2-1.1,1.7-2.4,1.3-3.3l0,0l-1.3-3.5
			c-0.2-0.9-1.3-0.7-2-0.4l0,0c-6.1,2.4-9.5,3.7-21.9,3.7c-4.1,0-6.1-0.9-6.1-4.3c0-0.9,0.2-2,0.4-3.3l11.5-65.3h24.7
			C956.6,82.7,957,82.2,957.2,81.4z"/>
	</g>
	<path class="st0" d="M718.2,74h-25.4c-1.1,0-2.4,0.9-3,1.7l-18,26.2l-10.6-27.3c-0.7-1.5-2-2-3.3-1.7l-22.1,3.3l19.1,42.1
		l-35.1,44.5h23.9c1.5,0,3.9-0.9,5-2.2l16.5-20l9.3,20c0.4,1.1,2,2.2,3.5,2.2h23.2l-18.7-41L718.2,74z"/>
	<path class="st0" d="M608.8,161L624,74.4c0.2-1.7-1.1-1.7-2.2-1.5l-21.3,2.8c-2.4,0.4-3,2-3,2.8l0,0l-9,52.5
		c-6.5,3.3-18.2,8.5-23,8.5c-2.6,0-3.5-0.9-3.5-2.8c0-0.7,0.2-1.7,0.4-2.8l10.4-59.7l0,0c0.2-1.7-1.1-1.7-2-1.5l-21.3,3l0,0
		c-2.4,0.4-3,2-3,2.8l0,0l-10.2,57.7c-0.7,3.7-0.9,6.5-0.9,10.2c0,11.1,4.6,18,16.3,18c10.2,0,21-3.5,34.9-10l0.2,6.5
		c0,0.4,0.2,1.5,1.1,1.5h19.6C608.4,162.5,608.8,161.6,608.8,161z"/>
	<path class="st0" d="M398.2,72.3c-10.2,0-21,3.5-34.9,10l0.2-7.8c0-2-1.5-1.7-2.4-1.5l-16.7,2.8l0,0c-2.8,0.4-3.7,2.2-3.9,3
		l-13.9,79.8l0,0c-0.7,3.7-0.4,3.9,2.6,3.9h19.1c2.2,0,3.3,0,3.9-3.9l9.3-53.1c6.9-3.7,18.2-8.5,23-8.5c2.6,0,3.5,0.7,3.5,2.6
		c0,0.7-0.2,1.7-0.4,2.8l-9.8,56.2l0,0c-0.7,3.7-0.4,3.9,2.6,3.9h19.1c2.2,0,3.3,0,3.9-3.9l10.2-58.1c0.7-4.6,0.9-7.2,0.9-10.2
		C414.5,79.2,410.1,72.3,398.2,72.3z"/>
	<g>
		<path class="st0" d="M324.7,33.6l-21.3,3c-2.4,0.2-2.8,2-3,2.8l-3.9,22.2c-0.4,2.6-0.2,2.6,2.2,2.4l21-2.8l0,0
			c2.2-0.2,2.6-0.4,3-3.3l0,0l4.1-23C327,33.6,326.6,33.6,324.7,33.6z"/>
		<path class="st0" d="M293.9,75.9L293.9,75.9L293.9,75.9z"/>
		<path class="st0" d="M304.9,158.6L304.9,158.6l15-84.2c0.2-1.7-1.1-1.7-2.2-1.5l-21.2,2.8l0,0c-2.4,0.4-3,2-3,2.8l0,0l-14.3,80.7
			c-0.4,3,0,3.5,2.8,3.5h19.1C303,162.5,304,162.5,304.9,158.6z"/>
	</g>
	<path class="st0" d="M515.1,158.6l21.5-122.4c0.2-1.7-0.7-1.7-1.7-1.5l-24.5,4.1c-11.1-3-23.6-4.3-30.8-4.3
		c-22.8,0-30.4,7.8-34.1,28.2l-2,11.7h-10c-2.6,0-2.8,1.3-3,2.4l0,0l-3,16.9c-0.2,0.7,0.2,1.5,1.3,1.5h11.1L428,162.9
		c-1.3,8-2.6,12.8-10.2,20.8l0,0c-1.5,1.5-1.1,2,0,2.8l0,0l13.5,12.6l0,0c1.3,1.3,2,1.1,3.5-0.4c12.4-12.6,16.3-21,18.4-32.8
		l12.4-70.5h19.7c1.1,0,1.3,0,1.7-1.3l0,0l4.6-17.8l0,0c0.4-1.3-0.9-1.7-1.7-1.7h-20.6l2.4-12.8c0.9-4.6,2.8-6.1,8.5-6.1
		c7.6,0,20,1.5,26.9,3.3l-17.6,100.2l0,0c-0.7,3.7-0.4,3.9,2.6,3.9h19.1C513.4,162.5,514.5,162.5,515.1,158.6z"/>
</g>
<rect class="st1" width="1080" height="220"/>
</svg>
