<?xml version="1.0" encoding="utf-8"?>
<!-- Generator: Adobe Illustrator 23.0.1, SVG Export Plug-In . SVG Version: 6.00 Build 0)  -->
<svg version="1.1" id="Layer_1" xmlns="http://www.w3.org/2000/svg" xmlns:xlink="http://www.w3.org/1999/xlink" x="0px" y="0px"
	 viewBox="0 0 813 170.2" style="enable-background:new 0 0 813 170.2;" xml:space="preserve">
<style type="text/css">
	.st0{fill:#2C323D;}
	.st1{fill:none;stroke:#373D4A;stroke-width:2;stroke-linecap:round;stroke-linejoin:round;}
	.st2{fill:none;stroke:#575E6A;stroke-width:2;stroke-linecap:round;stroke-linejoin:round;}
	.st3{fill:none;stroke:#2C323D;stroke-width:2;stroke-linecap:round;stroke-linejoin:round;}
	.st4{fill:#373D4A;}
	.st5{fill:#373D4A;}
	.st6{fill:#454C59;}
	.st7{fill:url(#SVGID_1_);}
</style>
<title>cubo_doodle_green</title>
<path class="st0" d="M709,49.8L709,49.8l-1.2-5l0,0l0,0l0,0l0,0l-4.9-1.5h-0.1l-3.8,3.5l0,0l0,0l0,0l0,0l0,0l1.2,5l0,0l0,0l0,0l0,0
	l4.9,1.5h0.1L709,49.8L709,49.8L709,49.8L709,49.8L709,49.8z"/>
<path class="st0" d="M320.2,102.5L320.2,102.5l-2.3-10l0,0l0,0c0,0,0,0,0,0l0,0l0,0l-9.9-3h0h-0.1l0,0l0,0l-7.5,7l0,0l0,0l0,0l0,0
	l0,0l2.3,10l0,0l0,0l0,0l0,0l0,0l9.9,3h0.1l0,0l0,0L320.2,102.5L320.2,102.5L320.2,102.5C320.2,102.5,320.2,102.4,320.2,102.5
	L320.2,102.5z"/>
<path class="st0" d="M481.4,166.7L481.4,166.7l-1.2-4.9l0,0l0,0l0,0l0,0l-4.9-1.5h-0.1l-3.8,3.4l0,0l0,0l0,0l0,0l0,0l1.2,4.9l0,0
	l0,0l0,0l0,0l4.9,1.5h0.1L481.4,166.7L481.4,166.7L481.4,166.7L481.4,166.7L481.4,166.7z"/>
<line class="st1" x1="469.6" y1="1" x2="469.6" y2="16"/>
<line class="st1" x1="477.1" y1="8.5" x2="462.1" y2="8.5"/>
<line class="st1" x1="807" y1="86.4" x2="807" y2="96.4"/>
<line class="st1" x1="812" y1="91.4" x2="802" y2="91.4"/>
<line class="st2" x1="191" y1="98.5" x2="191" y2="108.5"/>
<line class="st2" x1="196" y1="103.5" x2="186" y2="103.5"/>
<line class="st3" x1="662.4" y1="94" x2="655.3" y2="101.1"/>
<line class="st3" x1="662.4" y1="101.1" x2="655.3" y2="94"/>
<line class="st1" x1="303.8" y1="140.1" x2="296.7" y2="147.1"/>
<line class="st1" x1="303.8" y1="147.1" x2="296.7" y2="140.1"/>
<path class="st4" d="M566.2,132.1c1.7,0,3,1.3,3,3s-1.3,3-3,3s-3-1.3-3-3S564.5,132.1,566.2,132.1 M566.2,130.1c-2.8,0-5,2.2-5,5
	s2.2,5,5,5s5-2.2,5-5S568.9,130.1,566.2,130.1z"/>
<path class="st0" d="M332.6,32.7c1.7,0,3,1.3,3,3s-1.3,3-3,3s-3-1.3-3-3S331,32.7,332.6,32.7 M332.6,30.7c-2.8,0-5,2.2-5,5
	s2.2,5,5,5s5-2.2,5-5S335.4,30.7,332.6,30.7z"/>
<path class="st0" d="M74.1,56.6c4.4,0,8,3.6,8,8c0,4.4-3.6,8-8,8c-4.4,0-8-3.6-8-8S69.7,56.6,74.1,56.6 M74.1,54.6
	c-5.5,0-10,4.5-10,10s4.5,10,10,10s10-4.5,10-10S79.6,54.6,74.1,54.6z"/>
<circle class="st5" cx="2" cy="114.8" r="2"/>
<path class="st6" d="M525.5,44.6L525.5,44.6 M524.7,45.4l12.8,3.9l3,13.1l-9.8,9.1l-12.8-3.9l-3-13.1L524.7,45.4 M524.3,43.2
	L524.3,43.2h-0.2c0,0,0,0-0.1,0l-11.3,10.6c0,0,0,0,0,0.1l0,0c0,0,0,0,0,0.1V54l3.5,15.1l0,0c0,0,0,0,0,0.1l0,0h0.1l14.8,4.5h0.1
	c0,0,0,0,0.1,0l0,0c0,0,0,0,0,0l11.3-10.5l0,0c0,0,0-0.1,0-0.1v-0.1l-3.5-15.1c0,0,0,0,0-0.1l0,0c0,0,0,0-0.1,0l0,0L524.3,43.2
	L524.3,43.2z M542.7,63L542.7,63z"/>
<path class="st5" d="M264,63.8l2.8,0.9l0.7,2.9l-2.1,2l-2.8-0.8l-0.7-2.9L264,63.8 M263.5,61.6L263.5,61.6l-3.8,3.5l0,0l0,0l0,0l0,0
	l1.2,5l0,0l0,0l0,0l0,0l4.9,1.5h0.1l0,0l3.8-3.5l0,0V68l-1.2-5l0,0l0,0l0,0l0,0L263.5,61.6L263.5,61.6z M269.6,68.2L269.6,68.2z
	 M269.6,68.2L269.6,68.2z"/>
<path class="st5" d="M151.7,37.3L151.7,37.3 M151.1,38.7l0.7,1.8c0.3,0.9,1,1.6,1.9,2l1.8,0.7l-1.8,0.7c-0.9,0.4-1.6,1.1-1.9,2
	l-0.7,1.8l-0.7-1.8c-0.3-0.9-1-1.6-1.9-2l-1.8-0.7l1.8-0.7c0.9-0.4,1.6-1.1,1.9-2L151.1,38.7 M151.1,35.7c-0.6,0-1.1,0.3-1.3,0.9
	l-1.2,3.2c-0.1,0.4-0.4,0.7-0.8,0.8l-3.2,1.2c-0.7,0.3-1.1,1.1-0.8,1.8c0.1,0.4,0.4,0.7,0.8,0.8l3.2,1.2c0.4,0.1,0.7,0.4,0.8,0.8
	l1.2,3.2c0.3,0.7,1.1,1.1,1.8,0.8c0.4-0.1,0.7-0.4,0.8-0.8l1.2-3.2c0.1-0.4,0.4-0.7,0.8-0.8l3.2-1.2c0.7-0.3,1.1-1.1,0.8-1.8
	c-0.1-0.4-0.4-0.7-0.8-0.8l-3.2-1.2c-0.4-0.1-0.7-0.4-0.8-0.8l-1.2-3.2C152.2,36.1,151.7,35.7,151.1,35.7z"/>
<path class="st0" d="M605.1,54.8L605.1,54.8 M604.1,57.3c0.3,0.5,0.7,0.9,1.2,1.2c-0.5,0.3-0.9,0.7-1.2,1.2
	c-0.3-0.5-0.7-0.9-1.2-1.2C603.4,58.2,603.9,57.8,604.1,57.3 M604.1,53.4c-0.4,0-0.7,0.2-0.9,0.6l-0.8,2.1c-0.1,0.3-0.3,0.4-0.5,0.5
	l-2.1,0.8c-0.5,0.2-0.7,0.7-0.5,1.2c0.1,0.3,0.3,0.5,0.5,0.5l2.1,0.8c0.2,0.1,0.4,0.3,0.5,0.5l0.8,2.2c0.2,0.5,0.7,0.7,1.2,0.5
	c0.2-0.1,0.4-0.3,0.5-0.5l0.8-2.2c0.1-0.2,0.3-0.4,0.5-0.5l2.2-0.8c0.5-0.2,0.7-0.7,0.5-1.2c-0.1-0.3-0.3-0.5-0.5-0.5l-2.2-0.8
	c-0.2-0.1-0.4-0.3-0.5-0.5l-0.9-2.1C604.9,53.7,604.5,53.4,604.1,53.4L604.1,53.4z"/>
<linearGradient id="SVGID_1_" gradientUnits="userSpaceOnUse" x1="400.9659" y1="-3702.9983" x2="437.0059" y2="-3664.1284" gradientTransform="matrix(1 0 0 1 0 3782.1499)">
	<stop  offset="0" style="stop-color:#22ADF6"/>
	<stop  offset="1" style="stop-color:#7CE490"/>
</linearGradient>
<path class="st7" d="M460.5,101.5v-0.2L448,47c0-0.1-0.1-0.2-0.1-0.2v-0.1c-0.1-0.1-0.2-0.2-0.2-0.2l0,0c-0.1,0-0.1,0-0.2-0.1
	L394.2,30h-0.2c-0.1,0-0.2,0-0.3,0.1l0,0c-0.1,0-0.2,0.1-0.2,0.2l-40.7,38c-0.1,0.1-0.2,0.2-0.2,0.2v0.1c0,0.1-0.1,0.2-0.1,0.2l0,0
	v0.2l12.5,54.3c0,0.1,0,0.1,0.1,0.2l0,0c0.1,0.1,0.1,0.2,0.2,0.2l0.1,0.1c0.1,0.1,0.2,0.1,0.2,0.2l53.2,16.2h0.2
	c0.1,0,0.2,0,0.2-0.1h0.1c0.1,0,0.1-0.1,0.2-0.1l0,0l40.7-38l0.2-0.2l0,0C460.5,101.8,460.5,101.6,460.5,101.5L460.5,101.5z
	 M366.8,122.5l8.9-29.2l51.7,15.8l-8.9,29.2L366.8,122.5z M354.7,71.6l19.5,21l-8.4,27.4L354.7,71.6z M427.3,107.5L376.8,92
	l38.6-36.1l8.7,37.7L427.3,107.5z M375.2,91.2l-20.8-22.3L393.9,32l20.8,22.3L375.2,91.2z M429,107.6l-12.1-52.7l29.7-6.9l12.1,52.7
	L429,107.6z M416.1,53.4l-19.5-21L444.1,47L416.1,53.4z M429.1,109.3l27.9-6.5l-36.3,33.8L429.1,109.3z"/>
</svg>