<?xml version="1.0" encoding="utf-8"?>
<!-- Generator: Adobe Illustrator 21.1.0, SVG Export Plug-In . SVG Version: 6.00 Build 0)  -->
<svg version="1.1" id="Layer_1" xmlns="http://www.w3.org/2000/svg" xmlns:xlink="http://www.w3.org/1999/xlink" x="0px" y="0px"
	 width="36px" height="36px" viewBox="0 0 36 36" style="enable-background:new 0 0 36 36;" xml:space="preserve">
<style type="text/css">
	.st0{fill:#292933;}
	.st1{fill:url(#SVGID_1_);}
</style>
<g>
	<path class="st0" d="M31.7,36c-1.2,0-2.3-0.4-3.1-1.3l-6.2-6.2c-2.2,1.2-4.7,1.9-7.2,1.9C6.8,30.4,0,23.6,0,15.2
		C0,6.8,6.8,0,15.1,0c8.4,0,15.2,6.8,15.2,15.2c0,2.6-0.6,5-1.8,7.2l6.2,6.2c1.7,1.6,1.8,4.4,0.2,6.1C34,35.6,32.9,36,31.7,36z
		 M15.1,6.2c-5,0-9,4-9,9c0,5,4.1,9.1,9.1,9.1c2.2,0,4.4-0.8,6-2.3c0.1-0.1,0.2-0.3,0.3-0.4c0.1-0.1,0.3-0.2,0.4-0.3c0,0,0,0,0,0
		l0,0c1.5-1.6,2.3-3.8,2.3-6C24.2,10.3,20.1,6.2,15.1,6.2z"/>
	<linearGradient id="SVGID_1_" gradientUnits="userSpaceOnUse" x1="7.7215" y1="7.3808" x2="27.1691" y2="27.7753">
		<stop  offset="0" style="stop-color:#00C9FF"/>
		<stop  offset="1" style="stop-color:#9394FF"/>
	</linearGradient>
	<path class="st1" d="M33.7,29.5l-6.9-6.9c1.4-2.2,2.2-4.6,2.2-7.4c0-7.7-6.2-13.9-13.9-13.9S1.3,7.6,1.3,15.2s6.2,13.9,13.9,13.9
		c2.7,0,5.2-0.8,7.4-2.2l6.9,6.9c0.6,0.6,1.4,0.9,2.2,0.9c0.8,0,1.6-0.3,2.2-0.9C35,32.7,35,30.7,33.7,29.5z M4.8,15.2
		c0-5.7,4.6-10.3,10.3-10.3s10.4,4.6,10.4,10.4c0,2.7-1,5.2-2.7,7c-0.1,0.1-0.3,0.2-0.3,0.3c-0.1,0.1-0.2,0.3-0.3,0.3
		c-1.8,1.7-4.3,2.7-7,2.7C9.4,25.6,4.8,21,4.8,15.2z"/>
</g>
</svg>
