<?xml version="1.0" encoding="utf-8"?>
<!-- Generator: Adobe Illustrator 21.1.0, SVG Export Plug-In . SVG Version: 6.00 Build 0)  -->
<svg version="1.1" id="Layer_1" xmlns="http://www.w3.org/2000/svg" xmlns:xlink="http://www.w3.org/1999/xlink" x="0px" y="0px"
	 width="40px" height="40px" viewBox="0 0 40 40" style="enable-background:new 0 0 40 40;" xml:space="preserve">
<style type="text/css">
	.st0{fill:#8E91A1;}
</style>
<path class="st0" d="M14.8,2.2c0.6,0,1.1,0.1,1.3,0.4l0,0c0.3,0.4,0.6,0.8,0.9,1.1c0.6,0.7,1.1,1.3,1.5,1.8c0.6,0.7,1,1.2,1.4,1.7
	c1.1,1.3,1.6,2,4.2,4.6l0.6,0.6l0.9,0l5.8-0.3l0.3,0l0.2-0.1c0.5,0.1,1.8,0.9,3.4,2.5l0,0l0,0c1.1,1,1.9,2.1,2.3,2.8l-2.6,0.4
	l-4.9,0.9l4.2,2.8c0.2,0.1,0.4,0.3,0.5,0.4l0.1,0.1l0.1,0.1c0.5,0.4,1,0.8,2.1,1.7c0.2,0.3,0.4,0.7,0.4,1.3c0,1.7-1.3,4.7-4.7,8.1
	c-3.5,3.5-6.6,4.7-8.2,4.7c-0.9,0-1.2-0.3-1.3-0.4L2.3,16.3c-1.1-1.1,0-5.3,4.3-9.5C10.1,3.4,13.1,2.2,14.8,2.2 M14.8,0.2
	c-2.7,0-6.3,1.9-9.6,5.2c-4.8,4.7-6.5,10-4.3,12.3L22,38.8c0.7,0.7,1.6,1,2.7,1c2.6,0,6.2-1.9,9.6-5.3c4.8-4.6,6.6-9.9,4.3-12.2
	c-1.2-1-1.7-1.4-2.2-1.8c-0.2-0.2-0.5-0.4-0.8-0.6l2.9-0.5c0.4,0,0.7,0,1-0.2l0.1-0.1l0.1-0.1c0,0,0,0,0.1-0.1
	c1.1-1.5-1.6-4.5-2.9-5.7c-1.1-1.1-3.3-3.1-4.9-3.1c-0.2,0-0.4,0-0.5,0.1l-5.8,0.3c-3.5-3.5-3.1-3.3-5.5-6.2c-0.7-0.8-1.5-1.8-2.5-3
	c0,0,0,0-0.1-0.1C16.9,0.5,16,0.2,14.8,0.2L14.8,0.2z"/>
<g>
	<path class="st0" d="M19.3,15.5c-0.3,0-0.6,0-0.9,0.1c-1,0.2-1.8,0.6-2.3,1.3s-0.7,1.5-0.6,2.5l2.3-0.5c0-0.4,0.1-0.7,0.2-1
		c0.1-0.2,0.3-0.4,0.6-0.4c0.1,0,0.1,0,0.2,0c0.3,0,0.5,0.2,0.6,0.5c0.1,0.4,0.1,0.7,0,1s-0.3,0.6-0.6,0.9l-0.5,0.6
		c-0.5,0.7-0.7,1.7-0.5,2.8l1.9-0.4c0-0.6,0.1-1.2,0.5-1.7l0.7-0.8c0.7-0.9,1-1.7,0.9-2.5c-0.1-0.6-0.3-1-0.6-1.4
		c-0.3-0.4-0.7-0.6-1.2-0.7C19.9,15.6,19.6,15.5,19.3,15.5L19.3,15.5z M19,24.1c-0.1,0-0.2,0-0.3,0c-0.4,0.1-0.6,0.3-0.8,0.6
		c-0.2,0.3-0.3,0.6-0.2,1c0.1,0.3,0.3,0.6,0.6,0.8c0.2,0.1,0.4,0.2,0.6,0.2c0.1,0,0.2,0,0.3,0c0.4-0.1,0.6-0.3,0.8-0.6
		c0.2-0.3,0.3-0.6,0.2-1c-0.1-0.3-0.3-0.6-0.6-0.7C19.5,24.1,19.3,24.1,19,24.1L19,24.1z"/>
</g>
</svg>
