<?xml version="1.0" encoding="UTF-8" standalone="no"?>
<svg
   xmlns:dc="http://purl.org/dc/elements/1.1/"
   xmlns:cc="http://creativecommons.org/ns#"
   xmlns:rdf="http://www.w3.org/1999/02/22-rdf-syntax-ns#"
   xmlns:svg="http://www.w3.org/2000/svg"
   xmlns="http://www.w3.org/2000/svg"
   viewBox="0 0 566.93335 566.93335"
   height="566.93335"
   width="566.93335"
   xml:space="preserve"
   id="svg2"
   version="1.1"><metadata
     id="metadata8"><rdf:RDF><cc:Work
         rdf:about=""><dc:format>image/svg+xml</dc:format><dc:type
           rdf:resource="http://purl.org/dc/dcmitype/StillImage" /></cc:Work></rdf:RDF></metadata><defs
     id="defs6" /><g
     transform="matrix(1.3333333,0,0,-1.3333333,0,566.93333)"
     id="g10"><g
       transform="scale(0.1)"
       id="g12"><path
         id="path14"
         style="fill:#21236a;fill-opacity:1;fill-rule:nonzero;stroke:none"
         d="m 2134.9,2201.82 c -29.99,0 -63.1,-0.14 -98.52,-0.66 l 49.44,81.46 z m 1811.78,-430.18 c 0.57,35.21 -13.67,67.13 -37.62,95.97 l -975.32,1637.26 v 122.06 H 2755.68 V 3511.64 L 2085.82,2401.21 1415.95,3511.64 v 115.29 H 1237.93 V 3504.78 L 262.586,1867.61 c -23.906,-28.87 -38.117,-60.76 -37.617,-95.97 h 320.726 c 0,0 -41.445,81.92 165.551,162.54 0.25,0.21 48.149,146.65 48.149,146.65 0,0 -200.028,-35.52 -355.254,-111.79 L 1162.9,3250.1 735.445,1942.37 820.258,1974.48 1237.93,3264.5 V 2158.02 c -103.19,-12.5 -220.74,-29.16 -351.543,-51.57 l -37.5,-124.46 c 0,0 612.983,125.49 922.283,115.06 l -27.23,97.04 c 0,0 -116.05,1.78 -327.99,-17.2 V 3283.14 L 1799.27,2099 l 73.23,3.18 -371.33,1143.35 548.8,-903.76 -85.75,-142.1 c -32.53,-0.9 -66.17,-1.95 -100.48,-3.46 l 30.36,-93.98 c 0,0 199.72,12.52 377.99,-2.01 1.23,-0.12 31.71,99.08 31.71,99.08 0,0 -36.99,1.29 -97.28,2.08 l -84.71,140.39 548.2,903.11 -372.59,-1145.1 75.04,-2.14 383.22,1185.42 V 2176.89 c -211.93,18.98 -328.07,17.2 -328.07,17.2 l -27.02,-97.04 c 309.2,10.43 923.17,-115.06 923.17,-115.06 l -38.53,124.46 c -130.82,22.41 -248.19,39.11 -351.49,51.57 V 3264.5 l 417.65,-1290.02 84.34,-30.38 -426.72,1305.93 758.6,-1280.91 c -155.3,76.19 -355.46,111.71 -355.46,111.71 0,0 48.03,-146.44 48.28,-146.65 207.02,-80.62 165.55,-162.54 165.55,-162.54 h 320.7" /><path
         id="path16"
         style="fill:#21236a;fill-opacity:1;fill-rule:nonzero;stroke:none"
         d="m 750.359,989.68 v 33.63 c 81.149,7.14 85.313,14.28 84.258,113.18 l -2.082,400.77 h -4.152 L 589.152,996.789 H 563.148 L 343.672,1526.04 h -3.121 l -13.508,-274.28 c -4.18,-84.67 -4.18,-131.57 -1.043,-167.27 3.125,-45.87 24.961,-55.04 94.641,-61.18 V 989.68 H 173.094 v 33.63 c 59.277,5.09 79.051,21.41 86.34,60.19 6.23,32.6 13.519,82.6 20.808,189.64 l 15.59,206 c 8.332,121.35 1.043,132.57 -89.445,140.72 v 32.63 h 198.648 l 214.285,-469.06 217.364,469.06 h 197.636 v -32.63 c -86.336,-8.15 -91.511,-14.27 -89.429,-106.03 l 10.398,-377.34 c 2.066,-98.9 6.234,-105.01 90.471,-113.18 V 989.68 H 750.359" /><path
         id="path18"
         style="fill:#21236a;fill-opacity:1;fill-rule:nonzero;stroke:none"
         d="m 1264.21,1410.82 c -42.65,0 -82.18,-45.89 -91.53,-126.45 47.82,0 93.61,1.02 142.51,3.05 16.63,0 22.86,4.1 22.86,20.41 0,52.02 -27.06,102.99 -72.8,102.99 z m 183.06,-326.32 c -63.45,-86.68 -141.46,-107.059 -180.98,-107.059 -134.19,0 -210.13,100.939 -210.13,218.209 0,75.46 30.18,138.7 73.87,181.52 44.71,45.89 101.93,73.42 156.03,73.42 h 1.03 c 92.55,0 164.33,-78.52 164.33,-160.12 0,-20.39 -6.24,-31.61 -28.07,-35.66 -17.69,-2.06 -145.64,-12.26 -255.88,-16.33 3.12,-120.32 71.78,-176.42 145.6,-176.42 40.58,0 80.09,14.27 116.51,46.93 l 17.69,-24.49" /><path
         id="path20"
         style="fill:#21236a;fill-opacity:1;fill-rule:nonzero;stroke:none"
         d="m 1468.08,989.68 v 30.58 c 63.45,8.14 70.73,13.24 70.73,79.55 v 447.47 c 0,64.25 -5.22,66.3 -66.56,73.42 v 27.54 c 58.25,6.12 131.05,21.41 180.97,35.7 v -584.13 c 0,-68.33 7.28,-73.41 71.78,-79.55 v -30.58 h -256.92" /><path
         id="path22"
         style="fill:#21236a;fill-opacity:1;fill-rule:nonzero;stroke:none"
         d="m 1736.42,989.68 v 30.58 c 63.44,8.14 70.73,13.24 70.73,79.55 v 447.47 c 0,64.25 -5.21,91.97 -66.58,99.08 v 27.55 c 58.26,6.11 131.07,21.42 180.99,35.69 v -609.79 c 0,-68.33 7.27,-73.41 71.77,-79.55 v -30.58 h -256.91" /><path
         id="path24"
         style="fill:#21236a;fill-opacity:1;fill-rule:nonzero;stroke:none"
         d="m 2256.51,1233.37 c -19.77,-10.17 -48.9,-24.45 -70.74,-35.67 -35.35,-16.33 -54.1,-35.71 -54.1,-71.38 0,-55.07 39.53,-77.51 66.59,-77.51 19.75,0 40.56,9.19 58.25,23.46 z m 88.41,-255.94 c -24.98,0 -45.79,9.199 -58.26,20.39 -14.55,13.25 -21.84,26.53 -26,40.8 -40.57,-26.52 -90.49,-61.19 -114.42,-61.19 -83.2,0 -135.22,65.25 -135.22,128.49 0,52.02 26.01,78.51 81.14,98.89 61.36,21.44 140.4,46.95 164.35,66.31 v 26.51 c 0,67.3 -28.1,105.04 -71.79,105.04 -16.62,0 -29.13,-6.13 -39.51,-18.38 -11.46,-14.28 -20.81,-37.72 -30.15,-69.32 -6.27,-23.44 -19.79,-30.61 -38.5,-30.61 -23.92,0 -57.2,22.44 -57.2,47.94 0,17.32 12.47,29.57 34.3,45.88 36.42,24.49 107.15,61.18 166.43,72.4 38.5,0 69.7,-9.19 95.7,-29.58 42.65,-31.6 51.99,-74.43 51.99,-130.53 V 1115.1 c 0,-46.93 16.66,-60.16 34.33,-60.16 12.48,0 26.01,4.06 36.4,9.18 l 10.42,-30.61 -104.01,-56.08" /><path
         id="path26"
         style="fill:#21236a;fill-opacity:1;fill-rule:nonzero;stroke:none"
         d="m 2768.25,989.68 v 30.58 c 49.92,6.14 56.16,11.22 56.16,82.6 v 172.34 c 0,72.4 -31.21,102.98 -80.11,102.98 -32.22,0 -61.35,-16.31 -90.47,-38.75 v -243.72 c 0,-65.26 6.23,-69.31 55.11,-75.45 v -30.58 h -241.31 v 30.58 c 66.57,8.14 71.79,10.19 71.79,78.52 v 211.07 c 0,62.21 -5.22,66.31 -58.25,76.48 v 26.52 c 55.11,8.16 116.5,21.43 172.66,39.76 v -77.49 c 20.81,14.28 42.65,30.6 66.57,45.89 30.18,19.38 53.04,29.58 83.21,29.58 83.2,0 135.22,-59.14 135.22,-160.11 v -194.77 c 0,-65.26 6.25,-68.31 62.39,-75.45 v -30.58 h -232.97" /><path
         id="path28"
         style="fill:#21236a;fill-opacity:1;fill-rule:nonzero;stroke:none"
         d="m 3227.68,1412.85 c -49.93,0 -96.75,-58.11 -96.75,-173.34 0,-126.46 46.82,-224.33 119.62,-224.33 48.88,0 94.65,32.6 94.65,179.47 0,132.54 -41.61,218.2 -116.49,218.2 z m 15.61,37.74 c 138.33,0 231.94,-106.07 231.94,-228.44 0,-164.14 -120.67,-244.72 -236.12,-244.72 -156.02,0 -238.19,114.21 -238.19,226.39 0,165.19 132.09,246.77 241.31,246.77 h 1.06" /><path
         id="path30"
         style="fill:#21236a;fill-opacity:1;fill-rule:nonzero;stroke:none"
         d="m 3730.01,989.68 v 30.58 c 40.57,6.14 46.82,15.29 29.13,44.86 l -62.42,99.92 c -20.78,-30.58 -41.59,-65.23 -58.25,-93.79 -18.7,-31.63 -13.49,-42.85 32.26,-50.99 v -30.58 h -195.55 v 30.58 c 59.28,9.19 75.94,20.41 114.41,65.26 27.04,30.58 54.1,69.36 85.3,111.15 l -90.49,144.79 c -31.2,48.97 -42.65,58.16 -98.83,66.3 v 30.58 h 231.98 v -30.58 c -38.5,-7.14 -43.71,-16.31 -27.06,-40.8 l 54.1,-84.64 c 21.84,30.6 39.53,60.16 54.08,84.64 16.66,26.52 10.38,33.66 -32.24,40.8 v 30.58 h 190.35 v -30.58 c -59.31,-8.14 -70.73,-13.26 -108.18,-52.02 -22.89,-24.45 -46.81,-58.1 -82.17,-106.05 l 100.89,-155 c 35.36,-54.02 56.17,-67.29 108.16,-74.43 v -30.58 h -245.47" /><path
         id="path32"
         style="fill:#21236a;fill-opacity:1;fill-rule:nonzero;stroke:none"
         d="m 4011.07,1385.97 h 8 c 8.75,0 16.74,2.2 16.74,9.21 0,5.91 -4,9.98 -15.57,9.98 -4.39,0 -7.16,-0.39 -9.17,-0.77 z m 0,-33.57 h -11.17 v 59.38 c 5.98,1.1 12.77,1.84 21.15,1.84 10.76,0 15.97,-1.84 20.35,-4.78 3.58,-2.2 6.38,-7 6.38,-12.56 0,-7.36 -5.98,-11.79 -12.76,-13.99 v -0.73 c 5.99,-1.85 8.76,-6.66 10.77,-14.4 1.99,-8.85 3.18,-12.54 4.78,-14.76 H 4039 c -1.98,2.22 -3.58,7.36 -5.19,15.49 -1.6,6.66 -5.99,9.62 -15.15,9.62 h -7.59 z m 10.77,77.85 c -27.53,0 -48.66,-21.05 -48.66,-46.48 0,-26.21 21.13,-46.84 49.46,-46.84 27.53,-0.4 48.29,20.63 48.29,46.46 0,25.81 -20.76,46.86 -48.68,46.86 z m 0.8,9.94 c 34.31,0 61.44,-24.72 61.44,-56.42 0,-32.12 -27.13,-57.18 -61.83,-57.18 -34.32,0 -61.85,25.06 -61.85,57.18 0,31.7 27.53,56.42 61.85,56.42 h 0.39" /><path
         id="path34"
         style="fill:#7b7979;fill-opacity:1;fill-rule:nonzero;stroke:none"
         d="m 312.922,625.051 h -48.766 v 173.961 h -96.269 v 37.769 H 409.598 V 799.012 H 312.922 V 625.051" /><path
         id="path36"
         style="fill:#7b7979;fill-opacity:1;fill-rule:nonzero;stroke:none"
         d="M 487.613,836.77 H 702.105 V 800.668 H 536.348 v -47.199 h 96.707 v -36.11 H 536.348 V 664.82 H 704.129 V 625.039 H 487.613 V 836.77" /><path
         id="path38"
         style="fill:#7b7979;fill-opacity:1;fill-rule:nonzero;stroke:none"
         d="M 856.852,799.012 V 664.82 h 131.613 v 45.578 l 48.765,-10.269 v -25.051 c 0,-39.789 -12.6,-50.039 -51.992,-50.039 H 860.109 c -39.421,0 -51.992,10.25 -51.992,50.039 v 111.613 c 0,39.821 12.571,50.079 51.992,50.079 h 125.129 c 39.392,0 51.992,-10.258 51.992,-50.079 v -20.089 l -48.765,-7.821 v 40.231 H 856.852" /><path
         id="path40"
         style="fill:#7b7979;fill-opacity:1;fill-rule:nonzero;stroke:none"
         d="M 1156.27,836.77 H 1205 v -82.071 h 152.35 v 82.071 h 49.16 V 625.039 h -49.16 v 91.063 H 1205 v -91.063 h -48.73 V 836.77" /><path
         id="path42"
         style="fill:#7b7979;fill-opacity:1;fill-rule:nonzero;stroke:none"
         d="m 1531.62,836.77 h 33.31 L 1712.4,712.031 c 8.52,-6.992 16.66,-14.351 23.96,-22.972 -1.22,17.632 -2.02,29.953 -2.02,36.519 V 836.77 h 43.88 V 625.039 h -33.34 l -153.95,130.902 c -6.08,5.317 -11.77,10.661 -17.46,17.227 1.61,-16.438 2.03,-27.5 2.03,-33.656 V 625.039 h -43.88 V 836.77" /><path
         id="path44"
         style="fill:#7b7979;fill-opacity:1;fill-rule:nonzero;stroke:none"
         d="M 2094.41,799.012 H 1933.53 V 664.82 h 160.88 z m -157.62,37.758 h 154.36 c 39.42,0 52.02,-10.258 52.02,-50.079 V 675.078 c 0,-39.789 -12.6,-50.039 -52.02,-50.039 h -154.36 c -39.42,0 -51.99,10.25 -51.99,50.039 v 111.613 c 0,39.821 12.57,50.079 51.99,50.079" /><path
         id="path46"
         style="fill:#7b7979;fill-opacity:1;fill-rule:nonzero;stroke:none"
         d="m 2264.21,836.77 h 48.75 V 664.82 h 157.23 V 625.039 H 2264.21 V 836.77" /><path
         id="path48"
         style="fill:#7b7979;fill-opacity:1;fill-rule:nonzero;stroke:none"
         d="M 2757.55,799.012 H 2596.67 V 664.82 h 160.88 z m -157.63,37.758 h 154.38 c 39.42,0 52,-10.258 52,-50.079 V 675.078 c 0,-39.789 -12.58,-50.039 -52,-50.039 h -154.38 c -39.42,0 -51.99,10.25 -51.99,50.039 v 111.613 c 0,39.821 12.57,50.079 51.99,50.079" /><path
         id="path50"
         style="fill:#7b7979;fill-opacity:1;fill-rule:nonzero;stroke:none"
         d="M 2971.65,799.012 V 664.82 h 152.32 v 47.211 h -79.64 v 36.09 h 127.18 v -73.043 c 0,-39.789 -12.58,-50.039 -52,-50.039 H 2974.9 c -39.42,0 -51.99,10.25 -51.99,50.039 v 111.613 c 0,39.821 12.57,50.079 51.99,50.079 h 144.61 c 38.17,0 52,-9.872 52,-48.032 v -4.91 l -47.54,-8.609 v 23.793 h -152.32" /><path
         id="path52"
         style="fill:#7b7979;fill-opacity:1;fill-rule:nonzero;stroke:none"
         d="m 3292.97,836.77 h 48.74 V 625.039 h -48.74 V 836.77" /><path
         id="path54"
         style="fill:#7b7979;fill-opacity:1;fill-rule:nonzero;stroke:none"
         d="m 3456.72,836.77 h 214.49 v -36.102 h -165.75 v -47.199 h 96.68 v -36.11 h -96.68 V 664.82 h 167.75 V 625.039 H 3456.72 V 836.77" /><path
         id="path56"
         style="fill:#7b7979;fill-opacity:1;fill-rule:nonzero;stroke:none"
         d="m 3825.99,799.84 v -45.559 h 130.79 c 39.42,0 52.39,-10.25 52.39,-50.043 V 675.09 c 0,-39.809 -12.97,-50.039 -52.39,-50.039 h -129.59 c -39.42,0 -52.4,10.23 -52.4,50.039 v 5.762 l 43.09,9.007 V 664.82 h 148.25 v 48.43 H 3835.3 c -39.36,0 -51.99,10.281 -51.99,50.07 v 23.36 c 0,39.832 12.63,50.101 51.99,50.101 h 119.07 c 37.37,0 51.99,-9.871 51.99,-46.39 v -4.5 l -43.07,-10.27 v 24.219 h -137.3" /><path
         id="path58"
         style="fill:#21236a;fill-opacity:1;fill-rule:nonzero;stroke:none"
         d="m 2768.25,989.68 v 30.58 c 49.92,6.14 56.16,11.22 56.16,82.6 v 172.34 c 0,72.4 -31.21,102.98 -80.11,102.98 -32.22,0 -61.35,-16.31 -90.47,-38.75 v -243.72 c 0,-65.26 6.23,-69.31 55.11,-75.45 v -30.58 h -241.31 v 30.58 c 66.57,8.14 71.79,10.19 71.79,78.52 v 211.07 c 0,62.21 -5.22,66.31 -58.25,76.48 v 26.52 c 55.11,8.16 116.5,21.43 172.66,39.76 v -77.49 c 20.81,14.28 42.65,30.6 66.57,45.89 30.18,19.38 53.04,29.58 83.21,29.58 83.2,0 135.22,-59.14 135.22,-160.11 v -194.77 c 0,-65.26 6.25,-68.31 62.39,-75.45 v -30.58 h -232.97" /></g></g></svg>