<?xml version="1.0" encoding="utf-8"?>
<!-- Generator: Adobe Illustrator 24.2.0, SVG Export Plug-In . SVG Version: 6.00 Build 0)  -->
<svg version="1.1" id="Layer_1" xmlns="http://www.w3.org/2000/svg" xmlns:xlink="http://www.w3.org/1999/xlink" x="0px" y="0px"
	 viewBox="0 0 278.2 248.9" style="enable-background:new 0 0 278.2 248.9;" xml:space="preserve">
<style type="text/css">
	.st0{fill:#FFFFFF;}
	.st1{fill:#06262C;}
	.st2{fill:#FEFEFE;}
	.st3{fill:#209FBC;}
	.st4{fill:#209EBB;}
	.st5{fill:#F0F2F2;}
	.st6{fill:#3F585D;}
	.st7{fill:#09282E;}
</style>
<path class="st0" d="M5.3,242.2v-2.8c0-0.6,0.3-0.8,0.8-0.8h2.9v-29.4H6.2c-0.6,0-0.8-0.3-0.8-0.8v-2.8c0-0.6,0.3-0.8,0.8-0.8
	c4.8-0.2,8.8-0.3,12-0.3c9.8,0,14.7,3.5,14.7,10.5c0,2.4-0.6,4.6-1.9,6.5c-1.2,1.9-2.9,3.3-5,4.3l6.6,13h3.5c0.6,0,0.8,0.3,0.8,0.8
	v2.8c0,0.6-0.3,0.8-0.8,0.8h-7.5c-0.6,0-1-0.2-1.2-0.7l-7.7-15.2h-1.1c-1.2,0-2.3-0.1-3.2-0.2v11.5H19c0.6,0,0.8,0.3,0.8,0.8v2.8
	c0,0.6-0.3,0.8-0.8,0.8H6.2C5.6,243,5.3,242.7,5.3,242.2L5.3,242.2z M15.5,209v13.6c0.3,0,0.7,0.1,1.3,0.1c3.1,0,5.4-0.6,7.1-1.8
	s2.5-3,2.5-5.4c0-4.3-3-6.4-8.9-6.4C17.6,209,15.5,209,15.5,209z M52.8,243.7c-4.5,0-7.8-1.3-9.9-3.9c-2.1-2.6-3.1-6.1-3.1-10.4
	c0-4.3,1.1-7.9,3.3-10.7s5.4-4.2,9.6-4.2c2.1,0,3.9,0.4,5.3,1.2c1.5,0.8,2.6,1.8,3.4,3.1c1.5,2.6,2.3,5.5,2.3,8.9
	c0,1.6-0.1,2.4-0.2,2.6c-0.2,0.2-0.4,0.2-0.8,0.2H46.1c0.2,2.7,0.9,4.8,2,6.3s3.1,2.2,6,2.2c2.1,0,4.2-0.5,6.4-1.5
	c0.5-0.3,0.9-0.1,1.1,0.5l1.1,2.6c0.2,0.5,0,0.8-0.5,1.1C59.7,243,56.6,243.7,52.8,243.7L52.8,243.7z M46.1,226.3h11.8
	c0.1-4.7-1.8-7.1-5.5-7.1c-2.2,0-3.8,0.7-4.7,2.1C46.7,222.7,46.2,224.4,46.1,226.3z M76.8,219.7v14.2c0,1.8,0.2,3.1,0.7,3.8
	c0.5,0.8,1.3,1.2,2.5,1.2s2.4-0.3,3.6-0.8c0.4-0.2,0.7,0,0.9,0.5l1,2.6c0,0.1,0.1,0.3,0.1,0.5s-0.2,0.4-0.6,0.6
	c-1.8,0.9-4,1.4-6.4,1.4c-3.4,0-5.6-0.9-6.6-2.6c-0.8-1.1-1.2-2.2-1.3-3.3c-0.2-1.5-0.2-3-0.2-4.5v-13.6h-3.2
	c-0.6,0-0.8-0.3-0.8-0.8V216c0-0.6,0.3-0.8,0.8-0.8h3.2v-7.6c0-0.6,0.3-0.8,0.8-0.8h4.6c0.6,0,0.8,0.3,0.8,0.8v7.6h5.7
	c0.6,0,0.8,0.3,0.8,0.8v2.9c0,0.6-0.3,0.8-0.8,0.8H76.8z M87.6,204.7v-2.9c0-0.6,0.3-0.8,0.8-0.8h8.5c0.6,0,0.8,0.3,0.8,0.8v17.4
	c2.1-3.1,5-4.7,8.8-4.7c5.8,0,8.8,3.2,8.8,9.6v14.5h3.3c0.6,0,0.8,0.3,0.8,0.8v2.8c0,0.6-0.3,0.8-0.8,0.8h-12.4
	c-0.6,0-0.8-0.3-0.8-0.8v-2.8c0-0.6,0.3-0.8,0.8-0.8h2.7v-11.7c0-2.4-0.3-4.1-0.9-5.2c-0.6-1.1-1.8-1.6-3.7-1.6
	c-1.9,0-3.4,0.6-4.7,1.7c-1.2,1.1-1.9,2.4-1.9,3.8v13h3.4c0.6,0,0.8,0.3,0.8,0.8v2.8c0,0.6-0.3,0.8-0.8,0.8H88.3
	c-0.6,0-0.8-0.3-0.8-0.8v-2.8c0-0.6,0.3-0.8,0.8-0.8h3.1v-33.1h-3.1C87.8,205.5,87.5,205.2,87.6,204.7L87.6,204.7z M131.9,238.6h3.6
	c0.6,0,0.8,0.3,0.8,0.8v2.8c0,0.6-0.3,0.8-0.8,0.8h-13.4c-0.6,0-0.8-0.3-0.8-0.8v-2.8c0-0.6,0.3-0.8,0.8-0.8h3.6v-18.9h-3.1
	c-0.6,0-0.8-0.3-0.8-0.8V216c0-0.6,0.3-0.8,0.8-0.8h8.5c0.6,0,0.8,0.3,0.8,0.8L131.9,238.6L131.9,238.6z M123.9,207.2
	c0-1.2,0.4-2.1,1.1-2.9c0.7-0.8,1.7-1.2,2.9-1.2c1.2,0,2.2,0.4,2.9,1.2s1.1,1.7,1.1,2.9s-0.4,2.1-1.1,2.9c-0.8,0.8-1.7,1.1-3,1.1
	c-1.2,0-2.2-0.4-2.9-1.1C124.3,209.3,123.9,208.3,123.9,207.2z M138.2,218.9v-3c0-0.6,0.3-0.8,0.8-0.8h7.7c0.5,0,0.8,0.3,0.9,0.8
	l0.5,3.3c2.1-3.2,5.1-4.7,9-4.7c5.8,0,8.8,3.2,8.8,9.6v14.5h3.3c0.6,0,0.8,0.3,0.8,0.8v2.8c0,0.6-0.3,0.8-0.8,0.8h-12.3
	c-0.6,0-0.8-0.3-0.8-0.8v-2.8c0-0.6,0.3-0.8,0.8-0.8h2.7v-11.7c0-2.4-0.3-4.1-0.9-5.2c-0.6-1.1-1.8-1.6-3.7-1.6s-3.4,0.6-4.7,1.7
	c-1.2,1.1-1.9,2.4-1.9,3.8v13h3.5c0.6,0,0.8,0.3,0.8,0.8v2.8c0,0.6-0.3,0.8-0.8,0.8h-12.8c-0.6,0-0.8-0.3-0.8-0.8v-2.8
	c0-0.6,0.3-0.8,0.8-0.8h3v-18.9h-3.1C138.6,219.7,138.2,219.4,138.2,218.9z M182.6,201.7v22.5h2.9l8.8-8.6c0.4-0.4,0.9-0.6,1.5-0.6
	h4.4c0.6,0,0.8,0.3,0.8,0.8v2.9c0,0.6-0.3,0.8-0.8,0.8h-3.4l-6.2,6l7.7,12.8h3.3c0.6,0,0.8,0.3,0.8,0.8v2.8c0,0.6-0.3,0.8-0.8,0.8
	h-7.3c-0.5,0-1-0.2-1.3-0.7l-8.5-13.7h-1.9v9.9h3c0.6,0,0.8,0.3,0.8,0.8v2.8c0,0.6-0.3,0.8-0.8,0.8h-12.3c-0.6,0-0.8-0.3-0.8-0.8
	V239c0-0.6,0.3-0.8,0.8-0.8h3v-33.1h-3.1c-0.6,0-0.8-0.3-0.8-0.8v-2.9c0-0.6,0.3-0.8,0.8-0.8h8.5
	C182.3,200.9,182.5,201.2,182.6,201.7L182.6,201.7z M206.1,204.7c4.8-0.2,8.4-0.3,10.7-0.3s4.1,0,5.2,0.1c1.1,0.1,2.5,0.3,3.9,0.6
	c1.5,0.3,2.8,0.7,3.9,1.2s2.3,1.2,3.5,2.2c1.2,0.9,2.1,2,2.9,3.3c1.7,2.9,2.6,6.6,2.6,11.1c0,6.8-1.9,11.9-5.6,15.2
	c-3.8,3.3-8.9,5-15.4,5h-11.8c-0.6,0-0.8-0.3-0.8-0.8v-2.8c0-0.6,0.3-0.8,0.8-0.8h2.9v-29.3h-2.9c-0.6,0-0.8-0.3-0.8-0.8v-2.9
	C205.1,204.9,205.4,204.7,206.1,204.7L206.1,204.7z M228.7,234.6c2.3-2.7,3.4-6.4,3.4-11.1c0-4.7-1.1-8.3-3.2-10.7
	c-2.1-2.4-5.5-3.7-10-3.7h-3.5v29.5h3.7C223.2,238.6,226.4,237.3,228.7,234.6z M243.6,242.2v-2.8c0-0.6,0.3-0.8,0.8-0.8h3v-29.3
	h-2.9c-0.6,0-0.8-0.3-0.8-0.8v-2.9c0-0.6,0.3-0.9,0.8-0.9c4.5-0.2,8.8-0.3,12.9-0.3s7.3,0.8,9.7,2.3c2.4,1.6,3.6,3.8,3.6,6.7
	c0,2.1-0.6,3.9-1.9,5.5s-2.8,2.7-4.6,3.4c2.9,0.5,5.1,1.5,6.6,3.2s2.3,3.8,2.3,6.2c0,3.2-1.2,5.8-3.6,7.8s-5.5,3.1-9.4,3.4
	c-1.6,0.1-4.2,0.2-7.8,0.2h-7.9C243.8,243,243.6,242.7,243.6,242.2z M253.6,225.2v13.4h2.5c3.3,0,5.9-0.5,7.7-1.6
	c1.8-1.1,2.7-2.9,2.7-5.5c0-4.3-3-6.4-8.9-6.4L253.6,225.2L253.6,225.2z M253.6,208.9v11.6h2.1c5.6,0,8.4-1.9,8.4-5.8
	c0-2.2-0.7-3.7-2-4.5c-1.4-0.8-3.3-1.3-5.8-1.3H253.6z"/>
<g id="JeZY93.tif">
	<path class="st1" d="M115.3,180.7c-12.3-9.5-13.9-23.5-15.5-37.4c-0.6-5.1-0.3-10.4-0.2-15.6c0.1-4.6,2-9.4-3.2-12.7
		c-0.9-0.6-1.6-2.9-1.2-3.8c2.5-5.8-2.1-7.5-5.3-10.2c-6.8-5.6-8.3-11.6-5-19.7c1.3-3.2,2-6.3,2.4-9.7C89,59,95.5,49.1,105.9,42
		c2.9-2,4.3-4,4.9-7.4c3.5-21.1,19-32.3,38.2-28.3c8.3,1.7,13.8,7,17.7,14.1c2.1,3.7,3.3,7.7,4.3,11.8c3,12,6,23.8,16.3,32.4
		c7.9,6.6,9.4,15.9,6.8,25.8c-2.5,9.4-2.1,18.9-1.2,28.5c1.6,18-3.5,34.5-12.1,49.9c-4.5,8.1-11.1,8.9-18.3,2.7
		c-9.7-8.3-9.7-8.3-20.9-2.5c-7.8,4.1-15.2,9-23.7,11.9C117,180.7,116.2,180.7,115.3,180.7L115.3,180.7z"/>
	<path class="st2" d="M171.6,153.6c-2.1-1.5-3.6-0.2-5.3,0.4c-13.7,5.6-27.3,11.3-40.1,18.8c-9,5.3-12.2,4.3-16.8-5.3
		c-7.1-14.6-7.1-30.1-5.9-45.8c0.2-2.3,1.5-2.2,3.1-2.5c14.1-3.1,19-10.1,16.7-24.5c-0.3-1.6,0.2-2.7,0.7-3.9
		c6.1-14.6,3.1-28.4-8.6-38.5c-1.7-1.4-2-2.9-2.1-4.6c-0.3-7.9,0.3-15.7,3.7-22.9c4.8-10.5,12.8-16.6,24.9-16.5
		c12,0,20.7,5.9,23.5,16.9c6.5,26,20,49.8,23,76.8c2.4,21.5,1.9,42.4-9.1,61.9c-2,3.6-3.7,8.1-9,7.5c-5.5-0.7-8.1-5.6-11.4-9.1
		c-1.6-1.7,1-2,2-2.6C164.2,157.6,168.7,157.2,171.6,153.6L171.6,153.6z"/>
	<path class="st2" d="M110.7,84.1c1.4,3.6,4.1,4.8,5.9,6.8c5,5.3,5.9,10.3,2.7,16.4c-2.6,5-10.3,9.3-15.4,8.6
		c-2.4-0.3-4.4-1.4-5-3.7c-0.5-1.7-1.2-3.8,1.5-5s0.7-2.5-0.5-3.3c-2.6-1.9-5.5-3.4-7.9-5.4c-7-5.7-7.6-14-1.2-20.4
		c4.5-4.5,9.7-8.3,14.5-12.6c2.7-2.4,4.1-1.4,5.2,1.4c1.5,3.9,3.3,7.7,4.4,11.7C115.8,81.7,118.2,86.4,110.7,84.1z"/>
	<path class="st3" d="M90.4,72.2c2.5-11.8,7.7-21,17.8-27.4C112.5,56.6,108.6,59.7,90.4,72.2z"/>
	<path class="st4" d="M120.5,89.5c-1.8-0.9-1.7-2.1-1.5-3.3c1.1-8.4-2.1-15.7-6.3-22.6c-1.5-2.5-2.7-4.6,0.3-6.5
		c3.5-2.3,3.9,1.8,4.9,3.2C124.7,69.8,125.7,80.9,120.5,89.5z"/>
	<path class="st5" d="M183.1,65.7c8.2,6.7,11.2,14.7,7.1,25.1C187.7,82.2,185.4,73.9,183.1,65.7z"/>
	<path class="st6" d="M163.7,26.1c-3,0.2-5.3,0.4-7.6,0.5C158.8,21.9,159.4,21.8,163.7,26.1z"/>
	<path class="st7" d="M134.1,30.6c2.5-4.2,4.9-4.1,8.5-1.6C139.4,29.6,137.2,30,134.1,30.6z"/>
</g>
</svg>
