<?xml version="1.0" encoding="utf-8"?>
<!-- Generator: Adobe Illustrator 24.1.1, SVG Export Plug-In . SVG Version: 6.00 Build 0)  -->
<svg version="1.1" id="Layer_1" xmlns="http://www.w3.org/2000/svg" xmlns:xlink="http://www.w3.org/1999/xlink" x="0px" y="0px"
	 viewBox="0 0 54.64 54.64" style="enable-background:new 0 0 54.64 54.64;" xml:space="preserve">
<style type="text/css">
	.st0{fill:none;stroke:#22ADF6;stroke-width:2;stroke-linecap:round;stroke-linejoin:round;stroke-miterlimit:10;}
</style>
<path class="st0" d="M53.64,27.32c0,14.54-11.78,26.32-26.32,26.32S1,41.85,1,27.32S12.78,1,27.32,1S53.64,12.78,53.64,27.32z
	 M11.53,11.6c-4.03,4.03-6.49,9.57-6.49,15.72c0,12.3,9.97,22.28,22.28,22.28c5.13,0,9.86-1.74,13.63-4.65 M44.16,41.9
	C47.55,38,49.6,32.9,49.6,27.32c0-12.3-9.97-22.28-22.28-22.28c-4.58,0-8.83,1.38-12.37,3.75 M17.06,22.03h-4.09c-1.1,0-2,0.9-2,2
	v6.57c0,1.1,0.9,2,2,2h13.66 M39.32,32.61h2.34c1.1,0,2-0.9,2-2v-6.57c0-1.1-0.9-2-2-2H30.15 M15.19,27.32h6.13 M37.52,29.32
	c-1.1,0-2-0.9-2-2c0-1.1,0.9-2,2-2s2,0.9,2,2C39.52,28.42,38.62,29.32,37.52,29.32z M44.16,41.9L14.95,8.79 M40.95,44.94L11.53,11.6
	"/>
</svg>
