<?xml version="1.0" encoding="utf-8"?>
<!-- Generator: Adobe Illustrator 24.0.0, SVG Export Plug-In . SVG Version: 6.00 Build 0)  -->
<svg version="1.1" id="Layer_2" xmlns="http://www.w3.org/2000/svg" xmlns:xlink="http://www.w3.org/1999/xlink" x="0px" y="0px"
	 viewBox="0 0 1920 1080" style="enable-background:new 0 0 1920 1080;" xml:space="preserve">
<style type="text/css">
	.st0{opacity:0.5;clip-path:url(#SVGID_2_);}
	.st1{opacity:0.75;}
	.st2{fill:#22ADF6;}
	.st3{opacity:0.28;}
	.st4{opacity:0.77;fill:url(#SVGID_3_);}
	.st5{fill:url(#SVGID_4_);}
	.st6{opacity:0.77;fill:url(#SVGID_5_);}
	.st7{fill:url(#SVGID_6_);}
	.st8{opacity:0.77;fill:url(#SVGID_7_);}
	.st9{fill:url(#SVGID_8_);}
	.st10{opacity:0.77;fill:url(#SVGID_9_);}
	.st11{fill:url(#SVGID_10_);}
	.st12{opacity:0.77;fill:url(#SVGID_11_);}
	.st13{fill:url(#SVGID_12_);}
	.st14{opacity:0.68;fill:url(#SVGID_13_);}
	.st15{opacity:0.65;}
	.st16{opacity:0.77;fill:url(#SVGID_14_);}
	.st17{fill:url(#SVGID_15_);}
	.st18{opacity:0.77;fill:url(#SVGID_16_);}
	.st19{fill:url(#SVGID_17_);}
	.st20{opacity:0.77;fill:url(#SVGID_18_);}
	.st21{fill:url(#SVGID_19_);}
	.st22{clip-path:url(#SVGID_2_);}
	.st23{fill:none;stroke:#22ADF6;stroke-width:0.5171;stroke-linecap:round;stroke-linejoin:round;stroke-miterlimit:10;}
	.st24{opacity:0.55;fill:url(#SVGID_20_);}
	.st25{fill:none;stroke:#22ADF6;stroke-width:0.5047;stroke-linecap:round;stroke-linejoin:round;stroke-miterlimit:10;}
	.st26{opacity:0.77;fill:url(#SVGID_21_);}
	.st27{fill:url(#SVGID_22_);}
	.st28{opacity:0.77;fill:url(#SVGID_23_);}
	.st29{fill:url(#SVGID_24_);}
	.st30{opacity:0.77;fill:url(#SVGID_25_);}
	.st31{fill:url(#SVGID_26_);}
	.st32{opacity:0.77;fill:url(#SVGID_27_);}
	.st33{fill:url(#SVGID_28_);}
	.st34{opacity:0.77;fill:url(#SVGID_29_);}
	.st35{fill:url(#SVGID_30_);}
	.st36{opacity:0.77;fill:url(#SVGID_31_);}
	.st37{fill:url(#SVGID_32_);}
	.st38{opacity:0.77;fill:url(#SVGID_33_);}
	.st39{fill:url(#SVGID_34_);}
	.st40{opacity:0.77;fill:url(#SVGID_35_);}
	.st41{fill:url(#SVGID_36_);}
	.st42{opacity:0.77;fill:url(#SVGID_37_);}
	.st43{fill:url(#SVGID_38_);}
	.st44{opacity:0.77;fill:url(#SVGID_39_);}
	.st45{fill:url(#SVGID_40_);}
	.st46{opacity:0.77;fill:url(#SVGID_41_);}
	.st47{fill:url(#SVGID_42_);}
	.st48{opacity:0.77;fill:url(#SVGID_43_);}
	.st49{fill:url(#SVGID_44_);}
	.st50{opacity:0.77;fill:url(#SVGID_45_);}
	.st51{fill:url(#SVGID_46_);}
	.st52{opacity:0.77;fill:url(#SVGID_47_);}
	.st53{fill:url(#SVGID_48_);}
	.st54{opacity:0.77;fill:url(#SVGID_49_);}
	.st55{fill:url(#SVGID_50_);}
	.st56{opacity:0.77;fill:url(#SVGID_51_);}
	.st57{fill:url(#SVGID_52_);}
	.st58{opacity:0.77;fill:url(#SVGID_53_);}
	.st59{fill:url(#SVGID_54_);}
	.st60{opacity:0.7;}
	.st61{fill:url(#SVGID_55_);}
	.st62{opacity:0.77;fill:url(#SVGID_56_);}
	.st63{fill:url(#SVGID_57_);}
	.st64{opacity:0.77;fill:url(#SVGID_58_);}
	.st65{fill:url(#SVGID_59_);}
	.st66{opacity:0.77;fill:url(#SVGID_60_);}
	.st67{fill:url(#SVGID_61_);}
	.st68{opacity:0.77;fill:url(#SVGID_62_);}
	.st69{fill:url(#SVGID_63_);}
	.st70{opacity:0.77;fill:url(#SVGID_64_);}
	.st71{fill:url(#SVGID_65_);}
	.st72{opacity:0.77;fill:url(#SVGID_66_);}
	.st73{fill:url(#SVGID_67_);}
	.st74{opacity:0.3;}
	.st75{opacity:0.77;fill:url(#SVGID_68_);}
	.st76{fill:url(#SVGID_69_);}
	.st77{opacity:0.55;}
	.st78{opacity:0.77;fill:url(#SVGID_70_);}
	.st79{fill:url(#SVGID_71_);}
</style>
<g>
	<defs>
		<rect id="SVGID_1_" width="1920" height="1080"/>
	</defs>
	<clipPath id="SVGID_2_">
		<use xlink:href="#SVGID_1_"  style="overflow:visible;"/>
	</clipPath>
	<g class="st0">
		<g class="st1">
			<path class="st2" d="M2176.1,403.2l-282.5,6.3l244.6-50.7c0.1,0,0.2-0.1,0.2-0.2c0-0.1-0.1-0.2-0.2-0.3l-186.5-46l150.9-105.9
				c0.1-0.1,0.1-0.2,0.1-0.3c0-0.1-0.1-0.2-0.2-0.2l-205.1-49.5l151-122.9c0.1-0.1,0.1-0.3,0-0.4c-0.1-0.1-0.3-0.1-0.4,0l-151,123
				l-13-163.2c0,0,0,0,0-0.1c0,0,0,0,0,0l-81.5-145.2c0-0.1-0.1-0.1-0.2-0.1c-0.1,0-0.2,0.1-0.2,0.2L1722.2,36l-101-183.2
				c0,0,0,0,0,0c0,0,0,0,0,0c0,0,0,0,0,0c0,0,0,0-0.1,0c0,0-0.1,0-0.1,0c0,0,0,0,0,0c0,0,0,0,0,0c0,0,0,0,0,0l-115.4,53.3
				c-0.1,0.1-0.2,0.2-0.1,0.3l74.9,170.9l29.5,172.1c0,0,0,0,0,0c0,0,0,0,0,0c0,0.1,0,0.2,0.1,0.3L1890.7,410c0,0,0,0,0,0
				c0,0,0.1,0,0.1,0c0,0,0,0,0.1,0l0,0l285.2-6.3c0.1,0,0.2-0.1,0.2-0.3C2176.3,403.3,2176.2,403.2,2176.1,403.2z M1896.4,156.4
				l-163.1,88.5l-10.9-207.9L1896.4,156.4z M1896.8,156.8l53.9,155.1l-216.9-66.6L1896.8,156.8z M1939.4,278l-42.1-121.1l204.1,49.6
				l-150.2,105.4L1939.4,278z M1896.6,155.9L1722.8,36.7l160.8-43.6l8.3,104L1896.6,155.9z M1732.8,244.6L1580.9,77.3l141-40.4
				L1732.8,244.6z M1950.7,312.5l-59.9,96.9L1734,245.9L1950.7,312.5z M1891.4,409.4l59.9-96.8l185.7,45.9L1891.4,409.4z
				 M1802.3-151.9l81.1,144.5l-54.2,14.7l-106.7,28.9L1802.3-151.9z M1580.8,76.8l40.3-223.1l100.7,182.7L1580.8,76.8z
				 M1620.6-146.6l-40.3,222.9l-74.4-169.9L1620.6-146.6z M1580.8,78l151.7,167.1l-122.4,3.9L1580.8,78z M1610.9,249.7l122.1-4.1
				l156.4,163L1610.9,249.7z"/>
			<g class="st3">
				<g>
					
						<radialGradient id="SVGID_3_" cx="1289.5363" cy="77.1808" r="19.8574" gradientTransform="matrix(0.5498 1.066678e-02 -3.531704e-03 0.6021 871.9153 16.9552)" gradientUnits="userSpaceOnUse">
						<stop  offset="0" style="stop-color:#22ADF6"/>
						<stop  offset="1" style="stop-color:#22ADF6;stop-opacity:0"/>
					</radialGradient>
					<path class="st4" d="M1590.1,67.2c-5.2-5.5-13.7-5.5-18.9,0c-5.2,5.5-5.2,14.4,0.1,19.9c5.2,5.5,13.7,5.5,18.9,0
						C1595.4,81.6,1595.3,72.7,1590.1,67.2"/>
					
						<radialGradient id="SVGID_4_" cx="1289.5363" cy="77.1808" r="8.3109" gradientTransform="matrix(0.5499 0 0 0.5722 871.6024 33.0149)" gradientUnits="userSpaceOnUse">
						<stop  offset="0" style="stop-color:#FFFFFF"/>
						<stop  offset="1" style="stop-color:#FFFFFF;stop-opacity:0"/>
					</radialGradient>
					<path class="st5" d="M1584,73.6c-1.9-2-4.9-2-6.8,0c-1.9,2-1.8,5.2,0,7.1c1.9,2,4.9,2,6.8,0C1585.9,78.8,1585.9,75.6,1584,73.6
						"/>
				</g>
				<g>
					
						<radialGradient id="SVGID_5_" cx="1547.14" cy="36.3869" r="19.8574" gradientTransform="matrix(0.5498 1.066678e-02 -3.531704e-03 0.6021 871.7793 -2.0246)" gradientUnits="userSpaceOnUse">
						<stop  offset="0" style="stop-color:#22ADF6"/>
						<stop  offset="1" style="stop-color:#22ADF6;stop-opacity:0"/>
					</radialGradient>
					<path class="st6" d="M1731.7,26.4c-5.2-5.5-13.7-5.5-18.9,0c-5.2,5.5-5.2,14.4,0.1,19.9c5.2,5.5,13.7,5.5,18.9,0
						C1737,40.8,1737,31.9,1731.7,26.4"/>
					
						<radialGradient id="SVGID_6_" cx="1547.14" cy="36.3869" r="8.3109" gradientTransform="matrix(0.5499 0 0 0.5722 871.6024 15.5649)" gradientUnits="userSpaceOnUse">
						<stop  offset="0" style="stop-color:#FFFFFF"/>
						<stop  offset="1" style="stop-color:#FFFFFF;stop-opacity:0"/>
					</radialGradient>
					<path class="st7" d="M1725.7,32.8c-1.9-2-4.9-2-6.8,0c-1.9,2-1.8,5.2,0,7.1c1.9,2,4.9,2,6.8,0
						C1727.6,38,1727.6,34.8,1725.7,32.8"/>
				</g>
				<g>
					
						<radialGradient id="SVGID_7_" cx="1566.3862" cy="245.6331" r="19.8574" gradientTransform="matrix(0.5498 1.066678e-02 -3.531704e-03 0.6021 872.5189 81.0296)" gradientUnits="userSpaceOnUse">
						<stop  offset="0" style="stop-color:#22ADF6"/>
						<stop  offset="1" style="stop-color:#22ADF6;stop-opacity:0"/>
					</radialGradient>
					<path class="st8" d="M1742.3,235.7c-5.2-5.5-13.7-5.5-18.9,0c-5.2,5.5-5.2,14.4,0.1,19.9c5.2,5.5,13.7,5.5,18.9,0
						C1747.6,250.1,1747.6,241.2,1742.3,235.7"/>
					
						<radialGradient id="SVGID_8_" cx="1566.3862" cy="245.6331" r="8.3109" gradientTransform="matrix(0.5499 0 0 0.5722 871.6024 105.0722)" gradientUnits="userSpaceOnUse">
						<stop  offset="0" style="stop-color:#FFFFFF"/>
						<stop  offset="1" style="stop-color:#FFFFFF;stop-opacity:0"/>
					</radialGradient>
					<path class="st9" d="M1736.3,242.1c-1.9-2-4.9-2-6.8,0c-1.9,2-1.8,5.2,0,7.1c1.9,2,4.9,2,6.8,0
						C1738.2,247.2,1738.1,244,1736.3,242.1"/>
				</g>
				<g>
					
						<radialGradient id="SVGID_9_" cx="1854.5867" cy="409.412" r="19.8574" gradientTransform="matrix(0.5498 1.066678e-02 -3.531704e-03 0.6021 873.1063 143.1234)" gradientUnits="userSpaceOnUse">
						<stop  offset="0" style="stop-color:#22ADF6"/>
						<stop  offset="1" style="stop-color:#22ADF6;stop-opacity:0"/>
					</radialGradient>
					<path class="st10" d="M1900.8,399.5c-5.2-5.5-13.7-5.5-18.9,0c-5.2,5.5-5.2,14.4,0.1,19.9c5.2,5.5,13.7,5.5,18.9,0
						C1906.1,413.9,1906,405,1900.8,399.5"/>
					
						<radialGradient id="SVGID_10_" cx="1854.5867" cy="409.412" r="8.3109" gradientTransform="matrix(0.5499 0 0 0.5722 871.6024 175.1304)" gradientUnits="userSpaceOnUse">
						<stop  offset="0" style="stop-color:#FFFFFF"/>
						<stop  offset="1" style="stop-color:#FFFFFF;stop-opacity:0"/>
					</radialGradient>
					<path class="st11" d="M1894.7,405.9c-1.9-2-4.9-2-6.8,0c-1.9,2-1.8,5.2,0,7.1c1.9,2,4.9,2,6.8,0
						C1896.6,411,1896.6,407.8,1894.7,405.9"/>
				</g>
				<g>
					
						<radialGradient id="SVGID_11_" cx="1864.5662" cy="156.6281" r="19.8574" gradientTransform="matrix(0.5498 1.066678e-02 -3.531704e-03 0.6021 872.2139 42.4337)" gradientUnits="userSpaceOnUse">
						<stop  offset="0" style="stop-color:#22ADF6"/>
						<stop  offset="1" style="stop-color:#22ADF6;stop-opacity:0"/>
					</radialGradient>
					<path class="st12" d="M1906.3,146.7c-5.2-5.5-13.7-5.5-18.9,0c-5.2,5.5-5.2,14.4,0.1,19.9c5.2,5.5,13.7,5.5,18.9,0
						C1911.5,161.1,1911.5,152.2,1906.3,146.7"/>
					
						<radialGradient id="SVGID_12_" cx="1864.5662" cy="156.6281" r="8.3109" gradientTransform="matrix(0.5499 0 0 0.5722 871.6024 66.9994)" gradientUnits="userSpaceOnUse">
						<stop  offset="0" style="stop-color:#FFFFFF"/>
						<stop  offset="1" style="stop-color:#FFFFFF;stop-opacity:0"/>
					</radialGradient>
					<path class="st13" d="M1900.2,153.1c-1.9-2-4.9-2-6.8,0c-1.9,2-1.8,5.2,0,7.1c1.9,2,4.9,2,6.8,0
						C1902.1,158.2,1902.1,155,1900.2,153.1"/>
				</g>
			</g>
		</g>
		<linearGradient id="SVGID_13_" gradientUnits="userSpaceOnUse" x1="1528.9376" y1="88.4228" x2="2130.8354" y2="15.219">
			<stop  offset="0" style="stop-color:#22ADF6"/>
			<stop  offset="0.308" style="stop-color:#5C7FF0"/>
			<stop  offset="0.6283" style="stop-color:#9154EA"/>
			<stop  offset="0.8689" style="stop-color:#B239E6"/>
			<stop  offset="1" style="stop-color:#BF2FE5"/>
		</linearGradient>
		<path class="st14" d="M2179,411.5l-61.9-268.3c0,0,0,0,0,0s0,0,0,0l0,0c0-0.1-0.1-0.2-0.1-0.2c0,0,0,0,0,0c0,0,0,0,0-0.1
			c0,0-0.1-0.1-0.1-0.1c0,0-0.1,0-0.1-0.1c0,0,0,0,0,0c0,0,0,0,0,0c0,0,0,0-0.1,0c0,0-0.1,0-0.1-0.1c0,0-0.1,0-0.1,0c0,0,0,0,0,0
			c0,0,0,0,0,0L1651.7,31.1l310.9-365c0.1-0.1,0.1-0.2,0.2-0.3c0,0,0-0.1,0-0.1c0-0.1,0-0.2,0-0.3c0,0,0-0.1,0-0.1
			c0-0.1,0-0.2-0.1-0.3c0,0,0,0,0,0c0,0,0,0,0,0c-0.1-0.1-0.1-0.2-0.2-0.3c0,0,0,0,0,0c0,0,0,0,0,0c-0.2-0.1-0.4-0.2-0.6-0.2
			l-333.9,8.6c0,0,0,0,0,0c-0.1,0-0.2,0-0.3,0.1c0,0,0,0-0.1,0c-0.1,0.1-0.2,0.1-0.3,0.2c0,0,0,0,0,0c0,0,0,0,0,0.1
			c0,0.1-0.1,0.1-0.1,0.2l-119.2,240c0,0,0,0,0,0.1c0,0.1,0,0.1-0.1,0.2c0,0,0,0.1,0,0.1c0,0.1,0,0.1,0,0.2c0,0.1,0,0.1,0,0.2
			c0,0,0,0,0,0l100.8,334.5c0,0,0,0,0,0.1c0,0.1,0,0.1,0.1,0.1c0,0,0.1,0.1,0.1,0.1c0,0,0.1,0.1,0.1,0.1c0,0,0.1,0.1,0.1,0.1
			c0,0,0,0,0.1,0l232.1,117c0,0,0,0,0,0c0.1,0,0.1,0.1,0.2,0.1c0,0,0,0,0,0c0,0,0,0,0,0c0,0,0,0,0,0l336.4,46.1c0,0,0.1,0,0.1,0
			c0.3,0,0.5-0.1,0.7-0.3C2179,412.2,2179.1,411.9,2179,411.5z M2114,143.9l-272,220.2L1651.9,33.2L2114,143.9z M1959.6-333.5
			L1650.7,29.2L1629-324.9L1959.6-333.5z M1627.2-322.1l20.9,341.8l0.6,9.8L1510-86.1L1627.2-322.1z M1648.8,32.1l-39.5,212.3
			L1510.7-83L1648.8,32.1z M1610.7,248.1l39.7-213.5l188.8,328.7L1610.7,248.1z M1844.1,365l171.4-138.7l100.1-81l61.2,265.4
			L1844.1,365z"/>
		<g class="st15">
			
				<radialGradient id="SVGID_14_" cx="1354.9238" cy="248.015" r="25.845" gradientTransform="matrix(0.5628 1.066678e-02 -3.615108e-03 0.6021 848.2993 84.233)" gradientUnits="userSpaceOnUse">
				<stop  offset="0" style="stop-color:#22ADF6"/>
				<stop  offset="1" style="stop-color:#22ADF6;stop-opacity:0"/>
			</radialGradient>
			<path class="st16" d="M1622.5,235.1c-7-7.2-18.2-7.2-25.2,0c-6.9,7.2-6.9,18.8,0.1,25.9c7,7.2,18.2,7.2,25.2,0
				C1629.5,253.8,1629.5,242.2,1622.5,235.1"/>
			
				<radialGradient id="SVGID_15_" cx="1354.9238" cy="248.015" r="10.8169" gradientTransform="matrix(0.5629 0 0 0.5722 847.3593 106.0911)" gradientUnits="userSpaceOnUse">
				<stop  offset="0" style="stop-color:#FFFFFF"/>
				<stop  offset="1" style="stop-color:#FFFFFF;stop-opacity:0"/>
			</radialGradient>
			<path class="st17" d="M1614.5,243.4c-2.5-2.6-6.5-2.6-9,0c-2.5,2.6-2.5,6.7,0,9.3c2.5,2.6,6.5,2.6,9,0
				C1617,250.1,1617,245.9,1614.5,243.4"/>
		</g>
		<g class="st15">
			
				<radialGradient id="SVGID_16_" cx="1767.6086" cy="365.0602" r="25.845" gradientTransform="matrix(0.5628 1.066678e-02 -3.615108e-03 0.6021 848.7356 126.4035)" gradientUnits="userSpaceOnUse">
				<stop  offset="0" style="stop-color:#22ADF6"/>
				<stop  offset="1" style="stop-color:#22ADF6;stop-opacity:0"/>
			</radialGradient>
			<path class="st18" d="M1854.8,352.1c-7-7.2-18.2-7.2-25.2,0c-6.9,7.2-6.9,18.8,0.1,25.9c7,7.2,18.2,7.2,25.2,0
				C1861.8,370.9,1861.8,359.3,1854.8,352.1"/>
			
				<radialGradient id="SVGID_17_" cx="1767.6086" cy="365.0602" r="10.8169" gradientTransform="matrix(0.5629 0 0 0.5722 847.3593 156.1584)" gradientUnits="userSpaceOnUse">
				<stop  offset="0" style="stop-color:#FFFFFF"/>
				<stop  offset="1" style="stop-color:#FFFFFF;stop-opacity:0"/>
			</radialGradient>
			<path class="st19" d="M1846.8,360.4c-2.5-2.6-6.5-2.6-9,0c-2.5,2.6-2.5,6.7,0,9.3c2.5,2.6,6.5,2.6,9,0
				C1849.3,367.1,1849.2,363,1846.8,360.4"/>
		</g>
		<g class="st15">
			
				<radialGradient id="SVGID_18_" cx="1425.3116" cy="31.4722" r="25.845" gradientTransform="matrix(0.5628 1.066678e-02 -3.615108e-03 0.6021 847.5187 -2.6806)" gradientUnits="userSpaceOnUse">
				<stop  offset="0" style="stop-color:#22ADF6"/>
				<stop  offset="1" style="stop-color:#22ADF6;stop-opacity:0"/>
			</radialGradient>
			<path class="st20" d="M1662.1,18.5c-7-7.2-18.2-7.2-25.2,0c-6.9,7.2-6.9,18.8,0.1,25.9c7,7.2,18.2,7.2,25.2,0
				C1669.2,37.3,1669.1,25.7,1662.1,18.5"/>
			
				<radialGradient id="SVGID_19_" cx="1425.3116" cy="31.4722" r="10.8169" gradientTransform="matrix(0.5629 0 0 0.5722 847.3593 13.4626)" gradientUnits="userSpaceOnUse">
				<stop  offset="0" style="stop-color:#FFFFFF"/>
				<stop  offset="1" style="stop-color:#FFFFFF;stop-opacity:0"/>
			</radialGradient>
			<path class="st21" d="M1654.1,26.8c-2.5-2.6-6.5-2.6-9,0c-2.5,2.6-2.5,6.7,0,9.3c2.5,2.6,6.5,2.6,9,0
				C1656.6,33.5,1656.6,29.4,1654.1,26.8"/>
		</g>
	</g>
	<g class="st22">
		<g>
			<polygon class="st23" points="339.5,1359.5 52.5,1158.8 333.8,1106.2 			"/>
			<polygon class="st23" points="333.8,1106.2 610.9,1275.6 339.5,1359.5 			"/>
			<polygon class="st23" points="205.4,1473.4 339.5,1359.5 591,1515.2 			"/>
			<linearGradient id="SVGID_20_" gradientUnits="userSpaceOnUse" x1="-150.011" y1="940.0173" x2="1347.2665" y2="757.916">
				<stop  offset="0" style="stop-color:#22ADF6"/>
				<stop  offset="0.308" style="stop-color:#5C7FF0"/>
				<stop  offset="0.6283" style="stop-color:#9154EA"/>
				<stop  offset="0.8689" style="stop-color:#B239E6"/>
				<stop  offset="1" style="stop-color:#BF2FE5"/>
			</linearGradient>
			<path class="st24" d="M1287.6,840.9l40.6-239.7c0,0,0,0,0,0c0,0,0-0.1,0-0.1c0,0,0,0,0-0.1c0,0,0,0,0,0L972,199.7
				c-0.1-0.1-0.2-0.1-0.3,0c-0.1,0.1-0.1,0.2-0.1,0.3l158,331.6L866.8,357.5L970.9,200c0,0,0,0,0,0c0,0,0,0,0,0c0,0,0,0,0,0
				c0-0.1,0-0.1,0-0.2c0,0,0,0,0,0c0,0,0,0,0,0c0-0.1-0.1-0.1-0.1-0.1c0,0,0,0,0,0L624.3,92.5c-0.1,0-0.2,0-0.3,0.1l-376.7,77.1
				c0,0,0,0,0,0c-0.1,0-0.1,0-0.2,0.1c0,0,0,0.1,0,0.1l-367.3,385.5c0,0,0,0,0,0c0,0,0,0,0,0c0,0,0,0.1,0,0.1c0,0,0,0,0,0
				l28.8,285.1l-40,251.2c0,0,0,0,0,0c0,0,0,0.1,0,0.1c0,0,0,0,0,0.1c0,0,0,0,0,0l336.6,381.3c0.1,0.1,0.1,0.1,0.2,0.1
				c0,0,0.1,0,0.1,0c0.1-0.1,0.1-0.2,0.1-0.3L52.9,1159l280.9-52.5l275.2,169l-17,241.8c0,0,0,0,0,0.1c0,0,0,0,0,0c0,0,0,0,0,0
				c0,0,0,0,0,0l33,81.5c0,0.1,0.1,0.2,0.2,0.2c0,0,0.1,0,0.1,0l379.6-125.3c0,0,0,0,0,0c0,0,0.1,0,0.1,0c0,0,0,0,0,0l312.8-382.2
				c0.1-0.1,0.1-0.2,0-0.3c-0.1-0.1-0.2-0.1-0.3-0.1l-158.6,64l174.9-81.9c0.1,0,0.2-0.2,0.1-0.3L1287.6,840.9z M593.5,1516.9
				l155.3-86l128.3-71l127.1,113.5l-199.5,21.2L593.5,1516.9z M624.3,93.1C624.3,93.1,624.4,93.1,624.3,93.1L969,199.6l-377.7-3.4
				L624.3,93.1L624.3,93.1z M866.7,358.1l262.9,174.2l-254,77.5l-2.9-80.7L866.7,358.1z M1287,840.6l-214.8,7.6l58.2-315.1l81,159
				L1287,840.6z M1071.3,848.7l-188.7,256.8l-23.9-106.2L827.5,861l153.9-7.7L1071.3,848.7z M616.6,997V724.5l210,136.3L679,956.6
				L616.6,997z M616.9,724L875,610.5L827,860.3L616.9,724z M616.9,997.4l134.6-87.3l75.5-49l55.2,244.6L722,1040.4L616.9,997.4z
				 M985.3,852.6l-157.8,7.9l48.1-249.8l195.8,237.6L985.3,852.6z M333.7,1105.6L135.6,848.7L391.7,861l-43.1,181.9L333.7,1105.6z
				 M135.6,848.2l205.6-237.6l50.5,249.9L135.6,848.2z M610.9,448.5C610.9,448.5,610.9,448.5,610.9,448.5
				C610.9,448.5,610.9,448.5,610.9,448.5C610.9,448.5,610.9,448.5,610.9,448.5l-259.7-91L590.6,197l20.5,251.5L610.9,448.5z
				 M611.6,448.8L611.6,448.8l19-6.8L866.2,358l8.9,251.6L611.6,448.8z M865.8,357.5l-254.3,90.7l-20.5-251.4l274.6,160.6
				L865.8,357.5z M350.8,357.2L247.9,170.3l341.8,26.4L350.8,357.2z M341.1,609.7L74.4,532.2l276-174.2L341.1,609.7z M340.9,610.2
				L135.2,847.9L74.1,532.7L340.9,610.2z M334.2,1105.7l57.9-244.6l220.6,136.3L334.2,1105.7z M392.2,860.3l-50.5-249.9l271,113.6
				L392.2,860.3z M351,358l259.6,91.3l-269,160.3L351,358z M611.3,449.4c0,0,0.1-0.1,0.1-0.1L874.8,610L616.6,723.6L611.3,449.4
				L611.3,449.4z M616.6,997.8l101.2,41.3l164.2,67l-272.5,168.7L616.6,997.8z M772.2,1174.7l110-68.1l-0.7,34.7l-4.6,217.8
				l-267.1-83.9L772.2,1174.7z M878.2,1323.6l4.6-217.1l267.1,52.4L877.4,1359L878.2,1323.6z M883,1106l126.8-172.6l61.9-84.3
				l78.4,309.4L883,1106z M1287.2,840.1l-156.5-307.3l197,68.5L1287.2,840.1z M1071.7,847.9L875.8,610.2l254.1-77.5L1071.7,847.9z
				 M590.8,196c-0.1,0-0.2,0-0.2,0l-0.3,0.2l-341.1-26.4l374.4-76.6L590.8,196z M247.5,170.7l102.9,186.9l-276,174.1L247.5,170.7z
				 M134.7,848.2l-225.6-7.6L73.7,533.1L134.7,848.2z M-91.1,841.8L52,1158.3l-55-19.9l-128-46.4L-91.1,841.8z M-90.8,841.1
				l225.6,7.6L52.5,1158L-90.8,841.1z M135.2,849l198.2,257l-280.5,52.4L135.2,849z M613.4,997.7
				C613.4,997.7,613.4,997.7,613.4,997.7c0.1,0,0.1-0.1,0.1-0.1c0,0,0,0,0,0c0,0,0-0.1,0-0.1c0,0,0-0.1,0-0.1c0,0,0,0,0,0
				c0,0,0,0-0.1-0.1c0,0,0,0,0-0.1L392.5,860.7l220.9-136.5c0,0,0,0,0,0c0,0,0.1-0.1,0.1-0.1c0,0,0,0,0,0c0,0,0-0.1,0-0.1
				c0,0,0-0.1,0-0.1c0,0,0,0,0,0c0,0,0,0-0.1,0c0,0,0,0-0.1-0.1L341.9,610l268.9-160.3l5.3,274.3v273.5l-7.1,277.4l-274.6-168.7
				L613.4,997.7z M1004.8,1473l-127.2-113.5l272.2-200L1004.8,1473z M1072.2,848.7l214.8-7.6L1150.5,1158L1072.2,848.7z
				 M1327.1,600.6l-192.5-67l-4.3-1.5L972.8,201.4L1327.1,600.6z M866.4,357.3L592.1,196.7l378.2,3.4L866.4,357.3z M73.6,532.1
				l-192.9,23.3l365.9-383.9L73.6,532.1z M73.3,532.6l-30.4,56.8L-91.1,840l-28.6-284.1L73.3,532.6z M-130.4,1092.7L52.3,1159
				l152,312.9L-130.4,1092.7z M609.5,1275.8l0.1,0.1c0,0,0.1,0,0.1,0c0.1,0,0.1,0,0.2-0.1l2.2,0.7l264.4,83l-49,27.1l-235,130.1
				L609.5,1275.8z M592.6,1517.5l242.3-25.7l167.6-17.8l-377.1,124.5L592.6,1517.5z M1005.9,1471.7l144.7-312.8l166.2-67.1
				L1005.9,1471.7z M1150.9,1158.3l136.4-316.5l46.2,231.1L1150.9,1158.3z"/>
			<line class="st25" x1="625.3" y1="1598.8" x2="205.4" y2="1473.4"/>
			<g class="st3">
				<g>
					
						<radialGradient id="SVGID_21_" cx="178.1675" cy="200.3983" r="24.8218" gradientTransform="matrix(0.5498 1.066678e-02 -3.531704e-03 0.6021 872.3157 77.8385)" gradientUnits="userSpaceOnUse">
						<stop  offset="0" style="stop-color:#22ADF6"/>
						<stop  offset="1" style="stop-color:#22ADF6;stop-opacity:0"/>
					</radialGradient>
					<path class="st26" d="M981.3,188c-6.5-6.9-17.1-6.9-23.6,0c-6.5,6.9-6.5,18,0.1,24.9c6.5,6.9,17.1,6.9,23.6,0
						C987.9,206,987.9,194.8,981.3,188"/>
					
						<radialGradient id="SVGID_22_" cx="178.1675" cy="200.3983" r="10.3887" gradientTransform="matrix(0.5499 0 0 0.5722 871.6024 85.7226)" gradientUnits="userSpaceOnUse">
						<stop  offset="0" style="stop-color:#FFFFFF"/>
						<stop  offset="1" style="stop-color:#FFFFFF;stop-opacity:0"/>
					</radialGradient>
					<path class="st27" d="M973.8,195.9c-2.3-2.5-6.1-2.5-8.4,0c-2.3,2.5-2.3,6.4,0,8.9c2.3,2.5,6.1,2.5,8.4,0
						C976.1,202.4,976.1,198.4,973.8,195.9"/>
				</g>
				<g>
					
						<radialGradient id="SVGID_23_" cx="-397.8927" cy="93.3028" r="24.8218" gradientTransform="matrix(0.5628 1.066678e-02 -3.615108e-03 0.6021 847.6838 41.3696)" gradientUnits="userSpaceOnUse">
						<stop  offset="0" style="stop-color:#22ADF6"/>
						<stop  offset="1" style="stop-color:#22ADF6;stop-opacity:0"/>
					</radialGradient>
					<path class="st28" d="M635.5,80.9c-6.7-6.9-17.5-6.9-24.2,0c-6.7,6.9-6.6,18,0.1,24.9c6.7,6.9,17.5,6.9,24.2,0
						C642.2,98.9,642.2,87.7,635.5,80.9"/>
					
						<radialGradient id="SVGID_24_" cx="-397.8927" cy="93.3028" r="10.3887" gradientTransform="matrix(0.5629 0 0 0.5722 847.3593 39.9113)" gradientUnits="userSpaceOnUse">
						<stop  offset="0" style="stop-color:#FFFFFF"/>
						<stop  offset="1" style="stop-color:#FFFFFF;stop-opacity:0"/>
					</radialGradient>
					<path class="st29" d="M627.7,88.9c-2.4-2.5-6.3-2.5-8.6,0c-2.4,2.5-2.4,6.4,0,8.9c2.4,2.5,6.3,2.5,8.6,0
						C630.1,95.3,630.1,91.3,627.7,88.9"/>
				</g>
				<g>
					
						<radialGradient id="SVGID_25_" cx="-456.5866" cy="196.5495" r="24.8218" gradientTransform="matrix(0.5628 1.066678e-02 -3.615108e-03 0.6021 848.0552 83.0778)" gradientUnits="userSpaceOnUse">
						<stop  offset="0" style="stop-color:#22ADF6"/>
						<stop  offset="1" style="stop-color:#22ADF6;stop-opacity:0"/>
					</radialGradient>
					<path class="st30" d="M602.4,184.1c-6.7-6.9-17.5-6.9-24.2,0c-6.7,6.9-6.6,18,0.1,24.9c6.7,6.9,17.5,6.9,24.2,0
						C609.2,202.1,609.1,191,602.4,184.1"/>
					
						<radialGradient id="SVGID_26_" cx="-456.5866" cy="196.5495" r="10.3887" gradientTransform="matrix(0.5629 0 0 0.5722 847.3593 84.0762)" gradientUnits="userSpaceOnUse">
						<stop  offset="0" style="stop-color:#FFFFFF"/>
						<stop  offset="1" style="stop-color:#FFFFFF;stop-opacity:0"/>
					</radialGradient>
					<path class="st31" d="M594.7,192.1c-2.4-2.5-6.3-2.5-8.6,0c-2.4,2.5-2.4,6.4,0,8.9c2.4,2.5,6.3,2.5,8.6,0
						C597.1,198.5,597.1,194.6,594.7,192.1"/>
				</g>
				<g>
					
						<radialGradient id="SVGID_27_" cx="-420.7499" cy="449.2731" r="24.8218" gradientTransform="matrix(0.5628 1.066678e-02 -3.615108e-03 0.6021 848.97 183.2548)" gradientUnits="userSpaceOnUse">
						<stop  offset="0" style="stop-color:#22ADF6"/>
						<stop  offset="1" style="stop-color:#22ADF6;stop-opacity:0"/>
					</radialGradient>
					<path class="st32" d="M622.6,436.8c-6.7-6.9-17.5-6.9-24.2,0c-6.7,6.9-6.6,18,0.1,24.9c6.7,6.9,17.5,6.9,24.2,0
						C629.3,454.8,629.3,443.7,622.6,436.8"/>
					
						<radialGradient id="SVGID_28_" cx="-420.7499" cy="449.2731" r="10.3887" gradientTransform="matrix(0.5629 0 0 0.5722 847.3593 192.1814)" gradientUnits="userSpaceOnUse">
						<stop  offset="0" style="stop-color:#FFFFFF"/>
						<stop  offset="1" style="stop-color:#FFFFFF;stop-opacity:0"/>
					</radialGradient>
					<path class="st33" d="M614.8,444.8c-2.4-2.5-6.3-2.5-8.6,0c-2.4,2.5-2.4,6.4,0,8.9c2.4,2.5,6.3,2.5,8.6,0
						C617.3,451.3,617.2,447.3,614.8,444.8"/>
				</g>
				<g>
					
						<radialGradient id="SVGID_29_" cx="33.0748" cy="358.459" r="24.8218" gradientTransform="matrix(0.5628 1.066678e-02 -3.615108e-03 0.6021 848.6562 142.2788)" gradientUnits="userSpaceOnUse">
						<stop  offset="0" style="stop-color:#22ADF6"/>
						<stop  offset="1" style="stop-color:#22ADF6;stop-opacity:0"/>
					</radialGradient>
					<path class="st34" d="M878,346c-6.7-6.9-17.5-6.9-24.2,0c-6.7,6.9-6.6,18,0.1,24.9c6.7,6.9,17.5,6.9,24.2,0
						C884.8,364,884.7,352.9,878,346"/>
					
						<radialGradient id="SVGID_30_" cx="33.0748" cy="358.459" r="10.3887" gradientTransform="matrix(0.5629 0 0 0.5722 847.3593 153.3347)" gradientUnits="userSpaceOnUse">
						<stop  offset="0" style="stop-color:#FFFFFF"/>
						<stop  offset="1" style="stop-color:#FFFFFF;stop-opacity:0"/>
					</radialGradient>
					<path class="st35" d="M870.3,354c-2.4-2.5-6.3-2.5-8.6,0c-2.4,2.5-2.4,6.4,0,8.9c2.4,2.5,6.3,2.5,8.6,0
						C872.7,360.5,872.7,356.5,870.3,354"/>
				</g>
				<g>
					
						<radialGradient id="SVGID_31_" cx="502.327" cy="533.5746" r="24.8218" gradientTransform="matrix(0.5628 1.066678e-02 -3.615108e-03 0.6021 849.3043 206.9523)" gradientUnits="userSpaceOnUse">
						<stop  offset="0" style="stop-color:#22ADF6"/>
						<stop  offset="1" style="stop-color:#22ADF6;stop-opacity:0"/>
					</radialGradient>
					<path class="st36" d="M1142.1,521.1c-6.7-6.9-17.5-6.9-24.2,0c-6.7,6.9-6.6,18,0.1,24.9c6.7,6.9,17.5,6.9,24.2,0
						C1148.9,539.1,1148.8,528,1142.1,521.1"/>
					
						<radialGradient id="SVGID_32_" cx="502.327" cy="533.5746" r="10.3887" gradientTransform="matrix(0.5629 0 0 0.5722 847.3593 228.2423)" gradientUnits="userSpaceOnUse">
						<stop  offset="0" style="stop-color:#FFFFFF"/>
						<stop  offset="1" style="stop-color:#FFFFFF;stop-opacity:0"/>
					</radialGradient>
					<path class="st37" d="M1134.4,529.1c-2.4-2.5-6.3-2.5-8.6,0c-2.4,2.5-2.4,6.4,0,8.9c2.4,2.5,6.3,2.5,8.6,0
						C1136.8,535.6,1136.8,531.6,1134.4,529.1"/>
				</g>
				<g>
					
						<radialGradient id="SVGID_33_" cx="780.6642" cy="841.1123" r="24.8218" gradientTransform="matrix(0.5628 1.066678e-02 -3.615108e-03 0.6021 850.4249 326.3532)" gradientUnits="userSpaceOnUse">
						<stop  offset="0" style="stop-color:#22ADF6"/>
						<stop  offset="1" style="stop-color:#22ADF6;stop-opacity:0"/>
					</radialGradient>
					<path class="st38" d="M1298.8,828.7c-6.7-6.9-17.5-6.9-24.2,0c-6.7,6.9-6.6,18,0.1,24.9c6.7,6.9,17.5,6.9,24.2,0
						C1305.5,846.7,1305.5,835.5,1298.8,828.7"/>
					
						<radialGradient id="SVGID_34_" cx="780.6642" cy="841.1123" r="10.3887" gradientTransform="matrix(0.5629 0 0 0.5722 847.3593 359.7949)" gradientUnits="userSpaceOnUse">
						<stop  offset="0" style="stop-color:#FFFFFF"/>
						<stop  offset="1" style="stop-color:#FFFFFF;stop-opacity:0"/>
					</radialGradient>
					<path class="st39" d="M1291.1,836.7c-2.4-2.5-6.3-2.5-8.6,0c-2.4,2.5-2.4,6.4,0,8.9c2.4,2.5,6.3,2.5,8.6,0
						C1293.5,843.1,1293.5,839.1,1291.1,836.7"/>
				</g>
				<g>
					
						<radialGradient id="SVGID_35_" cx="-1065.6365" cy="170.9351" r="24.8218" gradientTransform="matrix(0.5628 1.066678e-02 -3.615108e-03 0.6021 847.9431 79.3823)" gradientUnits="userSpaceOnUse">
						<stop  offset="0" style="stop-color:#22ADF6"/>
						<stop  offset="1" style="stop-color:#22ADF6;stop-opacity:0"/>
					</radialGradient>
					<path class="st40" d="M259.6,158.5c-6.7-6.9-17.5-6.9-24.2,0c-6.7,6.9-6.6,18,0.1,24.9c6.7,6.9,17.5,6.9,24.2,0
						C266.3,176.5,266.3,165.4,259.6,158.5"/>
					
						<radialGradient id="SVGID_36_" cx="-1065.6365" cy="170.9351" r="10.3887" gradientTransform="matrix(0.5629 0 0 0.5722 847.3593 73.1193)" gradientUnits="userSpaceOnUse">
						<stop  offset="0" style="stop-color:#FFFFFF"/>
						<stop  offset="1" style="stop-color:#FFFFFF;stop-opacity:0"/>
					</radialGradient>
					<path class="st41" d="M251.9,166.5c-2.4-2.5-6.3-2.5-8.6,0c-2.4,2.5-2.4,6.4,0,8.9c2.4,2.5,6.3,2.5,8.6,0
						C254.3,172.9,254.3,168.9,251.9,166.5"/>
				</g>
				<g>
					
						<radialGradient id="SVGID_37_" cx="11373.1729" cy="725.3996" r="19.5151" gradientTransform="matrix(-0.5628 1.066678e-02 3.615108e-03 0.6021 7013.1196 167.3229)" gradientUnits="userSpaceOnUse">
						<stop  offset="0" style="stop-color:#22ADF6"/>
						<stop  offset="1" style="stop-color:#22ADF6;stop-opacity:0"/>
					</radialGradient>
					<path class="st42" d="M605.2,715.6c5.3-5.4,13.8-5.4,19,0c5.2,5.4,5.2,14.2-0.1,19.6c-5.3,5.4-13.8,5.4-19,0
						C599.9,729.8,599.9,721,605.2,715.6"/>
					
						<radialGradient id="SVGID_38_" cx="11373.1729" cy="725.3996" r="8.1677" gradientTransform="matrix(-0.5629 0 0 0.5722 7016.1064 310.2975)" gradientUnits="userSpaceOnUse">
						<stop  offset="0" style="stop-color:#FFFFFF"/>
						<stop  offset="1" style="stop-color:#FFFFFF;stop-opacity:0"/>
					</radialGradient>
					<path class="st43" d="M611.3,721.9c1.9-1.9,4.9-1.9,6.8,0c1.9,1.9,1.9,5.1,0,7c-1.9,1.9-4.9,1.9-6.8,0
						C609.4,727,609.4,723.8,611.3,721.9"/>
				</g>
				<g>
					
						<radialGradient id="SVGID_39_" cx="-413.414" cy="997.1289" r="19.5151" gradientTransform="matrix(0.5628 1.066678e-02 -3.615108e-03 0.6021 850.9507 401.1696)" gradientUnits="userSpaceOnUse">
						<stop  offset="0" style="stop-color:#22ADF6"/>
						<stop  offset="1" style="stop-color:#22ADF6;stop-opacity:0"/>
					</radialGradient>
					<path class="st44" d="M624.1,987.3c-5.3-5.4-13.8-5.4-19,0c-5.2,5.4-5.2,14.2,0.1,19.6c5.3,5.4,13.8,5.4,19,0
						C629.4,1001.5,629.4,992.7,624.1,987.3"/>
					
						<radialGradient id="SVGID_40_" cx="-413.414" cy="997.1289" r="8.1677" gradientTransform="matrix(0.5629 0 0 0.5722 847.3593 426.5327)" gradientUnits="userSpaceOnUse">
						<stop  offset="0" style="stop-color:#FFFFFF"/>
						<stop  offset="1" style="stop-color:#FFFFFF;stop-opacity:0"/>
					</radialGradient>
					<path class="st45" d="M618.1,993.6c-1.9-1.9-4.9-1.9-6.8,0c-1.9,1.9-1.9,5.1,0,7c1.9,1.9,4.9,1.9,6.8,0
						C619.9,998.7,619.9,995.6,618.1,993.6"/>
				</g>
				<g>
					
						<radialGradient id="SVGID_41_" cx="-38.0991" cy="860.3877" r="22.1494" gradientTransform="matrix(0.5628 1.066678e-02 -3.615108e-03 0.6021 850.4684 342.7565)" gradientUnits="userSpaceOnUse">
						<stop  offset="0" style="stop-color:#22ADF6"/>
						<stop  offset="1" style="stop-color:#22ADF6;stop-opacity:0"/>
					</radialGradient>
					<path class="st46" d="M836.7,849.3c-6-6.1-15.6-6.1-21.6,0c-5.9,6.1-5.9,16.1,0.1,22.2c6,6.1,15.6,6.1,21.6,0
						C842.7,865.4,842.6,855.4,836.7,849.3"/>
					
						<radialGradient id="SVGID_42_" cx="-38.0991" cy="860.3877" r="9.2702" gradientTransform="matrix(0.5629 0 0 0.5722 847.3593 368.0402)" gradientUnits="userSpaceOnUse">
						<stop  offset="0" style="stop-color:#FFFFFF"/>
						<stop  offset="1" style="stop-color:#FFFFFF;stop-opacity:0"/>
					</radialGradient>
					<path class="st47" d="M829.8,856.4c-2.1-2.2-5.6-2.2-7.7,0c-2.1,2.2-2.1,5.7,0,7.9c2.1,2.2,5.6,2.2,7.7,0
						C831.9,862.2,831.9,858.6,829.8,856.4"/>
				</g>
				<g>
					
						<radialGradient id="SVGID_43_" cx="-810.5314" cy="860.3877" r="22.1494" gradientTransform="matrix(0.5628 1.066678e-02 -3.615108e-03 0.6021 850.4437 350.9959)" gradientUnits="userSpaceOnUse">
						<stop  offset="0" style="stop-color:#22ADF6"/>
						<stop  offset="1" style="stop-color:#22ADF6;stop-opacity:0"/>
					</radialGradient>
					<path class="st48" d="M401.9,849.3c-6-6.1-15.6-6.1-21.6,0c-5.9,6.1-5.9,16.1,0.1,22.2c6,6.1,15.6,6.1,21.6,0
						C407.9,865.4,407.9,855.4,401.9,849.3"/>
					
						<radialGradient id="SVGID_44_" cx="-810.5314" cy="860.3877" r="9.2702" gradientTransform="matrix(0.5629 0 0 0.5722 847.3593 368.0402)" gradientUnits="userSpaceOnUse">
						<stop  offset="0" style="stop-color:#FFFFFF"/>
						<stop  offset="1" style="stop-color:#FFFFFF;stop-opacity:0"/>
					</radialGradient>
					<path class="st49" d="M395,856.4c-2.1-2.2-5.6-2.2-7.7,0c-2.1,2.2-2.1,5.7,0,7.9c2.1,2.2,5.6,2.2,7.7,0
						C397.1,862.2,397.1,858.6,395,856.4"/>
				</g>
				<g>
					
						<radialGradient id="SVGID_45_" cx="-1374.1831" cy="533.1711" r="22.1494" gradientTransform="matrix(0.5628 1.066678e-02 -3.615108e-03 0.6021 849.2427 226.8081)" gradientUnits="userSpaceOnUse">
						<stop  offset="0" style="stop-color:#22ADF6"/>
						<stop  offset="1" style="stop-color:#22ADF6;stop-opacity:0"/>
					</radialGradient>
					<path class="st50" d="M84.6,522.1c-6-6.1-15.6-6.1-21.6,0c-5.9,6.1-5.9,16.1,0.1,22.2c6,6.1,15.6,6.1,21.6,0
						C90.7,538.1,90.6,528.2,84.6,522.1"/>
					
						<radialGradient id="SVGID_46_" cx="-1374.1831" cy="533.1711" r="9.2702" gradientTransform="matrix(0.5629 0 0 0.5722 847.3593 228.0697)" gradientUnits="userSpaceOnUse">
						<stop  offset="0" style="stop-color:#FFFFFF"/>
						<stop  offset="1" style="stop-color:#FFFFFF;stop-opacity:0"/>
					</radialGradient>
					<path class="st51" d="M77.7,529.2c-2.1-2.2-5.6-2.2-7.7,0c-2.1,2.2-2.1,5.7,0,7.9c2.1,2.2,5.6,2.2,7.7,0
						C79.9,534.9,79.9,531.4,77.7,529.2"/>
				</g>
				<g>
					
						<radialGradient id="SVGID_47_" cx="-899.7884" cy="610.9601" r="22.1494" gradientTransform="matrix(0.5628 1.066678e-02 -3.615108e-03 0.6021 849.5391 252.7002)" gradientUnits="userSpaceOnUse">
						<stop  offset="0" style="stop-color:#22ADF6"/>
						<stop  offset="1" style="stop-color:#22ADF6;stop-opacity:0"/>
					</radialGradient>
					<path class="st52" d="M351.7,599.9c-6-6.1-15.6-6.1-21.6,0c-5.9,6.1-5.9,16.1,0.1,22.2c6,6.1,15.6,6.1,21.6,0
						C357.7,615.9,357.6,606,351.7,599.9"/>
					
						<radialGradient id="SVGID_48_" cx="-899.7884" cy="610.9601" r="9.2702" gradientTransform="matrix(0.5629 0 0 0.5722 847.3593 261.3448)" gradientUnits="userSpaceOnUse">
						<stop  offset="0" style="stop-color:#FFFFFF"/>
						<stop  offset="1" style="stop-color:#FFFFFF;stop-opacity:0"/>
					</radialGradient>
					<path class="st53" d="M344.8,607c-2.1-2.2-5.6-2.2-7.7,0c-2.1,2.2-2.1,5.7,0,7.9c2.1,2.2,5.6,2.2,7.7,0
						C346.9,612.7,346.9,609.2,344.8,607"/>
				</g>
				<g>
					
						<radialGradient id="SVGID_49_" cx="397.894" cy="849.0573" r="22.1494" gradientTransform="matrix(0.5628 1.066678e-02 -3.615108e-03 0.6021 850.4414 333.5975)" gradientUnits="userSpaceOnUse">
						<stop  offset="0" style="stop-color:#22ADF6"/>
						<stop  offset="1" style="stop-color:#22ADF6;stop-opacity:0"/>
					</radialGradient>
					<path class="st54" d="M1082.1,838c-6-6.1-15.6-6.1-21.6,0c-5.9,6.1-5.9,16.1,0.1,22.2c6,6.1,15.6,6.1,21.6,0
						C1088.1,854,1088,844.1,1082.1,838"/>
					
						<radialGradient id="SVGID_50_" cx="397.894" cy="849.0573" r="9.2702" gradientTransform="matrix(0.5629 0 0 0.5722 847.3593 363.1935)" gradientUnits="userSpaceOnUse">
						<stop  offset="0" style="stop-color:#FFFFFF"/>
						<stop  offset="1" style="stop-color:#FFFFFF;stop-opacity:0"/>
					</radialGradient>
					<path class="st55" d="M1075.2,845.1c-2.1-2.2-5.6-2.2-7.7,0c-2.1,2.2-2.1,5.7,0,7.9c2.1,2.2,5.6,2.2,7.7,0
						C1077.3,850.8,1077.3,847.3,1075.2,845.1"/>
				</g>
				<g>
					
						<radialGradient id="SVGID_51_" cx="-885.283" cy="358.1268" r="23.2947" gradientTransform="matrix(0.5628 1.066678e-02 -3.615108e-03 0.6021 848.6255 151.9426)" gradientUnits="userSpaceOnUse">
						<stop  offset="0" style="stop-color:#22ADF6"/>
						<stop  offset="1" style="stop-color:#22ADF6;stop-opacity:0"/>
					</radialGradient>
					<path class="st56" d="M360.4,346.4c-6.3-6.4-16.4-6.4-22.7,0c-6.2,6.4-6.2,16.9,0.1,23.3c6.3,6.5,16.4,6.4,22.7,0
						C366.7,363.4,366.7,352.9,360.4,346.4"/>
					
						<radialGradient id="SVGID_52_" cx="-885.283" cy="358.1268" r="9.7495" gradientTransform="matrix(0.5629 0 0 0.5722 847.3593 153.1926)" gradientUnits="userSpaceOnUse">
						<stop  offset="0" style="stop-color:#FFFFFF"/>
						<stop  offset="1" style="stop-color:#FFFFFF;stop-opacity:0"/>
					</radialGradient>
					<path class="st57" d="M353.1,354c-2.2-2.3-5.9-2.3-8.1,0c-2.2,2.3-2.2,6,0,8.3c2.2,2.3,5.9,2.3,8.1,0
						C355.4,360,355.4,356.3,353.1,354"/>
				</g>
				<g>
					
						<radialGradient id="SVGID_53_" cx="-1265.2699" cy="849.7429" r="22.1494" gradientTransform="matrix(0.5628 1.066678e-02 -3.615108e-03 0.6021 850.3906 351.6109)" gradientUnits="userSpaceOnUse">
						<stop  offset="0" style="stop-color:#22ADF6"/>
						<stop  offset="1" style="stop-color:#22ADF6;stop-opacity:0"/>
					</radialGradient>
					<path class="st58" d="M145.9,838.6c-6-6.1-15.6-6.1-21.6,0c-5.9,6.1-5.9,16.1,0.1,22.2c6,6.1,15.6,6.1,21.6,0
						C152,854.7,151.9,844.8,145.9,838.6"/>
					
						<radialGradient id="SVGID_54_" cx="-1265.2699" cy="849.7429" r="9.2702" gradientTransform="matrix(0.5629 0 0 0.5722 847.3593 363.4868)" gradientUnits="userSpaceOnUse">
						<stop  offset="0" style="stop-color:#FFFFFF"/>
						<stop  offset="1" style="stop-color:#FFFFFF;stop-opacity:0"/>
					</radialGradient>
					<path class="st59" d="M139,845.8c-2.1-2.2-5.6-2.2-7.7,0c-2.1,2.2-2.1,5.7,0,7.9c2.1,2.2,5.6,2.2,7.7,0
						C141.2,851.5,141.2,848,139,845.8"/>
				</g>
			</g>
		</g>
		<g class="st60">
			<linearGradient id="SVGID_55_" gradientUnits="userSpaceOnUse" x1="-149.9923" y1="946.0346" x2="1348.7057" y2="763.7605">
				<stop  offset="0" style="stop-color:#BF2FE5"/>
				<stop  offset="0.1311" style="stop-color:#B239E6"/>
				<stop  offset="0.3717" style="stop-color:#9154EA"/>
				<stop  offset="0.692" style="stop-color:#5C7FF0"/>
				<stop  offset="1" style="stop-color:#22ADF6"/>
			</linearGradient>
			<path class="st61" d="M1335.8,1072.3C1335.8,1072.3,1335.8,1072.3,1335.8,1072.3l-7-472.2c0,0,0-0.1,0-0.1c0,0,0-0.1,0-0.1
				c0-0.1,0-0.1-0.1-0.2c0,0,0,0,0-0.1l0,0l0,0l-190.3-264.1l0-0.6c0,0,0,0,0,0c0-0.1,0-0.2-0.1-0.3c0,0,0,0,0,0
				c-0.1-0.1-0.1-0.2-0.2-0.3c0,0,0,0,0,0c0,0,0,0-0.1,0c0,0-0.1-0.1-0.1-0.1L623.5,91.1c-0.1,0-0.2-0.1-0.3-0.1c0,0,0,0-0.1,0
				c-0.1,0-0.3,0-0.4,0.1c0,0,0,0,0,0L168,273.4c0,0,0,0,0,0c0,0,0,0-0.1,0c0,0,0,0,0,0c0,0,0,0-0.1,0c0,0-0.1,0.1-0.1,0.1
				c0,0,0,0,0,0l-287.5,294.5c0,0,0,0,0,0c0,0-0.1,0.1-0.1,0.2c0,0-0.1,0.1-0.1,0.1c0,0.1,0,0.1,0,0.2c0,0.1,0,0.1,0,0.2
				c0,0,0,0,0,0l-10.5,536.4c0,0,0,0.1,0,0.1c0,0.1,0,0.1,0,0.2c0,0,0,0.1,0,0.1c0,0.1,0,0.1,0.1,0.2c0,0,0.1,0.1,0.1,0.1
				c0,0,0,0,0,0.1l284,280.5c0,0,0,0,0,0c0.1,0.1,0.1,0.1,0.2,0.1c0,0,0,0,0,0c0,0,0,0,0,0c0,0,0,0,0,0l469.8,226.1c0,0,0,0,0.1,0
				c0.1,0.1,0.3,0.1,0.4,0.1c0.1,0,0.2,0,0.2,0c0,0,0.1,0,0.1,0c0,0,0.1,0,0.1-0.1l531.2-284c0,0,0,0,0.1,0c0,0,0,0,0.1,0
				c0,0,0,0,0,0c0.1-0.1,0.2-0.2,0.3-0.3c0,0,0,0,0,0c0.1-0.1,0.1-0.2,0.1-0.4c0,0,0,0,0-0.1l0.3-8.5l179-246.7
				c0-0.1,0.1-0.1,0.1-0.2c0,0,0,0,0,0C1335.8,1072.4,1335.8,1072.3,1335.8,1072.3z M1154.4,1326.6l-491.8-136.4l507.4-377.4
				L1154.4,1326.6z M1169.7,808.3L662.8,419.8l473.5-83.6L1170,808L1169.7,808.3z M33.1,809.3l625.1,381.1l-503.1,194L33.1,809.3z
				 M178.6,895.7l-145-88.4l255.1-157.4L659.4,421v767.8L178.6,895.7z M658,419.5L405.7,575.2L33.2,805.1l22.4-87.4l113.4-442.1
				l188.1,55.4L658,419.5z M31.2,810.1l121.5,572.6l-281.1-277.6L31.2,810.1z M661.4,1188.6V421.2l507.2,388.8v0c0,0,0,0,0,0
				c0,0.1,0,0.1,0.1,0.2c0,0,0,0,0,0.1c0,0,0,0,0,0l0.4,0.6L661.4,1188.6z M1334.2,1069.6l-162.1-256.8l0.1-2c0,0,0,0,0-0.1
				c0,0,0,0,0,0l-0.2-2.8l155.3-205.5L1334.2,1069.6z M1327.1,600.1l-155.3,205.4l-33.3-467L1327.1,600.1z M1015.3,355.6l-354,62.5
				l-35.2-307.9l-1.9-16.5l509.8,241L1015.3,355.6z M622.2,93.4l37.1,324.4l-15-4.4L171.4,274.2L622.2,93.4z M166.5,277.7
				L31.3,804.7L-117.8,569L166.5,277.7z M-118.2,572.2L30.5,807.3l-73.6,136l-85.4,157.9L-118.2,572.2z M659.3,1192.1l-36,418.3
				l-466.4-224.5L659.3,1192.1z M661.3,1191.9l491.4,136.3l-527.4,282L661.3,1191.9z M1156.7,1316.7l15.3-501.2l162.1,256.7
				L1156.7,1316.7z"/>
			<g class="st15">
				
					<radialGradient id="SVGID_56_" cx="-331.7065" cy="419.633" r="39.609" gradientTransform="matrix(0.5628 1.066678e-02 -3.615108e-03 0.6021 848.8657 170.5111)" gradientUnits="userSpaceOnUse">
					<stop  offset="0" style="stop-color:#766AED"/>
					<stop  offset="1" style="stop-color:#766AED;stop-opacity:0"/>
				</radialGradient>
				<path class="st62" d="M679.9,399.8c-10.7-11-28-11-38.6,0c-10.6,11-10.6,28.7,0.1,39.7c10.7,11,28,11,38.6,0
					C690.6,428.5,690.6,410.7,679.9,399.8"/>
				
					<radialGradient id="SVGID_57_" cx="-331.7065" cy="419.633" r="16.5775" gradientTransform="matrix(0.5629 0 0 0.5722 847.3593 179.5026)" gradientUnits="userSpaceOnUse">
					<stop  offset="0" style="stop-color:#FFFFFF"/>
					<stop  offset="1" style="stop-color:#FFFFFF;stop-opacity:0"/>
				</radialGradient>
				<path class="st63" d="M667.5,412.5c-3.8-3.9-10-3.9-13.8,0c-3.8,3.9-3.8,10.3,0,14.2c3.8,3.9,10,3.9,13.8,0
					C671.4,422.8,671.4,416.5,667.5,412.5"/>
			</g>
			<g class="st15">
				
					<radialGradient id="SVGID_58_" cx="-1207.2153" cy="275.633" r="39.609" gradientTransform="matrix(0.5628 1.066678e-02 -3.615108e-03 0.6021 848.317 122.5521)" gradientUnits="userSpaceOnUse">
					<stop  offset="0" style="stop-color:#9B4CE9"/>
					<stop  offset="1" style="stop-color:#9A4CE9;stop-opacity:0"/>
				</radialGradient>
				<path class="st64" d="M187.1,255.8c-10.7-11-28-11-38.6,0c-10.6,11-10.6,28.7,0.1,39.7c10.7,11,28,11,38.6,0
					C197.8,284.5,197.8,266.7,187.1,255.8"/>
				
					<radialGradient id="SVGID_59_" cx="-1207.2153" cy="275.633" r="16.5775" gradientTransform="matrix(0.5629 0 0 0.5722 847.3593 117.905)" gradientUnits="userSpaceOnUse">
					<stop  offset="0" style="stop-color:#FFFFFF"/>
					<stop  offset="1" style="stop-color:#FFFFFF;stop-opacity:0"/>
				</radialGradient>
				<path class="st65" d="M174.7,268.5c-3.8-3.9-10-3.9-13.8,0c-3.8,3.9-3.8,10.3,0,14.2c3.8,3.9,10,3.9,13.8,0
					C178.6,278.8,178.6,272.5,174.7,268.5"/>
			</g>
			<g class="st15">
				
					<radialGradient id="SVGID_60_" cx="-398.8802" cy="93.1003" r="39.609" gradientTransform="matrix(0.5628 1.066678e-02 -3.615108e-03 0.6021 847.683 41.2996)" gradientUnits="userSpaceOnUse">
					<stop  offset="0" style="stop-color:#766AED"/>
					<stop  offset="1" style="stop-color:#766AED;stop-opacity:0"/>
				</radialGradient>
				<path class="st66" d="M642.1,73.2c-10.7-11-28-11-38.6,0c-10.6,11-10.6,28.7,0.1,39.7c10.7,11,28,11,38.6,0
					C652.8,102,652.8,84.2,642.1,73.2"/>
				
					<radialGradient id="SVGID_61_" cx="-398.8802" cy="93.1003" r="16.5775" gradientTransform="matrix(0.5629 0 0 0.5722 847.3593 39.8247)" gradientUnits="userSpaceOnUse">
					<stop  offset="0" style="stop-color:#FFFFFF"/>
					<stop  offset="1" style="stop-color:#FFFFFF;stop-opacity:0"/>
				</radialGradient>
				<path class="st67" d="M629.7,86c-3.8-3.9-10-3.9-13.8,0c-3.8,3.9-3.8,10.3,0,14.2c3.8,3.9,10,3.9,13.8,0
					C633.6,96.3,633.5,89.9,629.7,86"/>
			</g>
			<g class="st15">
				
					<radialGradient id="SVGID_62_" cx="516.8043" cy="336.4169" r="39.609" gradientTransform="matrix(0.5628 1.066678e-02 -3.615108e-03 0.6021 848.592 128.3484)" gradientUnits="userSpaceOnUse">
					<stop  offset="0" style="stop-color:#22ADF6"/>
					<stop  offset="1" style="stop-color:#22ADF6;stop-opacity:0"/>
				</radialGradient>
				<path class="st68" d="M1157.5,316.6c-10.7-11-28-11-38.6,0c-10.6,11-10.6,28.7,0.1,39.7c10.7,11,28,11,38.6,0
					C1168.2,345.3,1168.2,327.5,1157.5,316.6"/>
				
					<radialGradient id="SVGID_63_" cx="516.8043" cy="336.4169" r="16.5775" gradientTransform="matrix(0.5629 0 0 0.5722 847.3593 143.906)" gradientUnits="userSpaceOnUse">
					<stop  offset="0" style="stop-color:#FFFFFF"/>
					<stop  offset="1" style="stop-color:#FFFFFF;stop-opacity:0"/>
				</radialGradient>
				<path class="st69" d="M1145.1,329.3c-3.8-3.9-10-3.9-13.8,0c-3.8,3.9-3.8,10.3,0,14.2c3.8,3.9,10,3.9,13.8,0
					C1149,339.6,1148.9,333.2,1145.1,329.3"/>
			</g>
			<g class="st15">
				
					<radialGradient id="SVGID_64_" cx="853.6374" cy="603.432" r="39.609" gradientTransform="matrix(0.5628 1.066678e-02 -3.615108e-03 0.6021 849.5681 231.0013)" gradientUnits="userSpaceOnUse">
					<stop  offset="0" style="stop-color:#22ADF6"/>
					<stop  offset="1" style="stop-color:#22ADF6;stop-opacity:0"/>
				</radialGradient>
				<path class="st70" d="M1347.1,583.6c-10.7-11-28-11-38.6,0c-10.6,11-10.6,28.7,0.1,39.7c10.7,11,28,11,38.6,0
					C1357.8,612.3,1357.8,594.5,1347.1,583.6"/>
				
					<radialGradient id="SVGID_65_" cx="853.6374" cy="603.432" r="16.5775" gradientTransform="matrix(0.5629 0 0 0.5722 847.3593 258.1246)" gradientUnits="userSpaceOnUse">
					<stop  offset="0" style="stop-color:#FFFFFF"/>
					<stop  offset="1" style="stop-color:#FFFFFF;stop-opacity:0"/>
				</radialGradient>
				<path class="st71" d="M1334.7,596.3c-3.8-3.9-10-3.9-13.8,0c-3.8,3.9-3.8,10.3,0,14.2c3.8,3.9,10,3.9,13.8,0
					C1338.5,606.6,1338.5,600.3,1334.7,596.3"/>
			</g>
			<g class="st15">
				
					<radialGradient id="SVGID_66_" cx="574.0145" cy="810.7486" r="39.609" gradientTransform="matrix(0.5628 1.066678e-02 -3.615108e-03 0.6021 850.3086 316.4757)" gradientUnits="userSpaceOnUse">
					<stop  offset="0" style="stop-color:#22ADF6"/>
					<stop  offset="1" style="stop-color:#22ADF6;stop-opacity:0"/>
				</radialGradient>
				<path class="st72" d="M1189.7,790.9c-10.7-11-28-11-38.6,0c-10.6,11-10.6,28.7,0.1,39.7c10.7,11,28,11,38.6,0
					C1200.4,819.6,1200.4,801.9,1189.7,790.9"/>
				
					<radialGradient id="SVGID_67_" cx="574.0145" cy="810.7486" r="16.5775" gradientTransform="matrix(0.5629 0 0 0.5722 847.3593 346.8065)" gradientUnits="userSpaceOnUse">
					<stop  offset="0" style="stop-color:#FFFFFF"/>
					<stop  offset="1" style="stop-color:#FFFFFF;stop-opacity:0"/>
				</radialGradient>
				<path class="st73" d="M1177.3,803.7c-3.8-3.9-10-3.9-13.8,0c-3.8,3.9-3.8,10.3,0,14.2c3.8,3.9,10,3.9,13.8,0
					C1181.2,813.9,1181.1,807.6,1177.3,803.7"/>
			</g>
			<g class="st74">
				
					<radialGradient id="SVGID_68_" cx="861.3511" cy="1070.1656" r="49.5112" gradientTransform="matrix(0.5628 1.066678e-02 -3.615108e-03 0.6021 851.2556 416.6334)" gradientUnits="userSpaceOnUse">
					<stop  offset="0" style="stop-color:#22ADF6"/>
					<stop  offset="1" style="stop-color:#22ADF6;stop-opacity:0"/>
				</radialGradient>
				<path class="st75" d="M1356.2,1045.3c-13.4-13.7-35-13.7-48.2,0c-13.3,13.7-13.2,35.9,0.2,49.6c13.4,13.7,35,13.7,48.2,0
					C1369.6,1081.3,1369.6,1059.1,1356.2,1045.3"/>
				
					<radialGradient id="SVGID_69_" cx="861.3511" cy="1070.1656" r="20.7219" gradientTransform="matrix(0.5629 0 0 0.5722 847.3593 457.775)" gradientUnits="userSpaceOnUse">
					<stop  offset="0" style="stop-color:#FFFFFF"/>
					<stop  offset="1" style="stop-color:#FFFFFF;stop-opacity:0"/>
				</radialGradient>
				<path class="st76" d="M1340.8,1061.3c-4.8-4.9-12.5-4.9-17.2,0c-4.7,4.9-4.7,12.8,0.1,17.7c4.8,4.9,12.5,4.9,17.2,0
					C1345.6,1074.1,1345.5,1066.2,1340.8,1061.3"/>
			</g>
			<g class="st77">
				
					<radialGradient id="SVGID_70_" cx="-1448.6981" cy="807.1305" r="39.609" gradientTransform="matrix(0.5628 1.066678e-02 -3.615108e-03 0.6021 850.2307 336.6119)" gradientUnits="userSpaceOnUse">
					<stop  offset="0" style="stop-color:#9B4CE9"/>
					<stop  offset="1" style="stop-color:#9A4CE9;stop-opacity:0"/>
				</radialGradient>
				<path class="st78" d="M51.2,787.3c-10.7-11-28-11-38.6,0C2,798.2,2,816,12.7,827c10.7,11,28,11,38.6,0
					C61.9,816,61.9,798.2,51.2,787.3"/>
				
					<radialGradient id="SVGID_71_" cx="-1448.6981" cy="807.1305" r="16.5775" gradientTransform="matrix(0.5629 0 0 0.5722 847.3593 345.2588)" gradientUnits="userSpaceOnUse">
					<stop  offset="0" style="stop-color:#FFFFFF"/>
					<stop  offset="1" style="stop-color:#FFFFFF;stop-opacity:0"/>
				</radialGradient>
				<path class="st79" d="M38.8,800c-3.8-3.9-10-3.9-13.8,0c-3.8,3.9-3.8,10.3,0,14.2c3.8,3.9,10,3.9,13.8,0
					C42.7,810.3,42.6,804,38.8,800"/>
			</g>
		</g>
	</g>
</g>
</svg>
