<?xml version="1.0" encoding="utf-8"?>
<!-- Generator: Adobe Illustrator 24.2.0, SVG Export Plug-In . SVG Version: 6.00 Build 0)  -->
<svg version="1.1" id="svg5227" xmlns:svg="http://www.w3.org/2000/svg"
	 xmlns="http://www.w3.org/2000/svg" xmlns:xlink="http://www.w3.org/1999/xlink" x="0px" y="0px" viewBox="0 0 1024 370"
	 style="enable-background:new 0 0 1024 370;" xml:space="preserve">
<style type="text/css">
	.st0{fill:#FFFFFF;stroke:#FFFFFF;stroke-width:3.2822;stroke-miterlimit:13.1289;}
	.st1{fill:#FFFFFF;stroke:#FFFFFF;stroke-miterlimit:10;}
	.st2{fill:#FFFFFF;stroke:#FFFFFF;stroke-width:4.0097;stroke-miterlimit:32.8223;}
	.st3{fill:none;stroke:#FFFFFF;stroke-width:4.0097;stroke-miterlimit:32.8223;}
	.st4{fill:#FFFFFF;}
</style>
<path id="path3696" class="st0" d="M280.6,190.2L280.6,190.2c0-4.3,1.5-7.7,4.3-10.5c2.8-3.1,6.5-4.3,10.5-4.3s7.4,1.2,10.2,4.3
	c3.1,2.8,4.6,6.2,4.6,10.5v147c0,4-1.5,7.4-4.3,10.5c-2.8,2.8-6.5,4.3-10.5,4.3s-7.4-1.5-10.2-4.3c-3.1-3.1-4.6-6.5-4.6-10.5
	L280.6,190.2L280.6,190.2z"/>
<path id="path3716" class="st1" d="M337.4,234.6L337.4,234.6c0-8.9,1.9-17.6,5.2-25.3c3.4-8,8-15.1,13.9-20.9
	c5.9-5.9,12.7-10.5,20.7-13.9c8-3.4,16.4-4.9,25.6-4.9c6.5,0,13,0.9,19.1,2.8c5.8,1.8,11.4,4.6,16.7,8c5.3,3.4,9.9,7.4,13.9,12.3
	c4,4.6,7.4,9.9,9.9,15.7c0.6,1.2,1.2,2.5,1.2,4c0.3,1.2,0.6,2.5,0.6,3.7c0,3.4-1.2,6.8-3.7,9.9c-2.8,3.1-6.2,4.6-10.8,4.6
	c-6.2,0-10.5-3.1-13.6-8.9c-2.5-6.5-6.8-12-13-16.3c-5.9-4.3-12.7-6.5-20.4-6.5c-4.9,0-9.6,0.9-14.2,2.8c-4.3,1.8-8,4.6-11.4,7.7
	c-3.4,3.1-5.9,7.1-7.7,11.4c-1.9,4.3-2.8,8.9-2.8,13.9v57.9c0,4.9,0.9,9.2,2.8,13.9c2.2,4.3,4.6,8,8,11.4c3.4,3.1,7.1,5.5,11.4,7.4
	c4.3,1.8,8.9,2.8,13.9,2.8c7.7,0,14.5-2.2,20.4-6.5c6.2-4.3,10.5-9.9,13.3-16.3c1.2-2.5,3.4-4.6,5.8-6.2c2.5-1.5,4.9-2.5,7.4-2.5
	c4.3,0,8,1.5,10.5,4.6c2.5,3.1,4,6.2,4,9.9c0,2.2-0.3,4-1.2,5.5c-2.2,6.2-5.6,11.7-9.6,16.6c-4,4.9-8.6,9.2-13.6,12.9
	c-5.2,3.7-11.1,6.5-17.3,8.3c-6.2,2.2-12.7,3.1-19.8,3.1c-8.9,0-17.3-1.8-25.3-5.2s-14.8-8.3-20.7-14.2
	c-5.9-5.9-10.8-12.6-14.2-20.3c-3.4-8-5.2-16.3-5.2-25.3L337.4,234.6L337.4,234.6z"/>
<path id="path3746" class="st2" d="M492.6,190.2L492.6,190.2c0-4.3,1.2-7.7,4.3-10.5c2.8-3.1,6.2-4.3,10.2-4.3c4,0,7.4,1.2,10.5,4.3
	c2.8,2.8,4.3,6.2,4.3,10.5v147c0,4-1.2,7.4-4.3,10.5c-2.8,2.8-6.2,4.3-10.5,4.3c-3.7,0-7.1-1.5-10.2-4.3c-3.1-3.1-4.3-6.5-4.3-10.5
	V190.2L492.6,190.2z"/>
<path id="path3756" class="st1" d="M549.4,234.6L549.4,234.6c0-8.6,1.6-17.3,4.9-25c3.4-8,8-14.8,13.9-20.6c5.8-5.9,13-10.5,21-13.9
	c7.7-3.7,16.4-5.2,25.3-5.2c8.6,0,17.3,1.5,25.3,5.2c7.7,3.4,14.8,8,20.7,13.9c5.8,5.9,10.5,12.6,13.9,20.6c3.7,7.7,5.3,16.3,5.3,25
	v102.6c0,4-1.2,7.4-4,10.5c-2.8,2.8-6.2,4.3-10.5,4.3c-3.7,0-7.1-1.5-10.2-4.3c-3.1-3.1-4.3-6.5-4.3-10.5V234.6
	c0-4.6-0.9-9.2-2.8-13.6c-1.9-4.3-4.6-8.3-8-11.4c-3.1-3.4-7.1-5.9-11.4-7.7c-4.3-1.8-9-2.8-13.9-2.8c-5.2,0-9.9,0.9-14.2,2.8
	c-4.3,1.8-8,4.3-11.4,7.7c-3.1,3.1-5.8,7.1-7.7,11.4c-1.9,4.3-2.8,8.9-2.8,13.6v102.6c0,4-1.2,7.4-4,10.5c-2.8,2.8-6.2,4.3-10.5,4.3
	c-4,0-7.4-1.5-10.2-4.3c-3.1-3.1-4.3-6.5-4.3-10.5L549.4,234.6L549.4,234.6z"/>
<path id="path3706" class="st2" d="M280.6,190.2L280.6,190.2c0-4.3,1.5-7.7,4.3-10.5c2.8-3.1,6.5-4.3,10.5-4.3c4,0,7.4,1.2,10.2,4.3
	c3.1,2.8,4.6,6.2,4.6,10.5v147c0,4-1.5,7.4-4.3,10.5c-2.8,2.8-6.5,4.3-10.5,4.3s-7.4-1.5-10.2-4.3c-3.1-3.1-4.6-6.5-4.6-10.5
	L280.6,190.2L280.6,190.2L280.6,190.2z"/>
<path id="path3726" class="st2" d="M337.4,234.6L337.4,234.6c0-8.9,1.9-17.6,5.2-25.3c3.4-8,8-15.1,13.9-20.9
	c5.9-5.9,12.7-10.5,20.7-13.9c8-3.4,16.4-4.9,25.6-4.9c6.5,0,13,0.9,19.1,2.8c5.8,1.8,11.4,4.6,16.7,8c5.3,3.4,9.9,7.4,13.9,12.3
	c4,4.6,7.4,9.9,9.9,15.7c0.6,1.2,1.2,2.5,1.2,4c0.3,1.2,0.6,2.5,0.6,3.7c0,3.4-1.2,6.8-3.7,9.9c-2.8,3.1-6.2,4.6-10.8,4.6
	c-6.2,0-10.5-3.1-13.6-8.9c-2.5-6.5-6.8-12-13-16.3c-5.9-4.3-12.7-6.5-20.4-6.5c-4.9,0-9.6,0.9-14.2,2.8c-4.3,1.8-8,4.6-11.4,7.7
	c-3.4,3.1-5.9,7.1-7.7,11.4c-1.9,4.3-2.8,8.9-2.8,13.9v57.9c0,4.9,0.9,9.2,2.8,13.9c2.2,4.3,4.6,8,8,11.4c3.4,3.1,7.1,5.5,11.4,7.4
	c4.3,1.8,8.9,2.8,13.9,2.8c7.7,0,14.5-2.2,20.4-6.5c6.2-4.3,10.5-9.9,13.3-16.3c1.2-2.5,3.4-4.6,5.8-6.2c2.5-1.5,4.9-2.5,7.4-2.5
	c4.3,0,8,1.5,10.5,4.6c2.5,3.1,4,6.2,4,9.9c0,2.2-0.3,4-1.2,5.5c-2.2,6.2-5.6,11.7-9.6,16.6c-4,4.9-8.6,9.2-13.6,12.9
	c-5.2,3.7-11.1,6.5-17.3,8.3c-6.2,2.2-12.7,3.1-19.8,3.1c-8.9,0-17.3-1.8-25.3-5.2c-8-3.4-14.8-8.3-20.7-14.2
	c-5.9-5.9-10.8-12.6-14.2-20.3c-3.4-8-5.2-16.3-5.2-25.3L337.4,234.6L337.4,234.6L337.4,234.6z"/>
<path id="path3766" class="st2" d="M549.4,234.6L549.4,234.6c0-8.6,1.6-17.3,4.9-25c3.4-8,8-14.8,13.9-20.6c5.8-5.9,13-10.5,21-13.9
	c7.7-3.7,16.4-5.2,25.3-5.2c8.6,0,17.3,1.5,25.3,5.2c7.7,3.4,14.8,8,20.7,13.9c5.8,5.9,10.5,12.6,13.9,20.6c3.7,7.7,5.3,16.3,5.3,25
	v102.6c0,4-1.2,7.4-4,10.5c-2.8,2.8-6.2,4.3-10.5,4.3c-3.7,0-7.1-1.5-10.2-4.3c-3.1-3.1-4.3-6.5-4.3-10.5V234.6
	c0-4.6-0.9-9.2-2.8-13.6c-1.9-4.3-4.6-8.3-8-11.4c-3.1-3.4-7.1-5.9-11.4-7.7c-4.3-1.8-9-2.8-13.9-2.8c-5.2,0-9.9,0.9-14.2,2.8
	c-4.3,1.8-8,4.3-11.4,7.7c-3.1,3.1-5.8,7.1-7.7,11.4c-1.9,4.3-2.8,8.9-2.8,13.6v102.6c0,4-1.2,7.4-4,10.5c-2.8,2.8-6.2,4.3-10.5,4.3
	c-4,0-7.4-1.5-10.2-4.3c-3.1-3.1-4.3-6.5-4.3-10.5V234.6L549.4,234.6z"/>
<path id="path3776" class="st1" d="M709,234.6L709,234.6c0-8.6,1.9-17.3,5.2-25.3c3.4-7.7,8-14.8,13.9-20.6c5.8-5.9,13-10.5,21-13.9
	c7.7-3.4,16.4-4.9,25.3-4.9c6.8,0,13.3,0.9,19.5,2.8c6.2,2.2,12,4.6,17.3,8.3c5.2,3.7,9.9,8,13.9,12.9c4,4.9,7.4,10.5,9.9,16.6
	c0.3,0.6,0.6,1.5,0.6,2.8c0,0.9,0,1.8,0,3.1c0,3.4-1.2,6.8-3.7,9.9c-2.5,3.1-5.8,4.3-10.5,4.3c-2.8,0-5.2-0.6-7.7-1.8
	c-2.5-1.5-4.3-3.7-5.6-6.5c-2.8-6.8-7.4-12.3-13.3-16.6c-5.8-4.3-12.6-6.5-20.4-6.5c-5.2,0-9.9,0.9-14.2,2.8
	c-4.3,1.8-8,4.3-11.4,7.7c-3.1,3.1-5.6,7.1-7.7,11.4c-1.9,4.3-2.8,8.9-2.8,13.6v57.9c0,4.9,0.9,9.2,2.8,13.9c2.1,4.3,4.6,8,8,11.4
	c3.1,3.1,7.1,5.5,11.4,7.4c4.4,1.8,9,2.8,13.9,2.8c4.9,0,9.6-0.9,13.9-2.8c4.3-1.8,8.3-4.3,11.4-7.4c3.4-3.4,5.9-7.1,7.7-11.4
	c1.9-4.6,2.8-8.9,2.8-13.9v-7.1h-14.5c-4,0-7.4-1.5-10.2-4.3c-2.8-3.1-4.3-6.5-4.3-10.5c0-4,1.6-7.4,4.3-10.2
	c2.8-2.8,6.2-4.3,10.2-4.3H825c4,0,7.4,1.2,10.5,4c2.8,2.8,4,6.2,4,10.5v21.9c0,8.9-1.6,17.3-4.9,25.3c-3.7,7.7-8.4,14.5-14.2,20.3
	c-5.9,5.9-13,10.8-20.7,14.2c-8,3.4-16.3,5.2-25.3,5.2c-8.9,0-17.6-1.8-25.3-5.2c-8-3.4-15.1-8.3-21-14.2
	c-5.9-5.9-10.5-12.6-13.9-20.3c-3.4-8-5.2-16.3-5.2-25.3L709,234.6L709,234.6z"/>
<path id="path3806" class="st2" d="M932.7,225.6L932.7,225.6c-1.9,4.3-3.7,8.3-5.3,12.3c-1.9,4-3.4,8-5.3,12c-1.9,4-3.7,8-5.6,12
	c-1.5,4-3.4,8.3-5.6,13.3h43.2L932.7,225.6L932.7,225.6z M919.5,183.1L919.5,183.1c2.8-5.9,7.4-8.9,13.3-8.9c0.9,0,1.9,0.3,3.1,0.3
	c0.9,0.3,1.9,0.6,2.8,1.2c3.7,1.5,6.2,4.3,7.7,7.4l63.6,148.8c0.9,2.2,1.5,4,1.5,5.9c0,3.4-1.2,6.5-4,9.6c-2.5,3.1-6.2,4.6-10.5,4.6
	c-6.8,0-11.1-2.8-13.6-8.6L967,304.5h-67.9c-2.8,6.5-5.6,12.9-8.4,19.4c-2.8,6.2-5.6,12.6-8.3,19.4c-1.2,3.1-3.1,5.2-5.6,6.8
	c-2.2,1.2-4.9,1.8-7.7,1.8c-4.6,0-8-1.5-10.5-4.6c-2.8-3.1-4-6.2-4-9.6c0-0.9,0-1.8,0.3-3.1c0-0.9,0.3-1.8,0.9-2.8L919.5,183.1
	L919.5,183.1L919.5,183.1z"/>
<path id="path3786" class="st2" d="M709,234.6L709,234.6c0-8.6,1.9-17.3,5.2-25.3c3.4-7.7,8-14.8,13.9-20.6c5.8-5.9,13-10.5,21-13.9
	c7.7-3.4,16.4-4.9,25.3-4.9c6.8,0,13.3,0.9,19.5,2.8c6.2,2.2,12,4.6,17.3,8.3c5.2,3.7,9.9,8,13.9,12.9c4,4.9,7.4,10.5,9.9,16.6
	c0.3,0.6,0.6,1.5,0.6,2.8c0,0.9,0,1.8,0,3.1c0,3.4-1.2,6.8-3.7,9.9c-2.5,3.1-5.8,4.3-10.5,4.3c-2.8,0-5.2-0.6-7.7-1.8
	c-2.5-1.5-4.3-3.7-5.6-6.5c-2.8-6.8-7.4-12.3-13.3-16.6c-5.8-4.3-12.6-6.5-20.4-6.5c-5.2,0-9.9,0.9-14.2,2.8
	c-4.3,1.8-8,4.3-11.4,7.7c-3.1,3.1-5.6,7.1-7.7,11.4c-1.9,4.3-2.8,8.9-2.8,13.6v57.9c0,4.9,0.9,9.2,2.8,13.9c2.1,4.3,4.6,8,8,11.4
	c3.1,3.1,7.1,5.5,11.4,7.4c4.4,1.8,9,2.8,13.9,2.8s9.6-0.9,13.9-2.8c4.3-1.8,8.3-4.3,11.4-7.4c3.4-3.4,5.9-7.1,7.7-11.4
	c1.9-4.6,2.8-8.9,2.8-13.9v-7.1h-14.5c-4,0-7.4-1.5-10.2-4.3c-2.8-3.1-4.3-6.5-4.3-10.5c0-4,1.6-7.4,4.3-10.2
	c2.8-2.8,6.2-4.3,10.2-4.3H825c4,0,7.4,1.2,10.5,4c2.8,2.8,4,6.2,4,10.5v21.9c0,8.9-1.6,17.3-4.9,25.3c-3.7,7.7-8.4,14.5-14.2,20.3
	c-5.9,5.9-13,10.8-20.7,14.2c-8,3.4-16.3,5.2-25.3,5.2c-8.9,0-17.6-1.8-25.3-5.2c-8-3.4-15.1-8.3-21-14.2
	c-5.9-5.9-10.5-12.6-13.9-20.3c-3.4-8-5.2-16.3-5.2-25.3L709,234.6L709,234.6L709,234.6z"/>
<path id="path3906" class="st3" d="M144.2,142.8L144.2,142.8l40.1-82.6 M118,155.1L118,155.1L50.4,99.6 M137.7,177.6L137.7,177.6
	l46,77 M134.6,174.2L134.6,174.2l164.8-40.7 M134.6,174.2L134.6,174.2L55,288.2"/>
<path id="path4016" class="st4" d="M97.9,127.7L97.9,127.7c23.1-18.8,57.1-15.4,75.9,7.7s15.4,57-7.7,75.8
	c-23.1,18.5-57.1,15.1-75.9-8C71.4,180.4,75.1,146.5,97.9,127.7L97.9,127.7z M173.8,18.6L173.8,18.6c12-9.6,29.6-7.7,39.5,4
	c9.9,12,8,29.6-4,39.4s-29.6,8-39.5-4C159.9,46,161.8,28.4,173.8,18.6z M273.5,132.3L273.5,132.3c-0.9-12,8.3-22.5,20.4-23.4
	c12.3-0.9,22.8,8,23.8,20c0.9,12.3-8.3,22.8-20.4,23.7C285.2,153.5,274.4,144.6,273.5,132.3z M35.6,107.9L35.6,107.9
	c-3.7-7.7-0.6-17.6,7.4-21.3c8-4,17.6-0.6,21.6,7.4c4,7.7,0.6,17.6-7.4,21.3C49.1,119.3,39.6,116,35.6,107.9
	C35.6,107.9,35.6,107.9,35.6,107.9z M172.6,255.5L172.6,255.5c0.6-6.2,6.2-10.8,12.3-10.2c6.2,0.9,10.8,6.5,9.9,12.6
	c-0.6,6.2-6.2,10.5-12.3,9.9C176.3,267.2,171.7,261.7,172.6,255.5L172.6,255.5z M12.7,293.7L12.7,293.7c-1.5-20,13.3-37.3,33.3-38.8
	c20.1-1.5,37.3,13.6,38.9,33.3c1.5,20-13.3,37.6-33.3,39.1C31.6,328.6,14,313.8,12.7,293.7z"/>
<path id="path3926" class="st3" d="M12.7,293.7L12.7,293.7c-1.5-20,13.3-37.3,33.3-38.8c20.1-1.5,37.3,13.6,38.9,33.3
	c1.5,20-13.3,37.6-33.3,39.1C31.6,328.6,14,313.8,12.7,293.7C12.7,293.7,12.7,293.7,12.7,293.7z"/>
<path id="path3936" class="st4" d="M172.6,255.5L172.6,255.5c0.6-6.2,6.2-10.8,12.3-10.2c6.2,0.9,10.8,6.5,9.9,12.6
	c-0.6,6.2-6.2,10.5-12.3,9.9C176.3,267.2,171.7,261.7,172.6,255.5z"/>
<path id="path3956" class="st4" d="M35.6,107.9L35.6,107.9c-3.7-7.7-0.6-17.6,7.4-21.3c8-4,17.6-0.6,21.6,7.4
	c4,7.7,0.6,17.6-7.4,21.3C49.1,119.3,39.6,116,35.6,107.9z"/>
<path id="path3986" class="st3" d="M273.5,132.3L273.5,132.3c-0.9-12,8.3-22.5,20.4-23.4c12.3-0.9,22.8,8,23.8,20
	c0.9,12.3-8.3,22.8-20.4,23.7C285.2,153.5,274.4,144.6,273.5,132.3L273.5,132.3L273.5,132.3z"/>
<path id="path4006" class="st3" d="M173.8,18.6L173.8,18.6c12-9.6,29.6-7.7,39.5,4c9.9,12,8,29.6-4,39.4c-12,9.9-29.6,8-39.5-4
	C159.9,46,161.8,28.5,173.8,18.6C173.8,18.6,173.8,18.6,173.8,18.6z"/>
<path id="path4026" class="st3" d="M97.9,127.7L97.9,127.7c23.1-18.8,57.1-15.4,75.9,7.7c18.8,23.1,15.4,57-7.7,75.8
	c-23.1,18.5-57.1,15.1-75.9-8C71.4,180.4,75.1,146.5,97.9,127.7L97.9,127.7L97.9,127.7z"/>
</svg>
