<svg xmlns="http://www.w3.org/2000/svg" width="321.333" height="108" viewBox="0 0 8502 2858" shape-rendering="geometricPrecision" text-rendering="geometricPrecision" image-rendering="optimizeQuality" fill-rule="evenodd" clip-rule="evenodd"><defs><style>.fil2{fill:#0090c9;fill-rule:nonzero}</style></defs><g id="Layer_x0020_1"><path d="M2443 1445c0 545-442 987-988 987-545 0-987-442-987-987 0-546 442-988 987-988 546 0 988 442 988 988z" fill="#f79633" fill-rule="nonzero"/><path d="M2592 610c7 205-153 376-357 384-205 7-376-153-383-358-8-204 152-376 357-383 204-7 376 153 383 357zM1041 2200c7 205-152 376-357 383-204 7-376-153-383-357-7-205 153-376 357-383 205-7 376 153 383 357zM1320 22c180 96 249 321 153 501-96 181-321 249-501 153-181-96-249-320-153-501C915-5 1139-74 1320 22zm601 2138c181 96 249 320 153 501s-320 249-501 153c-180-96-249-320-153-501s320-249 501-153zM174 830c174-108 402-56 511 118 108 173 55 402-118 510-174 109-402 56-511-118-108-173-55-402 118-510zm2152 548c174-108 402-56 511 118 108 173 55 402-118 510-174 109-402 56-511-118-108-173-55-402 118-510z" fill="#fec12c" fill-rule="nonzero"/><path class="fil2" d="M3707 1395c-38 30-53 75-61 121-7 45-15 105 0 128 15 22 91 30 91 30h173s83 0 121-23c38-22 45-67 60-128 16-60 8-98 0-121-7-22-82-30-82-30h-197s-68-7-105 23zm105-208h249s181-11 249 68c68 80 34 193 23 272s-34 192-113 260-223 72-279 83c-57 12-344-4-344-4s-132-3-215-90c-32-34 0-170 23-272s68-215 136-260 271-57 271-57zm903 209c-37 30-52 75-60 121-8 45-15 105 0 128s91 30 91 30h173s83 0 121-23c38-22 45-67 60-128 15-60 8-98 0-121-7-22-83-30-83-30h-196s-68-7-106 23zm559-474h233l-196 943h-234l8-98s-5 31-91 60c-106 37-189 43-189 43l-233-13s-83 0-121-60-15-204 0-264 56-246 136-302c57-40 121-53 158-53h249s106 0 136 38 53 76 53 76l91-370zm581 459c-38 30-53 75-61 121-7 45-15 105 0 128 15 22 91 30 91 30h174s82 0 120-23c38-22 46-68 61-128s7-98 0-121c-8-22-83-30-83-30h-197s-68-7-105 23zm-121 461l-249 8 204-943h233l-83 377s61-60 129-83 226-30 226-30 174-8 241 38c68 45 106 90 53 294s-86 258-143 302c-43 33-181 68-287 68-105 0-211 7-302-129l-22 98zm923-650h249l-68 318c-9 51-44 143 34 164 98 26 293 31 355-93 32-64 101-389 101-389h234l-136 673h-241l38-128s-46 38-106 68-128 75-287 68c-158-8-279-68-264-181 15-114 91-500 91-500zm1632 183h234s22-98-30-136c-75-55-129-68-227-68h-271s-87 3-181 38c-68 24-121 75-136 181-15 105 0 166 105 188 106 23 250 0 250 0s196-7 226 31c30 37 15 60-30 83-46 22-129 30-196 30-68 0-167 0-182-30-15-31-15-53-15-53h-226s-38 105-8 136c31 30 31 90 317 98 287 7 288-9 347-16 60-6 159-45 197-128 37-83 48-208 30-234-34-48-113-68-181-68s-340-7-340-7-75 7-68-45c8-53 106-53 174-53s181 7 203 30c23 23 8 23 8 23z"/><path d="M1409 1120c36 66 93 5 93 5l-73 201-165-136s79 24 77-51-97-426-133-492-93-5-93-5l73-201 165 136s-79-23-77 51c2 75 97 427 133 492zm302 1115c36 66 92 5 92 5l-73 201-165-136s79 24 77-51-97-426-133-492-93-5-93-5l74-201 165 136s-80-23-78 51c2 75 97 427 134 492zm1-998c-39 65 42 83 42 83l-211 37 36-211s19 81 83 42 320-298 359-362-42-83-42-83l211-36-36 211s-19-81-83-42-320 297-359 361zm-815 819c-39 64 42 83 42 83l-211 37 36-211s19 80 83 41 320-297 359-361-42-83-42-83l211-37-36 211s-19-81-83-42c-64 40-320 298-359 362zm865-498c-75-1-51 78-51 78l-137-164 200-75s-60 57 6 93 418 129 493 130c74 2 50-77 50-77l138 164-201 74s60-57-5-92c-66-36-418-129-493-131zM646 1262c-75-2-51 78-51 78l-137-164 200-75s-60 57 6 93c66 35 417 128 492 130 75 1 51-78 51-78l137 164-200 75s60-57-6-93-417-129-492-130z" fill="#3bb554" fill-rule="nonzero"/><path class="fil2" d="M1608 1873h294l147-668 249 656h249l532-656-135 668h271l215-940h-452l-476 577-215-588h-475z"/></g></svg>