<?xml version="1.0" encoding="utf-8"?>
<!-- Generator: Adobe Illustrator 23.0.1, SVG Export Plug-In . SVG Version: 6.00 Build 0)  -->
<svg version="1.1" id="Layer_1" xmlns="http://www.w3.org/2000/svg" xmlns:xlink="http://www.w3.org/1999/xlink" x="0px" y="0px"
	 viewBox="0 0 60 50" style="enable-background:new 0 0 60 50;" xml:space="preserve">
<style type="text/css">
	.st0{fill:#68707B;}
</style>
<g id="icon_1_">
	<g>
		<g>
			<path class="st0" d="M57.2,50c-0.4-0.1-0.7-0.4-0.7-0.8c0-0.5,0.4-0.8,0.8-0.8l0.8,0l0-0.8c0-0.5,0.4-0.8,0.8-0.8
				c0.5,0,0.8,0.4,0.8,0.8l0,1.7c0,0.4-0.3,0.8-0.8,0.8l-1.7,0C57.3,50.1,57.2,50.1,57.2,50z"/>
			<path class="st0" d="M18.4,50c-0.4-0.1-0.7-0.4-0.7-0.8c0-0.5,0.4-0.8,0.8-0.8l3.3,0c0.5,0,0.8,0.4,0.8,0.8
				c0,0.5-0.4,0.8-0.8,0.8l-3.3,0C18.5,50.1,18.4,50.1,18.4,50z M26.1,50c-0.4-0.1-0.7-0.4-0.7-0.8c0-0.5,0.4-0.8,0.8-0.8l3.3,0
				c0.5,0,0.8,0.4,0.8,0.8s-0.4,0.8-0.8,0.8l-3.3,0C26.2,50.1,26.1,50.1,26.1,50z M33.8,50c-0.4-0.1-0.7-0.4-0.7-0.8
				c0-0.5,0.4-0.8,0.8-0.8l3.3,0c0.5,0,0.8,0.4,0.8,0.8c0,0.5-0.4,0.8-0.8,0.8l-3.3,0C33.9,50.1,33.8,50.1,33.8,50z M41.5,50
				c-0.4-0.1-0.7-0.4-0.7-0.8c0-0.5,0.4-0.8,0.8-0.8l3.3,0c0.5,0,0.8,0.4,0.8,0.8c0,0.5-0.4,0.8-0.8,0.8l-3.3,0
				C41.6,50.1,41.6,50.1,41.5,50z M49.2,50c-0.4-0.1-0.7-0.4-0.7-0.8c0-0.5,0.4-0.8,0.8-0.8l3.3,0c0.5,0,0.8,0.4,0.8,0.8
				c0,0.5-0.4,0.8-0.8,0.8l-3.3,0C49.3,50.1,49.3,50.1,49.2,50z"/>
			<path class="st0" d="M12.7,50C12.3,50,12,49.6,12,49.2l0-1.6c0-0.5,0.4-0.8,0.8-0.8c0.5,0,0.8,0.4,0.8,0.8l0,0.8l0.8,0
				c0.5,0,0.8,0.4,0.8,0.8c0,0.5-0.4,0.8-0.8,0.8l-1.6,0C12.8,50.1,12.7,50.1,12.7,50z"/>
			<path class="st0" d="M33.8,11.3c-0.4-0.1-0.7-0.4-0.7-0.8c0-0.5,0.4-0.8,0.8-0.8l3.3,0c0.5,0,0.8,0.4,0.8,0.8
				c0,0.5-0.4,0.8-0.8,0.8l-3.3,0C33.9,11.3,33.8,11.3,33.8,11.3z M41.5,11.3c-0.4-0.1-0.7-0.4-0.7-0.8c0-0.5,0.4-0.8,0.8-0.8l3.3,0
				c0.5,0,0.8,0.4,0.8,0.8c0,0.5-0.4,0.8-0.8,0.8l-3.3,0C41.6,11.3,41.6,11.3,41.5,11.3z M49.2,11.3c-0.4-0.1-0.7-0.4-0.7-0.8
				c0-0.5,0.4-0.8,0.8-0.8l3.3,0c0.5,0,0.8,0.4,0.8,0.8c0,0.5-0.4,0.8-0.8,0.8l-3.3,0C49.3,11.3,49.3,11.3,49.2,11.3z"/>
			<path class="st0" d="M58.8,13c-0.4-0.1-0.7-0.4-0.7-0.8l0-0.8l-0.8,0c-0.5,0-0.8-0.4-0.8-0.8c0-0.5,0.4-0.8,0.8-0.8l1.7,0
				c0.4,0,0.8,0.3,0.8,0.8l0,1.7c0,0.5-0.4,0.8-0.8,0.8C58.9,13,58.9,13,58.8,13z"/>
			<path class="st0" d="M58.8,44.3c-0.4-0.1-0.7-0.4-0.7-0.8l0-3.3c0-0.5,0.4-0.8,0.8-0.8c0.5,0,0.8,0.4,0.8,0.8l0,3.3
				c0,0.5-0.4,0.8-0.8,0.8C58.9,44.3,58.9,44.3,58.8,44.3z M58.8,36.4c-0.4-0.1-0.7-0.4-0.7-0.8l0-3.3c0-0.5,0.4-0.8,0.8-0.8
				c0.5,0,0.8,0.4,0.8,0.8l0,3.3c0,0.5-0.4,0.8-0.8,0.8C58.9,36.4,58.9,36.4,58.8,36.4z M58.8,28.6c-0.4-0.1-0.7-0.4-0.7-0.8l0-3.3
				c0-0.5,0.4-0.8,0.8-0.8c0.5,0,0.8,0.4,0.8,0.8l0,3.3c0,0.5-0.4,0.8-0.8,0.8C58.9,28.6,58.9,28.6,58.8,28.6z M58.8,20.7
				c-0.4-0.1-0.7-0.4-0.7-0.8l0-3.3c0-0.5,0.4-0.8,0.8-0.8c0.5,0,0.8,0.4,0.8,0.8l0,3.3c0,0.5-0.4,0.8-0.8,0.8
				C58.9,20.8,58.9,20.8,58.8,20.7z"/>
		</g>
	</g>
	<g>
		<g>
			<path class="st0" d="M11.6,45.8c-0.8-0.1-1.5-0.7-1.8-1.5l-9.5-26c-0.2-0.6-0.2-1.2,0.1-1.8l3.7-8c0.3-0.6,0.7-1,1.3-1.2
				l19.7-7.2c1.2-0.4,2.5,0.2,3,1.4l11.6,31.8c0.4,1.2-0.2,2.5-1.4,3l-25.5,9.3C12.4,45.8,12,45.9,11.6,45.8z M26.1,1.6
				c-0.1,0-0.3,0-0.4,0L6,8.8C5.8,8.9,5.6,9,5.6,9.2l-3.7,8c-0.1,0.2-0.1,0.4,0,0.6l9.5,26c0.1,0.4,0.6,0.6,1,0.5L37.8,35
				c0.4-0.1,0.6-0.6,0.5-1L26.7,2.1C26.6,1.8,26.3,1.7,26.1,1.6z"/>
		</g>
		<path class="st0" d="M3.4,19.2l-0.5-1.5l5.2-1.9c0.2-0.1,0.3-0.2,0.4-0.4c0.1-0.2,0.1-0.4,0-0.6L6.7,9.6l1.5-0.5l1.9,5.2
			c0.2,0.6,0.2,1.2-0.1,1.8c-0.3,0.6-0.7,1-1.3,1.2L3.4,19.2z"/>
	</g>
</g>
</svg>
