<?xml version="1.0" encoding="utf-8"?>
<!-- Generator: Adobe Illustrator 19.0.0, SVG Export Plug-In . SVG Version: 6.00 Build 0)  -->
<svg version="1.1" id="Layer_1" xmlns="http://www.w3.org/2000/svg" xmlns:xlink="http://www.w3.org/1999/xlink" x="0px" y="0px"
	 viewBox="0 0 500 500" style="enable-background:new 0 0 500 500;" xml:space="preserve">
<style type="text/css">
	.st0{fill:#FF6600;}
</style>
<g id="XMLID_1_">
	<path id="XMLID_2_" class="st0" d="M417.4,211.4H296.1c-6.1,0-11-4.9-11-11V73.9c0-9.4-7.6-17-17-17h-43.3c-9.4,0-17,7.6-17,17
		v125.7c0,6.5-5.3,11.8-11.8,11.8l-39.8,0.2c-6.6,0-11.9-5.3-11.9-11.9L144.7,74c0-9.4-7.6-17-17-17H84.5c-9.4,0-17,7.6-17,17v354
		c0,8.3,6.7,15.1,15,15.1h334.9c8.3,0,15.1-6.7,15.1-15.1V226.5C432.5,218.1,425.8,211.4,417.4,211.4z M360.6,344.3
		c0,10.9-8.8,19.7-19.7,19.7h-34.2c-10.9,0-19.7-8.8-19.7-19.7v-34.2c0-10.9,8.8-19.7,19.7-19.7h34.2c10.9,0,19.7,8.8,19.7,19.7
		V344.3z"/>
</g>
</svg>
