<?xml version="1.0" encoding="utf-8"?>
<!-- Generator: Adobe Illustrator 24.1.1, SVG Export Plug-In . SVG Version: 6.00 Build 0)  -->
<svg version="1.1" id="Layer_1" xmlns="http://www.w3.org/2000/svg" xmlns:xlink="http://www.w3.org/1999/xlink" x="0px" y="0px"
	 viewBox="0 0 60 60" style="enable-background:new 0 0 60 60;" xml:space="preserve">
<style type="text/css">
	.st0{fill:#22ADF6;}
</style>
<path id="Network" class="st0" d="M58,29H30c-1.1,0-2,0.9-2,2v21c0,1.1,0.9,2,2,2h11v4h-4c-0.55,0-1,0.45-1,1s0.45,1,1,1h14
	c0.55,0,1-0.45,1-1s-0.45-1-1-1h-4v-4h11c1.1,0,2-0.9,2-2V31C60,29.89,59.1,29,58,29z M30,31h28l0,15H30V31z M45,58h-2v-4h2V58z
	 M58,52H30v-4h28V52z M1.31,21.93c0.07,0.02,0.13,0.02,0.2,0.02c0.47,0,0.88-0.33,0.98-0.8C3.18,17.8,4.53,14.72,6.51,12h9.98
	c0.55,0,1-0.45,1-1s-0.45-1-1-1H6c-0.02,0-0.04,0.01-0.06,0.01c-0.07,0.01-0.14,0.02-0.21,0.04c-0.06,0.02-0.12,0.03-0.17,0.06
	c-0.06,0.03-0.1,0.07-0.15,0.1c-0.06,0.04-0.11,0.08-0.15,0.14c-0.01,0.02-0.04,0.02-0.05,0.04c-2.32,3.06-3.89,6.55-4.67,10.36
	C0.42,21.3,0.77,21.83,1.31,21.93L1.31,21.93z M10.45,7.72c3.54-3.02,7.89-4.9,12.47-5.5c-6.18,5.43-9.77,12.04-10.68,19.67
	c-0.07,0.55,0.33,1.05,0.88,1.11c0.04,0,0.08,0.01,0.12,0.01c0.5,0,0.93-0.37,0.99-0.88C15.17,14.19,19.02,7.69,26,2.26
	c1.99,1.55,3.75,3.22,5.24,4.96c0.36,0.42,0.99,0.47,1.41,0.11c0.42-0.36,0.47-0.99,0.11-1.41c-1.1-1.29-2.36-2.53-3.72-3.72
	c5.78,0.71,11,3.46,14.85,7.81h-9.32c-0.55,0-1,0.45-1,1s0.45,1,1,1H46h0c0.12,0,0.24-0.03,0.35-0.07c0.04-0.02,0.07-0.04,0.11-0.06
	c0.04-0.02,0.09-0.04,0.13-0.07c0.02-0.02,0.03-0.04,0.05-0.05c0.05-0.04,0.09-0.1,0.14-0.15c0.04-0.05,0.07-0.1,0.1-0.15
	c0.03-0.06,0.04-0.11,0.06-0.17c0.02-0.07,0.04-0.13,0.04-0.2c0-0.02,0.01-0.05,0.01-0.07c0-0.04-0.02-0.07-0.02-0.11
	c-0.01-0.07-0.02-0.13-0.04-0.2c-0.02-0.07-0.05-0.13-0.08-0.18c-0.02-0.03-0.03-0.07-0.05-0.1C41.9,3.8,34.32,0.01,26.02,0h-0.04
	C19.82,0,13.84,2.2,9.15,6.2C8.73,6.55,8.68,7.18,9.04,7.6C9.4,8.03,10.03,8.07,10.45,7.72L10.45,7.72z M16.3,40c-0.55,0-1,0.45-1,1
	s0.45,1,1,1H25c0.55,0,1-0.45,1-1s-0.45-1-1-1H16.3z M40,26c0-5.84-1.31-10.91-3.99-15.5c-0.18-0.31-0.51-0.5-0.86-0.5H17.49
	c-0.55,0-1,0.45-1,1s0.45,1,1,1h17.08c2.16,3.89,3.28,8.15,3.42,13H17c-0.55,0-1,0.45-1,1s0.45,1,1,1h22C39.55,27,40,26.55,40,26
	L40,26z M47.06,14.48c1.76,3.22,2.76,6.84,2.92,10.52H43c-0.55,0-1,0.45-1,1s0.45,1,1,1h8c0.55,0,1-0.45,1-1
	c0-4.36-1.1-8.68-3.19-12.48c-0.26-0.48-0.87-0.66-1.36-0.4C46.97,13.39,46.79,14,47.06,14.48L47.06,14.48z M4.94,37.52
	C3.18,34.3,2.17,30.68,2.02,27h9.99c0.1,3.69,0.77,7.18,2,10.38c0.2,0.52,0.77,0.78,1.29,0.58c0.51-0.2,0.77-0.78,0.57-1.29
	C14.63,33.4,14,29.82,14,26v0c0-0.58-0.52-1.04-1.08-0.99H1c-0.55,0-1,0.45-1,1c0,4.36,1.1,8.68,3.19,12.48
	C3.37,38.81,3.71,39,4.07,39c0.16,0,0.33-0.04,0.48-0.12C5.03,38.61,5.21,38.01,4.94,37.52L4.94,37.52z M25.65,49.46
	c-3.19-2.57-5.94-5.67-7.94-8.98c-0.02-0.03-0.05-0.05-0.08-0.08c-0.04-0.05-0.09-0.11-0.14-0.15c-0.05-0.04-0.1-0.07-0.15-0.1
	c-0.06-0.03-0.11-0.06-0.17-0.08c-0.07-0.02-0.13-0.03-0.2-0.04C16.93,40.02,16.89,40,16.85,40H6c-0.38,0-0.72,0.21-0.89,0.55
	c-0.17,0.34-0.13,0.74,0.09,1.05c4.68,6.3,11.89,10.08,19.77,10.38c0.01,0,0.03,0,0.04,0c0.53,0,0.98-0.42,1-0.96
	c0.01-0.14-0.02-0.28-0.07-0.4C26.09,50.22,26,49.74,25.65,49.46z M8.1,42h8.21c1.78,2.82,4.05,5.48,6.67,7.81
	C17.2,49.09,11.94,46.33,8.1,42z"/>
</svg>
