<svg width="2500" height="2490" viewBox="0 0 256 255" xmlns="http://www.w3.org/2000/svg" preserveAspectRatio="xMidYMid"><path d="M127.16 254.32c-33.966 0-65.898-13.227-89.916-37.244C13.227 193.058 0 161.126 0 127.16c0-33.965 13.227-65.898 37.244-89.915C61.262 13.227 93.194 0 127.16 0c28.481 0 54.8 8.472 77.256 25.885a8.155 8.155 0 1 1-9.996 12.889c-19.569-15.174-42.431-22.463-67.26-22.463-29.609 0-57.445 11.531-78.382 32.467-20.937 20.937-32.467 48.774-32.467 78.382 0 29.609 11.53 57.446 32.467 78.382 20.937 20.937 48.773 32.467 78.382 32.467 24.667 0 48.013-7.927 67.513-22.923a8.155 8.155 0 0 1 9.943 12.929c-22.376 17.209-49.16 26.305-77.456 26.305zm26.31-127.53c0 14.74-11.95 26.69-26.69 26.69-14.74 0-26.69-11.95-26.69-26.69 0-14.741 11.95-26.69 26.69-26.69 14.74 0 26.69 11.949 26.69 26.69zm34.929-.041c0 5.619-4.555 10.174-10.174 10.174-5.618 0-10.173-4.555-10.173-10.174 0-5.62 4.555-10.174 10.173-10.174 5.619 0 10.174 4.554 10.174 10.174zm33.126-19.277c0 5.619-4.555 10.174-10.174 10.174-5.618 0-10.173-4.555-10.173-10.174s4.555-10.174 10.173-10.174c5.619 0 10.174 4.555 10.174 10.174zm0 40.365c0 5.62-4.555 10.174-10.174 10.174-5.618 0-10.173-4.555-10.173-10.174s4.555-10.174 10.173-10.174c5.619 0 10.174 4.555 10.174 10.174zM256 107.472c0 5.619-4.555 10.174-10.174 10.174-5.618 0-10.173-4.555-10.173-10.174s4.555-10.174 10.173-10.174c5.62 0 10.174 4.555 10.174 10.174zm-16.805-38.8c0 5.619-4.555 10.174-10.174 10.174-5.618 0-10.173-4.555-10.173-10.174s4.555-10.174 10.173-10.174c5.619 0 10.174 4.555 10.174 10.174zm0 116.894c0 5.62-4.555 10.174-10.174 10.174-5.618 0-10.173-4.555-10.173-10.174s4.555-10.174 10.173-10.174c5.619 0 10.174 4.555 10.174 10.174zM256 147.837c0 5.62-4.555 10.174-10.174 10.174-5.618 0-10.173-4.555-10.173-10.174s4.555-10.174 10.173-10.174c5.62 0 10.174 4.555 10.174 10.174z" fill="#694A9C"/></svg>