<?xml version="1.0" encoding="utf-8"?>
<!-- Generator: Adobe Illustrator 24.2.0, SVG Export Plug-In . SVG Version: 6.00 Build 0)  -->
<svg version="1.1" id="Layer_1" xmlns="http://www.w3.org/2000/svg" xmlns:xlink="http://www.w3.org/1999/xlink" x="0px" y="0px"
	 viewBox="0 0 94 64" style="enable-background:new 0 0 94 64;" xml:space="preserve">
<style type="text/css">
	.st0{fill-rule:evenodd;clip-rule:evenodd;fill:#00949C;}
	.st1{fill:#00949C;}
</style>
<g>
	<path class="st0" d="M0,22.6c0,23.1,31.7,31.6,47.4,8.2C63.6,55.1,94,44.9,94,22.6s-30.3-33.1-46.6-8.1C31.8-10.3,0-0.4,0,22.6
		L0,22.6z M8.3,22.6c0-16.6,23.5-21.9,34.4,0C31.6,43.7,8.3,39.3,8.3,22.6L8.3,22.6z M51.9,22.6c9.9-22.3,34-16.2,33.9,0
		S61.5,43.9,51.9,22.6z"/>
	<rect x="17.2" y="20.3" class="st0" width="14" height="4.6"/>
	<polygon class="st0" points="67.8,24.8 63.2,24.8 63.2,19.9 67.8,19.9 67.8,15.3 72.7,15.3 72.7,19.9 77.3,19.9 77.3,24.8 
		72.7,24.8 72.7,29.4 67.8,29.4 	"/>
	<path class="st1" d="M89.5,4.4V2.3h-0.6V1.9h1.5v0.4h-0.6v2.1H89.5L89.5,4.4z M90.7,4.4V1.9h0.6l0.3,1.7l0.3-1.7h0.6v2.5h-0.4v-2
		l-0.4,2h-0.4l-0.4-2v2H90.7z"/>
	<path class="st0" d="M39.8,57.4c0,4.5-2.3,6.7-6.8,6.6h-3.8v-6.6v-6.6H33C37.5,50.6,39.9,52.8,39.8,57.4L39.8,57.4z M36.6,57.4
		c0-2.6-1.3-3.8-4.1-3.7v3.7v3.7C35.3,61.2,36.6,59.9,36.6,57.4z"/>
	<path class="st0" d="M47.4,63.9c-3.7,0-5.1-1.2-5.3-4.3v-8.8h3.4v8.6c-0.1,1.4,0.6,2,1.9,2s2-0.6,1.9-2v-8.6h3.4v8.8
		C52.5,62.7,51.1,63.9,47.4,63.9z"/>
	<polygon class="st0" points="60.2,50.8 55.2,50.8 55.2,53.6 58.5,53.6 58.5,57.4 58.5,61.1 55.2,61.1 55.2,63.9 60.2,63.9 
		65.1,63.9 65.1,61.1 61.8,61.1 61.8,57.4 61.8,53.6 65.1,53.6 65.1,50.8 	"/>
	<polygon class="st0" points="74.7,57.4 71.1,50.8 67.5,50.8 67.5,63.9 70.7,63.9 70.7,56 71.5,57.4 75,64 78.6,64 78.6,50.8 
		75.5,50.8 75.5,58.7 	"/>
	<path class="st0" d="M85.8,53.5c-1.9,0-2,1.7-2,3.8c0,2.2,0.2,3.8,2,3.8c1.9,0,2-1.7,2-3.8C87.8,55.2,87.7,53.5,85.8,53.5
		L85.8,53.5z M85.8,63.9c-3.8,0-5.6-2.1-5.6-6.6s1.8-6.6,5.6-6.6c3.8,0,5.5,2.1,5.5,6.6S89.6,63.9,85.8,63.9z"/>
	<path class="st0" d="M14.8,63.9l-4.4-13.1H6.9L2.5,63.9h3.8L7,61.1h3.5l0.8,2.8H14.8L14.8,63.9z M9.7,58.6H7.5l1.1-4.1L9.7,58.6z"
		/>
	<path class="st0" d="M16.6,50.8v13.1h3.3v-4.1h1.4l2.4,4.1h3.8l-3-4.9c3.5-1.5,3.6-8.3-2.7-8.3h-5.2V50.8z M19.9,57.3v-3.6h1.6
		c3,0,2,3.6,0,3.6H19.9z"/>
</g>
</svg>
