<?xml version="1.0" encoding="utf-8"?>
<!-- Generator: Adobe Illustrator 24.2.0, SVG Export Plug-In . SVG Version: 6.00 Build 0)  -->
<svg version="1.1" id="Layer_1" xmlns="http://www.w3.org/2000/svg" xmlns:xlink="http://www.w3.org/1999/xlink" x="0px" y="0px"
	 viewBox="0 0 113 42" style="enable-background:new 0 0 113 42;" xml:space="preserve">
<style type="text/css">
	.st0{fill:#2DBCAF;}
</style>
<g>
	<g>
		<g>
			<g>
				<path class="st0" d="M8.6,12.5c-0.2,0-0.3-0.1-0.2-0.3l1.1-1.5c0.1-0.2,0.4-0.3,0.6-0.3h19.7c0.2,0,0.3,0.2,0.2,0.3l-0.9,1.4
					c-0.1,0.2-0.4,0.3-0.5,0.3L8.6,12.5z"/>
			</g>
		</g>
	</g>
	<g>
		<g>
			<g>
				<path class="st0" d="M0.2,17.6c-0.2,0-0.3-0.1-0.2-0.3l1.1-1.5c0.1-0.2,0.4-0.3,0.6-0.3h25.1c0.2,0,0.3,0.2,0.3,0.3l-0.4,1.3
					c-0.1,0.2-0.3,0.3-0.5,0.3L0.2,17.6z"/>
			</g>
		</g>
	</g>
	<g>
		<g>
			<g>
				<path class="st0" d="M13.6,22.6c-0.2,0-0.3-0.2-0.2-0.3l0.8-1.4c0.1-0.2,0.3-0.3,0.5-0.3h11c0.2,0,0.3,0.2,0.3,0.4l-0.1,1.3
					c0,0.2-0.2,0.4-0.4,0.4L13.6,22.6z"/>
			</g>
		</g>
	</g>
	<g>
		<g id="CXHf1q_1_">
			<g>
				<g>
					<path class="st0" d="M70.6,11.6c-3.4,0.9-5.8,1.5-9.3,2.4c-0.8,0.2-0.9,0.3-1.6-0.5c-0.8-0.9-1.4-1.5-2.6-2.1
						c-3.4-1.7-6.9-1.2-10,0.8c-3.7,2.4-5.6,5.9-5.6,10.5c0.1,4.4,3.1,8.1,7.5,8.7c3.7,0.5,6.9-0.8,9.4-3.6c0.5-0.6,0.9-1.3,1.5-2
						c-2,0-4.4,0-10.6,0c-1.1,0-1.4-0.7-1-1.6c0.7-1.7,2-4.5,2.8-5.9c0.2-0.3,0.5-0.9,1.4-0.9c2.8,0,13.1,0,20,0
						c-0.1,1.5-0.1,2.9-0.3,4.4c-0.6,3.9-2.1,7.6-4.5,10.8c-3.9,5.2-9.2,8.5-15.6,9.4c-5.3,0.7-10.4-0.3-14.8-3.6
						c-4-3.1-6.4-7.2-7-12.2c-0.7-5.9,1-11.4,4.6-16.1c3.9-5.1,9.1-8.4,15.4-9.5c5.1-0.9,10.1-0.3,14.6,2.7c2.9,1.9,5,4.5,6.4,7.8
						C71.5,11.1,71.3,11.4,70.6,11.6z"/>
				</g>
				<g>
					<path class="st0" d="M88.9,41.9c-5-0.1-9.6-1.5-13.4-4.8c-3.2-2.8-5.2-6.3-6-10.6c-1-6.2,0.7-11.7,4.4-16.6
						c4-5.2,8.9-8.1,15.4-9.2c5.6-1,10.9-0.4,15.6,2.8c4.3,2.9,7.1,7,7.8,12.3c0.9,7.5-1.2,13.5-6.4,18.6c-3.6,3.7-8.1,5.9-13.2,7.1
						C91.8,41.7,90.3,41.8,88.9,41.9z M101.9,19.7c-0.1-0.7-0.1-1.3-0.2-1.8c-1-5.4-6-8.6-11.2-7.4c-5.1,1.1-8.4,4.4-9.6,9.6
						c-1,4.3,1.1,8.7,5,10.4c3,1.3,6.1,1.1,9-0.3C99.3,28,101.7,24.5,101.9,19.7z"/>
				</g>
			</g>
		</g>
	</g>
</g>
</svg>
