<?xml version="1.0" encoding="UTF-8" standalone="no"?>
<svg width="102px" height="139px" viewBox="0 0 102 139" version="1.1" xmlns="http://www.w3.org/2000/svg" xmlns:xlink="http://www.w3.org/1999/xlink" xmlns:sketch="http://www.bohemiancoding.com/sketch/ns">
    <!-- Generator: Sketch 3.5.1 (25234) - http://www.bohemiancoding.com/sketch -->
    <title>Group</title>
    <desc>Created with Sketch.</desc>
    <defs></defs>
    <g id="logo-accent" stroke="none" stroke-width="1" fill="none" fill-rule="evenodd" sketch:type="MSPage">
        <g id="Group" sketch:type="MSLayerGroup">
            <path d="M101.254346,21.9338169 L96.9589844,20.7539062 L96.43125,20.6117647 C92.0875,18.0352941 87.74375,16.3176471 84.26875,15.4588235 L82.53125,0 L57.3375,0 L54.73125,15.4588235 C50.3875,16.3176471 46.9125,18.0352941 42.56875,20.6117647 L29.5375,11.1647059 L11.29375,29.2 L19.98125,42.0823529 C17.375,46.3764706 16.50625,49.8117647 14.76875,54.1058824 L0,55.8235294 L0,80.7294118 L15.6375,83.3058824 C16.50625,87.6 18.24375,91.0352941 20.85,95.3294118 L12.1625,108.211765 L30.40625,126.247059 L43.4375,117.658824 C46.9125,119.376471 51.25625,121.094118 55.6,122.811765 L58.20625,138.270588 L84.26875,138.270588 L86.875,122.811765 C91.21875,121.952941 94.69375,120.235294 99.0375,117.658824 L100.885062,117.151476 C98.7137752,113.046742 95.9384207,107.096386 93.560468,99.7692745 C86.9300752,104.956429 78.4393603,108 69,108 C46.9,108 30,91.3166667 30,69.5 C30,47.6833333 46.9,31 69,31 C78.335715,31 86.7435027,33.9771002 93.3413971,39.0606419 C95.2813765,33.4302596 97.8749552,27.7006849 101.254346,21.9338169 L101.254346,21.9338169 Z" id="Path" fill="#B71C1C" sketch:type="MSShapeGroup"></path>
            <circle id="Oval-2" sketch:type="MSShapeGroup" cx="70" cy="70" r="41"></circle>
            <ellipse id="Oval-3" stroke="#B6B6B6" stroke-width="12" sketch:type="MSShapeGroup" cx="68.3506494" cy="69.6973684" rx="26.3506494" ry="26.6973684"></ellipse>
        </g>
    </g>
</svg>