<?xml version="1.0" encoding="utf-8"?>
<!-- Generator: Adobe Illustrator 24.2.0, SVG Export Plug-In . SVG Version: 6.00 Build 0)  -->
<svg version="1.1" id="Layer_1" xmlns="http://www.w3.org/2000/svg" xmlns:xlink="http://www.w3.org/1999/xlink" x="0px" y="0px"
	 viewBox="0 0 112 69" style="enable-background:new 0 0 112 69;" xml:space="preserve">
<style type="text/css">
	.st0{fill:#689F63;}
	.st1{fill:#FFFFFF;}
	.st2{clip-path:url(#SVGID_2_);fill:url(#SVGID_3_);}
	.st3{clip-path:url(#SVGID_5_);fill:url(#SVGID_6_);}
	.st4{clip-path:url(#SVGID_8_);fill:url(#SVGID_9_);}
</style>
<g>
	<path class="st0" d="M55.3,69c-0.4,0-0.7-0.1-1.1-0.3l-3.4-2c-0.5-0.3-0.3-0.4-0.1-0.4c0.7-0.2,0.8-0.3,1.5-0.7c0.1,0,0.2,0,0.3,0
		l2.6,1.5c0.1,0.1,0.2,0.1,0.3,0l10.1-5.8c0.1-0.1,0.2-0.2,0.2-0.3V49.3c0-0.1-0.1-0.2-0.2-0.3l-10.1-5.8c-0.1-0.1-0.2-0.1-0.3,0
		L45,49c-0.1,0.1-0.2,0.2-0.2,0.3v11.8c0,0.1,0.1,0.2,0.2,0.3l2.8,1.6c1.5,0.8,2.4-0.1,2.4-1V50.2c0-0.2,0.1-0.3,0.3-0.3h1.3
		c0.2,0,0.3,0.1,0.3,0.3v11.6c0,2-1.1,3.2-3,3.2c-0.6,0-1,0-2.3-0.6l-2.7-1.5c-0.7-0.4-1.1-1.1-1.1-1.8V49.3c0-0.8,0.4-1.5,1.1-1.8
		l10.1-5.9c0.6-0.4,1.5-0.4,2.1,0l10.1,5.8c0.7,0.4,1.1,1.1,1.1,1.8V61c0,0.8-0.4,1.5-1.1,1.8l-10.1,5.9C56.1,68.9,55.6,69,55.3,69"
		/>
	<path class="st0" d="M58.5,61c-4.4,0-5.4-2-5.4-3.7c0-0.2,0.1-0.3,0.3-0.3h1.3c0.1,0,0.3,0.1,0.3,0.2c0.2,1.3,0.8,2,3.5,2
		c2.1,0,3-0.5,3-1.6c0-0.7-0.3-1.1-3.6-1.5c-2.8-0.3-4.5-0.9-4.5-3.1c0-2,1.7-3.3,4.6-3.3c3.2,0,4.8,1.1,5,3.5c0,0.1,0,0.2-0.1,0.2
		c-0.1,0.1-0.1,0.1-0.2,0.1h-1.3c-0.1,0-0.3-0.1-0.3-0.2c-0.3-1.4-1.1-1.8-3.2-1.8c-2.3,0-2.6,0.8-2.6,1.4c0,0.7,0.3,1,3.5,1.4
		c3.1,0.4,4.6,1,4.6,3.2C63.5,59.6,61.7,61,58.5,61 M70.8,48.5h0.3c0.3,0,0.3-0.2,0.3-0.3c0-0.3-0.2-0.3-0.3-0.3h-0.3V48.5z
		 M70.4,47.5h0.8c0.3,0,0.8,0,0.8,0.6c0,0.4-0.3,0.5-0.4,0.5c0.3,0,0.3,0.2,0.4,0.5c0,0.2,0.1,0.5,0.1,0.6h-0.5
		c0-0.1-0.1-0.7-0.1-0.7c0-0.1-0.1-0.2-0.2-0.2h-0.4v0.9h-0.4v-2.2H70.4z M69.5,48.6c0,0.9,0.7,1.6,1.6,1.6c0.9,0,1.6-0.7,1.6-1.6
		c0-0.9-0.7-1.6-1.6-1.6C70.2,47,69.5,47.7,69.5,48.6 M73.1,48.6c0,1.1-0.9,1.9-1.9,1.9c-1.1,0-1.9-0.9-1.9-1.9
		c0-1.1,0.9-1.9,1.9-1.9S73.1,47.5,73.1,48.6"/>
	<path class="st1" d="M23.9,23c0-0.5-0.2-0.9-0.6-1.1l-10.7-6.2c-0.2-0.1-0.4-0.2-0.6-0.2h-0.1c-0.2,0-0.4,0.1-0.6,0.2L0.6,21.9
		C0.2,22.1,0,22.6,0,23v16.7c0,0.2,0.1,0.4,0.3,0.6c0.2,0.1,0.4,0.1,0.6,0l6.4-3.7c0.4-0.2,0.6-0.7,0.6-1.1v-7.8
		c0-0.5,0.2-0.9,0.6-1.1l2.7-1.6c0.2-0.1,0.4-0.2,0.6-0.2c0.2,0,0.4,0.1,0.6,0.2l2.7,1.6c0.4,0.2,0.6,0.7,0.6,1.1v7.8
		c0,0.5,0.2,0.9,0.6,1.1l6.4,3.6c0.2,0.1,0.4,0.1,0.6,0c0.2-0.1,0.3-0.3,0.3-0.6L23.9,23z M74.6,31.8c0,0.1-0.1,0.2-0.2,0.3
		l-3.7,2.1c-0.1,0.1-0.2,0.1-0.3,0l-3.7-2.1c-0.1-0.1-0.2-0.2-0.2-0.3v-4.3c0-0.1,0.1-0.2,0.2-0.3l3.7-2.1c0.1-0.1,0.2-0.1,0.3,0
		l3.7,2.1c0.1,0.1,0.2,0.2,0.2,0.3V31.8z M75.6,0.1C75.4,0,75.2,0,75,0.1s-0.3,0.3-0.3,0.6v16.6c0,0.2-0.1,0.3-0.2,0.4
		c-0.1,0.1-0.3,0.1-0.5,0l-2.7-1.5c-0.4-0.2-0.9-0.2-1.3,0l-10.7,6.2c-0.4,0.2-0.6,0.7-0.6,1.1V36c0,0.5,0.2,0.9,0.6,1.1L70,43.2
		c0.4,0.2,0.9,0.2,1.3,0L82,37c0.4-0.2,0.6-0.7,0.6-1.1V4.8c0-0.5-0.3-0.9-0.7-1.1L75.6,0.1z M111.4,27.3c0.4-0.2,0.6-0.7,0.6-1.1
		v-3c0-0.5-0.2-0.9-0.6-1.1l-10.7-6.2c-0.4-0.2-0.9-0.2-1.3,0l-10.7,6.2c-0.4,0.2-0.6,0.7-0.6,1.1v12.5c0,0.5,0.3,0.9,0.7,1.1
		l10.7,6.1c0.4,0.2,0.9,0.2,1.3,0l6.4-3.6c0.2-0.1,0.3-0.3,0.3-0.6c0-0.2-0.1-0.5-0.3-0.6l-10.8-6.2c-0.2-0.1-0.3-0.3-0.3-0.6v-3.8
		c0-0.2,0.1-0.4,0.3-0.6l3.4-1.9c0.2-0.1,0.4-0.1,0.6,0l3.4,1.9c0.2,0.1,0.3,0.3,0.3,0.6v3.1c0,0.2,0.1,0.4,0.3,0.6
		c0.2,0.1,0.4,0.1,0.6,0L111.4,27.3z"/>
	<path class="st0" d="M99.9,26.7c0.1,0,0.2,0,0.2,0l2.1,1.2c0.1,0,0.1,0.1,0.1,0.2v2.4c0,0.1,0,0.2-0.1,0.2l-2.1,1.2
		c-0.1,0-0.2,0-0.2,0l-2.1-1.2c-0.1,0-0.1-0.1-0.1-0.2v-2.4c0-0.1,0-0.2,0.1-0.2L99.9,26.7z"/>
	<g>
		<g>
			<defs>
				<path id="SVGID_1_" d="M40.6,15.9l-10.7,6.2c-0.4,0.2-0.6,0.7-0.6,1.1v12.4c0,0.5,0.2,0.9,0.6,1.1l10.7,6.2
					c0.4,0.2,0.9,0.2,1.3,0l10.7-6.2c0.4-0.2,0.6-0.7,0.6-1.1V23.2c0-0.5-0.2-0.9-0.6-1.1l-10.7-6.2c-0.2-0.1-0.4-0.2-0.6-0.2
					C41,15.8,40.8,15.8,40.6,15.9"/>
			</defs>
			<clipPath id="SVGID_2_">
				<use xlink:href="#SVGID_1_"  style="overflow:visible;"/>
			</clipPath>
			
				<linearGradient id="SVGID_3_" gradientUnits="userSpaceOnUse" x1="-193.4332" y1="284.7349" x2="-193.2422" y2="284.7349" gradientTransform="matrix(-81.162 165.5699 165.5699 81.162 -62793.9023 8930.6953)">
				<stop  offset="0" style="stop-color:#3E863D"/>
				<stop  offset="0.3" style="stop-color:#3E863D"/>
				<stop  offset="0.5" style="stop-color:#55934F"/>
				<stop  offset="0.8" style="stop-color:#5AAD45"/>
				<stop  offset="1" style="stop-color:#5AAD45"/>
			</linearGradient>
			<polygon class="st2" points="64.1,21.1 33.9,6.2 18.5,37.9 48.6,52.7 			"/>
		</g>
	</g>
	<g>
		<g>
			<defs>
				<path id="SVGID_4_" d="M29.5,36.4c0.1,0.1,0.2,0.2,0.4,0.3L39,42l1.5,0.9c0.2,0.1,0.5,0.2,0.7,0.2c0.1,0,0.2,0,0.3,0l11.2-20.7
					c-0.1-0.1-0.2-0.2-0.3-0.2l-7-4l-3.5-2.3c-0.1-0.1-0.2-0.1-0.3-0.1L29.5,36.4z"/>
			</defs>
			<clipPath id="SVGID_5_">
				<use xlink:href="#SVGID_4_"  style="overflow:visible;"/>
			</clipPath>
			
				<linearGradient id="SVGID_6_" gradientUnits="userSpaceOnUse" x1="-193.627" y1="284.2106" x2="-193.4361" y2="284.2106" gradientTransform="matrix(147.809 -109.2133 -109.2133 -147.809 59686.5117 20902.1367)">
				<stop  offset="0" style="stop-color:#3E863D"/>
				<stop  offset="0.57" style="stop-color:#3E863D"/>
				<stop  offset="0.72" style="stop-color:#619857"/>
				<stop  offset="1" style="stop-color:#76AC64"/>
			</linearGradient>
			<polygon class="st3" points="16.6,25.4 37.8,54.3 65.9,33.5 44.6,4.6 			"/>
		</g>
	</g>
	<g>
		<g>
			<defs>
				<path id="SVGID_7_" d="M41.1,15.8c-0.2,0-0.4,0.1-0.5,0.2L30,22.1l11.5,21c0.2,0,0.3-0.1,0.5-0.2l10.7-6.2
					c0.3-0.2,0.6-0.5,0.6-0.9L41.6,15.7c-0.1,0-0.2,0-0.3,0C41.2,15.8,41.1,15.8,41.1,15.8"/>
			</defs>
			<clipPath id="SVGID_8_">
				<use xlink:href="#SVGID_7_"  style="overflow:visible;"/>
			</clipPath>
			
				<linearGradient id="SVGID_9_" gradientUnits="userSpaceOnUse" x1="-193.3911" y1="284.1237" x2="-193.2011" y2="284.1237" gradientTransform="matrix(122.2438 0 0 -122.2438 23670.8438 34761.8242)">
				<stop  offset="0" style="stop-color:#6BBF47"/>
				<stop  offset="0.16" style="stop-color:#6BBF47"/>
				<stop  offset="0.38" style="stop-color:#79B461"/>
				<stop  offset="0.47" style="stop-color:#75AC64"/>
				<stop  offset="0.7" style="stop-color:#659E5A"/>
				<stop  offset="0.9" style="stop-color:#3E863D"/>
				<stop  offset="1" style="stop-color:#3E863D"/>
			</linearGradient>
			<rect x="30" y="15.8" class="st4" width="23.2" height="27.4"/>
		</g>
	</g>
</g>
</svg>
