<svg height="592" width="2048" xmlns="http://www.w3.org/2000/svg"><g fill="none"><rect height="100%" width="100%"/><rect height="100%" width="100%"/><path d="m-1-1h2050v594h-2050z"/></g><g fill="#ff6a00"><path d="m1334.150021 273.7h-9c-11.2 0-20.4 9.1-20.4 20.4v26.4c0 11.2 9.2 20.4 20.4 20.4h9c11.2 0 20.4-9.1 20.4-20.4v-26.4c0-11.3-9.2-20.4-20.4-20.4zm8.7 46.7c0 4.8-3.9 8.7-8.7 8.7h-9c-4.8 0-8.7-3.9-8.7-8.7v-26.4c0-4.8 3.9-8.7 8.7-8.7h9c4.8 0 8.7 3.9 8.7 8.7zm-442.8-68.9h11.7v87.8h-11.7zm25.3 23.7h11.7v64.1h-11.7zm5.9-23.7c-4.3 0-7.8 3.5-7.8 7.8s3.5 7.9 7.8 7.9 7.8-3.5 7.8-7.9c0-4.3-3.5-7.8-7.8-7.8zm-73.2 0h-14.2c-5.4 9.5-18.2 35.7-31.4 87.8h12.2c2.1-8 4.1-15.3 6.1-22h42.7c2 6.7 4 14 6.1 22h12.2c-13.2-52.1-26-78.3-31.4-87.8zm-23.7 54c6.6-20.4 12.6-34 16.6-42.1h2.3c4 8 9.9 21.6 16.5 42.1zm448-54.1h11.7v87.9h-11.7zm-287.3 26.9c-6.4-5.1-17.1-6-32.6-2.8v-24h-11.7v87.8h11.2c5.8 1 11.4 1.5 15.6 1.5 7.4 0 13.1-1.6 17.2-4.8 7-5.5 7-13.7 7-17.7v-23.2c-.1-3.7 0-11.5-6.7-16.8zm-5.1 36.7v3.3c0 3.6-.2 6.7-2.5 8.5-2.1 1.7-9.5 3.9-25 .7v-40.1c17.7-4 23.6-1.3 25.3.1 2 1.6 2.2 4.3 2.2 7.7zm232.7-26.1v-15.6c0-1.1.6-6.9 8-8.7 13.7-3.4 29.8-.8 37.9 2.5l2.9-11.4c-7.4-2.7-17-4.3-26.5-4.3-5.9 0-11.8.6-17.1 1.9-13.4 3.3-16.9 14.6-16.9 20.1v45.5c0 5.5 3.5 16.8 16.9 20.1 5.3 1.3 11.1 1.9 17.1 1.9 9.4 0 18.9-1.5 26.2-4.2l-2.9-11.4c-8.2 3.2-24.1 5.7-37.6 2.3-7.5-1.9-8-7.6-8-8.7zm178.7 38.7c-15 3.1-20.8.9-22.9-.8-2.3-1.8-2.5-4.9-2.5-8.5v-43.2h-11.7v43.2c0 4 0 12.2 7 17.7 4.1 3.2 9.8 4.8 17.2 4.8 4.1 0 8.8-.5 14.1-1.5h10.6v-64.1h-11.7v52.4zm70-76.1h-11.7v23.5c-14.2-2.6-24.2-1.5-30.3 3.3-6.7 5.3-6.6 13.1-6.6 16.9v23c0 4 0 12.2 7 17.7 4.1 3.2 9.8 4.8 17.2 4.8 4.1 0 8.8-.5 14.1-1.5h10.4v-87.7zm-34.4 75.3c-2.3-1.8-2.5-4.9-2.5-8.5v-23.1c0-3.4.1-6.1 2.2-7.7 1.7-1.3 7.2-3.8 23-.6v40.7c-14.8 3-20.6.9-22.7-.8zm-383.4-48.9c-11.6-8.3-33.2-2.1-38.4-.4l2.9 11.4c6.8-2.3 22.7-5.7 28.7-1.4 1.1.8 2.3 2.1 2.3 5.7v8.3c-4.9-.8-11.9-1.4-20 0-7.5 1.2-12.9 4.3-16.2 9-2.9 4.2-3.8 9.5-2.5 15.3 2.1 9.7 10 15.3 21.9 15.3 4.9 0 11.7-.6 17-1.5h11.4v-46.6c.1-8.2-3.8-12.8-7.1-15.1zm-31.7 45.2c-.4-1.8-.6-4.3.7-6.3 1.7-2.5 5.5-3.6 8.4-4 7.8-1.3 14.4-.4 18.1.4v14.3c-4.4.9-11.7 1.6-16.8 1.6-9.2 0-10.1-4.3-10.4-6zm155.3-45.2c-11.6-8.3-33.1-2.1-38.4-.4l2.9 11.4c6.8-2.3 22.7-5.7 28.7-1.4 1.1.8 2.3 2.1 2.3 5.7v8.3c-4.9-.8-11.9-1.4-20 0-7.5 1.2-13 4.3-16.2 9-2.9 4.2-3.7 9.5-2.5 15.3 2.1 9.7 10 15.3 21.9 15.3 4.9 0 11.7-.6 17-1.5h11.4v-46.6c.2-8.2-3.8-12.8-7.1-15.1zm-31.7 45.2c-.4-1.8-.6-4.3.7-6.3 1.7-2.5 5.5-3.6 8.4-4 7.8-1.3 14.4-.4 18.1.4v14.3c-4.4.9-11.7 1.6-16.8 1.6-9.1 0-10-4.3-10.4-6zm-26.7-44.8c-6.4-5.1-17.1-6-32.6-2.8v-24h-11.7v87.8h11.2c5.8 1 11.4 1.5 15.6 1.5 7.4 0 13.1-1.6 17.2-4.8 7-5.5 7-13.7 7-17.7v-23.2c-.1-3.7-.1-11.5-6.7-16.8zm-5.1 28.4v11.6c0 3.6-.2 6.7-2.5 8.5-2.1 1.7-9.5 3.9-25 .7v-40.1c17.7-4 23.6-1.3 25.3.1 2 1.6 2.2 4.3 2.2 7.7z"/><path d="m659.950021 340.3-46.4-10.1c-4.2-1-7.4-4.7-7.6-9.2v-50c.2-4.5 3.4-8.2 7.6-9.2l46.4-10.1 5-19.7h-54c-19 0-34.3 15.3-34.4 34.3v59.2c0 19.1 15.4 34.5 34.3 34.5h54zm39.5 0 46.4-10.1c4.2-1 7.4-4.7 7.6-9.2v-50c-.2-4.5-3.4-8.2-7.6-9.2l-46.4-10.1-5-19.7h54c19 0 34.3 15.3 34.4 34.3v59.2c-.1 18.9-15.4 34.3-34.4 34.3h-54z"/><path d="m659.950021 293.6h39.5v4.9h-39.5z"/></g></svg>