<?xml version="1.0" encoding="UTF-8" standalone="no"?>
<!-- Created with Inkscape (http://www.inkscape.org/) -->
<svg
   xmlns:dc="http://purl.org/dc/elements/1.1/"
   xmlns:cc="http://web.resource.org/cc/"
   xmlns:rdf="http://www.w3.org/1999/02/22-rdf-syntax-ns#"
   xmlns:svg="http://www.w3.org/2000/svg"
   xmlns="http://www.w3.org/2000/svg"
   xmlns:sodipodi="http://sodipodi.sourceforge.net/DTD/sodipodi-0.dtd"
   xmlns:inkscape="http://www.inkscape.org/namespaces/inkscape"
   id="svg2"
   sodipodi:version="0.32"
   inkscape:version="0.45.1"
   width="390"
   height="165"
   version="1.0"
   sodipodi:docbase="C:\Documents and Settings\Alex Broersma.D2KY7761\Desktop"
   sodipodi:docname="Apc-logo.svg"
   inkscape:output_extension="org.inkscape.output.svg.inkscape">
  <metadata
     id="metadata7">
    <rdf:RDF>
      <cc:Work
         rdf:about="">
        <dc:format>image/svg+xml</dc:format>
        <dc:type
           rdf:resource="http://purl.org/dc/dcmitype/StillImage" />
      </cc:Work>
    </rdf:RDF>
  </metadata>
  <defs
     id="defs5">
    <marker
       orient="auto"
       overflow="visible"
       markerHeight="1"
       markerWidth="1"
       viewBox="0 0 1 1"
       markerUnits="strokeWidth"
       id="DefaultArrow9">
<!-- REF_ARROW_HOLLOWDIAMOND -->      <g
         id="g42"
         transform="scale(0.0092592592)">
        <path
           id="path44"
           d="M 0,45 L -45,0 L 0, -45 L 45, 0 z M 0, 63 L-63, 0 L 0, -63 L 63, 0 z" />
      </g>
    </marker>
    <marker
       orient="auto"
       overflow="visible"
       markerHeight="1"
       markerWidth="1"
       viewBox="0 0 1 1"
       markerUnits="strokeWidth"
       id="DefaultArrow8">
<!-- REF_ARROW_FEATHER2 -->      <g
         id="g37"
         transform="scale(0.0092592592)">
        <path
           id="path39"
           d="M -36,0 L 18,-54 L 54,-54 L 18,-18 L 27,-18 L 63,-54 L 99,-54 L 63,-18 L 72,-18 L 108,-54 L 144,-54 L 90,0 L 144,54 L 108,54 L 72,18 L 63,18 L 99,54 L 63,54 L 27,18 L 18,18 L 54,54 L 18,54 z" />
      </g>
    </marker>
    <marker
       orient="auto"
       overflow="visible"
       markerHeight="1"
       markerWidth="1"
       viewBox="0 0 1 1"
       markerUnits="strokeWidth"
       id="DefaultArrow7">
<!-- REF_ARROW_FEATHER -->      <g
         id="g32"
         transform="scale(0.0092592592)">
        <path
           id="path34"
           d="M 18,-54 L 108,-54 L 63,0 L 108,54 L 18, 54 L -36,0 z" />
      </g>
    </marker>
    <marker
       orient="auto"
       overflow="visible"
       markerHeight="1"
       markerWidth="1"
       viewBox="0 0 1 1"
       markerUnits="strokeWidth"
       id="DefaultArrow6">
<!-- REF_ARROW_DIAMOND -->      <g
         id="g27"
         transform="scale(0.0092592592)">
        <path
           id="path29"
           d="M -63,0 L 0,63 L 63,0 L 0,-63 z" />
      </g>
    </marker>
    <marker
       orient="auto"
       overflow="visible"
       markerHeight="1"
       markerWidth="1"
       viewBox="0 0 1 1"
       markerUnits="strokeWidth"
       id="DefaultArrow5">
<!-- REF_ARROW_SPOT -->      <g
         id="g22"
         transform="scale(0.0092592592)">
        <path
           id="path24"
           d="M -54, 0 C -54,29.807 -29.807,54 0,54 C 29.807,54 54,29.807 54,0 C 54,-29.807 29.807,-54 0,-54 C -29.807,-54 -54,-29.807 -54,0 z" />
      </g>
    </marker>
    <marker
       orient="auto"
       overflow="visible"
       markerHeight="1"
       markerWidth="1"
       viewBox="0 0 1 1"
       markerUnits="strokeWidth"
       id="DefaultArrow4">
<!-- REF_ARROW_ROUNDED -->      <g
         id="g17"
         transform="scale(0.0092592592)">
        <path
           id="path19"
           d="M -9,0 L -9,-45 C -9,-51.708 2.808,-56.580 9,-54 L 117,-9 C 120.916,-7.369 126.000,-4.242 126,0 C 126,4.242 120.916,7.369 117,9 L 9,54 C 2.808,56.580 -9,51.708 -9,45 z" />
      </g>
    </marker>
    <marker
       orient="auto"
       overflow="visible"
       markerHeight="1"
       markerWidth="1"
       viewBox="0 0 1 1"
       markerUnits="strokeWidth"
       id="DefaultArrow3">
<!-- REF_ARROW_ANGLED -->      <g
         id="g12"
         transform="scale(0.0092592592)">
        <path
           id="path14"
           d="M -27 54 L -9 0 L -27 -54 L 135 0 z" />
      </g>
    </marker>
    <marker
       orient="auto"
       overflow="visible"
       markerHeight="1"
       markerWidth="1"
       viewBox="0 0 1 1"
       markerUnits="strokeWidth"
       id="DefaultArrow2">
<!-- REF_ARROW_STRAIGHT (-2) -->      <g
         id="g7"
         transform="scale(0.0092592592)">
<!-- 1/108 -->        <path
           id="path9"
           d="M -9 54 L -9 -54 L 117 0 z" />
      </g>
    </marker>
    <marker
       orient="auto"
       overflow="visible"
       markerHeight="1"
       markerWidth="1"
       viewBox="0 0 1 1"
       markerUnits="strokeWidth"
       id="marker2389">
<!-- REF_ARROW_HOLLOWDIAMOND -->      <g
         id="g2391"
         transform="scale(0.0092592592)">
        <path
           id="path2393"
           d="M 0,45 L -45,0 L 0, -45 L 45, 0 z M 0, 63 L-63, 0 L 0, -63 L 63, 0 z" />
      </g>
    </marker>
    <marker
       orient="auto"
       overflow="visible"
       markerHeight="1"
       markerWidth="1"
       viewBox="0 0 1 1"
       markerUnits="strokeWidth"
       id="marker2383">
<!-- REF_ARROW_FEATHER2 -->      <g
         id="g2385"
         transform="scale(0.0092592592)">
        <path
           id="path2387"
           d="M -36,0 L 18,-54 L 54,-54 L 18,-18 L 27,-18 L 63,-54 L 99,-54 L 63,-18 L 72,-18 L 108,-54 L 144,-54 L 90,0 L 144,54 L 108,54 L 72,18 L 63,18 L 99,54 L 63,54 L 27,18 L 18,18 L 54,54 L 18,54 z" />
      </g>
    </marker>
    <marker
       orient="auto"
       overflow="visible"
       markerHeight="1"
       markerWidth="1"
       viewBox="0 0 1 1"
       markerUnits="strokeWidth"
       id="marker2377">
<!-- REF_ARROW_FEATHER -->      <g
         id="g2379"
         transform="scale(0.0092592592)">
        <path
           id="path2381"
           d="M 18,-54 L 108,-54 L 63,0 L 108,54 L 18, 54 L -36,0 z" />
      </g>
    </marker>
    <marker
       orient="auto"
       overflow="visible"
       markerHeight="1"
       markerWidth="1"
       viewBox="0 0 1 1"
       markerUnits="strokeWidth"
       id="marker2371">
<!-- REF_ARROW_DIAMOND -->      <g
         id="g2373"
         transform="scale(0.0092592592)">
        <path
           id="path2375"
           d="M -63,0 L 0,63 L 63,0 L 0,-63 z" />
      </g>
    </marker>
    <marker
       orient="auto"
       overflow="visible"
       markerHeight="1"
       markerWidth="1"
       viewBox="0 0 1 1"
       markerUnits="strokeWidth"
       id="marker2365">
<!-- REF_ARROW_SPOT -->      <g
         id="g2367"
         transform="scale(0.0092592592)">
        <path
           id="path2369"
           d="M -54, 0 C -54,29.807 -29.807,54 0,54 C 29.807,54 54,29.807 54,0 C 54,-29.807 29.807,-54 0,-54 C -29.807,-54 -54,-29.807 -54,0 z" />
      </g>
    </marker>
    <marker
       orient="auto"
       overflow="visible"
       markerHeight="1"
       markerWidth="1"
       viewBox="0 0 1 1"
       markerUnits="strokeWidth"
       id="marker2359">
<!-- REF_ARROW_ROUNDED -->      <g
         id="g2361"
         transform="scale(0.0092592592)">
        <path
           id="path2363"
           d="M -9,0 L -9,-45 C -9,-51.708 2.808,-56.580 9,-54 L 117,-9 C 120.916,-7.369 126.000,-4.242 126,0 C 126,4.242 120.916,7.369 117,9 L 9,54 C 2.808,56.580 -9,51.708 -9,45 z" />
      </g>
    </marker>
    <marker
       orient="auto"
       overflow="visible"
       markerHeight="1"
       markerWidth="1"
       viewBox="0 0 1 1"
       markerUnits="strokeWidth"
       id="marker2353">
<!-- REF_ARROW_ANGLED -->      <g
         id="g2355"
         transform="scale(0.0092592592)">
        <path
           id="path2357"
           d="M -27 54 L -9 0 L -27 -54 L 135 0 z" />
      </g>
    </marker>
    <marker
       orient="auto"
       overflow="visible"
       markerHeight="1"
       markerWidth="1"
       viewBox="0 0 1 1"
       markerUnits="strokeWidth"
       id="marker2347">
<!-- REF_ARROW_STRAIGHT (-2) -->      <g
         id="g2349"
         transform="scale(0.0092592592)">
<!-- 1/108 -->        <path
           id="path2351"
           d="M -9 54 L -9 -54 L 117 0 z" />
      </g>
    </marker>
  </defs>
  <sodipodi:namedview
     inkscape:window-height="844"
     inkscape:window-width="1440"
     inkscape:pageshadow="2"
     inkscape:pageopacity="0.0"
     guidetolerance="10.0"
     gridtolerance="10.0"
     objecttolerance="10.0"
     borderopacity="1.0"
     bordercolor="#666666"
     pagecolor="#ffffff"
     id="base"
     inkscape:zoom="1.6897436"
     inkscape:cx="66.6117"
     inkscape:cy="44.95278"
     inkscape:window-x="-4"
     inkscape:window-y="-4"
     inkscape:current-layer="svg2" />
  <path
     style="font-size:16px;fill:#000000;fill-rule:evenodd;stroke:none;stroke-width:0.50099999;stroke-linejoin:bevel;font-family:Times New Roman"
     id="path57"
     d="M 300.38408,78.35448 C 300.38408,76.59548 301.81108,75.29848 303.49708,75.29848 C 305.16708,75.29848 306.59408,76.59548 306.59408,78.35448 C 306.59408,80.12948 305.16708,81.42648 303.49708,81.42648 C 301.81108,81.42648 300.38408,80.12948 300.38408,78.35448 M 303.49708,80.91648 C 304.88308,80.91648 305.97808,79.83048 305.97808,78.35448 C 305.97808,76.90348 304.88308,75.80948 303.49708,75.80948 C 302.09408,75.80948 301.00008,76.90348 301.00008,78.35448 C 301.00008,79.83048 302.09408,80.91648 303.49708,80.91648 M 302.84808,80.12948 L 302.31408,80.12948 L 302.31408,76.59548 L 303.65908,76.59548 C 304.49408,76.59548 304.90808,76.90348 304.90808,77.60048 C 304.90808,78.23348 304.51008,78.50848 303.99208,78.57348 L 304.99708,80.12948 L 304.39708,80.12948 L 303.46508,78.59748 L 302.84808,78.59748 L 302.84808,80.12948 L 303.48908,78.14348 C 303.94308,78.14348 304.34808,78.11148 304.34808,77.56848 C 304.34808,77.13048 303.95108,77.04948 303.57808,77.04948 L 302.84808,77.04948 L 302.84808,78.14348 L 303.48908,78.14348 L 302.84808,80.12948" />
  <path
     style="font-size:16px;fill:#ff0000;fill-rule:evenodd;stroke:none;stroke-width:0.50099999;stroke-linejoin:bevel;font-family:Times New Roman"
     id="path51"
     d="M 68.124269,99.541505 L 55.05784,76.239093 L 102.30022,76.239093 L 78.577832,26.016099 L 43.798748,99.541505 L 2.1848981,99.541505 L 56.666871,0.30294895 L 100.49082,0.30294895 L 154.57003,99.541505 L 68.124269,99.541505" />
  <path
     style="font-size:16px;fill:#ff0000;fill-rule:evenodd;stroke:none;stroke-width:0.50099999;stroke-linejoin:bevel;font-family:Times New Roman"
     id="path53"
     d="M 154.77246,41.888159 L 206.63951,41.888159 C 219.70592,41.888159 224.93375,41.083204 224.93375,31.842734 C 224.93375,23.004742 220.71185,21.999581 207.24264,21.999581 L 154.57003,21.999581 L 142.91023,0.30294895 L 216.08715,0.30294895 C 250.66588,0.30294895 263.53194,15.370054 263.53194,31.440257 C 263.53194,46.909839 251.66972,63.985202 213.67465,63.985202 L 196.38631,63.985202 L 196.38631,99.541505 L 154.57003,99.541505 L 154.57003,41.888159 L 154.77246,41.888159" />
  <path
     style="font-size:16px;fill:#ff0000;fill-rule:evenodd;stroke:none;stroke-width:0.50099999;stroke-linejoin:bevel;font-family:Times New Roman"
     id="path55"
     d="M 371.89073,93.517284 C 359.42538,99.341853 343.94644,102.15506 327.46158,102.15506 C 277.60427,102.15506 260.51629,74.433659 260.51629,51.531659 C 260.51629,22.604883 285.84565,0.30556793 329.47134,0.30556793 C 345.3551,0.30556793 359.22502,2.7163048 370.88483,7.1353009 L 370.88483,35.861871 C 358.82225,29.434615 348.36871,26.621401 336.10574,26.621401 C 315.19865,26.621401 298.10861,36.064142 298.10861,51.129182 C 298.10861,65.996081 315.59936,75.639028 336.50853,75.639028 C 348.56904,75.639028 358.41947,73.228292 371.89073,67.001242 L 371.89073,93.517284" />
  <path
     style="font-size:16px;fill:#000000;fill-rule:evenodd;stroke:none;stroke-width:0.50099999;stroke-linejoin:bevel;font-family:Times New Roman"
     id="path2401"
     d="M 376.30023,8.883065 C 376.30023,6.2717542 378.43177,4.3463019 380.95018,4.3463019 C 383.44469,4.3463019 385.57623,6.2717542 385.57623,8.883065 C 385.57623,11.518128 383.44469,13.44358 380.95018,13.44358 C 378.43177,13.44358 376.30023,11.518128 376.30023,8.883065 M 380.95018,12.686463 C 383.02048,12.686463 384.6561,11.07425 384.6561,8.883065 C 384.6561,6.7289928 383.02048,5.1049033 380.95018,5.1049033 C 378.8545,5.1049033 377.22037,6.7289928 377.22037,8.883065 C 377.22037,11.07425 378.8545,12.686463 380.95018,12.686463 M 379.98076,11.518128 L 379.18312,11.518128 L 379.18312,6.2717542 L 381.19216,6.2717542 C 382.43943,6.2717542 383.05782,6.7289928 383.05782,7.7637193 C 383.05782,8.703436 382.46332,9.111684 381.68957,9.208179 L 383.19075,11.518128 L 382.29452,11.518128 L 380.90237,9.243809 L 379.98076,9.243809 L 379.98076,11.518128 L 380.93823,8.569827 C 381.61637,8.569827 382.22133,8.522321 382.22133,7.7162151 C 382.22133,7.0659849 381.62833,6.9457374 381.07117,6.9457374 L 379.98076,6.9457374 L 379.98076,8.569827 L 380.93823,8.569827 L 379.98076,11.518128" />
  <path
     style="font-size:16px;fill:#000000;fill-rule:evenodd;stroke:none;stroke-width:0.50099999;stroke-linejoin:bevel;font-family:Times New Roman"
     id="path59"
     d="M 1.145933,155.66749 L 1.145933,123.40738 L 5.2459674,123.40738 L 5.2459674,152.09267 L 17.10407,152.09267 L 17.10407,155.66749 L 1.145933,155.66749" />
  <path
     style="font-size:16px;fill:#000000;fill-rule:evenodd;stroke:none;stroke-width:0.50099999;stroke-linejoin:bevel;font-family:Times New Roman"
     id="path61"
     d="M 24.465558,142.77171 C 24.510995,136.54465 26.436055,135.43011 28.763881,135.43011 C 31.451113,135.43011 33.287346,136.233 33.287346,142.77171 L 24.465558,142.77171 M 37.197369,145.54571 L 37.197369,143.62205 C 37.197369,136.18758 35.580075,132.65816 29.123287,132.65816 C 21.299118,132.65816 20.539008,138.10091 20.539008,144.69534 C 20.539008,154.6871 24.33129,156.10299 29.123287,156.10299 C 33.822331,156.10299 36.897864,153.84706 36.943317,148.82538 L 32.930017,148.82538 C 32.795752,151.11639 31.504813,153.13911 29.009685,153.13911 C 26.159277,153.13911 24.465558,151.88008 24.465558,145.54571 L 37.197369,145.54571" />
  <path
     style="font-size:16px;fill:#000000;fill-rule:evenodd;stroke:none;stroke-width:0.50099999;stroke-linejoin:bevel;font-family:Times New Roman"
     id="path63"
     d="M 54.900864,144.27015 C 54.900864,147.3971 55.035113,152.62105 50.583937,152.62105 C 47.838881,152.62105 46.174073,150.92446 46.174073,143.69018 C 46.174073,140.69739 46.308338,135.69636 50.493062,135.69636 C 55.123942,135.69636 54.900864,140.92032 54.900864,144.27015 M 54.812051,135.87387 L 54.721161,135.87387 C 53.686334,133.68396 51.798481,132.65404 49.412799,132.65404 C 47.568304,132.65404 42.334291,133.32483 42.334291,143.69018 C 42.334291,150.38987 43.54054,155.66129 49.683376,155.66129 C 51.662137,155.66129 53.731788,154.63344 54.67777,152.84395 L 54.812051,152.84395 L 54.812051,157.53953 C 54.812051,159.86562 53.417819,161.43014 50.852452,161.43014 C 48.82827,161.43014 47.434038,160.26812 47.388601,158.16494 L 43.272041,158.16494 C 42.960135,162.32385 46.353775,164.20414 50.133672,164.20414 C 55.123942,164.20414 58.476253,162.99671 58.476253,157.94201 L 58.476253,133.09367 L 54.812051,133.09367 L 54.812051,135.87387" />
  <path
     style="font-size:16px;fill:#000000;fill-rule:evenodd;stroke:none;stroke-width:0.50099999;stroke-linejoin:bevel;font-family:Times New Roman"
     id="path65"
     d="M 67.599624,142.77171 C 67.645078,136.54465 69.570108,135.43011 71.897949,135.43011 C 74.585198,135.43011 76.42143,136.233 76.42143,142.77171 L 67.599624,142.77171 M 80.331437,145.54571 L 80.331437,143.62205 C 80.331437,136.18758 78.712066,132.65816 72.257355,132.65816 C 64.43114,132.65816 63.673077,138.10091 63.673077,144.69534 C 63.673077,154.6871 67.465376,156.10299 72.257355,156.10299 C 76.956383,156.10299 80.031948,153.84706 80.077386,148.82538 L 76.064086,148.82538 C 75.929835,151.11639 74.636819,153.13911 72.143754,153.13911 C 69.293345,153.13911 67.599624,151.88008 67.599624,145.54571 L 80.331437,145.54571" />
  <path
     style="font-size:16px;fill:#000000;fill-rule:evenodd;stroke:none;stroke-width:0.50099999;stroke-linejoin:bevel;font-family:Times New Roman"
     id="path67"
     d="M 98.611198,155.66749 L 98.611198,140.00183 C 98.611198,137.58284 97.764355,135.61382 94.647508,135.61382 C 90.638331,135.61382 90.060003,139.19481 90.060003,142.28255 L 90.060003,155.66749 L 86.395785,155.66749 L 86.395785,137.7624 C 86.395785,136.19585 86.304878,134.63753 86.170629,133.08542 L 90.060003,133.08542 L 90.060003,135.97293 L 90.237644,135.97293 C 91.662833,133.4466 93.356552,132.64991 96.250322,132.64991 C 101.06917,132.64991 102.27542,135.52505 102.27542,140.00183 L 102.27542,155.66749 L 98.611198,155.66749" />
  <path
     style="font-size:16px;fill:#000000;fill-rule:evenodd;stroke:none;stroke-width:0.50099999;stroke-linejoin:bevel;font-family:Times New Roman"
     id="path69"
     d="M 120.72043,143.45695 C 120.72043,148.02867 120.72043,153.13911 116.60387,153.13911 C 111.99572,153.13911 111.99572,148.20826 111.99572,144.80267 C 111.99572,138.75107 112.53276,135.61382 116.46961,135.61382 C 120.54281,135.61382 120.72043,140.45385 120.72043,143.45695 M 120.72043,135.34754 L 120.58618,135.34754 C 119.33448,133.57871 117.76882,132.64991 115.6207,132.64991 C 108.33564,132.64991 108.15594,139.1102 108.15594,144.75726 C 108.15594,154.6871 111.81603,156.10299 115.44101,156.10299 C 117.8122,156.10299 119.37786,155.08545 120.63164,153.00496 L 120.72043,153.00496 L 120.72043,155.66749 L 124.38672,155.66749 L 124.38672,123.40738 L 120.72043,123.40738 L 120.72043,135.34754" />
  <path
     style="font-size:16px;fill:#000000;fill-rule:evenodd;stroke:none;stroke-width:0.50099999;stroke-linejoin:bevel;font-family:Times New Roman"
     id="path71"
     d="M 142.16456,144.41257 C 142.52191,151.74385 139.7438,153.13911 137.50273,153.13911 C 135.03856,153.13911 133.96243,151.15975 133.96243,148.95541 C 133.96243,144.14426 138.66767,144.45591 142.16456,144.41257 M 142.25339,155.66749 L 146.27701,155.66749 C 146.0085,153.9193 145.82881,152.08028 145.82881,150.28668 L 145.82881,139.42185 C 145.82881,135.65302 144.31064,132.65816 138.49625,132.65816 C 133.70423,132.65816 131.00876,134.40223 130.82904,139.42185 L 134.8279,139.42185 C 134.60274,137.07303 135.89987,135.43011 138.36198,135.43011 C 142.29883,135.43011 142.25339,138.6685 142.16456,141.63858 C 137.01114,141.50442 130.2982,141.81607 130.2982,148.68503 C 130.2982,153.04829 131.68418,156.10299 136.47203,156.10299 C 139.29557,156.10299 141.04302,154.9967 142.16456,152.41877 L 142.25339,152.41877 L 142.25339,155.66749" />
  <path
     style="font-size:16px;fill:#000000;fill-rule:evenodd;stroke:none;stroke-width:0.50099999;stroke-linejoin:bevel;font-family:Times New Roman"
     id="path73"
     d="M 155.34047,136.5302 L 155.42929,136.5302 C 156.9495,133.05651 158.82914,132.64991 162.40865,132.64991 L 162.40865,136.48687 C 162.09676,136.4394 161.73737,136.39604 161.42548,136.31349 C 161.1115,136.26809 160.79963,136.22473 160.44023,136.22473 C 156.36909,136.22473 155.34047,139.30833 155.34047,142.34858 L 155.34047,155.66749 L 151.6742,155.66749 L 151.6742,133.08542 L 155.34047,133.08542 L 155.34047,136.5302" />
  <path
     style="font-size:16px;fill:#000000;fill-rule:evenodd;stroke:none;stroke-width:0.50099999;stroke-linejoin:bevel;font-family:Times New Roman"
     id="path75"
     d="M 175.13014,151.46521 L 175.22102,151.46521 L 180.62233,133.08542 L 184.59638,133.08542 L 174.37209,164.2124 L 170.57775,164.2124 L 173.12248,155.66956 L 165.48833,133.08542 L 169.72884,133.08542 L 175.13014,151.46521" />
  <path
     style="font-size:16px;fill:#000000;fill-rule:evenodd;stroke:none;stroke-width:0.50099999;stroke-linejoin:bevel;font-family:Times New Roman"
     id="path77"
     d="M 203.95847,126.9822 L 210.17566,126.9822 C 213.35242,126.9822 214.51531,129.57664 214.51531,131.90275 C 214.51531,134.72008 213.0839,137.27119 210.13023,137.27119 L 203.95847,137.27119 L 203.95847,126.9822 M 208.7897,140.846 C 210.17566,140.846 213.35242,141.02351 213.66431,144.95334 C 214.0237,149.23817 213.75521,153.43633 214.91602,155.66749 L 219.19575,155.66749 C 218.56991,153.65924 218.12373,148.61279 218.08038,147.2299 C 217.85729,140.75519 216.52092,139.50442 212.81539,138.92442 L 212.81539,138.83362 C 216.60973,138.16488 218.70415,135.2588 218.70415,131.45486 C 218.70415,127.43009 216.69855,123.40738 210.98123,123.40738 L 199.85637,123.40738 L 199.85637,155.66749 L 203.95847,155.66749 L 203.95847,140.846 L 208.7897,140.846" />
  <path
     style="font-size:16px;fill:#000000;fill-rule:evenodd;stroke:none;stroke-width:0.50099999;stroke-linejoin:bevel;font-family:Times New Roman"
     id="path79"
     d="M 227.96177,142.77171 C 228.00722,136.54465 229.93228,135.43011 232.26216,135.43011 C 234.94735,135.43011 236.78358,136.233 236.78358,142.77171 L 227.96177,142.77171 M 240.69361,145.54571 L 240.69361,143.62205 C 240.69361,136.18758 239.0763,132.65816 232.61953,132.65816 C 224.79536,132.65816 224.03732,138.10091 224.03732,144.69534 C 224.03732,154.6871 227.82959,156.10299 232.61953,156.10299 C 237.31855,156.10299 240.39614,153.84706 240.4416,148.82538 L 236.42624,148.82538 C 236.29199,151.11639 235.00104,153.13911 232.50591,153.13911 C 229.6555,153.13911 227.96177,151.88008 227.96177,145.54571 L 240.69361,145.54571" />
  <path
     style="font-size:16px;fill:#000000;fill-rule:evenodd;stroke:none;stroke-width:0.50099999;stroke-linejoin:bevel;font-family:Times New Roman"
     id="path81"
     d="M 250.33541,155.66749 L 246.67118,155.66749 L 246.67118,123.40738 L 250.33541,123.40738 L 250.33541,155.66749" />
  <path
     style="font-size:16px;fill:#000000;fill-rule:evenodd;stroke:none;stroke-width:0.50099999;stroke-linejoin:bevel;font-family:Times New Roman"
     id="path83"
     d="M 260.26845,155.66749 L 256.60217,155.66749 L 256.60217,133.08542 L 260.26845,133.08542 L 260.26845,155.66749 M 256.34191,123.40738 L 260.44194,123.40738 L 260.44194,127.33102 L 256.34191,127.33102 L 256.34191,123.40738" />
  <path
     style="font-size:16px;fill:#000000;fill-rule:evenodd;stroke:none;stroke-width:0.50099999;stroke-linejoin:bevel;font-family:Times New Roman"
     id="path85"
     d="M 278.14132,144.41257 C 278.49864,151.74385 275.72054,153.13911 273.47947,153.13911 C 271.01324,153.13911 269.93916,151.15975 269.93916,148.95541 C 269.93916,144.14426 274.64442,144.45591 278.14132,144.41257 M 278.23013,155.66749 L 282.25168,155.66749 C 281.98316,153.9193 281.80552,152.08028 281.80552,150.28668 L 281.80552,139.42185 C 281.80552,135.65302 280.28531,132.65816 274.4709,132.65816 C 269.6789,132.65816 266.98549,134.40223 266.80578,139.42185 L 270.80256,139.42185 C 270.57742,137.07303 271.87661,135.43011 274.33665,135.43011 C 278.2735,135.43011 278.23013,138.6685 278.14132,141.63858 C 272.98579,141.50442 266.27496,141.81607 266.27496,148.68503 C 266.27496,153.04829 267.65885,156.10299 272.44877,156.10299 C 275.27233,156.10299 277.01974,154.9967 278.14132,152.41877 L 278.23013,152.41877 L 278.23013,155.66749" />
  <path
     style="font-size:16px;fill:#000000;fill-rule:evenodd;stroke:none;stroke-width:0.50099999;stroke-linejoin:bevel;font-family:Times New Roman"
     id="path87"
     d="M 290.90617,143.45695 C 290.90617,140.45385 291.08382,135.61382 295.15699,135.61382 C 299.09387,135.61382 299.63089,138.75107 299.63089,144.80267 C 299.63089,148.20826 299.63089,153.13911 295.02274,153.13911 C 290.50341,153.13911 290.90617,146.90793 290.90617,143.45695 M 290.90617,153.00496 L 290.99499,153.00496 C 292.24875,155.08545 293.81441,156.10299 296.18563,156.10299 C 299.81059,156.10299 303.47068,154.6871 303.47068,144.75726 C 303.47068,139.1102 303.29098,132.64991 296.00591,132.64991 C 293.85779,132.64991 292.29213,133.57871 291.04044,135.34754 L 290.90617,135.34754 L 290.90617,123.40738 L 287.23988,123.40738 L 287.23988,155.66749 L 290.90617,155.66749 L 290.90617,153.00496" />
  <path
     style="font-size:16px;fill:#000000;fill-rule:evenodd;stroke:none;stroke-width:0.50099999;stroke-linejoin:bevel;font-family:Times New Roman"
     id="path89"
     d="M 312.84191,155.66749 L 309.17769,155.66749 L 309.17769,133.08542 L 312.84191,133.08542 L 312.84191,155.66749 M 308.91536,123.40738 L 313.0154,123.40738 L 313.0154,127.33102 L 308.91536,127.33102 L 308.91536,123.40738" />
  <path
     style="font-size:16px;fill:#000000;fill-rule:evenodd;stroke:none;stroke-width:0.50099999;stroke-linejoin:bevel;font-family:Times New Roman"
     id="path91"
     d="M 322.77494,155.66749 L 319.10867,155.66749 L 319.10867,123.40738 L 322.77494,123.40738 L 322.77494,155.66749" />
  <path
     style="font-size:16px;fill:#000000;fill-rule:evenodd;stroke:none;stroke-width:0.50099999;stroke-linejoin:bevel;font-family:Times New Roman"
     id="path93"
     d="M 332.70799,155.66749 L 329.04171,155.66749 L 329.04171,133.08542 L 332.70799,133.08542 L 332.70799,155.66749 M 328.7794,123.40738 L 332.8815,123.40738 L 332.8815,127.33102 L 328.7794,127.33102 L 328.7794,123.40738" />
  <path
     style="font-size:16px;fill:#000000;fill-rule:evenodd;stroke:none;stroke-width:0.50099999;stroke-linejoin:bevel;font-family:Times New Roman"
     id="path95"
     d="M 340.75109,133.09367 L 340.75109,128.75723 L 344.41531,127.10191 L 344.41531,133.09367 L 349.33742,133.09367 L 349.33742,135.86767 L 344.41531,135.86767 L 344.41531,149.69638 C 344.41531,151.12878 344.41531,152.96367 347.77178,152.96367 C 348.04028,152.96367 348.62069,152.87492 349.42622,152.78617 L 349.42622,155.57461 C 348.21998,155.66337 347.01165,155.92962 345.80335,155.92962 C 342.31468,155.92962 340.75109,154.51372 340.75109,151.9358 L 340.75109,135.86767 L 337.03728,135.86767 L 337.03728,133.09367 L 340.75109,133.09367" />
  <path
     style="font-size:16px;fill:#000000;fill-rule:evenodd;stroke:none;stroke-width:0.50099999;stroke-linejoin:bevel;font-family:Times New Roman"
     id="path97"
     d="M 361.8441,151.46521 L 361.93497,151.46521 L 367.33628,133.08542 L 371.31032,133.08542 L 361.08603,164.2124 L 357.28965,164.2124 L 359.8364,155.66956 L 352.20023,133.08542 L 356.44279,133.08542 L 361.8441,151.46521" />
  <path
     style="font-size:16px;fill:#000000;fill-rule:evenodd;stroke:none;stroke-width:0.50099999;stroke-linejoin:bevel;font-family:Times New Roman"
     id="path2423"
     d="M 386.80374,132.11121 L 385.63052,132.11121 L 385.63052,126.4146 L 385.59541,126.4146 L 383.58979,132.11121 L 382.63551,132.11121 L 380.72907,126.4146 L 380.69601,126.4146 L 380.69601,132.11121 L 379.5228,132.11121 L 379.5228,124.87487 L 381.38176,124.87487 L 383.18702,130.25981 L 383.22006,130.25981 L 384.97783,124.87487 L 386.80374,124.87487 L 386.80374,132.11121 M 378.68214,124.87487 L 378.68214,125.81192 L 376.68067,125.81192 L 376.68067,132.11121 L 375.50745,132.11121 L 375.50745,125.81192 L 373.51422,125.81192 L 373.51422,124.87487 L 378.68214,124.87487" />
</svg>
