<?xml version="1.0" encoding="utf-8"?>
<!-- Generator: Adobe Illustrator 24.2.0, SVG Export Plug-In . SVG Version: 6.00 Build 0)  -->
<svg version="1.1"
	 id="svg2" xmlns:cc="http://web.resource.org/cc/" xmlns:dc="http://purl.org/dc/elements/1.1/" xmlns:inkscape="http://www.inkscape.org/namespaces/inkscape" xmlns:rdf="http://www.w3.org/1999/02/22-rdf-syntax-ns#" xmlns:sodipodi="http://sodipodi.sourceforge.net/DTD/sodipodi-0.dtd" xmlns:svg="http://www.w3.org/2000/svg"
	 xmlns="http://www.w3.org/2000/svg" xmlns:xlink="http://www.w3.org/1999/xlink" x="0px" y="0px" viewBox="0 0 390 165"
	 style="enable-background:new 0 0 390 165;" xml:space="preserve">
<style type="text/css">
	.st0{fill-rule:evenodd;clip-rule:evenodd;}
	.st1{fill-rule:evenodd;clip-rule:evenodd;fill:#FF0000;}
	.st2{fill-rule:evenodd;clip-rule:evenodd;fill:#FFFFFF;}
</style>
<sodipodi:namedview  bordercolor="#666666" borderopacity="1.0" gridtolerance="10.0" guidetolerance="10.0" id="base" inkscape:current-layer="svg2" inkscape:cx="66.6117" inkscape:cy="44.95278" inkscape:pageopacity="0.0" inkscape:pageshadow="2" inkscape:window-height="844" inkscape:window-width="1440" inkscape:window-x="-4" inkscape:window-y="-4" inkscape:zoom="1.6897436" objecttolerance="10.0" pagecolor="#ffffff">
	</sodipodi:namedview>
<path id="path57" class="st0" d="M300.4,78.4c0-1.8,1.4-3.1,3.1-3.1c1.7,0,3.1,1.3,3.1,3.1c0,1.8-1.4,3.1-3.1,3.1
	C301.8,81.4,300.4,80.1,300.4,78.4 M303.5,80.9c1.4,0,2.5-1.1,2.5-2.6c0-1.5-1.1-2.5-2.5-2.5c-1.4,0-2.5,1.1-2.5,2.5
	C301,79.8,302.1,80.9,303.5,80.9 M302.8,80.1h-0.5v-3.5h1.3c0.8,0,1.2,0.3,1.2,1c0,0.6-0.4,0.9-0.9,1l1,1.6h-0.6l-0.9-1.5h-0.6V80.1
	l0.6-2c0.5,0,0.9,0,0.9-0.6c0-0.4-0.4-0.5-0.8-0.5h-0.7v1.1h0.6L302.8,80.1"/>
<path id="path51" class="st1" d="M68.1,99.5L55.1,76.2h47.2L78.6,26L43.8,99.5H2.2L56.7,0.3h43.8l54.1,99.2H68.1"/>
<path id="path53" class="st1" d="M154.8,41.9h51.9c13.1,0,18.3-0.8,18.3-10c0-8.8-4.2-9.8-17.7-9.8h-52.7L142.9,0.3h73.2
	c34.6,0,47.4,15.1,47.4,31.1c0,15.5-11.9,32.5-49.9,32.5h-17.3v35.6h-41.8V41.9H154.8"/>
<path id="path55" class="st1" d="M371.9,93.5c-12.5,5.8-27.9,8.6-44.4,8.6c-49.9,0-66.9-27.7-66.9-50.6c0-28.9,25.3-51.2,69-51.2
	c15.9,0,29.8,2.4,41.4,6.8v28.7c-12.1-6.4-22.5-9.2-34.8-9.2c-20.9,0-38,9.4-38,24.5c0,14.9,17.5,24.5,38.4,24.5
	c12.1,0,21.9-2.4,35.4-8.6V93.5"/>
<path id="path2401" class="st2" d="M376.3,8.9c0-2.6,2.1-4.5,4.6-4.5c2.5,0,4.6,1.9,4.6,4.5c0,2.6-2.1,4.6-4.6,4.6
	C378.4,13.4,376.3,11.5,376.3,8.9 M381,12.7c2.1,0,3.7-1.6,3.7-3.8c0-2.2-1.6-3.8-3.7-3.8c-2.1,0-3.7,1.6-3.7,3.8
	C377.2,11.1,378.9,12.7,381,12.7 M380,11.5h-0.8V6.3h2c1.2,0,1.9,0.5,1.9,1.5c0,0.9-0.6,1.3-1.4,1.4l1.5,2.3h-0.9l-1.4-2.3H380V11.5
	l1-2.9c0.7,0,1.3,0,1.3-0.9c0-0.7-0.6-0.8-1.2-0.8H380v1.6h1L380,11.5"/>
<path id="path59" class="st2" d="M1.1,155.7v-32.3h4.1v28.7h11.9v3.6H1.1"/>
<path id="path61" class="st2" d="M24.5,142.8c0-6.2,2-7.3,4.3-7.3c2.7,0,4.5,0.8,4.5,7.3H24.5 M37.2,145.5v-1.9c0-7.4-1.6-11-8.1-11
	c-7.8,0-8.6,5.4-8.6,12c0,10,3.8,11.4,8.6,11.4c4.7,0,7.8-2.3,7.8-7.3h-4c-0.1,2.3-1.4,4.3-3.9,4.3c-2.9,0-4.5-1.3-4.5-7.6H37.2"/>
<path id="path63" class="st2" d="M54.9,144.3c0,3.1,0.1,8.4-4.3,8.4c-2.7,0-4.4-1.7-4.4-8.9c0-3,0.1-8,4.3-8
	C55.1,135.7,54.9,140.9,54.9,144.3 M54.8,135.9L54.8,135.9c-1.1-2.2-3-3.2-5.4-3.2c-1.8,0-7.1,0.7-7.1,11c0,6.7,1.2,12,7.3,12
	c2,0,4-1,5-2.8h0.1v4.7c0,2.3-1.4,3.9-4,3.9c-2,0-3.4-1.2-3.5-3.3h-4.1c-0.3,4.2,3.1,6,6.9,6c5,0,8.3-1.2,8.3-6.3v-24.8h-3.7V135.9"
	/>
<path id="path65" class="st2" d="M67.6,142.8c0-6.2,2-7.3,4.3-7.3c2.7,0,4.5,0.8,4.5,7.3H67.6 M80.3,145.5v-1.9c0-7.4-1.6-11-8.1-11
	c-7.8,0-8.6,5.4-8.6,12c0,10,3.8,11.4,8.6,11.4c4.7,0,7.8-2.3,7.8-7.3h-4c-0.1,2.3-1.4,4.3-3.9,4.3c-2.9,0-4.5-1.3-4.5-7.6H80.3"/>
<path id="path67" class="st2" d="M98.6,155.7V140c0-2.4-0.8-4.4-4-4.4c-4,0-4.6,3.6-4.6,6.7v13.4h-3.7v-17.9c0-1.6-0.1-3.1-0.2-4.7
	h3.9v2.9h0.2c1.4-2.5,3.1-3.3,6-3.3c4.8,0,6,2.9,6,7.4v15.7H98.6"/>
<path id="path69" class="st2" d="M120.7,143.5c0,4.6,0,9.7-4.1,9.7c-4.6,0-4.6-4.9-4.6-8.3c0-6.1,0.5-9.2,4.5-9.2
	C120.5,135.6,120.7,140.5,120.7,143.5 M120.7,135.3h-0.1c-1.3-1.8-2.8-2.7-5-2.7c-7.3,0-7.5,6.5-7.5,12.1c0,9.9,3.7,11.3,7.3,11.3
	c2.4,0,3.9-1,5.2-3.1h0.1v2.7h3.7v-32.3h-3.7V135.3"/>
<path id="path71" class="st2" d="M142.2,144.4c0.4,7.3-2.4,8.7-4.7,8.7c-2.5,0-3.5-2-3.5-4.2C134,144.1,138.7,144.5,142.2,144.4
	 M142.3,155.7h4c-0.3-1.7-0.4-3.6-0.4-5.4v-10.9c0-3.8-1.5-6.8-7.3-6.8c-4.8,0-7.5,1.7-7.7,6.8h4c-0.2-2.3,1.1-4,3.5-4
	c3.9,0,3.9,3.2,3.8,6.2c-5.2-0.1-11.9,0.2-11.9,7c0,4.4,1.4,7.4,6.2,7.4c2.8,0,4.6-1.1,5.7-3.7h0.1V155.7"/>
<path id="path73" class="st2" d="M155.3,136.5L155.3,136.5c1.6-3.5,3.5-3.9,7.1-3.9v3.8c-0.3,0-0.7-0.1-1-0.2c-0.3,0-0.6-0.1-1-0.1
	c-4.1,0-5.1,3.1-5.1,6.1v13.3h-3.7v-22.6h3.7V136.5"/>
<path id="path75" class="st2" d="M175.1,151.5L175.1,151.5l5.5-18.4h4l-10.2,31.1h-3.8l2.5-8.5l-7.6-22.6h4.2L175.1,151.5"/>
<path id="path77" class="st2" d="M204,127h6.2c3.2,0,4.3,2.6,4.3,4.9c0,2.8-1.4,5.4-4.4,5.4H204V127 M208.8,140.8
	c1.4,0,4.6,0.2,4.9,4.1c0.4,4.3,0.1,8.5,1.3,10.7h4.3c-0.6-2-1.1-7.1-1.1-8.4c-0.2-6.5-1.6-7.7-5.3-8.3v-0.1
	c3.8-0.7,5.9-3.6,5.9-7.4c0-4-2-8-7.7-8h-11.1v32.3h4.1v-14.8H208.8"/>
<path id="path79" class="st2" d="M228,142.8c0-6.2,2-7.3,4.3-7.3c2.7,0,4.5,0.8,4.5,7.3H228 M240.7,145.5v-1.9c0-7.4-1.6-11-8.1-11
	c-7.8,0-8.6,5.4-8.6,12c0,10,3.8,11.4,8.6,11.4c4.7,0,7.8-2.3,7.8-7.3h-4c-0.1,2.3-1.4,4.3-3.9,4.3c-2.9,0-4.5-1.3-4.5-7.6H240.7"/>
<path id="path81" class="st2" d="M250.3,155.7h-3.7v-32.3h3.7V155.7"/>
<path id="path83" class="st2" d="M260.3,155.7h-3.7v-22.6h3.7V155.7 M256.3,123.4h4.1v3.9h-4.1V123.4"/>
<path id="path85" class="st2" d="M278.1,144.4c0.4,7.3-2.4,8.7-4.7,8.7c-2.5,0-3.5-2-3.5-4.2C269.9,144.1,274.6,144.5,278.1,144.4
	 M278.2,155.7h4c-0.3-1.7-0.4-3.6-0.4-5.4v-10.9c0-3.8-1.5-6.8-7.3-6.8c-4.8,0-7.5,1.7-7.7,6.8h4c-0.2-2.3,1.1-4,3.5-4
	c3.9,0,3.9,3.2,3.8,6.2c-5.2-0.1-11.9,0.2-11.9,7c0,4.4,1.4,7.4,6.2,7.4c2.8,0,4.6-1.1,5.7-3.7h0.1V155.7"/>
<path id="path87" class="st2" d="M290.9,143.5c0-3,0.2-7.8,4.3-7.8c3.9,0,4.5,3.1,4.5,9.2c0,3.4,0,8.3-4.6,8.3
	C290.5,153.1,290.9,146.9,290.9,143.5 M290.9,153L290.9,153c1.3,2.1,2.9,3.1,5.3,3.1c3.6,0,7.3-1.4,7.3-11.3
	c0-5.6-0.2-12.1-7.5-12.1c-2.1,0-3.7,0.9-5,2.7h-0.1v-11.9h-3.7v32.3h3.7V153"/>
<path id="path89" class="st2" d="M312.8,155.7h-3.7v-22.6h3.7V155.7 M308.9,123.4h4.1v3.9h-4.1V123.4"/>
<path id="path91" class="st2" d="M322.8,155.7h-3.7v-32.3h3.7V155.7"/>
<path id="path93" class="st2" d="M332.7,155.7H329v-22.6h3.7V155.7 M328.8,123.4h4.1v3.9h-4.1V123.4"/>
<path id="path95" class="st2" d="M340.8,133.1v-4.3l3.7-1.7v6h4.9v2.8h-4.9v13.8c0,1.4,0,3.3,3.4,3.3c0.3,0,0.8-0.1,1.7-0.2v2.8
	c-1.2,0.1-2.4,0.4-3.6,0.4c-3.5,0-5.1-1.4-5.1-4v-16.1H337v-2.8H340.8"/>
<path id="path97" class="st2" d="M361.8,151.5L361.8,151.5l5.5-18.4h4l-10.2,31.1h-3.8l2.5-8.5l-7.6-22.6h4.2L361.8,151.5"/>
<path id="path2423" class="st2" d="M386.8,132.1h-1.2v-5.7h0l-2,5.7h-1l-1.9-5.7h0v5.7h-1.2v-7.2h1.9l1.8,5.4h0l1.8-5.4h1.8V132.1
	 M378.7,124.9v0.9h-2v6.3h-1.2v-6.3h-2v-0.9H378.7"/>
</svg>
