<?xml version="1.0" encoding="utf-8"?>
<!-- Generator: Adobe Illustrator 24.2.0, SVG Export Plug-In . SVG Version: 6.00 Build 0)  -->
<svg version="1.1" id="Layer_1" xmlns="http://www.w3.org/2000/svg" xmlns:xlink="http://www.w3.org/1999/xlink" x="0px" y="0px"
	 viewBox="0 0 150 150" style="enable-background:new 0 0 150 150;" xml:space="preserve">
<style type="text/css">
	.st0{fill-rule:evenodd;clip-rule:evenodd;fill:#00949C;}
	.st1{fill:#00949C;}
</style>
<g>
	<path class="st0" d="M28,65.6c0,23.1,31.7,31.6,47.4,8.2C91.6,98.1,122,87.9,122,65.6s-30.3-33.1-46.6-8.1
		C59.8,32.8,28,42.6,28,65.6L28,65.6z M36.3,65.6c0-16.6,23.5-21.9,34.4,0C59.6,86.7,36.3,82.3,36.3,65.6L36.3,65.6z M79.9,65.6
		c9.9-22.3,34-16.2,33.9,0S89.5,86.9,79.9,65.6z"/>
	<rect x="45.2" y="63.3" class="st0" width="14" height="4.6"/>
	<polygon class="st0" points="95.8,67.8 91.2,67.8 91.2,62.9 95.8,62.9 95.8,58.3 100.7,58.3 100.7,62.9 105.3,62.9 105.3,67.8 
		100.7,67.8 100.7,72.4 95.8,72.4 	"/>
	<path class="st1" d="M117.5,47.4v-2.1h-0.6v-0.4h1.5v0.4h-0.6v2.1H117.5L117.5,47.4z M118.7,47.4v-2.5h0.6l0.3,1.7l0.3-1.7h0.6v2.5
		h-0.4v-2l-0.4,2h-0.4l-0.4-2v2H118.7z"/>
	<path class="st0" d="M67.8,100.4c0,4.5-2.3,6.7-6.8,6.6h-3.8v-6.6v-6.6H61C65.5,93.6,67.9,95.8,67.8,100.4L67.8,100.4z M64.6,100.4
		c0-2.6-1.3-3.8-4.1-3.7v3.7v3.7C63.3,104.2,64.6,102.9,64.6,100.4z"/>
	<path class="st0" d="M75.4,106.9c-3.7,0-5.1-1.2-5.3-4.3v-8.8h3.4v8.6c-0.1,1.4,0.6,2,1.9,2c1.3,0,2-0.6,1.9-2v-8.6h3.4v8.8
		C80.5,105.7,79.1,106.9,75.4,106.9z"/>
	<polygon class="st0" points="88.2,93.8 83.2,93.8 83.2,96.6 86.5,96.6 86.5,100.4 86.5,104.1 83.2,104.1 83.2,106.9 88.2,106.9 
		93.1,106.9 93.1,104.1 89.8,104.1 89.8,100.4 89.8,96.6 93.1,96.6 93.1,93.8 	"/>
	<polygon class="st0" points="102.7,100.4 99.1,93.8 95.5,93.8 95.5,106.9 98.7,106.9 98.7,99 99.5,100.4 103,107 106.6,107 
		106.6,93.8 103.5,93.8 103.5,101.7 	"/>
	<path class="st0" d="M113.8,96.5c-1.9,0-2,1.7-2,3.8c0,2.2,0.2,3.8,2,3.8c1.9,0,2-1.7,2-3.8C115.8,98.2,115.7,96.5,113.8,96.5
		L113.8,96.5z M113.8,106.9c-3.8,0-5.6-2.1-5.6-6.6c0-4.5,1.8-6.6,5.6-6.6c3.8,0,5.5,2.1,5.5,6.6
		C119.3,104.8,117.6,106.9,113.8,106.9z"/>
	<path class="st0" d="M42.8,106.9l-4.4-13.1h-3.5l-4.4,13.1h3.8l0.7-2.8h3.5l0.8,2.8H42.8L42.8,106.9z M37.7,101.6h-2.2l1.1-4.1
		L37.7,101.6z"/>
	<path class="st0" d="M44.6,93.8v13.1h3.3v-4.1h1.4l2.4,4.1h3.8l-3-4.9c3.5-1.5,3.6-8.3-2.7-8.3H44.6L44.6,93.8z M47.9,100.3v-3.6
		l1.6,0c3,0,2,3.6,0,3.6L47.9,100.3z"/>
</g>
</svg>
