<svg width="2500" height="2207" viewBox="0 0 256 226" xmlns="http://www.w3.org/2000/svg" preserveAspectRatio="xMidYMid"><path d="M155.894 58.366h-55.832l27.961 48.147 27.87-48.147M94.613 61.48l-27.889 48.232h55.845L94.613 61.48M122.568 115.98H66.722l27.89 48.266 27.956-48.266M61.363 119.1l-28.049 48.22H89.24L61.363 119.1M161.26 61.48l-27.865 48.232h55.835L161.26 61.48M189.232 115.98h-55.839l27.868 48.266 27.971-48.266M128.022 3.795l-27.958 48.302h55.829l-27.87-48.302M89.241 173.6H33.314l28.05 48.582L89.241 173.6M194.598 119.1l-27.95 48.22h55.909l-27.959-48.22M222.559 173.6H166.65l27.95 48.582 27.959-48.582" fill="#63C4B1"/><path d="M128.022 119.1l-27.958 48.22h55.829l-27.87-48.22M89.241 58.366H33.314l28.05 48.147 27.877-48.147M.066 109.711h55.826L27.942 61.48.066 109.711M27.942 164.247l27.95-48.266H.066l27.876 48.266M227.919 61.48l-27.859 48.232h55.817L227.919 61.48M255.88 115.98h-55.821l27.862 48.266 27.958-48.266M189.232.67h-55.839l27.868 48.177L189.232.669M155.894 173.6H99.973l28.05 48.582 27.87-48.582M161.26 176.709l-27.865 48.652h55.835l-27.97-48.652M122.568.67H66.722l27.89 48.177L122.567.669M61.363 3.795L33.314 52.097H89.24L61.363 3.795M194.598 3.795l-27.95 48.302h55.909L194.598 3.795M222.559 58.366H166.65l27.95 48.147 27.959-48.147M94.613 176.709L66.724 225.36h55.845l-27.956-48.652" fill="#FFF"/></svg>