<?xml version="1.0" encoding="utf-8"?>
<!-- Generator: Adobe Illustrator 24.2.0, SVG Export Plug-In . SVG Version: 6.00 Build 0)  -->
<svg version="1.1" id="Layer_1" xmlns="http://www.w3.org/2000/svg" xmlns:xlink="http://www.w3.org/1999/xlink" x="0px" y="0px"
	 viewBox="0 0 864 865" style="enable-background:new 0 0 864 865;" xml:space="preserve">
<style type="text/css">
	.st0{fill:#FFFFFF;}
</style>
<g transform="translate(0.000000,865.000000) scale(0.100000,-0.100000)">
	<path class="st0" d="M4022,7909c-1014-90-1923-583-2544-1380C602,5404,476,3846,1161,2598C1766,1496,2912,779,4148,731
		c633-24,1186,87,1727,348c621,300,1129,754,1498,1341c99,156,261,485,321,650c256,705,293,1438,109,2155
		c-345,1351-1482,2402-2853,2640C4690,7910,4262,7931,4022,7909z M4725,7336c459-73,844-213,1195-433c1050-658,1598-1861,1399-3073
		c-172-1047-895-1942-1884-2333c-313-124-639-194-992-213c-146-7-183,0-201,42c-23,49-4,67,152,142c320,155,567,331,801,573
		c203,210,368,445,495,703c294,601,362,1242,203,1911c-85,360-272,672-532,889c-496,413-1158,501-1731,230
		c-597-282-972-935-910-1584c21-220,63-376,154-566c189-395,519-685,936-825c354-118,760-106,1112,33l79,31l27-20
		c46-34,41-68-24-159c-333-464-814-762-1355-839c-138-19-403-19-538,1c-543,79-1005,361-1324,807c-200,278-369,687-447,1077
		c-46,229-55,333-55,605c1,210,4,275,24,405c104,689,407,1284,902,1766c489,475,1112,765,1814,844C4150,7364,4608,7355,4725,7336z
		 M4496,5355c348-61,650-298,785-616c60-141,82-248,82-409c1-163-11-232-66-378c-114-304-376-546-689-636c-371-107-765-2-1034,276
		c-124,127-195,243-248,403c-88,262-68,537,58,790C3592,5203,4042,5434,4496,5355z"/>
</g>
</svg>
