<?xml version="1.0" standalone="no"?>
<!DOCTYPE svg PUBLIC "-//W3C//DTD SVG 20010904//EN"
 "http://www.w3.org/TR/2001/REC-SVG-20010904/DTD/svg10.dtd">
<svg version="1.0" xmlns="http://www.w3.org/2000/svg"
 width="864.000000pt" height="865.000000pt" viewBox="0 0 864.000000 865.000000"
 preserveAspectRatio="xMidYMid meet">

<g transform="translate(0.000000,865.000000) scale(0.100000,-0.100000)"
fill="#000000" stroke="none">
<path d="M4022 7909 c-1014 -90 -1923 -583 -2544 -1380 -876 -1125 -1002
-2683 -317 -3931 605 -1102 1751 -1819 2987 -1867 633 -24 1186 87 1727 348
621 300 1129 754 1498 1341 99 156 261 485 321 650 256 705 293 1438 109 2155
-345 1351 -1482 2402 -2853 2640 -260 45 -688 66 -928 44z m703 -573 c459 -73
844 -213 1195 -433 1050 -658 1598 -1861 1399 -3073 -172 -1047 -895 -1942
-1884 -2333 -313 -124 -639 -194 -992 -213 -146 -7 -183 0 -201 42 -23 49 -4
67 152 142 320 155 567 331 801 573 203 210 368 445 495 703 294 601 362 1242
203 1911 -85 360 -272 672 -532 889 -496 413 -1158 501 -1731 230 -597 -282
-972 -935 -910 -1584 21 -220 63 -376 154 -566 189 -395 519 -685 936 -825
354 -118 760 -106 1112 33 l79 31 27 -20 c46 -34 41 -68 -24 -159 -333 -464
-814 -762 -1355 -839 -138 -19 -403 -19 -538 1 -543 79 -1005 361 -1324 807
-200 278 -369 687 -447 1077 -46 229 -55 333 -55 605 1 210 4 275 24 405 104
689 407 1284 902 1766 489 475 1112 765 1814 844 125 14 583 5 700 -14z m-229
-1981 c348 -61 650 -298 785 -616 60 -141 82 -248 82 -409 1 -163 -11 -232
-66 -378 -114 -304 -376 -546 -689 -636 -371 -107 -765 -2 -1034 276 -124 127
-195 243 -248 403 -88 262 -68 537 58 790 208 418 658 649 1112 570z"/>
</g>
</svg>
