<?xml version="1.0" encoding="utf-8"?>
<!-- Generator: Adobe Illustrator 24.2.0, SVG Export Plug-In . SVG Version: 6.00 Build 0)  -->
<svg version="1.1"
	 id="svg3023" xmlns:cc="http://creativecommons.org/ns#" xmlns:dc="http://purl.org/dc/elements/1.1/" xmlns:inkscape="http://www.inkscape.org/namespaces/inkscape" xmlns:rdf="http://www.w3.org/1999/02/22-rdf-syntax-ns#" xmlns:sodipodi="http://sodipodi.sourceforge.net/DTD/sodipodi-0.dtd" xmlns:svg="http://www.w3.org/2000/svg"
	 xmlns="http://www.w3.org/2000/svg" xmlns:xlink="http://www.w3.org/1999/xlink" x="0px" y="0px" viewBox="0 0 120 60"
	 style="enable-background:new 0 0 120 60;" xml:space="preserve">
<style type="text/css">
	.st0{fill:#F0424D;}
	.st1{fill:#FFFFFF;}
</style>
<sodipodi:namedview  bordercolor="#666666" borderopacity="1" gridtolerance="10" guidetolerance="10" id="namedview18" inkscape:current-layer="svg3023" inkscape:cx="41.612271" inkscape:cy="44.097757" inkscape:pageopacity="0" inkscape:pageshadow="2" inkscape:window-height="1001" inkscape:window-maximized="1" inkscape:window-width="1920" inkscape:window-x="-9" inkscape:window-y="-9" inkscape:zoom="6.0479872" objecttolerance="10" pagecolor="#ffffff" showgrid="false">
	</sodipodi:namedview>
<g id="g902" transform="translate(-0.25876243)">
	<g id="g865" transform="matrix(0.33064449,0,0,0.33064449,1.2346441,60.006191)">
		<path id="path3043" inkscape:connector-curvature="0" class="st0" d="M127.6-38.8c-4.7-2.5-7.3-5.3-7.9-8.3c-0.6-2.9,0.7-6.2,4-10
			c7.8-9,12.1-20.5,12.1-32.4c0-27.3-22.2-49.4-49.4-49.4c0,0-0.2,0-0.2,0s-0.2,0-0.2,0c-27.3,0-49.4,22.2-49.4,49.4
			c0,12,4.3,23.5,12.1,32.4c3.3,3.8,4.6,7,4,9.9c-0.6,3-3.2,5.9-7.9,8.4c-7.2-6-13.6-14-17.5-22.1c-2.1-4.4-3.8-9-4.9-13.7
			c-1.1-4.9-1.7-9.9-1.7-14.9c0-8.8,1.7-17.4,5.1-25.4c3.3-7.8,8-14.8,14-20.8c6-6,13-10.7,20.8-14c8.1-3.4,16.6-5.1,25.4-5.1
			c0,0,0.2,0,0.2,0s0.2,0,0.2,0c8.8,0,17.4,1.7,25.4,5.1c7.8,3.3,14.8,8,20.8,14c6,6,10.7,13,14,20.8c3.4,8.1,5.1,16.6,5.1,25.4
			c0,5-0.6,10.1-1.7,14.9c-1.1,4.7-2.8,9.4-4.9,13.7C141.2-52.9,134.8-44.8,127.6-38.8"/>
		<path id="path3045" inkscape:connector-curvature="0" class="st0" d="M103.5-26.6c-0.8-0.5-3.4-2.4-5.9-5.9
			c-2.4-3.3-5.3-8.9-5.1-16.3c0.1-4.5,1-8.8,2.7-13c1.7-4.1,4.1-7.8,7.1-11.1l0,0c0.2-0.3,0.4-0.5,0.7-0.8c1.2-1.3,2.3-2.7,3.3-4.3
			c1.2-2,2-4.1,2.5-6.2c0.8-3.3,0.8-6.8,0.1-10.1c-0.6-3-1.9-6-3.8-8.6c-1.8-2.5-4-4.6-6.6-6.2c-2.7-1.7-5.8-2.8-8.9-3.2
			c-1.1-0.2-2.2-0.2-3.3-0.2c-0.1,0-0.2,0-0.2,0c-0.1,0-0.2,0-0.2,0c-1.1,0-2.2,0.1-3.3,0.2c-3.1,0.4-6.2,1.6-8.9,3.2
			c-2.6,1.6-4.9,3.8-6.6,6.2c-1.8,2.5-3.1,5.5-3.7,8.6c-0.7,3.3-0.7,6.8,0.1,10.1C64-82.1,64.9-80,66-78c1,1.6,2.1,3,3.3,4.3
			c0.2,0.3,0.4,0.5,0.7,0.8l0,0c3.1,3.3,5.4,7,7.1,11.1c1.7,4.1,2.6,8.5,2.7,13c0.2,7.4-2.7,13-5.1,16.3c-2.5,3.5-5.1,5.4-5.9,5.9
			c-1.3-0.3-2.5-0.7-3.8-1.1c-3.8-1.3-7.4-2.9-10.9-4.8c6-3.2,9.8-9.5,9.8-16.3c0-4.5-1.8-8.9-5.2-12.9c-0.1-0.1-0.1-0.1-0.1-0.2
			c0,0,0,0,0,0c-0.3-0.4-0.7-0.7-1-1.1c-1-1.1-1.9-2.1-2.8-3.3c-3.1-4.2-5.5-9.1-6.7-14.3c-1.3-5.6-1.4-11.5-0.2-17.1
			c1.1-5.2,3.3-10.2,6.3-14.5c3-4.2,6.8-7.8,11.2-10.5c4.5-2.8,9.8-4.7,15.1-5.5c1.8-0.3,3.6-0.4,5.5-0.4c0.1,0,0.3,0,0.3,0
			c0.1,0,0.2,0,0.2,0c1.8,0,3.7,0.1,5.5,0.4c5.3,0.8,10.5,2.7,15.1,5.5c4.3,2.7,8.2,6.3,11.2,10.5c3.1,4.3,5.3,9.3,6.3,14.5
			c1.2,5.6,1.1,11.5-0.2,17.1c-1.2,5.1-3.5,10-6.7,14.3c-0.8,1.1-1.8,2.2-2.8,3.3c-0.3,0.4-0.7,0.7-1,1.1c0,0,0,0,0,0
			c0,0-0.1,0.1-0.1,0.2c-3.5,4.2-5.2,8.4-5.2,12.9c0,6.8,3.8,13.1,9.8,16.3c-3.5,1.9-7.1,3.5-10.9,4.8
			C106-27.3,104.7-26.9,103.5-26.6"/>
		<path id="path3047" inkscape:connector-curvature="0" class="st0" d="M86.1-76c-7.1,0-12.9-5.8-12.9-12.9
			c0-7.1,5.8-12.9,12.9-12.9c7.1,0,12.9,5.8,12.9,12.9C99-81.8,93.2-76,86.1-76"/>
	</g>
	<g id="g871" transform="matrix(0.35321658,0,0,0.35321658,57.444327,19.680484)">
		<path id="path3049" inkscape:connector-curvature="0" class="st1" d="M35.5,37c0,8.5-0.8,10.8-2.8,12.9c-1.2,1.2-3.1,2-6.7,2H13.5
			c-4,0-6.4-0.7-8.1-2.3C2.8,47,2,43.8,2,31.5C2,19.2,2.8,16,5.4,13.4c1.7-1.7,4.1-2.3,8.1-2.3H26c3.7,0,5.4,0.8,6.7,2
			c2,2,2.7,4.7,2.7,12.4h-7.7c-0.2-5.3-0.5-6.2-0.9-6.7c-0.5-0.5-1.1-0.7-2.8-0.7h-9.5c-2.3,0-3,0.2-3.5,0.8
			c-0.8,0.8-1.1,2.2-1.1,12.7c0,10.5,0.4,11.9,1.1,12.7c0.5,0.5,1.1,0.8,3.5,0.8h9.6c1.7,0,2.4-0.2,3-0.7c0.5-0.5,0.8-2,0.8-7.2
			H35.5"/>
		<path id="path3051" inkscape:connector-curvature="0" class="st1" d="M48.9,27.8h18.6c0-6.9-0.5-8.4-1.1-9.1
			c-0.5-0.5-1.1-0.8-3.5-0.8h-9.4c-2.3,0-3,0.2-3.6,0.8C49.2,19.4,48.9,20.8,48.9,27.8z M48.9,34.1c0.1,8,0.5,9.6,1.1,10.2
			c0.6,0.6,1.1,0.8,3.5,0.8h10.6c1.7,0,2.3-0.3,2.7-0.8c0.5-0.5,0.7-1.4,0.8-5.1h7.7c-0.2,6.4-0.8,8.6-2.8,10.7c-1.3,1.3-3,2-6.7,2
			H52.6c-4,0-6.4-0.7-8.1-2.3c-2.7-2.7-3.4-5.8-3.4-18.1c0-12.3,0.8-15.5,3.4-18.1c1.7-1.7,4.1-2.3,8.1-2.3h11.2
			c4,0,6.6,0.8,8.1,2.3c2.7,2.7,3.4,5.8,3.4,17.8v2c0,0.6-0.2,0.9-0.9,0.9L48.9,34.1"/>
		<path id="path3053" inkscape:connector-curvature="0" class="st1" d="M106.2,44c-0.7,0.7-1.7,1-4.2,1h-5.9c-2.4,0-4.5-0.7-7.4-2.2
			c-0.2-0.1-0.3-0.2-0.5-0.3V20.3c3-1.5,5.2-2.3,7.7-2.3h6.2c2.5,0,3.5,0.3,4.2,1c1.1,1.1,1.4,3.3,1.4,12.5
			C107.6,40.7,107.3,42.9,106.2,44z M103.9,10.9h-5.5c-3.4,0-5.1,0.8-10.2,5V11h-7.9v50c2.8,0,7.9,0,7.9,0V47.1
			C93.3,51.3,95,52,98.4,52h5.5c4.4,0,6.6-0.8,8.3-2.5c2.2-2.2,3.3-5.3,3.3-18c0-12.7-1.1-15.8-3.3-18
			C110.5,11.7,108.3,10.9,103.9,10.9"/>
		<path id="path3055" inkscape:connector-curvature="0" class="st1" d="M153.4,13.3c-1.5-1.5-3.5-2.4-7.1-2.4h-6.4
			c-3.4,0-5.1,0.8-10.2,5V0.4c-2.4-1.3-5-2.3-7.8-2.9c0,0,0,0-0.1,0V52h7.9V20.3c0.6-0.3,1.1-0.5,1.6-0.8c2.2-1,4-1.5,6-1.5h5.3
			c2.7,0,3.4,0.3,4.2,1.1c0.8,0.8,1.1,2,1.1,3.9V52h7.9V22.6C155.8,16.9,155,14.9,153.4,13.3"/>
	</g>
</g>
</svg>
