<?xml version="1.0" encoding="UTF-8" standalone="no"?>
<!-- Created with Inkscape (http://www.inkscape.org/) -->

<svg
   xmlns:dc="http://purl.org/dc/elements/1.1/"
   xmlns:cc="http://creativecommons.org/ns#"
   xmlns:rdf="http://www.w3.org/1999/02/22-rdf-syntax-ns#"
   xmlns:svg="http://www.w3.org/2000/svg"
   xmlns="http://www.w3.org/2000/svg"
   xmlns:sodipodi="http://sodipodi.sourceforge.net/DTD/sodipodi-0.dtd"
   xmlns:inkscape="http://www.inkscape.org/namespaces/inkscape"
   version="1.1"
   width="120"
   height="60"
   viewBox="-3.22 -4.4 125.19853 62.191516"
   id="svg3023"
   xml:space="preserve"
   sodipodi:docname="ceph-ar21.svg"
   inkscape:version="0.92.3 (2405546, 2018-03-11)"><sodipodi:namedview
     pagecolor="#ffffff"
     bordercolor="#666666"
     borderopacity="1"
     objecttolerance="10"
     gridtolerance="10"
     guidetolerance="10"
     inkscape:pageopacity="0"
     inkscape:pageshadow="2"
     inkscape:window-width="1920"
     inkscape:window-height="1001"
     id="namedview18"
     showgrid="false"
     inkscape:zoom="6.0479872"
     inkscape:cx="41.612271"
     inkscape:cy="44.097757"
     inkscape:window-x="-9"
     inkscape:window-y="-9"
     inkscape:window-maximized="1"
     inkscape:current-layer="svg3023" /><metadata
     id="metadata3029"><rdf:RDF><cc:Work
         rdf:about=""><dc:format>image/svg+xml</dc:format><dc:type
           rdf:resource="http://purl.org/dc/dcmitype/StillImage" /><dc:title></dc:title></cc:Work></rdf:RDF></metadata><defs
     id="defs3027"><clipPath
       id="clipPath3039"><path
         d="M 0,1765.9 V 0 h 1283.94 v 1765.9 z"
         id="path3041"
         inkscape:connector-curvature="0" /></clipPath></defs><g
     id="g902"
     transform="translate(-0.25876243)"><g
       transform="matrix(0.33064449,0,0,0.33064449,1.2346441,60.006191)"
       id="g865"><path
         d="m 123.48438,-46.545326 c -4.86675,-2.589375 -7.64651,-5.507875 -8.26176,-8.67675 -0.59325,-3.068375 0.77538,-6.481 4.1885,-10.436125 8.15638,-9.357625 12.64888,-21.378875 12.64888,-33.851375 0,-28.442504 -23.141,-51.586254 -51.586375,-51.586254 -0.04637,0 -0.2275,0.002 -0.2275,0.002 0,0 -0.185625,-0.002 -0.234375,-0.002 -28.446375,0 -51.584,23.14375 -51.584,51.586254 0,12.4725 4.491625,24.49375 12.650875,33.855375 3.4385,3.981375 4.774375,7.255875 4.204125,10.296375 -0.591875,3.1655 -3.378,6.1245 -8.287625,8.8085 -7.527875,-6.274375 -14.184625,-14.657125 -18.291,-23.064875 -2.227125,-4.562875 -3.941375,-9.381625 -5.09725,-14.321625 -1.189888,-5.0775 -1.786075,-10.3175 -1.786075,-15.57375 0,-9.198754 1.799825,-18.133754 5.35695,-26.547504 3.438,-8.1175 8.352,-15.4125 14.61625,-21.67125 6.25725,-6.2625 13.55175,-11.17625 21.671875,-14.6125 8.412,-3.5575 17.34225,-5.36 26.545875,-5.36 0.04875,0 0.2275,0 0.2275,0 0,0 0.188,0 0.234375,0 9.203625,0 18.13525,1.8025 26.548375,5.36 8.11762,3.43625 15.41162,8.35 21.67175,14.6125 6.25875,6.25875 11.1775,13.55375 14.61375,21.67125 3.5575,8.41375 5.36125,17.34875 5.36125,26.547504 0,5.25625 -0.6025,10.49625 -1.78875,15.57375 -1.155,4.94 -2.87,9.75875 -5.1,14.321625 -4.10625,8.411125 -10.7575,16.793 -18.29562,23.068875"
         id="path3043"
         style="fill:#f0424d;fill-opacity:1;fill-rule:nonzero;stroke:none;stroke-width:0.125"
         inkscape:connector-curvature="0" /><path
         d="m 98.32225,-33.787076 c -0.7925,-0.4985 -3.5,-2.512625 -6.139125,-6.168875 -2.53175,-3.49375 -5.51075,-9.289625 -5.355,-17.051375 0.09762,-4.671375 1.034125,-9.220125 2.789125,-13.514625 1.742125,-4.257625 4.240625,-8.158875 7.42325,-11.591375 l 0.0195,-0.02625 c 0.234375,-0.2725 0.466375,-0.54375 0.703125,-0.8125 1.20125,-1.39375 2.442495,-2.8325 3.432625,-4.51625 1.22075,-2.07 2.10937,-4.245 2.63775,-6.47 0.813,-3.43625 0.86087,-7.083754 0.13325,-10.543754 -0.67138,-3.18125 -2.02388,-6.26375 -3.9125,-8.92125 -1.829625,-2.575 -4.2125,-4.82125 -6.894625,-6.49375 -2.795375,-1.74625 -6.00675,-2.915 -9.27775,-3.37875 -1.1075,-0.15875 -2.248625,-0.24 -3.395,-0.24 -0.07863,0 -0.166625,0 -0.245625,0 -0.07862,0 -0.16025,0 -0.24375,0 -1.144,0 -2.2875,0.0812 -3.3915,0.24 -3.269125,0.46375 -6.48,1.6325 -9.278375,3.37875 -2.681625,1.6725 -5.069375,3.91875 -6.8975,6.49375 -1.888125,2.6575 -3.234375,5.74 -3.911625,8.92125 -0.7255,3.46 -0.681625,7.107504 0.13725,10.543754 0.526375,2.225 1.415,4.4 2.63325,6.47 0.995125,1.68375 2.2345,3.1225 3.436125,4.51625 0.23625,0.26875 0.46625,0.54 0.705,0.8125 l 0.01425,0.02625 c 3.188,3.4325 5.684,7.33375 7.42625,11.591375 1.753875,4.2945 2.693875,8.84325 2.786625,13.514625 0.15775,7.76175 -2.82175,13.557625 -5.350625,17.051375 -2.6445,3.65625 -5.349625,5.670375 -6.143,6.168875 -1.327625,-0.355 -2.651875,-0.753875 -3.953625,-1.189875 -3.9185,-1.314 -7.734875,-2.995125 -11.361375,-5.007875 6.234375,-3.354 10.19675,-9.901875 10.19675,-17.038125 0,-4.722125 -1.835375,-9.251875 -5.454125,-13.457 -0.05363,-0.064 -0.109375,-0.11575 -0.150875,-0.15775 -0.0073,-0.01062 -0.019,-0.017 -0.02775,-0.02875 -0.3555,-0.3955 -0.7075,-0.78175 -1.05375,-1.15775 -1.0395,-1.141625 -2.024875,-2.220375 -2.90475,-3.401625 -3.28325,-4.385 -5.6885,-9.5275 -6.958,-14.86875 -1.379875,-5.8075 -1.457125,-11.967504 -0.224625,-17.813754 1.13425,-5.39 3.42675,-10.6175 6.621125,-15.115 3.09025,-4.35125 7.118125,-8.14375 11.646875,-10.9675 4.744625,-2.96 10.183125,-4.93875 15.725625,-5.72875 1.877,-0.27 3.799875,-0.40125 5.72075,-0.40125 0.081,0 0.2695,0 0.2695,0 0.07913,0 0.162125,0 0.243125,0 1.921375,0 3.849625,0.13125 5.724125,0.40125 5.5445,0.79 10.98,2.76875 15.725125,5.72875 4.52875,2.82375 8.55812,6.61625 11.64887,10.9675 3.19238,4.4975 5.48488,9.725 6.62363,15.115 1.228,5.84625 1.14887,12.006254 -0.22713,17.813754 -1.27287,5.34125 -3.67525,10.48375 -6.96287,14.86875 -0.88138,1.18125 -1.86275,2.26 -2.90625,3.401625 -0.34175,0.376 -0.69238,0.76225 -1.04875,1.15775 -0.0122,0.0092 -0.0205,0.01812 -0.0327,0.02875 -0.0415,0.042 -0.10013,0.09625 -0.15037,0.166125 -3.668,4.389625 -5.45263,8.7905 -5.45263,13.448625 0,7.13625 3.96238,13.684125 10.20363,17.038125 -3.628,2.01275 -7.44488,3.693875 -11.36338,5.007875 -1.30125,0.436 -2.630875,0.834875 -3.9575,1.189875"
         id="path3045"
         style="fill:#f0424d;fill-opacity:1;fill-rule:nonzero;stroke:none;stroke-width:0.125"
         inkscape:connector-curvature="0" /><path
         d="m 80.24125,-85.397076 c -7.421875,0 -13.463375,-6.04 -13.463375,-13.46375 0,-7.425004 6.0415,-13.465004 13.463375,-13.465004 7.421875,0 13.460375,6.04 13.460375,13.465004 0,7.42375 -6.0385,13.46375 -13.460375,13.46375"
         id="path3047"
         style="fill:#f0424d;fill-opacity:1;fill-rule:nonzero;stroke:none;stroke-width:0.125"
         inkscape:connector-curvature="0" /></g><g
       transform="matrix(0.35321658,0,0,0.35321658,57.444327,19.680484)"
       id="g871"><path
         d="m 34.961,28.012799 c 0,8.86025 -0.7935,11.31 -2.92775,13.4477 -1.26475,1.265137 -3.24375,2.133787 -6.963,2.133787 H 12.020025 c -4.1923875,0 -6.7207125,-0.7124 -8.4633875,-2.450187 C 0.791015,38.374049 0,35.051799 0,22.240299 0,9.426799 0.791015,6.103049 3.5566375,3.336424 c 1.742675,-1.73975 4.271,-2.449625 8.4633875,-2.449625 h 12.9736 c 3.872625,0 5.612375,0.787625 6.958,2.13475 2.05525,2.055125 2.848625,4.902875 2.848625,12.888625 H 26.813 C 26.652875,10.374049 26.337375,9.426799 25.861375,8.951674 25.38575,8.478049 24.754375,8.240299 22.9355,8.240299 h -9.887125 c -2.450725,0 -3.083525,0.23775 -3.6362625,0.7915 -0.7910125,0.788625 -1.1875,2.2925 -1.1875,13.2085 0,10.912625 0.3964875,12.4165 1.1875,13.2075 0.5527375,0.55375 1.1855375,0.7915 3.6362625,0.7915 h 9.964375 c 1.741625,0 2.535625,-0.15775 3.085375,-0.711375 0.55475,-0.55525 0.872125,-2.13775 0.872125,-7.515125 H 34.961"
         id="path3049"
         style="fill:#333c46;fill-opacity:1;fill-rule:nonzero;stroke:none;stroke-width:0.125"
         inkscape:connector-curvature="0" /><path
         d="m 48.881375,18.362799 h 19.456 c 0,-7.19625 -0.476,-8.77875 -1.183625,-9.491125 -0.478,-0.473625 -1.1875,-0.788625 -3.637625,-0.788625 h -9.811 c -2.45075,0 -3.0835,0.237375 -3.717375,0.868625 -0.712375,0.713875 -1.025375,2.133875 -1.106375,9.411125 z m 0,6.5665 c 0.081,8.38225 0.55225,10.043375 1.1875,10.67625 0.63375,0.63375 1.1855,0.7925 3.63625,0.7925 h 11.07325 c 1.82075,0 2.375375,-0.3165 2.851,-0.7925 0.549875,-0.55375 0.708,-1.5025 0.870125,-5.298875 h 7.985375 c -0.15725,6.642625 -0.791,9.016125 -2.92775,11.153825 -1.34325,1.344725 -3.162125,2.133787 -6.958,2.133787 H 52.75825 c -4.192875,0 -6.723625,-0.7124 -8.463875,-2.450187 -2.7705,-2.77005 -3.556625,-6.0923 -3.556625,-18.9038 0,-12.8135 0.786125,-16.13725 3.556625,-18.903875 1.74025,-1.73975 4.271,-2.449625 8.463875,-2.449625 h 11.704625 c 4.194375,0 6.881375,0.787625 8.465875,2.370125 2.765125,2.7685 3.556125,6.09225 3.556125,18.588375 v 2.13525 c 0,0.629875 -0.236375,0.94875 -0.95075,0.94875 h -26.65275"
         id="path3051"
         style="fill:#333c46;fill-opacity:1;fill-rule:nonzero;stroke:none;stroke-width:0.125"
         inkscape:connector-curvature="0" /><path
         d="m 108.68112,35.290549 c -0.71037,0.711 -1.74312,1.027375 -4.34812,1.027375 h -6.173375 c -2.53175,0 -4.731375,-0.713875 -7.751375,-2.25 -0.184125,-0.09375 -0.359875,-0.181125 -0.55275,-0.27875 V 10.532799 c 3.165,-1.581125 5.378375,-2.371125 7.99075,-2.371125 h 6.48675 c 2.605,0 3.63775,0.316375 4.34812,1.027375 1.18513,1.185 1.5025,3.4775 1.5025,13.05125 0,9.57275 -0.31737,11.86275 -1.5025,13.05025 z m -2.37687,-34.48775 h -5.76913 c -3.561995,0 -5.301245,0.793875 -10.67962,5.222625 V 0.886799 h -8.224625 v 52.149875 c 2.962375,0 8.224625,0 8.224625,0 v -14.5025 c 5.378375,4.347712 7.117625,5.138725 10.67963,5.138725 h 5.76912 c 4.59225,0 6.88475,-0.791013 8.7035,-2.607413 2.29163,-2.294937 3.401,-5.537562 3.401,-18.825187 0,-13.288625 -1.10937,-16.53375 -3.401,-18.82475 -1.81875,-1.818875 -4.11125,-2.61275 -8.7035,-2.61275"
         id="path3053"
         style="fill:#333c46;fill-opacity:1;fill-rule:nonzero;stroke:none;stroke-width:0.125"
         inkscape:connector-curvature="0" /><path
         d="m 157.95875,3.256924 c -1.5825,-1.5825 -3.6375,-2.454125 -7.35625,-2.454125 h -6.72125 c -3.56,0 -5.29875,0.793875 -10.68,5.222625 v -16.27875 c -2.5525,-1.401375 -5.2175,-2.42875 -8.16625,-3.061125 -0.0212,10e-4 -0.037,0.01375 -0.0589,0.021 v 56.887737 h 8.22512 V 10.532799 c 0.6025,-0.30125 1.165,-0.5635 1.7075,-0.807125 2.30875,-1.036625 4.16875,-1.564 6.28125,-1.564 h 5.5375 c 2.7675,0 3.55875,0.316375 4.42875,1.1875 0.79125,0.79 1.10625,2.05375 1.10625,4.111375 v 30.133737 h 8.23 V 12.906799 c 0,-5.932625 -0.8725,-7.98875 -2.53375,-9.649875"
         id="path3055"
         style="fill:#333c46;fill-opacity:1;fill-rule:nonzero;stroke:none;stroke-width:0.125"
         inkscape:connector-curvature="0" /></g></g></svg>