<svg height="144.13" viewBox="0 0 108.758 144.133" width="108.76" xmlns="http://www.w3.org/2000/svg"><path fill="#D70751" d="M60.969 47.645c-1.494.02.281.768 2.232 1.069a19.886 19.886 0 0 0 1.463-1.26c-1.213.297-2.449.304-3.695.191m8.017-1.999c.893-1.229 1.541-2.573 1.77-3.963-.201.99-.736 1.845-1.244 2.749-2.793 1.759-.264-1.044-.002-2.111-3.002 3.783-.414 2.268-.524 3.325m2.963-7.704c.182-2.691-.529-1.839-.768-.814.278.146.499 1.898.768.814M55.301 1.163c.798.142 1.724.252 1.591.443.876-.193 1.073-.367-1.591-.443m1.592.443l-.561.117.523-.048.038-.069"/><path fill="#D70751" d="M81.762 38.962c.09 2.416-.705 3.59-1.424 5.666l-1.293.643c-1.057 2.054.105 1.304-.652 2.937-1.652 1.467-5.006 4.589-6.08 4.875-.785-.017.531-.926.703-1.281-2.209 1.516-1.773 2.276-5.152 3.199l-.098-.221c-8.33 3.92-19.902-3.847-19.75-14.443-.088.672-.253.504-.437.774-.43-5.451 2.518-10.926 7.49-13.165 4.863-2.406 10.564-1.42 14.045 1.829-1.912-2.506-5.721-5.163-10.232-4.917-4.421.072-8.558 2.881-9.938 5.932-2.264 1.425-2.528 5.496-3.514 6.242-1.329 9.76 2.497 13.975 8.97 18.936 1.016.686.286.791.422 1.313-2.15-1.006-4.118-2.526-5.738-4.387.86 1.257 1.787 2.479 2.986 3.439-2.029-.685-4.738-4.913-5.527-5.085 3.495 6.258 14.178 10.975 19.775 8.634-2.59.096-5.879.053-8.787-1.022-1.225-.629-2.884-1.93-2.587-2.173 7.636 2.851 15.522 2.158 22.128-3.137 1.682-1.31 3.518-3.537 4.049-3.567-.799 1.202.137.578-.477 1.639 1.672-2.701-.729-1.1 1.73-4.664l.908 1.25c-.34-2.244 2.785-4.966 2.467-8.512.717-1.084.799 1.168.039 3.662 1.055-2.767.279-3.212.549-5.496.291.768.678 1.583.875 2.394-.688-2.675.703-4.503 1.049-6.058-.342-.15-1.061 1.182-1.227-1.976.025-1.372.383-.719.52-1.057-.268-.155-.975-1.207-1.404-3.224.309-.475.832 1.229 1.256 1.298-.273-1.603-.742-2.826-.762-4.057-1.24-2.59-.439.346-1.443-1.112-1.32-4.114 1.094-.955 1.258-2.823 1.998 2.895 3.137 7.385 3.662 9.244-.4-2.267-1.045-4.464-1.834-6.589.609.257-.979-4.663.791-1.405C87.189 15.552 81 9.062 75.305 6.018c.695.637 1.574 1.437 1.26 1.563-2.834-1.685-2.336-1.818-2.742-2.53-2.305-.939-2.459.077-3.984.002-4.35-2.308-5.188-2.063-9.191-3.507l.182.852c-2.881-.96-3.357.362-6.47.002-.189-.147.998-.536 1.976-.677-2.786.368-2.656-.55-5.382.101.671-.471 1.383-.784 2.099-1.184-2.271.138-5.424 1.322-4.451.244-3.705 1.654-10.286 3.975-13.979 7.438l-.116-.776c-1.692 2.031-7.379 6.066-7.832 8.699l-.453.105c-.879 1.491-1.45 3.18-2.148 4.713-1.151 1.963-1.688.756-1.524 1.064-2.265 4.592-3.392 8.45-4.363 11.616.692 1.035.017 6.232.278 10.391-1.136 20.544 14.418 40.489 31.42 45.093 2.492.893 6.197.861 9.349.949-3.718-1.064-4.198-.563-7.822-1.826-2.613-1.232-3.185-2.637-5.037-4.244l.733 1.295c-3.63-1.285-2.111-1.59-5.065-2.525l.783-1.021c-1.177-.09-3.117-1.982-3.647-3.033l-1.288.051c-1.546-1.906-2.371-3.283-2.31-4.35l-.416.742c-.471-.809-5.691-7.158-2.983-5.68-.503-.458-1.172-.747-1.897-2.066l.551-.629c-1.301-1.677-2.398-3.826-2.314-4.542.695.938 1.177 1.114 1.655 1.275-3.291-8.164-3.476-.449-5.967-8.31l.526-.042c-.403-.611-.65-1.27-.974-1.919l.23-2.285c-2.368-2.736-.662-11.645-.319-16.53.235-1.986 1.977-4.101 3.3-7.418l-.806-.138c1.542-2.688 8.802-10.799 12.166-10.383 1.629-2.046-.324-.008-.643-.522 3.579-3.703 4.704-2.616 7.119-3.283 2.603-1.545-2.235.604-1.001-.589 4.503-1.149 3.19-2.614 9.063-3.197.62.352-1.437.544-1.953 1.001 3.75-1.836 11.869-1.417 17.145 1.018 6.117 2.861 12.994 11.314 13.266 19.267l.309.083c-.156 3.162.484 6.819-.627 10.177l.751-1.591"/><path fill="#D70751" d="M44.658 49.695l-.211 1.047c.983 1.335 1.763 2.781 3.016 3.821-.902-1.759-1.571-2.486-2.805-4.868m2.321-.09c-.52-.576-.826-1.268-1.172-1.956.33 1.211 1.006 2.252 1.633 3.312l-.461-1.356m41.084-8.93l-.219.552a26.57 26.57 0 0 1-2.605 8.309 26.19 26.19 0 0 0 2.824-8.861M55.598.446C56.607.077 58.08.243 59.154 0c-1.398.117-2.789.187-4.162.362l.606.084M20.127 19.308c.233 2.154-1.62 2.991.41 1.569 1.09-2.454-.424-.677-.41-1.569m-2.388 9.974c.469-1.437.553-2.299.732-3.132-1.293 1.654-.596 2.007-.732 3.132"/><path d="M13.437 125.51c-.045.047-.045 7.506-.138 9.453-.092 1.574-.232 4.957-3.568 4.957-3.429 0-4.263-3.939-4.541-5.652-.324-1.9-.324-3.477-.324-4.17 0-2.225.139-8.436 5.375-8.436 1.576 0 2.456.465 3.151.834l.045 3.02zM0 130.98c0 13.066 6.951 13.066 7.97 13.066 2.873 0 4.727-1.576 5.514-4.309l.093 4.123c.881-.047 1.761-.139 3.197-.139.51 0 .926 0 1.298.047.371 0 .741.045 1.158.092-.741-1.482-1.297-4.818-1.297-12.049 0-7.043 0-18.951.602-22.566-1.667.789-3.105 1.299-6.256 1.576 1.251 1.344 1.251 2.039 1.251 8.154-.879-.277-1.992-.602-3.892-.602-8.294 0-9.638 7.23-9.638 12.61m25.13-2.373c.047-3.846.835-7.275 4.124-7.275 3.615 0 3.891 3.984 3.799 7.275H25.13zm12.51.46c0-5.422-1.065-10.752-7.923-10.752-9.452 0-9.452 10.475-9.452 12.697 0 9.406 4.216 13.113 11.306 13.113 3.149 0 4.68-.461 5.514-.695-.046-1.668.185-2.734.465-4.17-.975.604-2.226 1.391-5.006 1.391-7.229 0-7.322-6.582-7.322-8.852H37.55l.09-2.74m15.075 2.008c0 4.309-.787 10.102-6.162 10.102-.742 0-1.668-.141-2.27-.279-.093-1.668-.093-4.541-.093-7.877 0-3.986.416-6.068.742-7.09.972-3.289 3.15-3.334 3.566-3.334 3.522 0 4.217 4.86 4.217 8.48zm-13.298 5.05c0 3.43 0 5.375-.556 6.857 1.9.742 4.262 1.158 7.09 1.158 1.807 0 7.043 0 9.869-5.791 1.344-2.688 1.807-6.303 1.807-9.037 0-1.668-.186-5.328-1.529-7.646-1.296-2.176-3.382-3.289-5.605-3.289-4.449 0-5.746 3.707-6.44 5.607 0-2.363.045-10.611.415-14.828-3.011 1.391-4.866 1.621-6.857 1.807 1.807.74 1.807 3.801 1.807 13.764v11.397m27.117 7.741c-.928-.139-1.578-.232-2.922-.232-1.48 0-2.502.094-3.566.232.463-.881.648-1.299.787-4.309.186-4.125.232-15.154-.092-17.471-.232-1.762-.648-2.039-1.297-2.502 3.799-.371 4.865-.648 6.625-1.482-.369 2.037-.418 3.059-.418 6.162-.091 15.98-.138 17.7.883 19.6m14.838-13.118c-.092 2.92-.139 4.959-.928 6.58-.973 2.086-2.594 2.688-3.799 2.688-2.783 0-3.383-2.316-3.383-4.586 0-4.355 3.893-4.682 5.652-4.682h2.458zm-12.744 5.7c0 2.92.881 5.838 3.477 7.09 1.158.51 2.316.51 2.688.51 4.264 0 5.699-3.152 6.58-5.098-.047 2.039 0 3.289.139 4.912.834-.047 1.668-.139 3.059-.139.787 0 1.529.092 2.316.139-.51-.787-.787-1.252-.928-3.059-.092-1.76-.092-3.521-.092-5.977l.047-9.453c0-3.523-.928-6.998-7.879-6.998-4.586 0-7.273 1.391-8.617 2.086.557 1.02 1.02 1.898 1.436 3.893 1.809-1.576 4.172-2.41 6.58-2.41 3.848 0 3.848 2.549 3.848 6.162-.881-.045-1.623-.137-2.875-.137-5.887.01-9.779 2.28-9.779 8.49m39.431 2.819c.047 1.576.047 3.244.695 4.588-1.021-.092-1.623-.232-3.521-.232-1.113 0-1.715.094-2.596.232.184-.602.279-.834.371-1.623.139-1.064.232-4.633.232-5.885v-5.004c0-2.178 0-5.33-.141-6.441-.092-.787-.322-2.918-3.012-2.918-2.641 0-3.521 1.945-3.846 3.521-.369 1.621-.369 3.383-.369 10.24.045 5.932.045 6.486.508 8.109a25.63 25.63 0 0 0-3.15-.184c-1.113 0-1.854.045-2.779.184.324-.742.51-1.113.602-3.707.094-2.549.279-15.061-.141-18.025-.23-1.809-.695-2.225-1.203-2.688 3.754-.186 4.957-.789 6.117-1.389v4.91c.555-1.438 1.713-4.635 6.348-4.635 5.793 0 5.838 4.217 5.885 6.996v13.928"/><path fill="#D70751" d="M66.926 111.53l-3.838 3.836-3.836-3.836 3.836-3.836 3.838 3.84"/></svg>