<svg width="2500" height="1992" viewBox="0 0 256 204" xmlns="http://www.w3.org/2000/svg" preserveAspectRatio="xMinYMin meet"><path d="M234.287 57.171V12.823H21.774v44.348H5.147v90.869h245.446V57.17h-16.306z" fill="#F00"/><path d="M.71 149.97V52.734H17.34V8.387h221.383v44.347h16.306v97.236H.71zm6.935-3.491l239.552.21-1.038-85.082h-16.31v-44.35H26.206v44.35H9.58l-1.622 82.057-.312 2.815z" fill="#EB1019"/><path d="M32.848 8.02v19.985l7.574 10.247 22.265-7.56-.09-30.178-29.75 7.505z" fill="#FFF"/><path d="M37.46 109.964l50.245 11.353 130.69-12.176.03 39.633H37.359l.101-38.81zM186.996 81.835L173.34 76.17l-28.4-19.389-33.932 10.326-73.58-5.57v26.103l46.656 13.386L217.4 89.183V61.954l-30.404 19.881z" stroke="#BD101D" fill="#BD101D"/><path d="M17.32 44.215l-8.41 8.897v23.855l11.874 5.054V68.243l5.053 3.96v-9.414l11.59-.002 21.45 32.298 7.91 2.157 10.741 44.513 5.573 2.31 3.943 16.286h31.082L103.18 98.573l42.225-27.418L168.37 90.56l5.58-2.185 2.117 5.77 41.334-3.71-3.587-9.158-23.256-5.687-42.11-34.31-45.883 17.405L88.466 40.13l21.24-21.593h20.243l7.987 6.728v-6.728h15.91l-3.843-8.93-46.604-7.38-43.023 27.555L17.32 44.215z" fill="#FFF"/><path d="M37.587 201.38c-1.877.97-6.02 2.006-11.261 2.006-13.85 0-22.264-8.737-22.264-22.005 0-14.368 9.966-23.041 23.3-23.041 5.242 0 8.996 1.101 10.614 1.94l-1.747 6.343c-2.072-.905-4.918-1.683-8.543-1.683-8.868 0-15.275 5.567-15.275 16.05 0 9.58 5.631 15.73 15.21 15.73 3.236 0 6.602-.649 8.672-1.619l1.294 6.278zM71.951 186.624c0 11.585-8.154 16.762-16.18 16.762-8.932 0-15.793-6.149-15.793-16.245 0-10.355 6.796-16.699 16.31-16.699 9.384.001 15.663 6.603 15.663 16.182zm-23.754.323c0 6.084 2.977 10.68 7.832 10.68 4.53 0 7.702-4.467 7.702-10.81 0-4.917-2.2-10.548-7.636-10.548-5.632 0-7.898 5.435-7.898 10.678zM105.62 193.225c0 3.754.13 6.86.26 9.45h-6.991l-.389-4.79h-.13c-1.358 2.266-4.465 5.502-10.096 5.502-5.76 0-11.003-3.43-11.003-13.722v-18.51h7.96v17.15c0 5.243 1.683 8.608 5.89 8.608 3.172 0 5.242-2.265 6.084-4.272.26-.711.453-1.552.453-2.459v-19.028h7.96v22.07h.002zM136.223 201.703c-1.684.778-4.984 1.684-8.932 1.684-9.837 0-16.245-6.342-16.245-16.116 0-9.45 6.472-16.828 17.54-16.828 2.912 0 5.89.647 7.702 1.49l-1.423 5.953c-1.295-.583-3.17-1.23-6.02-1.23-6.084 0-9.708 4.466-9.643 10.226 0 6.473 4.208 10.162 9.644 10.162 2.783 0 4.724-.583 6.277-1.23l1.1 5.89zM140.805 156.721h8.025v18.77h.13c.97-1.49 2.329-2.784 3.947-3.625 1.553-.905 3.431-1.424 5.437-1.424 5.372 0 11.004 3.56 11.004 13.656v18.575h-7.961v-17.668c0-4.595-1.684-8.027-6.085-8.027-3.106 0-5.308 2.072-6.148 4.466-.26.648-.324 1.49-.324 2.396v18.833h-8.025v-45.952zM177.018 159.634c3.496-.583 7.96-.906 12.686-.906 8.155 0 13.785 1.683 17.798 5.049 4.208 3.43 6.796 8.607 6.796 16.051 0 7.766-2.654 13.59-6.796 17.346-4.335 3.948-11.262 5.954-19.74 5.954-4.66 0-8.155-.26-10.744-.583v-42.911zm7.96 36.956c1.101.194 2.784.194 4.402.194 10.355.066 16.504-5.63 16.504-16.699.066-9.643-5.502-15.143-15.468-15.143-2.524 0-4.337.193-5.437.453v31.195zM220.307 159.634c2.523-.517 7.118-.906 11.584-.906 5.89 0 9.516.712 12.493 2.783 2.717 1.619 4.529 4.466 4.529 8.155 0 4.012-2.524 7.702-7.249 9.45v.129c4.596 1.165 8.803 4.788 8.803 10.808 0 3.883-1.683 6.925-4.207 8.996-3.107 2.718-8.22 4.078-16.18 4.078-4.402 0-7.766-.323-9.773-.583v-42.91zm7.896 17.216h4.078c5.502 0 8.608-2.588 8.608-6.278 0-4.078-3.107-5.953-8.154-5.953-2.33 0-3.69.129-4.531.323v11.908h-.001zm0 20.064c1.036.194 2.395.194 4.207.194 5.113 0 9.644-1.94 9.644-7.313 0-5.049-4.401-7.119-9.903-7.119h-3.948v14.238z"/></svg>