<?xml version="1.0" encoding="utf-8"?>
<!-- Generator: Adobe Illustrator 24.2.0, SVG Export Plug-In . SVG Version: 6.00 Build 0)  -->
<svg version="1.1" id="Ebene_1" xmlns="http://www.w3.org/2000/svg" xmlns:xlink="http://www.w3.org/1999/xlink" x="0px" y="0px"
	 viewBox="0 0 220 200" style="enable-background:new 0 0 220 200;" xml:space="preserve">
<style type="text/css">
	.st0{fill:#FF0000;}
	.st1{fill:#EB1019;}
	.st2{fill:#FFFFFF;}
	.st3{fill:#BD101D;stroke:#BD101D;}
</style>
<polygon class="st0" points="201.5,48.7 201.5,10.9 20.5,10.9 20.5,48.7 6.4,48.7 6.4,126.1 215.4,126.1 215.4,48.7 "/>
<path class="st1" d="M2.6,127.7V44.9h14.2V7.1h188.5v37.8h13.9v82.8H2.6L2.6,127.7z M8.5,124.7l204,0.2l-0.9-72.5h-13.9V14.7H24.3
	v37.8H10.2l-1.4,69.9L8.5,124.7z"/>
<polygon class="st2" points="30,6.8 30,23.8 36.4,32.6 55.4,26.1 55.3,0.4 "/>
<polygon class="st3" points="33.9,93.6 76.7,103.3 188,92.9 188,126.7 33.8,126.7 "/>
<polygon class="st3" points="161.2,69.7 149.6,64.9 125.4,48.4 96.5,57.1 33.9,52.4 33.9,74.6 73.6,86 187.1,75.9 187.1,52.8 "/>
<polygon class="st2" points="16.7,37.7 9.6,45.2 9.6,65.5 19.7,69.8 19.7,58.1 24,61.5 24,53.5 33.9,53.5 52.1,81 58.9,82.8 
	68,120.7 72.8,122.7 76.1,136.5 102.6,136.5 89.9,83.9 125.8,60.6 145.4,77.1 150.1,75.3 151.9,80.2 187.1,77 184.1,69.2 
	164.3,64.4 128.4,35.2 89.3,50 77.3,34.2 95.4,15.8 112.7,15.8 119.5,21.5 119.5,15.8 133,15.8 129.7,8.2 90.1,1.9 53.4,25.4 "/>
<g>
	<path class="st2" d="M34,171.5c-1.6,0.8-5.1,1.7-9.6,1.7c-11.8,0-19-7.4-19-18.7c0-12.2,8.5-19.6,19.8-19.6c4.5,0,7.7,0.9,9,1.7
		l-1.5,5.4c-1.8-0.8-4.2-1.4-7.3-1.4c-7.6,0-13,4.7-13,13.7c0,8.2,4.8,13.4,13,13.4c2.8,0,5.6-0.6,7.4-1.4L34,171.5z"/>
	<path class="st2" d="M63.3,158.9c0,9.9-6.9,14.3-13.8,14.3c-7.6,0-13.4-5.2-13.4-13.8c0-8.8,5.8-14.2,13.9-14.2
		C57.9,145.1,63.3,150.8,63.3,158.9z M43,159.2c0,5.2,2.5,9.1,6.7,9.1c3.9,0,6.6-3.8,6.6-9.2c0-4.2-1.9-9-6.5-9
		C45,150.1,43,154.7,43,159.2z"/>
	<path class="st2" d="M91.9,164.5c0,3.2,0.1,5.8,0.2,8h-6l-0.3-4.1h-0.1c-1.2,1.9-3.8,4.7-8.6,4.7c-4.9,0-9.4-2.9-9.4-11.7v-15.8
		h6.8v14.6c0,4.5,1.4,7.3,5,7.3c2.7,0,4.5-1.9,5.2-3.6c0.2-0.6,0.4-1.3,0.4-2.1v-16.2h6.8L91.9,164.5L91.9,164.5z"/>
	<path class="st2" d="M118,171.8c-1.4,0.7-4.2,1.4-7.6,1.4c-8.4,0-13.8-5.4-13.8-13.7c0-8,5.5-14.3,14.9-14.3c2.5,0,5,0.6,6.6,1.3
		l-1.2,5.1c-1.1-0.5-2.7-1-5.1-1c-5.2,0-8.3,3.8-8.2,8.7c0,5.5,3.6,8.7,8.2,8.7c2.4,0,4-0.5,5.3-1L118,171.8z"/>
	<path class="st2" d="M121.9,133.5h6.8v16h0.1c0.8-1.3,2-2.4,3.4-3.1c1.3-0.8,2.9-1.2,4.6-1.2c4.6,0,9.4,3,9.4,11.6v15.8h-6.8v-15
		c0-3.9-1.4-6.8-5.2-6.8c-2.6,0-4.5,1.8-5.2,3.8c-0.2,0.6-0.3,1.3-0.3,2v16h-6.8L121.9,133.5L121.9,133.5z"/>
	<path class="st2" d="M152.7,135.9c3-0.5,6.8-0.8,10.8-0.8c6.9,0,11.7,1.4,15.2,4.3c3.6,2.9,5.8,7.3,5.8,13.7
		c0,6.6-2.3,11.6-5.8,14.8c-3.7,3.4-9.6,5.1-16.8,5.1c-4,0-6.9-0.2-9.1-0.5V135.9z M159.5,167.4c0.9,0.2,2.4,0.2,3.7,0.2
		c8.8,0.1,14.1-4.8,14.1-14.2c0.1-8.2-4.7-12.9-13.2-12.9c-2.1,0-3.7,0.2-4.6,0.4V167.4z"/>
	<path class="st2" d="M189.6,135.9c2.1-0.4,6.1-0.8,9.9-0.8c5,0,8.1,0.6,10.6,2.4c2.3,1.4,3.9,3.8,3.9,6.9c0,3.4-2.1,6.6-6.2,8v0.1
		c3.9,1,7.5,4.1,7.5,9.2c0,3.3-1.4,5.9-3.6,7.7c-2.6,2.3-7,3.5-13.8,3.5c-3.7,0-6.6-0.3-8.3-0.5L189.6,135.9L189.6,135.9z
		 M196.3,150.6h3.5c4.7,0,7.3-2.2,7.3-5.3c0-3.5-2.6-5.1-6.9-5.1c-2,0-3.1,0.1-3.9,0.3L196.3,150.6L196.3,150.6z M196.3,167.7
		c0.9,0.2,2,0.2,3.6,0.2c4.4,0,8.2-1.7,8.2-6.2c0-4.3-3.7-6.1-8.4-6.1h-3.4V167.7z"/>
</g>
<g>
	<path class="st0" d="M152.6,183.1c0-1.6,0-2.9-0.1-4.2h2.1l0.1,2.6h0.1c0.6-1.8,2.1-2.9,3.7-2.9c0.3,0,0.5,0,0.7,0.1v2.3
		c-0.2-0.1-0.5-0.1-0.8-0.1c-1.7,0-2.9,1.3-3.3,3.1c-0.1,0.3-0.1,0.7-0.1,1.1v7.1h-2.4L152.6,183.1L152.6,183.1z"/>
	<path class="st0" d="M165.3,186.1c0.1,3.3,2.1,4.6,4.6,4.6c1.7,0,2.8-0.3,3.7-0.7l0.4,1.7c-0.9,0.4-2.3,0.9-4.4,0.9
		c-4.1,0-6.6-2.7-6.6-6.8s2.4-7.2,6.3-7.2c4.4,0,5.5,3.8,5.5,6.3c0,0.5-0.1,0.9-0.1,1.1L165.3,186.1L165.3,186.1z M172.4,184.3
		c0-1.5-0.6-3.9-3.4-3.9c-2.5,0-3.5,2.3-3.7,3.9H172.4z"/>
	<path class="st0" d="M180.3,172.7h2.4v19.6h-2.4V172.7z"/>
	<path class="st0" d="M198.5,189.1c0,1.2,0.1,2.3,0.2,3.2h-2.2l-0.2-1.7h-0.1c-0.7,1-2.2,2-4.1,2c-2.7,0-4.1-1.9-4.1-3.8
		c0-3.2,2.9-5,8-5v-0.3c0-1.1-0.3-3.1-3-3.1c-1.2,0-2.5,0.4-3.5,1l-0.6-1.6c1.1-0.7,2.7-1.2,4.4-1.2c4.1,0,5.1,2.8,5.1,5.5
		L198.5,189.1L198.5,189.1z M196.1,185.5c-2.6-0.1-5.6,0.4-5.6,3c0,1.6,1,2.3,2.3,2.3c1.7,0,2.8-1.1,3.2-2.2
		c0.1-0.2,0.1-0.5,0.1-0.8L196.1,185.5L196.1,185.5z"/>
	<path class="st0" d="M206.2,179l1.9,2.9c0.5,0.7,0.9,1.4,1.4,2.2h0.1c0.4-0.8,0.9-1.5,1.3-2.2l1.9-2.8h2.6l-4.5,6.4l4.7,6.9h-2.8
		l-2-3c-0.5-0.8-1-1.5-1.4-2.3h-0.1c-0.4,0.8-0.9,1.5-1.4,2.3l-1.9,3h-2.7l4.7-6.8l-4.5-6.5L206.2,179L206.2,179z"/>
</g>
</svg>
