<?xml version="1.0" encoding="utf-8"?>
<!-- Generator: Adobe Illustrator 24.2.0, SVG Export Plug-In . SVG Version: 6.00 Build 0)  -->
<svg version="1.1" id="Layer_1" xmlns="http://www.w3.org/2000/svg" xmlns:xlink="http://www.w3.org/1999/xlink" x="0px" y="0px"
	 viewBox="0 0 2500 575" style="enable-background:new 0 0 2500 575;" xml:space="preserve">
<style type="text/css">
	.st0{fill:#FFFFFF;}
	.st1{fill:#ED2226;}
</style>
<path class="st0" d="M863.2,420.4c-88.2,0-132.5-63.4-132.5-133.8c0-69.9,46-132.9,133.3-132.9c33.4,0,57.3,7.4,77.7,20.4
	l-25.2,41.3c-14.3-9.1-30-14.8-53.4-14.8c-47.3,0-72.5,37.8-72.5,84.7c0,48.2,24.3,88.2,73.4,88.2c27.8,0,44.3-9.6,57.8-19.5
	l23,39.5C931.9,405.2,901,420.4,863.2,420.4L863.2,420.4z M1050.4,262.3c-28.2,0-37.3,23.9-37.3,58.6s11.3,59.5,39.5,59.5
	c28.7,0,38.2-23.5,38.2-58.2C1090.4,287.5,1079.1,262.3,1050.4,262.3L1050.4,262.3z M1051.3,420.4c-66,0-94.7-49.5-94.7-98.2
	c0-48.6,28.7-99.5,94.7-99.5s96,49.1,96,97.7C1146.8,368.7,1117.7,420.4,1051.3,420.4L1051.3,420.4z M1230.2,227.6v120.7
	c0,18.7,6.5,27.8,24.3,27.8c19.1,0,33.4-18.2,37.3-22.6V227.6h53v132.9c0,24.8,2.6,43.9,5.2,55.2h-52.6c-1.7-5.2-3.5-17.4-3.9-25.2
	c-10,13-29.5,29.5-60.8,29.5c-41.7,0-56.5-26.5-56.5-61.2V227.1h53.9L1230.2,227.6L1230.2,227.6z M1475.6,420.4
	c-60.8,0-98.1-39.5-98.1-98.6c0-63.4,42.1-99,99.9-99c30.4,0,48.6,9.1,57.8,14.8l-16.9,36.5c-8.2-5.2-20.4-10.9-39.1-10.9
	c-29.5,0-45.2,23-45.2,57.3c0,34.3,14.8,59.1,46.5,59.1c21.7,0,34.3-7.8,40-11.3l16.1,35.6C1527.7,409.5,1510.3,420.4,1475.6,420.4
	L1475.6,420.4z M1678.8,416V294.9c0-18.7-6.5-27.8-24.3-27.8c-19.1,0-33.9,17.8-37.8,22.6v125.9h-53V137.7h53v112
	c9.6-10.4,27.8-26.9,58.6-26.9c41.7,0,56.5,26.5,56.5,61.2v131.6h-53L1678.8,416L1678.8,416z M1828.2,374.8
	c3.5,1.3,11.3,3.9,25.2,3.9c27.4,0,44.3-20,44.3-58.6c0-34.7-11.7-55.6-38.7-55.6c-15.6,0-27.8,10-30.8,13.9V374.8z M1828.2,138.1
	v104.2c8.7-8.7,25.2-19.5,46-19.5c46.9,0,79.9,32.1,79.9,97.3c0,64.7-43.4,100.3-100.8,100.3c-43,0-69-10.9-78.6-15.2V137.7h53.4
	L1828.2,138.1L1828.2,138.1z M2080.6,333.1h-6.5c-29.1,0-49.5,8.7-49.5,30c0,13.5,10.9,19.1,22.6,19.1c17.8,0,28.2-10.4,33.4-15.6
	V333.1L2080.6,333.1z M2086.2,416c-1.7-4.8-2.6-14.3-3-20c-8.3,10-26.1,24.8-52.6,24.8c-32.1,0-56.9-19.1-56.9-53
	c0-49.1,50.4-66.9,100.3-66.9h6.5v-10.4c0-15.6-6.5-25.2-30-25.2c-24.3,0-40.8,12.6-47.8,17.4l-23-32.1
	c11.3-10.4,36.5-27.4,76.9-27.4c52.1,0,76.9,20,76.9,70.4v66c0,26.1,2.6,44.3,5.2,56.5L2086.2,416L2086.2,416z M2229.1,420.4
	c-33.9,0-55.6-10-67.3-17.8l17.8-36.9c7.4,5.2,25.6,15.6,46.5,15.6c19.5,0,30.4-5.7,30.4-16.1c0-12.2-21.3-15.6-48.2-28.7
	c-26.1-12.6-41.3-26.9-41.3-55.6c0-35.6,28.2-58.2,71.2-58.2c32.1,0,52.1,10,60.8,14.8l-18.2,36c-7.4-4.3-22.2-11.7-40-11.7
	s-25.6,6.1-25.6,16.1c0,12.2,17.4,15.2,39.1,23.9c29.5,12.2,50.8,26.1,50.8,57.3C2304.2,399.5,2275.6,420.4,2229.1,420.4
	L2229.1,420.4z M2447.5,298.8c-0.4-20.8-8.7-37.8-31.3-37.8c-20.9,0-33,13.5-36.5,37.8H2447.5z M2427.6,381.3
	c25.6,0,39.5-8.3,49.1-13l16.9,33.9c-12.6,6.9-31.7,18.2-70.8,18.2c-63.4,0-99.5-39.5-99.5-99.9c0-59.9,41.3-97.7,93.8-97.7
	c59.5,0,88.2,41.3,81.7,111.6h-118.6C2382.4,362.6,2397.2,381.3,2427.6,381.3L2427.6,381.3z"/>
<path class="st1" d="M287.8,0C129.3,0,0.3,128.5,0.3,287.5C0.3,446,128.9,575,287.8,575c158.5,0,287.5-128.5,287.5-287.5
	S446.3,0,287.8,0z M481.9,337.9c0,17.4-10,32.6-29.5,36c-33.9,6.1-105.1,9.6-164.6,9.6s-130.7-3.5-164.6-9.6
	c-19.5-3.5-29.5-18.7-29.5-36v-112c0-17.4,13.5-33.4,29.5-36c10-1.7,33.4-3.5,51.7-3.5c6.9,0,12.6,5.2,12.6,13.5v78.6l100.8-2.2
	l100.8,2.2v-78.6c0-8.3,5.6-13.5,12.6-13.5c18.2,0,41.7,1.7,51.7,3.5c16.5,2.6,29.5,18.7,29.5,36
	C481.9,262.7,481.9,300.5,481.9,337.9L481.9,337.9z"/>
</svg>
