<?xml version="1.0" encoding="utf-8"?>
<!-- Generator: Adobe Illustrator 13.0.2, SVG Export Plug-In . SVG Version: 6.00 Build 14948)  -->
<!DOCTYPE svg PUBLIC "-//W3C//DTD SVG 1.1//EN" "http://www.w3.org/Graphics/SVG/1.1/DTD/svg11.dtd">
<svg version="1.1" id="Ebene_1" xmlns="http://www.w3.org/2000/svg" xmlns:xlink="http://www.w3.org/1999/xlink" x="0px" y="0px"
	 width="220px" height="200px" viewBox="0 0 220 200" enable-background="new 0 0 220 200" xml:space="preserve">
<polygon fill="#FF0000" points="201.51,48.685 201.51,10.92 20.542,10.92 20.542,48.685 6.383,48.685 6.383,126.065 
	215.396,126.065 215.396,48.685 "/>
<path fill="#EB1019" d="M2.605,127.709V44.906h14.16V7.142h188.522v37.764h13.885v82.803H2.605L2.605,127.709z M8.51,124.736
	l203.994,0.179l-0.884-72.453h-13.89V14.696H24.317v37.766h-14.16l-1.381,69.877L8.51,124.736z"/>
<polygon fill="#FFFFFF" points="29.972,6.829 29.972,23.848 36.422,32.574 55.382,26.136 55.305,0.438 "/>
<polygon fill="#BD101D" stroke="#BD101D" points="33.899,93.641 76.686,103.309 187.977,92.94 188.003,126.69 33.813,126.69 "/>
<polygon fill="#BD101D" stroke="#BD101D" points="161.239,69.688 149.609,64.863 125.424,48.352 96.529,57.145 33.871,52.401 
	33.871,74.63 73.602,86.029 187.13,75.945 187.13,52.758 "/>
<polygon fill="#FFFFFF" points="16.749,37.652 9.587,45.228 9.587,65.542 19.699,69.846 19.699,58.113 24.002,61.485 24.002,53.469 
	33.871,53.467 52.137,80.971 58.873,82.808 68.02,120.713 72.766,122.681 76.123,136.549 102.592,136.549 89.863,83.941 
	125.821,60.593 145.377,77.117 150.128,75.256 151.931,80.169 187.13,77.01 184.075,69.212 164.271,64.369 128.412,35.152 
	89.34,49.973 77.334,34.173 95.421,15.785 112.66,15.785 119.461,21.515 119.461,15.785 133.01,15.785 129.737,8.181 90.051,1.897 
	53.414,25.361 "/>
<g>
	<path d="M34.008,171.487c-1.599,0.827-5.126,1.709-9.59,1.709c-11.794,0-18.959-7.44-18.959-18.739
		c0-12.235,8.487-19.621,19.841-19.621c4.464,0,7.661,0.938,9.039,1.653l-1.488,5.401c-1.764-0.771-4.188-1.433-7.275-1.433
		c-7.551,0-13.007,4.74-13.007,13.668c0,8.157,4.795,13.394,12.952,13.394c2.756,0,5.622-0.552,7.385-1.378L34.008,171.487z"/>
	<path d="M63.271,158.922c0,9.865-6.944,14.274-13.779,14.274c-7.606,0-13.448-5.236-13.448-13.834
		c0-8.818,5.787-14.22,13.889-14.22C57.924,145.143,63.271,150.765,63.271,158.922z M43.043,159.197
		c0,5.181,2.535,9.094,6.669,9.094c3.858,0,6.559-3.803,6.559-9.204c0-4.188-1.874-8.983-6.503-8.983
		C44.972,150.104,43.043,154.732,43.043,159.197z"/>
	<path d="M91.942,164.543c0,3.197,0.11,5.842,0.221,8.047H86.21l-0.331-4.078h-0.11c-1.157,1.929-3.803,4.685-8.598,4.685
		c-4.905,0-9.37-2.921-9.37-11.685v-15.763h6.779v14.605c0,4.464,1.433,7.33,5.015,7.33c2.701,0,4.464-1.929,5.181-3.638
		c0.221-0.606,0.386-1.322,0.386-2.094v-16.204h6.779V164.543z"/>
	<path d="M118.002,171.763c-1.434,0.662-4.244,1.434-7.606,1.434c-8.377,0-13.833-5.401-13.833-13.724
		c0-8.047,5.511-14.33,14.936-14.33c2.48,0,5.016,0.551,6.559,1.268l-1.212,5.07c-1.103-0.496-2.7-1.047-5.126-1.047
		c-5.181,0-8.267,3.803-8.212,8.708c0,5.512,3.583,8.653,8.212,8.653c2.37,0,4.023-0.496,5.346-1.047L118.002,171.763z"/>
	<path d="M121.904,133.458h6.834v15.983h0.111c0.826-1.268,1.983-2.37,3.361-3.086c1.322-0.771,2.922-1.213,4.63-1.213
		c4.574,0,9.37,3.031,9.37,11.629v15.818h-6.779v-15.046c0-3.913-1.434-6.835-5.182-6.835c-2.645,0-4.52,1.764-5.235,3.803
		c-0.221,0.552-0.276,1.269-0.276,2.04v16.038h-6.834V133.458z"/>
	<path d="M152.742,135.938c2.977-0.496,6.779-0.771,10.803-0.771c6.944,0,11.739,1.433,15.156,4.299
		c3.583,2.921,5.787,7.33,5.787,13.669c0,6.613-2.26,11.573-5.787,14.771c-3.692,3.362-9.59,5.07-16.81,5.07
		c-3.969,0-6.944-0.221-9.149-0.496V135.938z M159.521,167.409c0.937,0.165,2.37,0.165,3.748,0.165
		c8.818,0.056,14.054-4.795,14.054-14.22c0.056-8.212-4.685-12.896-13.172-12.896c-2.149,0-3.693,0.165-4.63,0.386V167.409z"/>
	<path d="M189.605,135.938c2.149-0.44,6.062-0.771,9.865-0.771c5.016,0,8.103,0.606,10.638,2.37
		c2.314,1.378,3.857,3.803,3.857,6.944c0,3.417-2.149,6.559-6.173,8.047v0.11c3.914,0.992,7.496,4.078,7.496,9.204
		c0,3.307-1.433,5.897-3.582,7.661c-2.646,2.314-7,3.472-13.779,3.472c-3.748,0-6.613-0.275-8.322-0.496V135.938z M196.329,150.599
		h3.473c4.685,0,7.33-2.204,7.33-5.346c0-3.473-2.646-5.07-6.944-5.07c-1.984,0-3.142,0.11-3.858,0.275V150.599z M196.329,167.685
		c0.882,0.165,2.04,0.165,3.583,0.165c4.354,0,8.212-1.653,8.212-6.228c0-4.299-3.748-6.062-8.433-6.062h-3.362V167.685z"/>
</g>
<g>
	<path fill="#FF0000" d="M152.609,183.135c0-1.57-0.027-2.921-0.11-4.161h2.122l0.083,2.618h0.109
		c0.606-1.791,2.067-2.921,3.693-2.921c0.275,0,0.468,0.027,0.688,0.082v2.288c-0.248-0.056-0.496-0.083-0.826-0.083
		c-1.709,0-2.922,1.295-3.252,3.114c-0.056,0.33-0.11,0.716-0.11,1.13v7.109h-2.397V183.135z"/>
	<path fill="#FF0000" d="M165.289,186.084c0.055,3.279,2.149,4.629,4.574,4.629c1.736,0,2.783-0.303,3.692-0.688l0.414,1.736
		c-0.854,0.386-2.315,0.854-4.438,0.854c-4.105,0-6.559-2.728-6.559-6.751s2.37-7.192,6.256-7.192c4.354,0,5.512,3.83,5.512,6.283
		c0,0.496-0.056,0.882-0.083,1.13H165.289z M172.398,184.348c0.027-1.543-0.634-3.941-3.362-3.941c-2.452,0-3.527,2.26-3.72,3.941
		H172.398z"/>
	<path fill="#FF0000" d="M180.262,172.746h2.425v19.565h-2.425V172.746z"/>
	<path fill="#FF0000" d="M198.469,189.115c0,1.157,0.056,2.287,0.221,3.196h-2.204l-0.193-1.681h-0.083
		c-0.744,1.047-2.177,1.983-4.078,1.983c-2.7,0-4.078-1.901-4.078-3.83c0-3.225,2.865-4.988,8.019-4.96v-0.276
		c0-1.102-0.303-3.086-3.031-3.086c-1.24,0-2.535,0.386-3.472,0.992l-0.552-1.599c1.103-0.717,2.701-1.185,4.382-1.185
		c4.078,0,5.07,2.783,5.07,5.456V189.115z M196.127,185.505c-2.646-0.055-5.649,0.413-5.649,3.004c0,1.57,1.047,2.314,2.287,2.314
		c1.736,0,2.839-1.103,3.225-2.232c0.082-0.247,0.138-0.523,0.138-0.771V185.505z"/>
	<path fill="#FF0000" d="M206.228,178.974l1.901,2.866c0.496,0.744,0.909,1.433,1.351,2.177h0.082
		c0.441-0.799,0.882-1.488,1.323-2.204l1.874-2.839h2.618l-4.548,6.448l4.686,6.89h-2.756l-1.957-3.004
		c-0.523-0.771-0.964-1.516-1.433-2.314h-0.056c-0.44,0.826-0.909,1.516-1.405,2.314l-1.929,3.004h-2.673l4.739-6.807l-4.519-6.531
		H206.228z"/>
</g>
</svg>
