<?xml version="1.0" encoding="utf-8"?>
<!-- Generator: Adobe Illustrator 24.1.1, SVG Export Plug-In . SVG Version: 6.00 Build 0)  -->
<svg version="1.1" id="Layer_1" xmlns="http://www.w3.org/2000/svg" xmlns:xlink="http://www.w3.org/1999/xlink" x="0px" y="0px"
	 viewBox="0 0 56 60" style="enable-background:new 0 0 56 60;" xml:space="preserve">
<style type="text/css">
	.st0{fill-rule:evenodd;clip-rule:evenodd;fill:#22ADF6;}
</style>
<g id="Science">
	<g id="Icon-12" transform="translate(-2.000000, 0.000000)">
		<path id="brain" class="st0" d="M17,50c0.55,0,1-0.45,1-1c0-1.46,1.54-3,3-3c0.55,0,1-0.45,1-1s-0.45-1-1-1c-2.57,0-5,2.43-5,5
			C16,49.55,16.45,50,17,50 M18,15c0-0.55-0.45-1-1-1s-1,0.45-1,1c0,1.46-1.54,3-3,3c-0.55,0-1,0.45-1,1s0.45,1,1,1
			C15.57,20,18,17.57,18,15 M24,39c0,0.55,0.45,1,1,1s1-0.45,1-1c0-2.57-2.43-5-5-5c-0.55,0-1,0.45-1,1s0.45,1,1,1
			C22.46,36,24,37.54,24,39 M25,22c-0.55,0-1,0.45-1,1c0,1.46-1.54,3-3,3c-0.55,0-1,0.45-1,1s0.45,1,1,1c2.57,0,5-2.43,5-5
			C26,22.45,25.55,22,25,22 M11,24c-0.55,0-1,0.45-1,1c0,2.57,2.43,5,5,5c0.55,0,1-0.45,1-1s-0.45-1-1-1c-1.46,0-3-1.54-3-3
			C12,24.45,11.55,24,11,24 M11,42c0.55,0,1-0.45,1-1c0-1.46,1.54-3,3-3c0.55,0,1-0.45,1-1s-0.45-1-1-1c-2.57,0-5,2.43-5,5
			C10,41.55,10.45,42,11,42 M21,9c-0.55,0-1,0.45-1,1s0.45,1,1,1c1.46,0,3,1.54,3,3c0,0.55,0.45,1,1,1s1-0.45,1-1
			C26,11.43,23.57,9,21,9 M55.63,37.24C57.12,35.94,58,34.04,58,32c0-2.14-0.95-4.11-2.58-5.43C55.8,25.77,56,24.9,56,24
			c0-2.06-1.08-3.97-2.79-5.05C53.72,18.05,54,17.04,54,16c0-2.58-1.64-4.82-4.01-5.65C50,10.23,50,10.12,50,10c0-3.31-2.69-6-6-6
			c-0.81,0-1.59,0.16-2.33,0.48C40.81,1.88,38.34,0,35.5,0c-4.21,0-6.08,3.8-6.48,5.8c-0.01,0.03,0,0.07,0,0.1
			C29.02,5.94,29,5.97,29,6v46.94C28.77,55.78,26.36,58,23.5,58c-2.85,0-5.26-2.23-5.47-5.08C17.99,52.4,17.52,52,17,52
			c-0.31,0-0.61,0.15-0.8,0.39C15.43,53.42,14.26,54,13,54c-2.21,0-4-1.79-4-4c0-0.91,0.32-1.78,0.92-2.51
			c0.27-0.33,0.3-0.8,0.07-1.16c-0.23-0.36-0.66-0.54-1.08-0.44C8.58,45.96,8.28,46,8,46c-2.21,0-4-1.79-4-4
			c0-1.65,1.05-3.15,2.6-3.73c0.37-0.14,0.63-0.48,0.65-0.88c0.02-0.4-0.19-0.77-0.54-0.95C5.04,35.58,4,33.88,4,32
			c0-1.76,0.91-3.36,2.43-4.28c0.24-0.14,0.4-0.38,0.46-0.65c0.06-0.27,0-0.55-0.16-0.78C6.25,25.61,6,24.82,6,24
			c0-1.66,1.06-3.16,2.63-3.74c0.31-0.11,0.55-0.38,0.63-0.7c0.08-0.32,0-0.66-0.23-0.91C8.37,17.91,8,16.97,8,16
			c0-1.94,1.39-3.59,3.3-3.93c0.27-0.05,0.51-0.2,0.66-0.43c0.15-0.23,0.2-0.51,0.14-0.77C12.03,10.56,12,10.27,12,10
			c0-2.21,1.79-4,4-4c0.87,0,1.7,0.29,2.42,0.84c0.29,0.22,0.68,0.27,1.01,0.12c0.33-0.15,0.56-0.47,0.59-0.83
			C20.21,3.81,22.18,2,24.5,2c1.11,0,2.04,0.36,2.82,1.09c0.4,0.38,1.03,0.36,1.41-0.04c0.38-0.4,0.36-1.03-0.04-1.41
			C27.53,0.55,26.13,0,24.5,0c-2.84,0-5.31,1.88-6.17,4.48C17.59,4.16,16.81,4,16,4c-3.31,0-6,2.69-6,6c0,0.12,0,0.23,0.01,0.35
			C7.64,11.18,6,13.42,6,16c0,1.04,0.28,2.05,0.79,2.95C5.08,20.03,4,21.94,4,24c0,0.9,0.2,1.77,0.59,2.57C2.95,27.89,2,29.86,2,32
			c0,2.04,0.88,3.94,2.37,5.24C2.91,38.36,2,40.12,2,42c0,3.09,2.35,5.65,5.36,5.97C7.12,48.61,7,49.3,7,50c0,3.31,2.69,6,6,6
			c1.24,0,2.42-0.38,3.42-1.07C17.43,57.89,20.25,60,23.5,60c3.91,0,7.2-3.04,7.5-6.92c0-0.01,0-0.03,0-0.04
			c0-0.01,0.01-0.02,0.01-0.04V6.11C31.15,5.5,32.13,2,35.5,2c2.32,0,4.29,1.81,4.48,4.12c0.03,0.36,0.26,0.68,0.59,0.83
			c0.33,0.15,0.72,0.1,1.01-0.12C42.3,6.29,43.13,6,44,6c2.21,0,4,1.79,4,4c0,0.27-0.03,0.56-0.1,0.87
			c-0.06,0.27-0.01,0.55,0.14,0.77c0.15,0.23,0.39,0.38,0.66,0.43C50.61,12.41,52,14.06,52,16c0,0.97-0.37,1.91-1.03,2.65
			c-0.22,0.25-0.31,0.59-0.22,0.91c0.08,0.32,0.31,0.58,0.63,0.7C52.94,20.84,54,22.34,54,24c0,0.82-0.25,1.61-0.73,2.29
			c-0.16,0.23-0.22,0.51-0.16,0.78c0.06,0.27,0.22,0.51,0.46,0.65C55.09,28.64,56,30.24,56,32c0,1.88-1.04,3.58-2.71,4.44
			c-0.35,0.18-0.56,0.55-0.54,0.95c0.02,0.39,0.28,0.74,0.65,0.88C54.95,38.85,56,40.35,56,42c0,2.21-1.79,4-4,4
			c-0.28,0-0.58-0.04-0.91-0.12c-0.42-0.1-0.85,0.08-1.08,0.44c-0.23,0.36-0.2,0.83,0.07,1.16C50.68,48.22,51,49.09,51,50
			c0,2.21-1.79,4-4,4c-1.26,0-2.43-0.59-3.2-1.63c-0.26-0.35-0.71-0.49-1.12-0.35c-0.15,0.05-0.28,0.13-0.38,0.23
			c-0.19,0.17-0.31,0.4-0.33,0.67C41.76,55.77,39.35,58,36.5,58c-1.26,0-2.44-0.41-3.43-1.19c-0.43-0.34-1.06-0.27-1.4,0.16
			c-0.34,0.43-0.27,1.06,0.16,1.4C33.15,59.42,34.81,60,36.5,60c3.25,0,6.07-2.12,7.09-5.08C44.58,55.62,45.76,56,47,56
			c3.31,0,6-2.69,6-6c0-0.7-0.12-1.39-0.36-2.03C55.65,47.65,58,45.09,58,42C58,40.12,57.09,38.36,55.63,37.24 M38,45
			c0,0.55,0.45,1,1,1c1.46,0,3,1.54,3,3c0,0.55,0.45,1,1,1s1-0.45,1-1c0-2.57-2.43-5-5-5C38.45,44,38,44.45,38,45 M47,18
			c-1.46,0-3-1.54-3-3c0-0.55-0.45-1-1-1s-1,0.45-1,1c0,2.57,2.43,5,5,5c0.55,0,1-0.45,1-1S47.55,18,47,18 M35,40c0.55,0,1-0.45,1-1
			c0-1.46,1.54-3,3-3c0.55,0,1-0.45,1-1s-0.45-1-1-1c-2.57,0-5,2.43-5,5C34,39.55,34.45,40,35,40 M39,28c0.55,0,1-0.45,1-1
			s-0.45-1-1-1c-1.46,0-3-1.54-3-3c0-0.55-0.45-1-1-1s-1,0.45-1,1C34,25.57,36.43,28,39,28 M49,24c-0.55,0-1,0.45-1,1
			c0,1.46-1.54,3-3,3c-0.55,0-1,0.45-1,1s0.45,1,1,1c2.57,0,5-2.43,5-5C50,24.45,49.55,24,49,24 M45,36c-0.55,0-1,0.45-1,1
			s0.45,1,1,1c1.46,0,3,1.54,3,3c0,0.55,0.45,1,1,1s1-0.45,1-1C50,38.43,47.57,36,45,36 M34,14c0-2.57,2.43-5,5-5c0.55,0,1,0.45,1,1
			s-0.45,1-1,1c-1.46,0-3,1.54-3,3c0,0.55-0.45,1-1,1S34,14.55,34,14"/>
	</g>
</g>
</svg>
