<?xml version="1.0" encoding="utf-8"?>
<!-- Generator: Adobe Illustrator 24.2.0, SVG Export Plug-In . SVG Version: 6.00 Build 0)  -->
<svg version="1.1" id="Layer_1" xmlns="http://www.w3.org/2000/svg" xmlns:xlink="http://www.w3.org/1999/xlink" x="0px" y="0px"
	 viewBox="0 0 150 150" style="enable-background:new 0 0 150 150;" xml:space="preserve">
<style type="text/css">
	.st0{fill:#9A4993;}
	.st1{fill:#6A1577;}
	.st2{fill:#813084;}
	.st3{fill:#FFFFFF;}
</style>
<g>
	<path id="XMLID_10_" class="st0" d="M114,56.9c0-1.5-0.3-2.8-1-3.9c-0.6-1.1-1.6-2-2.8-2.7c-10.4-6-20.8-12-31.2-18
		c-2.8-1.6-5.5-1.6-8.3,0.1c-4.1,2.4-24.8,14.3-31,17.9C37.2,51.8,36,54,36,56.9c0,12,0,24.1,0,36.1c0,1.4,0.3,2.7,0.9,3.8
		c0.6,1.1,1.6,2.1,2.9,2.8c6.2,3.6,26.9,15.4,31,17.9c2.8,1.6,5.5,1.7,8.3,0.1c10.4-6,20.8-12,31.2-18c1.3-0.7,2.2-1.7,2.9-2.8
		c0.6-1.1,0.9-2.4,0.9-3.8C114,93.1,114,69,114,56.9"/>
	<path id="XMLID_8_" class="st1" d="M75.1,74.9l-38.2,22c0.6,1.1,1.6,2.1,2.9,2.8c6.2,3.6,26.9,15.4,31,17.9
		c2.8,1.6,5.5,1.7,8.3,0.1c10.4-6,20.8-12,31.2-18c1.3-0.7,2.2-1.7,2.9-2.8L75.1,74.9"/>
	<path id="XMLID_7_" class="st1" d="M63.8,81.4c2.2,3.9,6.4,6.5,11.2,6.5c4.8,0,9-2.7,11.2-6.6l-11.1-6.4L63.8,81.4"/>
	<path id="XMLID_2_" class="st2" d="M114,56.9c0-1.5-0.3-2.8-1-3.9L75.1,74.9l38,22c0.6-1.1,0.9-2.4,0.9-3.8
		C114,93.1,114,69,114,56.9"/>
	<path id="XMLID_9_" class="st3" d="M86.2,81.3c-2.2,3.9-6.4,6.6-11.2,6.6c-4.8,0-9-2.6-11.2-6.5c-1.1-1.9-1.7-4.1-1.7-6.4
		c0-7.1,5.8-12.9,12.9-12.9c4.8,0,8.9,2.6,11.2,6.4L97.4,62C92.9,54.3,84.6,49.1,75,49.1c-14.3,0-25.9,11.6-25.9,25.9
		c0,4.7,1.2,9.1,3.4,12.9c4.5,7.8,12.9,13,22.5,13c9.6,0,18-5.3,22.5-13.1L86.2,81.3"/>
	<g id="XMLID_32_">
		<rect id="XMLID_1_" x="97.9" y="68.9" class="st3" width="2.6" height="12.4"/>
		<rect id="XMLID_30_" x="103.6" y="68.9" class="st3" width="2.6" height="12.4"/>
		
			<rect id="XMLID_31_" x="100.8" y="66" transform="matrix(-1.836970e-16 1 -1 -1.836970e-16 174.284 -29.8083)" class="st3" width="2.6" height="12.4"/>
		
			<rect id="XMLID_23_" x="100.8" y="71.7" transform="matrix(-1.836970e-16 1 -1 -1.836970e-16 179.9682 -24.124)" class="st3" width="2.6" height="12.4"/>
	</g>
</g>
</svg>
