<?xml version="1.0" encoding="utf-8"?>
<!-- Generator: Adobe Illustrator 24.2.0, SVG Export Plug-In . SVG Version: 6.00 Build 0)  -->
<svg version="1.1" id="Layer_1" xmlns="http://www.w3.org/2000/svg" xmlns:xlink="http://www.w3.org/1999/xlink" x="0px" y="0px"
	 viewBox="0 0 79 88" style="enable-background:new 0 0 79 88;" xml:space="preserve">
<style type="text/css">
	.st0{fill:#9A4993;}
	.st1{fill:#6A1577;}
	.st2{fill:#813084;}
	.st3{fill:#FFFFFF;}
</style>
<g>
	<path id="XMLID_10_" class="st0" d="M78.9,25.9c0-1.5-0.3-2.8-1-3.9c-0.6-1.1-1.6-2-2.8-2.7c-10.5-6-21-12-31.6-18.1
		c-2.8-1.6-5.6-1.6-8.4,0.1C31,3.7,10,15.6,3.7,19.2C1.2,20.7,0,23,0,25.9c0,12,0,24.2,0,36.2c0,1.4,0.3,2.7,0.9,3.8
		C1.5,67,2.5,68,3.8,68.7c6.3,3.6,27.2,15.4,31.4,18c2.8,1.6,5.6,1.7,8.4,0.1c10.5-6,21-12,31.6-18.1c1.3-0.7,2.2-1.7,2.9-2.8
		c0.6-1.1,0.9-2.4,0.9-3.8C78.9,62.2,78.9,38,78.9,25.9"/>
	<path id="XMLID_8_" class="st1" d="M39.6,43.9L0.9,66c0.6,1.1,1.6,2.1,2.9,2.8c6.3,3.6,27.2,15.4,31.4,18c2.8,1.6,5.6,1.7,8.4,0.1
		c10.5-6,21-12,31.6-18.1c1.3-0.7,2.2-1.7,2.9-2.8L39.6,43.9"/>
	<path id="XMLID_7_" class="st1" d="M28.1,50.4c2.2,3.9,6.5,6.5,11.3,6.5s9.1-2.7,11.3-6.6l-11.2-6.4L28.1,50.4"/>
	<path id="XMLID_2_" class="st2" d="M78.9,25.9c0-1.5-0.3-2.8-1-3.9l-38.3,22L78,66c0.6-1.1,0.9-2.4,0.9-3.8
		C78.9,62.2,78.9,38,78.9,25.9"/>
	<path id="XMLID_9_" class="st3" d="M50.8,50.3c-2.2,3.9-6.5,6.6-11.3,6.6c-4.9,0-9.1-2.6-11.3-6.5c-1.1-1.9-1.7-4.1-1.7-6.4
		c0-7.1,5.9-12.9,13-12.9c4.9,0,9,2.6,11.3,6.4L62.1,31C57.6,23.3,49.2,18,39.4,18C25,18,13.3,29.7,13.3,44c0,4.7,1.2,9.1,3.4,12.9
		c4.6,7.8,13,13,22.8,13s18.2-5.3,22.8-13.1L50.8,50.3"/>
	<g id="XMLID_32_">
		<rect id="XMLID_1_" x="62.6" y="37.9" class="st3" width="2.6" height="12.4"/>
		<rect id="XMLID_30_" x="68.4" y="37.9" class="st3" width="2.6" height="12.4"/>
		<rect id="XMLID_31_" x="60.6" y="40" class="st3" width="12.5" height="2.6"/>
		<rect id="XMLID_23_" x="60.6" y="45.7" class="st3" width="12.5" height="2.6"/>
	</g>
</g>
</svg>
