<svg width="2000" height="2500" viewBox="0 0 256 320" xmlns="http://www.w3.org/2000/svg" xmlns:xlink="http://www.w3.org/1999/xlink" preserveAspectRatio="xMidYMid"><defs><linearGradient x1="50%" y1="0%" x2="50%" y2="100%" id="b"><stop stop-color="#7540B7" offset="0%"/><stop stop-color="#9351E5" offset="100%"/></linearGradient><path d="M126.19 255.89L.75 130.45c-1-1-1-2.62 0-3.62L126.19 1.39c1-1 2.62-1 3.62 0l125.44 125.44c1 1 1 2.62 0 3.62L129.81 255.89c-1 1-2.62 1-3.62 0" id="a"/><path d="M129.825 193.069a2.58 2.58 0 0 0-3.65 0l-35.071 35.07a2.583 2.583 0 0 0 0 3.651l35.07 35.07a2.58 2.58 0 0 0 3.651 0l35.071-35.07a2.583 2.583 0 0 0 0-3.65l-35.07-35.071z" id="e"/><filter x="-50%" y="-50%" width="200%" height="200%" filterUnits="objectBoundingBox" id="d"><feOffset dy="7" in="SourceAlpha" result="shadowOffsetOuter1"/><feGaussianBlur stdDeviation="3.5" in="shadowOffsetOuter1" result="shadowBlurOuter1"/><feColorMatrix values="0 0 0 0 0 0 0 0 0 0 0 0 0 0 0 0 0 0 0.2 0" in="shadowBlurOuter1"/></filter><path d="M174.999 147.895a2.58 2.58 0 0 0-3.65 0l-35.07 35.07a2.58 2.58 0 0 0 0 3.65l35.07 35.07a2.583 2.583 0 0 0 3.65 0l35.07-35.07a2.58 2.58 0 0 0 0-3.65L175 147.895z" id="g"/><filter x="-50%" y="-50%" width="200%" height="200%" filterUnits="objectBoundingBox" id="f"><feOffset dy="7" in="SourceAlpha" result="shadowOffsetOuter1"/><feGaussianBlur stdDeviation="3.5" in="shadowOffsetOuter1" result="shadowBlurOuter1"/><feColorMatrix values="0 0 0 0 0 0 0 0 0 0 0 0 0 0 0 0 0 0 0.2 0" in="shadowBlurOuter1"/></filter><path d="M119.721 182.965l-35.07-35.07a2.58 2.58 0 0 0-3.65 0l-35.07 35.07a2.58 2.58 0 0 0 0 3.65L81 221.685a2.583 2.583 0 0 0 3.65 0l35.07-35.07a2.58 2.58 0 0 0 0-3.65z" id="i"/><filter x="-50%" y="-50%" width="200%" height="200%" filterUnits="objectBoundingBox" id="h"><feOffset dy="7" in="SourceAlpha" result="shadowOffsetOuter1"/><feGaussianBlur stdDeviation="3.5" in="shadowOffsetOuter1" result="shadowBlurOuter1"/><feColorMatrix values="0 0 0 0 0 0 0 0 0 0 0 0 0 0 0 0 0 0 0.2 0" in="shadowBlurOuter1"/></filter><path d="M255.244 137.79l-35.07-35.07a2.583 2.583 0 0 0-3.65 0l-35.071 35.07a2.583 2.583 0 0 0 0 3.651l35.07 35.07a2.58 2.58 0 0 0 3.651 0l35.07-35.07a2.58 2.58 0 0 0 0-3.65z" id="k"/><filter x="-50%" y="-50%" width="200%" height="200%" filterUnits="objectBoundingBox" id="j"><feOffset dy="7" in="SourceAlpha" result="shadowOffsetOuter1"/><feGaussianBlur stdDeviation="3.5" in="shadowOffsetOuter1" result="shadowBlurOuter1"/><feColorMatrix values="0 0 0 0 0 0 0 0 0 0 0 0 0 0 0 0 0 0 0.2 0" in="shadowBlurOuter1"/></filter><path d="M126.175 102.72l-35.071 35.07a2.583 2.583 0 0 0 0 3.651l35.07 35.07a2.58 2.58 0 0 0 3.651 0l35.071-35.07a2.583 2.583 0 0 0 0-3.65l-35.07-35.07a2.583 2.583 0 0 0-3.651 0z" id="m"/><filter x="-50%" y="-50%" width="200%" height="200%" filterUnits="objectBoundingBox" id="l"><feOffset dy="7" in="SourceAlpha" result="shadowOffsetOuter1"/><feGaussianBlur stdDeviation="3.5" in="shadowOffsetOuter1" result="shadowBlurOuter1"/><feColorMatrix values="0 0 0 0 0 0 0 0 0 0 0 0 0 0 0 0 0 0 0.2 0" in="shadowBlurOuter1"/></filter><path d="M74.547 141.441l-35.07 35.07a2.58 2.58 0 0 1-3.651 0L.756 141.44a2.58 2.58 0 0 1 0-3.65l35.07-35.07a2.583 2.583 0 0 1 3.65 0l35.071 35.07a2.583 2.583 0 0 1 0 3.65z" id="o"/><filter x="-50%" y="-50%" width="200%" height="200%" filterUnits="objectBoundingBox" id="n"><feOffset dy="7" in="SourceAlpha" result="shadowOffsetOuter1"/><feGaussianBlur stdDeviation="3.5" in="shadowOffsetOuter1" result="shadowBlurOuter1"/><feColorMatrix values="0 0 0 0 0 0 0 0 0 0 0 0 0 0 0 0 0 0 0.2 0" in="shadowBlurOuter1"/></filter><path d="M136.279 91.114l35.07 35.071a2.58 2.58 0 0 0 3.65 0l35.07-35.07a2.58 2.58 0 0 0 0-3.651L175 52.394a2.58 2.58 0 0 0-3.65 0l-35.07 35.07a2.58 2.58 0 0 0 0 3.65z" id="q"/><filter x="-50%" y="-50%" width="200%" height="200%" filterUnits="objectBoundingBox" id="p"><feOffset dy="7" in="SourceAlpha" result="shadowOffsetOuter1"/><feGaussianBlur stdDeviation="3.5" in="shadowOffsetOuter1" result="shadowBlurOuter1"/><feColorMatrix values="0 0 0 0 0 0 0 0 0 0 0 0 0 0 0 0 0 0 0.2 0" in="shadowBlurOuter1"/></filter><path d="M81.001 126.185a2.58 2.58 0 0 0 3.65 0l35.07-35.07a2.58 2.58 0 0 0 0-3.651l-35.07-35.07a2.58 2.58 0 0 0-3.65 0l-35.07 35.07a2.58 2.58 0 0 0 0 3.65L81 126.185z" id="s"/><filter x="-50%" y="-50%" width="200%" height="200%" filterUnits="objectBoundingBox" id="r"><feOffset dy="7" in="SourceAlpha" result="shadowOffsetOuter1"/><feGaussianBlur stdDeviation="3.5" in="shadowOffsetOuter1" result="shadowBlurOuter1"/><feColorMatrix values="0 0 0 0 0 0 0 0 0 0 0 0 0 0 0 0 0 0 0.2 0" in="shadowBlurOuter1"/></filter><path d="M126.175 74.546a2.58 2.58 0 0 0 3.65 0l35.071-35.07a2.583 2.583 0 0 0 0-3.65L129.826.756a2.583 2.583 0 0 0-3.651 0l-35.071 35.07a2.583 2.583 0 0 0 0 3.65l35.07 35.07z" id="u"/><filter x="-50%" y="-50%" width="200%" height="200%" filterUnits="objectBoundingBox" id="t"><feOffset dy="7" in="SourceAlpha" result="shadowOffsetOuter1"/><feGaussianBlur stdDeviation="3.5" in="shadowOffsetOuter1" result="shadowBlurOuter1"/><feColorMatrix values="0 0 0 0 0 0 0 0 0 0 0 0 0 0 0 0 0 0 0.2 0" in="shadowBlurOuter1"/></filter><linearGradient x1="50%" y1="100%" x2="50%" y2="0%" id="v"><stop stop-color="#E9DCF9" offset="0%"/><stop stop-color="#FFF" offset="100%"/></linearGradient><linearGradient x1="-63.234%" y1="100%" x2="-63.234%" y2="0%" id="w"><stop stop-color="#DECBF7" offset="0%"/><stop stop-color="#F4EDFC" offset="100%"/></linearGradient><linearGradient x1="50%" y1="0%" x2="50%" y2="100%" id="x"><stop stop-color="#D3B9F4" offset="0%"/><stop stop-color="#BE96EF" offset="100%"/></linearGradient><linearGradient x1="50%" y1="0%" x2="50%" y2="100%" id="y"><stop stop-color="#BE96EF" offset="0%"/><stop stop-color="#A873EA" offset="100%"/></linearGradient><linearGradient x1="50%" y1="0%" x2="50%" y2="100%" id="z"><stop stop-color="#A873EA" offset="0%"/><stop stop-color="#9351E5" offset="100%"/></linearGradient></defs><g transform="translate(0 62.72)"><mask id="c" fill="#fff"><use xlink:href="#a"/></mask><use fill="url(#b)" xlink:href="#a"/><g mask="url(#c)"><use filter="url(#d)" xlink:href="#e" transform="translate(0 -62.72)"/><use filter="url(#f)" xlink:href="#g" transform="translate(0 -62.72)"/><use filter="url(#h)" xlink:href="#i" transform="translate(0 -62.72)"/><use filter="url(#j)" xlink:href="#k" transform="translate(0 -62.72)"/><use filter="url(#l)" xlink:href="#m" transform="translate(0 -62.72)"/><use filter="url(#n)" xlink:href="#o" transform="translate(0 -62.72)"/><use filter="url(#p)" xlink:href="#q" transform="translate(0 -62.72)"/><use filter="url(#r)" xlink:href="#s" transform="translate(0 -62.72)"/><use filter="url(#t)" xlink:href="#u" transform="translate(0 -62.72)"/></g></g><path d="M129.825 193.069a2.58 2.58 0 0 0-3.65 0l-35.071 35.07a2.583 2.583 0 0 0 0 3.651l35.07 35.07a2.58 2.58 0 0 0 3.651 0l35.071-35.07a2.583 2.583 0 0 0 0-3.65l-35.07-35.071z" fill="url(#v)"/><path d="M174.999 147.895a2.58 2.58 0 0 0-3.65 0l-35.07 35.07a2.58 2.58 0 0 0 0 3.65l35.07 35.07a2.583 2.583 0 0 0 3.65 0l35.07-35.07a2.58 2.58 0 0 0 0-3.65L175 147.895zM119.721 182.965l-35.07-35.07a2.58 2.58 0 0 0-3.65 0l-35.07 35.07a2.58 2.58 0 0 0 0 3.65L81 221.685a2.583 2.583 0 0 0 3.65 0l35.07-35.07a2.58 2.58 0 0 0 0-3.65z" fill="url(#w)"/><path d="M255.244 137.79l-35.07-35.07a2.583 2.583 0 0 0-3.65 0l-35.071 35.07a2.583 2.583 0 0 0 0 3.651l35.07 35.07a2.58 2.58 0 0 0 3.651 0l35.07-35.07a2.58 2.58 0 0 0 0-3.65zM126.175 102.72l-35.071 35.07a2.583 2.583 0 0 0 0 3.651l35.07 35.07a2.58 2.58 0 0 0 3.651 0l35.071-35.07a2.583 2.583 0 0 0 0-3.65l-35.07-35.07a2.583 2.583 0 0 0-3.651 0zM74.547 141.441l-35.07 35.07a2.58 2.58 0 0 1-3.651 0L.756 141.44a2.58 2.58 0 0 1 0-3.65l35.07-35.07a2.583 2.583 0 0 1 3.65 0l35.071 35.07a2.583 2.583 0 0 1 0 3.65z" fill="url(#x)"/><path d="M136.279 91.114l35.07 35.071a2.58 2.58 0 0 0 3.65 0l35.07-35.07a2.58 2.58 0 0 0 0-3.651L175 52.394a2.58 2.58 0 0 0-3.65 0l-35.07 35.07a2.58 2.58 0 0 0 0 3.65zM81.001 126.185a2.58 2.58 0 0 0 3.65 0l35.07-35.07a2.58 2.58 0 0 0 0-3.651l-35.07-35.07a2.58 2.58 0 0 0-3.65 0l-35.07 35.07a2.58 2.58 0 0 0 0 3.65L81 126.185z" fill="url(#y)"/><path d="M126.175 74.546a2.58 2.58 0 0 0 3.65 0l35.071-35.07a2.583 2.583 0 0 0 0-3.65L129.826.756a2.583 2.583 0 0 0-3.651 0l-35.071 35.07a2.583 2.583 0 0 0 0 3.65l35.07 35.07z" fill="url(#z)"/></svg>