<?xml version="1.0" encoding="utf-8"?>
<!-- Generator: Adobe Illustrator 24.1.1, SVG Export Plug-In . SVG Version: 6.00 Build 0)  -->
<svg version="1.1" id="Layer_1" xmlns="http://www.w3.org/2000/svg" xmlns:xlink="http://www.w3.org/1999/xlink" x="0px" y="0px"
	 viewBox="0 0 60 50" style="enable-background:new 0 0 60 50;" xml:space="preserve">
<style type="text/css">
	.st0{fill:none;stroke:#22ADF6;stroke-width:2;stroke-linecap:round;stroke-linejoin:round;stroke-miterlimit:10;}
</style>
<path class="st0" d="M1,29V17h54 M49,41c0-1.1-0.9-2-2-2s-2,0.9-2,2s0.9,2,2,2S49,42.1,49,41z M55,33H1v12c0,2,2,4,4,4h50
	c2,0,4-2,4-4V5c0-2-2-4-4-4H5C3,1,1,3,1,5v8 M29,41H11 M49,25c0-1.1-0.9-2-2-2s-2,0.9-2,2c0,1.1,0.9,2,2,2S49,26.1,49,25z M29,25H11
	 M49,9c0-1.1-0.9-2-2-2s-2,0.9-2,2s0.9,2,2,2S49,10.1,49,9z M29,9H11"/>
</svg>
