<?xml version="1.0" encoding="utf-8"?>
<!-- Generator: Adobe Illustrator 24.1.1, SVG Export Plug-In . SVG Version: 6.00 Build 0)  -->
<svg version="1.1" id="Layer_1" xmlns="http://www.w3.org/2000/svg" xmlns:xlink="http://www.w3.org/1999/xlink" x="0px" y="0px"
	 viewBox="0 0 61.23 54.55" style="enable-background:new 0 0 61.23 54.55;" xml:space="preserve">
<style type="text/css">
	.st0{fill:#22ADF6;}
</style>
<g>
	<g>
		<path class="st0" d="M52.87,27.39c-4.23,0-7.73,3.16-8.28,7.24c-2.62-0.39-9.66-1.87-12.17-6.5c-0.22,0.83-0.51,1.6-0.85,2.34
			c3.51,4.5,10.52,5.84,12.99,6.18c0.45,4.19,4,7.47,8.31,7.47c4.61,0,8.36-3.75,8.36-8.36S57.48,27.39,52.87,27.39z M52.87,42.11
			c-3.51,0-6.36-2.85-6.36-6.36c0-3.51,2.85-6.36,6.36-6.36c3.51,0,6.36,2.85,6.36,6.36C59.23,39.26,56.38,42.11,52.87,42.11z"/>
	</g>
	<path class="st0" d="M38.27,10.77L31.45,0.45c-0.03-0.05-0.07-0.08-0.11-0.12c-0.01-0.01-0.02-0.03-0.04-0.04
		c-0.08-0.08-0.17-0.14-0.28-0.19c-0.02-0.01-0.05-0.02-0.07-0.03C30.86,0.03,30.74,0,30.62,0c0,0,0,0,0,0
		c-0.12,0-0.24,0.03-0.35,0.07c-0.02,0.01-0.04,0.02-0.07,0.03c-0.1,0.05-0.19,0.11-0.28,0.19c-0.01,0.01-0.03,0.03-0.04,0.05
		c-0.03,0.04-0.07,0.07-0.1,0.11l-6.82,10.15c-0.31,0.46-0.19,1.08,0.27,1.39c0.46,0.31,1.08,0.19,1.39-0.27l4.99-7.42v18.29
		c0,3.77-1.12,6.73-3.32,8.79c-3.15,2.95-7.75,3.36-9.64,3.4c-0.49-4.15-4.02-7.37-8.3-7.37C3.75,27.39,0,31.14,0,35.75
		s3.75,8.36,8.36,8.36c4.27,0,7.79-3.21,8.29-7.35c2.15-0.03,7.31-0.49,11-3.94c2.63-2.46,3.96-5.91,3.96-10.26V4.33l4.98,7.54
		c0.19,0.29,0.51,0.45,0.83,0.45c0.19,0,0.38-0.05,0.55-0.17C38.45,11.85,38.57,11.23,38.27,10.77z M8.36,42.11
		C4.85,42.11,2,39.26,2,35.75c0-3.51,2.85-6.36,6.36-6.36s6.36,2.85,6.36,6.36C14.73,39.26,11.87,42.11,8.36,42.11z"/>
	<path class="st0" d="M29.62,33.37v4.52c-4.14,0.5-7.36,4.03-7.36,8.3c0,4.61,3.75,8.36,8.36,8.36s8.36-3.75,8.36-8.36
		c0-4.27-3.22-7.8-7.36-8.3v-5.46v-2.07C31.62,30.36,31.03,31.71,29.62,33.37z M30.62,52.55c-3.51,0-6.36-2.85-6.36-6.36
		c0-3.51,2.85-6.36,6.36-6.36c3.51,0,6.36,2.85,6.36,6.36C36.98,49.69,34.13,52.55,30.62,52.55z"/>
</g>
</svg>
