<?xml version="1.0" encoding="utf-8"?>
<!-- Generator: Adobe Illustrator 24.1.1, SVG Export Plug-In . SVG Version: 6.00 Build 0)  -->
<svg version="1.1" id="Layer_1" xmlns="http://www.w3.org/2000/svg" xmlns:xlink="http://www.w3.org/1999/xlink" x="0px" y="0px"
	 viewBox="0 0 60 56" style="enable-background:new 0 0 60 56;" xml:space="preserve">
<style type="text/css">
	.st0{fill-rule:evenodd;clip-rule:evenodd;fill:#22ADF6;}
</style>
<g id="Network">
	<g id="Icon-17" transform="translate(0.000000, -2.000000)">
		<path id="cloud-share" class="st0" d="M39,44H19c-3.86,0-7-3.14-7-7c0-2.8,1.63-5.27,4.13-6.38C16.04,30.07,16,29.53,16,29
			c0-6.07,4.93-11,11-11c3.73,0,7.18,1.87,9.22,5c0.3,0.46,0.17,1.08-0.29,1.38s-1.08,0.17-1.38-0.29C32.88,21.53,30.06,20,27,20
			c-4.96,0-9,4.04-9,9c0,0.66,0.08,1.34,0.24,2.03c0.12,0.51-0.18,1.03-0.68,1.18C15.46,32.85,14,34.81,14,37c0,2.76,2.24,5,5,5h20
			c3.86,0,7-3.14,7-7s-3.14-7-7-7c-1.62,0-3.2,0.57-4.45,1.6c-0.42,0.35-1.06,0.29-1.41-0.14c-0.35-0.42-0.29-1.06,0.13-1.41
			C34.88,26.73,36.92,26,39,26c4.96,0,9,4.04,9,9S43.96,44,39,44L39,44z M46,56c-1.1,0-2-0.9-2-2s0.9-2,2-2s2,0.9,2,2S47.1,56,46,56
			L46,56z M46,50c-0.56,0-1.08,0.12-1.57,0.32l-3.66-4.42c-0.35-0.42-0.98-0.48-1.41-0.13c-0.42,0.35-0.49,0.98-0.13,1.41l3.63,4.38
			C42.33,52.23,42,53.08,42,54c0,2.21,1.79,4,4,4s4-1.79,4-4S48.21,50,46,50L46,50z M14,56c-1.1,0-2-0.9-2-2s0.9-2,2-2s2,0.9,2,2
			S15.1,56,14,56L14,56z M20.3,45.83l-4.66,4.54C15.14,50.13,14.59,50,14,50c-2.21,0-4,1.79-4,4s1.79,4,4,4s4-1.79,4-4
			c0-0.89-0.3-1.7-0.79-2.37l4.49-4.37c0.4-0.38,0.4-1.02,0.02-1.41C21.33,45.45,20.7,45.44,20.3,45.83L20.3,45.83z M56,26
			c-1.1,0-2-0.9-2-2s0.9-2,2-2s2,0.9,2,2S57.1,26,56,26L56,26z M56,20c-2.21,0-4,1.79-4,4c0,0.13,0.03,0.24,0.04,0.37l-4.4,1.7
			c-0.51,0.2-0.77,0.78-0.57,1.29C47.22,27.76,47.6,28,48,28c0.12,0,0.24-0.02,0.36-0.07l4.34-1.68C53.42,27.31,54.63,28,56,28
			c2.21,0,4-1.79,4-4S58.21,20,56,20L56,20z M4,26c-1.1,0-2-0.9-2-2s0.9-2,2-2s2,0.9,2,2S5.1,26,4,26L4,26z M13.22,28.56
			c0.12,0.05,0.24,0.07,0.36,0.07c0.4,0,0.78-0.24,0.93-0.64c0.2-0.51-0.06-1.09-0.57-1.29l-5.98-2.33C7.97,24.25,8,24.13,8,24
			c0-2.21-1.79-4-4-4s-4,1.79-4,4s1.79,4,4,4c1.37,0,2.58-0.69,3.3-1.74L13.22,28.56z M30,4c1.1,0,2,0.9,2,2s-0.9,2-2,2s-2-0.9-2-2
			S28.9,4,30,4L30,4z M29,9.86v5.73c0,0.55,0.45,1,1,1s1-0.45,1-1V9.86c1.72-0.45,3-2,3-3.86c0-2.21-1.79-4-4-4s-4,1.79-4,4
			C26,7.86,27.28,9.41,29,9.86L29,9.86z"/>
	</g>
</g>
</svg>
