<svg id="Layer_1" xmlns="http://www.w3.org/2000/svg" xmlns:xlink="http://www.w3.org/1999/xlink" viewBox="0 0 122.5 34.5" width="2500" height="704"><style>.st0{fill:#061d2f}.st1{clip-path:url(#SVGID_4_)}</style><title>Group 3</title><path id="SVGID_1_" class="st0" d="M8.7 24c-1.1 0-2.1-.9-2.1-2s.9-2 2.1-2 2.1.9 2.1 2-1 2-2.1 2zm25.8-10.9c-.2-1.6-1.2-2.9-2.5-3.9l-.5-.4-.4.5c-.8.9-1.1 2.5-1 3.7.1.9.4 1.8.9 2.5-.4.2-.9.4-1.3.6-.9.3-1.8.4-2.7.4H1.1l-.1.6c-.2 1.9.1 3.9.9 5.7l.4.7v.1c2.4 4 6.7 5.8 11.4 5.8 9 0 16.4-3.9 19.9-12.3 2.3.1 4.6-.5 5.7-2.7l.3-.5-.5-.3c-1.3-.8-3.1-.9-4.6-.5zm-12.9-1.6h-3.9v3.9h3.9v-3.9zm0-4.9h-3.9v3.9h3.9V6.6zm0-5h-3.9v3.9h3.9V1.6zm4.8 9.9h-3.9v3.9h3.9v-3.9zm-14.5 0H8v3.9h3.9v-3.9zm4.9 0h-3.9v3.9h3.9v-3.9zm-9.7 0H3.2v3.9h3.9v-3.9zm9.7-4.9h-3.9v3.9h3.9V6.6zm-4.9 0H8v3.9h3.9V6.6z"/><defs><path id="SVGID_2_" d="M8.7 24c-1.1 0-2.1-.9-2.1-2s.9-2 2.1-2 2.1.9 2.1 2-1 2-2.1 2zm25.8-10.9c-.2-1.6-1.2-2.9-2.5-3.9l-.5-.4-.4.5c-.8.9-1.1 2.5-1 3.7.1.9.4 1.8.9 2.5-.4.2-.9.4-1.3.6-.9.3-1.8.4-2.7.4H1.1l-.1.6c-.2 1.9.1 3.9.9 5.7l.4.7v.1c2.4 4 6.7 5.8 11.4 5.8 9 0 16.4-3.9 19.9-12.3 2.3.1 4.6-.5 5.7-2.7l.3-.5-.5-.3c-1.3-.8-3.1-.9-4.6-.5zm-12.9-1.6h-3.9v3.9h3.9v-3.9zm0-4.9h-3.9v3.9h3.9V6.6zm0-5h-3.9v3.9h3.9V1.6zm4.8 9.9h-3.9v3.9h3.9v-3.9zm-14.5 0H8v3.9h3.9v-3.9zm4.9 0h-3.9v3.9h3.9v-3.9zm-9.7 0H3.2v3.9h3.9v-3.9zm9.7-4.9h-3.9v3.9h3.9V6.6zm-4.9 0H8v3.9h3.9V6.6z"/></defs><clipPath id="SVGID_4_"><use xlink:href="#SVGID_2_" overflow="visible"/></clipPath><g class="st1"><path id="SVGID_3_" class="st0" d="M-48.8-21H1226v151.4H-48.8z"/></g><path id="docker_2_" class="st0" d="M101.9 21.6c1.7-1.5 3.4-2.9 5.1-4.4.6-.5 1.2-1 1.8-1.6-.5-.6-1.2-1-1.9-1.3-1.3-.5-2.6-.3-3.9.4-1.6.9-2.3 2.4-2.2 4.2 0 .7.2 1.4.6 2 .3.3.4.5.5.7m2 1.4c.8.3 1.8.3 2.7.1.4-.2 1.6-.7 2-.6h.2c.3.1.5.3.6.6.3.6.2 1.2-.4 1.5l-.2.1c-2.2 1.3-4.5 1.1-6.7-.1-1-.6-1.8-1.4-2.4-2.4l-.1-.2c-1.4-2.4-1.2-5 .4-7.3.5-.8 1.3-1.4 2.1-1.9l.3-.2c2.1-1.2 4.3-1.1 6.4-.1 1.1.6 2.1 1.4 2.7 2.5l.1.2c.5.8-.1 1.5-.8 2l-2.1 1.8c-1.8 1.4-3.3 2.7-4.8 4zm16.3-11h.2c.7 0 1.2.5 1.2 1.2 0 1-.9 1.2-1.7 1.2-1 0-2 .6-2.7 1.3-.9.9-1.3 2-1.3 3.2v5.6c0 .6-.4 1.2-1.1 1.2h-.2c-.7 0-1.1-.5-1.1-1.2v-5.9c0-2.3 1.1-4.1 2.9-5.4 1.3-.8 2.5-1.2 3.8-1.2zm-28.6 3.9l2.7-2.7c.3-.2 1.2-1.3 1.6-1.3h.4c.5.1.9.4.9 1v.2c0 .4-.5.8-.7 1.1-.5.6-1.1 1.1-1.6 1.7l-2.8 2.8 3.6 3.6 1 1 .4.4c.1.2.2.3.2.5V24.5c-.1.5-.5.9-1 .9h-.2c-.4 0-.8-.4-1.1-.7-.5-.5-1.1-1-1.6-1.6l-1.8-1.7v2.8c0 .6-.4 1.2-1.1 1.2h-.2c-.7 0-1.1-.5-1.1-1.2V8.8c0-.6.4-1.1 1.1-1.1h.2c.7 0 1.1.5 1.1 1.1v7.1zm-7.4-1.5c-.3-.2-1-.2-1.4-.2-1.9-.1-3.3 1-4.1 2.7-.3.6-.4 1.2-.4 1.9 0 2 1 3.4 2.8 4.2.6.3 1.5.4 2.2.4.6 0 1.5-.4 2-.6h.5c.5.1.9.4.9 1v.2c0 1.4-2.6 1.7-3.5 1.8-3.4.2-6-1.7-7-4.9-.2-.6-.2-1.1-.2-1.7v-.5c0-2.5 1.2-4.5 3.4-5.7 1-.6 2.1-.9 3.3-.9h.5c1.2 0 2.4.3 3.4 1l.1.1.1.1c.1.2.2.4.2.6v.2c0 .6-.4.9-1 1h-.1c-.7-.2-1.5-.6-1.7-.7zm-21 4.3c0 1.7.9 3 2.3 3.9.7.4 1.5.6 2.3.6 1.7 0 3-.9 3.9-2.3.4-.7.6-1.5.6-2.3 0-1.6-.8-2.9-2.1-3.8-.7-.5-1.6-.7-2.4-.7-1.9 0-3.3 1-4.1 2.7-.5.7-.5 1.3-.5 1.9zm4.2-6.8h.3c2.7 0 4.7 1.3 6 3.6.5.9.8 1.9.8 3v.5c0 2.5-1.2 4.5-3.4 5.7-1 .6-2.1.9-3.3.9h-.5c-2.5 0-4.5-1.2-5.7-3.4-.6-1-.9-2.1-.9-3.3v-.5c0-2.5 1.2-4.5 3.4-5.7 1.1-.5 2.1-.8 3.3-.8zM48 18.7c0 1.8.9 3.2 2.5 4 .6.3 1.3.5 2.1.5 1.8 0 3.1-.8 4-2.3.4-.7.6-1.5.6-2.3 0-1.6-.7-2.8-2-3.7-.8-.5-1.6-.8-2.6-.8-1.9 0-3.3 1-4.1 2.7-.3.7-.5 1.3-.5 1.9zm9.2-5.1V8.7c0-.6.4-1.2 1.1-1.2h.2c.7 0 1.1.5 1.1 1.2V19c0 2.5-1.2 4.5-3.4 5.7-1 .6-2.1.9-3.3.9h-.5c-2.5 0-4.5-1.2-5.7-3.4-.6-1-.9-2.1-.9-3.3v-.5c0-2.5 1.2-4.5 3.4-5.7 1-.6 2.1-.9 3.3-.9h.5c1.5.1 3 .7 4.2 1.8z"/></svg>