<?xml version="1.0" encoding="utf-8"?>
<!-- Generator: Adobe Illustrator 24.2.0, SVG Export Plug-In . SVG Version: 6.00 Build 0)  -->
<svg version="1.1" id="Layer_1" xmlns="http://www.w3.org/2000/svg" xmlns:xlink="http://www.w3.org/1999/xlink" x="0px" y="0px"
	 viewBox="0 0 1316 1126" style="enable-background:new 0 0 1316 1126;" xml:space="preserve">
<style type="text/css">
	.st0{fill:#0296F3;}
	.st1{fill:#0095F3;}
	.st2{fill:#0096F3;}
	.st3{fill:#0196F3;}
	.st4{fill:#0397F3;}
	.st5{fill:#119CF4;}
	.st6{fill:#129DF4;}
</style>
<g id="_x30_g7aUg.tif">
	<g>
		<g>
			<path class="st0" d="M0,1001.9c1.3-6,2.4-12,3.9-17.8c12.1-45.9,55.5-79.9,102.8-81.3c26.6-0.8,50.7,6,72,22.1
				c0.5,0.4,1.1,0.7,2.4,1.5c0.1-2.2,0.3-3.9,0.3-5.6c0-30.5,0-61,0-91.5c0-13.6,8.4-22.4,20.8-22.4c12.3,0,20.8,8.8,20.8,21.8
				c0,51.6,0.1,103.3,0,154.9c0,15.1,0.6,30.4-1.1,45.4c-5.2,46.3-40.5,84-86.8,94.2c-56.2,12.3-113.7-21.2-130.3-76.1
				c-2.1-6.9-3.2-14.2-4.8-21.3C0,1017.9,0,1009.9,0,1001.9z M181.3,1014.1c0-38.2-31.4-69.7-69.5-69.9c-38.5-0.2-70,31.1-70.1,69.7
				c-0.1,38.7,31,70,69.6,70C150,1084,181.3,1052.7,181.3,1014.1z"/>
			<path class="st1" d="M764.9,0c3.9,2.4,5.1,5.9,5.1,10.5c-0.2,24.6-0.1,49.3-0.1,73.9c0,7.3-2.5,9.9-9.9,9.9
				c-28.1,0-56.3,0-84.4,0c-7.4,0-9.8-2.5-9.8-10c0-24.6,0.1-49.3-0.1-73.9c0-4.6,1.2-8.1,5.2-10.5C702.2,0,733.6,0,764.9,0z"/>
			<path class="st2" d="M977.7,323.2c-18.9-30.1-24.7-62.5-19.6-96.8c4.8-32.4,17.7-61.5,38-87.9c46.7,25.1,76.5,62.4,86.2,114.9
				c11.8-1,23.5-2.3,35.3-2.8c22.6-0.9,44.9,1.7,66.3,9.5c11.1,4,21.1,9.9,29.7,17.9c1.1,1,1.5,3.8,1,5.4
				c-13.5,41.1-41.9,67.9-81.4,83.6c-21.3,8.5-43.8,11.3-66.6,10.8c-4.5-0.1-6.2,1.4-7.8,5.4c-17.8,44.8-38.7,88-65.7,128.1
				c-63.9,95-151.8,156.2-261.6,186.8c-44,12.2-88.8,18.9-134.3,21.1c-39.2,1.9-78.3,0.7-117.2-4.2c-36.1-4.6-71.4-12.5-105.3-26.1
				C325.2,668.8,289.1,634,263,588.1c-22.1-38.9-35.2-81-43-124.9c-5.2-29.1-7.1-58.5-7.8-88c-0.5-21.1,15.2-34.7,34.6-34.7
				c218,0.3,435.9,0.3,653.9,0.1c24.5,0,48.3-4.8,70.9-14.5C973.4,325.3,975.2,324.4,977.7,323.2z"/>
			<path class="st3" d="M946.4,1035.1c3.2,11.3,8.9,20.2,16.4,27.9c26,26.9,70.5,28.6,97,3.5c9.5-9,22.2-8.7,30.3,0.1
				c8,8.7,7.1,22.2-2.3,30.8c-23.4,21.4-51.3,30.2-82.6,28.3c-45.2-2.8-85.5-34.8-98.8-78.1c-19.8-64.9,21.7-132.1,88.5-143.4
				c60.9-10.3,119.3,31.7,128.7,92.5c0.7,4.8,1.1,9.6,1.2,14.4c0.4,16.1-7.5,23.9-23.7,23.9c-43.7,0-87.3,0-131,0
				C962.5,1035.1,954.9,1035.1,946.4,1035.1z M947,993.5c44.2,0,88.4,0,132.6,0c-3.6-26.2-37.4-49.9-69.2-48.8
				C973.6,946,949.6,975.2,947,993.5z"/>
			<path class="st3" d="M769.5,1017c-7.6,5-15,9.6-22,14.6c-1.4,1-2.2,3.6-2.2,5.4c-0.2,22.3,0,44.6-0.1,67
				c-0.1,11.3-6.7,19.4-17.1,21.4c-11.8,2.3-23.4-6.6-24.2-18.6c-0.2-2.2-0.1-4.3-0.1-6.5c0-89.3,0-178.6,0-267.9
				c0-3.3-0.1-6.7,0.6-9.9c2.3-9.7,12.1-16.4,22.3-15.4c10,1,18.1,9.1,18.4,19.1c0.3,11.2,0.2,22.3,0.2,33.5c0,40.8,0,81.6,0,123.4
				c2.1-1.3,3.8-2.2,5.3-3.2c37.5-24.4,75.1-48.8,112.6-73.2c10.9-7.1,23.7-4.5,30.1,5.9c6.2,10,3.6,21.9-6.3,28.4
				c-25.7,16.7-51.4,33.4-77.1,50c-1.5,1-3,2-4.7,3.2c12.3,13.8,24.2,27.3,36.1,40.7c16.4,18.4,32.8,36.8,49.1,55.3
				c7.1,8,8,17.5,2.8,25.7c-5.1,8.1-14.1,11.9-23.3,8.9c-3.9-1.3-7.7-4-10.5-7.1c-28.6-31.8-57-63.9-85.5-95.8
				C772.6,1020.4,771.2,1018.9,769.5,1017z"/>
			<path class="st3" d="M356.5,902.7c62.3,0.1,111.5,49.6,111.4,112c-0.1,61.7-49.9,111.1-111.9,111.1
				c-62.1-0.1-111.4-49.7-111.2-112.1C245,951.5,294.2,902.6,356.5,902.7z M426.1,1014.2c0-38.4-31.5-70-69.9-70
				c-38.2,0-69.5,31.2-69.8,69.6c-0.3,38.4,31.2,70.1,69.7,70.1C394.7,1084,426,1052.8,426.1,1014.2z"/>
			<path class="st0" d="M600.7,902.7c27.1-0.2,50.9,8.5,71.5,26.1c7.4,6.3,9.7,14.2,7.1,23.3c-3.9,13.7-20.6,18.6-32.6,10
				c-4.5-3.2-8.8-6.7-13.5-9.3c-42.8-24.2-98.6,5.5-102.4,54.4c-2.4,30.4,9.8,54,36.6,68.3c26.7,14.3,52.9,11.5,77-7.4
				c9.9-7.8,23.2-7.2,30.6,1.6c7.7,9.1,6.1,22.1-3.7,30.6c-40,34.6-102.6,34.2-143.5-1.4c-33.1-28.9-45.3-65.9-36.3-108.5
				c8.8-41.5,35.2-69,75.3-82.6c10.7-3.6,22.4-4.3,33.6-6.3C600.5,901.9,600.6,902.3,600.7,902.7z"/>
			<path class="st0" d="M1189.3,926.7c2.1-1.4,3.8-2.6,5.5-3.8c24.1-17.1,51-22.6,80.1-19.4c11.2,1.3,22.1,3.3,31.6,9.9
				c9.4,6.6,12.1,17.2,7,26.8c-5.2,9.8-15.6,13.6-26.4,9.5c-16.6-6.4-33.4-7.3-50.3-1.7c-28.5,9.4-47.6,35.8-47.8,65.9
				c-0.1,30.5,0,61-0.1,91.5c0,9.3-6.3,17.3-14.9,19.7c-9.4,2.6-19.1-1-23.7-9.4c-1.9-3.5-3.1-7.9-3.1-11.9
				c-0.2-59.7-0.2-119.3-0.1-179c0-11.7,7.6-20.7,17.8-21.8c11.2-1.2,20.6,4.8,23.2,15.2C1188.9,920.6,1188.9,923.3,1189.3,926.7z"
				/>
			<path class="st4" d="M471.2,208c-14,0-28,0-42,0c-7,0-9.9-2.7-9.9-9.6c-0.1-25.1-0.1-50.3,0-75.4c0-6.7,2.8-9.5,9.5-9.5
				c28.5-0.1,56.9-0.1,85.4,0c6.6,0,9.3,2.8,9.4,9.6c0.1,25.1,0.1,50.3,0,75.4c0,6.6-2.9,9.5-9.5,9.5C499.8,208,485.5,208,471.2,208
				z"/>
			<path class="st4" d="M595.2,208c-14,0-28,0-42,0c-7.2,0-10-2.7-10-10c-0.1-24.8-0.1-49.6,0-74.4c0-7.4,2.7-10.1,9.9-10.1
				c28.1-0.1,56.3,0,84.4,0c7.3,0,10,2.7,10,10c0.1,24.8,0,49.6,0,74.4c0,7.5-2.8,10.1-10.4,10.1C623.2,208,609.2,208,595.2,208z"/>
			<path class="st0" d="M471.5,227c14.2,0,28.3,0,42.5,0c6.9,0,9.6,2.7,9.7,9.7c0,25,0.1,50,0,74.9c0,7-2.6,9.8-9.7,9.8
				c-28.3,0.1-56.6,0.1-84.9,0c-7,0-9.7-2.8-9.7-9.8c-0.1-25-0.1-50,0-74.9c0-7,2.8-9.7,9.7-9.7C443.2,227,457.3,227,471.5,227z"/>
			<path class="st0" d="M595.9,227c14,0,28,0,42,0c6.9,0,9.7,2.7,9.7,9.7c0.1,25,0.1,50,0,74.9c0,7-2.7,9.8-9.7,9.8
				c-28.3,0.1-56.6,0.1-84.9,0c-7,0-9.7-2.8-9.8-9.7c-0.1-25-0.1-50,0-74.9c0-7.1,2.9-9.8,10.2-9.8C567.6,227,581.7,227,595.9,227z"
				/>
			<path class="st0" d="M349.5,227c14.2,0,28.3,0,42.5,0c6.7,0,9.5,2.7,9.6,9.3c0.1,25.3,0.1,50.6,0,75.9c0,6.4-2.8,9.1-9.2,9.2
				c-28.6,0.1-57.3,0.1-85.9,0c-6.4,0-9.1-2.9-9.1-9.3c-0.1-25.3-0.1-50.6,0-75.9c0-6.3,2.9-9.1,9.3-9.1
				C320.8,227,335.2,227,349.5,227z"/>
			<path class="st0" d="M841.6,227c14,0,28,0,42,0c7.3,0,10,2.6,10,9.9c0,24.8,0,49.6,0,74.4c0,7.4-2.6,10.1-9.9,10.1
				c-28.1,0.1-56.3,0.1-84.4,0c-7.3,0-10-2.7-10-10c-0.1-24.8-0.1-49.6,0-74.4c0-7.6,2.7-10,10.4-10C813.7,227,827.7,227,841.6,227z
				"/>
			<path class="st3" d="M717.9,208c-13.8,0-27.6,0-41.5,0c-8,0-10.6-2.4-10.6-10.3c0-24.6,0-49.3,0-73.9c0-7.7,2.4-10.3,10.1-10.3
				c28,0,55.9,0,83.9,0c7.6,0,10.1,2.6,10.1,10.3c0,24.5,0,49,0,73.4c0,8.3-2.4,10.8-10.6,10.8C745.5,208,731.7,208,717.9,208z"/>
			<path class="st1" d="M717.9,321.3c-14,0-28,0-41.9,0c-7.7,0-10.1-2.4-10.1-10.1c0-24.6,0-49.3,0-73.9c0-7.7,2.5-10.3,10-10.3
				c28,0,55.9,0,83.9,0c7.6,0,10.1,2.5,10.1,10.2c0,24.8,0,49.6,0,74.4c0,7.1-2.6,9.7-9.5,9.7C746.2,321.4,732.1,321.3,717.9,321.3z
				"/>
			<path class="st5" d="M1239,1095.4c8.2,0,14.7,6.3,14.8,14.3c0.1,8.1-6.3,14.5-14.5,14.7c-8.3,0.1-15.2-6.5-15.2-14.6
				C1224.2,1101.9,1230.9,1095.5,1239,1095.4z M1245.8,1118c4.2-3,5.4-7.9,3.1-13c-2.3-5-7.4-7.4-12.8-6c-4.4,1.1-7.8,5.4-8.1,10.3
				c-0.3,4.8,2.5,9.7,6.9,11.1C1238.8,1121.6,1243,1122.3,1245.8,1118L1245.8,1118z"/>
			<path class="st6" d="M1245.9,1117.9c-1.5-1.2-3-2.4-4.4-3.6c-1.2-1-2.3-2-3.4-3.1c-1.2,2.7-2,4.4-2.8,6.2c-0.6-2-1.4-3.9-1.6-6
				c-0.3-2.6-0.1-5.3-0.1-8.5c3,0,5.8-0.3,8.5,0.2c1.2,0.2,3.2,2.8,3,3.1C1242,1110.4,1246,1114.1,1245.9,1117.9
				C1245.8,1118,1245.9,1117.9,1245.9,1117.9z"/>
		</g>
	</g>
</g>
</svg>
