<?xml version="1.0" encoding="utf-8"?>
<!-- Generator: Adobe Illustrator 22.1.0, SVG Export Plug-In . SVG Version: 6.00 Build 0)  -->
<svg version="1.1" id="Ebene_1" xmlns="http://www.w3.org/2000/svg" xmlns:xlink="http://www.w3.org/1999/xlink" x="0px" y="0px"
	 viewBox="0 0 500 200.1" style="enable-background:new 0 0 500 200.1;" xml:space="preserve">
<style type="text/css">
	.st0{fill:#4B9BD7;}
</style>
<g>
	<g>
		<path d="M78.5,191.6c-6.9-5.7-10.4-13-10.4-21.6c0-19.2,17.4-29.9,36.3-29.9s36.4,10.6,36.4,29.9c0,19.2-17.5,30.1-36.4,30.1
			C94.1,200,85.4,197.3,78.5,191.6 M119.7,181.4c3.8-3,5.6-6.8,5.6-11.5c0-10.9-10.5-16.2-20.9-16.2s-20.8,5.2-20.8,16.2
			s10.4,16.2,20.8,16.2C110.9,186.1,115.9,184.5,119.7,181.4"/>
		<path d="M173.7,198.4c-1.4,0-2.8-1.1-3.2-1.8c-12.1-21.9-23.8-42.9-28.2-51.1c-0.9-1.6,0.3-4.2,3.5-4.2h9.7c1.7,0,2.5,0.5,3.2,1.8
			l17.6,32.1l17.3-32c0.7-1.6,2-1.8,3.2-1.8h10c2.8,0,3.7,2.9,2.9,4.3c-1.4,2.4-16.4,29.5-27.5,50.9c-0.4,0.7-1.5,1.8-3.2,1.8
			L173.7,198.4L173.7,198.4z"/>
		<path d="M218.6,144.6c0-1.7,1.6-3.2,3.4-3.2h50.3c1.8,0,3.4,1.5,3.4,3.2v6.5c0,1.7-1.6,3.2-3.4,3.2h-38.5v8h24.1
			c1.8,0,3.4,1.5,3.4,3.2v6.3c0,1.7-1.6,3.2-3.4,3.2h-24.1v10.5h40.9c1.8,0,3.4,1.5,3.4,3.2v6.3c0,1.7-1.6,3.2-3.4,3.2H222
			c-1.8,0-3.4-1.5-3.4-3.2V144.6z"/>
		<path d="M339.2,196.1c-5.5,2.6-11.7,3.9-18.5,3.9c-18.8,0-35.9-10.9-35.9-29.9s17.1-30.1,35.9-30.1c11.7,0,23.3,4.1,30.3,13.2
			c1,1.2,0.9,2.6-0.7,4c-0.9,0.7-5.3,3.6-6.8,4.5s-3.7,1-4.7-0.3c-4.2-5.4-11.2-7.6-18.1-7.6c-10.2,0-20.4,5.5-20.4,16.2
			c0,10.6,10.2,16.2,20.4,16.2c11.4,0,17.9-7.6,19.2-9.4c1.3-1.8,3.1-2.2,5.1-1c0.9,0.6,6.4,4.1,7.3,4.9c0.9,0.8,1.3,2.2,0.3,3.6
			C349.1,189.3,344.7,193.4,339.2,196.1"/>
		<path d="M372.2,191.6c-6.9-5.7-10.4-13-10.4-21.6c0-19.2,17.4-29.9,36.3-29.9s36.4,10.6,36.4,29.9c0,19.2-17.5,30.1-36.4,30.1
			C387.8,200,379.1,197.3,372.2,191.6 M413.4,181.4c3.8-3,5.6-6.8,5.6-11.5c0-10.9-10.5-16.2-20.9-16.2s-20.8,5.2-20.8,16.2
			s10.4,16.2,20.8,16.2C404.6,186.1,409.6,184.5,413.4,181.4"/>
		<path d="M462.1,154.9h-19.2c-1.8,0-3.4-1.5-3.4-3.2v-7c0-1.7,1.6-3.2,3.4-3.2h53.7c1.8,0,3.4,1.5,3.4,3.2v7c0,1.7-1.6,3.2-3.4,3.2
			h-19.2v40.3c0,1.7-1.6,3.2-3.4,3.2h-8.4c-1.8,0-3.4-1.5-3.4-3.2v-40.3H462.1z"/>
		<path d="M15.2,155.1v29.6h12.1c10.1,0,17.1-4.8,17.1-14.7c0-9.5-7.4-14.8-17.1-14.8H15.2V155.1z M50.8,149.3
			c6.1,5.4,9.1,12.4,9.1,20.8c0,18.3-14.2,28.4-32.7,28.4H3.4c-1.8,0-3.4-1.5-3.4-3.2v-50.6c0-1.7,1.6-3.2,3.4-3.2h23.8
			C36.7,141.3,44.7,143.9,50.8,149.3"/>
	</g>
	<path class="st0" d="M344.1,3.1L427.7,67c3.7,2.8,3.7,8.3,0,11.1l-46.6,35.7c-3.6,2.7-8.6,2.7-12.1,0l-73-55.7
		c-3.6-2.7-8.5-2.7-12.1,0l-74.8,57c-2.5,1.9-6,1.9-8.5,0l-5.4-4.1c-2.6-2-2.6-5.9,0-7.9l130.7-100C331.3-1,338.7-1,344.1,3.1z"/>
	<path class="st0" d="M247.7,44.1l-53.6-41c-5.4-4.1-12.8-4.1-18.2,0L45.2,103c-2.6,2-2.6,5.9,0,7.9l5.4,4.1c2.5,1.9,6,1.9,8.5,0
		l64.8-49.4c3.6-2.7,8.6-2.7,12.1,0l42.9,32.8c3.6,2.7,8.6,2.7,12.1,0l56.7-43.3C251.4,52.4,251.4,46.9,247.7,44.1z"/>
</g>
</svg>
