<svg xmlns="http://www.w3.org/2000/svg" viewBox="5.64 9.06 64 64" width="64" height="64">
    <g transform="matrix(.33264 0 0 .33264 -10.559584 6.299086)">
        <path
            d="M59 182.3l40.6-74.8L59 26.7l-10.3 5.1v145.4zm98.6-118.1L90.3 52.9l15.2-21.4 68 30.2zm.8 80.3l-79.8 13.1 16.7 23 78.2-33.8z"
            fill="#9d5125" />
        <path d="M83 32.2v144.5l-24 5.6V26.7z" fill="#f58534" />
        <path d="M83 194.3L70.4 188V21L83 14.7l23.7 99.9zm90.5-132.6l-16 2.5v80.1l16 2.5 14.6-40.7z" fill="#9d5125" />
        <g fill="#f58534">
            <path d="M107.5 21.7v165.7L83 194.3V14.7z" />
            <path d="M190.2 164v-20.3L83 163.6v30.7zm.2-118.8v19.7L83 44.5V14.7z" />
            <path d="M173.5 168.7V40.4l17.2 4.7V164z" />
        </g>
        <path d="M225.3 52.3l15.8 36.5L195 91l-16.3-1.1z" fill="#6b3b19" />
        <path d="M178.7 59.9v30l46.6-2.7V52.3z" fill="#9d5125" />
        <path d="M157.1 88.4l-22.3-1.5 47.3-47.6 24 46z" fill="#6b3b19" />
        <g fill="#9d5125">
            <path d="M134.8 50.3v36.6l47.3-4V39.3zm43.9 99.5v-30l62.4 1-15.8 36.5z" />
            <path d="M134.8 159.3v-36.6l71.3 1.6-24 46z" />
        </g>
        <path d="M157.1 121.2l-22.3 1.5 47.3 4 24-2.4zm68.2 1.2l15.8-1.6-46.1-2.1-16.3 1.1z" fill="#fcbf92" />
        <path
            d="M225.3 52.3v34.9l15.8 1.6V57zm-19.2-5.8v38.8l-24-2.4V39.3zm19.2 110.8v-34.9l15.8-1.6v31.8zm-19.2 5.8v-38.8l-24 2.4v43.6z"
            fill="#f58534" />
    </g>
</svg>