<?xml version="1.0" encoding="utf-8"?>
<!-- Generator: Adobe Illustrator 24.1.1, SVG Export Plug-In . SVG Version: 6.00 Build 0)  -->
<svg version="1.1" id="Layer_1" xmlns="http://www.w3.org/2000/svg" xmlns:xlink="http://www.w3.org/1999/xlink" x="0px" y="0px"
	 viewBox="0 0 56.37 60.82" style="enable-background:new 0 0 56.37 60.82;" xml:space="preserve">
<style type="text/css">
	.st0{fill:none;stroke:#22ADF6;stroke-width:2;stroke-linecap:round;stroke-linejoin:round;stroke-miterlimit:10;}
</style>
<path class="st0" d="M46.99,30.79v5.19c0,0.39-0.19,0.52-0.65,0.65l-3.83,0.84c-0.32,1.1-0.78,2.14-1.3,3.18l2.08,3.31
	c0.19,0.39,0.26,0.65,0,0.91l-3.7,3.7c-0.26,0.26-0.52,0.26-0.91,0l-3.31-2.08c-0.97,0.58-2.08,0.97-3.18,1.3l-0.78,3.76
	c-0.13,0.39-0.26,0.65-0.65,0.65h-5.19c-0.39,0-0.52-0.19-0.65-0.65l-0.84-3.83c-1.1-0.32-2.14-0.78-3.18-1.3l-3.31,2.08
	c-0.39,0.19-0.65,0.26-0.91,0l-3.7-3.7c-0.26-0.26-0.26-0.52,0-0.91l2.08-3.31c-0.52-0.97-0.97-2.08-1.3-3.18l-3.76-0.78
	c-0.39-0.13-0.65-0.26-0.65-0.65v-5.19c0-0.39,0.19-0.52,0.65-0.65l3.83-0.84c0.32-1.1,0.78-2.14,1.3-3.18l-2.08-3.31
	c-0.19-0.39-0.26-0.65,0-0.91l3.7-3.7c0.26-0.26,0.52-0.26,0.91,0l3.31,2.08c0.97-0.58,2.08-0.97,3.18-1.3l0.78-3.76
	c0.13-0.39,0.26-0.65,0.65-0.65h5.19c0.39,0,0.52,0.19,0.65,0.65l0.84,3.83c1.1,0.32,2.14,0.78,3.18,1.3l3.31-2.08
	c0.39-0.19,0.65-0.26,0.91,0l3.7,3.7c0.26,0.26,0.26,0.52,0,0.91l-2.08,3.31c0.58,0.97,0.97,2.08,1.3,3.18l3.76,0.78
	C46.73,30.27,46.99,30.4,46.99,30.79z M32.46,41.82c3.06-1.57,5.17-4.75,5.17-8.44c0-5.23-4.21-9.44-9.44-9.44s-9.44,4.21-9.44,9.44
	c0,4.58,3.22,8.37,7.53,9.25c0.62,0.13,1.25,0.19,1.91,0.19 M25.47,28.9v8.97l7.4-4.48L25.47,28.9z M22.68,10.94l5.55-5.49L21.81,1
	 M55.37,32.64c0,15.01-12.17,27.19-27.19,27.19S1,47.65,1,32.64S13.17,5.45,28.19,5.45"/>
</svg>
