<?xml version="1.0" encoding="utf-8"?>
<!-- Generator: Adobe Illustrator 24.2.0, SVG Export Plug-In . SVG Version: 6.00 Build 0)  -->
<svg version="1.1" id="Layer_1" xmlns="http://www.w3.org/2000/svg" xmlns:xlink="http://www.w3.org/1999/xlink" x="0px" y="0px"
	 viewBox="0 0 115.9 24.2" style="enable-background:new 0 0 115.9 24.2;" xml:space="preserve">
<style type="text/css">
	.st0{fill:#FFFFFF;}
</style>
<g>
	<path class="st0" d="M0,0.4v23.3h4.9v-9.4h11v-4.2h-11V4.8H18V0.4H0z M20.3,0.4h4.9v23.3h-4.9V0.4z M44.5,11.6c1.9,1.1,3,3.2,3,5.3
		c0,3.9-2.5,6.8-8,6.8H27.4V0.4h11.8c5.1,0,7.7,2.8,7.7,6.2C46.8,8.7,45.9,10.8,44.5,11.6 M38.6,9.6c2.2,0,3.3-0.9,3.3-2.6
		s-1.1-2.6-3.3-2.6h-6.3v5.3L38.6,9.6z M38.7,19.5c2.4,0,3.8-0.9,3.8-2.9s-1.2-3-3.7-3h-6.5v5.9L38.7,19.5z M83.5,0.4
		c5.2,0,8.2,2.7,8.2,7.2c0.2,2.6-1.2,5-3.5,6.2l3.5,9.8h-4.9L83.7,15h-7.1v8.8h-4.9V0.4H83.5z M76.6,10.8h6.3c2.9,0,3.9-1.1,3.9-3.1
		c0-2.2-1.2-3-4.4-3h-5.8L76.6,10.8z M115.9,12.1c0,6.9-4,12.1-11.4,12.1s-11.4-5.2-11.4-12.1S97.1,0,104.5,0S115.9,5.2,115.9,12.1
		 M110.9,12.1c0-4.3-2-7.7-6.4-7.7s-6.4,3.4-6.4,7.7s2,7.7,6.4,7.7S110.9,16.4,110.9,12.1 M63.6,17.4h-9.3l-1.9,6.3h-4.8L55,0.4h8
		l7.4,23.3h-5L63.6,17.4z M55.5,13.2h6.7l-2.4-8.1H58L55.5,13.2z"/>
</g>
</svg>
