<svg xmlns="http://www.w3.org/2000/svg" viewBox="0 0 115.9 24.16"><title>logo1</title><g data-name="Warstwa 1"><path d="M0 .42v23.31h4.86v-9.37h10.98v-4.24H4.86V4.77h13.18V.42H0zM20.27.42h4.86v23.31h-4.86zM44.46 11.62a6.09 6.09 0 0 1 3 5.35c0 3.89-2.51 6.76-8 6.76H27.4V.42h11.77c5.13 0 7.67 2.84 7.67 6.17 0 2.09-.91 4.25-2.38 5m-5.88-2c2.19 0 3.27-.88 3.27-2.61s-1.11-2.58-3.3-2.58h-6.28v5.26zm.17 9.93c2.44 0 3.75-.92 3.75-2.88s-1.24-3-3.69-3h-6.54v5.85zM83.52.42c5.19 0 8.19 2.68 8.19 7.25a6.61 6.61 0 0 1-3.46 6.24l3.5 9.82h-4.9L83.72 15h-7.14v8.78h-4.86V.42zM76.58 10.8h6.26c2.87 0 3.91-1.11 3.91-3.06 0-2.19-1.17-3-4.4-3h-5.77zM115.9 12.08c0 6.85-4 12.08-11.36 12.08s-11.36-5.23-11.36-12.08S97.13 0 104.54 0s11.36 5.22 11.36 12.08m-5 0c0-4.31-2-7.74-6.37-7.74s-6.36 3.43-6.36 7.74 2 7.73 6.36 7.73 6.37-3.42 6.37-7.73M63.56 17.43h-9.3l-1.89 6.3h-4.8L55 .42h8l7.44 23.31h-4.99zm-8.05-4.24h6.74l-2.44-8.1H58z"/></g></svg>