<?xml version="1.0" encoding="utf-8"?>
<!-- Generator: Adobe Illustrator 16.2.1, SVG Export Plug-In . SVG Version: 6.00 Build 0)  -->
<!DOCTYPE svg PUBLIC "-//W3C//DTD SVG 1.1//EN" "http://www.w3.org/Graphics/SVG/1.1/DTD/svg11.dtd">
<svg version="1.1" id="Layer_1" xmlns="http://www.w3.org/2000/svg" xmlns:xlink="http://www.w3.org/1999/xlink" x="0px" y="0px"
	 width="312px" height="265.5px" viewBox="0 0 312 265.5" enable-background="new 0 0 312 265.5" xml:space="preserve">
<g>
	<path fill="#EF4023" d="M3.047,221.184c0-6.837,4.116-9.279,8.79-9.069l22.045,1.116v4.046H11.837
		c-3.627,0-3.627,2.023-3.627,3.907v13.952l22.882,0.697v4.116l-22.882,0.698v22.533H3.047V221.184z"/>
	<path fill="#EF4023" d="M40.504,216.369c0-1.046,0.558-1.743,1.674-1.743h3.488c1.046,0,1.604,0.767,1.604,1.743v3.768
		c0,1.047-0.628,1.604-1.604,1.604h-3.488c-0.977,0-1.674-0.628-1.674-1.604V216.369z M41.202,226.137h5.162v37.044h-5.162V226.137z
		"/>
	<path fill="#EF4023" d="M54.943,226.137h3.627l1.535,4.674c4.256-2.441,8.093-5.093,13.813-5.093c2.023,0,4.325,0.14,5.162,0.559
		v5.092c-0.837-0.209-3.139-0.418-5.162-0.418c-5.581,0-8.441,1.465-13.813,4.046v28.185h-5.162V226.137z"/>
	<path fill="#EF4023" d="M98.751,225.857c8.72,0,14.162,0.837,14.162,13.115c0,5.372-2.86,8.512-9.558,8.512H87.729
		c0,8.72,1.605,10.883,7.046,10.883c6.418,0,12.208,0.069,17.441-0.698v3.907c-5.651,1.604-11.65,1.953-17.441,1.953
		c-9.418,0-12.208-4.534-12.208-19.045C82.566,227.95,87.31,225.857,98.751,225.857z M103.355,242.392
		c3.07,0,4.396-1.116,4.396-3.419c0-7.325-1.396-7.953-8.93-7.953c-7.883,0-11.093,0.07-11.093,11.372H103.355z"/>
	<path fill="#EF4023" d="M121.28,212.114h19.673c10.185,0,13.255,7.534,13.255,13.255c0,5.162-1.465,9.767-6.418,11.302
		c3.07,0.697,6.697,4.325,6.697,12.278c0,7.115-2.79,14.231-13.534,14.231H121.28V212.114z M140.954,233.88
		c5.232,0,8.092-2.79,8.092-8.511c0-6.768-4.465-8.093-8.092-8.093h-14.441v16.604H140.954z M140.954,258.019
		c3.349,0,8.372-0.907,8.372-9.209c0-5.162-2.512-9.767-8.372-9.767h-14.441v18.976H140.954z"/>
	<path fill="#EF4023" d="M177.086,225.788c12.488,0,16.325,4.674,16.325,19.394c0,13.743-3.837,18.348-16.325,18.348
		c-12.487,0-16.324-5.093-16.324-18.348C160.762,230.043,164.947,225.788,177.086,225.788z M177.086,258.367
		c7.535,0,11.162-0.977,11.162-13.186c0-13.255-3-14.231-11.162-14.231c-7.813,0-11.162,0.907-11.162,14.231
		C165.924,257.53,169.9,258.367,177.086,258.367z"/>
	<path fill="#EF4023" d="M199.686,250.135c0-5.581,3.487-9.278,9.278-9.278c0,0,15.487,0.069,15.487,0c0,0,0.069-4.604,0-4.674
		c0-4.256-2.232-5.721-5.721-5.721c-5.023,0-11.093,0.349-17.859,0.837v-3.768c4.953-1.395,11.162-2.022,18.068-2.093
		c5.791-0.069,10.674,3.07,10.674,10.744v26.998h-3.837l-1.325-4.465c-0.14,0-9.139,4.884-15.487,4.884
		c-5.093,0-9.278-3.279-9.278-9.209V250.135z M208.964,258.437c5.581,0,15.487-3.558,15.487-3.558v-9.977l-15.487,1.116
		c-3,0.279-4.116,2.303-4.116,4.535v3.488C204.848,257.391,206.592,258.437,208.964,258.437z"/>
	<path fill="#EF4023" d="M237.283,226.137h3.628l1.535,4.674c4.255-2.441,8.092-5.093,13.812-5.093c2.023,0,4.325,0.14,5.163,0.559
		v5.092c-0.838-0.209-3.14-0.418-5.163-0.418c-5.581,0-8.441,1.465-13.812,4.046v28.185h-5.163V226.137z"/>
	<path fill="#EF4023" d="M277.115,225.578c3.14,0,9.209,0.977,13.674,2.791v-19.952h5.093v54.764h-3.697l-1.396-4.116
		c-1.813,1.325-8.93,4.535-13.674,4.535c-10.115,0-12.208-10.256-12.208-18.767C264.907,235.345,266.581,225.578,277.115,225.578z
		 M277.115,258.437c5.512,0,9.907-1.674,13.674-3.209v-22.673c-4.813-1.256-8.302-1.813-13.674-1.813
		c-4.465,0-7.046,2.721-7.046,14.092C270.069,253.902,272.581,258.437,277.115,258.437z"/>
</g>
<g>
	<path fill="#EF4023" d="M100.035,171.091V86.521h-6.039v84.564c-3.313,1.237-5.688,4.403-5.688,8.14
		c0,4.803,3.908,8.705,8.708,8.705c4.799,0,8.704-3.902,8.704-8.705C105.719,175.489,103.344,172.323,100.035,171.091z
		 M97.015,183.079c-2.125,0-3.854-1.731-3.854-3.854c0-2.125,1.728-3.856,3.854-3.856c2.122,0,3.85,1.731,3.85,3.856
		C100.865,181.348,99.137,183.079,97.015,183.079z"/>
	<path fill="#EF4023" d="M125.55,171.091V47.02h-6.042v124.066c-3.313,1.237-5.691,4.403-5.691,8.14c0,4.803,3.906,8.705,8.71,8.705
		c4.802,0,8.704-3.902,8.704-8.705C131.231,175.489,128.858,172.323,125.55,171.091z M122.527,183.079
		c-2.128,0-3.856-1.731-3.856-3.854c0-2.125,1.728-3.856,3.856-3.856c2.122,0,3.848,1.731,3.848,3.856
		C126.375,181.348,124.649,183.079,122.527,183.079z"/>
	<path fill="#EF4023" d="M151.06,171.086V3.717h-6.04v167.369c-3.312,1.237-5.689,4.403-5.689,8.14c0,4.803,3.908,8.705,8.713,8.705
		c4.799,0,8.703-3.902,8.703-8.705C156.746,175.489,154.368,172.323,151.06,171.086z M148.043,183.079
		c-2.125,0-3.851-1.731-3.851-3.854c0-2.125,1.726-3.856,3.851-3.856c2.123,0,3.845,1.731,3.845,3.856
		C151.888,181.348,150.166,183.079,148.043,183.079z"/>
	<path fill="#EF4023" d="M176.572,171.086V72.474h-6.038v98.612c-3.309,1.237-5.686,4.403-5.686,8.14
		c0,4.803,3.903,8.705,8.702,8.705c4.803,0,8.707-3.902,8.707-8.705C182.258,175.489,179.885,172.323,176.572,171.086z
		 M173.551,183.079c-2.122,0-3.849-1.731-3.849-3.854c0-2.125,1.727-3.856,3.849-3.856c2.127,0,3.849,1.731,3.849,3.856
		C177.399,181.348,175.678,183.079,173.551,183.079z"/>
	<path fill="#EF4023" d="M202.063,171.081v-54.58h-6.04v54.597c-3.297,1.234-5.663,4.398-5.663,8.128
		c0,4.803,3.904,8.705,8.703,8.705c4.805,0,8.709-3.902,8.709-8.705C207.772,175.482,205.384,172.313,202.063,171.081z
		 M199.063,183.079c-2.122,0-3.854-1.731-3.854-3.854c0-2.125,1.731-3.856,3.854-3.856s3.851,1.731,3.851,3.856
		C202.914,181.348,201.186,183.079,199.063,183.079z"/>
</g>
<g>
	<path fill="#EF4023" d="M303.517,207.888h4.376c3.176,0,3.306,3.89,3.306,5.899c0,3.127-0.859,5.963-3.306,5.963h-4.376
		c-2.981,0-3.678-3.792-3.678-5.963C299.839,211.146,300.405,207.888,303.517,207.888z M303.517,218.713h4.376
		c1.264-0.017,2.269-1.62,2.269-4.926c0-1.945-0.146-4.862-2.269-4.862h-4.376c-1.441,0-2.641,0.94-2.641,4.862
		C300.876,216.104,301.67,218.696,303.517,218.713z M303.177,210.352h2.868c1.069,0,2.172,0.356,2.172,2.074
		c0,1.879-1.005,2.009-1.556,2.122l1.475,2.723h-1.167l-1.475-2.755l-1.28-0.194v2.949h-1.037V210.352z M306.143,213.608
		c0.842,0,1.037-0.211,1.037-1.167c0-1.021-0.616-1.053-1.037-1.053h-1.929v2.22H306.143z"/>
</g>
</svg>
