<svg xmlns="http://www.w3.org/2000/svg" role="img" viewBox="-21.52 -16.52 1847.04 1643.04"><title>Fluentd logo</title><style>svg {enable-background:new 0 0 1808 1611}</style><linearGradient id="a" x1="303" x2="1540.699" y1="1105.209" y2="1105.209" gradientTransform="matrix(1 0 0 -1 0 1630)" gradientUnits="userSpaceOnUse"><stop offset="0" stop-color="#2a59a2"/><stop offset="1" stop-color="#2a59a2"/></linearGradient><path fill="url(#a)" d="M1534.1 450.3H1512c-40.2-.5-117.3 3.8-187.2 64.2-166.9 144.5-205 357.2-490.6 472-237.9 95.6-531.2 5.1-531.2 5.1s261.7-18.2 296.4-217.9c27.1-156.2-115-267.1-204.2-408-90.7-143.5-114-262.7-70.3-314.2C448.8-94.8 790 300.7 959.4 354c165.8 52.1 277.7-68.9 415-51.1 43.8 5.6 65.2 24.5 79.4 48.6 4.8 8.1 16.6 35.7 27.1 45.9 10.3 10 24 17.4 36.8 24.9 16.3 9.6 32.4 28 16.4 28z"/><linearGradient id="b" x1="253.024" x2="1562.142" y1="1316.528" y2="1316.528" gradientTransform="matrix(1 0 0 -1 0 1630)" gradientUnits="userSpaceOnUse"><stop offset="0" stop-color="#91d3f2"/><stop offset=".266" stop-color="#6fb2de"/><stop offset=".521" stop-color="#5598ce"/><stop offset=".673" stop-color="#4b8fc8"/></linearGradient><path fill="url(#b)" d="M750 221.5c-41-31.2-83.3-63.9-124.9-93.7-9.4-6.7-18.8-13.3-28.1-19.7C485.5 31.8 382.1-16 324.9 51.5c-43.7 51.5-20.4 170.7 70.4 314.2.9 1.5 1.9 2.9 2.8 4.4 47.3 73.2 184.5 244.7 509.7 237.4 21.4-22.7 53.9-65.6 95.9-112.3C935.6 385.1 833 289.1 750 221.5z"/><linearGradient id="c" x1="303.1" x2="1549.834" y1="817.074" y2="817.074" gradientTransform="matrix(1 0 0 -1 0 1630)" gradientUnits="userSpaceOnUse"><stop offset="0" stop-color="#2c9ec7"/><stop offset=".404" stop-color="#2c63a5"/><stop offset="1" stop-color="#395da1"/></linearGradient><path fill="url(#c)" d="M1077.8 738.9c1.3-48.8-7.6-96.9-24.5-143.4-42.7 6.4-90.8 10.8-145.5 12-39.8 42.3-130.7 155.3-281.3 257.1-200.5 135.6-323.4 127-323.4 127s293.4 90.5 531.2-5.1c85.3-34.3 148.6-77.3 199.8-124.7 8.4-8 41.9-49.8 43.7-122.9z"/><linearGradient id="d" x1="303.079" x2="1549.813" y1="1078.65" y2="1078.65" gradientTransform="matrix(1 0 0 -1 0 1630)" gradientUnits="userSpaceOnUse"><stop offset="0" stop-color="#4faac4"/><stop offset=".002" stop-color="#2f75b1"/><stop offset="1" stop-color="#356eac"/></linearGradient><path fill="url(#d)" d="M1003.8 495.2c-42 46.6-74.6 89.6-95.9 112.3 54.8-1.2 102.9-5.6 145.5-12-5-13.9-10.8-27.6-17.2-41.1-9.6-20.1-20.5-39.9-32.4-59.2z"/><linearGradient id="e" x1="750" x2="1556.984" y1="1271.65" y2="1271.65" gradientTransform="matrix(1 0 0 -1 0 1630)" gradientUnits="userSpaceOnUse"><stop offset="0" stop-color="#4faac4"/><stop offset=".002" stop-color="#2f81b6"/><stop offset="1" stop-color="#3b5ea9"/></linearGradient><path fill="url(#e)" d="M1247.6 318.3c-87.8 26.6-175.5 71.1-288.2 35.7-55.8-17.5-130.3-72.2-209.4-132.5 83 67.6 185.6 163.5 253.8 273.7 62.2-68.9 145.2-145.9 243.8-176.9z"/><linearGradient id="f" x1="749.968" x2="1556.952" y1="962.7" y2="962.7" gradientTransform="matrix(1 0 0 -1 0 1630)" gradientUnits="userSpaceOnUse"><stop offset="0" stop-color="#4faac4"/><stop offset=".002" stop-color="#1e3773"/><stop offset="1" stop-color="#203370"/></linearGradient><path fill="url(#f)" d="M1053.4 595.5c16.9 46.5 25.8 94.6 24.5 143.4-1.9 73-35.4 114.8-43.8 122.9 120.1-111.1 173.8-246 290.8-347.3 21.8-18.8 44.2-32.2 66.1-41.7h-.1c-76.7 32.2-159.9 95.9-337.5 122.7z"/><linearGradient id="g" x1="1272.251" x2="1272.251" y1="895.298" y2="1337.814" gradientTransform="matrix(1 0 0 -1 0 1630)" gradientUnits="userSpaceOnUse"><stop offset="0" stop-color="#4faac4"/><stop offset=".002" stop-color="#2c5a9a"/><stop offset="1" stop-color="#374580"/></linearGradient><path fill="url(#g)" d="M1534.1 450.3c16 0-.1-18.4-16.3-27.9-12.8-7.6-26.5-15-36.8-24.9-10.6-10.2-22.4-37.9-27.1-45.9-14.3-24.2-35.6-43-79.4-48.6-44-5.7-85.4 2.9-126.8 15.4-98.6 31-181.7 108-243.9 176.9 11.9 19.3 22.9 39 32.4 59.1 6.4 13.6 12.2 27.3 17.2 41.1 177.7-26.8 260.8-90.5 337.5-122.7h.1c48.3-21 93.5-22.9 121.1-22.5h22z"/><linearGradient id="h" x1="168.495" x2="1086.828" y1="949.096" y2="949.096" gradientTransform="matrix(1 0 0 -1 0 1630)" gradientUnits="userSpaceOnUse"><stop offset=".112" stop-color="#38b1da"/><stop offset="1" stop-color="#326fb5"/></linearGradient><path fill="url(#h)" d="M626.5 864.6C777.1 762.8 868 649.8 907.8 607.5c-325.2 7.3-462.4-164.2-509.7-237.4C487.4 509 626.3 619.2 599.5 773.7c-34.7 199.7-296.4 217.9-296.4 217.9s122.9 8.6 323.4-127z"/><ellipse cx="1365.4" cy="377.4" fill="#fff" rx="26" ry="25.8"/><path fill="#191d1e" d="M857 1288c-73.4 0-133 59.2-133 132v39.2c0 72.8 59.7 132 133 132h84.6v-47.9H857c-45.2 0-82.3-35.4-84.6-79.7h173.8c24.2 0 43.9-19.6 43.9-43.6 0-72.8-59.7-132-133.1-132zm-84.6 127.7c2.3-44.3 39.4-79.7 84.6-79.7s82.3 35.4 84.6 79.7H772.4zM71.6 1222.4c-18.8 19.4-29.2 44.7-29.2 71.4v6.4H14.5v47.9h27.9v243h48.3v-243h65v-47.9h-65v-6.4c0-29.3 24-54.1 52.5-54.1h35.7v-48h-35.7c-27 .1-52.4 10.9-71.6 30.7zm183.2-31h48.3v399.9h-48.3zm341.6 276.5c0 41.6-34.1 75.4-76 75.4s-76-33.8-76-75.4V1288h-48.3v179.9c0 68 55.7 123.3 124.3 123.3 68.5 0 124.3-55.3 124.3-123.3V1288h-48.3v179.9zm566.5-179.9c-68.5 0-124.3 55.3-124.3 123.3v179.9h48.3v-179.9c0-41.6 34.1-75.4 76-75.4s76 33.8 76 75.4v179.9h48.3v-179.9c0-68-55.8-123.3-124.3-123.3zm264.1 201.2V1336h65.4v-48H1427v-96.6h-48.3v96.6h-42.9v47.9h42.9v153.2c0 55.2 45.2 100.1 100.8 100.1h21.4v-48h-21.4c-29 .1-52.5-23.3-52.5-52zm315.2-297.8v122.5c-21-16.2-47.4-25.8-76-25.8-68.5 0-124.3 55.3-124.3 123.3v56.6c0 68 55.8 123.3 124.3 123.3s124.3-55.3 124.3-123.3v-276.6h-48.3zm0 246.9v29.6c0 41.6-34.1 75.4-76 75.4s-76-33.8-76-75.4v-56.6c0-41.6 34.1-75.4 76-75.4s76 33.8 76 75.4v27z"/></svg>