<svg xmlns="http://www.w3.org/2000/svg" xmlns:xlink="http://www.w3.org/1999/xlink" width="2500" height="1424" viewBox="11.752 12.764 797.655 454.437"><path d="M271 418.843h-32.635v-129.33H271v129.33z" fill="#c4122e"/><g transform="matrix(10.33728 0 0 -10.33728 -861.345 7843.84)"><defs><path id="a" d="M84.461 713.596h77.163v43.961H84.461v-43.961z"/></defs><clipPath id="b"><use xlink:href="#a" overflow="visible"/></clipPath><g clip-path="url(#b)"><path d="M134.996 727.2c-.13.066-1.146.668-2.656.668-2.041 0-3.457-1.42-3.457-3.337 0-1.859 1.355-3.34 3.457-3.34 1.484 0 2.517.59 2.656.664v-3.358c-.396-.11-1.475-.445-2.877-.445-3.551 0-6.668 2.448-6.668 6.48 0 3.735 2.82 6.475 6.668 6.475 1.48 0 2.578-.36 2.877-.449V727.2zM102.043 727.2c-.127.066-1.142.668-2.652.668-2.045 0-3.46-1.42-3.46-3.337 0-1.859 1.356-3.34 3.46-3.34 1.484 0 2.516.59 2.652.664v-3.358c-.392-.11-1.47-.445-2.88-.445-3.548 0-6.661 2.448-6.661 6.48 0 3.735 2.82 6.475 6.662 6.475 1.486 0 2.582-.36 2.879-.449V727.2zM144.927 727.821c-1.873 0-3.264-1.474-3.264-3.29 0-1.82 1.391-3.293 3.264-3.293 1.871 0 3.266 1.473 3.266 3.293 0 1.816-1.395 3.29-3.266 3.29m6.611-3.29c0-3.579-2.763-6.479-6.61-6.479-3.849 0-6.608 2.9-6.608 6.48 0 3.572 2.76 6.475 6.607 6.475 3.848 0 6.611-2.903 6.611-6.476M121.512 727.941c-.047.015-1.376.382-2.468.382-1.265 0-1.953-.424-1.953-1.025 0-.762.928-1.028 1.447-1.192l.871-.277c2.05-.652 2.983-2.055 2.983-3.579 0-3.143-2.764-4.199-5.18-4.199-1.679 0-3.252.31-3.407.342v2.88c.278-.07 1.602-.466 2.981-.466 1.571 0 2.293.46 2.293 1.168 0 .634-.625 1-1.408 1.246-.19.064-.478.154-.674.218-1.758.556-3.224 1.59-3.224 3.66 0 2.34 1.752 3.911 4.662 3.911 1.537 0 2.983-.373 3.077-.398v-2.67z" fill="#c4122e"/><path d="M89.154 744.23c0 .862-.704 1.561-1.567 1.561s-1.568-.699-1.568-1.56v-3.285a1.568 1.568 0 0 1 3.135 0v3.284zM97.763 748.54a1.567 1.567 0 0 1-3.135 0v-7.594a1.567 1.567 0 0 1 3.135 0v7.595zM106.373 754.438c0 .862-.704 1.562-1.567 1.562-.864 0-1.568-.7-1.568-1.562v-16.613a1.568 1.568 0 0 1 3.135 0v16.613zM114.982 748.54a1.567 1.567 0 0 1-3.135 0v-7.594a1.567 1.567 0 0 1 3.135 0v7.595zM123.582 744.23a1.56 1.56 0 0 1-1.558 1.561 1.566 1.566 0 0 1-1.567-1.56v-3.285a1.562 1.562 0 1 1 3.125 0v3.284zM132.195 748.54a1.563 1.563 0 0 1-3.125 0v-7.594a1.562 1.562 0 1 1 3.125 0v7.595zM140.81 754.438a1.562 1.562 0 0 1-3.125 0v-16.613a1.564 1.564 0 1 1 3.125 0v16.613zM149.423 748.54c0 .863-.699 1.564-1.582 1.564a1.563 1.563 0 0 1-1.562-1.563v-7.595c0-.867.7-1.566 1.562-1.566.883 0 1.582.699 1.582 1.566v7.595zM158.02 744.23a1.563 1.563 0 0 1-3.128 0v-3.284c0-.867.701-1.567 1.564-1.567.862 0 1.563.7 1.563 1.567v3.284z" fill="#15495d"/><path d="M156.213 719.922v-.196h-.558v-1.451h-.23v1.45h-.56v.197h1.348zM156.33 719.922h.359l.493-1.351h.008l.477 1.35h.352v-1.646h-.235v1.35h-.008l-.5-1.35h-.217l-.488 1.35h-.011v-1.35h-.23v1.647z" fill="#c4122e"/></g></g></svg>