<?xml version="1.0" encoding="utf-8"?>
<!-- Generator: Adobe Illustrator 24.2.0, SVG Export Plug-In . SVG Version: 6.00 Build 0)  -->
<svg version="1.1" id="Layer_1" xmlns="http://www.w3.org/2000/svg" xmlns:xlink="http://www.w3.org/1999/xlink" x="0px" y="0px"
	 viewBox="0 0 150 150" style="enable-background:new 0 0 150 150;" xml:space="preserve">
<style type="text/css">
	.st0{fill:#2DBCAF;}
</style>
<g>
	<g>
		<g>
			<g>
				<path class="st0" d="M23.5,66.7c-0.2,0-0.3-0.1-0.2-0.3l1.1-1.5c0.1-0.2,0.4-0.3,0.6-0.3h19.5c0.2,0,0.3,0.2,0.2,0.3l-0.9,1.4
					c-0.1,0.2-0.4,0.3-0.5,0.3L23.5,66.7z"/>
			</g>
		</g>
	</g>
	<g>
		<g>
			<g>
				<path class="st0" d="M15.2,71.8c-0.2,0-0.3-0.1-0.2-0.3l1.1-1.5c0.1-0.2,0.4-0.3,0.6-0.3h24.9c0.2,0,0.3,0.2,0.3,0.3l-0.4,1.3
					c-0.1,0.2-0.3,0.3-0.5,0.3L15.2,71.8z"/>
			</g>
		</g>
	</g>
	<g>
		<g>
			<g>
				<path class="st0" d="M28.4,76.8c-0.2,0-0.3-0.2-0.2-0.3l0.8-1.4c0.1-0.2,0.3-0.3,0.5-0.3h10.9c0.2,0,0.3,0.2,0.3,0.4l-0.1,1.3
					c0,0.2-0.2,0.4-0.4,0.4L28.4,76.8z"/>
			</g>
		</g>
	</g>
	<g>
		<g id="CXHf1q_1_">
			<g>
				<g>
					<path class="st0" d="M85,65.8c-3.4,0.9-5.8,1.5-9.2,2.4c-0.8,0.2-0.9,0.3-1.6-0.5c-0.8-0.9-1.4-1.5-2.6-2.1
						c-3.4-1.7-6.8-1.2-9.9,0.8c-3.7,2.4-5.6,5.9-5.6,10.4c0.1,4.4,3.1,8,7.4,8.6c3.7,0.5,6.8-0.8,9.3-3.6c0.5-0.6,0.9-1.3,1.5-2
						c-2,0-4.4,0-10.5,0c-1.1,0-1.4-0.7-1-1.6c0.7-1.7,2-4.5,2.8-5.9c0.2-0.3,0.5-0.9,1.4-0.9c2.8,0,13,0,19.8,0
						c-0.1,1.5-0.1,2.9-0.3,4.4c-0.6,3.9-2.1,7.5-4.5,10.7c-3.9,5.2-9.1,8.4-15.5,9.3c-5.3,0.7-10.3-0.3-14.7-3.6
						c-4-3.1-6.3-7.1-6.9-12.1c-0.7-5.9,1-11.3,4.6-16c3.9-5.1,9-8.3,15.3-9.4c5.1-0.9,10-0.3,14.5,2.7c2.9,1.9,5,4.5,6.3,7.7
						C85.9,65.3,85.7,65.6,85,65.8z"/>
				</g>
				<g>
					<path class="st0" d="M103.1,95.9c-5-0.1-9.5-1.5-13.3-4.8c-3.2-2.8-5.2-6.3-5.9-10.5c-1-6.2,0.7-11.6,4.4-16.5
						c4-5.2,8.8-8,15.3-9.1c5.6-1,10.8-0.4,15.5,2.8c4.3,2.9,7,6.9,7.7,12.2c0.9,7.4-1.2,13.4-6.3,18.5c-3.6,3.7-8,5.9-13.1,7
						C106,95.7,104.5,95.8,103.1,95.9z M116,73.9c-0.1-0.7-0.1-1.3-0.2-1.8c-1-5.4-5.9-8.5-11.1-7.3c-5.1,1.1-8.3,4.4-9.5,9.5
						c-1,4.3,1.1,8.6,5,10.3c3,1.3,6,1.1,8.9-0.3C113.4,82.1,115.8,78.6,116,73.9z"/>
				</g>
			</g>
		</g>
	</g>
</g>
</svg>
