<svg width="2500" height="2422" viewBox="0 0 256 248" xmlns="http://www.w3.org/2000/svg" preserveAspectRatio="xMidYMid"><path d="M146.302 72.728a3.727 3.727 0 0 0-3.51 3.092s-12.032 77.699-13.275 77.699c-1.242 0-13.672-58.383-13.672-58.383a3.72 3.72 0 0 0-7.036-.632l-12.426 28.649h-7.089c-1.466-3.062-4.567-5.192-8.189-5.192a9.106 9.106 0 0 0 0 18.21c3.777 0 7.015-2.3 8.394-5.575h9.326a3.72 3.72 0 0 0 3.413-2.241s8.044-20.572 8.923-20.572c.879 0 15.303 65.344 15.303 65.344a3.72 3.72 0 0 0 3.622 2.873c1.884-.055 3.37-1.349 3.67-3.094 0 0 12.394-78.806 13.464-78.806 1.07 0 13.503 51.764 13.503 51.764a3.72 3.72 0 0 0 3.41 2.776 3.734 3.734 0 0 0 3.678-2.41l9.836-26.282 6.559 10.069c.561-4.691.437-9.437-.333-14.233l-3.932-6.154a3.717 3.717 0 0 0-3.529-1.717 3.732 3.732 0 0 0-3.106 2.399l-8.347 22.302-14.895-57.106a3.737 3.737 0 0 0-3.608-2.783c-.051 0-.103.001-.154.003z" fill="#8D8E92"/><path d="M128 208.31c-46.23 0-83.707-37.691-83.707-84.184C44.293 77.632 81.77 39.94 128 39.94s83.707 37.69 83.707 84.185c0 46.493-37.477 84.184-83.707 84.184M128 .535C57.307.535 0 55.932 0 124.268 0 192.603 57.307 248 128 248s128-55.397 128-123.732C256 55.932 198.693.535 128 .535" fill="#C4222F"/></svg>