<?xml version="1.0" encoding="utf-8"?>
<!-- Generator: Adobe Illustrator 24.2.0, SVG Export Plug-In . SVG Version: 6.00 Build 0)  -->
<svg version="1.1" id="Layer_1" xmlns="http://www.w3.org/2000/svg" xmlns:xlink="http://www.w3.org/1999/xlink" x="0px" y="0px"
	 viewBox="0 0 1773 2500" style="enable-background:new 0 0 1773 2500;" xml:space="preserve">
<style type="text/css">
	.st0{fill:#E44D26;}
	.st1{fill:#F16529;}
	.st2{fill:#EBEBEB;}
	.st3{fill:#FFFFFF;}
</style>
<path class="st0" d="M1769.8,490.1l-160.9,1803l-723.5,200.6l-721.5-200.3L3.1,490.1H1769.8L1769.8,490.1z"/>
<path class="st1" d="M886.4,2340.4l584.6-162.1l137.5-1540.8H886.4V2340.4z"/>
<path class="st2" d="M573.5,1079.9h312.9V858.7H331.8l5.3,59.3l54.4,609.5h494.9v-221.2H593.8L573.5,1079.9z M623.4,1638.1h-222
	l31,347.3l453.1,125.8l1-0.3v-230.1l-1,0.3l-246.3-66.5L623.4,1638.1L623.4,1638.1z"/>
<path class="st3" d="M167.5,0h112.4v111h102.8V0h112.4v336.3H382.7V223.7H279.9v112.6H167.5L167.5,0L167.5,0z M642.9,111.5h-98.9V0
	h310.3v111.5h-99v224.8H642.9L642.9,111.5L642.9,111.5L642.9,111.5z M903.5,0h117.2l72.1,118.2l72-118.2h117.2v336.3h-111.9V169.6
	l-77.3,119.6h-1.9l-77.4-119.6v166.7h-110V0z M1338,0h112.4v225.1h158.1v111.1H1338L1338,0L1338,0z"/>
<path class="st3" d="M885.7,1527.5H1158l-25.7,286.8l-246.7,66.6V2111l453.4-125.7l3.3-37.4l52-582.3l5.4-59.4H885.7V1527.5
	L885.7,1527.5z M885.7,1079.3v0.5h534.2l4.4-49.7l10.1-112.1l5.3-59.3h-554V1079.3L885.7,1079.3z"/>
</svg>
