<svg xmlns="http://www.w3.org/2000/svg" role="img" viewBox="-6.06 -10.31 315.38 121.13"><title>Icinga logo</title><defs><radialGradient id="b" cx="0" cy="0" r="1" fx="0" fy="0" gradientTransform="matrix(88.2739 0 0 -88.2739 88.272 161.699)" gradientUnits="userSpaceOnUse" spreadMethod="pad"><stop offset="0" stop-color="#3b3d3e"/><stop offset=".148" stop-color="#3b3d3e"/><stop offset="1" stop-color="#2a1f1f"/></radialGradient><radialGradient id="d" cx="0" cy="0" r="1" fx="0" fy="0" gradientTransform="scale(27.4664 -27.4664) rotate(10.894 54.398 74.99)" gradientUnits="userSpaceOnUse" spreadMethod="pad"><stop offset="0" stop-color="#3b3d3e"/><stop offset=".148" stop-color="#3b3d3e"/><stop offset="1" stop-color="#2a1f1f"/></radialGradient><radialGradient id="f" cx="0" cy="0" r="1" fx="0" fy="0" gradientTransform="matrix(38.7757 5.28333 5.28333 -38.7757 91.514 624.238)" gradientUnits="userSpaceOnUse" spreadMethod="pad"><stop offset="0" stop-color="#3b3d3e"/><stop offset=".148" stop-color="#3b3d3e"/><stop offset="1" stop-color="#2a1f1f"/></radialGradient><radialGradient id="h" cx="0" cy="0" r="1" fx="0" fy="0" gradientTransform="matrix(53.5889 0 0 -53.5889 688.032 552.012)" gradientUnits="userSpaceOnUse" spreadMethod="pad"><stop offset="0" stop-color="#3b3d3e"/><stop offset=".148" stop-color="#3b3d3e"/><stop offset="1" stop-color="#2a1f1f"/></radialGradient><radialGradient id="j" cx="0" cy="0" r="1" fx="0" fy="0" gradientTransform="matrix(68.2007 0 0 -68.2007 435.41 771.968)" gradientUnits="userSpaceOnUse" spreadMethod="pad"><stop offset="0" stop-color="#3b3d3e"/><stop offset=".148" stop-color="#3b3d3e"/><stop offset="1" stop-color="#2a1f1f"/></radialGradient><radialGradient id="l" cx="0" cy="0" r="1" fx="0" fy="0" gradientTransform="matrix(130.989 0 0 -130.989 290.693 457.998)" gradientUnits="userSpaceOnUse" spreadMethod="pad"><stop offset="0" stop-color="#3b3d3e"/><stop offset=".148" stop-color="#3b3d3e"/><stop offset="1" stop-color="#2a1f1f"/></radialGradient><clipPath id="a" clipPathUnits="userSpaceOnUse"><path d="M.254 155.105c-3.672 48.594 32.781 90.969 81.43 94.614 48.605 3.687 90.976-32.778 94.609-81.391 3.652-48.609-32.777-90.992-81.399-94.644-48.628-3.657-91 32.789-94.64 81.421z"/></clipPath><clipPath id="c" clipPathUnits="userSpaceOnUse"><path d="M388.926 248.43c1.734 15.054 15.355 25.855 30.433 24.129 15.075-1.75 25.86-15.391 24.125-30.442-1.765-15.074-15.375-25.855-30.437-24.14-15.074 1.75-25.875 15.371-24.121 30.453z"/></clipPath><clipPath id="e" clipPathUnits="userSpaceOnUse"><path d="M56.371 607.051c-9.484 19.379-1.441 42.812 17.961 52.324 19.402 9.496 42.832 1.453 52.332-17.941 9.473-19.414 1.457-42.844-17.949-52.336-19.418-9.508-42.836-1.457-52.344 17.953z"/></clipPath><clipPath id="g" clipPathUnits="userSpaceOnUse"><path d="M634.594 547.992c-2.215 29.492 19.898 55.235 49.426 57.461 29.496 2.215 55.222-19.91 57.449-49.445 2.219-29.492-19.906-55.231-49.422-57.434-29.508-2.222-55.234 19.906-57.453 49.418z"/></clipPath><clipPath id="i" clipPathUnits="userSpaceOnUse"><path d="M392.324 824.84c29.184 23.777 72.164 19.398 95.977-9.793 23.769-29.184 19.394-72.152-9.778-95.965-29.214-23.75-72.183-19.394-95.96 9.805-23.833 29.187-19.422 72.156 9.761 95.953z"/></clipPath><clipPath id="k" clipPathUnits="userSpaceOnUse"><path d="M207.934 559.543c56.054 45.68 138.605 37.266 184.339-18.801 45.653-56.047 37.247-138.586-18.777-184.316-56.117-45.617-138.641-37.254-184.308 18.84-45.774 56.05-37.301 138.582 18.746 184.277z"/></clipPath></defs><path fill="#2f2529" d="M81.471 54.09c0-1.246.434-2.304 1.302-3.172.867-.868 1.925-1.302 3.173-1.302 1.193 0 2.238.434 3.133 1.302.895.868 1.342 1.926 1.342 3.173v44.75c0 1.249-.434 2.306-1.302 3.174-.868.867-1.925 1.301-3.173 1.301-1.193 0-2.237-.434-3.132-1.301-.895-.868-1.343-1.925-1.343-3.174V54.09M98.72 67.597c0-2.711.515-5.275 1.546-7.689 1.03-2.412 2.441-4.515 4.231-6.305s3.892-3.2 6.306-4.23c2.413-1.03 5.004-1.547 7.77-1.547a19.416 19.416 0 0 1 10.903 3.296 20.428 20.428 0 0 1 4.19 3.742 19.266 19.266 0 0 1 2.97 4.76c.215.38.366.787.448 1.22.081.434.121.813.121 1.139 0 1.086-.38 2.088-1.139 3.012-.76.923-1.845 1.382-3.254 1.382-1.846 0-3.202-.895-4.068-2.685-.814-2.006-2.129-3.662-3.947-4.963-1.818-1.302-3.893-1.953-6.224-1.953-1.52 0-2.943.285-4.272.854a11.413 11.413 0 0 0-3.498 2.32 10.586 10.586 0 0 0-2.36 3.458 10.525 10.525 0 0 0-.854 4.189v17.656c0 1.465.297 2.862.895 4.19a11.115 11.115 0 0 0 2.4 3.46 11.425 11.425 0 0 0 3.499 2.317c1.328.57 2.726.855 4.19.855 2.331 0 4.406-.664 6.224-1.994 1.818-1.328 3.16-2.996 4.028-5.005.379-.757.963-1.381 1.749-1.87.786-.488 1.532-.732 2.238-.732 1.354 0 2.427.461 3.213 1.383.786.923 1.18 1.925 1.18 3.01 0 .65-.109 1.221-.325 1.71a18.662 18.662 0 0 1-2.889 5.045 20.601 20.601 0 0 1-4.19 3.945 18.684 18.684 0 0 1-5.207 2.563c-1.9.596-3.905.895-6.02.895-2.714 0-5.277-.53-7.69-1.587-2.414-1.058-4.516-2.482-6.306-4.27-1.79-1.79-3.213-3.88-4.27-6.266-1.059-2.388-1.588-4.936-1.588-7.649V67.597m47.109-13.507c0-1.246.434-2.304 1.302-3.172.867-.868 1.925-1.302 3.173-1.302 1.192 0 2.237.434 3.134 1.302.893.868 1.34 1.926 1.34 3.173v44.75c0 1.249-.433 2.306-1.3 3.174-.87.867-1.927 1.301-3.174 1.301-1.194 0-2.238-.434-3.133-1.301-.895-.868-1.342-1.925-1.342-3.174V54.09m17.248 13.589c0-2.712.515-5.26 1.547-7.649a19.95 19.95 0 0 1 4.23-6.265c1.791-1.79 3.892-3.213 6.307-4.27 2.413-1.059 4.975-1.588 7.688-1.588 2.712 0 5.275.53 7.688 1.587 2.414 1.058 4.517 2.482 6.307 4.271 1.788 1.79 3.213 3.88 4.272 6.265 1.056 2.389 1.586 4.937 1.586 7.649V98.84c0 1.249-.422 2.306-1.262 3.174-.841.867-1.884 1.301-3.132 1.301-1.194 0-2.238-.434-3.132-1.301-.895-.868-1.343-1.925-1.343-3.174V67.679c0-1.465-.284-2.86-.854-4.191a10.597 10.597 0 0 0-2.359-3.458 11.451 11.451 0 0 0-3.499-2.319 10.74 10.74 0 0 0-4.272-.854 10.74 10.74 0 0 0-4.273.854 10.923 10.923 0 0 0-3.456 2.32 10.9 10.9 0 0 0-2.32 3.457 10.55 10.55 0 0 0-.854 4.19v31.163c0 1.249-.421 2.306-1.261 3.174-.841.867-1.885 1.301-3.132 1.301-1.25 0-2.307-.434-3.174-1.301-.868-.868-1.301-1.925-1.301-3.174V67.679m48.492 0c0-2.712.53-5.275 1.586-7.69 1.058-2.412 2.483-4.515 4.273-6.305 1.79-1.79 3.891-3.2 6.305-4.23 2.414-1.03 4.976-1.547 7.69-1.547 2.06 0 4.04.3 5.94.895a20 20 0 0 1 5.246 2.522 19.374 19.374 0 0 1 4.231 3.906 20.55 20.55 0 0 1 2.971 5.045c.108.272.174.556.203.855.026.298.041.609.041.935 0 1.085-.381 2.088-1.14 3.01-.76.923-1.845 1.383-3.255 1.383-.76 0-1.519-.216-2.277-.65-.76-.435-1.33-1.084-1.709-1.953a11.664 11.664 0 0 0-4.029-5.045c-1.816-1.302-3.891-1.953-6.222-1.953-1.52 0-2.945.285-4.273.855a10.9 10.9 0 0 0-3.457 2.318c-.977.977-1.75 2.13-2.319 3.458a10.552 10.552 0 0 0-.855 4.19v17.575c0 1.465.286 2.862.855 4.19a10.572 10.572 0 0 0 2.359 3.46 11.43 11.43 0 0 0 3.498 2.317c1.33.57 2.727.855 4.192.855 1.517 0 2.941-.285 4.271-.855a10.936 10.936 0 0 0 3.457-2.318 10.898 10.898 0 0 0 2.32-3.459c.57-1.328.853-2.725.853-4.19v-2.197h-4.393c-1.248 0-2.292-.433-3.132-1.301-.843-.867-1.263-1.925-1.263-3.174 0-1.192.42-2.223 1.263-3.09.84-.868 1.884-1.303 3.132-1.303h8.868c1.247 0 2.306.421 3.174 1.26.867.843 1.302 1.886 1.302 3.133v6.672c0 2.713-.529 5.261-1.586 7.65-1.059 2.386-2.483 4.474-4.273 6.264-1.79 1.79-3.892 3.213-6.306 4.271-2.415 1.057-4.976 1.587-7.687 1.587-2.714 0-5.276-.53-7.69-1.587-2.414-1.058-4.515-2.482-6.305-4.27-1.79-1.79-3.215-3.88-4.273-6.266-1.056-2.388-1.586-4.936-1.586-7.649V67.679m68.021-2.767a134.573 134.573 0 0 0-1.669 3.783 146.18 146.18 0 0 1-1.586 3.621 235.271 235.271 0 0 0-1.626 3.663 385.671 385.671 0 0 0-1.71 3.986h13.101l-6.51-15.053zm-4.069-12.936c.867-1.79 2.224-2.686 4.07-2.686.27 0 .554.029.853.082.297.054.583.162.855.325 1.139.543 1.925 1.302 2.36 2.279l19.364 45.318c.271.652.406 1.221.406 1.709 0 1.032-.393 2.022-1.179 2.97-.786.95-1.858 1.425-3.215 1.425-2.007 0-3.362-.896-4.067-2.686l-5.045-11.797h-20.585a1562.85 1562.85 0 0 1-2.563 5.9 241.167 241.167 0 0 0-2.481 5.897c-.435.923-1.004 1.6-1.71 2.034a4.396 4.396 0 0 1-2.357.652c-1.358 0-2.43-.475-3.215-1.425-.788-.948-1.18-1.938-1.18-2.97 0-.271.027-.568.08-.894.053-.326.137-.597.246-.815l19.364-45.318"/><path fill="none" stroke="#3b3a3c" stroke-width="1.25" d="M37.08 49.274L12.906 83.939M37.08 49.274l50.105-12.358M38.029 50.289l14.03 23.436M32.077 43.47L11.49 26.615m28.566 13.128l12.117-25.18"/><g clip-path="url(#a)" transform="matrix(.13 0 0 -.13 0 105.025)"><path fill="url(#b)" d="M.254 155.105c-3.672 48.594 32.781 90.969 81.43 94.614 48.605 3.687 90.976-32.778 94.609-81.391 3.652-48.609-32.777-90.992-81.399-94.644-48.628-3.657-91 32.789-94.64 81.421"/></g><g clip-path="url(#c)" transform="matrix(.13 0 0 -.13 0 105.025)"><path fill="url(#d)" d="M388.926 248.43c1.734 15.054 15.355 25.855 30.433 24.129 15.075-1.75 25.86-15.391 24.125-30.442-1.765-15.074-15.375-25.855-30.437-24.14-15.074 1.75-25.875 15.371-24.121 30.453"/></g><g clip-path="url(#e)" transform="matrix(.13 0 0 -.13 0 105.025)"><path fill="url(#f)" d="M56.371 607.051c-9.484 19.379-1.441 42.812 17.961 52.324 19.402 9.496 42.832 1.453 52.332-17.941 9.473-19.414 1.457-42.844-17.949-52.336-19.418-9.508-42.836-1.457-52.344 17.953"/></g><g clip-path="url(#g)" transform="matrix(.13 0 0 -.13 0 105.025)"><path fill="url(#h)" d="M634.594 547.992c-2.215 29.492 19.898 55.235 49.426 57.461 29.496 2.215 55.222-19.91 57.449-49.445 2.219-29.492-19.906-55.231-49.422-57.434-29.508-2.222-55.234 19.906-57.453 49.418"/></g><g clip-path="url(#i)" transform="matrix(.13 0 0 -.13 0 105.025)"><path fill="url(#j)" d="M392.324 824.84c29.184 23.777 72.164 19.398 95.977-9.793 23.769-29.184 19.394-72.152-9.778-95.965-29.214-23.75-72.183-19.394-95.96 9.805-23.833 29.187-19.422 72.156 9.761 95.953"/></g><g clip-path="url(#k)" transform="matrix(.13 0 0 -.13 0 105.025)"><path fill="url(#l)" d="M207.934 559.543c56.054 45.68 138.605 37.266 184.339-18.801 45.653-56.047 37.247-138.586-18.777-184.316-56.117-45.617-138.641-37.254-184.308 18.84-45.774 56.05-37.301 138.582 18.746 184.277"/></g></svg>