<?xml version="1.0" encoding="utf-8"?>
<!-- Generator: Adobe Illustrator 21.1.0, SVG Export Plug-In . SVG Version: 6.00 Build 0)  -->
<svg version="1.1" id="InfluxData_Symbol_Only" xmlns="http://www.w3.org/2000/svg" xmlns:xlink="http://www.w3.org/1999/xlink"
	 x="0px" y="0px" width="900px" height="900px" viewBox="-173 -143 900 900" style="enable-background:new -173 -143 900 900;"
	 xml:space="preserve">
<style type="text/css">
	.st0{fill:none;}
	.st1{fill:#22ADF6;}
</style>
<rect id="Background" x="-173" y="-143" class="st0" width="900" height="900"/>
<path id="Cuboctahedron" class="st1" d="M694.1,394.9l-81-352.7C608.5,22.9,591,3.6,571.7-2L201.5-116.2c-4.6-1.8-10.1-1.8-15.7-1.8
	c-15.7,0-32.2,6.4-43.3,15.7l-265.2,246.8c-14.7,12.9-22.1,38.7-17.5,57.1l86.6,377.6c4.6,19.3,22.1,38.7,41.4,44.2l346.2,106.8
	c4.6,1.8,10.1,1.8,15.7,1.8c15.7,0,32.2-6.4,43.3-15.7L676.6,453C691.4,439.2,698.7,414.3,694.1,394.9z M240.2-32.4l254.1,78.3
	c10.1,2.8,10.1,7.4,0,10.1L360.8,86.4c-10.1,2.8-23.9-1.8-31.3-9.2l-93-100.4C228.2-31.4,230-35.1,240.2-32.4z M398.5,423.5
	c2.8,10.1-3.7,15.7-13.8,12.9l-274.4-84.7c-10.1-2.8-12-11.1-4.6-18.4L315.7,138c7.4-7.4,15.7-4.6,18.4,5.5L398.5,423.5z
	 M-53.6,174.8L169.3-32.4c7.4-7.4,19.3-6.4,26.7,0.9L307.4,89.2c7.4,7.4,6.4,19.3-0.9,26.7L83.6,323.1c-7.4,7.4-19.3,6.4-26.7-0.9
	L-54.5,201.6C-61.9,193.3-60.9,181.3-53.6,174.8z M0.8,503.6l-58.9-258.8c-2.8-10.1,1.8-12,8.3-4.6l93,100.4
	c7.4,7.4,10.1,22.1,7.4,32.2L10,503.6C7.2,513.7,2.6,513.7,0.8,503.6z M326.7,654.6l-291-89.3c-10.1-2.8-15.7-13.8-12.9-23.9
	l48.8-156.6c2.8-10.1,13.8-15.7,23.9-12.9l291,89.3c10.1,2.8,15.7,13.8,12.9,23.9l-48.8,156.6C347,651.9,336.9,657.4,326.7,654.6z
	 M584.5,442.8L390.3,623.3c-7.4,7.4-11,4.6-8.3-5.5L422.5,487c2.8-10.1,13.8-20.3,23.9-22.1l133.5-30.4
	C590.1,431.8,591.9,436.4,584.5,442.8z M605.7,404.2L445.5,441c-10.1,2.8-20.3-3.7-23-13.8l-68.1-296.5c-2.8-10.1,3.7-20.3,13.8-23
	l160.2-36.8c10.1-2.8,20.3,3.7,23,13.8l68.1,296.5C622.3,392.2,615.9,402.3,605.7,404.2z"/>
</svg>
