<?xml version="1.0" encoding="utf-8"?>
<!-- Generator: Adobe Illustrator 19.1.0, SVG Export Plug-In . SVG Version: 6.00 Build 0)  -->
<svg version="1.1" id="Layer_1" xmlns="http://www.w3.org/2000/svg" xmlns:xlink="http://www.w3.org/1999/xlink" x="0px" y="0px"
	 viewBox="0 0 672 250" style="enable-background:new 0 0 672 250;" xml:space="preserve">
<style type="text/css">
	.st0{fill:url(#symbol_2_);}
	.st1{fill:url(#SVGID_1_);}
	.st2{fill:url(#SVGID_2_);}
	.st3{fill:url(#SVGID_3_);}
	.st4{fill:url(#SVGID_4_);}
	.st5{fill:url(#SVGID_5_);}
	.st6{fill:url(#SVGID_6_);}
	.st7{fill:url(#SVGID_7_);}
	.st8{fill:url(#SVGID_8_);}
</style>
<g id="telegraf_logo">
	<linearGradient id="symbol_2_" gradientUnits="userSpaceOnUse" x1="207.2596" y1="125" x2="474.3703" y2="125">
		<stop  offset="0" style="stop-color:#F95F53"/>
		<stop  offset="1" style="stop-color:#FF8564"/>
	</linearGradient>
	<path id="symbol_1_" class="st0" d="M245.5,133.3l-7.6-33.2c-0.4-1.8-2.1-3.6-3.9-4.1l-34.9-10.7c-0.5-0.1-1-0.2-1.5-0.2
		c-1.5,0-3.1,0.6-4,1.5l-25,23.2c-1.3,1.2-2.1,3.6-1.7,5.4l8.1,35.5c0.4,1.8,2.1,3.6,3.9,4.1l32.6,10c0.5,0.1,1,0.2,1.5,0.2
		c1.5,0,3.1-0.6,4-1.5l26.7-24.8C245.2,137.5,245.9,135.1,245.5,133.3z M202.8,93.1l23.9,7.3c0.9,0.3,0.9,0.7,0,0.9l-12.6,2.9
		c-1,0.2-2.3-0.2-2.9-0.9l-8.8-9.5C201.6,93.2,201.9,92.9,202.8,93.1z M217.7,136c0.2,1-0.4,1.5-1.3,1.2l-25.8-7.9
		c-0.9-0.3-1.1-1.1-0.4-1.7l19.8-18.4c0.7-0.7,1.5-0.4,1.7,0.5L217.7,136z M175.2,112.6l21-19.5c0.7-0.7,1.8-0.6,2.5,0.1l10.5,11.3
		c0.7,0.7,0.6,1.8-0.1,2.5l-21,19.5c-0.7,0.7-1.8,0.6-2.5-0.1l-10.5-11.3C174.4,114.4,174.5,113.3,175.2,112.6z M180.3,143.6
		l-5.6-24.3c-0.2-1,0.1-1.1,0.8-0.4l8.8,9.5c0.7,0.7,1,2.1,0.7,3l-3.8,12.3C180.9,144.5,180.5,144.5,180.3,143.6z M210.9,157.7
		l-27.3-8.4c-0.9-0.3-1.5-1.3-1.2-2.2l4.5-14.8c0.3-0.9,1.3-1.5,2.2-1.2l27.3,8.4c0.9,0.3,1.5,1.3,1.2,2.2l-4.5,14.8
		C212.9,157.5,211.9,158,210.9,157.7z M235.2,137.8l-18.3,17c-0.7,0.7-1.1,0.4-0.8-0.5l3.8-12.3c0.3-0.9,1.3-1.9,2.3-2.1l12.6-2.9
		C235.7,136.8,235.9,137.2,235.2,137.8z M237.2,134.2l-15.1,3.4c-1,0.2-1.9-0.4-2.1-1.3l-6.4-27.9c-0.2-1,0.4-1.9,1.3-2.1l15.1-3.4
		c1-0.2,1.9,0.4,2.1,1.3l6.4,27.9C238.8,133,238.2,134,237.2,134.2z"/>
	<g id="type_1_">
		<g>
			<linearGradient id="SVGID_1_" gradientUnits="userSpaceOnUse" x1="207.2596" y1="123.5419" x2="474.3703" y2="123.5419">
				<stop  offset="0" style="stop-color:#F95F53"/>
				<stop  offset="1" style="stop-color:#FF8564"/>
			</linearGradient>
			<path class="st1" d="M275.7,138.2l3.6-20.5h-5.6l1.3-6.9h5.6l1.6-9.1l8.9-1.2l-1.8,10.3h9l-1.4,6.9H288l-3.5,20.1
				c-0.2,1.2,0.1,1.8,1.4,1.8c1.7,0,4.1-0.8,6.1-1.6l1.9,5.9c-3,1.6-6.9,2.7-11.1,2.7C277.3,146.7,274.8,143.2,275.7,138.2z"/>
			<linearGradient id="SVGID_2_" gradientUnits="userSpaceOnUse" x1="207.2596" y1="128.3535" x2="474.3703" y2="128.3535">
				<stop  offset="0" style="stop-color:#F95F53"/>
				<stop  offset="1" style="stop-color:#FF8564"/>
			</linearGradient>
			<path class="st2" d="M306.5,135.7c-0.4,2-0.4,3.8,2.7,3.8c3.8,0,9-1.7,13.5-4.1l1.9,6.7c-4.3,2.6-10.8,4.6-16.6,4.6
				c-9.3,0-11.2-5.2-9.9-12.6l1.9-10.7c1.5-8.3,5.4-13.4,16.1-13.4c6.7,0,11.3,3.5,11.3,9.2c0,6.3-4.1,9.9-13.7,12.9
				c-4.3,1.3-5.1,1.5-6.8,2L306.5,135.7z M319,119.6c0-1.6-1.4-2.7-3.7-2.7c-4,0-5.9,2.5-6.5,5.8l-0.7,3.6c1.2-0.4,1.7-0.5,5.3-1.6
				C317.4,123.4,319,121.9,319,119.6z"/>
			<linearGradient id="SVGID_3_" gradientUnits="userSpaceOnUse" x1="207.2596" y1="120.5393" x2="474.3703" y2="120.5393">
				<stop  offset="0" style="stop-color:#F95F53"/>
				<stop  offset="1" style="stop-color:#FF8564"/>
			</linearGradient>
			<path class="st3" d="M338.3,96.3l8.9-1.2l-9,50.9h-8.7L338.3,96.3z"/>
			<linearGradient id="SVGID_4_" gradientUnits="userSpaceOnUse" x1="207.2596" y1="128.3535" x2="474.3703" y2="128.3535">
				<stop  offset="0" style="stop-color:#F95F53"/>
				<stop  offset="1" style="stop-color:#FF8564"/>
			</linearGradient>
			<path class="st4" d="M356.3,135.7c-0.4,2-0.4,3.8,2.7,3.8c3.8,0,9-1.7,13.5-4.1l1.9,6.7c-4.3,2.6-10.8,4.6-16.6,4.6
				c-9.3,0-11.2-5.2-9.9-12.6l1.9-10.7c1.5-8.3,5.4-13.4,16.1-13.4c6.7,0,11.3,3.5,11.3,9.2c0,6.3-4.1,9.9-13.7,12.9
				c-4.3,1.3-5.1,1.5-6.8,2L356.3,135.7z M368.8,119.6c0-1.6-1.4-2.7-3.7-2.7c-4,0-5.9,2.5-6.5,5.8l-0.7,3.6
				c1.2-0.4,1.7-0.5,5.3-1.6C367.2,123.4,368.8,121.9,368.8,119.6z"/>
			<linearGradient id="SVGID_5_" gradientUnits="userSpaceOnUse" x1="207.2596" y1="135.4805" x2="474.3703" y2="135.4805">
				<stop  offset="0" style="stop-color:#F95F53"/>
				<stop  offset="1" style="stop-color:#FF8564"/>
			</linearGradient>
			<path class="st5" d="M406.5,151.3c-1.4,7.7-5.1,9.6-13.1,9.6c-3.4,0-10.3-0.9-15.8-2.7l1.7-6.4c4.4,1.3,9.5,2.4,13.9,2.4
				c3.6,0,4.3-1.1,4.8-4.1l1.4-7.7c-3.9,2.2-7.6,3-11.1,3c-6.1,0-8.2-3.3-8.2-8c0-1.2,0.1-2.4,0.4-3.7l1.6-8.8
				c2-11,4.8-14.7,17.4-14.7c4.6,0,10.2,1.2,13.8,2.7L406.5,151.3z M403.7,117.8c-1.6-0.3-3.3-0.5-5.1-0.5c-5.6,0-7,2.3-7.8,6.9
				l-2,10.9c-0.1,0.4-0.1,0.7-0.1,0.9c0,1.3,0.9,1.9,2.5,1.9c2.7,0,6.4-1.2,9.5-3.3L403.7,117.8z"/>
			<linearGradient id="SVGID_6_" gradientUnits="userSpaceOnUse" x1="207.2596" y1="128.028" x2="474.3703" y2="128.028">
				<stop  offset="0" style="stop-color:#F95F53"/>
				<stop  offset="1" style="stop-color:#FF8564"/>
			</linearGradient>
			<path class="st6" d="M439.1,118c-4.1,2.2-6.7,3.9-10.5,6.3l-3.8,21.7h-8.7l6.1-34.5l7.6-1.3l-0.4,5.1c2.5-1.8,6.1-4,9-5.2
				L439.1,118z"/>
			<linearGradient id="SVGID_7_" gradientUnits="userSpaceOnUse" x1="207.2596" y1="128.3535" x2="474.3703" y2="128.3535">
				<stop  offset="0" style="stop-color:#F95F53"/>
				<stop  offset="1" style="stop-color:#FF8564"/>
			</linearGradient>
			<path class="st7" d="M466.1,146h-7.3l-0.1-3.9c-3,2.7-6.8,4.6-11.5,4.6c-6.1,0-8.2-3.3-8.2-8c0-1.2,0.1-2.4,0.4-3.7l1.8-10.3
				c1.7-9.6,3.9-14.7,17.5-14.7c3.4,0,9.7,1.1,13.3,2.2L466.1,146z M462.4,117.8c-1.6-0.3-3.2-0.5-5-0.5c-5.6,0-6.7,2.3-7.5,6.9
				l-2.2,12.4c-0.1,0.4-0.1,0.7-0.1,0.9c0,1.3,0.8,1.9,2.4,1.9c2.7,0,6.7-2.6,9.4-5.3L462.4,117.8z"/>
			<linearGradient id="SVGID_8_" gradientUnits="userSpaceOnUse" x1="207.2596" y1="127.9195" x2="474.3703" y2="127.9195">
				<stop  offset="0" style="stop-color:#F95F53"/>
				<stop  offset="1" style="stop-color:#FF8564"/>
			</linearGradient>
			<path class="st8" d="M472.4,155.7c2.8-2.7,4.1-5.1,4.7-8.9l5.1-29h-5.4l1.2-7.1h5.4l0.9-5.4c1.3-7.5,4.3-10.4,12.2-10.4
				c2.7,0,6,0.6,8.5,1.5l-1.7,6.7c-2-0.6-4.3-1-6-1c-2.7,0-3.8,0.8-4.2,3.2l-0.9,5.4h9.6l-1.9,7.1H491l-5.3,29.8
				c-1,5.7-3.1,9.3-7.7,13.3L472.4,155.7z"/>
		</g>
	</g>
</g>
</svg>
