<?xml version="1.0" encoding="utf-8"?>
<!-- Generator: Adobe Illustrator 24.1.2, SVG Export Plug-In . SVG Version: 6.00 Build 0)  -->
<svg version="1.1" id="Layer_1" xmlns="http://www.w3.org/2000/svg" xmlns:xlink="http://www.w3.org/1999/xlink" x="0px" y="0px"
	 viewBox="0 0 59.32 60" style="enable-background:new 0 0 59.32 60;" xml:space="preserve">
<style type="text/css">
	.st0{fill-rule:evenodd;clip-rule:evenodd;fill:#F95F53;}
</style>
<path class="st0" d="M52.96,36.86l-11.36,2.6c-0.72,0.19-1.44-0.26-1.63-0.98l-4.83-20.93c-0.2-0.72,0.26-1.43,0.98-1.63l11.36-2.6
	c0.72-0.19,1.44,0.26,1.63,0.98l4.83,20.93C54.13,36.01,53.67,36.73,52.96,36.86z M51.46,39.59L37.69,52.33
	c-0.52,0.52-0.78,0.33-0.59-0.39l2.87-9.23c0.2-0.71,0.98-1.43,1.7-1.56L51.13,39C51.85,38.81,51.98,39.13,51.46,39.59z
	 M33.18,54.54l-20.62-6.31c-0.72-0.19-1.11-0.97-0.91-1.69l3.46-11.05c0.2-0.72,0.98-1.11,1.7-0.91l20.62,6.31
	c0.72,0.19,1.11,0.97,0.91,1.69l-3.46,11.05C34.62,54.34,33.9,54.73,33.18,54.54z M10.08,43.88L5.9,25.61
	c-0.2-0.72,0.13-0.85,0.59-0.33l6.59,7.09c0.52,0.52,0.72,1.56,0.52,2.28l-2.87,9.23C10.54,44.59,10.21,44.59,10.08,43.88z
	 M6.23,20.67L22.02,6.05c0.52-0.52,1.37-0.46,1.89,0.06l7.9,8.52c0.52,0.52,0.46,1.37-0.07,1.89L15.95,31.14
	c-0.52,0.52-1.37,0.46-1.89-0.06l-7.9-8.52C5.64,21.97,5.71,21.13,6.23,20.67z M38.27,38.22c0.2,0.72-0.26,1.11-0.98,0.91
	l-19.45-5.98c-0.72-0.2-0.85-0.78-0.33-1.3L32.4,18.07c0.52-0.52,1.11-0.33,1.31,0.39L38.27,38.22z M27.05,6.05l18.01,5.53
	c0.72,0.19,0.72,0.52,0,0.72l-9.46,2.15c-0.72,0.2-1.7-0.13-2.22-0.65L26.79,6.7C26.2,6.11,26.33,5.85,27.05,6.05z M59.22,36.21
	l-5.74-24.9c-0.33-1.37-1.57-2.73-2.94-3.12L24.31,0.13C23.98,0,23.59,0,23.2,0c-1.11,0-2.28,0.46-3.07,1.11L1.34,18.53
	c-1.04,0.91-1.57,2.73-1.24,4.03l6.13,26.65c0.33,1.36,1.57,2.73,2.94,3.12l24.54,7.54C34.03,60,34.42,60,34.81,60
	c1.11,0,2.28-0.46,3.07-1.11l20.1-18.59C59.03,39.33,59.55,37.57,59.22,36.21z"/>
</svg>
