<?xml version="1.0" encoding="utf-8"?>
<!-- Generator: Adobe Illustrator 24.1.1, SVG Export Plug-In . SVG Version: 6.00 Build 0)  -->
<svg version="1.1" id="Layer_1" xmlns="http://www.w3.org/2000/svg" xmlns:xlink="http://www.w3.org/1999/xlink" x="0px" y="0px"
	 viewBox="0 0 60 60" style="enable-background:new 0 0 60 60;" xml:space="preserve">
<style type="text/css">
	.st0{fill:none;stroke:#22ADF6;stroke-width:2;stroke-linecap:round;stroke-linejoin:round;stroke-miterlimit:10;}
</style>
<path class="st0" d="M30,33c-1.7,0-3-1.3-3-3s1.3-3,3-3s3,1.3,3,3S31.7,33,30,33z M32.1,27.9L47,13 M27.8,32.2L24,36 M55,30h-4
	 M54.1,23.5l-3.9,1 M51.6,17.5l-3.5,2 M41.6,10.2C38.2,8.2,34.2,7,30,7C17.3,7,7,17.3,7,30c0,4.2,0.9,9,4,13 M48,47H6.5l0,0
	c5.3,7.2,13.9,12,23.5,12c16,0,29-13,29-29S46,1,30,1S1,14,1,30c0,4.7,1.1,9.1,3.1,13.1"/>
</svg>
