<?xml version="1.0" encoding="utf-8"?>
<!-- Generator: Adobe Illustrator 24.2.0, SVG Export Plug-In . SVG Version: 6.00 Build 0)  -->
<svg version="1.1" id="Layer_1" xmlns="http://www.w3.org/2000/svg" xmlns:xlink="http://www.w3.org/1999/xlink" x="0px" y="0px"
	 viewBox="0 0 64 119" style="enable-background:new 0 0 64 119;" xml:space="preserve">
<style type="text/css">
	.st0{fill:#0074BD;}
	.st1{fill:#EA2D2E;}
</style>
<g>
	<path id="XMLID_16_" class="st0" d="M21.2,63c0,0-3.1,1.8,2.2,2.4c6.5,0.7,9.8,0.6,16.9-0.7c0,0,1.9,1.2,4.5,2.2
		C28.8,73.8,8.6,66.5,21.2,63L21.2,63z"/>
	<path id="XMLID_15_" class="st0" d="M19.2,54.2c0,0-3.5,2.6,1.8,3.1c6.9,0.7,12.4,0.8,21.8-1c0,0,1.3,1.3,3.4,2
		C26.9,63.9,5.4,58.8,19.2,54.2L19.2,54.2z"/>
	<path id="XMLID_14_" class="st1" d="M35.8,39c3.9,4.5-1,8.6-1,8.6s10-5.2,5.4-11.6c-4.3-6-7.6-9,10.2-19.3
		C50.4,16.7,22.3,23.6,35.8,39L35.8,39z"/>
	<path id="XMLID_13_" class="st0" d="M56.9,69.6c0,0,2.3,1.9-2.5,3.4c-9.2,2.8-38.5,3.6-46.6,0.1c-2.9-1.3,2.6-3,4.3-3.4
		c1.8-0.4,2.8-0.3,2.8-0.3c-3.2-2.3-20.9,4.5-9,6.4C38.5,81.1,65.4,73.4,56.9,69.6L56.9,69.6z"/>
	<path id="XMLID_12_" class="st0" d="M22.7,44.9c0,0-14.8,3.5-5.3,4.8c4,0.5,12.1,0.4,19.6-0.2c6.1-0.5,12.3-1.6,12.3-1.6
		s-2.2,0.9-3.7,2C30.5,53.9,1.4,52,9.8,48C16.9,44.5,22.7,44.9,22.7,44.9L22.7,44.9z"/>
	<path id="XMLID_11_" class="st0" d="M49.4,59.7c15.3-8,8.2-15.6,3.3-14.6c-1.2,0.3-1.8,0.5-1.8,0.5s0.5-0.7,1.3-1
		C62,41.3,69.5,54.8,49,60.1C49.1,60.1,49.3,59.9,49.4,59.7L49.4,59.7z"/>
	<path id="XMLID_10_" class="st1" d="M40.1,0c0,0,8.5,8.5-8,21.5c-13.3,10.5-3,16.4,0,23.3c-7.7-7-13.4-13.1-9.6-18.8
		C28,17.5,43.6,13.5,40.1,0L40.1,0z"/>
	<path id="XMLID_9_" class="st0" d="M24.2,81.3c14.7,0.9,37.4-0.5,37.9-7.5c0,0-1,2.6-12.2,4.7c-12.5,2.4-28,2.1-37.3,0.6
		C12.6,79.1,14.5,80.7,24.2,81.3L24.2,81.3z"/>
	<path class="st1" d="M61.4,93.8H61v-0.3h1.2v0.3h-0.4v1.3h-0.3L61.4,93.8L61.4,93.8L61.4,93.8z M63.8,93.8L63.8,93.8L63.3,95h-0.2
		l-0.4-1.2l0,0V95h-0.3v-1.5h0.4l0.4,1.1l0.4-1.1H64V95h-0.3L63.8,93.8L63.8,93.8z"/>
	<path class="st1" d="M21.8,107.9c-1.4,1.2-2.9,1.9-4.2,1.9c-1.9,0-2.9-1.1-2.9-2.9c0-2,1.1-3.4,5.4-3.4h1.6v4.4H21.8L21.8,107.9z
		 M25.6,112.2V98.8c0-3.4-1.9-5.7-6.6-5.7c-2.7,0-5.1,0.7-7.1,1.5l0.6,2.4c1.5-0.6,3.5-1.1,5.5-1.1c2.7,0,3.9,1.1,3.9,3.3v1.7h-1.4
		c-6.6,0-9.5,2.5-9.5,6.4c0,3.3,2,5.2,5.6,5.2c2.4,0,4.1-1,5.8-2.4l0.3,2L25.6,112.2L25.6,112.2z"/>
	<path id="XMLID_4_" class="st1" d="M38.5,112.2h-4.8l-5.7-18.7h4.1l3.6,11.5l0.8,3.5c1.8-5,3.1-10.1,3.7-14.9h4.1
		C43.1,99.6,41.2,106.4,38.5,112.2L38.5,112.2z"/>
	<path class="st1" d="M56.8,107.9c-1.4,1.2-2.9,1.9-4.2,1.9c-1.9,0-2.9-1.1-2.9-2.9c0-2,1.1-3.4,5.4-3.4h1.6L56.8,107.9L56.8,107.9
		L56.8,107.9z M60.6,112.2V98.8c0-3.4-2-5.7-6.6-5.7c-2.7,0-5.1,0.7-7.1,1.5l0.6,2.4c1.5-0.6,3.5-1.1,5.5-1.1c2.7,0,3.9,1.1,3.9,3.3
		v1.7h-1.4c-6.6,0-9.5,2.5-9.5,6.4c0,3.3,2,5.2,5.6,5.2c2.4,0,4.1-1,5.8-2.4l0.3,2L60.6,112.2L60.6,112.2z"/>
	<path id="XMLID_1_" class="st1" d="M6.7,115.4c-1.1,1.6-2.9,2.9-4.8,3.6L0,116.8c1.5-0.8,2.7-2,3.3-3.1c0.5-1,0.7-2.3,0.7-5.4V87
		h4.1v21.1C8.1,112,7.8,113.7,6.7,115.4L6.7,115.4z"/>
</g>
</svg>
