<?xml version="1.0" encoding="utf-8"?>
<!-- Generator: Adobe Illustrator 24.2.0, SVG Export Plug-In . SVG Version: 6.00 Build 0)  -->
<svg version="1.1" id="Layer_1" xmlns="http://www.w3.org/2000/svg" xmlns:xlink="http://www.w3.org/1999/xlink" x="0px" y="0px"
	 viewBox="0 0 150 150" style="enable-background:new 0 0 150 150;" xml:space="preserve">
<style type="text/css">
	.st0{fill:#0074BD;}
	.st1{fill:#EA2D2E;}
</style>
<g>
	<path id="XMLID_16_" class="st0" d="M64.2,78.6c0,0-3.1,1.8,2.2,2.4c6.5,0.7,9.8,0.6,16.9-0.7c0,0,1.9,1.2,4.5,2.2
		C71.8,89.4,51.6,82.1,64.2,78.6L64.2,78.6z"/>
	<path id="XMLID_15_" class="st0" d="M62.2,69.7c0,0-3.5,2.6,1.8,3.1c6.9,0.7,12.4,0.8,21.8-1c0,0,1.3,1.3,3.4,2
		C69.9,79.5,48.4,74.3,62.2,69.7L62.2,69.7z"/>
	<path id="XMLID_14_" class="st1" d="M78.7,54.5c3.9,4.5-1,8.6-1,8.6s10-5.2,5.4-11.6c-4.3-6-7.6-9,10.2-19.3
		C93.3,32.2,65.3,39.1,78.7,54.5L78.7,54.5z"/>
	<path id="XMLID_13_" class="st0" d="M99.8,85.2c0,0,2.3,1.9-2.5,3.4c-9.2,2.8-38.4,3.6-46.5,0.1c-2.9-1.3,2.6-3,4.3-3.4
		c1.8-0.4,2.8-0.3,2.8-0.3c-3.2-2.3-20.9,4.5-9,6.4C81.4,96.7,108.3,89,99.8,85.2L99.8,85.2z"/>
	<path id="XMLID_12_" class="st0" d="M65.7,60.4c0,0-14.8,3.5-5.3,4.8c4,0.5,12.1,0.4,19.6-0.2c6.1-0.5,12.3-1.6,12.3-1.6
		s-2.2,0.9-3.7,2c-15.1,4-44.2,2.1-35.8-1.9C59.9,60,65.7,60.4,65.7,60.4L65.7,60.4z"/>
	<path id="XMLID_11_" class="st0" d="M92.3,75.3c15.3-8,8.2-15.6,3.3-14.6c-1.2,0.3-1.8,0.5-1.8,0.5s0.5-0.7,1.3-1
		c9.8-3.4,17.3,10.1-3.2,15.5C92,75.7,92.2,75.5,92.3,75.3L92.3,75.3z"/>
	<path id="XMLID_10_" class="st1" d="M83,15.5c0,0,8.5,8.5-8,21.5c-13.3,10.5-3,16.4,0,23.3c-7.7-7-13.4-13.1-9.6-18.8
		C71,33,86.5,29,83,15.5L83,15.5z"/>
	<path id="XMLID_9_" class="st0" d="M67.2,96.9c14.7,0.9,37.3-0.5,37.8-7.5c0,0-1,2.6-12.2,4.7c-12.5,2.4-28,2.1-37.2,0.6
		C55.6,94.7,57.5,96.3,67.2,96.9L67.2,96.9z"/>
	<path class="st1" d="M104.3,109.4h-0.4v-0.3h1.2v0.3h-0.4v1.3h-0.3L104.3,109.4L104.3,109.4L104.3,109.4z M106.7,109.4L106.7,109.4
		l-0.5,1.2h-0.2l-0.4-1.2h0v1.2h-0.3v-1.5h0.4l0.4,1.1l0.4-1.1h0.4v1.5h-0.3L106.7,109.4L106.7,109.4z"/>
	<path class="st1" d="M64.8,123.5c-1.4,1.2-2.9,1.9-4.2,1.9c-1.9,0-2.9-1.1-2.9-2.9c0-2,1.1-3.4,5.4-3.4h1.6V123.5L64.8,123.5
		L64.8,123.5z M68.6,127.8v-13.4c0-3.4-1.9-5.7-6.6-5.7c-2.7,0-5.1,0.7-7.1,1.5l0.6,2.4c1.5-0.6,3.5-1.1,5.5-1.1
		c2.7,0,3.9,1.1,3.9,3.3v1.7h-1.4c-6.6,0-9.5,2.5-9.5,6.4c0,3.3,2,5.2,5.6,5.2c2.4,0,4.1-1,5.8-2.4l0.3,2H68.6L68.6,127.8z"/>
	<path id="XMLID_4_" class="st1" d="M81.4,127.8h-4.8l-5.7-18.7H75l3.6,11.5l0.8,3.5c1.8-5,3.1-10.1,3.7-14.9h4.1
		C86,115.2,84.1,122,81.4,127.8L81.4,127.8z"/>
	<path class="st1" d="M99.7,123.5c-1.4,1.2-2.9,1.9-4.2,1.9c-1.9,0-2.9-1.1-2.9-2.9c0-2,1.1-3.4,5.4-3.4h1.6L99.7,123.5L99.7,123.5
		L99.7,123.5z M103.5,127.8v-13.4c0-3.4-2-5.7-6.6-5.7c-2.7,0-5.1,0.7-7.1,1.5l0.6,2.4c1.5-0.6,3.5-1.1,5.5-1.1
		c2.7,0,3.9,1.1,3.9,3.3v1.7h-1.4c-6.6,0-9.5,2.5-9.5,6.4c0,3.3,2,5.2,5.6,5.2c2.4,0,4.1-1,5.8-2.4l0.3,2H103.5L103.5,127.8z"/>
	<path id="XMLID_1_" class="st1" d="M49.7,131c-1.1,1.6-2.9,2.9-4.8,3.6l-1.9-2.2c1.5-0.8,2.7-2,3.3-3.1c0.5-1,0.7-2.3,0.7-5.4
		v-21.3h4.1v21.1C51.1,127.6,50.8,129.3,49.7,131L49.7,131z"/>
</g>
</svg>
