<?xml version="1.0" encoding="utf-8"?>
<!-- Generator: Adobe Illustrator 24.1.1, SVG Export Plug-In . SVG Version: 6.00 Build 0)  -->
<svg version="1.1" id="Layer_1" xmlns="http://www.w3.org/2000/svg" xmlns:xlink="http://www.w3.org/1999/xlink" x="0px" y="0px"
	 viewBox="0 0 53.15 53.17" style="enable-background:new 0 0 53.15 53.17;" xml:space="preserve">
<style type="text/css">
	.st0{display:none;}
	.st1{display:inline;fill:url(#SVGID_1_);}
	
		.st2{display:inline;fill:none;stroke:url(#SVGID_2_);stroke-width:2;stroke-linecap:round;stroke-linejoin:round;stroke-miterlimit:10;}
	.st3{fill:#22ADF6;}
</style>
<g class="st0">
	<linearGradient id="SVGID_1_" gradientUnits="userSpaceOnUse" x1="13.9777" y1="28.9516" x2="26.9341" y2="15.9952">
		<stop  offset="0" style="stop-color:#BF2FE5"/>
		<stop  offset="1" style="stop-color:#22ADF6"/>
	</linearGradient>
	<path class="st1" d="M25.58,29c-1.75,0-3.17-1.42-3.17-3.17c0-1.49,1.03-2.74,2.41-3.08v-1.8h-8.73v1.8
		c1.38,0.34,2.41,1.59,2.41,3.08c0,1.75-1.42,3.17-3.17,3.17s-3.17-1.42-3.17-3.17c0-1.49,1.03-2.74,2.41-3.08V20.2
		c0-0.42,0.34-0.76,0.76-0.76h4.37v-2.37c-1.38-0.34-2.41-1.59-2.41-3.08c0-1.75,1.42-3.17,3.17-3.17c1.75,0,3.17,1.42,3.17,3.17
		c0,1.49-1.03,2.74-2.41,3.08v2.37h4.37c0.42,0,0.76,0.34,0.76,0.76v2.55c1.38,0.34,2.41,1.59,2.41,3.08
		C28.75,27.58,27.32,29,25.58,29z M25.58,24.17c-0.91,0-1.66,0.74-1.66,1.66s0.74,1.66,1.66,1.66c0.91,0,1.66-0.74,1.66-1.66
		S26.49,24.17,25.58,24.17z M15.33,24.17c-0.91,0-1.66,0.74-1.66,1.66s0.74,1.66,1.66,1.66s1.66-0.74,1.66-1.66
		S16.25,24.17,15.33,24.17z M20.46,12.34c-0.91,0-1.66,0.74-1.66,1.66s0.74,1.66,1.66,1.66c0.91,0,1.66-0.74,1.66-1.66
		S21.37,12.34,20.46,12.34z"/>
	<linearGradient id="SVGID_2_" gradientUnits="userSpaceOnUse" x1="14.4891" y1="43.4416" x2="43.4317" y2="14.499">
		<stop  offset="0" style="stop-color:#BF2FE5"/>
		<stop  offset="1" style="stop-color:#22ADF6"/>
	</linearGradient>
	<path class="st2" d="M31.54,9.38c6.12,6.12,6.12,16.04,0,22.16s-16.04,6.12-22.16,0s-6.12-16.04,0-22.16S25.42,3.26,31.54,9.38z
		 M36.45,31.79 M31.79,36.46l14.29,14.3c0,0,2.82,2.82,5.15,0.48c2.33-2.33-0.48-5.15-0.48-5.15l-11.7-11.71 M34.22,6.7
		c7.6,7.6,7.6,19.93,0,27.53s-19.93,7.6-27.53,0s-7.6-19.93,0-27.53S26.62-0.9,34.22,6.7z"/>
</g>
<path class="st3" d="M25.58,29c-1.75,0-3.17-1.42-3.17-3.17c0-1.49,1.03-2.74,2.41-3.08v-1.8h-8.73v1.8
	c1.38,0.34,2.41,1.59,2.41,3.08c0,1.75-1.42,3.17-3.17,3.17s-3.17-1.42-3.17-3.17c0-1.49,1.03-2.74,2.41-3.08V20.2
	c0-0.42,0.34-0.76,0.76-0.76h4.37v-2.37c-1.38-0.34-2.41-1.59-2.41-3.08c0-1.75,1.42-3.17,3.17-3.17c1.75,0,3.17,1.42,3.17,3.17
	c0,1.49-1.03,2.74-2.41,3.08v2.37h4.37c0.42,0,0.76,0.34,0.76,0.76v2.55c1.38,0.34,2.41,1.59,2.41,3.08
	C28.75,27.58,27.32,29,25.58,29z M25.58,24.17c-0.91,0-1.66,0.74-1.66,1.66s0.74,1.66,1.66,1.66c0.91,0,1.66-0.74,1.66-1.66
	S26.49,24.17,25.58,24.17z M15.33,24.17c-0.91,0-1.66,0.74-1.66,1.66s0.74,1.66,1.66,1.66s1.66-0.74,1.66-1.66
	S16.25,24.17,15.33,24.17z M20.46,12.34c-0.91,0-1.66,0.74-1.66,1.66s0.74,1.66,1.66,1.66c0.91,0,1.66-0.74,1.66-1.66
	S21.37,12.34,20.46,12.34z M49.15,53.17c-1.56,0-3.01-0.94-3.77-1.71L31.57,37.65c-7.92,5.13-18.65,4.22-25.58-2.72
	c-7.98-7.98-7.98-20.96,0-28.94C9.85,2.13,14.99,0,20.46,0s10.61,2.13,14.47,5.99l0,0l0,0c7.98,7.98,7.98,20.96,0,28.94
	c-0.55,0.55-1.12,1.06-1.71,1.53l13.58,13.58c0.21,0.21,2.17,2.04,3.73,0.48c1.56-1.57-0.27-3.52-0.48-3.74l-11.7-11.7
	c-0.39-0.39-0.39-1.02,0-1.41s1.02-0.39,1.41,0l11.7,11.71c0.09,0.09,0.86,0.88,1.33,2.02c0.7,1.68,0.39,3.29-0.85,4.54
	C51.04,52.84,50.07,53.17,49.15,53.17z M20.46,2C15.52,2,10.89,3.92,7.4,7.41c-7.2,7.2-7.2,18.91,0,26.11c7.2,7.2,18.91,7.2,26.11,0
	c7.2-7.2,7.2-18.91,0-26.11l0,0C30.03,3.92,25.39,2,20.46,2z M20.46,37.13c-4.27,0-8.54-1.63-11.79-4.88c-6.5-6.5-6.5-17.08,0-23.58
	c6.5-6.5,17.08-6.5,23.58,0l0,0c6.5,6.5,6.5,17.08,0,23.58C29,35.51,24.73,37.13,20.46,37.13z M20.46,5.8
	c-3.76,0-7.52,1.43-10.38,4.29c-5.72,5.72-5.72,15.03,0,20.75c5.72,5.72,15.03,5.72,20.75,0c5.72-5.72,5.72-15.03,0-20.75
	C27.97,7.23,24.21,5.8,20.46,5.8z"/>
</svg>
