<?xml version="1.0" encoding="utf-8"?>
<!-- Generator: Adobe Illustrator 24.2.0, SVG Export Plug-In . SVG Version: 6.00 Build 0)  -->
<svg version="1.1" id="Layer_1" xmlns="http://www.w3.org/2000/svg" xmlns:xlink="http://www.w3.org/1999/xlink" x="0px" y="0px"
	 viewBox="0 0 1538 2500" style="enable-background:new 0 0 1538 2500;" xml:space="preserve">
<style type="text/css">
	.st0{fill:#FFFFFF;}
</style>
<path class="st0" d="M1212.5,1383.5c-97.2,0-184.4,43.1-244.1,110.9l-153-108.3c16.2-44.7,25.6-92.7,25.6-143
	c0-49.4-9-96.6-24.7-140.6l152.6-107.1c59.7,67.5,146.6,110.3,243.6,110.3c179.5,0,325.5-146,325.5-325.5s-146-325.5-325.5-325.5
	s-325.5,146-325.5,325.5c0,32.1,4.9,63.1,13.6,92.5L747.8,979.8C684,900.6,592.1,845.4,487.4,828.5V644.4
	c147.5-31,258.6-162,258.6-318.5C746,146.4,600,0.4,420.5,0.4S94.9,146.4,94.9,325.9c0,154.4,108.2,283.8,252.7,317v186.5
	C150.5,864,0,1036.1,0,1243.1c0,208,151.9,380.7,350.6,414.2v196.9c-146,32.1-255.6,162.3-255.6,317.8
	c0,179.5,146,325.5,325.5,325.5S746,2351.5,746,2172c0-155.5-109.7-285.7-255.6-317.8v-196.9c100.5-16.9,191.5-69.8,255.9-148.8
	l154,109c-8.5,29.1-13.3,59.8-13.3,91.6c0,179.5,146,325.5,325.5,325.5s325.5-146,325.5-325.5S1392,1383.5,1212.5,1383.5
	L1212.5,1383.5z M1212.5,622.3c87,0,157.8,70.8,157.8,157.8S1299.5,938,1212.5,938s-157.8-70.8-157.8-157.8
	S1125.4,622.3,1212.5,622.3L1212.5,622.3z M262.6,325.9c0-87,70.8-157.8,157.8-157.8s157.8,70.8,157.8,157.8
	s-70.8,157.8-157.8,157.8S262.6,412.9,262.6,325.9L262.6,325.9z M578.3,2172c0,87-70.8,157.8-157.8,157.8S262.6,2259,262.6,2172
	s70.8-157.8,157.8-157.8S578.3,2085,578.3,2172z M420.5,1463.2c-121.4,0-220.1-98.7-220.1-220.1c0-121.4,98.8-220.1,220.1-220.1
	c121.4,0,220.1,98.8,220.1,220.1C640.6,1364.5,541.8,1463.2,420.5,1463.2z M1212.5,1866.8c-87,0-157.8-70.8-157.8-157.8
	c0-87,70.8-157.8,157.8-157.8s157.8,70.8,157.8,157.8C1370.3,1796,1299.5,1866.8,1212.5,1866.8z"/>
</svg>
