<?xml version="1.0" encoding="utf-8"?>
<!-- Generator: Adobe Illustrator 19.1.0, SVG Export Plug-In . SVG Version: 6.00 Build 0)  -->
<svg version="1.1" id="Layer_1" xmlns="http://www.w3.org/2000/svg" xmlns:xlink="http://www.w3.org/1999/xlink" x="0px" y="0px"
	 viewBox="-263 476 672 250" style="enable-background:new -263 476 672 250;" xml:space="preserve">
<style type="text/css">
	.st0{fill:url(#symbol_1_);}
	.st1{fill:url(#SVGID_1_);}
	.st2{fill:url(#SVGID_2_);}
	.st3{fill:url(#SVGID_3_);}
	.st4{fill:url(#SVGID_4_);}
	.st5{fill:url(#SVGID_5_);}
</style>
<g id="kpop_logo">
	
		<linearGradient id="symbol_1_" gradientUnits="userSpaceOnUse" x1="-21.2712" y1="602.95" x2="187.7214" y2="602.95" gradientTransform="matrix(1 0 0 -1 0 1204)">
		<stop  offset="0" style="stop-color:#C557FF"/>
		<stop  offset="1" style="stop-color:#8050EA"/>
	</linearGradient>
	<path id="symbol_4_" class="st0" d="M14.5,609.3l-7.6-33.2c-0.4-1.8-2.1-3.6-3.9-4.1l-34.9-10.7c-0.5-0.1-1-0.2-1.5-0.2
		c-1.5,0-3.1,0.6-4,1.5l-25,23.2c-1.3,1.2-2.1,3.6-1.7,5.4l8.1,35.5c0.4,1.8,2.1,3.6,3.9,4.1l32.6,10c0.5,0.1,1,0.2,1.5,0.2
		c1.5,0,3.1-0.6,4-1.5l26.7-24.8C14.2,613.5,14.9,611.1,14.5,609.3z M-28.3,569.1l23.9,7.3c0.9,0.3,0.9,0.7,0,0.9l-12.6,2.9
		c-1,0.2-2.3-0.2-2.9-0.9l-8.8-9.5C-29.4,569.2-29.2,568.9-28.3,569.1z M-13.4,612c0.2,1-0.4,1.5-1.3,1.2l-25.8-7.9
		c-0.9-0.3-1.1-1.1-0.4-1.7l19.8-18.4c0.7-0.7,1.5-0.4,1.7,0.5L-13.4,612z M-55.9,588.6l21-19.5c0.7-0.7,1.8-0.6,2.5,0.1l10.5,11.3
		c0.7,0.7,0.6,1.8-0.1,2.5l-21,19.5c-0.7,0.7-1.8,0.6-2.5-0.1L-56,591.1C-56.6,590.4-56.6,589.3-55.9,588.6z M-50.8,619.6l-5.6-24.3
		c-0.2-1,0.1-1.1,0.8-0.4l8.8,9.5c0.7,0.7,1,2.1,0.7,3l-3.8,12.3C-50.2,620.5-50.6,620.5-50.8,619.6z M-20.1,633.7l-27.3-8.4
		c-0.9-0.3-1.5-1.3-1.2-2.2l4.5-14.8c0.3-0.9,1.3-1.5,2.2-1.2l27.3,8.4c0.9,0.3,1.5,1.3,1.2,2.2l-4.5,14.8
		C-18.2,633.5-19.2,634-20.1,633.7z M4.2,613.8l-18.3,17c-0.7,0.7-1.1,0.4-0.8-0.5l3.8-12.3c0.3-0.9,1.3-1.9,2.3-2.1L3.8,613
		C4.7,612.8,4.9,613.2,4.2,613.8z M6.2,610.2l-15.1,3.4c-1,0.2-1.9-0.4-2.1-1.3l-6.4-27.9c-0.2-1,0.4-1.9,1.3-2.1l15.1-3.4
		c1-0.2,1.9,0.4,2.1,1.3l6.4,27.9C7.7,609,7.1,610,6.2,610.2z"/>
	<g id="type_4_">
		<g>
			
				<linearGradient id="SVGID_1_" gradientUnits="userSpaceOnUse" x1="-21.2712" y1="607.45" x2="187.7214" y2="607.45" gradientTransform="matrix(1 0 0 -1 0 1204)">
				<stop  offset="0" style="stop-color:#C557FF"/>
				<stop  offset="1" style="stop-color:#8050EA"/>
			</linearGradient>
			<path class="st1" d="M50.9,572.3l8.9-1.2l-9,50.9h-8.7L50.9,572.3z M55.3,604.2L68.2,586l9.3,1.5l-12.9,16.7l7.3,17.7h-9.2
				L55.3,604.2z"/>
			
				<linearGradient id="SVGID_2_" gradientUnits="userSpaceOnUse" x1="-21.2712" y1="602.4" x2="187.7214" y2="602.4" gradientTransform="matrix(1 0 0 -1 0 1204)">
				<stop  offset="0" style="stop-color:#C557FF"/>
				<stop  offset="1" style="stop-color:#8050EA"/>
			</linearGradient>
			<path class="st2" d="M81.3,598h17.9l-1.3,7.2H80L81.3,598z"/>
			
				<linearGradient id="SVGID_3_" gradientUnits="userSpaceOnUse" x1="-21.2712" y1="592.3" x2="187.7214" y2="592.3" gradientTransform="matrix(1 0 0 -1 0 1204)">
				<stop  offset="0" style="stop-color:#C557FF"/>
				<stop  offset="1" style="stop-color:#8050EA"/>
			</linearGradient>
			<path class="st3" d="M108.8,586.7h7.4v3.9c3-2.7,6.8-4.6,12-4.6c6.1,0,8.2,3.3,8.2,8c0,1.2-0.1,2.4-0.4,3.7l-1.8,10.3
				c-1.6,9-3.3,14.7-17.1,14.7c-1.3,0-3.8-0.2-5.8-0.7l-2.5,14.2l-8.9,1.2L108.8,586.7z M112.5,615c1.6,0.4,3.9,0.4,5.1,0.4
				c5.6,0,7-2.2,7.8-6.9l2.2-12.4c0.1-0.4,0.1-0.7,0.1-0.9c0-1.3-0.9-1.9-2.5-1.9c-3.7,0-8,3-9.8,5.3L112.5,615z"/>
			
				<linearGradient id="SVGID_4_" gradientUnits="userSpaceOnUse" x1="-21.2712" y1="599.65" x2="187.7214" y2="599.65" gradientTransform="matrix(1 0 0 -1 0 1204)">
				<stop  offset="0" style="stop-color:#C557FF"/>
				<stop  offset="1" style="stop-color:#8050EA"/>
			</linearGradient>
			<path class="st4" d="M140.3,611.2c0-0.9,0.1-1.9,0.2-2.8l1.5-8.5c1.6-8.7,5.9-13.9,17.7-13.9c9,0,13.3,5.1,13.3,11.3
				c0,0.9-0.1,1.7-0.2,2.5l-1.7,9.4c-1.4,8.2-5.4,13.5-17.7,13.5C144.3,622.7,140.3,617.4,140.3,611.2z M164.2,599.4
				c0.1-0.4,0.1-1.2,0.1-1.6c0-2.9-1.8-4.5-5.8-4.5c-4.6,0-7,2.1-7.8,6.4l-1.7,9.5c-0.1,0.4-0.1,1.1-0.1,1.6c0,2.8,1.6,4.6,5.8,4.6
				c4.6,0,7-2,7.7-6.2L164.2,599.4z"/>
			
				<linearGradient id="SVGID_5_" gradientUnits="userSpaceOnUse" x1="-21.2712" y1="592.3" x2="187.7214" y2="592.3" gradientTransform="matrix(1 0 0 -1 0 1204)">
				<stop  offset="0" style="stop-color:#C557FF"/>
				<stop  offset="1" style="stop-color:#8050EA"/>
			</linearGradient>
			<path class="st5" d="M182.6,586.7h7.4v3.9c3-2.7,6.8-4.6,12-4.6c6.1,0,8.2,3.3,8.2,8c0,1.2-0.1,2.4-0.4,3.7L208,608
				c-1.6,9-3.3,14.7-17.1,14.7c-1.3,0-3.8-0.2-5.8-0.7l-2.5,14.2l-8.9,1.2L182.6,586.7z M186.3,615c1.6,0.4,3.9,0.4,5.1,0.4
				c5.6,0,7-2.2,7.8-6.9l2.2-12.4c0.1-0.4,0.1-0.7,0.1-0.9c0-1.3-0.9-1.9-2.5-1.9c-3.7,0-8,3-9.8,5.3L186.3,615z"/>
		</g>
	</g>
</g>
</svg>
