<svg id="Layer_1" xmlns="http://www.w3.org/2000/svg" viewBox="0 0 80 80" width="2500" height="2500"><style>.st0{fill:#e9478b}.st1{fill:#3ebeb0}.st2{fill:#37a595}.st3{fill:#353535}.st4{fill:none}</style><path class="st0" d="M19.6 33.1c7.3 0 14.2 1.9 20.2 5.1l21.4-25.7H18.8v51-30.4h.8z"/><path class="st1" d="M39.8 38.2l-21 25.3v4h42.3c-2.4-12.6-10.4-23.3-21.3-29.3z"/><path class="st2" d="M39.8 38.2l-21 25.3v4h7.5l20.4-24.6s-1.4-1.1-3.3-2.5c-1.4-1-3.6-2.2-3.6-2.2z"/><path class="st3" d="M19.6 33.1h-.8v30.4l21-25.3c-6-3.2-12.9-5.1-20.2-5.1z"/><path class="st4" d="M0 0h80v80H0z"/></svg>