<?xml version="1.0" encoding="UTF-8"?>
<svg width="1113px" height="175px" viewBox="0 0 1113 175" version="1.1" xmlns="http://www.w3.org/2000/svg" xmlns:xlink="http://www.w3.org/1999/xlink">
    <!-- Generator: Sketch 53.2 (72643) - https://sketchapp.com -->
    <title>arista-logo</title>
    <desc>Created with Sketch.</desc>
    <g id="Page-1" stroke="none" stroke-width="1" fill="none" fill-rule="evenodd">
        <g id="arista-logo" fill="#16325B" fill-rule="nonzero">
            <path d="M390.027,103.426 C427.021,103.426 445.518,77.738 445.518,52.048 C445.518,26.36 427.02,1.695 387.972,1.695 C359.199,0.666 253.355,0.666 253.355,0.666 L253.355,174.334 L286.234,174.334 L286.234,28.413 C311.925,28.413 376.664,28.413 390.024,28.413 C408.52,28.413 417.769,34.576 417.769,52.048 C417.769,66.433 408.522,74.654 391.051,74.654 L304.736,74.654 L407.497,173.302 L447.575,173.302 L373.584,101.37 C380.78,103.426 389,103.426 390.027,103.426 Z" id="Path"></path>
            <rect id="Rectangle" x="479.429" y="0.669" width="31.856" height="173.665"></rect>
            <polygon id="Path" points="915.137 27.387 915.137 0.669 847.313 0.669 815.457 0.669 758.938 0.669 740.441 27.387 815.457 27.387 815.457 174.334 847.313 174.334 847.313 27.387"></polygon>
            <path d="M677.756,72.6 C661.315,72.6 620.213,72.6 596.574,72.6 C580.136,72.6 570.885,65.408 570.885,51.02 C570.885,34.58 582.19,27.387 596.574,27.387 C619.183,27.387 707.554,27.387 707.554,27.387 L721.941,0.669 C721.941,0.669 614.043,0.669 595.546,0.669 C566.771,0.669 543.139,22.246 543.139,52.051 C543.139,78.766 565.747,100.345 596.573,100.345 C614.046,100.345 666.45,100.345 677.755,100.345 C696.255,100.345 706.53,108.569 706.53,123.982 C706.53,137.339 695.225,146.59 677.755,146.59 L565.748,146.59 L549.308,174.334 C549.308,174.334 647.957,174.334 681.866,174.334 C715.778,174.334 734.272,149.676 734.272,121.93 C734.275,96.233 712.695,72.6 677.756,72.6 Z" id="Path"></path>
            <path d="M103.325,11.972 C96.133,23.272 0.564,174.334 0.564,174.334 L34.474,174.334 L66.332,122.953 L134.154,122.953 L151.624,95.207 L83.8,95.207 L120.793,35.605 L207.114,173.302 L241.025,173.302 C241.025,173.302 146.483,24.301 138.26,10.943 C129.013,-2.413 112.574,-1.387 103.325,11.972 Z" id="Path"></path>
            <path d="M1078.523,174.334 L1112.435,174.334 C1112.435,174.334 1017.896,25.331 1009.671,11.972 C1000.427,-3.443 983.982,-2.413 974.733,10.944 C967.538,22.245 871.971,173.303 871.971,173.303 L905.881,173.303 L937.736,121.925 L1006.588,121.925 L1024.055,94.179 L956.235,94.179 L993.231,34.576 L1078.523,174.334 Z" id="Path"></path>
        </g>
    </g>
</svg>