<?xml version="1.0" encoding="UTF-8" standalone="no"?>
<!-- Created with Inkscape (http://www.inkscape.org/) -->

<svg
   xmlns:osb="http://www.openswatchbook.org/uri/2009/osb"
   xmlns:dc="http://purl.org/dc/elements/1.1/"
   xmlns:cc="http://creativecommons.org/ns#"
   xmlns:rdf="http://www.w3.org/1999/02/22-rdf-syntax-ns#"
   xmlns:svg="http://www.w3.org/2000/svg"
   xmlns="http://www.w3.org/2000/svg"
   xmlns:sodipodi="http://sodipodi.sourceforge.net/DTD/sodipodi-0.dtd"
   xmlns:inkscape="http://www.inkscape.org/namespaces/inkscape"
   width="1308.0035"
   height="454.33536"
   id="svg2"
   version="1.1"
   inkscape:version="0.48.2 r9819"
   sodipodi:docname="leofs-logo-3.svg"
   inkscape:export-filename="/Users/yosuke.hara/Desktop/leofs-logo.png"
   inkscape:export-xdpi="90"
   inkscape:export-ydpi="90"
   style="enable-background:new">
  <defs
     id="defs4">
    <linearGradient
       id="linearGradient5641"
       osb:paint="solid">
      <stop
         style="stop-color:#000000;stop-opacity:1;"
         offset="0"
         id="stop5643" />
    </linearGradient>
    <linearGradient
       id="linearGradient5612"
       osb:paint="solid">
      <stop
         style="stop-color:#000000;stop-opacity:1;"
         offset="0"
         id="stop5614" />
    </linearGradient>
    <inkscape:path-effect
       effect="bend_path"
       id="path-effect5390"
       is_visible="true"
       bendpath="m 58.55685,235.33471 92.00199,0"
       prop_scale="0.99"
       scale_y_rel="true"
       vertical="false" />
    <linearGradient
       id="linearGradient5373"
       osb:paint="solid">
      <stop
         style="stop-color:#ffffff;stop-opacity:1;"
         offset="0"
         id="stop5375" />
    </linearGradient>
    <linearGradient
       id="linearGradient5349"
       osb:paint="solid">
      <stop
         style="stop-color:#000000;stop-opacity:1;"
         offset="0"
         id="stop5351" />
    </linearGradient>
  </defs>
  <sodipodi:namedview
     id="base"
     pagecolor="#ffffff"
     bordercolor="#666666"
     borderopacity="1.0"
     inkscape:pageopacity="0"
     inkscape:pageshadow="2"
     inkscape:zoom="0.90028971"
     inkscape:cx="524.0701"
     inkscape:cy="215.76554"
     inkscape:document-units="px"
     inkscape:current-layer="layer3"
     showgrid="false"
     inkscape:window-width="1436"
     inkscape:window-height="856"
     inkscape:window-x="4"
     inkscape:window-y="0"
     inkscape:window-maximized="1"
     inkscape:snap-smooth-nodes="true"
     inkscape:object-paths="false"
     inkscape:snap-nodes="true"
     inkscape:snap-global="false"
     fit-margin-top="0"
     fit-margin-left="0"
     fit-margin-right="0"
     fit-margin-bottom="0"
     showguides="true"
     inkscape:guide-bbox="true"
     inkscape:showpageshadow="true"
     showborder="true">
    <inkscape:grid
       type="xygrid"
       id="grid6470"
       empspacing="5"
       visible="true"
       enabled="true"
       snapvisiblegridlinesonly="true" />
  </sodipodi:namedview>
  <metadata
     id="metadata7">
    <rdf:RDF>
      <cc:Work
         rdf:about="">
        <dc:format>image/svg+xml</dc:format>
        <dc:type
           rdf:resource="http://purl.org/dc/dcmitype/StillImage" />
        <dc:title></dc:title>
      </cc:Work>
    </rdf:RDF>
  </metadata>
  <g
     inkscape:groupmode="layer"
     id="layer3"
     inkscape:label="Face"
     style="display:inline"
     transform="translate(-44.445286,-82.114116)"
     sodipodi:insensitive="true">
    <path
       style="fill:#000000;fill-opacity:1;stroke:#000000;stroke-width:1;stroke-opacity:1"
       d="m 186.9375,0.5 c 30.29988,28.621314 69.06737,48.28872 77.09375,96.6875 L 262.8125,96.71875 C 242.86614,26.917 147.57693,6.878373 112.34375,19 61.89953,30.02194 162.1739,3.960791 227.0625,83.96875 188.48295,58.63023 149.21731,37.11223 103.96875,46 50.066241,58.96169 16.30522,100.831 12.03125,158.53125 34.418168,119.17156 96.8525,78.88177 140,92.46875 67.92728,93.07587 15.647236,145.16215 5.28125,191.78125 -0.737337,212.22 -0.983193,253.93901 4.0625,255.75 38.362965,149.22418 115.35869,136.96596 149.9375,123.5 104.14427,143.71098 56.786445,167.10697 37.75,209 c -11.075965,21.22156 -17.569762,46.58874 -13.125,70.65625 5.250634,28.43115 31.76473,50.28962 62.28125,60.28125 -28.2705,-88.56696 -0.75335,-151.07938 70.75,-187.875 -118.425177,76.0048 -79.1019,226.74241 33.78125,226.125 -48.97517,-65.18143 -83.09315,-129.90961 -19.28125,-201.125 -62.28073,125.67123 9.54784,154.34941 78.71875,212.6875 24.41711,18.27576 26.15141,43.79507 29.59375,37.625 5.61188,-12.51525 -17.6362,-34.56282 -14,-47.1875 6.5789,-14.09455 47.48874,29.81727 51.25,47.875 3.13165,15.03491 9.54182,44.41974 6.53125,9.03125 -12.09604,-99.94915 -124.87944,-86.74928 -142.59375,-166.6875 -0.009,-0.11741 0.011,-0.22487 0,-0.34375 27.6626,46.12986 86.14726,65.81818 123.71875,87.875 16.46467,10.78887 35.2442,29.78083 30.46875,44.46875 -3.71577,10.8018 7.79652,0.95762 7.96875,-12.09375 -2.1747,-59.38084 -158.68468,-100.96313 -98.65625,-158.65625 -2.06203,11.27223 -6.93298,23.2904 -4.84375,33.78125 16.08014,33.11682 67.88945,48.10738 85.34375,54.71875 5.01118,1.14436 10.55184,3.47593 14.8125,-2.53125 6.1314,-6.29241 22.66133,-39.35787 15.71875,-44.75 -0.80707,-0.52876 -8.03125,1.25 -8.03125,1.25 l -1.34375,-8.375 -7.34375,6.8125 c 0,0 -26.55148,1.32769 -39.375,-1.5 -9.67085,-2.14676 -21.96996,-10.85743 -22.46875,-18.9375 0.28893,-3.95615 5.125,-10.78125 5.125,-10.78125 0,0 6.43913,-8.78969 11.25,-10.71875 17.25119,-3.83455 41.73077,6.87671 49.0625,15.3125 l -2.125,12.75 11.09375,-3.5625 c 5.37225,11.69947 0.18916,0.3652 4.3125,9.53125 l 4.625,-6.4375 8.34375,0.9375 c 8.35976,-7.43687 17.2306,-12.30598 21.71875,-23.90625 -9.50779,-33.25046 -38.51897,-64.38852 -71.46875,-64.5 -8.82461,0.87684 -23.3778,3.75112 -26.21875,-4.65625 -1.13879,-3.37009 3.47506,-7.25156 7.1875,-7.8125 8.42643,-1.27321 20.28062,1.41891 28.21875,-0.84375 3.27775,-0.93427 -2.3658,-7.7636 0,-10.21875 1.68652,-1.75022 5.49288,-1.89584 7.28125,-0.25 5.06406,6.19718 -7.56472,14.14188 -4.84375,18.125 31.19048,13.93133 51.02513,28.64787 59.4375,56.46875 4.83621,2.34518 14.61612,-15.31882 17.21875,-19.4375 -0.40898,-10.63393 -7.38546,-18.12118 -21.15625,-26.09375 -9.43228,-6.84369 -27.23312,-12.20819 -29.84375,-20.09375 -1.42684,-4.30988 1.14934,-11.59588 -21.4375,-26.09375 0,0 -8.6381,-4.4869 -13.3125,-5.625 -8.51169,-2.07235 -17.4284,-1.90945 -26.1875,-2.03125 -8.50438,-0.11836 -23.3936,0.96079 -28.40625,1.34375 1.99664,-12.59511 23.81782,-4.82758 25.15625,-14.40625 C 299.65027,59.07106 233.61385,2.577137 186.9375,0.5 z m 20.40625,93.65625 c 13.89247,-0.51689 29.69539,6.25304 37.21875,18.8125 1.16086,2.64103 2.31608,6.93815 0,8.65625 -6.95676,2.39351 -30.07855,-28.49848 -56.53125,-13.28125 -4.18502,2.5395 -7.74812,6.75464 -9.28125,11.40625 -3.06664,9.30432 1.22168,16.84272 7.15625,21.0625 4.90578,3.48827 14.65625,10.53125 14.65625,10.53125 -21.70241,-5.51329 -30.99456,-21.09727 -28.21875,-36.125 2.47356,-13.3914 21.40203,-20.55657 35,-21.0625 z m -0.4375,21.1875 c 3.15677,0.004 6.35648,0.51595 9.03125,1.3125 7.28716,2.17015 14.40375,8.00798 16.25,15.09375 0.16988,1.41702 0.0443,3.61055 -1.4375,4 -3.9983,-0.10403 -10.92144,-18.32619 -27.125,-15.90625 -2.58513,0.44362 -5.13178,1.74941 -6.6875,3.625 -3.11177,3.75165 -2.10533,7.96626 0.28125,10.9375 1.9729,2.45616 5.875,7.40625 5.875,7.40625 -10.34997,-6.29987 -12.6159,-15.09446 -8.71875,-21.53125 2.17049,-3.58495 7.26996,-4.94371 12.53125,-4.9375 z m 31.15625,26.21875 c 10.34761,13.88111 2.63739,65.7912 -19.5625,77.03125 -2.38689,5.86472 12.57683,-39.11122 -10.78125,-35.9375 -16.3848,6.20967 0.7193,32.60699 7.96875,44.90625 -2.05287,3.58203 -18.77279,-17.22137 -25.71875,-11 -5.65622,5.06617 -5.0665,18.32805 1.90625,30.375 7.95049,1.69852 13.68583,-7.3744 15.0625,-3.9375 2.04783,5.11246 -8.42091,8.4889 -12.96875,9.0625 7.72045,11.30284 20.02081,23.48602 26.34375,27.21875 -12.47709,-6.71975 -24.53629,-16.86242 -32.125,-26.25 -9.41933,-2.88129 -19.02594,-11.48182 -18.75,-11.34375 0,0 9.27089,4.07515 15.6875,5.65625 -9.76187,-14.62179 -16.73495,-36.33133 -2.0625,-40.46875 7.21238,-2.03379 27.9845,18.0283 20.6875,4.90625 -0.52423,-0.42646 -12.85417,-23.60435 -5.28125,-34.75 2.03007,-2.67153 16.89886,-12.04315 26.84375,12.90625 6.09144,7.01024 18.24786,-31.17326 12.75,-48.375 z M 311,158.96875 c -7.64897,1.77455 -4.668,11.92006 0,11.9375 6.37205,-0.70527 5.19652,-11.12056 0,-11.9375 z"
       transform="translate(44.445286,82.114116)"
       id="path3072"
       inkscape:connector-curvature="0" />
  </g>
  <g
     inkscape:groupmode="layer"
     id="layer8"
     inkscape:label="Ear"
     style="display:none"
     transform="translate(-44.445286,-82.114116)"
     sodipodi:insensitive="true" />
  <g
     inkscape:groupmode="layer"
     id="layer9"
     inkscape:label="FaceLine"
     style="display:none"
     transform="translate(-44.445286,-82.114116)"
     sodipodi:insensitive="true" />
  <g
     inkscape:groupmode="layer"
     id="layer10"
     inkscape:label="Text"
     style="display:inline"
     transform="translate(-44.445286,-82.114116)"
     sodipodi:insensitive="true">
    <g
       transform="matrix(1.5936939,0,0,1.5367083,-25.36323,-45.273417)"
       style="font-size:256px;font-style:normal;font-variant:normal;font-weight:bold;font-stretch:normal;text-align:start;line-height:100%;letter-spacing:0px;word-spacing:0px;writing-mode:lr-tb;text-anchor:start;fill:#000000;fill-opacity:1;stroke:none;font-family:Sinhala MN;-inkscape-font-specification:Sinhala MN Bold"
       id="text6340">
      <path
         d="m 332.59384,168.8309 30.625,0 0,111.875 63.625,0 0,12.75 -94.25,0 0,-124.625"
         id="path6460"
         inkscape:connector-curvature="0" />
      <path
         d="m 485.34925,295.5809 c -6.66671,0 -12.95837,-1.20833 -18.875,-3.625 -5.83336,-2.49999 -10.95836,-5.83332 -15.375,-10 -4.33335,-4.24998 -7.79168,-9.16664 -10.375,-14.75 -2.50001,-5.5833 -3.75,-11.45829 -3.75,-17.625 0,-7.41661 1.16666,-14.29161 3.5,-20.625 2.33332,-6.33326 5.62499,-11.79159 9.875,-16.375 4.33331,-4.66658 9.49997,-8.29158 15.5,-10.875 5.99996,-2.66657 12.66662,-3.9999 20,-4 6.58327,10e-5 12.58327,1.04176 18,3.125 5.41659,2.08343 10.04158,4.95842 13.875,8.625 3.91658,3.58342 6.95824,7.83341 9.125,12.75 2.16657,4.8334 3.2499,10.04173 3.25,15.625 l -65.125,0 c 0.24997,5.16672 0.99997,10.12505 2.25,14.875 1.3333,4.75004 3.0833,8.9167 5.25,12.5 2.24996,3.58336 4.87495,6.45836 7.875,8.625 2.99995,2.08335 6.29161,3.12502 9.875,3.125 3.16661,2e-5 6.24994,-0.54165 9.25,-1.625 3.08326,-1.08331 5.87493,-2.54164 8.375,-4.375 2.58325,-1.91664 4.79159,-4.12497 6.625,-6.625 1.91658,-2.49997 3.33325,-5.16663 4.25,-8 l 14.5,2.25 c -1.41677,5.08337 -3.7501,9.87503 -7,14.375 -3.25009,4.50002 -7.04175,8.41668 -11.375,11.75 -4.25008,3.33334 -8.95841,6 -14.125,8 -5.0834,1.91667 -10.20839,2.875 -15.375,2.875 m 12,-67.5 c -0.25007,-2.74993 -0.8334,-5.24993 -1.75,-7.5 -0.91673,-2.33326 -2.12506,-4.29159 -3.625,-5.875 -1.50006,-1.66658 -3.25006,-2.95825 -5.25,-3.875 -1.91672,-0.91658 -4.00005,-1.37491 -6.25,-1.375 -1.75005,9e-5 -3.50004,0.45842 -5.25,1.375 -1.66671,0.83342 -3.20837,2.08342 -4.625,3.75 -1.33337,1.58341 -2.50004,3.54174 -3.5,5.875 -0.9167,2.25007 -1.5417,4.79174 -1.875,7.625 l 32.125,0"
         id="path6462"
         inkscape:connector-curvature="0" />
      <path
         d="m 595.64153,295.2059 c -7.50005,0 -14.45838,-1.20833 -20.875,-3.625 -6.33336,-2.49999 -11.83336,-5.87499 -16.5,-10.125 -4.58335,-4.33331 -8.16668,-9.37498 -10.75,-15.125 -2.58334,-5.8333 -3.875,-12.12496 -3.875,-18.875 0,-7.24994 1.29166,-13.9166 3.875,-20 2.58332,-6.08326 6.16665,-11.33325 10.75,-15.75 4.66664,-4.41658 10.16664,-7.83324 16.5,-10.25 6.33329,-2.4999 13.24995,-3.7499 20.75,-3.75 7.49994,10e-5 14.4166,1.20843 20.75,3.625 6.33325,2.41676 11.83324,5.75009 16.5,10 4.66657,4.25008 8.29156,9.25007 10.875,15 2.66656,5.66673 3.99989,11.79172 4,18.375 -1.1e-4,6.91671 -1.33344,13.45837 -4,19.625 -2.58344,6.08336 -6.20843,11.41669 -10.875,16 -4.58342,4.58334 -10.04175,8.20834 -16.375,10.875 -6.3334,2.66667 -13.25006,4 -20.75,4 m 3.25,-11.5 c 2.58327,1e-5 4.95827,-0.83332 7.125,-2.5 2.24993,-1.74998 4.1666,-4.04165 5.75,-6.875 1.58326,-2.83331 2.83326,-6.08331 3.75,-9.75 0.91659,-3.74997 1.37492,-7.66663 1.375,-11.75 -8e-5,-5.99995 -0.45841,-11.66661 -1.375,-17 -0.91674,-5.33327 -2.37507,-9.95826 -4.375,-13.875 -2.00007,-3.99992 -4.62507,-7.16659 -7.875,-9.5 -3.16673,-2.33325 -7.08339,-3.49991 -11.75,-3.5 -2.25005,9e-5 -4.41672,0.83342 -6.5,2.5 -2.08338,1.66675 -3.91671,3.91675 -5.5,6.75 -1.58337,2.75007 -2.87504,5.9584 -3.875,9.625 -0.9167,3.66673 -1.37504,7.50006 -1.375,11.5 -4e-5,6.08338 0.54163,11.83338 1.625,17.25 1.16663,5.33337 2.79163,10.0417 4.875,14.125 2.16662,4.00002 4.74995,7.16668 7.75,9.5 3.08328,2.33335 6.54161,3.50001 10.375,3.5"
         id="path6464"
         inkscape:connector-curvature="0" />
      <path
         d="m 756.01204,168.8309 0,10.625 -58.875,0 0,41.125 51.875,0 0,10.625 -51.875,0 0,62.25 -30.625,0 0,-124.625 89.5,0"
         id="path6466"
         inkscape:connector-curvature="0" />
      <path
         d="m 815.66493,295.3309 c -7.50005,0 -14.04171,-0.875 -19.625,-2.625 -5.58336,-1.75 -10.37503,-4.16666 -14.375,-7.25 -3.91669,-3.08332 -7.04168,-6.74998 -9.375,-11 -2.33334,-4.24997 -3.91668,-8.91664 -4.75,-14 l 21.25,0 c 0.74997,3.1667 1.8333,6.08336 3.25,8.75 1.41663,2.66669 3.2083,5.00002 5.375,7 2.16663,2.00002 4.70829,3.58335 7.625,4.75 2.99995,1.08335 6.45828,1.62501 10.375,1.625 2.58327,1e-5 5.12494,-0.24999 7.625,-0.75 2.58327,-0.58332 4.87493,-1.49998 6.875,-2.75 1.99993,-1.24998 3.62493,-2.87498 4.875,-4.875 1.24992,-1.99998 1.87492,-4.45831 1.875,-7.375 -8e-5,-3.66663 -0.95841,-6.91663 -2.875,-9.75 -1.91674,-2.91663 -4.4584,-5.54162 -7.625,-7.875 -3.0834,-2.41662 -6.62506,-4.62495 -10.625,-6.625 -3.91672,-2.08328 -7.95838,-4.12494 -12.125,-6.125 -4.16671,-2.08327 -8.25004,-4.24994 -12.25,-6.5 -3.91669,-2.24993 -7.45836,-4.74993 -10.625,-7.5 -3.08335,-2.83326 -5.58335,-5.99992 -7.5,-9.5 -1.91668,-3.49991 -2.87501,-7.54158 -2.875,-12.125 -10e-6,-4.91657 1.08332,-9.4999 3.25,-13.75 2.16665,-4.24989 5.29165,-7.91655 9.375,-11 4.16664,-3.08321 9.2083,-5.49988 15.125,-7.25 5.91662,-1.74987 12.66662,-2.62487 20.25,-2.625 6.24993,1.3e-4 11.9166,0.87513 17,2.625 5.08325,1.75012 9.54158,4.12512 13.375,7.125 3.91657,3.00012 7.20824,6.54178 9.875,10.625 2.66656,4.08344 4.70823,8.45843 6.125,13.125 l -19.25,0 c -1.08342,-2.9999 -2.37508,-5.83323 -3.875,-8.5 -1.41675,-2.66656 -3.20841,-4.99989 -5.375,-7 -2.16674,-1.99989 -4.79174,-3.58322 -7.875,-4.75 -3.00007,-1.24988 -6.62506,-1.87488 -10.875,-1.875 -4.00005,1.2e-4 -7.37505,0.54178 -10.125,1.625 -2.66671,1.00012 -4.83338,2.33345 -6.5,4 -1.66671,1.58344 -2.87504,3.37511 -3.625,5.375 -0.75004,1.91677 -1.12504,3.83344 -1.125,5.75 -4e-5,3.33343 0.9583,6.37509 2.875,9.125 1.99996,2.66676 4.58329,5.16675 7.75,7.5 3.24995,2.25008 6.91661,4.45841 11,6.625 4.1666,2.08341 8.37493,4.20841 12.625,6.375 4.24992,2.16674 8.41659,4.41673 12.5,6.75 4.16658,2.3334 7.83324,4.91673 11,7.75 3.2499,2.83339 5.83323,5.95838 7.75,9.375 1.9999,3.41671 2.99989,7.29171 3,11.625 -1.1e-4,5.08336 -1.04177,9.83336 -3.125,14.25 -2.08343,4.33335 -5.20843,8.12501 -9.375,11.375 -4.08342,3.16667 -9.16675,5.66667 -15.25,7.5 -6.00007,1.83333 -13.00006,2.75 -21,2.75"
         id="path6468"
         inkscape:connector-curvature="0" />
    </g>
  </g>
</svg>
