<?xml version="1.0" encoding="utf-8"?>
<!-- Generator: Adobe Illustrator 24.2.0, SVG Export Plug-In . SVG Version: 6.00 Build 0)  -->
<svg version="1.1"
	 id="svg2" xmlns:cc="http://creativecommons.org/ns#" xmlns:dc="http://purl.org/dc/elements/1.1/" xmlns:inkscape="http://www.inkscape.org/namespaces/inkscape" xmlns:osb="http://www.openswatchbook.org/uri/2009/osb" xmlns:rdf="http://www.w3.org/1999/02/22-rdf-syntax-ns#" xmlns:sodipodi="http://sodipodi.sourceforge.net/DTD/sodipodi-0.dtd" xmlns:svg="http://www.w3.org/2000/svg"
	 xmlns="http://www.w3.org/2000/svg" xmlns:xlink="http://www.w3.org/1999/xlink" x="0px" y="0px" viewBox="0 0 1308 454.3"
	 style="enable-background:new 0 0 1308 454.3;" xml:space="preserve">
<style type="text/css">
	.st0{fill:#FFFFFF;stroke:#FFFFFF;}
	.st1{display:none;}
	.st2{fill:#FFFFFF;}
</style>
<defs>
	
		<inkscape:path-effect  bendpath="m 58.55685,235.33471 92.00199,0" effect="bend_path" id="path-effect5390" is_visible="true" prop_scale="0.99" scale_y_rel="true" vertical="false">
		</inkscape:path-effect>
</defs>
<sodipodi:namedview  bordercolor="#666666" borderopacity="1.0" fit-margin-bottom="0" fit-margin-left="0" fit-margin-right="0" fit-margin-top="0" id="base" inkscape:current-layer="layer3" inkscape:cx="524.0701" inkscape:cy="215.76554" inkscape:document-units="px" inkscape:guide-bbox="true" inkscape:object-paths="false" inkscape:pageopacity="0" inkscape:pageshadow="2" inkscape:showpageshadow="true" inkscape:snap-global="false" inkscape:snap-nodes="true" inkscape:snap-smooth-nodes="true" inkscape:window-height="856" inkscape:window-maximized="1" inkscape:window-width="1436" inkscape:window-x="4" inkscape:window-y="0" inkscape:zoom="0.90028971" pagecolor="#ffffff" showborder="true" showgrid="false" showguides="true">
	<inkscape:grid  empspacing="5" enabled="true" id="grid6470" snapvisiblegridlinesonly="true" type="xygrid" visible="true">
		</inkscape:grid>
</sodipodi:namedview>
<g id="layer3" transform="translate(-44.445286,-82.114116)" inkscape:groupmode="layer" inkscape:label="Face" sodipodi:insensitive="true">
	<path id="path3072" inkscape:connector-curvature="0" class="st0" d="M231.4,82.6c30.3,28.6,69.1,48.3,77.1,96.7l-1.2-0.5
		C287.3,109,192,89,156.8,101.1c-50.4,11,49.8-15,114.7,65c-38.6-25.3-77.8-46.9-123.1-38c-53.9,13-87.7,54.8-91.9,112.5
		c22.4-39.4,84.8-79.6,128-66.1c-72.1,0.6-124.4,52.7-134.7,99.3c-6,20.4-6.3,62.2-1.2,64c34.3-106.5,111.3-118.8,145.9-132.2
		c-45.8,20.2-93.2,43.6-112.2,85.5c-11.1,21.2-17.6,46.6-13.1,70.7c5.3,28.4,31.8,50.3,62.3,60.3c-28.3-88.6-0.8-151.1,70.8-187.9
		c-118.4,76-79.1,226.7,33.8,226.1c-49-65.2-83.1-129.9-19.3-201.1c-62.3,125.7,9.5,154.3,78.7,212.7c24.4,18.3,26.2,43.8,29.6,37.6
		c5.6-12.5-17.6-34.6-14-47.2c6.6-14.1,47.5,29.8,51.2,47.9c3.1,15,9.5,44.4,6.5,9c-12.1-99.9-124.9-86.7-142.6-166.7
		c0-0.1,0-0.2,0-0.3c27.7,46.1,86.1,65.8,123.7,87.9c16.5,10.8,35.2,29.8,30.5,44.5c-3.7,10.8,7.8,1,8-12.1
		c-2.2-59.4-158.7-101-98.7-158.7c-2.1,11.3-6.9,23.3-4.8,33.8c16.1,33.1,67.9,48.1,85.3,54.7c5,1.1,10.6,3.5,14.8-2.5
		c6.1-6.3,22.7-39.4,15.7-44.8c-0.8-0.5-8,1.2-8,1.2l-1.3-8.4l-7.3,6.8c0,0-26.6,1.3-39.4-1.5c-9.7-2.1-22-10.9-22.5-18.9
		c0.3-4,5.1-10.8,5.1-10.8s6.4-8.8,11.2-10.7c17.3-3.8,41.7,6.9,49.1,15.3l-2.1,12.8l11.1-3.6c5.4,11.7,0.2,0.4,4.3,9.5l4.6-6.4
		l8.3,0.9c8.4-7.4,17.2-12.3,21.7-23.9C426,284.1,397,253,364,252.9c-8.8,0.9-23.4,3.8-26.2-4.7c-1.1-3.4,3.5-7.3,7.2-7.8
		c8.4-1.3,20.3,1.4,28.2-0.8c3.3-0.9-2.4-7.8,0-10.2c1.7-1.8,5.5-1.9,7.3-0.2c5.1,6.2-7.6,14.1-4.8,18.1
		c31.2,13.9,51,28.6,59.4,56.5c4.8,2.3,14.6-15.3,17.2-19.4c-0.4-10.6-7.4-18.1-21.2-26.1c-9.4-6.8-27.2-12.2-29.8-20.1
		c-1.4-4.3,1.1-11.6-21.4-26.1c0,0-8.6-4.5-13.3-5.6c-8.5-2.1-17.4-1.9-26.2-2c-8.5-0.1-23.4,1-28.4,1.3c2-12.6,23.8-4.8,25.2-14.4
		C344.1,141.2,278.1,84.7,231.4,82.6z M251.8,176.3c13.9-0.5,29.7,6.3,37.2,18.8c1.2,2.6,2.3,6.9,0,8.7c-7,2.4-30.1-28.5-56.5-13.3
		c-4.2,2.5-7.7,6.8-9.3,11.4c-3.1,9.3,1.2,16.8,7.2,21.1c4.9,3.5,14.7,10.5,14.7,10.5c-21.7-5.5-31-21.1-28.2-36.1
		C219.3,183.9,238.2,176.8,251.8,176.3z M251.4,197.5c3.2,0,6.4,0.5,9,1.3c7.3,2.2,14.4,8,16.2,15.1c0.2,1.4,0,3.6-1.4,4
		c-4-0.1-10.9-18.3-27.1-15.9c-2.6,0.4-5.1,1.7-6.7,3.6c-3.1,3.8-2.1,8,0.3,10.9c2,2.5,5.9,7.4,5.9,7.4
		c-10.3-6.3-12.6-15.1-8.7-21.5C241,198.8,246.1,197.5,251.4,197.5z M282.5,223.7c10.3,13.9,2.6,65.8-19.6,77
		c-2.4,5.9,12.6-39.1-10.8-35.9c-16.4,6.2,0.7,32.6,8,44.9c-2.1,3.6-18.8-17.2-25.7-11c-5.7,5.1-5.1,18.3,1.9,30.4
		c8,1.7,13.7-7.4,15.1-3.9c2,5.1-8.4,8.5-13,9.1c7.7,11.3,20,23.5,26.3,27.2c-12.5-6.7-24.5-16.9-32.1-26.2
		c-9.4-2.9-19-11.5-18.8-11.3c0,0,9.3,4.1,15.7,5.7c-9.8-14.6-16.7-36.3-2.1-40.5c7.2-2,28,18,20.7,4.9c-0.5-0.4-12.9-23.6-5.3-34.8
		c2-2.7,16.9-12,26.8,12.9C275.8,279.1,288,240.9,282.5,223.7z M355.4,241.1c-7.6,1.8-4.7,11.9,0,11.9
		C361.8,252.3,360.6,241.9,355.4,241.1z"/>
</g>
<g id="layer8" transform="translate(-44.445286,-82.114116)" inkscape:groupmode="layer" inkscape:label="Ear" sodipodi:insensitive="true" class="st1">
</g>
<g id="layer9" transform="translate(-44.445286,-82.114116)" inkscape:groupmode="layer" inkscape:label="FaceLine" sodipodi:insensitive="true" class="st1">
</g>
<g id="layer10" transform="translate(-44.445286,-82.114116)" inkscape:groupmode="layer" inkscape:label="Text" sodipodi:insensitive="true">
	<g id="text6340" transform="matrix(1.5936939,0,0,1.5367083,-25.36323,-45.273417)">
		<path id="path6460" inkscape:connector-curvature="0" class="st2" d="M332.6,168.8h30.6v111.9h63.6v12.8h-94.2V168.8"/>
		<path id="path6462" inkscape:connector-curvature="0" class="st2" d="M485.3,295.6c-6.7,0-13-1.2-18.9-3.6
			c-5.8-2.5-11-5.8-15.4-10c-4.3-4.2-7.8-9.2-10.4-14.8c-2.5-5.6-3.8-11.5-3.8-17.6c0-7.4,1.2-14.3,3.5-20.6
			c2.3-6.3,5.6-11.8,9.9-16.4c4.3-4.7,9.5-8.3,15.5-10.9c6-2.7,12.7-4,20-4c6.6,0,12.6,1,18,3.1c5.4,2.1,10,5,13.9,8.6
			c3.9,3.6,7,7.8,9.1,12.8c2.2,4.8,3.2,10,3.2,15.6H465c0.2,5.2,1,10.1,2.2,14.9c1.3,4.8,3.1,8.9,5.2,12.5c2.2,3.6,4.9,6.5,7.9,8.6
			c3,2.1,6.3,3.1,9.9,3.1c3.2,0,6.2-0.5,9.2-1.6c3.1-1.1,5.9-2.5,8.4-4.4c2.6-1.9,4.8-4.1,6.6-6.6c1.9-2.5,3.3-5.2,4.2-8l14.5,2.2
			c-1.4,5.1-3.8,9.9-7,14.4c-3.3,4.5-7,8.4-11.4,11.8c-4.3,3.3-9,6-14.1,8C495.6,294.6,490.5,295.6,485.3,295.6 M497.3,228.1
			c-0.3-2.7-0.8-5.2-1.8-7.5c-0.9-2.3-2.1-4.3-3.6-5.9c-1.5-1.7-3.3-3-5.2-3.9c-1.9-0.9-4-1.4-6.2-1.4c-1.8,0-3.5,0.5-5.2,1.4
			c-1.7,0.8-3.2,2.1-4.6,3.8c-1.3,1.6-2.5,3.5-3.5,5.9c-0.9,2.3-1.5,4.8-1.9,7.6H497.3"/>
		<path id="path6464" inkscape:connector-curvature="0" class="st2" d="M595.6,295.2c-7.5,0-14.5-1.2-20.9-3.6
			c-6.3-2.5-11.8-5.9-16.5-10.1c-4.6-4.3-8.2-9.4-10.8-15.1c-2.6-5.8-3.9-12.1-3.9-18.9c0-7.2,1.3-13.9,3.9-20
			c2.6-6.1,6.2-11.3,10.8-15.8c4.7-4.4,10.2-7.8,16.5-10.2c6.3-2.5,13.2-3.7,20.8-3.8c7.5,0,14.4,1.2,20.8,3.6
			c6.3,2.4,11.8,5.8,16.5,10c4.7,4.3,8.3,9.3,10.9,15c2.7,5.7,4,11.8,4,18.4c0,6.9-1.3,13.5-4,19.6c-2.6,6.1-6.2,11.4-10.9,16
			c-4.6,4.6-10,8.2-16.4,10.9C610.1,293.9,603.1,295.2,595.6,295.2 M598.9,283.7c2.6,0,5-0.8,7.1-2.5c2.2-1.7,4.2-4,5.8-6.9
			c1.6-2.8,2.8-6.1,3.8-9.8c0.9-3.7,1.4-7.7,1.4-11.8c0-6-0.5-11.7-1.4-17c-0.9-5.3-2.4-10-4.4-13.9c-2-4-4.6-7.2-7.9-9.5
			c-3.2-2.3-7.1-3.5-11.8-3.5c-2.3,0-4.4,0.8-6.5,2.5c-2.1,1.7-3.9,3.9-5.5,6.8c-1.6,2.8-2.9,6-3.9,9.6c-0.9,3.7-1.4,7.5-1.4,11.5
			c0,6.1,0.5,11.8,1.6,17.2c1.2,5.3,2.8,10,4.9,14.1c2.2,4,4.7,7.2,7.8,9.5C591.6,282.5,595.1,283.7,598.9,283.7"/>
		<path id="path6466" inkscape:connector-curvature="0" class="st2" d="M756,168.8v10.6h-58.9v41.1H749v10.6h-51.9v62.3h-30.6V168.8
			H756"/>
		<path id="path6468" inkscape:connector-curvature="0" class="st2" d="M815.7,295.3c-7.5,0-14-0.9-19.6-2.6
			c-5.6-1.8-10.4-4.2-14.4-7.2c-3.9-3.1-7-6.7-9.4-11c-2.3-4.2-3.9-8.9-4.8-14h21.2c0.8,3.2,1.8,6.1,3.2,8.8c1.4,2.7,3.2,5,5.4,7
			c2.2,2,4.7,3.6,7.6,4.8c3,1.1,6.5,1.6,10.4,1.6c2.6,0,5.1-0.2,7.6-0.8c2.6-0.6,4.9-1.5,6.9-2.8c2-1.2,3.6-2.9,4.9-4.9
			c1.2-2,1.9-4.5,1.9-7.4c0-3.7-1-6.9-2.9-9.8c-1.9-2.9-4.5-5.5-7.6-7.9c-3.1-2.4-6.6-4.6-10.6-6.6c-3.9-2.1-8-4.1-12.1-6.1
			c-4.2-2.1-8.3-4.2-12.2-6.5c-3.9-2.2-7.5-4.7-10.6-7.5c-3.1-2.8-5.6-6-7.5-9.5c-1.9-3.5-2.9-7.5-2.9-12.1c0-4.9,1.1-9.5,3.2-13.8
			c2.2-4.2,5.3-7.9,9.4-11c4.2-3.1,9.2-5.5,15.1-7.2c5.9-1.7,12.7-2.6,20.2-2.6c6.2,0,11.9,0.9,17,2.6c5.1,1.8,9.5,4.1,13.4,7.1
			c3.9,3,7.2,6.5,9.9,10.6c2.7,4.1,4.7,8.5,6.1,13.1h-19.2c-1.1-3-2.4-5.8-3.9-8.5c-1.4-2.7-3.2-5-5.4-7c-2.2-2-4.8-3.6-7.9-4.8
			c-3-1.2-6.6-1.9-10.9-1.9c-4,0-7.4,0.5-10.1,1.6c-2.7,1-4.8,2.3-6.5,4c-1.7,1.6-2.9,3.4-3.6,5.4c-0.8,1.9-1.1,3.8-1.1,5.8
			c0,3.3,1,6.4,2.9,9.1c2,2.7,4.6,5.2,7.8,7.5c3.2,2.3,6.9,4.5,11,6.6c4.2,2.1,8.4,4.2,12.6,6.4c4.2,2.2,8.4,4.4,12.5,6.8
			c4.2,2.3,7.8,4.9,11,7.8c3.2,2.8,5.8,6,7.8,9.4c2,3.4,3,7.3,3,11.6c0,5.1-1,9.8-3.1,14.2c-2.1,4.3-5.2,8.1-9.4,11.4
			c-4.1,3.2-9.2,5.7-15.2,7.5C830.7,294.4,823.7,295.3,815.7,295.3"/>
	</g>
</g>
</svg>
