<?xml version="1.0" encoding="utf-8"?>
<!-- Generator: Adobe Illustrator 24.1.1, SVG Export Plug-In . SVG Version: 6.00 Build 0)  -->
<svg version="1.1" id="Layer_1" xmlns="http://www.w3.org/2000/svg" xmlns:xlink="http://www.w3.org/1999/xlink" x="0px" y="0px"
	 viewBox="0 0 53.92 61.02" style="enable-background:new 0 0 53.92 61.02;" xml:space="preserve">
<style type="text/css">
	.st0{display:none;}
	
		.st1{display:inline;fill:none;stroke:url(#SVGID_1_);stroke-width:2;stroke-linecap:round;stroke-linejoin:round;stroke-miterlimit:10;}
	.st2{display:inline;fill:none;stroke:url(#SVGID_2_);stroke-width:2;stroke-linecap:round;stroke-miterlimit:10;}
	.st3{fill:#22ADF6;}
</style>
<g class="st0">
	<linearGradient id="SVGID_1_" gradientUnits="userSpaceOnUse" x1="20.4635" y1="56.6728" x2="46.7898" y2="30.3465">
		<stop  offset="0" style="stop-color:#BF2FE5"/>
		<stop  offset="1" style="stop-color:#22ADF6;stop-opacity:0.984"/>
	</linearGradient>
	<path class="st1" d="M49.27,46.13l3.17,1.81c0.63,0.36,0.63,1.26,0,1.62L34.47,59.79c-0.54,0.3-1.19,0.3-1.73,0L14.88,49.62
		c-0.68-0.39-0.68-1.36,0-1.75l3.06-1.74 M17.94,40.89l-3.06,1.74c-0.68,0.39-0.68,1.36,0,1.75l17.87,10.17
		c0.54,0.3,1.19,0.3,1.73,0l17.98-10.24c0.63-0.36,0.63-1.26,0-1.62l-3.17-1.81 M52.45,37.47L36.3,28.27l-0.99-0.56l-0.85-0.48
		c-0.54-0.3-1.19-0.3-1.73,0L14.88,37.4c-0.68,0.39-0.68,1.36,0,1.75l17.87,10.17c0.54,0.3,1.19,0.3,1.73,0l17.98-10.24
		C53.07,38.73,53.07,37.82,52.45,37.47z"/>
	
		<linearGradient id="SVGID_2_" gradientUnits="userSpaceOnUse" x1="4.3101" y1="32.3552" x2="30.6663" y2="58.7114" gradientTransform="matrix(1 0 0 -1 0 63.0215)">
		<stop  offset="0" style="stop-color:#22ADF6"/>
		<stop  offset="0" style="stop-color:#BF2FE5"/>
		<stop  offset="1" style="stop-color:#27A9F5"/>
	</linearGradient>
	<path class="st2" d="M14.81,32.09c-1.03-0.3-2.01-0.73-2.98-1.22l-3.1,1.95c-0.37,0.18-0.61,0.24-0.85,0l-3.47-3.47
		c-0.24-0.24-0.24-0.49,0-0.85l1.95-3.1c-0.49-0.91-0.91-1.95-1.22-2.98l-3.53-0.73C1.24,21.56,1,21.44,1,21.08v-4.87
		c0-0.37,0.18-0.49,0.61-0.61l3.59-0.79c0.3-1.03,0.73-2.01,1.22-2.98l-1.95-3.1c-0.18-0.37-0.24-0.61,0-0.85l3.47-3.47
		c0.24-0.24,0.49-0.24,0.85,0l3.1,1.95c0.91-0.55,1.95-0.91,2.98-1.22l0.73-3.53C15.72,1.24,15.84,1,16.21,1h4.87
		c0.37,0,0.49,0.18,0.61,0.61l0.79,3.59c1.03,0.3,2.01,0.73,2.98,1.22l3.1-1.95c0.37-0.18,0.61-0.24,0.85,0l3.47,3.47
		c0.24,0.24,0.24,0.49,0,0.85l-1.95,3.1c0.55,0.91,0.91,1.95,1.22,2.98l3.53,0.73c0.37,0.12,0.61,0.24,0.61,0.61v4.87
		c0,0.37-0.18,0.49-0.61,0.61l-3.59,0.79 M21.08,26.19c3.16-1.03,5.48-4.02,5.48-7.54c0-4.38-3.53-7.91-7.91-7.91
		s-7.91,3.53-7.91,7.91s3.53,7.91,7.91,7.91C19.98,26.55,21.08,26.19,21.08,26.19z"/>
</g>
<path class="st3" d="M33.6,61.02c-0.47,0-0.94-0.12-1.36-0.36L14.38,50.49c-0.63-0.36-1.01-1.01-1.01-1.74s0.38-1.38,1.01-1.74
	l1.54-0.87l-1.54-0.87c-0.63-0.36-1.01-1.01-1.01-1.74s0.38-1.38,1.01-1.74l1.54-0.87l-1.54-0.87c-0.63-0.36-1.01-1.01-1.01-1.74
	s0.38-1.38,1.01-1.74l17.87-10.17c0.84-0.48,1.88-0.48,2.72,0L52.94,36.6c0,0,0,0,0,0c0.61,0.35,0.98,0.98,0.97,1.68
	c0,0.7-0.37,1.33-0.98,1.68l-1.65,0.94l1.65,0.94c0.61,0.35,0.98,0.98,0.98,1.68c0,0.7-0.36,1.33-0.97,1.68l-1.65,0.94l1.65,0.94
	c0.61,0.35,0.98,0.98,0.98,1.68c0,0.7-0.36,1.33-0.98,1.68L34.96,60.66C34.54,60.9,34.07,61.02,33.6,61.02z M17.94,47.28l-2.57,1.46
	l17.87,10.18c0.23,0.13,0.51,0.13,0.74,0l17.87-10.18l-2.57-1.47l-14.31,8.15c-0.84,0.48-1.88,0.48-2.72,0L17.94,47.28z
	 M17.94,42.04l-2.57,1.46l17.87,10.18c0.23,0.13,0.51,0.13,0.74,0l14.78-8.42c0.02-0.01,0.03-0.02,0.05-0.03l3.05-1.73l-2.58-1.47
	l-14.31,8.15c-0.84,0.48-1.88,0.48-2.72,0L17.94,42.04z M33.6,28c-0.13,0-0.25,0.03-0.37,0.1L15.37,38.27l17.87,10.18
	c0.23,0.13,0.51,0.13,0.74,0l14.78-8.42c0.02-0.01,0.03-0.02,0.05-0.03l3.05-1.73L33.97,28.1C33.86,28.03,33.73,28,33.6,28z
	 M8.2,33.97c-0.33,0-0.69-0.11-1.03-0.45L3.7,30.06c-0.28-0.28-0.84-1.04-0.13-2.11l1.63-2.6c-0.32-0.66-0.61-1.36-0.85-2.07
	l-3.07-0.64C0.97,22.53,0,22.2,0,21.08v-4.87c0-1.19,1-1.48,1.33-1.57l3.09-0.68c0.22-0.65,0.5-1.32,0.85-2.07L3.62,9.26
	c-0.2-0.38-0.65-1.3,0.14-2.09L7.23,3.7c0.28-0.28,1.04-0.84,2.11-0.13l2.58,1.62c0.71-0.36,1.44-0.63,2.09-0.84l0.64-3.06
	C14.76,0.97,15.08,0,16.21,0h4.87c1.19,0,1.48,1,1.57,1.33l0.68,3.08c0.65,0.22,1.32,0.5,2.07,0.85l2.63-1.65
	c0.38-0.2,1.3-0.65,2.09,0.14l3.47,3.47c0.28,0.28,0.84,1.04,0.13,2.11l-1.62,2.58c0.36,0.71,0.63,1.44,0.84,2.09l3.06,0.64
	c0.32,0.11,1.29,0.43,1.29,1.56v4.87c0,1.19-1,1.48-1.33,1.57l-3.65,0.81c-0.54,0.12-1.07-0.22-1.19-0.76
	c-0.12-0.54,0.22-1.07,0.76-1.19l3.41-0.75v-4.21l-3.93-0.81l-0.17-0.58c-0.24-0.81-0.58-1.86-1.11-2.75l-0.32-0.53l2.18-3.47l-3-3
	l-3.42,2.15l-0.5-0.25c-1.09-0.54-1.96-0.9-2.82-1.15l-0.57-0.17L20.75,2h-4.21l-0.81,3.93L15.15,6.1
	c-0.81,0.24-1.86,0.58-2.75,1.11l-0.53,0.32L8.41,5.35l-3,3l2.15,3.42l-0.25,0.5c-0.54,1.09-0.9,1.95-1.15,2.82l-0.17,0.57L2,16.54
	v4.21l3.93,0.81l0.17,0.58c0.28,0.96,0.68,1.92,1.14,2.79l0.27,0.51l-2.16,3.44l3,3l3.42-2.15l0.5,0.25
	c1.09,0.54,1.95,0.9,2.82,1.15c0.53,0.16,0.83,0.71,0.68,1.24c-0.16,0.53-0.71,0.83-1.24,0.68c-0.82-0.24-1.67-0.58-2.64-1.03
	l-2.63,1.65C9.04,33.78,8.65,33.97,8.2,33.97z M18.64,27.55c-4.91,0-8.91-4-8.91-8.91s4-8.91,8.91-8.91s8.91,4,8.91,8.91
	c0,3.88-2.48,7.29-6.16,8.49C21.29,27.17,20.09,27.55,18.64,27.55z M20.76,25.24l0.31,0.95L20.76,25.24
	c2.86-0.94,4.79-3.59,4.79-6.59c0-3.81-3.1-6.91-6.91-6.91c-3.81,0-6.91,3.1-6.91,6.91c0,3.81,3.1,6.91,6.91,6.91
	C19.79,25.55,20.75,25.24,20.76,25.24z"/>
</svg>
