<?xml version="1.0" encoding="utf-8"?>
<!-- Generator: Adobe Illustrator 24.1.1, SVG Export Plug-In . SVG Version: 6.00 Build 0)  -->
<svg version="1.1" id="Layer_1" xmlns="http://www.w3.org/2000/svg" xmlns:xlink="http://www.w3.org/1999/xlink" x="0px" y="0px"
	 viewBox="0 0 47.6 35.98" style="enable-background:new 0 0 47.6 35.98;" xml:space="preserve">
<style type="text/css">
	.st0{fill:none;stroke:#22ADF6;stroke-width:2;stroke-linecap:round;stroke-linejoin:round;stroke-miterlimit:10;}
</style>
<path class="st0" d="M1,32.66V3.32C1,2.04,2.04,1,3.32,1h10.37c0.81,0,1.55,0.42,1.98,1.1l0.22,0.36c0.42,0.69,1.17,1.1,1.98,1.1
	h26.41c1.28,0,2.32,1.04,2.32,2.32v26.77c0,1.28-1.04,2.32-2.32,2.32H3.32C2.04,34.98,1,33.94,1,32.66z M1,7.23h41.82 M35.7,14.31
	H11.95v13.11H35.7V14.31z M16.97,18.32h7.96 M16.97,23.41h13.7"/>
</svg>
