<?xml version="1.0" encoding="utf-8"?>
<!-- Generator: Adobe Illustrator 21.1.0, SVG Export Plug-In . SVG Version: 6.00 Build 0)  -->
<svg version="1.1" id="Layer_1" xmlns="http://www.w3.org/2000/svg" xmlns:xlink="http://www.w3.org/1999/xlink" x="0px" y="0px"
	 viewBox="0 0 265.9 55.7" style="enable-background:new 0 0 265.9 55.7;" xml:space="preserve">
<style type="text/css">
	.st0{fill:#FFFFFF;}
</style>
<g>
	<path class="st0" d="M77.5,43.2H63v-2c1.2,0,2.2-0.1,2.7-0.4c0.6-0.2,1-0.6,1.1-1.1c0.2-0.5,0.3-1.1,0.3-1.9V19.7L56.2,43.2h-1.3
		l-11-23.4v17.2c0,0.9,0,1.6,0.1,2.1c0.1,0.5,0.2,0.9,0.5,1.2c0.3,0.3,0.7,0.6,1.2,0.8c0.6,0.2,1.4,0.2,2.4,0.2v2H37.4v-2
		c1,0,1.8-0.1,2.4-0.3c0.6-0.2,1-0.4,1.2-0.8c0.3-0.3,0.4-0.7,0.5-1.2c0.1-0.5,0.1-1.2,0.1-2.1V20.5c0-1.2-0.1-2.1-0.2-2.6
		s-0.5-0.9-1.1-1.2c-0.6-0.3-1.5-0.4-2.9-0.4v-2H48l9.6,20.4l9.6-20.4h10.3v2c-1.8,0-2.9,0.3-3.4,0.8c-0.5,0.5-0.8,1.4-0.8,2.6v18.1
		c0,0.8,0.1,1.4,0.3,1.9c0.2,0.5,0.6,0.9,1.2,1.1c0.6,0.3,1.5,0.4,2.8,0.4V43.2z"/>
	<path class="st0" d="M101.5,38.7c0,1.1-0.2,2-0.7,2.8c-0.4,0.8-1,1.3-1.8,1.7c-0.7,0.4-1.6,0.5-2.5,0.5c-1.2,0-2.2-0.3-3-0.8
		c-0.8-0.6-1.3-1.2-1.4-2c-2.4,1.9-4.8,2.9-7.1,2.9c-1.5,0-2.8-0.4-3.8-1.1c-1-0.7-1.5-1.7-1.5-2.9c0-1,0.3-1.9,0.8-2.7
		c0.5-0.8,1.3-1.5,2.3-2.2c1-0.6,2.2-1.2,3.6-1.7c1.4-0.5,3.2-1,5.3-1.5v-1.2c0-1-0.2-1.8-0.7-2.4c-0.5-0.6-1.4-0.9-2.6-0.9
		c-1.1,0-1.9,0.2-2.4,0.7c-0.5,0.5-0.8,1.1-1,2.1c-0.1,0.7-0.3,1.2-0.6,1.6c-0.3,0.4-0.9,0.6-1.9,0.6c-0.6,0-1.1-0.2-1.6-0.5
		c-0.5-0.3-0.7-0.8-0.7-1.5c0-1.3,0.7-2.5,2.1-3.4c1.4-1,3.6-1.5,6.6-1.5c3.1,0,5.3,0.5,6.4,1.6c1.2,1,1.8,2.5,1.8,4.2v6.7
		c0,0.9,0,1.5,0.1,1.9c0,0.4,0.2,0.7,0.4,0.9c0.2,0.2,0.5,0.3,0.9,0.3c0.4,0,0.7-0.2,1-0.6c0.3-0.4,0.4-0.8,0.4-1.4H101.5z
		 M91.7,38.8v-5.3c-2.7,0.9-4.4,1.7-5.1,2.5c-0.7,0.8-1.1,1.6-1.1,2.4c0,0.7,0.2,1.2,0.6,1.6c0.4,0.4,1,0.6,1.7,0.6
		c0.8,0,1.5-0.2,2.1-0.5C90.4,39.8,91,39.4,91.7,38.8"/>
	<path class="st0" d="M121.5,28.4c0,0.8-0.3,1.5-0.8,1.9c-0.5,0.5-1.1,0.7-1.8,0.7c-0.8,0-1.5-0.4-2.1-1.2c-0.3-0.4-0.5-0.6-0.7-0.8
		c-0.2-0.2-0.4-0.2-0.8-0.2c-1.1,0-2,0.6-2.6,1.8s-0.9,2.4-0.9,3.7v3.7c0,1.2,0.2,2,0.5,2.4c0.3,0.4,1.1,0.7,2.4,0.7h1.1v2h-13.2v-2
		h1.1c1.2,0,1.9-0.2,2.2-0.7c0.3-0.5,0.4-1.3,0.4-2.4v-6.2c0-0.9-0.1-1.6-0.3-2c-0.2-0.4-0.5-0.7-1-0.8c-0.5-0.1-1.3-0.2-2.4-0.2v-2
		l8.3-1.8c0.2,0.7,0.4,2.3,0.6,4.6c0.4-0.8,0.9-1.6,1.6-2.3c0.6-0.7,1.4-1.3,2.2-1.7c0.8-0.4,1.6-0.6,2.5-0.6c1.2,0,2.1,0.3,2.8,1
		C121.2,26.7,121.5,27.5,121.5,28.4"/>
	<path class="st0" d="M145.7,43.2h-10.6v-2c1.2,0,1.9-0.2,1.9-0.7c0-0.3-0.2-0.7-0.5-1.1l-3.9-5.1l-2.2,1.5v2.7
		c0,0.9,0.1,1.5,0.3,1.9c0.2,0.4,0.4,0.6,0.7,0.7c0.3,0.1,0.8,0.1,1.5,0.1v2h-11v-2c0.8,0,1.5-0.1,1.9-0.2c0.4-0.2,0.7-0.5,0.9-0.9
		c0.2-0.4,0.3-1.1,0.3-2V20c0-0.7-0.1-1.2-0.3-1.5c-0.2-0.3-0.5-0.5-0.9-0.6c-0.4-0.1-1-0.2-1.9-0.2v-2l8.6-1.9v19.6l6-4.1
		c0.4-0.3,0.6-0.5,0.8-0.6c0.1-0.1,0.2-0.3,0.2-0.4c0-0.4-0.3-0.6-1-0.6h-1.2v-2h9v2c-1.5,0.1-3.1,0.8-4.8,2l-2.2,1.5l5.7,7.7
		c0.6,0.8,1.1,1.3,1.5,1.7c0.4,0.4,0.8,0.6,1.3,0.6V43.2z"/>
	<path class="st0" d="M196.8,34.4c0,1.9-0.5,3.6-1.4,5c-0.9,1.4-2.2,2.5-3.8,3.3c-1.6,0.8-3.3,1.1-5.2,1.1c-1.8,0-3.5-0.3-5.1-1
		c-1.6-0.7-2.9-1.8-3.9-3.2c-1-1.4-1.5-3.2-1.5-5.2c0-3.1,1-5.4,3.1-7c2.1-1.6,4.6-2.4,7.5-2.4c2.2,0,4,0.4,5.6,1.3
		c1.6,0.9,2.7,2,3.5,3.4C196.4,31.2,196.8,32.7,196.8,34.4 M191,34.3c0-2.4-0.3-4.2-1-5.4c-0.6-1.2-1.9-1.8-3.7-1.8
		c-1.2,0-2.1,0.3-2.8,0.8c-0.7,0.5-1.1,1.3-1.4,2.5c-0.3,1.1-0.4,2.6-0.4,4.3c0,2.2,0.3,3.9,0.9,5.3c0.6,1.3,1.9,2,3.8,2
		c1.3,0,2.3-0.4,2.9-1.1c0.7-0.7,1.1-1.7,1.3-2.8C190.9,36.9,191,35.7,191,34.3"/>
	<path class="st0" d="M220.9,26.9c0,0.5-0.1,0.9-0.4,1.2c-0.3,0.3-0.6,0.5-0.9,0.5c-0.4,0-0.9-0.2-1.3-0.6c-0.1,0-0.2-0.1-0.4-0.3
		c-0.2-0.1-0.3-0.2-0.4-0.3c-0.1-0.1-0.2-0.1-0.4-0.1c-0.4,0-0.8,0.1-1,0.4c0.5,0.6,0.9,1.2,1.1,1.7c0.3,0.5,0.4,1.2,0.4,2.1
		c0,1.1-0.3,2.1-0.8,2.9c-0.5,0.8-1.2,1.3-2,1.8c-0.8,0.4-1.7,0.7-2.6,0.9c-0.9,0.2-2,0.4-3.4,0.6c-3.3,0.4-5,1.1-5,2
		c0,0.4,0.2,0.7,0.8,0.8c0.5,0.2,1.2,0.2,2.2,0.2h3.2c1,0,2,0.1,3,0.2c1,0.1,1.9,0.4,2.9,0.7c1,0.4,1.8,1,2.5,1.9c0.7,0.9,1,2,1,3.4
		c0,1-0.3,2.1-0.9,3.1c-0.6,1-1.8,1.9-3.4,2.7c-1.6,0.7-3.8,1.1-6.5,1.1c-2.1,0-4.3-0.3-6.4-0.8c-2.1-0.6-3.2-1.8-3.2-3.8
		c0-0.7,0.2-1.3,0.6-1.9c0.4-0.6,1-0.8,1.8-0.8c0.7,0,1.2,0.1,1.6,0.4c-0.3,0.5-0.5,1-0.5,1.6c0,0.9,0.5,1.7,1.6,2.4
		c1.1,0.7,2.7,1,4.9,1c2.2,0,3.9-0.3,5.2-0.9c1.3-0.6,1.9-1.5,1.9-2.5c0-0.7-0.3-1.3-0.8-1.7c-0.5-0.4-1.3-0.6-2.3-0.7
		c-1-0.1-2.6-0.2-4.7-0.2c-2.6,0-4.6-0.3-6.1-0.9c-1.5-0.5-2.2-1.7-2.2-3.4c0-1.5,0.6-2.5,1.7-3.2c1.1-0.7,2.5-1.2,4.1-1.5
		c-3.8-0.7-5.7-2.5-5.7-5.4c0-0.9,0.3-1.9,0.8-2.9c0.5-1,1.4-1.8,2.7-2.5c1.3-0.7,3-1,5.2-1c2.8,0,4.9,0.7,6.4,2
		c0.9-1.3,2-1.9,3.4-1.9c0.7,0,1.3,0.2,1.7,0.5C220.7,26,220.9,26.4,220.9,26.9 M212.1,31.4c0-1.2-0.3-2.3-0.8-3.1
		c-0.5-0.9-1.4-1.3-2.5-1.3c-1.2,0-2.1,0.4-2.6,1.2c-0.5,0.8-0.8,1.8-0.8,3c0,1.2,0.2,2.2,0.7,3.2c0.5,1,1.4,1.5,2.7,1.5
		c1,0,1.8-0.4,2.4-1.1C211.8,33.9,212.1,32.8,212.1,31.4"/>
	<path class="st0" d="M234.7,43.2h-11.5v-2h0.6c0.8,0,1.4-0.1,1.8-0.3c0.4-0.2,0.6-0.5,0.7-1c0.1-0.4,0.1-1,0.1-1.8v-6.3
		c0-0.9-0.1-1.5-0.2-1.9c-0.1-0.4-0.4-0.6-0.8-0.8c-0.4-0.2-1.2-0.3-2.2-0.3v-2l8.7-1.8v13.1c0,1.2,0.1,2,0.4,2.4
		c0.3,0.4,1.1,0.7,2.4,0.7V43.2z M232.3,16.7c0,0.9-0.3,1.6-0.9,2.2c-0.6,0.6-1.3,0.9-2.2,0.9c-0.8,0-1.6-0.3-2.2-0.9
		c-0.6-0.6-0.9-1.3-0.9-2.2c0-0.8,0.3-1.6,0.9-2.2c0.6-0.6,1.3-0.9,2.2-0.9c0.9,0,1.6,0.3,2.2,0.9C232,15.1,232.3,15.8,232.3,16.7"
		/>
	<path class="st0" d="M254.8,38.8c-1.7,3.3-4.5,5-8.3,5c-1.8,0-3.5-0.4-5-1.1c-1.6-0.7-2.8-1.8-3.8-3.1c-1-1.4-1.4-3-1.4-4.8
		c0-1.3,0.3-2.5,0.8-3.7c0.5-1.2,1.3-2.2,2.2-3.1c1-0.9,2.1-1.7,3.5-2.2c1.3-0.5,2.8-0.8,4.3-0.8c2,0,3.7,0.4,5.2,1.2
		c1.5,0.8,2.2,1.8,2.2,3.2c0,0.6-0.2,1.2-0.7,1.6c-0.5,0.4-1,0.7-1.6,0.7c-0.6,0-1-0.1-1.3-0.4c-0.3-0.3-0.5-0.5-0.6-0.8
		c-0.1-0.3-0.2-0.8-0.4-1.5c-0.2-0.7-0.5-1.2-0.9-1.5c-0.4-0.3-1-0.4-1.8-0.4c-1.3,0-2.4,0.5-3.4,1.4s-1.5,2.7-1.5,5.4
		c0,1.4,0.2,2.7,0.6,3.9c0.4,1.2,1,2.1,1.9,2.8c0.9,0.7,1.9,1,3.2,1c1.4,0,2.5-0.3,3.2-1c0.7-0.7,1.4-1.5,2-2.4L254.8,38.8z"/>
	<path class="st0" d="M162.3,40.8c1.5,0,2.9-0.1,4.1-0.4c1.2-0.2,2.4-0.9,3.4-2c1-1.1,1.7-2.7,1.9-4.9h2l-0.2,9.6h-11.2h-0.1h-13.9
		v-2c1.8,0,2.9-0.3,3.4-0.8c0.5-0.5,0.8-1.4,0.8-2.6V19.7c0-0.8-0.1-1.5-0.3-1.9c-0.2-0.5-0.6-0.8-1.2-1.1s-1.5-0.4-2.8-0.4v-2h14.5
		v2c-1.2,0-2.1,0.1-2.7,0.4c-0.6,0.2-1,0.6-1.2,1c-0.2,0.5-0.3,1.1-0.3,2v16.6c0,1.3,0.1,2.2,0.2,2.8c0.1,0.6,0.5,1,1,1.3
		C160.4,40.6,161.1,40.8,162.3,40.8L162.3,40.8z"/>
	<path class="st0" d="M19,34.1c1.5,0,2.8-1.3,2.8-2.8V17.1c0-1.6-1.3-2.8-2.8-2.8H4.8c-1.5,0-2.8,1.3-2.8,2.8v14.2
		c0,1.6,1.3,2.8,2.8,2.8H19z"/>
	<path class="st0" d="M32,12.4c1.2,0,2.2-1,2.2-2.2v-7C34.2,2,33.2,1,32,1h-7c-1.2,0-2.2,1-2.2,2.2v7c0,1.2,1,2.2,2.2,2.2H32z"/>
	<path class="st0" d="M258.3,27.8c0-0.4,0.1-0.8,0.2-1.1c0.1-0.3,0.3-0.6,0.6-0.9c0.2-0.2,0.5-0.4,0.9-0.6c0.3-0.1,0.7-0.2,1.1-0.2
		c0.4,0,0.8,0.1,1.1,0.2c0.3,0.1,0.6,0.3,0.9,0.6c0.2,0.2,0.4,0.5,0.6,0.9c0.1,0.3,0.2,0.7,0.2,1.1c0,0.4-0.1,0.8-0.2,1.1
		c-0.1,0.3-0.3,0.6-0.6,0.9c-0.2,0.2-0.5,0.4-0.9,0.6c-0.3,0.1-0.7,0.2-1.1,0.2c-0.4,0-0.8-0.1-1.1-0.2c-0.3-0.1-0.6-0.3-0.9-0.6
		c-0.2-0.2-0.4-0.5-0.6-0.9C258.4,28.6,258.3,28.2,258.3,27.8 M258.9,27.8c0,0.3,0.1,0.6,0.2,0.9c0.1,0.3,0.2,0.5,0.4,0.7
		c0.2,0.2,0.4,0.4,0.7,0.5c0.3,0.1,0.6,0.2,0.9,0.2c0.3,0,0.6-0.1,0.9-0.2c0.3-0.1,0.5-0.3,0.7-0.5c0.2-0.2,0.3-0.4,0.4-0.7
		c0.1-0.3,0.2-0.6,0.2-0.9s-0.1-0.6-0.2-0.9c-0.1-0.3-0.2-0.5-0.4-0.7c-0.2-0.2-0.4-0.4-0.7-0.5c-0.3-0.1-0.6-0.2-0.9-0.2
		c-0.3,0-0.6,0.1-0.9,0.2c-0.3,0.1-0.5,0.3-0.7,0.5c-0.2,0.2-0.3,0.4-0.4,0.7C259,27.2,258.9,27.5,258.9,27.8 M261.5,28.1l0.8,1.2
		h-0.7l-0.7-1.1h-0.3v1.1h-0.6v-2.8h1c0.1,0,0.3,0,0.4,0c0.1,0,0.3,0.1,0.4,0.1c0.1,0.1,0.2,0.2,0.3,0.3c0.1,0.1,0.1,0.2,0.1,0.4
		c0,0.2-0.1,0.4-0.2,0.5C261.9,27.9,261.7,28,261.5,28.1L261.5,28.1z M260.7,26.9v0.8h0.3c0.2,0,0.4,0,0.5-0.1
		c0.1-0.1,0.2-0.2,0.2-0.3c0-0.1,0-0.2-0.1-0.3c-0.1-0.1-0.2-0.1-0.4-0.1H260.7z"/>
</g>
</svg>
