<svg width="2500" height="2500" viewBox="0 0 254 254" xmlns="http://www.w3.org/2000/svg"><defs><linearGradient x1="50%" y1="100%" x2="50%" y2="0%" id="a"><stop stop-color="#574C4A" offset="0%"/><stop stop-color="#80716D" offset="100%"/></linearGradient><linearGradient x1="88.778%" y1="98.342%" x2="30.149%" y2="-8.68%" id="b"><stop stop-color="#268D83" offset="0%"/><stop stop-color="#2EA19E" offset="100%"/></linearGradient><radialGradient cx="41.406%" cy="42.708%" fx="41.406%" fy="42.708%" id="c"><stop stop-color="#DB7C7C" offset="0%"/><stop stop-color="#C83737" offset="100%"/></radialGradient><radialGradient cx="44.271%" cy="42.708%" fx="44.271%" fy="42.708%" id="d"><stop stop-color="#DB7C7C" offset="0%"/><stop stop-color="#C83737" offset="100%"/></radialGradient></defs><path d="M0 171.19V82.17C0 10.271 10.26 0 82.086 0h89.189C243.1 0 253.36 10.271 253.36 82.171v89.019c0 71.9-10.26 82.17-82.086 82.17H82.086C10.261 253.36 0 243.09 0 171.19z" fill="url(#a)"/><path d="M8.891.655C-3.562 79.583 2.953 153.48 2.953 153.48h38.928c-3.704-19.704-16.992-109.724-5.938-110.021 5.924.94 32.99 76.371 32.99 76.371s5.96-.742 11.958-.742 11.959.742 11.959.742 27.066-75.43 32.99-76.371c11.053.297-2.235 90.317-5.938 110.02h38.927s6.516-73.896-5.938-152.824H116.85C109.99.736 83.89 46.51 80.891 46.51 77.892 46.51 51.792.736 44.932.655H8.892z" fill="url(#b)" transform="translate(45.79 47.098)"/><path d="M73.214 144.267a9.213 9.213 0 1 1-18.427 0 9.213 9.213 0 0 1 18.427 0z" fill="url(#c)" transform="translate(45.79 47.098)"/><path d="M106.995 144.267a9.213 9.213 0 1 1-18.426 0 9.213 9.213 0 0 1 18.426 0z" fill="url(#d)" transform="translate(45.79 47.098)"/><path d="M196.846 50.362c5.618 38.026 6.936 74.52 6.833 101.705-.106 27.806-1.699 45.871-1.699 45.871h-32.767l-3.521 2.64h38.927s6.516-73.897-5.938-152.825l-1.835 2.61zm-103.154-.96c10.226 11.376 27.913 41.567 30.35 41.567-6.484-8.292-22.411-34.748-30.35-41.567zM79.094 87.918c-11.054.297 2.234 90.317 5.938 110.02H51.05l-2.307 2.64h38.928c-3.685-19.604-16.856-108.825-6.103-110.021-1.002-1.504-1.866-2.543-2.474-2.64zm89.896 0c-5.923.94-32.99 76.371-32.99 76.371s-5.96-.742-11.958-.742c-3.549 0-6.604.218-8.67.41l-.65 2.971s5.961-.742 11.96-.742c5.997 0 11.958.742 11.958.742s26.862-74.936 32.907-76.371c-.651-1.65-1.456-2.61-2.557-2.64z" opacity=".1"/><path d="M54.681 47.753c-12.453 78.928-5.938 152.825-5.938 152.825L51.035 198c-1.173-17.434-4.306-80.48 6.285-147.609h36.042c.763.01 1.787.635 2.969 1.65-2.36-2.626-4.322-4.274-5.609-4.29h-36.04zm107.959 0c-6.86.081-32.96 45.856-35.959 45.856 1.223 1.564 2.216 2.639 2.64 2.639 2.998 0 29.098-45.775 35.958-45.856h31.806l1.596-2.64H162.64zM84.207 93.196c8.755 13.148 30.515 73.732 30.515 73.732l.637-2.954c-5.372-14.732-25.844-69.961-30.987-70.778-.056.002-.11-.006-.165 0zm90.062 0c5.872 14.977-5.244 89.649-8.577 107.382l3.53-2.757c4.508-26.446 15.363-104.347 5.047-104.625z" opacity=".3" fill="#FFF"/></svg>