<svg width="2199" height="2500" viewBox="0 0 256 291" xmlns="http://www.w3.org/2000/svg" preserveAspectRatio="xMidYMid"><path d="M190.18 177.17v-63.366l-54.642 31.735 54.642 31.63" fill="#FFF"/><path d="M186.645 107.622L131.907 75.97v63.379l54.738-31.727M124.793 139.347V75.968L70.016 107.62l54.777 31.727M121.252 69.887L66.527 38.052v63.472l54.725-31.637" fill="#00AEDE"/><path d="M186.645 183.26l-54.738-31.624v63.368l54.738-31.745M124.793 215.005v-63.371L70.016 183.26l54.777 31.744" fill="#FFF"/><path d="M252.113 145.538l-54.818-31.73v63.36l54.818-31.63M59.399 101.524V38.052L4.263 69.887 59.4 101.524" fill="#00AEDE"/><path d="M121.252 221.095l-54.725-31.72v63.451l54.725-31.73" fill="#FFF"/><path d="M59.399 252.827v-63.45l-55.136 31.72 55.136 31.73" fill="#00AEDE"/><path d="M121.252 145.538l-54.725-31.73v63.36l54.725-31.63" fill="#FFF"/><path d="M190.18 101.524V38.052l-54.642 31.835 54.642 31.637" fill="#00AEDE"/><path d="M131.909.319v63.357l54.738-31.72L131.909.32M70.015 31.956l54.777 31.72V.32L70.015 31.956M186.645 258.91l-54.738-31.616v63.348l54.738-31.731M124.793 290.644v-63.352l-54.777 31.62 54.777 31.732" fill="#FFF"/><path d="M255.66 215.005v-63.371l-54.676 31.627 54.676 31.744M59.399 177.17v-63.465L4.263 145.539 59.4 177.17M55.872 183.26L.656 151.635v63.368l55.216-31.745M255.66 139.347V75.968l-54.676 31.652 54.676 31.727M252.113 69.887l-54.818-31.835v63.472l54.818-31.637M252.113 221.095l-54.818-31.72v63.451l54.818-31.73" fill="#00AEDE"/><path d="M190.18 252.827v-63.45l-54.642 31.72 54.642 31.73" fill="#FFF"/><path d="M55.872 107.622L.656 75.97v63.379l55.216-31.727" fill="#00AEDE"/></svg>