<?xml version="1.0" standalone="no"?>
<!DOCTYPE svg PUBLIC "-//W3C//DTD SVG 20010904//EN"
 "http://www.w3.org/TR/2001/REC-SVG-20010904/DTD/svg10.dtd">
<svg version="1.0" xmlns="http://www.w3.org/2000/svg"
 width="511.000000pt" height="425.000000pt" viewBox="0 0 511.000000 425.000000"
 preserveAspectRatio="xMidYMid meet">

<g transform="translate(0.000000,425.000000) scale(0.100000,-0.100000)"
fill="#ffffff" stroke="none">
<path d="M2905 4125 c-216 -53 -467 -71 -558 -40 -79 27 -178 45 -247 45 -131
0 -184 -19 -464 -169 -574 -306 -551 -297 -626 -242 -87 63 -196 64 -359 4
-219 -80 -262 -94 -337 -103 -100 -13 -140 -38 -181 -116 -54 -102 -73 -205
-76 -409 -2 -146 1 -195 17 -260 47 -203 138 -289 237 -222 70 47 138 204 147
341 4 74 5 77 17 49 7 -17 29 -40 48 -52 35 -21 67 -60 67 -81 0 -7 -14 -42
-30 -80 -54 -122 -33 -189 70 -226 39 -14 49 -22 44 -34 -19 -42 -15 -85 10
-120 14 -19 38 -60 53 -90 25 -50 27 -63 24 -150 -10 -295 -5 -588 13 -695 56
-352 169 -613 359 -834 49 -58 55 -69 60 -122 10 -112 88 -233 182 -281 117
-61 272 -63 404 -6 40 17 45 17 62 2 35 -31 93 -30 164 5 74 37 77 36 180 -20
136 -74 316 -109 455 -89 96 13 149 30 288 93 l112 50 53 -26 c59 -30 122 -35
166 -13 25 14 35 12 117 -16 116 -41 236 -44 329 -8 121 46 207 167 222 314 5
50 13 71 45 113 140 190 259 414 303 568 63 219 87 494 72 812 -4 98 -5 211
-2 252 6 72 8 76 48 111 34 31 41 43 41 76 1 21 -3 48 -7 60 -6 18 1 24 62 53
80 37 108 77 97 139 -5 37 -46 88 -78 98 -23 7 -40 38 -32 59 4 9 27 25 51 37
49 23 103 72 103 94 0 8 5 14 10 14 6 0 10 -19 10 -42 0 -116 93 -318 161
-354 45 -23 84 -17 122 16 44 38 71 101 96 225 32 163 34 233 12 423 -16 147
-23 179 -46 218 -37 62 -92 99 -178 119 -40 9 -160 43 -267 76 -288 88 -359
94 -432 37 -42 -33 -91 -50 -116 -41 -9 4 -181 94 -382 201 -201 106 -396 204
-435 217 -92 31 -202 39 -280 20z m265 -97 c36 -13 216 -104 400 -203 184 -98
351 -187 370 -197 53 -28 125 -24 187 12 28 16 54 34 58 40 8 13 66 13 125 0
25 -6 142 -39 260 -75 118 -35 235 -69 260 -75 62 -17 106 -65 119 -132 24
-127 35 -321 22 -418 -22 -176 -66 -300 -106 -300 -25 0 -64 53 -97 130 -27
65 -34 102 -53 272 -19 178 -23 200 -45 223 -34 36 -83 34 -120 -5 -46 -49
-54 -151 -15 -208 14 -20 25 -44 25 -53 0 -22 -38 -55 -93 -79 -53 -24 -67
-47 -67 -113 0 -51 18 -79 71 -113 66 -41 54 -59 -78 -124 l-113 -55 41 -37
c48 -43 48 -63 -1 -96 -19 -13 -39 -35 -44 -50 -4 -15 -7 -112 -5 -217 6 -338
1 -537 -16 -658 -25 -184 -66 -332 -128 -459 -60 -123 -234 -391 -248 -382 -5
3 -9 -4 -9 -15 0 -11 -4 -23 -10 -26 -5 -3 -10 -27 -10 -52 0 -176 -122 -303
-289 -303 -59 0 -161 24 -210 49 -35 18 -39 26 -66 113 -44 147 -123 355 -172
453 -125 248 -266 380 -431 400 -109 13 -102 -9 -102 331 0 250 2 300 16 326
19 38 8 52 -41 52 -49 0 -60 -14 -41 -52 23 -44 24 -613 2 -635 -8 -8 -43 -17
-77 -21 -169 -17 -283 -131 -435 -437 -37 -73 -102 -221 -145 -328 l-77 -196
-64 -22 c-76 -27 -181 -30 -255 -8 -111 33 -193 147 -193 269 0 35 -5 58 -15
66 -8 7 -15 22 -16 34 0 11 -3 15 -6 9 -12 -32 -178 200 -242 340 -120 259
-168 535 -156 902 10 332 10 353 -14 417 -12 31 -35 76 -51 100 -16 23 -30 49
-30 55 0 7 28 27 62 44 l61 31 -39 17 c-21 10 -76 32 -121 50 -45 18 -87 39
-93 46 -9 10 -3 32 21 87 51 117 39 190 -41 246 -46 32 -49 52 -15 107 14 23
24 55 24 75 -1 104 -87 192 -141 144 -42 -38 -59 -100 -69 -259 -11 -170 -41
-287 -90 -355 -45 -62 -78 -51 -118 40 -41 93 -54 202 -47 372 7 173 29 283
71 353 27 47 54 61 136 70 51 6 131 31 347 109 136 50 205 47 292 -10 50 -32
60 -35 110 -31 64 5 124 34 557 265 212 114 296 154 342 163 83 16 220 6 301
-21 100 -34 251 -37 425 -11 77 12 160 28 185 36 64 21 188 13 270 -17z m1455
-835 c3 -32 8 -71 10 -88 5 -28 4 -28 -25 15 -29 43 -30 52 -13 113 9 34 22
16 28 -40z m-4110 14 c5 -23 -1 -47 -19 -87 l-26 -55 0 56 c0 58 16 119 31
119 4 0 11 -15 14 -33z m2304 -2072 c88 -45 219 -271 335 -576 20 -52 51 -120
70 -151 30 -50 32 -58 20 -80 -21 -40 -51 -41 -123 -7 -79 38 -93 37 -234 -30
-124 -59 -192 -79 -297 -88 -122 -9 -297 35 -398 102 -71 46 -177 52 -212 10
-7 -8 -28 -17 -48 -21 -29 -6 -39 -3 -54 16 -25 31 -23 41 21 109 21 33 62
120 91 193 125 315 219 470 313 514 50 23 61 24 270 24 172 0 224 -3 246 -15z"/>
<path d="M2546 2665 c-14 -72 -47 -133 -100 -183 -157 -149 -441 -131 -677 43
-195 144 -346 162 -443 55 -34 -38 -76 -111 -90 -157 -7 -22 -7 -22 38 -7 24
8 61 14 82 12 36 -3 39 -6 56 -53 25 -71 102 -126 198 -141 60 -10 59 -24 -2
-24 -117 1 -252 47 -342 119 -21 17 -41 31 -44 31 -7 0 6 -122 28 -270 55
-370 60 -732 15 -1163 -26 -250 -27 -248 0 -137 177 730 388 1182 651 1390
127 101 231 139 437 160 59 6 118 15 131 20 30 11 66 57 66 84 1 13 6 6 15
-19 8 -22 15 -41 15 -41 0 -1 15 -9 33 -17 18 -9 82 -21 142 -27 144 -14 213
-32 310 -79 94 -47 181 -118 263 -217 197 -237 374 -666 506 -1224 19 -80 35
-138 35 -130 0 8 -8 89 -19 180 -11 91 -25 267 -32 392 -14 269 -2 532 36 803
22 152 31 246 27 282 0 8 -21 -2 -47 -22 -57 -44 -90 -61 -163 -87 -67 -23
-228 -38 -217 -20 4 7 16 12 26 12 77 0 220 99 220 152 0 13 5 29 12 36 16 16
77 15 127 -3 22 -8 41 -12 41 -8 0 3 -13 33 -30 67 -75 156 -175 206 -321 159
-30 -9 -103 -51 -164 -92 -132 -89 -209 -126 -301 -146 -253 -54 -450 50 -499
260 l-12 50 -7 -40z"/>
<path d="M2361 1923 c-6 -21 -11 -48 -11 -60 0 -42 -40 -73 -105 -82 -33 -5
-48 -9 -33 -10 71 -3 132 -24 171 -60 22 -20 37 -30 33 -23 -14 24 -8 77 14
119 18 35 20 47 11 79 -11 40 -37 74 -57 74 -7 0 -18 -17 -23 -37z"/>
<path d="M2680 1928 c-26 -44 -26 -101 1 -138 18 -23 21 -36 15 -72 l-7 -43
33 31 c45 43 64 51 138 60 l65 8 -59 8 c-82 11 -103 27 -112 85 -14 99 -38
119 -74 61z"/>
</g>
</svg>
