<?xml version="1.0" encoding="utf-8"?>
<!-- Generator: Adobe Illustrator 24.2.1, SVG Export Plug-In . SVG Version: 6.00 Build 0)  -->
<svg version="1.2" baseProfile="tiny" xmlns="http://www.w3.org/2000/svg" xmlns:xlink="http://www.w3.org/1999/xlink" x="0px"
	 y="0px" viewBox="0 0 1100 300" overflow="visible" xml:space="preserve">
<g id="black_bg" display="none">
	<rect x="-2384.9" y="-306.8" display="inline" width="4531.8" height="1152"/>
</g>
<g id="logos">
	<g>
		<path fill="#FFFFFF" d="M388,150.1c1.7,3.7,3.3,7.5,4.8,11.4c1.5-4,3.1-7.8,4.9-11.6c1.7-3.7,3.5-7.4,5.3-10.9l50.5-99.5
			c0.9-1.7,1.8-3,2.8-4c0.9-0.9,2-1.6,3.2-2.1c1.2-0.5,2.5-0.7,4-0.7c1.5,0,3.2,0,5.2,0h34.8v196.6h-40.2V116.3
			c0-5.5,0.3-11.4,0.8-17.8l-52.1,101.1c-1.6,3.2-3.8,5.5-6.5,7.2c-2.7,1.6-5.9,2.4-9.4,2.4h-6.2c-3.5,0-6.6-0.8-9.4-2.4
			c-2.7-1.6-4.9-4-6.5-7.2L321.4,98.3c0.4,3.2,0.6,6.3,0.8,9.4c0.2,3.1,0.3,6,0.3,8.6v113.1h-40.2V32.8h34.8c2,0,3.7,0,5.2,0
			c1.5,0,2.8,0.2,4,0.7c1.2,0.5,2.2,1.1,3.2,2.1c0.9,0.9,1.9,2.3,2.8,4l50.6,99.9C384.6,142.9,386.3,146.4,388,150.1z"/>
		<path fill="#FFFFFF" d="M719.1,131c0,8.5-0.9,16.6-2.6,24.4c-1.8,7.8-4.3,15.1-7.6,21.9c-3.3,6.8-7.3,13.2-12.2,19
			c-4.8,5.9-10.3,11-16.4,15.5l49.8,54.4h-37.5c-5.4,0-10.3-0.7-14.7-2c-4.4-1.3-8.3-3.9-11.7-7.9L641.7,229c-4,0.8-8,1.4-12.1,1.9
			c-4.1,0.4-8.3,0.7-12.6,0.7c-15.3,0-29.2-2.6-41.8-7.7c-12.6-5.1-23.4-12.2-32.3-21.3c-9-9-15.9-19.7-20.8-31.9
			c-4.9-12.2-7.4-25.5-7.4-39.7c0-14.2,2.5-27.4,7.4-39.7c4.9-12.2,11.8-22.9,20.8-31.9c9-9,19.7-16.1,32.3-21.2
			c12.6-5.1,26.5-7.7,41.8-7.7c15.3,0,29.2,2.6,41.8,7.8c12.6,5.2,23.3,12.3,32.2,21.3c8.9,9,15.8,19.6,20.7,31.9
			C716.6,103.7,719.1,116.8,719.1,131z M672.4,131c0-9.7-1.3-18.5-3.8-26.3c-2.5-7.8-6.1-14.4-10.9-19.8
			c-4.7-5.4-10.5-9.5-17.3-12.4c-6.8-2.9-14.6-4.3-23.4-4.3c-8.8,0-16.7,1.4-23.6,4.3c-6.9,2.9-12.7,7-17.4,12.4
			c-4.7,5.4-8.3,12-10.9,19.8c-2.5,7.8-3.8,16.5-3.8,26.3c0,9.8,1.3,18.6,3.8,26.4c2.5,7.8,6.1,14.4,10.9,19.8
			c4.7,5.4,10.5,9.5,17.4,12.4c6.9,2.8,14.7,4.3,23.6,4.3c8.7,0,16.5-1.4,23.4-4.3c6.8-2.8,12.6-7,17.3-12.4
			c4.7-5.4,8.3-12,10.9-19.8C671.1,149.6,672.4,140.8,672.4,131z"/>
		<path fill="#FFFFFF" d="M865.6,32.7v36.2h-53.3v160.5h-45.6V68.9h-53.3V32.7H865.6z"/>
		<path fill="#FFFFFF" d="M1040.1,32.7v36.2h-55.3v160.5h-45.6V68.9h-53.3V32.7H1040.1z"/>
	</g>
	<path fill="#FFFFFF" d="M34.9,144c-0.2,0-0.4,0-0.6,0v77.6c0,5.6,4.6,10.2,10.2,10.2h79.9C123.7,183.3,83.8,144,34.9,144z"/>
	<path fill="#FFFFFF" d="M34.9,80c-0.2,0-0.4,0-0.6,0v33c65.9,0.3,119.5,53.3,120.2,118.8h34.2C188.1,148,119.3,80,34.9,80z"/>
	<path fill="#FFFFFF" d="M237.2,221.7v-70.1C214,94.8,167.3,50,109.1,29H44.5c-5.6,0-10.2,4.6-10.2,10.2V49
		c101.4,0.3,183.9,82,184.5,182.8h8.2C232.6,231.8,237.2,227.3,237.2,221.7z"/>
	<path fill="#FFFFFF" d="M210.5,57.3c9.4,9.4,19,21.3,26.7,31.8v-50c0-5.6-4.5-10.1-10.1-10.1h-51.5
		C187.5,37.3,199.9,46.8,210.5,57.3z"/>
</g>
</svg>
