<?xml version="1.0" encoding="utf-8"?>
<!-- Generator: Adobe Illustrator 24.1.1, SVG Export Plug-In . SVG Version: 6.00 Build 0)  -->
<svg version="1.1" id="Layer_1" xmlns="http://www.w3.org/2000/svg" xmlns:xlink="http://www.w3.org/1999/xlink" x="0px" y="0px"
	 viewBox="0 0 60 63.49" style="enable-background:new 0 0 60 63.49;" xml:space="preserve">
<style type="text/css">
	.st0{display:none;}
	.st1{display:inline;}
	.st2{fill-rule:evenodd;clip-rule:evenodd;}
	.st3{fill:none;stroke:url(#SVGID_1_);stroke-width:2;stroke-linecap:round;stroke-linejoin:round;stroke-miterlimit:10;}
	.st4{fill:none;stroke:url(#SVGID_2_);stroke-width:2;stroke-linecap:round;stroke-linejoin:round;stroke-miterlimit:10;}
	.st5{fill:none;stroke:url(#SVGID_3_);stroke-width:2;stroke-linecap:round;stroke-linejoin:round;stroke-miterlimit:10;}
	.st6{fill:none;stroke:url(#SVGID_4_);stroke-width:2;stroke-linecap:round;stroke-linejoin:round;stroke-miterlimit:10;}
	.st7{fill:none;stroke:url(#SVGID_5_);stroke-width:2;stroke-linecap:round;stroke-linejoin:round;stroke-miterlimit:10;}
	.st8{fill:none;stroke:url(#SVGID_6_);stroke-width:2;stroke-linecap:round;stroke-linejoin:round;stroke-miterlimit:10;}
	.st9{fill-rule:evenodd;clip-rule:evenodd;fill:#22ADF6;}
</style>
<g class="st0">
	<g id="SEO" class="st1">
		<g id="Icon-20">
			<path id="users" class="st2" d="M42.12,48.59c-0.19,0.32-0.52,0.5-0.87,0.5c-0.17,0-0.34-0.04-0.5-0.13L30,42.74l-10.76,6.21
				c-0.16,0.09-0.33,0.13-0.5,0.13c-0.35,0-0.68-0.18-0.87-0.5c-0.28-0.48-0.11-1.09,0.37-1.37L29,41.01V28.59c0-0.55,0.45-1,1-1
				s1,0.45,1,1v12.42l10.76,6.21C42.24,47.5,42.4,48.11,42.12,48.59L42.12,48.59z"/>
		</g>
	</g>
	<g class="st1">
		<g>
			<g>
				<linearGradient id="SVGID_1_" gradientUnits="userSpaceOnUse" x1="2.3226" y1="63.6904" x2="14.4761" y2="51.5369">
					<stop  offset="0" style="stop-color:#BF2FE5"/>
					<stop  offset="1" style="stop-color:#22ADF6;stop-opacity:0.984"/>
				</linearGradient>
				<path class="st3" d="M16.92,59.46H0.16H-0.5c0-4.91,3.98-8.9,8.9-8.9s8.9,3.98,8.9,8.9H16.92z"/>
			</g>
			<linearGradient id="SVGID_2_" gradientUnits="userSpaceOnUse" x1="4.2468" y1="49.8395" x2="12.5519" y2="41.5344">
				<stop  offset="0" style="stop-color:#BF2FE5"/>
				<stop  offset="1" style="stop-color:#22ADF6;stop-opacity:0.984"/>
			</linearGradient>
			<circle class="st4" cx="8.4" cy="45.69" r="4.87"/>
		</g>
	</g>
	<g class="st1">
		<g>
			<g>
				<linearGradient id="SVGID_3_" gradientUnits="userSpaceOnUse" x1="45.5239" y1="63.6904" x2="57.6774" y2="51.5369">
					<stop  offset="0" style="stop-color:#BF2FE5"/>
					<stop  offset="1" style="stop-color:#22ADF6;stop-opacity:0.984"/>
				</linearGradient>
				<path class="st5" d="M60.12,59.46H43.36H42.7c0-4.91,3.98-8.9,8.9-8.9s8.9,3.98,8.9,8.9H60.12z"/>
			</g>
			<linearGradient id="SVGID_4_" gradientUnits="userSpaceOnUse" x1="47.4481" y1="49.8395" x2="55.7532" y2="41.5344">
				<stop  offset="0" style="stop-color:#BF2FE5"/>
				<stop  offset="1" style="stop-color:#22ADF6;stop-opacity:0.984"/>
			</linearGradient>
			<circle class="st6" cx="51.6" cy="45.69" r="4.87"/>
		</g>
	</g>
	<g class="st1">
		<g>
			<g>
				<linearGradient id="SVGID_5_" gradientUnits="userSpaceOnUse" x1="23.9232" y1="27.91" x2="36.0768" y2="15.7565">
					<stop  offset="0" style="stop-color:#BF2FE5"/>
					<stop  offset="1" style="stop-color:#22ADF6;stop-opacity:0.984"/>
				</linearGradient>
				<path class="st7" d="M38.52,23.68H21.76H21.1c0-4.91,3.98-8.9,8.9-8.9s8.9,3.98,8.9,8.9H38.52z"/>
			</g>
			<linearGradient id="SVGID_6_" gradientUnits="userSpaceOnUse" x1="25.8475" y1="14.0591" x2="34.1525" y2="5.754">
				<stop  offset="0" style="stop-color:#BF2FE5"/>
				<stop  offset="1" style="stop-color:#22ADF6;stop-opacity:0.984"/>
			</linearGradient>
			<circle class="st8" cx="30" cy="9.91" r="4.87"/>
		</g>
	</g>
</g>
<path class="st9" d="M46,50.49c0-0.55,0.45-1,1-1h4c0.55,0,1,0.45,1,1s-0.45,1-1,1h-4C46.45,51.49,46,51.04,46,50.49L46,50.49z
	 M56,58.49c0,0.55-0.45,1-1,1h-8c-0.55,0-1-0.45-1-1s0.45-1,1-1h8C55.55,57.49,56,57.94,56,58.49L56,58.49z M56,54.49
	c0,0.55-0.45,1-1,1h-8c-0.55,0-1-0.45-1-1s0.45-1,1-1h8C55.55,53.49,56,53.94,56,54.49L56,54.49z M44,61.49v-16h14l0,16H44z
	 M58,43.49H44c-1.1,0-2,0.9-2,2v16c0,1.1,0.9,2,2,2h14c1.1,0,2-0.9,2-2v-16C60,44.39,59.1,43.49,58,43.49L58,43.49z M4,50.49
	c0-0.55,0.45-1,1-1h4c0.55,0,1,0.45,1,1s-0.45,1-1,1H5C4.45,51.49,4,51.04,4,50.49L4,50.49z M14,58.49c0,0.55-0.45,1-1,1H5
	c-0.55,0-1-0.45-1-1s0.45-1,1-1h8C13.55,57.49,14,57.94,14,58.49L14,58.49z M14,54.49c0,0.55-0.45,1-1,1H5c-0.55,0-1-0.45-1-1
	s0.45-1,1-1h8C13.55,53.49,14,53.94,14,54.49L14,54.49z M2,61.49v-16h14l0,16H2z M16,43.49H2c-1.1,0-2,0.9-2,2v16c0,1.1,0.9,2,2,2
	h14c1.1,0,2-0.9,2-2v-16C18,44.39,17.1,43.49,16,43.49L16,43.49z M25,50.49c0-0.55,0.45-1,1-1h4c0.55,0,1,0.45,1,1s-0.45,1-1,1h-4
	C25.45,51.49,25,51.04,25,50.49L25,50.49z M35,58.49c0,0.55-0.45,1-1,1h-8c-0.55,0-1-0.45-1-1s0.45-1,1-1h8
	C34.55,57.49,35,57.94,35,58.49L35,58.49z M35,54.49c0,0.55-0.45,1-1,1h-8c-0.55,0-1-0.45-1-1s0.45-1,1-1h8
	C34.55,53.49,35,53.94,35,54.49L35,54.49z M23,61.49v-16h14l0,16H23z M37,43.49H23c-1.1,0-2,0.9-2,2v16c0,1.1,0.9,2,2,2h14
	c1.1,0,2-0.9,2-2v-16C39,44.39,38.1,43.49,37,43.49L37,43.49z M30,35.49c0.55,0,1,0.45,1,1s-0.45,1-1,1s-1-0.45-1-1
	S29.45,35.49,30,35.49L30,35.49z M9,41.49c0.55,0,1-0.45,1-1v-3h17.18c0.3,0.85,0.97,1.51,1.82,1.81v1.19c0,0.55,0.45,1,1,1
	s1-0.45,1-1v-1.18c0.85-0.3,1.51-0.97,1.81-1.82H50v3c0,0.55,0.45,1,1,1c0.55,0,1-0.45,1-1v-4c0-0.55-0.45-1-1-1H32.81
	c-0.3-0.85-0.97-1.51-1.81-1.82v-7.18c0-0.55-0.45-1-1-1s-1,0.45-1,1v7.18c-0.85,0.3-1.51,0.97-1.82,1.82H9c-0.55,0-1,0.45-1,1v4
	C8,41.04,8.45,41.49,9,41.49L9,41.49z M33.89,11.87c1.63-1.2,2.69-3.12,2.69-5.29C36.58,2.95,33.63,0,30,0s-6.58,2.95-6.58,6.58
	c0,2.17,1.06,4.09,2.69,5.29c-4.25,1.59-7.29,5.68-7.29,10.47c0,0.55,0.45,1,1,1h20.37c0.55,0,1-0.45,1-1
	C41.19,17.54,38.14,13.45,33.89,11.87z M25.42,6.58C25.42,4.05,27.48,2,30,2s4.58,2.05,4.58,4.58s-2.05,4.58-4.58,4.58
	S25.42,9.1,25.42,6.58z M20.87,21.34c0.5-4.6,4.4-8.19,9.13-8.19s8.63,3.59,9.13,8.19H20.87z"/>
</svg>
