<svg xmlns="http://www.w3.org/2000/svg" role="img" viewBox="-4.14 -3.89 436.28 119.03"><title>NATS logo</title><style>svg {enable-background:new 0 0 429 110}</style><style>.st1{fill:#fff}.st2{fill:#34a574}</style><path fill="#27aae1" d="M4.3 84.6h42.2L70.7 107V84.6H103v-80H4.3v80zm15.9-61.3h18.5l35.6 33.2V23.3h11.8v42.9H68.2L32 32.4v33.8H20.2V23.3z"/><path d="M32 32.4l36.2 33.8h17.9V23.3H74.3v33.2L38.7 23.3H20.2v42.9H32z" class="st1"/><path d="M159.8 30.7L147 49h25.6z" class="st2"/><path d="M111.3 84.6H210v-80h-98.7v80zm41-61.5H168l30.8 43.2h-14.1l-5.8-8.3h-38.1l-5.8 8.3h-13.5l30.8-43.2z" class="st2"/><path d="M140.8 57.9h38.1l5.8 8.3h14.1L168 23.1h-15.7l-30.8 43.2H135l5.8-8.4zm19-27.2L172.6 49H147l12.8-18.3z" class="st1"/><path fill="#375c93" d="M218.3 84.6H317v-80h-98.7v80zm15.5-61.3h66.7V33h-27.2v33.2h-12.2V33h-27.3v-9.7z"/><path d="M261.1 66.2h12.2V33h27.2v-9.7h-66.7V33h27.3z" class="st1"/><path fill="#8dc63f" d="M325.3 4.6v80H424v-80h-98.7zm76.5 56.7c-3.2 3.2-10.2 5.7-26.8 5.7-12.3 0-24.1-1.9-30.7-4.7v-10c6.3 2.8 20.1 5.5 30.7 5.5 9.3 0 15.8-.3 17.5-2.1.6-.6.7-1.3.7-2 0-.8-.2-1.3-.7-1.8-1-1-2.6-1.7-17.4-2.1-15.7-.4-23.4-2-27-5.6-1.7-1.7-2.6-4.4-2.6-7.5 0-3.3.6-6.2 3.3-8.9 3.6-3.6 10.7-5.3 25.1-5.3 10.8 0 21.6 1.7 27.3 4v10.1c-6.5-2.8-17.8-4.8-27.2-4.8-10.4 0-14.8.6-16.2 2-.5.5-.8 1.1-.8 1.9 0 .9.2 1.5.7 2 1.3 1.3 6.1 1.7 17.3 1.9 16.4.4 23.5 1.8 27 5.2 1.8 1.8 2.8 4.7 2.8 7.7.1 3.2-.6 6.4-3 8.8z"/><path d="M375.2 39.5c-11.2-.2-16-.6-17.3-1.9-.5-.5-.7-1.1-.7-2 0-.8.3-1.4.8-1.9 1.3-1.3 5.8-2 16.2-2 9.4 0 20.7 2 27.2 4.8v-10c-5.7-2.3-16.6-4-27.3-4-14.5 0-21.6 1.8-25.1 5.3-2.7 2.7-3.3 5.6-3.3 8.9 0 3.1 1 5.8 2.6 7.5 3.6 3.6 11.3 5.2 27 5.6 14.8.4 16.4 1.1 17.4 2.1.5.5.7 1 .7 1.8 0 .7-.1 1.3-.7 2-1.8 1.8-8.3 2.1-17.5 2.1-10.6 0-24.3-2.6-30.7-5.5v10.1c6.6 2.8 18.4 4.7 30.7 4.7 16.6 0 23.6-2.5 26.8-5.7 2.4-2.4 3.1-5.6 3.1-8.9 0-3.1-1-5.9-2.8-7.7-3.6-3.5-10.7-4.9-27.1-5.3z" class="st1"/></svg>