<?xml version="1.0" encoding="utf-8"?>
<!-- Generator: Adobe Illustrator 16.0.0, SVG Export Plug-In . SVG Version: 6.00 Build 0)  -->
<!DOCTYPE svg PUBLIC "-//W3C//DTD SVG 1.1//EN" "http://www.w3.org/Graphics/SVG/1.1/DTD/svg11.dtd">
<svg version="1.1" xmlns="http://www.w3.org/2000/svg" xmlns:xlink="http://www.w3.org/1999/xlink" x="0px" y="0px"
	 width="373.666px" height="113.333px" viewBox="0 0 373.666 113.333" enable-background="new 0 0 373.666 113.333"
	 xml:space="preserve">
<g id="Layer_2" display="none">
	<g display="inline">
		<path fill="#F48217" d="M288.562,60.841c-2.092,0-3.426-1.035-4.305-2.471l1.139-0.975c0.855,1.295,1.732,1.99,3.184,1.99
			c1.576,0,2.734-1.135,2.734-3.346v-9.342h1.59v9.324C292.904,59.23,291.051,60.841,288.562,60.841"/>
		<path fill="#F48217" d="M306.07,60.644l-4.045-5.419h-3.986v5.419h-1.572V46.697h5.998c3.066,0,5.041,1.653,5.041,4.165
			c0,2.331-1.598,3.685-3.787,4.083l4.283,5.699H306.07z M302.344,48.152h-4.305v5.657h4.283c2.092,0,3.586-1.076,3.586-2.887
			C305.908,49.187,304.594,48.152,302.344,48.152"/>
		<rect x="310.416" y="58.55" fill="#F48217" width="1.832" height="2.092"/>
		<path fill="#F48217" d="M201.74,40.785c-0.861-0.849-1.889-1.534-3.049-2.03c-1.172-0.498-2.434-0.755-3.74-0.755h-22.672
			c-0.441,0-0.799,0.36-0.799,0.8v31.315c0,0.438,0.357,0.797,0.799,0.797h1.252c0.441,0,0.801-0.359,0.801-0.797v-12.98h20.619
			c1.312,0,2.574-0.256,3.74-0.75c1.16-0.496,2.189-1.188,3.053-2.053c0.861-0.857,1.547-1.878,2.047-3.036
			c0.502-1.16,0.758-2.426,0.758-3.758c0-1.309-0.256-2.565-0.758-3.729C203.291,42.65,202.604,41.636,201.74,40.785
			 M201.137,50.144c-0.355,0.815-0.846,1.539-1.451,2.154c-0.604,0.614-1.326,1.103-2.141,1.458
			c-0.814,0.35-1.686,0.527-2.594,0.527h-20.619V40.854h20.619c0.902,0,1.777,0.175,2.594,0.53c0.82,0.357,1.545,0.836,2.148,1.43
			c0.602,0.595,1.088,1.307,1.439,2.125c0.361,0.833,0.531,1.682,0.531,2.598C201.664,48.46,201.486,49.339,201.137,50.144"/>
		<path fill="#F48217" d="M241.729,38H210.32c-0.441,0-0.797,0.359-0.797,0.8v31.312c0,0.441,0.355,0.799,0.797,0.799h31.408
			c0.439,0,0.797-0.357,0.797-0.799v-1.254c0-0.441-0.357-0.801-0.797-0.801h-29.357V55.88h28.73c0.441,0,0.797-0.358,0.797-0.8
			v-1.25c0-0.444-0.355-0.798-0.797-0.798h-28.73V40.855h29.357c0.439,0,0.797-0.36,0.797-0.802V38.8
			C242.525,38.36,242.168,38,241.729,38"/>
		<path fill="#F48217" d="M279.686,38.393c-0.129-0.292-0.414-0.486-0.736-0.486h-1.691c-0.221,0-0.43,0.093-0.58,0.249
			l-13.604,14.359l-13.602-14.359c-0.152-0.156-0.361-0.249-0.58-0.249h-1.689c-0.318,0-0.609,0.193-0.734,0.486
			c-0.127,0.296-0.066,0.63,0.156,0.863l14.504,15.293L246.873,69.56c-0.223,0.232-0.279,0.572-0.156,0.867
			c0.123,0.289,0.416,0.484,0.736,0.484h1.689c0.215,0,0.426-0.092,0.576-0.248l13.355-14.043l13.318,14.043
			c0.154,0.156,0.365,0.248,0.584,0.248h1.725c0.32,0,0.605-0.195,0.734-0.484c0.123-0.295,0.062-0.635-0.154-0.867l-14.26-15.011
			l14.51-15.293C279.75,39.023,279.811,38.688,279.686,38.393"/>
		<path fill="#F48217" d="M153.062,38.419c-0.135-0.275-0.414-0.451-0.721-0.451h-1.252c-0.309,0-0.588,0.183-0.723,0.461
			l-14.839,31.339c-0.118,0.25-0.099,0.537,0.045,0.77c0.149,0.229,0.403,0.373,0.677,0.373h1.409c0.31,0,0.588-0.182,0.72-0.455
			l0.976-2.051l12.373-26.127l12.703,26.127l1,2.057c0.137,0.275,0.416,0.449,0.723,0.449h1.406h0.041
			c0.441,0,0.801-0.359,0.801-0.797c0-0.213-0.084-0.408-0.219-0.551L153.062,38.419z"/>
		<path fill="#808184" d="M109.953,76.251H81.931c-2.01,0-3.645-1.635-3.645-3.645V37.96c0-2.009,1.635-3.644,3.645-3.644h28.022
			c2.01,0,3.645,1.634,3.645,3.644v34.647C113.598,74.617,111.963,76.251,109.953,76.251 M81.931,34.79
			c-1.748,0-3.171,1.422-3.171,3.17v34.647c0,1.75,1.423,3.172,3.171,3.172h28.022c1.749,0,3.171-1.422,3.171-3.172V37.96
			c0-1.748-1.422-3.17-3.171-3.17H81.931z"/>
		<path fill="#808184" d="M112.793,80.275H79.092c-2.662,0-4.827-2.166-4.827-4.826V35.121c0-2.662,2.165-4.828,4.827-4.828h33.701
			c2.663,0,4.827,2.166,4.827,4.828v40.328C117.62,78.109,115.456,80.275,112.793,80.275 M79.092,33.133
			c-1.096,0-1.988,0.892-1.988,1.988v40.328c0,1.094,0.892,1.986,1.988,1.986h33.701c1.097,0,1.987-0.893,1.987-1.986V35.121
			c0-1.096-0.89-1.988-1.987-1.988H79.092z"/>
		<path fill="#808184" d="M107.976,56.093H83.908c-1.734,0-3.143-1.409-3.143-3.143V40.884c0-1.733,1.409-3.144,3.143-3.144h24.068
			c1.734,0,3.145,1.41,3.145,3.144V52.95C111.121,54.684,109.71,56.093,107.976,56.093 M83.908,39.16
			c-0.95,0-1.723,0.773-1.723,1.724V52.95c0,0.951,0.772,1.724,1.723,1.724h24.068c0.952,0,1.725-0.773,1.725-1.724V40.884
			c0-0.95-0.773-1.724-1.725-1.724H83.908z"/>
		<path fill="#808184" d="M106.761,54.098H85.125c-1.232,0-2.233-1-2.233-2.233v-9.897c0-1.23,1.001-2.233,2.233-2.233h21.636
			c1.231,0,2.234,1.003,2.234,2.233v9.897C108.995,53.098,107.992,54.098,106.761,54.098 M85.125,40.208
			c-0.971,0-1.761,0.789-1.761,1.759v9.897c0,0.97,0.79,1.76,1.761,1.76h21.636c0.972,0,1.761-0.79,1.761-1.76v-9.897
			c0-0.97-0.789-1.759-1.761-1.759H85.125z"/>
		<path fill="#808184" d="M98.485,65.433c0,1.406-1.137,2.541-2.542,2.541c-1.405,0-2.544-1.135-2.544-2.541
			c0-1.404,1.139-2.543,2.544-2.543C97.348,62.89,98.485,64.029,98.485,65.433"/>
		<polygon fill="#808184" points="95.943,69.23 98.506,69.23 97.225,71.451 95.943,73.671 94.659,71.451 93.378,69.23 		"/>
		<polygon fill="#808184" points="95.943,61.636 93.378,61.636 94.659,59.416 95.943,57.197 97.225,59.416 98.506,61.636 		"/>
		<polygon fill="#808184" points="92.146,65.433 92.146,67.998 89.926,66.716 87.705,65.433 89.926,64.15 92.146,62.871 		"/>
		<polygon fill="#808184" points="99.74,65.433 99.74,62.871 101.96,64.15 104.179,65.433 101.96,66.716 99.74,67.998 		"/>
		<path fill="#808184" d="M64.541,80.119h-16.1c-3.167,0-5.744-2.574-5.744-5.742V35.973c0-3.167,2.577-5.743,5.744-5.743h16.1
			c3.165,0,5.743,2.576,5.743,5.743v38.404C70.284,77.544,67.706,80.119,64.541,80.119 M48.441,33.607
			c-1.304,0-2.365,1.061-2.365,2.365v38.404c0,1.303,1.061,2.367,2.365,2.367h16.1c1.304,0,2.364-1.064,2.364-2.367V35.973
			c0-1.304-1.06-2.365-2.364-2.365H48.441z"/>
		<path fill="#808184" d="M61.829,74.958H51.152c-1.907,0-3.458-1.551-3.458-3.459v-6.75c0-1.904,1.551-3.459,3.458-3.459h10.677
			c1.906,0,3.458,1.555,3.458,3.459v6.75C65.288,73.408,63.735,74.958,61.829,74.958 M51.152,62.417
			c-1.286,0-2.332,1.045-2.332,2.332v6.75c0,1.287,1.046,2.334,2.332,2.334h10.677c1.287,0,2.332-1.047,2.332-2.334v-6.75
			c0-1.287-1.045-2.332-2.332-2.332H51.152z"/>
		<path fill="#808184" d="M54.171,44.433h-4.273c-1.024,0-1.858-0.833-1.858-1.857v-4.544c0-1.023,0.834-1.857,1.858-1.857h4.273
			c1.025,0,1.857,0.834,1.857,1.857v4.544C56.028,43.6,55.196,44.433,54.171,44.433 M49.898,37.266
			c-0.421,0-0.765,0.343-0.765,0.766v4.544c0,0.422,0.344,0.765,0.765,0.765h4.273c0.422,0,0.765-0.343,0.765-0.765v-4.544
			c0-0.423-0.343-0.766-0.765-0.766H49.898z"/>
		<rect x="50.251" y="38.92" fill="#808184" width="2.224" height="0.741"/>
		<rect x="50.251" y="40.944" fill="#808184" width="2.224" height="0.742"/>
		<path fill="#808184" d="M53.717,39.581c0.398,0,0.72,0.323,0.72,0.722c0,0.398-0.322,0.721-0.72,0.721
			c-0.399,0-0.722-0.322-0.722-0.721C52.995,39.904,53.317,39.581,53.717,39.581"/>
		<path fill="#808184" d="M54.171,54.066h-4.273c-1.024,0-1.858-0.833-1.858-1.857v-4.544c0-1.023,0.834-1.857,1.858-1.857h4.273
			c1.025,0,1.857,0.833,1.857,1.857v4.544C56.028,53.234,55.196,54.066,54.171,54.066 M49.898,46.9
			c-0.421,0-0.765,0.343-0.765,0.765v4.544c0,0.422,0.344,0.764,0.765,0.764h4.273c0.422,0,0.765-0.342,0.765-0.764v-4.544
			c0-0.422-0.343-0.765-0.765-0.765H49.898z"/>
		<rect x="50.251" y="48.555" fill="#808184" width="2.224" height="0.741"/>
		<rect x="50.251" y="50.579" fill="#808184" width="2.224" height="0.742"/>
		<path fill="#808184" d="M53.717,49.216c0.398,0,0.72,0.322,0.72,0.722c0,0.398-0.322,0.721-0.72,0.721
			c-0.399,0-0.722-0.323-0.722-0.721C52.995,49.538,53.317,49.216,53.717,49.216"/>
		<path fill="#808184" d="M63.083,44.433h-4.271c-1.025,0-1.859-0.833-1.859-1.857v-4.544c0-1.023,0.834-1.857,1.859-1.857h4.271
			c1.024,0,1.858,0.834,1.858,1.857v4.544C64.941,43.6,64.107,44.433,63.083,44.433 M58.812,37.266
			c-0.422,0-0.766,0.343-0.766,0.766v4.544c0,0.422,0.344,0.765,0.766,0.765h4.271c0.421,0,0.764-0.343,0.764-0.765v-4.544
			c0-0.423-0.342-0.766-0.764-0.766H58.812z"/>
		<rect x="59.164" y="38.92" fill="#808184" width="2.224" height="0.741"/>
		<rect x="59.164" y="40.944" fill="#808184" width="2.224" height="0.742"/>
		<path fill="#808184" d="M62.628,39.581c0.399,0,0.721,0.323,0.721,0.722c0,0.398-0.322,0.721-0.721,0.721
			c-0.398,0-0.723-0.322-0.723-0.721C61.906,39.904,62.23,39.581,62.628,39.581"/>
		<path fill="#808184" d="M63.083,54.066h-4.271c-1.025,0-1.859-0.833-1.859-1.857v-4.544c0-1.023,0.834-1.857,1.859-1.857h4.271
			c1.024,0,1.858,0.833,1.858,1.857v4.544C64.941,53.234,64.107,54.066,63.083,54.066 M58.812,46.9
			c-0.422,0-0.766,0.343-0.766,0.765v4.544c0,0.422,0.344,0.764,0.766,0.764h4.271c0.421,0,0.764-0.342,0.764-0.764v-4.544
			c0-0.422-0.342-0.765-0.764-0.765H58.812z"/>
		<rect x="59.164" y="48.555" fill="#808184" width="2.224" height="0.741"/>
		<rect x="59.164" y="50.579" fill="#808184" width="2.224" height="0.742"/>
		<path fill="#808184" d="M62.628,49.216c0.399,0,0.721,0.322,0.721,0.722c0,0.398-0.322,0.721-0.721,0.721
			c-0.398,0-0.723-0.323-0.723-0.721C61.906,49.538,62.23,49.216,62.628,49.216"/>
		<path fill="#808184" d="M52.229,58.273c0,1.055,0.856,1.91,1.91,1.91c1.056,0,1.91-0.855,1.91-1.91
			c0-1.057-0.854-1.912-1.91-1.912C53.085,56.361,52.229,57.216,52.229,58.273 M55.261,58.273c0,0.619-0.501,1.119-1.122,1.119
			c-0.618,0-1.121-0.5-1.121-1.119c0-0.621,0.503-1.123,1.121-1.123C54.76,57.15,55.261,57.652,55.261,58.273"/>
		<path fill="#808184" d="M54.789,58.273c0,0.355-0.292,0.648-0.65,0.648c-0.358,0-0.649-0.293-0.649-0.648
			c0-0.359,0.291-0.65,0.649-0.65C54.498,57.623,54.789,57.914,54.789,58.273"/>
		<rect x="82.504" y="57.916" fill="#808184" width="4.848" height="1.994"/>
		<rect x="104.533" y="57.916" fill="#808184" width="4.847" height="1.994"/>
	</g>
</g>
<g id="Layer_3">
	<path fill="#FFFFFF" stroke="#8A8A8D" stroke-width="2" stroke-miterlimit="10" d="M325.666,80.133c0,3.977-3.224,7.2-7.2,7.2
		H49.533c-3.977,0-7.2-3.224-7.2-7.2V29.867c0-3.977,3.224-7.2,7.2-7.2h268.933c3.977,0,7.2,3.224,7.2,7.2V80.133z"/>
	<g>
		<g>
			<path fill="#8A8A8D" d="M230.863,49.527h-9.693v5.716h8.666v1.646h-8.666v6.973h-1.805V47.858h11.498V49.527z"/>
			<path fill="#8A8A8D" d="M246.812,57.025c0,1.174-0.16,2.203-0.48,3.088c-0.32,0.883-0.773,1.623-1.359,2.217
				c-0.588,0.594-1.289,1.041-2.104,1.338c-0.816,0.297-1.727,0.445-2.732,0.445c-0.99,0-1.895-0.148-2.709-0.445
				c-0.816-0.297-1.518-0.74-2.104-1.326s-1.041-1.314-1.359-2.184c-0.32-0.869-0.48-1.867-0.48-2.994v-9.306h1.807v9.19
				c0,1.738,0.43,3.072,1.291,4.002s2.061,1.395,3.6,1.395c1.479,0,2.652-0.443,3.521-1.326c0.869-0.885,1.303-2.203,1.303-3.955
				v-9.306h1.807V57.025z"/>
			<path fill="#8A8A8D" d="M252.156,52.871c0.123,0.305,0.344,0.584,0.664,0.836s0.762,0.481,1.326,0.687
				c0.562,0.206,1.287,0.4,2.172,0.583c1.783,0.397,3.098,0.946,3.943,1.648s1.268,1.671,1.268,2.907
				c0,0.688-0.135,1.314-0.406,1.879c-0.27,0.564-0.645,1.045-1.119,1.441c-0.477,0.398-1.049,0.703-1.721,0.916
				c-0.67,0.213-1.402,0.32-2.193,0.32c-1.281,0-2.451-0.207-3.51-0.619c-1.061-0.412-2.07-1.053-3.029-1.918l1.119-1.326
				c0.838,0.762,1.686,1.33,2.539,1.703s1.836,0.561,2.949,0.561c1.082,0,1.945-0.252,2.594-0.756s0.973-1.168,0.973-1.992
				c0-0.381-0.062-0.721-0.184-1.018c-0.123-0.299-0.336-0.568-0.643-0.814c-0.305-0.244-0.729-0.465-1.271-0.664
				c-0.543-0.197-1.234-0.389-2.074-0.572c-0.916-0.197-1.715-0.427-2.395-0.687c-0.68-0.259-1.242-0.572-1.684-0.938
				c-0.443-0.366-0.773-0.793-0.986-1.282s-0.32-1.069-0.32-1.74c0-0.641,0.129-1.229,0.389-1.763
				c0.258-0.534,0.625-0.996,1.098-1.385c0.471-0.389,1.027-0.694,1.668-0.916c0.641-0.222,1.342-0.333,2.104-0.333
				c1.174,0,2.199,0.162,3.074,0.485c0.877,0.323,1.727,0.809,2.551,1.458l-1.053,1.395c-0.746-0.609-1.498-1.052-2.252-1.326
				c-0.754-0.274-1.543-0.411-2.365-0.411c-0.52,0-0.988,0.069-1.406,0.206c-0.42,0.137-0.777,0.321-1.074,0.55
				c-0.299,0.229-0.527,0.503-0.688,0.824c-0.158,0.321-0.238,0.664-0.238,1.03C251.975,52.222,252.035,52.565,252.156,52.871z"/>
			<path fill="#8A8A8D" d="M266.689,47.858v16.003h-1.807V47.858H266.689z"/>
			<path fill="#8A8A8D" d="M285.932,59.003c-0.396,0.998-0.951,1.879-1.668,2.641s-1.578,1.367-2.584,1.816
				s-2.119,0.676-3.338,0.676s-2.328-0.221-3.326-0.664c-0.998-0.441-1.855-1.039-2.572-1.795c-0.717-0.754-1.268-1.631-1.656-2.629
				s-0.584-2.053-0.584-3.166s0.199-2.168,0.596-3.167c0.395-0.998,0.951-1.878,1.668-2.641c0.717-0.762,1.578-1.368,2.584-1.817
				c1.006-0.449,2.117-0.674,3.338-0.674c1.219,0,2.328,0.221,3.326,0.663c0.998,0.442,1.855,1.041,2.572,1.795
				c0.715,0.754,1.268,1.631,1.656,2.629c0.389,0.999,0.584,2.054,0.584,3.167C286.527,56.949,286.328,58.005,285.932,59.003z
				 M284.184,53.299c-0.312-0.808-0.752-1.509-1.314-2.104c-0.564-0.594-1.23-1.066-2-1.417c-0.77-0.35-1.613-0.525-2.527-0.525
				s-1.756,0.171-2.525,0.514s-1.43,0.812-1.979,1.406c-0.549,0.595-0.979,1.292-1.291,2.092c-0.312,0.8-0.469,1.657-0.469,2.572
				s0.156,1.776,0.469,2.583c0.312,0.809,0.75,1.51,1.314,2.104c0.564,0.596,1.23,1.068,2,1.418c0.77,0.352,1.611,0.525,2.527,0.525
				c0.914,0,1.756-0.172,2.525-0.514c0.77-0.344,1.43-0.812,1.979-1.406s0.979-1.291,1.291-2.092s0.469-1.658,0.469-2.572
				C284.652,54.968,284.496,54.107,284.184,53.299z"/>
			<path fill="#8A8A8D" d="M301.668,47.858h1.76v16.003h-1.439l-10.334-13.122v13.122h-1.76V47.858h1.691l10.082,12.825V47.858z"/>
		</g>
		<g>
			<path fill="#EF7622" d="M136.08,41.398c-0.893-0.878-1.954-1.588-3.156-2.102c-1.213-0.516-2.518-0.781-3.873-0.781h-23.462
				c-0.458,0-0.827,0.372-0.827,0.829v32.407c0,0.457,0.369,0.828,0.827,0.828h1.296c0.457,0,0.827-0.371,0.827-0.828v-13.43h21.339
				c1.36,0,2.665-0.266,3.873-0.779c1.202-0.514,2.266-1.229,3.159-2.124c0.89-0.888,1.604-1.945,2.12-3.143
				c0.519-1.201,0.781-2.51,0.781-3.89c0-1.354-0.263-2.654-0.781-3.86C137.684,43.328,136.969,42.279,136.08,41.398z
				 M135.454,51.085c-0.369,0.844-0.875,1.593-1.5,2.23c-0.626,0.635-1.371,1.141-2.218,1.508c-0.84,0.362-1.744,0.543-2.686,0.543
				h-21.339V41.47h21.339c0.937,0,1.841,0.181,2.686,0.548c0.853,0.37,1.603,0.866,2.225,1.481c0.623,0.615,1.124,1.352,1.491,2.198
				c0.369,0.863,0.548,1.741,0.548,2.689C136,49.341,135.816,50.251,135.454,51.085z"/>
			<path fill="#EF7622" d="M177.463,38.516h-32.503c-0.456,0-0.825,0.372-0.825,0.829v32.407c0,0.457,0.369,0.828,0.825,0.828
				h32.503c0.457,0,0.828-0.371,0.828-0.828v-1.297c0-0.457-0.371-0.828-0.828-0.828h-30.379V57.021h29.732
				c0.457,0,0.826-0.369,0.826-0.828V54.9c0-0.459-0.369-0.826-0.826-0.826h-29.732V41.47h30.379c0.457,0,0.828-0.372,0.828-0.829
				v-1.297C178.291,38.888,177.92,38.516,177.463,38.516z"/>
			<path fill="#EF7622" d="M216.748,38.922c-0.129-0.302-0.428-0.503-0.76-0.503h-1.752c-0.227,0-0.443,0.097-0.6,0.258
				l-14.078,14.862L185.48,38.677c-0.158-0.161-0.373-0.258-0.602-0.258h-1.748c-0.332,0-0.631,0.201-0.76,0.503
				c-0.131,0.305-0.068,0.652,0.16,0.893l15.014,15.829l-14.756,15.537c-0.227,0.24-0.289,0.59-0.16,0.895
				c0.131,0.303,0.43,0.504,0.76,0.504h1.75c0.225,0,0.441-0.096,0.598-0.258l13.822-14.533l13.787,14.533
				c0.156,0.162,0.375,0.258,0.602,0.258h1.783c0.33,0,0.631-0.201,0.76-0.504c0.131-0.305,0.066-0.654-0.16-0.895l-14.756-15.537
				l15.014-15.829C216.816,39.575,216.879,39.228,216.748,38.922z"/>
		</g>
		<path fill="#EF7622" d="M85.7,38.95c-0.14-0.285-0.429-0.466-0.744-0.466h-1.298c-0.32,0-0.609,0.188-0.748,0.477L67.551,71.396
			c-0.122,0.258-0.102,0.557,0.048,0.797c0.152,0.238,0.416,0.387,0.699,0.387h1.458c0.32,0,0.61-0.188,0.747-0.471l1.008-2.121
			l12.805-27.044l13.149,27.044l1.036,2.125c0.14,0.287,0.428,0.467,0.745,0.467h1.456c0.014,0,0.027,0,0.042,0
			c0.456,0,0.829-0.371,0.829-0.828c0-0.219-0.088-0.42-0.227-0.568L85.7,38.95z"/>
	</g>
</g>
<g id="Layer_1" display="none">
	<g display="inline">
		<rect x="83.672" y="51.081" fill="#808184" width="3.328" height="4.235"/>
		<rect x="88.713" y="51.081" fill="#808184" width="3.327" height="4.235"/>
		<path fill="#808184" d="M140.601,75.923h-27.983c-2.007,0-3.639-1.632-3.639-3.639V37.686c0-2.007,1.632-3.64,3.639-3.64h27.983
			c2.008,0,3.64,1.633,3.64,3.64v34.599C144.241,74.292,142.609,75.923,140.601,75.923 M112.618,34.519
			c-1.746,0-3.167,1.421-3.167,3.167v34.599c0,1.744,1.42,3.166,3.167,3.166h27.983c1.746,0,3.167-1.422,3.167-3.166V37.686
			c0-1.746-1.421-3.167-3.167-3.167H112.618z"/>
		<path fill="#808184" d="M143.437,79.941h-33.655c-2.658,0-4.821-2.163-4.821-4.821V34.85c0-2.658,2.163-4.821,4.821-4.821h33.655
			c2.659,0,4.821,2.163,4.821,4.821v40.27C148.258,77.778,146.096,79.941,143.437,79.941 M109.782,32.865
			c-1.095,0-1.985,0.889-1.985,1.985v40.27c0,1.096,0.89,1.985,1.985,1.985h33.655c1.094,0,1.985-0.89,1.985-1.985V34.85
			c0-1.096-0.891-1.985-1.985-1.985H109.782z"/>
		<path fill="#808184" d="M95.377,53.183H48.173c-2.658,0-4.821-2.163-4.821-4.821V34.85c0-2.658,2.163-4.821,4.821-4.821h47.204
			c2.658,0,4.82,2.163,4.82,4.821v13.512C100.197,51.02,98.035,53.183,95.377,53.183 M48.173,32.865
			c-1.095,0-1.985,0.889-1.985,1.985v13.512c0,1.095,0.89,1.985,1.985,1.985h47.204c1.093,0,1.984-0.89,1.984-1.985V34.85
			c0-1.096-0.891-1.985-1.984-1.985H48.173z"/>
		<path fill="#808184" d="M138.626,55.794h-24.035c-1.731,0-3.139-1.41-3.139-3.14v-12.05c0-1.73,1.408-3.139,3.139-3.139h24.035
			c1.732,0,3.141,1.409,3.141,3.139v12.05C141.767,54.385,140.359,55.794,138.626,55.794 M114.591,38.883
			c-0.949,0-1.721,0.772-1.721,1.722v12.05c0,0.949,0.771,1.722,1.721,1.722h24.035c0.95,0,1.723-0.773,1.723-1.722v-12.05
			c0-0.949-0.772-1.722-1.723-1.722H114.591z"/>
		<path fill="#808184" d="M137.414,53.802h-21.608c-1.23,0-2.23-1-2.23-2.23v-9.884c0-1.229,1-2.23,2.23-2.23h21.608
			c1.23,0,2.229,1.001,2.229,2.23v9.884C139.644,52.801,138.644,53.802,137.414,53.802 M115.806,39.93
			c-0.969,0-1.757,0.789-1.757,1.757v9.884c0,0.97,0.789,1.758,1.757,1.758h21.608c0.969,0,1.757-0.788,1.757-1.758v-9.884
			c0-0.969-0.788-1.757-1.757-1.757H115.806z"/>
		<path fill="#808184" d="M129.148,65.122c0,1.402-1.135,2.54-2.539,2.54c-1.403,0-2.54-1.138-2.54-2.54
			c0-1.403,1.137-2.541,2.54-2.541C128.013,62.581,129.148,63.718,129.148,65.122"/>
		<polygon fill="#808184" points="126.61,68.914 129.17,68.914 127.891,71.13 126.61,73.348 125.329,71.13 124.049,68.914 		"/>
		<polygon fill="#808184" points="126.61,61.33 124.049,61.33 125.329,59.112 126.61,56.895 127.891,59.112 129.17,61.33 		"/>
		<polygon fill="#808184" points="122.818,65.122 122.818,67.682 120.601,66.403 118.384,65.122 120.601,63.84 122.818,62.561 		"/>
		<polygon fill="#808184" points="130.402,65.122 130.402,62.561 132.62,63.84 134.836,65.122 132.62,66.403 130.402,67.682 		"/>
		<path fill="#808184" d="M95.377,79.826H48.173c-2.658,0-4.821-2.163-4.821-4.82V61.495c0-2.659,2.163-4.821,4.821-4.821h47.204
			c2.658,0,4.82,2.162,4.82,4.821v13.511C100.197,77.663,98.035,79.826,95.377,79.826 M48.173,59.509
			c-1.095,0-1.985,0.89-1.985,1.985v13.511c0,1.095,0.89,1.985,1.985,1.985h47.204c1.093,0,1.984-0.891,1.984-1.985V61.495
			c0-1.096-0.891-1.985-1.984-1.985H48.173z"/>
		<path fill="#808184" d="M56.253,75.633h-5.667c-1.601,0-2.902-1.304-2.902-2.904V63.77c0-1.601,1.302-2.904,2.902-2.904h5.667
			c1.6,0,2.902,1.304,2.902,2.904v8.959C59.156,74.33,57.854,75.633,56.253,75.633 M50.586,61.811c-1.08,0-1.957,0.879-1.957,1.959
			v8.959c0,1.079,0.877,1.959,1.957,1.959h5.667c1.079,0,1.957-0.88,1.957-1.959V63.77c0-1.08-0.878-1.959-1.957-1.959H50.586z"/>
		<path fill="#808184" d="M93.649,67.863h-3.815c-0.859,0-1.558-0.699-1.558-1.559v-3.588c0-0.859,0.698-1.559,1.558-1.559h3.815
			c0.859,0,1.558,0.699,1.558,1.559v3.588C95.207,67.164,94.508,67.863,93.649,67.863 M89.834,62.075
			c-0.354,0-0.642,0.288-0.642,0.642v3.588c0,0.354,0.289,0.641,0.642,0.641h3.815c0.353,0,0.641-0.287,0.641-0.641v-3.588
			c0-0.354-0.288-0.642-0.641-0.642H89.834z"/>
		<rect x="92.28" y="63.013" fill="#808184" width="0.622" height="1.867"/>
		<rect x="90.58" y="63.013" fill="#808184" width="0.622" height="1.867"/>
		<path fill="#808184" d="M92.347,65.92c0,0.334-0.271,0.605-0.606,0.605c-0.333,0-0.604-0.271-0.604-0.605s0.271-0.605,0.604-0.605
			C92.075,65.315,92.347,65.586,92.347,65.92"/>
		<path fill="#808184" d="M85.562,67.863h-3.813c-0.859,0-1.558-0.699-1.558-1.559v-3.588c0-0.859,0.699-1.559,1.558-1.559h3.813
			c0.86,0,1.56,0.699,1.56,1.559v3.588C87.122,67.164,86.422,67.863,85.562,67.863 M81.748,62.075c-0.354,0-0.642,0.288-0.642,0.642
			v3.588c0,0.354,0.289,0.641,0.642,0.641h3.813c0.354,0,0.643-0.287,0.643-0.641v-3.588c0-0.354-0.289-0.642-0.643-0.642H81.748z"
			/>
		<rect x="84.195" y="63.013" fill="#808184" width="0.622" height="1.867"/>
		<rect x="82.494" y="63.013" fill="#808184" width="0.622" height="1.867"/>
		<path fill="#808184" d="M84.26,65.92c0,0.334-0.271,0.605-0.606,0.605c-0.333,0-0.604-0.271-0.604-0.605s0.271-0.605,0.604-0.605
			C83.989,65.315,84.26,65.586,84.26,65.92"/>
		<path fill="#808184" d="M77.476,67.863h-3.814c-0.859,0-1.559-0.699-1.559-1.559v-3.588c0-0.859,0.699-1.559,1.559-1.559h3.814
			c0.86,0,1.56,0.699,1.56,1.559v3.588C79.035,67.164,78.335,67.863,77.476,67.863 M73.662,62.075c-0.354,0-0.642,0.288-0.642,0.642
			v3.588c0,0.354,0.288,0.641,0.642,0.641h3.814c0.354,0,0.643-0.287,0.643-0.641v-3.588c0-0.354-0.289-0.642-0.643-0.642H73.662z"
			/>
		<rect x="76.108" y="63.013" fill="#808184" width="0.622" height="1.867"/>
		<rect x="74.408" y="63.013" fill="#808184" width="0.622" height="1.867"/>
		<path fill="#808184" d="M76.174,65.92c0,0.334-0.271,0.605-0.605,0.605c-0.334,0-0.605-0.271-0.605-0.605s0.271-0.605,0.605-0.605
			C75.903,65.315,76.174,65.586,76.174,65.92"/>
		<path fill="#808184" d="M69.39,67.863h-3.814c-0.86,0-1.559-0.699-1.559-1.559v-3.588c0-0.859,0.698-1.559,1.559-1.559h3.814
			c0.859,0,1.559,0.699,1.559,1.559v3.588C70.949,67.164,70.249,67.863,69.39,67.863 M65.576,62.075
			c-0.354,0-0.643,0.288-0.643,0.642v3.588c0,0.354,0.288,0.641,0.643,0.641h3.814c0.354,0,0.642-0.287,0.642-0.641v-3.588
			c0-0.354-0.289-0.642-0.642-0.642H65.576z"/>
		<rect x="68.021" y="63.013" fill="#808184" width="0.622" height="1.867"/>
		<rect x="66.321" y="63.013" fill="#808184" width="0.622" height="1.867"/>
		<path fill="#808184" d="M68.088,65.92c0,0.334-0.271,0.605-0.605,0.605c-0.333,0-0.605-0.271-0.605-0.605s0.271-0.605,0.605-0.605
			C67.817,65.315,68.088,65.586,68.088,65.92"/>
		<path fill="#808184" d="M93.649,75.341h-3.815c-0.859,0-1.558-0.699-1.558-1.558v-3.587c0-0.859,0.698-1.559,1.558-1.559h3.815
			c0.859,0,1.558,0.699,1.558,1.559v3.587C95.207,74.642,94.508,75.341,93.649,75.341 M89.834,69.556
			c-0.354,0-0.642,0.287-0.642,0.641v3.587c0,0.354,0.289,0.641,0.642,0.641h3.815c0.353,0,0.641-0.287,0.641-0.641v-3.587
			c0-0.354-0.288-0.641-0.641-0.641H89.834z"/>
		<rect x="92.28" y="70.494" fill="#808184" width="0.622" height="1.866"/>
		<rect x="90.58" y="70.494" fill="#808184" width="0.622" height="1.866"/>
		<path fill="#808184" d="M92.347,73.401c0,0.335-0.271,0.606-0.606,0.606c-0.333,0-0.604-0.271-0.604-0.606
			c0-0.336,0.271-0.605,0.604-0.605C92.075,72.795,92.347,73.065,92.347,73.401"/>
		<path fill="#808184" d="M85.562,75.341h-3.813c-0.859,0-1.558-0.699-1.558-1.558v-3.587c0-0.859,0.699-1.559,1.558-1.559h3.813
			c0.86,0,1.56,0.699,1.56,1.559v3.587C87.122,74.642,86.422,75.341,85.562,75.341 M81.748,69.556c-0.354,0-0.642,0.287-0.642,0.641
			v3.587c0,0.354,0.289,0.641,0.642,0.641h3.813c0.354,0,0.643-0.287,0.643-0.641v-3.587c0-0.354-0.289-0.641-0.643-0.641H81.748z"
			/>
		<rect x="84.195" y="70.494" fill="#808184" width="0.622" height="1.866"/>
		<rect x="82.494" y="70.494" fill="#808184" width="0.622" height="1.866"/>
		<path fill="#808184" d="M84.26,73.401c0,0.335-0.271,0.606-0.606,0.606c-0.333,0-0.604-0.271-0.604-0.606
			c0-0.336,0.271-0.605,0.604-0.605C83.989,72.795,84.26,73.065,84.26,73.401"/>
		<path fill="#808184" d="M77.476,75.341h-3.814c-0.859,0-1.559-0.699-1.559-1.558v-3.587c0-0.859,0.699-1.559,1.559-1.559h3.814
			c0.86,0,1.56,0.699,1.56,1.559v3.587C79.035,74.642,78.335,75.341,77.476,75.341 M73.662,69.556c-0.354,0-0.642,0.287-0.642,0.641
			v3.587c0,0.354,0.288,0.641,0.642,0.641h3.814c0.354,0,0.643-0.287,0.643-0.641v-3.587c0-0.354-0.289-0.641-0.643-0.641H73.662z"
			/>
		<rect x="76.108" y="70.494" fill="#808184" width="0.622" height="1.866"/>
		<rect x="74.408" y="70.494" fill="#808184" width="0.622" height="1.866"/>
		<path fill="#808184" d="M76.174,73.401c0,0.335-0.271,0.606-0.605,0.606c-0.334,0-0.605-0.271-0.605-0.606
			c0-0.336,0.271-0.605,0.605-0.605C75.903,72.795,76.174,73.065,76.174,73.401"/>
		<path fill="#808184" d="M69.39,75.341h-3.814c-0.86,0-1.559-0.699-1.559-1.558v-3.587c0-0.859,0.698-1.559,1.559-1.559h3.814
			c0.859,0,1.559,0.699,1.559,1.559v3.587C70.949,74.642,70.249,75.341,69.39,75.341 M65.576,69.556
			c-0.354,0-0.643,0.287-0.643,0.641v3.587c0,0.354,0.288,0.641,0.643,0.641h3.814c0.354,0,0.642-0.287,0.642-0.641v-3.587
			c0-0.354-0.289-0.641-0.642-0.641H65.576z"/>
		<rect x="68.021" y="70.494" fill="#808184" width="0.622" height="1.866"/>
		<rect x="66.321" y="70.494" fill="#808184" width="0.622" height="1.866"/>
		<path fill="#808184" d="M68.088,73.401c0,0.335-0.271,0.606-0.605,0.606c-0.333,0-0.605-0.271-0.605-0.606
			c0-0.336,0.271-0.605,0.605-0.605C67.817,72.795,68.088,73.065,68.088,73.401"/>
		<rect x="50.904" y="46.887" fill="#808184" width="4.841" height="1.007"/>
		<rect x="56.954" y="46.887" fill="#808184" width="4.841" height="1.007"/>
		<rect x="63.004" y="46.887" fill="#808184" width="4.838" height="1.007"/>
		<rect x="69.054" y="46.887" fill="#808184" width="4.838" height="1.007"/>
		<rect x="75.102" y="46.887" fill="#808184" width="4.841" height="1.007"/>
		<rect x="81.152" y="46.887" fill="#808184" width="4.841" height="1.007"/>
		<rect x="87.202" y="46.887" fill="#808184" width="4.838" height="1.007"/>
		<path fill="#808184" d="M61.691,64.672c-0.886,0-1.604,0.719-1.604,1.604c0,0.885,0.718,1.603,1.604,1.603
			c0.884,0,1.603-0.718,1.603-1.603C63.293,65.391,62.575,64.672,61.691,64.672 M61.691,67.218c-0.521,0-0.941-0.422-0.941-0.941
			c0-0.521,0.421-0.942,0.941-0.942c0.52,0,0.942,0.422,0.942,0.942C62.633,66.796,62.21,67.218,61.691,67.218"/>
		<path fill="#808184" d="M61.691,66.822c-0.3,0-0.546-0.244-0.546-0.545c0-0.303,0.246-0.546,0.546-0.546
			c0.301,0,0.545,0.243,0.545,0.546C62.236,66.578,61.992,66.822,61.691,66.822"/>
		<rect x="113.19" y="57.613" fill="#808184" width="4.841" height="1.992"/>
		<rect x="135.189" y="57.613" fill="#808184" width="4.84" height="1.992"/>
		<path fill="#F48217" d="M234.135,40.551c-0.893-0.879-1.957-1.589-3.158-2.104c-1.215-0.517-2.521-0.783-3.877-0.783h-23.49
			c-0.457,0-0.826,0.373-0.826,0.83v32.444c0,0.456,0.369,0.828,0.826,0.828h1.299c0.455,0,0.826-0.372,0.826-0.828V57.492H227.1
			c1.361,0,2.668-0.265,3.877-0.779c1.201-0.514,2.266-1.229,3.162-2.125c0.891-0.89,1.605-1.947,2.121-3.147
			c0.521-1.202,0.785-2.513,0.785-3.894c0-1.355-0.264-2.657-0.785-3.864C235.74,42.483,235.027,41.433,234.135,40.551
			 M233.51,50.249c-0.371,0.844-0.877,1.595-1.504,2.233c-0.625,0.635-1.371,1.142-2.219,1.51c-0.842,0.363-1.748,0.544-2.688,0.544
			h-21.365V40.623H227.1c0.936,0,1.84,0.181,2.688,0.547c0.854,0.372,1.604,0.868,2.227,1.483c0.623,0.617,1.125,1.353,1.494,2.201
			c0.371,0.864,0.547,1.744,0.547,2.692C234.055,48.503,233.873,49.414,233.51,50.249"/>
		<path fill="#F48217" d="M275.566,37.665h-32.541c-0.457,0-0.826,0.373-0.826,0.83v32.444c0,0.455,0.369,0.828,0.826,0.828h32.541
			c0.457,0,0.828-0.373,0.828-0.828V69.64c0-0.457-0.371-0.83-0.828-0.83H245.15V56.191h29.768c0.457,0,0.826-0.369,0.826-0.829
			v-1.294c0-0.459-0.369-0.827-0.826-0.827H245.15V40.623h30.416c0.457,0,0.828-0.373,0.828-0.83v-1.298
			C276.395,38.038,276.023,37.665,275.566,37.665"/>
		<path fill="#F48217" d="M314.896,38.072c-0.133-0.302-0.43-0.504-0.762-0.504h-1.754c-0.229,0-0.445,0.098-0.6,0.258
			l-14.094,14.879l-14.096-14.879c-0.158-0.161-0.375-0.258-0.604-0.258h-1.748c-0.332,0-0.633,0.202-0.762,0.504
			c-0.133,0.306-0.068,0.653,0.162,0.895l15.029,15.846l-14.771,15.553c-0.229,0.242-0.291,0.593-0.16,0.897
			c0.129,0.303,0.428,0.504,0.76,0.504h1.75c0.225,0,0.445-0.096,0.6-0.258l13.84-14.55l13.801,14.55
			c0.158,0.162,0.375,0.258,0.602,0.258h1.787c0.33,0,0.629-0.201,0.76-0.504c0.131-0.305,0.066-0.655-0.16-0.897l-14.773-15.553
			l15.031-15.846C314.963,38.725,315.025,38.378,314.896,38.072"/>
		<path fill="#F48217" d="M183.699,38.099c-0.141-0.285-0.43-0.466-0.746-0.466h-1.299c-0.32,0-0.611,0.188-0.748,0.477
			l-15.377,32.473c-0.121,0.259-0.102,0.558,0.047,0.797c0.154,0.238,0.418,0.388,0.703,0.388h1.457c0.32,0,0.613-0.188,0.748-0.473
			l1.01-2.123l12.818-27.073l13.166,27.073l1.037,2.129c0.139,0.286,0.426,0.467,0.746,0.467h1.459h0.039
			c0.459,0,0.832-0.372,0.832-0.828c0-0.219-0.088-0.42-0.229-0.569L183.699,38.099z"/>
	</g>
</g>
</svg>
