<?xml version="1.0" encoding="utf-8"?>
<!-- Generator: Adobe Illustrator 24.1.1, SVG Export Plug-In . SVG Version: 6.00 Build 0)  -->
<svg version="1.1" id="Layer_1" xmlns="http://www.w3.org/2000/svg" xmlns:xlink="http://www.w3.org/1999/xlink" x="0px" y="0px"
	 viewBox="0 0 41.71 62.84" style="enable-background:new 0 0 41.71 62.84;" xml:space="preserve">
<style type="text/css">
	.st0{fill:none;stroke:#22ADF6;stroke-width:2;stroke-linecap:round;stroke-linejoin:round;stroke-miterlimit:10;}
</style>
<path class="st0" d="M30.37,1.01l10.34,10.35 M40.71,45.3V11.36 M30.37,1.01L3,1C1.9,1,1,1.9,1,3v10.17v37.19c0,1.1,0.9,2,2,2h32.54
	 M30.37,1.01v8.34c0,1.1,0.9,2,2,2h8.34 M8.21,9.96h12.07 M8.21,17.88H33.5 M8.21,25.8H33.5 M40.65,52.36
	c0,1.41-1.14,2.55-2.55,2.55s-2.55-1.14-2.55-2.55c0-1.41,1.14-2.55,2.55-2.55S40.65,50.95,40.65,52.36z M29.2,45.3
	c0,1.41-1.14,2.55-2.55,2.55c-1.41,0-2.55-1.14-2.55-2.55c0-1.41,1.14-2.55,2.55-2.55C28.06,42.74,29.2,43.89,29.2,45.3z
	 M32.92,59.28c0,1.41-1.14,2.55-2.55,2.55c-1.41,0-2.55-1.14-2.55-2.55s1.14-2.55,2.55-2.55C31.78,56.73,32.92,57.87,32.92,59.28z
	 M27.82,59.28h-2.73l-6.66-6.92 M14.49,52.36l7.04-7.06h2.56"/>
</svg>
