<?xml version="1.0" encoding="utf-8"?>
<!-- Generator: Adobe Illustrator 24.2.0, SVG Export Plug-In . SVG Version: 6.00 Build 0)  -->
<svg version="1.1" id="Layer_1" xmlns="http://www.w3.org/2000/svg" xmlns:xlink="http://www.w3.org/1999/xlink" x="0px" y="0px"
	 viewBox="0 0 150 150" style="enable-background:new 0 0 150 150;" xml:space="preserve">
<style type="text/css">
	.st0{fill:#689F63;}
	.st1{fill:#FFFFFF;}
	.st2{clip-path:url(#SVGID_2_);fill:url(#SVGID_3_);}
	.st3{clip-path:url(#SVGID_5_);fill:url(#SVGID_6_);}
	.st4{clip-path:url(#SVGID_8_);fill:url(#SVGID_9_);}
</style>
<g>
	<path class="st0" d="M74.4,111.3c-0.4,0-0.7-0.1-1.1-0.3l-3.4-2c-0.5-0.3-0.3-0.4-0.1-0.4c0.7-0.2,0.8-0.3,1.5-0.7
		c0.1,0,0.2,0,0.3,0l2.6,1.5c0.1,0.1,0.2,0.1,0.3,0l10.1-5.8c0.1-0.1,0.2-0.2,0.2-0.3V91.7c0-0.1-0.1-0.2-0.2-0.3l-10.1-5.8
		c-0.1-0.1-0.2-0.1-0.3,0l-10.1,5.8c-0.1,0.1-0.2,0.2-0.2,0.3v11.7c0,0.1,0.1,0.2,0.2,0.3l2.8,1.6c1.5,0.8,2.4-0.1,2.4-1V92.6
		c0-0.2,0.1-0.3,0.3-0.3h1.3c0.2,0,0.3,0.1,0.3,0.3v11.5c0,2-1.1,3.2-3,3.2c-0.6,0-1,0-2.3-0.6l-2.7-1.5c-0.7-0.4-1.1-1.1-1.1-1.8
		V91.7c0-0.8,0.4-1.5,1.1-1.8L73.3,84c0.6-0.4,1.5-0.4,2.1,0l10.1,5.8c0.7,0.4,1.1,1.1,1.1,1.8v11.7c0,0.8-0.4,1.5-1.1,1.8L75.4,111
		C75.1,111.2,74.7,111.3,74.4,111.3"/>
	<path class="st0" d="M77.5,103.3c-4.4,0-5.4-2-5.4-3.7c0-0.2,0.1-0.3,0.3-0.3h1.3c0.1,0,0.3,0.1,0.3,0.2c0.2,1.3,0.8,2,3.5,2
		c2.1,0,3-0.5,3-1.6c0-0.7-0.3-1.1-3.6-1.5c-2.8-0.3-4.5-0.9-4.5-3.1c0-2,1.7-3.3,4.6-3.3c3.2,0,4.8,1.1,5,3.5c0,0.1,0,0.2-0.1,0.2
		c-0.1,0.1-0.1,0.1-0.2,0.1h-1.3c-0.1,0-0.3-0.1-0.3-0.2c-0.3-1.4-1.1-1.8-3.2-1.8c-2.3,0-2.6,0.8-2.6,1.4c0,0.7,0.3,1,3.5,1.4
		c3.1,0.4,4.6,1,4.6,3.2C82.5,102,80.7,103.3,77.5,103.3 M89.8,90.9h0.3c0.3,0,0.3-0.2,0.3-0.3c0-0.3-0.2-0.3-0.3-0.3h-0.3
		L89.8,90.9z M89.4,89.9h0.8c0.3,0,0.8,0,0.8,0.6c0,0.4-0.3,0.5-0.4,0.5c0.3,0,0.3,0.2,0.4,0.5c0,0.2,0.1,0.5,0.1,0.6h-0.5
		c0-0.1-0.1-0.7-0.1-0.7c0-0.1-0.1-0.2-0.2-0.2h-0.4v0.9h-0.4V89.9z M88.5,91c0,0.9,0.7,1.6,1.6,1.6c0.9,0,1.6-0.7,1.6-1.6
		c0-0.9-0.7-1.6-1.6-1.6C89.2,89.4,88.5,90.1,88.5,91 M92.1,91c0,1.1-0.9,1.9-1.9,1.9c-1.1,0-1.9-0.9-1.9-1.9c0-1.1,0.9-1.9,1.9-1.9
		C91.2,89.1,92.1,89.9,92.1,91"/>
	<path class="st1" d="M43,65.6c0-0.5-0.2-0.9-0.6-1.1l-10.7-6.2c-0.2-0.1-0.4-0.2-0.6-0.2H31c-0.2,0-0.4,0.1-0.6,0.2l-10.7,6.2
		c-0.4,0.2-0.6,0.7-0.6,1.1l0,16.6c0,0.2,0.1,0.4,0.3,0.6c0.2,0.1,0.4,0.1,0.6,0l6.4-3.7c0.4-0.2,0.6-0.7,0.6-1.1v-7.8
		c0-0.5,0.2-0.9,0.6-1.1l2.7-1.6c0.2-0.1,0.4-0.2,0.6-0.2c0.2,0,0.4,0.1,0.6,0.2l2.7,1.6c0.4,0.2,0.6,0.7,0.6,1.1V78
		c0,0.5,0.2,0.9,0.6,1.1l6.4,3.6c0.2,0.1,0.4,0.1,0.6,0c0.2-0.1,0.3-0.3,0.3-0.6L43,65.6z M93.6,74.3c0,0.1-0.1,0.2-0.2,0.3
		l-3.7,2.1c-0.1,0.1-0.2,0.1-0.3,0l-3.7-2.1c-0.1-0.1-0.2-0.2-0.2-0.3V70c0-0.1,0.1-0.2,0.2-0.3l3.7-2.1c0.1-0.1,0.2-0.1,0.3,0
		l3.7,2.1c0.1,0.1,0.2,0.2,0.2,0.3L93.6,74.3z M94.6,42.8c-0.2-0.1-0.4-0.1-0.6,0c-0.2,0.1-0.3,0.3-0.3,0.6v16.5
		c0,0.2-0.1,0.3-0.2,0.4c-0.1,0.1-0.3,0.1-0.5,0l-2.7-1.5c-0.4-0.2-0.9-0.2-1.3,0l-10.7,6.2c-0.4,0.2-0.6,0.7-0.6,1.1v12.4
		c0,0.5,0.2,0.9,0.6,1.1L89,85.7c0.4,0.2,0.9,0.2,1.3,0l10.7-6.2c0.4-0.2,0.6-0.7,0.6-1.1V47.5c0-0.5-0.3-0.9-0.7-1.1L94.6,42.8z
		 M130.4,69.9c0.4-0.2,0.6-0.7,0.6-1.1v-3c0-0.5-0.2-0.9-0.6-1.1l-10.7-6.2c-0.4-0.2-0.9-0.2-1.3,0l-10.7,6.2
		c-0.4,0.2-0.6,0.7-0.6,1.1v12.4c0,0.5,0.3,0.9,0.7,1.1l10.7,6.1c0.4,0.2,0.9,0.2,1.3,0l6.4-3.6c0.2-0.1,0.3-0.3,0.3-0.6
		c0-0.2-0.1-0.5-0.3-0.6l-10.8-6.2c-0.2-0.1-0.3-0.3-0.3-0.6V70c0-0.2,0.1-0.4,0.3-0.6l3.4-1.9c0.2-0.1,0.4-0.1,0.6,0l3.4,1.9
		c0.2,0.1,0.3,0.3,0.3,0.6v3.1c0,0.2,0.1,0.4,0.3,0.6c0.2,0.1,0.4,0.1,0.6,0L130.4,69.9z"/>
	<path class="st0" d="M118.9,69.3c0.1,0,0.2,0,0.2,0l2.1,1.2c0.1,0,0.1,0.1,0.1,0.2v2.4c0,0.1,0,0.2-0.1,0.2l-2.1,1.2
		c-0.1,0-0.2,0-0.2,0l-2.1-1.2c-0.1,0-0.1-0.1-0.1-0.2v-2.4c0-0.1,0-0.2,0.1-0.2L118.9,69.3z"/>
	<g>
		<defs>
			<path id="SVGID_1_" d="M59.7,58.5L49,64.7c-0.4,0.2-0.6,0.7-0.6,1.1v12.3c0,0.5,0.2,0.9,0.6,1.1l10.7,6.2c0.4,0.2,0.9,0.2,1.3,0
				l10.7-6.2c0.4-0.2,0.6-0.7,0.6-1.1V65.8c0-0.5-0.2-0.9-0.6-1.1L61,58.5c-0.2-0.1-0.4-0.2-0.6-0.2C60.1,58.4,59.9,58.4,59.7,58.5"
				/>
		</defs>
		<clipPath id="SVGID_2_">
			<use xlink:href="#SVGID_1_"  style="overflow:visible;"/>
		</clipPath>
		
			<linearGradient id="SVGID_3_" gradientUnits="userSpaceOnUse" x1="-174.4227" y1="-175.24" x2="-174.2328" y2="-175.24" gradientTransform="matrix(-81.162 165.5699 -165.5699 -81.162 -43102.9219 14712.6064)">
			<stop  offset="0" style="stop-color:#3E863D"/>
			<stop  offset="0.3" style="stop-color:#3E863D"/>
			<stop  offset="0.5" style="stop-color:#55934F"/>
			<stop  offset="0.8" style="stop-color:#5AAD45"/>
			<stop  offset="1" style="stop-color:#5AAD45"/>
		</linearGradient>
		<polygon class="st2" points="83.1,63.7 53,48.9 37.6,80.4 67.7,95.1 		"/>
	</g>
	<g>
		<defs>
			<path id="SVGID_4_" d="M48.6,78.9c0.1,0.1,0.2,0.2,0.4,0.3l9.1,5.3l1.5,0.9c0.2,0.1,0.5,0.2,0.7,0.2c0.1,0,0.2,0,0.3,0l11.2-20.6
				c-0.1-0.1-0.2-0.2-0.3-0.2l-7-4L61,58.5c-0.1-0.1-0.2-0.1-0.3-0.1L48.6,78.9z"/>
		</defs>
		<clipPath id="SVGID_5_">
			<use xlink:href="#SVGID_4_"  style="overflow:visible;"/>
		</clipPath>
		
			<linearGradient id="SVGID_6_" gradientUnits="userSpaceOnUse" x1="-174.6328" y1="-174.7015" x2="-174.4429" y2="-174.7015" gradientTransform="matrix(147.809 -109.2133 109.2133 147.809 44938.2852 6832.604)">
			<stop  offset="0" style="stop-color:#3E863D"/>
			<stop  offset="0.57" style="stop-color:#3E863D"/>
			<stop  offset="0.72" style="stop-color:#619857"/>
			<stop  offset="1" style="stop-color:#76AC64"/>
		</linearGradient>
		<polygon class="st3" points="35.7,68 56.9,96.7 84.9,76 63.7,47.3 		"/>
	</g>
	<g>
		<defs>
			<path id="SVGID_7_" d="M60.2,58.4c-0.2,0-0.4,0.1-0.5,0.2l-10.6,6.1l11.5,20.9c0.2,0,0.3-0.1,0.5-0.2l10.7-6.2
				c0.3-0.2,0.6-0.5,0.6-0.9l-11.7-20c-0.1,0-0.2,0-0.3,0C60.3,58.4,60.2,58.4,60.2,58.4"/>
		</defs>
		<clipPath id="SVGID_8_">
			<use xlink:href="#SVGID_7_"  style="overflow:visible;"/>
		</clipPath>
		
			<linearGradient id="SVGID_9_" gradientUnits="userSpaceOnUse" x1="-174.3905" y1="-174.6072" x2="-174.2006" y2="-174.6072" gradientTransform="matrix(122.2438 0 0 122.2438 21367.2109 21416.627)">
			<stop  offset="0" style="stop-color:#6BBF47"/>
			<stop  offset="0.16" style="stop-color:#6BBF47"/>
			<stop  offset="0.38" style="stop-color:#79B461"/>
			<stop  offset="0.47" style="stop-color:#75AC64"/>
			<stop  offset="0.7" style="stop-color:#659E5A"/>
			<stop  offset="0.9" style="stop-color:#3E863D"/>
			<stop  offset="1" style="stop-color:#3E863D"/>
		</linearGradient>
		<rect x="49.1" y="58.4" class="st4" width="23.2" height="27.2"/>
	</g>
</g>
</svg>
