<?xml version="1.0" encoding="UTF-8" standalone="no"?>
<!DOCTYPE svg PUBLIC "-//W3C//DTD SVG 1.1//EN" "http://www.w3.org/Graphics/SVG/1.1/DTD/svg11.dtd">
<svg width="461px" height="165px" version="1.1" xmlns="http://www.w3.org/2000/svg" xmlns:xlink="http://www.w3.org/1999/xlink" xml:space="preserve" xmlns:serif="http://www.serif.com/" style="fill-rule:evenodd;clip-rule:evenodd;stroke-linejoin:round;stroke-miterlimit:1.41421;">
    <g transform="matrix(1,0,0,1,-80.685,-80.929)">
        <g id="Layer_1">
            <g>
                <path d="M365.25,202.57L323.12,147.33L323.25,152.76L323.25,202.57L307.89,202.57L307.89,121.76L321.89,121.76L363.89,177.27L363.76,173.56L363.76,121.76L379.13,121.76L379.13,202.57L365.25,202.57Z" style="fill:rgb(13,13,39);fill-rule:nonzero;"/>
                <path d="M449.37,139C438.77,134.89 431.22,133.44 423.37,133.44C416.08,133.44 411.71,137.28 411.71,141.65C411.71,149.33 417.14,150.53 432.91,155.82C447.74,160.73 455.82,165.89 455.82,180.07C455.82,195.7 444.3,203.78 428.53,203.78C417.4,203.78 402.53,199.41 392.1,193.45L398.1,181.39C409.23,187.09 419.83,190.27 427.78,190.27C435.06,190.27 439.7,187.22 439.7,181.53C439.7,174.53 435.99,172.25 419.43,167.35C405.65,163.22 396,157.79 396,143C396,129.89 405.94,120.48 422.63,120.48C433.451,120.537 444.144,122.839 454.03,127.24L449.37,139Z" style="fill:rgb(13,13,39);fill-rule:nonzero;"/>
                <path d="M496.8,121.76C525.41,121.76 541.44,136.76 541.44,161.76C541.44,187.33 525.15,202.56 496.8,202.56L470.3,202.56L470.3,121.76L496.8,121.76ZM496.8,188.66C515.61,188.66 525.94,179.25 525.94,161.77C525.94,144.77 515.87,135.67 496.8,135.67L485.67,135.67L485.67,188.67L496.8,188.66Z" style="fill:rgb(13,13,39);fill-rule:nonzero;"/>
            </g>
            <g>
                <path d="M86.156,107.313C82.771,109.267 80.685,112.88 80.685,116.789L80.685,240.485C80.685,242.559 82.129,244.353 84.155,244.797C86.181,245.24 88.243,244.213 89.109,242.328L136.274,139.726L129.307,82.4L86.156,107.313Z" style="fill:rgb(39,61,141);fill-rule:nonzero;"/>
                <path d="M85.1,244.899C84.787,244.899 84.471,244.866 84.155,244.797C82.129,244.353 80.685,242.559 80.685,240.485L80.685,116.789C80.685,112.88 82.771,109.267 86.156,107.313L129.307,82.4L136.274,139.726L89.109,242.328C88.378,243.919 86.795,244.899 85.1,244.899Z" style="fill:url(#_Linear1);"/>
                <path d="M239.843,218.687C243.229,216.732 245.315,213.119 245.315,209.21L245.315,85.515C245.315,83.441 243.871,81.646 241.846,81.203C239.82,80.76 237.757,81.787 236.892,83.672L189.727,186.273L196.694,243.6L239.843,218.687Z" style="fill:rgb(17,150,179);fill-rule:nonzero;"/>
                <path d="M196.694,243.6L189.727,186.273L236.892,83.672C237.623,82.08 239.205,81.1 240.901,81.1C241.214,81.1 241.53,81.134 241.846,81.203C243.871,81.646 245.315,83.441 245.315,85.515L245.315,209.21C245.315,213.119 243.229,216.732 239.843,218.687L196.694,243.6Z" style="fill:url(#_Linear2);"/>
                <path d="M143.296,84.963C139.892,80.795 133.968,79.709 129.307,82.4L86.156,107.312C82.771,109.267 80.685,112.88 80.685,116.789L80.685,116.512C80.685,115.234 81.354,114.05 82.448,113.389C83.541,112.729 84.901,112.689 86.031,113.284L219.069,183.3C219.839,183.705 220.787,183.512 221.338,182.839C221.888,182.165 221.888,181.198 221.338,180.524L143.296,84.963Z" style="fill:rgb(39,61,141);fill-rule:nonzero;"/>
                <path d="M182.705,241.037C186.11,245.205 192.033,246.29 196.694,243.6L239.843,218.687C243.229,216.732 245.315,213.119 245.315,209.21L245.315,209.487C245.315,210.765 244.647,211.95 243.552,212.61C242.46,213.27 241.1,213.31 239.968,212.715L106.932,142.7C106.163,142.295 105.214,142.488 104.664,143.161C104.114,143.834 104.114,144.802 104.663,145.475L182.705,241.037Z" style="fill:rgb(38,192,210);fill-rule:nonzero;"/>
            </g>
        </g>
    </g>
    <defs>
        <linearGradient id="_Linear1" x1="0" y1="0" x2="1" y2="0" gradientUnits="userSpaceOnUse" gradientTransform="matrix(9.95026e-15,-162.5,162.5,9.95026e-15,108.48,244.899)"><stop offset="0" style="stop-color:rgb(27,35,86);stop-opacity:1"/><stop offset="1" style="stop-color:rgb(2,0,33);stop-opacity:1"/></linearGradient>
        <linearGradient id="_Linear2" x1="0" y1="0" x2="1" y2="0" gradientUnits="userSpaceOnUse" gradientTransform="matrix(9.95026e-15,162.5,-162.5,9.95026e-15,217.522,81.1004)"><stop offset="0" style="stop-color:rgb(17,150,179);stop-opacity:1"/><stop offset="0.3" style="stop-color:rgb(21,135,162);stop-opacity:1"/><stop offset="1" style="stop-color:rgb(16,18,52);stop-opacity:1"/></linearGradient>
    </defs>
</svg>
