<?xml version="1.0" encoding="UTF-8"?>
<svg width="512px" height="512px" viewBox="0 0 512 512" version="1.1" xmlns="http://www.w3.org/2000/svg" xmlns:xlink="http://www.w3.org/1999/xlink">
    <!-- Generator: Sketch 47.1 (45422) - http://www.bohemiancoding.com/sketch -->
    <title>Sketch Flat Logo Copy 8</title>
    <desc>Created with Sketch.</desc>
    <defs>
        <linearGradient x1="0%" y1="50%" x2="100%" y2="50%" id="linearGradient-1">
            <stop stop-color="#29C3F3" offset="0%"></stop>
            <stop stop-color="#06A9E8" offset="100%"></stop>
        </linearGradient>
        <path d="M381.131127,270.37056 C379.602294,273.871942 377.394418,277.151851 374.5075,280.01355 C362.2339,292.17984 342.33445,292.17984 330.06085,280.01355 C327.173918,277.151851 324.966031,273.871942 323.437191,270.37056 L280.73491,270.37056 L338.551477,327.681648 C346.459094,323.8747 355.643208,323.549415 363.768966,326.705791 L420.600952,270.37056 L381.131127,270.37056 Z M381.963117,247.71324 L422.73455,247.71324 L364.507257,189.994842 C356.66758,193.400982 347.711593,193.480848 339.819565,190.234442 L281.83378,247.71324 L322.605197,247.71324 C324.11424,243.418792 326.599458,239.386448 330.06085,235.95531 C342.33445,223.78899 362.2339,223.78899 374.5075,235.95531 C377.968876,239.386448 380.454081,243.418792 381.963117,247.71324 Z M127.894291,247.71324 C129.427732,243.869011 131.762756,240.266141 134.89936,237.15696 C147.17296,224.99058 167.07244,224.99058 179.3461,237.15696 C182.482704,240.266141 184.817728,243.869011 186.351169,247.71324 L225.55285,247.71324 L168.426205,191.085937 C161.016841,193.795562 152.784039,193.645227 145.466053,190.634928 L87.8844592,247.71324 L127.894291,247.71324 Z M127.780984,270.37056 L90.0180591,270.37056 L146.627405,326.485069 C154.036738,323.775459 162.269501,323.925784 169.587462,326.936047 L226.65172,270.37056 L186.464476,270.37056 C184.933772,274.322914 182.56098,278.02833 179.3461,281.21511 C167.07244,293.38143 147.17296,293.38143 134.89936,281.21511 C131.68448,278.02833 129.311688,274.322914 127.780984,270.37056 Z M170.711191,133.56816 L244.804,60.123 C250.60606,54.3717 260.01307,54.3717 265.81513,60.123 C293.284075,87.3518836 317.763336,111.617208 339.252913,132.918972 C350.763575,127.917938 364.680761,130.087514 374.1034,139.4277 C383.52602,148.768098 385.714758,162.563648 380.669616,173.9737 C427.809537,220.701616 452.558198,245.233932 454.9156,247.57065 C460.665333,253.269934 460,263 454.647189,268.664245 C452.766638,270.528359 428.071959,295.007187 380.563152,342.10073 C386.252479,353.71255 384.233928,368.101188 374.5075,377.7426 C364.781064,387.384044 350.265551,389.384951 338.551343,383.745323 C317.237682,404.872685 292.992278,428.906166 265.81513,455.845764 C260.01307,461.597122 250.60606,461.597122 244.804,455.845764 L171.799213,383.479141 C159.993953,389.444809 145.179809,387.532629 135.30343,377.7426 C125.4271,367.952596 123.498063,353.267912 129.516319,341.565858 L55.703413,268.39818 C50.0022046,262.746835 50.009874,253.214452 55.703413,247.57065 L128.987997,174.92665 C123.623083,163.412139 125.728227,149.319915 135.30343,139.8285 C144.87867,130.33686 159.095154,128.25008 170.711191,133.56816 Z M186.557992,149.902146 C190.064653,158.278314 189.724401,167.86363 185.537237,176.005212 L253.6933,243.56541 L323.341404,174.526216 C319.5738,166.440102 319.490183,157.082708 323.090555,148.940113 L255.30955,81.7515 L186.557992,149.902146 Z M323.020655,367.097934 C320.133919,359.795723 320.133922,351.631276 323.020662,344.329066 L253.6933,275.60769 L186.065578,342.64428 C189.571566,350.169 189.887371,358.794592 187.012995,366.517636 L255.30955,434.217195 L323.020655,367.097934 Z M341.77861,171.47013 C347.35753,177.00033 356.4028,177.00033 361.9816,171.47013 C367.5607,165.93999 367.5607,156.9738 361.9816,151.4436 C356.4028,145.9137 347.35753,145.9137 341.77861,151.4436 C336.19972,156.9738 336.19972,165.93999 341.77861,171.47013 Z M147.42526,365.72673 C153.00418,371.25687 162.04936,371.25687 167.62834,365.72673 C173.20726,360.19656 173.20726,351.23043 167.62834,345.70029 C162.04936,340.17015 153.00418,340.17015 147.42526,345.70029 C141.84634,351.23043 141.84634,360.19656 147.42526,365.72673 Z M342.18268,365.72673 C347.7616,371.25687 356.8069,371.25687 362.3857,365.72673 C367.9645,360.19656 367.9645,351.23043 362.3857,345.70029 C356.8069,340.17015 347.7616,340.17015 342.18268,345.70029 C336.60376,351.23043 336.60376,360.19656 342.18268,365.72673 Z M147.42526,171.87066 C153.00418,177.40086 162.04936,177.40086 167.62834,171.87066 C173.20726,166.34052 173.20726,157.3743 167.62834,151.8441 C162.04936,146.3142 153.00418,146.3142 147.42526,151.8441 C141.84634,157.3743 141.84634,166.34052 147.42526,171.87066 Z M147.02119,269.19924 C152.60011,274.72938 161.64532,274.72938 167.22421,269.19924 C172.80319,263.6691 172.80319,254.70297 167.22421,249.17283 C161.64532,243.64266 152.60011,243.64266 147.02119,249.17283 C141.44227,254.70297 141.44227,263.6691 147.02119,269.19924 Z M342.18268,267.99768 C347.7616,273.52782 356.8069,273.52782 362.3857,267.99768 C367.9645,262.46751 367.9645,253.50132 362.3857,247.97118 C356.8069,242.44104 347.7616,242.44104 342.18268,247.97118 C336.60376,253.50132 336.60376,262.46751 342.18268,267.99768 Z" id="path-2"></path>
    </defs>
    <g id="Page-1" stroke="none" stroke-width="1" fill="none" fill-rule="evenodd">
        <g id="Sketch-Flat-Logo-Copy-8">
            <mask id="mask-3" fill="white">
                <use xlink:href="#path-2"></use>
            </mask>
            <use id="Clip-2" fill="url(#linearGradient-1)" xlink:href="#path-2"></use>
        </g>
    </g>
</svg>