<?xml version="1.0" encoding="utf-8"?>
<!-- Generator: Adobe Illustrator 24.2.0, SVG Export Plug-In . SVG Version: 6.00 Build 0)  -->
<svg version="1.1" id="Layer_1" xmlns="http://www.w3.org/2000/svg" xmlns:xlink="http://www.w3.org/1999/xlink" x="0px" y="0px"
	 viewBox="0 0 200 156" style="enable-background:new 0 0 200 156;" xml:space="preserve">
<style type="text/css">
	.st0{fill-rule:evenodd;clip-rule:evenodd;fill:#FFFFFF;}
	.st1{fill-rule:evenodd;clip-rule:evenodd;fill:#76B900;}
</style>
<g>
	<path class="st0" d="M83.2,117.7l0,37.4h10.6v-37.4L83.2,117.7L83.2,117.7z M0,117.6v37.5h10.7v-28.5l8.3,0c2.7,0,4.7,0.7,6,2.1
		c1.7,1.8,2.4,4.7,2.4,9.9v16.5h10.3v-20.7c0-14.8-9.4-16.8-18.6-16.8L0,117.6L0,117.6z M100.2,117.7v37.4h17.1
		c9.1,0,12.1-1.5,15.3-4.9c2.3-2.4,3.8-7.6,3.8-13.4c0-5.3-1.2-10-3.4-12.9c-3.9-5.2-9.6-6.2-18-6.2L100.2,117.7L100.2,117.7z
		 M110.7,125.8h4.5c6.6,0,10.9,3,10.9,10.6c0,7.7-4.3,10.6-10.9,10.6h-4.5V125.8L110.7,125.8z M67.9,117.7l-8.8,29.7l-8.5-29.7
		l-11.4,0l12.1,37.4h15.2l12.2-37.4L67.9,117.7L67.9,117.7z M141.4,155.1h10.6v-37.4l-10.6,0L141.4,155.1z M171,117.7l-14.8,37.4
		h10.4l2.3-6.6h17.5l2.2,6.6H200l-14.9-37.4L171,117.7L171,117.7z M177.9,124.5l6.4,17.5h-13L177.9,124.5L177.9,124.5z"/>
	<path class="st1" d="M69.2,30v-9c0.9-0.1,1.8-0.1,2.7-0.1C96.4,20.1,112.6,42,112.6,42S95.1,66.2,76.5,66.2c-2.7,0-5.1-0.4-7.3-1.2
		V37.8c9.6,1.2,11.5,5.4,17.3,15L99.2,42c0,0-9.3-12.3-25.1-12.3C72.4,29.7,70.8,29.8,69.2,30z M69.2,0.3v13.4
		c0.9-0.1,1.8-0.1,2.7-0.2c34.2-1.2,56.5,28.1,56.5,28.1s-25.6,31.1-52.3,31.1c-2.4,0-4.7-0.2-6.9-0.6v8.3c1.8,0.2,3.7,0.4,5.7,0.4
		c24.8,0,42.8-12.7,60.1-27.7c2.9,2.3,14.7,7.9,17.1,10.4c-16.5,13.8-55,25-76.9,25c-2,0-4.1-0.1-6.1-0.3v11.7h94.3V0.3L69.2,0.3
		L69.2,0.3z M69.2,65v7.1c-23-4.1-29.3-28-29.3-28S50.9,32,69.2,30v7.8c0,0,0,0,0,0C59.5,36.6,52,45.6,52,45.6S56.2,60.7,69.2,65z
		 M28.4,43.1c0,0,13.6-20.1,40.8-22.1v-7.3c-30.1,2.4-56.1,27.9-56.1,27.9s14.8,42.7,56.1,46.6v-7.7C38.8,76.6,28.4,43.1,28.4,43.1z
		"/>
</g>
</svg>
