<svg xmlns="http://www.w3.org/2000/svg" xmlns:xlink="http://www.w3.org/1999/xlink" width="599.9" height="116.2" viewBox="0 0 599.9 116.2">
  <defs>
    <style>
      .cls-1 {
        fill: none;
      }

      .cls-2 {
        clip-path: url(#clip-path);
      }

      .cls-3 {
        fill: url(#linear-gradient);
      }

      .cls-4 {
        clip-path: url(#clip-path-2);
      }

      .cls-5 {
        fill: url(#linear-gradient-2);
      }

      .cls-6 {
        clip-path: url(#clip-path-3);
      }

      .cls-7 {
        fill: url(#linear-gradient-3);
      }

      .cls-8 {
        clip-path: url(#clip-path-4);
      }

      .cls-9 {
        fill: url(#linear-gradient-4);
      }

      .cls-10 {
        clip-path: url(#clip-path-5);
      }

      .cls-11 {
        fill: url(#linear-gradient-5);
      }

      .cls-12 {
        clip-path: url(#clip-path-6);
      }

      .cls-13 {
        fill: url(#linear-gradient-6);
      }

      .cls-14 {
        clip-path: url(#clip-path-7);
      }

      .cls-15 {
        fill: url(#linear-gradient-7);
      }

      .cls-16 {
        clip-path: url(#clip-path-8);
      }

      .cls-17 {
        fill: url(#linear-gradient-8);
      }

      .cls-18 {
        clip-path: url(#clip-path-9);
      }

      .cls-19 {
        fill: url(#linear-gradient-9);
      }

      .cls-20 {
        clip-path: url(#clip-path-10);
      }

      .cls-21 {
        fill: url(#linear-gradient-10);
      }

      .cls-22 {
        clip-path: url(#clip-path-11);
      }

      .cls-23 {
        fill: url(#linear-gradient-11);
      }

      .cls-24 {
        clip-path: url(#clip-path-12);
      }

      .cls-25 {
        fill: url(#linear-gradient-12);
      }

      .cls-26 {
        clip-path: url(#clip-path-13);
      }

      .cls-27 {
        fill: url(#linear-gradient-13);
      }

      .cls-28 {
        clip-path: url(#clip-path-14);
      }

      .cls-29 {
        fill: url(#linear-gradient-14);
      }

      .cls-30 {
        clip-path: url(#clip-path-15);
      }

      .cls-31 {
        fill: url(#linear-gradient-15);
      }

      .cls-32 {
        clip-path: url(#clip-path-16);
      }

      .cls-33 {
        fill: url(#linear-gradient-16);
      }

      .cls-34 {
        clip-path: url(#clip-path-17);
      }

      .cls-35 {
        fill: url(#linear-gradient-17);
      }

      .cls-36 {
        clip-path: url(#clip-path-18);
      }

      .cls-37 {
        fill: url(#linear-gradient-18);
      }

      .cls-38 {
        clip-path: url(#clip-path-19);
      }

      .cls-39 {
        fill: url(#linear-gradient-19);
      }

      .cls-40 {
        clip-path: url(#clip-path-20);
      }

      .cls-41 {
        fill: url(#linear-gradient-20);
      }
    </style>
    <clipPath id="clip-path" transform="translate(0 5.15)">
      <rect class="cls-1" x="14.1" y="11.2" width="8.8" height="8.8" transform="translate(-5.61 17.66) rotate(-45.02)"/>
    </clipPath>
    <linearGradient id="linear-gradient" x1="-488.43" y1="359" x2="-485.6" y2="359" gradientTransform="translate(2284.84 363.43) rotate(45) scale(3.79)" gradientUnits="userSpaceOnUse">
      <stop offset="0"/>
      <stop offset="0.04" stop-color="#000509"/>
      <stop offset="0.28" stop-color="#002541"/>
      <stop offset="0.51" stop-color="#003d6e"/>
      <stop offset="0.71" stop-color="#004f8e"/>
      <stop offset="0.88" stop-color="#005aa1"/>
      <stop offset="1" stop-color="#005ea8"/>
    </linearGradient>
    <clipPath id="clip-path-2" transform="translate(0 5.15)">
      <rect class="cls-1" x="38.38" y="14.09" width="8.8" height="8.8" transform="translate(-0.55 35.65) rotate(-44.98)"/>
    </clipPath>
    <linearGradient id="linear-gradient-2" x1="-485.11" y1="356.41" x2="-482.28" y2="356.41" gradientTransform="translate(2293.06 364.31) rotate(45) scale(3.79)" xlink:href="#linear-gradient"/>
    <clipPath id="clip-path-3" transform="translate(0 5.15)">
      <rect class="cls-1" x="29.82" y="31.07" width="8.8" height="8.8" transform="translate(-15.06 34.57) rotate(-44.98)"/>
    </clipPath>
    <linearGradient id="linear-gradient-3" x1="-484.14" y1="359.49" x2="-481.3" y2="359.49" gradientTransform="translate(2290.42 370.42) rotate(45) scale(3.79)" xlink:href="#linear-gradient"/>
    <clipPath id="clip-path-4" transform="translate(0 5.15)">
      <rect class="cls-1" x="63.71" y="67.93" width="8.8" height="8.8" transform="translate(-31.19 69.35) rotate(-45)"/>
    </clipPath>
    <linearGradient id="linear-gradient-4" x1="-475.62" y1="359.85" x2="-472.79" y2="359.85" gradientTransform="translate(2302.78 383.59) rotate(45) scale(3.79)" xlink:href="#linear-gradient"/>
    <clipPath id="clip-path-5" transform="translate(0 5.15)">
      <rect class="cls-1" x="28.69" y="47.63" width="8.8" height="8.8" transform="translate(-27.1 38.64) rotate(-45)"/>
    </clipPath>
    <linearGradient id="linear-gradient-5" x1="-482.32" y1="361.62" x2="-479.49" y2="361.62" gradientTransform="translate(2290.82 376.57) rotate(45) scale(3.79)" xlink:href="#linear-gradient"/>
    <clipPath id="clip-path-6" transform="translate(0 5.15)">
      <rect class="cls-1" x="43.92" y="37.62" width="8.8" height="8.8" transform="translate(-15.56 46.47) rotate(-45)"/>
    </clipPath>
    <linearGradient id="linear-gradient-6" x1="-481.64" y1="358.58" x2="-478.81" y2="358.58" gradientTransform="translate(2295.38 372.75) rotate(45) scale(3.79)" xlink:href="#linear-gradient"/>
    <clipPath id="clip-path-7" transform="translate(0 5.15)">
      <rect class="cls-1" x="61.09" y="21.26" width="8.8" height="8.8" transform="translate(1.05 53.85) rotate(-45.02)"/>
    </clipPath>
    <linearGradient id="linear-gradient-7" x1="-481.57" y1="354.53" x2="-478.73" y2="354.53" gradientTransform="translate(2301.87 367.11) rotate(45) scale(3.79)" xlink:href="#linear-gradient"/>
    <clipPath id="clip-path-8" transform="translate(0 5.15)">
      <rect class="cls-1" x="75.83" y="75.56" width="16.3" height="16.3" transform="translate(-34.6 83.92) rotate(-45.01)"/>
    </clipPath>
    <linearGradient id="linear-gradient-8" x1="-565.39" y1="349.67" x2="-562.56" y2="349.67" gradientTransform="translate(4621.62 1153.33) rotate(45) scale(7.02)" xlink:href="#linear-gradient"/>
    <clipPath id="clip-path-9" transform="translate(0 5.15)">
      <rect class="cls-1" x="47.04" y="54.75" width="11.9" height="11.9" transform="translate(-27.4 55.22) rotate(-44.98)"/>
    </clipPath>
    <linearGradient id="linear-gradient-9" x1="-529.88" y1="354.57" x2="-527.04" y2="354.57" gradientTransform="translate(3253.35 695.82) rotate(45) scale(5.13)" xlink:href="#linear-gradient"/>
    <clipPath id="clip-path-10" transform="translate(0 5.15)">
      <rect class="cls-1" x="91.51" y="16.34" width="12.5" height="12.5" transform="translate(12.66 75.74) rotate(-45)"/>
    </clipPath>
    <linearGradient id="linear-gradient-10" x1="-536.73" y1="346.7" x2="-533.9" y2="346.7" gradientTransform="translate(3470.75 749.34) rotate(45) scale(5.41)" xlink:href="#linear-gradient"/>
    <clipPath id="clip-path-11" transform="translate(0 5.15)">
      <rect class="cls-1" x="79.09" y="30.71" width="12.5" height="12.5" transform="translate(-1.13 71.19) rotate(-45.02)"/>
    </clipPath>
    <linearGradient id="linear-gradient-11" x1="-536.58" y1="348.97" x2="-533.75" y2="348.97" gradientTransform="translate(3467.03 754.58) rotate(45) scale(5.41)" xlink:href="#linear-gradient"/>
    <clipPath id="clip-path-12" transform="translate(0 5.15)">
      <polygon class="cls-1" points="112.4 28.65 121.3 37.45 130.1 28.65 121.3 19.75 112.4 28.65"/>
    </clipPath>
    <linearGradient id="linear-gradient-12" x1="-540.12" y1="344.95" x2="-537.29" y2="344.95" gradientTransform="translate(3646.36 806.7) rotate(45) scale(5.64)" xlink:href="#linear-gradient"/>
    <clipPath id="clip-path-13" transform="translate(0 5.15)">
      <rect class="cls-1" x="22.47" y="1.53" width="7.4" height="7.4" transform="translate(3.97 20.04) rotate(-45)"/>
    </clipPath>
    <linearGradient id="linear-gradient-13" x1="-452.77" y1="360.36" x2="-449.94" y2="360.36" gradientTransform="translate(1850.19 215.16) rotate(45) scale(3.18)" xlink:href="#linear-gradient"/>
    <clipPath id="clip-path-14" transform="translate(0 5.15)">
      <path class="cls-1" d="M67,56.85a1.77,1.77,0,0,1,1.7-1.8,1.79,1.79,0,0,1,1.8,1.8,1.71,1.71,0,0,1-1.8,1.7,1.69,1.69,0,0,1-1.7-1.7m0-6.6a1.69,1.69,0,0,1,1.7-1.7,1.77,1.77,0,0,1,1.8,1.7,1.79,1.79,0,0,1-1.8,1.8,1.71,1.71,0,0,1-1.7-1.8m-8.3,3.9,11.5,11.5,11.5-11.5L70.2,42.65Z"/>
    </clipPath>
    <linearGradient id="linear-gradient-14" x1="-583.29" y1="347.13" x2="-580.46" y2="347.13" gradientTransform="translate(5443.71 1417.12) rotate(45) scale(8.18)" xlink:href="#linear-gradient"/>
    <clipPath id="clip-path-15" transform="translate(0 5.15)">
      <path class="cls-1" d="M87.6,63.05a1.77,1.77,0,0,1,1.7-1.8,1.79,1.79,0,0,1,1.8,1.8,1.71,1.71,0,0,1-1.8,1.7,1.75,1.75,0,0,1-1.7-1.7m0-6.6a1.69,1.69,0,0,1,1.7-1.7,1.77,1.77,0,0,1,1.8,1.7,1.79,1.79,0,0,1-1.8,1.8,1.77,1.77,0,0,1-1.7-1.8m-8.2,4.4,11.5,11.5,11.5-11.5L90.9,49.35Z"/>
    </clipPath>
    <linearGradient id="linear-gradient-15" x1="-581.76" y1="346.34" x2="-578.93" y2="346.34" gradientTransform="translate(5451.39 1419.67) rotate(45) scale(8.18)" xlink:href="#linear-gradient"/>
    <clipPath id="clip-path-16" transform="translate(0 5.15)">
      <path class="cls-1" d="M104.8,48.55a1.77,1.77,0,0,1,1.7-1.8,1.79,1.79,0,0,1,1.8,1.8,1.71,1.71,0,0,1-1.8,1.7,1.63,1.63,0,0,1-1.7-1.7m0-6.5a1.69,1.69,0,0,1,1.7-1.7,1.77,1.77,0,0,1,1.8,1.7,1.79,1.79,0,0,1-1.8,1.8,1.84,1.84,0,0,1-1.7-1.8m-11.7.3,11.5,11.5,11.5-11.5-11.5-11.6Z"/>
    </clipPath>
    <linearGradient id="linear-gradient-16" x1="-582.01" y1="344.53" x2="-579.18" y2="344.53" gradientTransform="translate(5455.3 1412.84) rotate(45) scale(8.18)" xlink:href="#linear-gradient"/>
    <clipPath id="clip-path-17" transform="translate(0 5.15)">
      <path class="cls-1" d="M98.8,82.25a1.77,1.77,0,0,1,1.7-1.8,1.79,1.79,0,0,1,1.8,1.8,1.71,1.71,0,0,1-1.8,1.7,1.69,1.69,0,0,1-1.7-1.7m0-6.6a1.69,1.69,0,0,1,1.7-1.7,1.77,1.77,0,0,1,1.8,1.7,1.79,1.79,0,0,1-1.8,1.8,1.71,1.71,0,0,1-1.7-1.8M90,81.05l11.5,11.5L113,81.05l-11.5-11.5Z"/>
    </clipPath>
    <linearGradient id="linear-gradient-17" x1="-580.04" y1="346.87" x2="-577.2" y2="346.87" gradientTransform="translate(5455.14 1426.8) rotate(45) scale(8.18)" xlink:href="#linear-gradient"/>
    <clipPath id="clip-path-18" transform="translate(0 5.15)">
      <path class="cls-1" d="M115,64.35a1.77,1.77,0,0,1,1.7-1.8,1.79,1.79,0,0,1,1.8,1.8,1.71,1.71,0,0,1-1.8,1.7,1.63,1.63,0,0,1-1.7-1.7m-12.1,2.4,11.5,11.5,11.5-11.5-7.3-7.3-3.6.3-.6-4.6Z"/>
    </clipPath>
    <linearGradient id="linear-gradient-18" x1="-580.09" y1="345.35" x2="-577.26" y2="345.35" gradientTransform="translate(5458.37 1421.33) rotate(45) scale(8.18)" xlink:href="#linear-gradient"/>
    <clipPath id="clip-path-19" transform="translate(0 5.15)">
      <path class="cls-1" d="M115,57.85a1.69,1.69,0,0,1,1.7-1.7,1.77,1.77,0,0,1,1.8,1.7,1.79,1.79,0,0,1-1.8,1.8,1.84,1.84,0,0,1-1.7-1.8m-6.4-3.7,8.9,8.9,8.9-8.9-8.9-8.9Z"/>
    </clipPath>
    <linearGradient id="linear-gradient-19" x1="-562.55" y1="345.65" x2="-559.72" y2="345.65" gradientTransform="translate(4515.52 1104.45) rotate(45) scale(6.86)" xlink:href="#linear-gradient"/>
    <clipPath id="clip-path-20" transform="translate(0 5.15)">
      <rect class="cls-1" x="114.59" y="79.22" width="16.3" height="16.3" transform="translate(-25.83 112.4) rotate(-45.01)"/>
    </clipPath>
    <linearGradient id="linear-gradient-20" x1="-561.67" y1="347.48" x2="-558.84" y2="347.48" gradientTransform="translate(4591.41 1140.06) rotate(45) scale(6.96)" xlink:href="#linear-gradient"/>
  </defs>
  <title>opcAsset 1</title>
  <g id="Layer_2" data-name="Layer 2">
    <g id="layer">
      <path d="M260.7,57.15h-3.4V40.65h3.2c5.6,0,12.6.4,12.6,7.8,0,7.7-6.5,8.7-12.4,8.7m-36.3-23.8H215c-6.8-8.4-16.6-14.2-27.9-16.8h37.3v16.8Zm0,18.6H224a46,46,0,0,0-7.6-16.8h8Zm0,37.3h-6.5a44.58,44.58,0,0,0,6.5-16.5Zm0,18.6H192.7a47.44,47.44,0,0,0,23.9-16.8h7.8Zm-33.2-16.8-4.8,4.8-4.8-4.8h0l-1.8-1.8h0l-4.7-4.7,3.9-3.8a21.21,21.21,0,0,1-5.7.8c-7.2,0-12.8-3.5-15.6-9.1h31.2l-1.2,2.1,10,10-5.6,5.6Zm-38.1,13.4-13.2-13.2.2-.2h0l1.8-1.8h0l11.2-11.2,13.2,13.2Zm-14.2-22.7a1.69,1.69,0,0,1,1.7-1.7,1.77,1.77,0,0,1,1.8,1.7,1.71,1.71,0,0,1-1.8,1.7,1.69,1.69,0,0,1-1.7-1.7m3.5-6.5a1.71,1.71,0,0,1-1.8,1.7,1.7,1.7,0,1,1,0-3.4,1.77,1.77,0,0,1,1.8,1.7m-10.2-2.8h0l-1.8-1.8h0l-6.7-6.6L134,53.85h0l1.6-1.6,1.6,1.6,10.2,10.2h0l-6.6,6.6-1.8,1.8-3.4,3.4ZM150.1,69a1.77,1.77,0,0,1,1.8,1.7,1.71,1.71,0,0,1-1.8,1.7,1.7,1.7,0,0,1,0-3.4m0-6.4a1.77,1.77,0,0,1,1.8,1.7,1.71,1.71,0,0,1-1.8,1.7,1.69,1.69,0,0,1-1.7-1.7,1.63,1.63,0,0,1,1.7-1.7m5.2-13.2a1.77,1.77,0,0,1,1.8,1.7,1.61,1.61,0,0,1-.3.9c-.1.2-.3.3-.4.5h0c-.1,0-.1.1-.2.1h0c-.1,0-.1.1-.2.1h0c-.1,0-.1,0-.2.1h-1.2c-.1,0-.1,0-.2-.1h0c-.1,0-.1-.1-.2-.1h0c-.1,0-.1-.1-.2-.1h0a1,1,0,0,1-.4-.5,1.61,1.61,0,0,1-.3-.9,2.13,2.13,0,0,1,2-1.7m0-6.5a1.77,1.77,0,0,1,1.8,1.7,1.71,1.71,0,0,1-1.8,1.7,1.69,1.69,0,0,1-1.7-1.7,1.63,1.63,0,0,1,1.7-1.7m26,10.9,1.8-1.8H159.5a16.93,16.93,0,0,1,13.8-6.4A17.11,17.11,0,0,1,185.1,50l8.7-8.7L204.6,52h0l1.8,1.8h0l.6.6h0l-13.2,13.2-3-3a20,20,0,0,1-1.2,6.1H156.8a19.23,19.23,0,0,1-1.2-6.9,19.5,19.5,0,0,1,2.6-9.9h23.1ZM333,62.35a18.37,18.37,0,0,1,18.6-18.3c7.7,0,14.6,4.4,20.1,9.5l-1-35.8a71.06,71.06,0,0,0-22.9-3.9,48.61,48.61,0,0,0-43.1,25.5c-4.1-16.6-18.5-24.6-37-24.6H.1v1.8H159.5a50.75,50.75,0,0,0-27.9,16.8H0v1.8H130.2A44.38,44.38,0,0,0,122.6,52H0v1.8H122.1a47.59,47.59,0,0,0-.9,9.4,58.66,58.66,0,0,0,.5,7.4H0v1.8H122.1a44.47,44.47,0,0,0,6.6,16.8H0V91H129.9a47.44,47.44,0,0,0,23.9,16.8H0v1.8H162.6l-5-5,13.2-13.2,13.2,13.2-5,5h78.3V81h17.4c10.6,0,19-3.8,24.4-10.4,3.4,23.1,22.9,40.2,47.2,40.2,6.1,0,18.8-1.1,24.3-3.7l1-35.1c-5.5,5.4-11.7,8.7-19.6,8.7-10.2.1-19-7.9-19-18.3" transform="translate(0 5.15)"/>
      <g class="cls-2">
        <polygon class="cls-3" points="18.4 8.3 30.9 20.8 18.4 33.2 6 20.8 18.4 8.3"/>
      </g>
      <g class="cls-4">
        <polygon class="cls-5" points="42.8 11.2 55.2 23.6 42.8 36 30.4 23.6 42.8 11.2"/>
      </g>
      <g class="cls-6">
        <polygon class="cls-7" points="34.2 28.1 46.6 40.6 34.2 53 21.8 40.6 34.2 28.1"/>
      </g>
      <g class="cls-8">
        <polygon class="cls-9" points="68.1 65.1 80.5 77.5 68.1 89.9 55.7 77.5 68.1 65.1"/>
      </g>
      <g class="cls-10">
        <polygon class="cls-11" points="33.1 44.8 45.5 57.2 33.1 69.6 20.7 57.2 33.1 44.8"/>
      </g>
      <g class="cls-12">
        <polygon class="cls-13" points="48.3 34.7 60.7 47.2 48.3 59.6 35.9 47.2 48.3 34.7"/>
      </g>
      <g class="cls-14">
        <polygon class="cls-15" points="65.5 18.4 77.9 30.8 65.5 43.2 53.1 30.8 65.5 18.4"/>
      </g>
      <g class="cls-16">
        <polygon class="cls-17" points="84 65.8 107 88.8 84 111.8 61 88.8 84 65.8"/>
      </g>
      <g class="cls-18">
        <polygon class="cls-19" points="53 49 69.8 65.8 53 82.6 36.2 65.8 53 49"/>
      </g>
      <g class="cls-20">
        <polygon class="cls-21" points="97.7 10 115.5 27.7 97.7 45.4 80 27.7 97.7 10"/>
      </g>
      <g class="cls-22">
        <polygon class="cls-23" points="85.4 24.4 103.1 42.1 85.4 59.8 67.7 42.1 85.4 24.4"/>
      </g>
      <g class="cls-24">
        <polygon class="cls-25" points="121.3 16 139 33.8 121.3 51.5 103.6 33.8 121.3 16"/>
      </g>
      <g class="cls-26">
        <polygon class="cls-27" points="26.2 0 36.6 10.4 26.2 20.8 15.8 10.4 26.2 0"/>
      </g>
      <g>
        <path d="M23.7,47.05a1.77,1.77,0,0,1,1.8,1.7,1.79,1.79,0,0,1-1.8,1.8,1.71,1.71,0,0,1-1.7-1.8,1.63,1.63,0,0,1,1.7-1.7m0,6.6a1.79,1.79,0,0,1,1.8,1.8,1.71,1.71,0,0,1-1.8,1.7,1.69,1.69,0,0,1-1.7-1.7,1.65,1.65,0,0,1,1.7-1.8" transform="translate(0 5.15)"/>
        <path d="M42.7,57.45a1.77,1.77,0,0,1,1.8,1.7A1.79,1.79,0,0,1,42.7,61a1.71,1.71,0,0,1-1.7-1.8,1.63,1.63,0,0,1,1.7-1.7m0,6.5a1.79,1.79,0,0,1,1.8,1.8,1.71,1.71,0,0,1-1.8,1.7,1.69,1.69,0,0,1-1.7-1.7A1.65,1.65,0,0,1,42.7,64" transform="translate(0 5.15)"/>
        <path d="M75.1,32a1.77,1.77,0,0,1,1.8,1.7,1.79,1.79,0,0,1-1.8,1.8,1.71,1.71,0,0,1-1.7-1.8A1.75,1.75,0,0,1,75.1,32m0,6.6a1.79,1.79,0,0,1,1.8,1.8,1.71,1.71,0,0,1-1.8,1.7,1.69,1.69,0,0,1-1.7-1.7,1.71,1.71,0,0,1,1.7-1.8" transform="translate(0 5.15)"/>
        <path d="M112.1,23.35a1.77,1.77,0,0,1,1.8,1.7,1.79,1.79,0,0,1-1.8,1.8,1.71,1.71,0,0,1-1.7-1.8,1.69,1.69,0,0,1,1.7-1.7m0,6.5a1.79,1.79,0,0,1,1.8,1.8,1.71,1.71,0,0,1-1.8,1.7,1.69,1.69,0,0,1-1.7-1.7,1.71,1.71,0,0,1,1.7-1.8" transform="translate(0 5.15)"/>
        <path d="M91,36.55a1.77,1.77,0,0,1,1.8,1.7,1.79,1.79,0,0,1-1.8,1.8,1.71,1.71,0,0,1-1.7-1.8,1.69,1.69,0,0,1,1.7-1.7m0,6.5a1.79,1.79,0,0,1,1.8,1.8,1.71,1.71,0,0,1-1.8,1.7,1.69,1.69,0,0,1-1.7-1.7,1.71,1.71,0,0,1,1.7-1.8" transform="translate(0 5.15)"/>
        <path d="M56.7,48.55a1.77,1.77,0,0,1,1.8,1.7,1.79,1.79,0,0,1-1.8,1.8,1.71,1.71,0,0,1-1.7-1.8,1.69,1.69,0,0,1,1.7-1.7m0,6.5a1.79,1.79,0,0,1,1.8,1.8,1.71,1.71,0,0,1-1.8,1.7,1.69,1.69,0,0,1-1.7-1.7,1.71,1.71,0,0,1,1.7-1.8" transform="translate(0 5.15)"/>
      </g>
      <g class="cls-28">
        <polygon class="cls-29" points="70.2 36.3 93.2 59.3 70.2 82.3 47.2 59.3 70.2 36.3"/>
      </g>
      <g class="cls-30">
        <polygon class="cls-31" points="90.9 43 113.9 66.1 90.9 89.1 67.9 66.1 90.9 43"/>
      </g>
      <g class="cls-32">
        <polygon class="cls-33" points="104.6 24.4 127.7 47.5 104.6 70.5 81.6 47.5 104.6 24.4"/>
      </g>
      <g>
        <path d="M133.4,58.85a1.77,1.77,0,0,1,1.8,1.7,1.79,1.79,0,0,1-1.8,1.8,1.71,1.71,0,0,1-1.7-1.8,1.63,1.63,0,0,1,1.7-1.7m0,6.5a1.79,1.79,0,0,1,1.8,1.8,1.71,1.71,0,0,1-1.8,1.7,1.69,1.69,0,0,1-1.7-1.7,1.71,1.71,0,0,1,1.7-1.8" transform="translate(0 5.15)"/>
        <path d="M148.9,87.15a1.77,1.77,0,0,1,1.8,1.7,1.79,1.79,0,0,1-1.8,1.8,1.71,1.71,0,0,1-1.7-1.8,1.63,1.63,0,0,1,1.7-1.7m0,6.5a1.79,1.79,0,0,1,1.8,1.8,1.71,1.71,0,0,1-1.8,1.7,1.69,1.69,0,0,1-1.7-1.7,1.71,1.71,0,0,1,1.7-1.8" transform="translate(0 5.15)"/>
        <path d="M184,77.65a1.77,1.77,0,0,1,1.8,1.7,1.79,1.79,0,0,1-1.8,1.8,1.71,1.71,0,0,1-1.7-1.8,1.63,1.63,0,0,1,1.7-1.7m0,6.5a1.79,1.79,0,0,1,1.8,1.8,1.71,1.71,0,0,1-1.8,1.7,1.69,1.69,0,0,1-1.7-1.7,1.71,1.71,0,0,1,1.7-1.8" transform="translate(0 5.15)"/>
        <path d="M56.5,22.05a1.77,1.77,0,0,1,1.8,1.7,1.79,1.79,0,0,1-1.8,1.8,1.71,1.71,0,0,1-1.7-1.8,1.69,1.69,0,0,1,1.7-1.7m0,6.6a1.79,1.79,0,0,1,1.8,1.8,1.71,1.71,0,0,1-1.8,1.7,1.69,1.69,0,0,1-1.7-1.7,1.71,1.71,0,0,1,1.7-1.8" transform="translate(0 5.15)"/>
        <path d="M87.1,75.75a1.77,1.77,0,0,1,1.8,1.7,1.79,1.79,0,0,1-1.8,1.8,1.71,1.71,0,0,1-1.7-1.8,1.75,1.75,0,0,1,1.7-1.7m0,6.6a1.79,1.79,0,0,1,1.8,1.8,1.71,1.71,0,0,1-1.8,1.7,1.69,1.69,0,0,1-1.7-1.7,1.71,1.71,0,0,1,1.7-1.8" transform="translate(0 5.15)"/>
      </g>
      <g class="cls-34">
        <polygon class="cls-35" points="101.5 63.2 124.5 86.2 101.5 109.2 78.5 86.2 101.5 63.2"/>
      </g>
      <g>
        <path d="M78.1,24.35a.9.9,0,0,1,1.8,0,.91.91,0,0,1-1.8,0m0-5.6a.9.9,0,1,1,1.8,0,.81.81,0,0,1-.9.8.76.76,0,0,1-.9-.8" transform="translate(0 5.15)"/>
        <path d="M88.3,17a1.77,1.77,0,0,1,1.8,1.7,1.79,1.79,0,0,1-1.8,1.8,1.71,1.71,0,0,1-1.7-1.8A1.69,1.69,0,0,1,88.3,17m0,6.5a1.79,1.79,0,0,1,1.8,1.8A1.71,1.71,0,0,1,88.3,27a1.69,1.69,0,0,1-1.7-1.7,1.71,1.71,0,0,1,1.7-1.8" transform="translate(0 5.15)"/>
        <path d="M60.1,74.85a1,1,0,0,1,.9-1,1,1,0,0,1,1,1,1,1,0,0,1-1,.9c-.4.1-.9-.2-.9-.9m0-6.1a1,1,0,0,1,.9-1,1,1,0,0,1,1,1,1,1,0,0,1-1,.9.89.89,0,0,1-.9-.9" transform="translate(0 5.15)"/>
        <path d="M70.8,81a1.77,1.77,0,0,1,1.8,1.7,1.79,1.79,0,0,1-1.8,1.8,1.71,1.71,0,0,1-1.7-1.8A1.63,1.63,0,0,1,70.8,81m0,6.5a1.79,1.79,0,0,1,1.8,1.8A1.71,1.71,0,0,1,70.8,91a1.69,1.69,0,0,1-1.7-1.7,1.71,1.71,0,0,1,1.7-1.8" transform="translate(0 5.15)"/>
        <path d="M35.3,18.65a1,1,0,0,1,.9-1,1,1,0,0,1,1,1,1,1,0,0,1-1,.9.82.82,0,0,1-.9-.9m0-6.1a1,1,0,0,1,.9-1,1,1,0,0,1,1,1,1,1,0,0,1-1,.9,1,1,0,0,1-.9-.9" transform="translate(0 5.15)"/>
        <path d="M18.7,6.45a.8.8,0,0,1,1.6,0,.81.81,0,0,1-1.6,0m0-4.9a.8.8,0,1,1,1.6,0,.81.81,0,0,1-1.6,0" transform="translate(0 5.15)"/>
        <path d="M43,37.55a.9.9,0,1,1,1.8,0,.81.81,0,0,1-.9.8.76.76,0,0,1-.9-.8m0-5.5a.9.9,0,1,1,1.8,0,.81.81,0,0,1-.9.8.88.88,0,0,1-.9-.8" transform="translate(0 5.15)"/>
        <path d="M25.2,37.35a.9.9,0,0,1,1.8,0,.91.91,0,0,1-1.8,0m0-5.5a.9.9,0,0,1,1.8,0,.81.81,0,0,1-.9.8.88.88,0,0,1-.9-.8" transform="translate(0 5.15)"/>
        <path d="M11.4,18.75a.88.88,0,0,1,.8-.9.9.9,0,0,1,.9.9.81.81,0,0,1-.9.8c-.3.1-.8-.2-.8-.8m0-5.5a.88.88,0,0,1,.8-.9.9.9,0,0,1,.9.9.81.81,0,0,1-.9.8.86.86,0,0,1-.8-.8" transform="translate(0 5.15)"/>
        <path d="M190,48.65a1.77,1.77,0,0,1,1.8,1.7,1.79,1.79,0,0,1-1.8,1.8,1.71,1.71,0,0,1-1.7-1.8,1.69,1.69,0,0,1,1.7-1.7m0,6.6a1.79,1.79,0,0,1,1.8,1.8,1.71,1.71,0,0,1-1.8,1.7,1.69,1.69,0,0,1-1.7-1.7,1.71,1.71,0,0,1,1.7-1.8" transform="translate(0 5.15)"/>
      </g>
      <g class="cls-36">
        <polygon class="cls-37" points="114.4 48.9 137.4 71.9 114.4 94.9 91.4 71.9 114.4 48.9"/>
      </g>
      <g class="cls-38">
        <polygon class="cls-39" points="117.4 41.6 135.1 59.3 117.4 77 99.7 59.3 117.4 41.6"/>
      </g>
      <g class="cls-40">
        <polygon class="cls-41" points="122.7 69.5 145.7 92.6 122.7 115.6 99.7 92.6 122.7 69.5"/>
      </g>
      <path d="M500.4,14.75v56.1c0,27.7-17.4,40.2-43.9,40.2s-43.9-12.6-43.9-40.2V14.75h34.5v52.8c0,7.4.3,14,9.4,14s9.4-6.5,9.4-14V14.75Z" transform="translate(0 5.15)"/>
      <path d="M554.4,75.25s-5.7-24.9-6.3-28.9h-1.3l-6.3,28.9Zm-22.8,34.3H495.1L528,14.75h38.1l33.8,94.8H563.4l-3.1-11.8h-26Z" transform="translate(0 5.15)"/>
      <path d="M575.6,18.75h.6c.3,0,.6,0,.7-.1a.55.55,0,0,0,.4-.6.85.85,0,0,0-.2-.6,2,2,0,0,0-.9-.2h-.6Zm2.9,2.6h-1v-.1h0v-.7c0-.5-.1-.8-.4-.9a1.72,1.72,0,0,0-.8-.1h-.5v1.8h-1v-4.8h1.7a3.92,3.92,0,0,1,1.3.2,1.25,1.25,0,0,1,.8,1.3,1.1,1.1,0,0,1-.5,1,.37.37,0,0,1-.3.1.78.78,0,0,1,.4.4,1.33,1.33,0,0,1,.3.8v1Zm-2.1-5.9a3.42,3.42,0,0,0-3.5,3.5,3.5,3.5,0,1,0,7,0,3.32,3.32,0,0,0-1-2.5,4,4,0,0,0-2.5-1m0,7.8a3.8,3.8,0,0,1-3-1.3,4.39,4.39,0,0,1-1.3-3.1,3.8,3.8,0,0,1,1.3-3,4.34,4.34,0,0,1,3-1.3,3.8,3.8,0,0,1,3,1.3,4.34,4.34,0,0,1,1.3,3,4.16,4.16,0,0,1-1.3,3.1,3.8,3.8,0,0,1-3,1.3" transform="translate(0 5.15)"/>
    </g>
  </g>
</svg>
