<?xml version="1.0" encoding="utf-8"?>
<!-- Generator: Adobe Illustrator 24.0.3, SVG Export Plug-In . SVG Version: 6.00 Build 0)  -->
<svg version="1.1" id="Layer_1" xmlns="http://www.w3.org/2000/svg" xmlns:xlink="http://www.w3.org/1999/xlink" x="0px" y="0px"
	 viewBox="0 0 300 300" style="enable-background:new 0 0 300 300;" xml:space="preserve">
<style type="text/css">
	.st0{fill:#E7704D;}
	.st1{fill:#E27353;}
</style>
<g>
	<path class="st0" d="M147.8,266.4c-27.4,0-54.9,0-82.3,0c-7.9,0-11.8-3.5-11.7-10.3c0.1-6,3.8-9.6,10.3-9.6
		c12.6-0.1,25.2,0,37.8-0.1c7.2,0,11.1-3.3,11.2-9.2c0.1-6.6-3.8-10.1-11.3-10.1c-18.9,0-37.8,0-56.7,0c-7.1,0-11.3-3.6-11.3-9.7
		c0-6.2,3.9-9.7,11.2-9.8c6.7-0.2,10.9-3.9,10.9-9.7c0-6-3.9-9.6-10.9-9.6c-11.1-0.1-22.3,0-33.4,0c-7.2,0-11-3.6-10.9-10
		c0.1-6.1,3.8-9.6,10.9-9.5c4.1,0.1,5.4-0.7,5-5.3c-4-47.7,13.5-85.5,53.7-112c21.2-14,45-19.8,70.5-17.4
		c49.5,4.7,82.9,30.9,101,76.7c6.4,16.2,8.4,33.4,6.2,50.9c-0.9,7-0.8,7.1,6.2,7c6.6,0,13.2,0,19.9,0c7,0.1,10.5,3.4,10.5,9.7
		c0,6.3-3.7,9.8-10.5,9.8c-31.2,0-62.3,0-93.5,0c-4.3,0-8.7-0.3-11.5,4.4c-3.9,6.5,0,14.4,7.5,15c1.1,0.1,2.3,0,3.4,0
		c6.3,0.1,10.2,4,10.2,9.9c-0.1,5.8-4.1,9.6-10.4,9.7c-3.4,0.1-6.8-0.1-10.2,0c-5.8,0.2-9.9,4.2-9.9,9.6c0,5.8,3.9,9.6,10.3,9.7
		c20.3,0.1,40.7,0.1,61,0c4.7,0,8.7,1.3,10.7,5.9c3.1,6.8-1.6,13.9-9.5,14.1c-11.6,0.2-23.2,0-34.9,0
		C180.7,266.4,164.2,266.4,147.8,266.4z"/>
	<path class="st1" d="M279.5,207.5c3.4,0,6.8-0.1,10.2,0c5.3,0.1,9.7,4.4,9.8,9.3c0.1,5.6-3.9,10.1-9.4,10.2
		c-7.3,0.2-14.5,0.2-21.8,0c-5.3-0.2-8.7-4.1-8.8-9.5c-0.1-5.7,3.3-9.6,9-9.9C272.1,207.4,275.8,207.6,279.5,207.5
		C279.5,207.6,279.5,207.5,279.5,207.5z"/>
	<path class="st1" d="M223.7,227c-3.7,0-7.4,0.2-11.1,0c-5.2-0.3-8.7-4.3-8.7-9.6c0-5.5,3.4-9.5,8.6-9.7c7.4-0.2,14.8-0.2,22.2,0
		c5.4,0.1,9.2,4.5,9,9.9c-0.1,5.3-3.8,9.2-9,9.5C231.1,227.2,227.4,227.1,223.7,227C223.7,227.1,223.7,227.1,223.7,227z"/>
</g>
</svg>
