<svg width="64" height="54" xmlns="http://www.w3.org/2000/svg" xmlns:xlink="http://www.w3.org/1999/xlink"><defs><linearGradient x1="50%" y1="0%" x2="50%" y2="100%" id="a"><stop stop-color="#448FF6" offset="0%"/><stop stop-color="#04129F" offset="100%"/></linearGradient><path d="M33.778 53.672h-3.622a.837.837 0 0 1-.676-.347l-3.21-4.468a.823.823 0 0 1-.138-.31l-.074-.342-.102-.084c-.186.34-.528.764-1.087.807-.332.026-1.79.01-2.4.003a.832.832 0 0 1-.54-.208l-5.23-4.578a.833.833 0 0 1-.282-.548l-.422-4.234-1.964-1.806c-.2-.133-.501-.437-.501-1.06 0-.261-.073-2.645-.12-4.135l-1.123-.778a.839.839 0 0 1-.36-.688v-4.069c0-.395.257-.899.821-1.068.099-.03.845-.344 1.909-.807-.119-.382-.4-1.173-.76-2.11a1.767 1.767 0 0 0-.234-.225c-.22-.106-1.445-.88-13.141-8.852a.835.835 0 0 1-.289-.342 2.615 2.615 0 0 1-.22-1.308c.05-.45.397-2.088.545-2.77a.844.844 0 0 1 .19-.379c.33-.373.925-.687 1.607-.447.417.147 14.096 4.719 16.067 5.377a1.59 1.59 0 0 0 .064-.108c.428-.802 2.042-2.176 2.527-2.578a.826.826 0 0 1 .494-.191l.325-.013c.64-.61 2.481-2.185 4.824-2.667l.002-.003c.108-.265.84-3.358 1.666-7.039a.824.824 0 0 1 .125-.288c.22-.321.571-.73 1-.86.084-.025.331-.1 2.147-.133V0l.347.01.024.337.012-.338.342-.005v.012c1.83.033 2.08.108 2.164.133.428.13.78.539.999.86.06.088.103.186.126.29.827 3.68 1.559 6.773 1.667 7.039 2.344.483 4.184 2.058 4.825 2.668l.324.013a.83.83 0 0 1 .495.19c.485.403 2.099 1.777 2.527 2.58.023.043.044.078.064.108 2.014-.674 15.657-5.233 16.067-5.378.682-.24 1.277.074 1.607.448a.84.84 0 0 1 .19.377c.114.53.492 2.294.544 2.77.07.624-.151 1.16-.22 1.31a.832.832 0 0 1-.287.34c-11.968 8.157-12.973 8.779-13.156 8.86-.016.012-.11.094-.221.218a47.025 47.025 0 0 0-.762 2.109c1.067.464 1.813.777 1.913.808.563.17.82.673.82 1.068v4.069a.839.839 0 0 1-.36.688l-1.123.778c-.047 1.49-.12 3.874-.12 4.136 0 .621-.301.926-.5 1.06l-1.966 1.805-.422 4.235a.834.834 0 0 1-.28.547l-5.233 4.579a.83.83 0 0 1-.539.207c-.61.008-2.067.022-2.4-.003-.557-.043-.9-.468-1.086-.808l-.102.085-.073.34a.828.828 0 0 1-.14.313l-3.209 4.466a.836.836 0 0 1-.676.348" id="b"/></defs><g fill="none" fill-rule="evenodd"><use fill="url(#a)" xlink:href="#b"/><use fill="#0E121B" xlink:href="#b"/><path d="M41.482 34.656s-.4 7.333-.721 11.03c0 0-.1.743-.481.844-.38.1-.26-1.386-.26-1.386l.54-10.388s.14-.622.542-.642c.5-.001.38.542.38.542m-2.114-3.908s.711 1.176-.25 2.823c-.963 1.647-3.227.412-3.227.412s-1.293-.713.09-1.608c1.383-.893 2.735-1.627 2.735-1.627s.524-.299.652 0m2.215.784c.1.301.37 0 .37 0l1.824-2.12.15-.372s.05-.632.02-.793c-.03-.16.06-.241.06-.241s2.907-3.546 3.007-3.878c.1-.331-.1-.251-.1-.251-2.506 1.386-3.798 2.32-3.798 2.32s-2.425 1.86-2.606 2.05c-.18.19 0 .432 0 .432m5.589 3.843l-1.043 9.574s.027.268-.16.536-3.233 3.135-3.233 3.135-.175.214-.168-.51c.007-.723.462-4.125.488-11.01l.054-.481s.027-.403.294-.644c.267-.24 2.94-3.268 2.94-3.268s.213-.16.213-.429v-1.392s-.053-.295.374-.616a9.073 9.073 0 0 1 1.042-.643l2.967.67s.24.08.24.535v1.58s-.027.322-.348.536c-.32.214-3.66 2.427-3.66 2.427M56.36 15.87L38.91 26.426s-.968.663-.668-.375c.294-1.179 1.07-3.67 1.07-3.67s.098-.372.31-.509c.49-.24 9.877-4.828 10.218-5.01.287-.146.534-.696.534-.696l.74-1.457s.124-.147.312-.216l5.602-2.077s.374-.214.24.214c-.133.429-.534 2.733-.534 2.733s-.044.31-.374.509" fill="#FEFEFE"/><path d="M50.2 15.288l-.36.703s-.18.382-.561.603c-.381.221-9.86 4.62-9.86 4.62s-.148.102-.262-.28c-.12-.462-.97-1.407-.97-1.407s-.252-.314.27-.482c.64-.22 11.743-4.219 11.743-4.219s.27-.065 0 .462m-23.16-3.596c-2.28.983-3.77 2.445-4.003 2.673-.042.042-.073-.015-.073-.015l-.76-.85c-.187-.241-.548.067-.548.067-1.029.803-1.63 1.674-1.79 1.955-.138.236.107.309.107.309s5.17 1.835 5.384 1.875c.406.12.439.106.507-.133.038-.133 1.23-5.372 1.257-5.654.059-.308-.08-.227-.08-.227m17.027 3.83c-.16-.28-.762-1.151-1.79-1.955 0 0-.361-.308-.549-.067l-.76.85s-.03.056-.072.016c-.233-.23-1.723-1.69-4.004-2.674 0 0-.139-.08-.08.227.026.282 1.219 5.52 1.257 5.654.068.239.1.254.506.133.214-.04 5.385-1.876 5.385-1.876s.244-.072.107-.308m-10.001-.515h-4.2s-.32-.005-.32-.184c0-.178.961-9.56.961-9.56s.18-.1.2.08c.02.18-.097 6.319-.097 6.319s-.013.18.218.19c.2.01.935.01 1.149.01h.058c.203 0 .87-.001 1.069-.01.23-.01.218-.19.218-.19s-.118-6.138-.098-6.32c.02-.18.2-.08.2-.08s.963 9.383.963 9.561c0 .179-.321.184-.321.184m-.42-12.598c-.04-.26-.302-.26-.302-.26l-1.367-.061h-.022l-1.368.06s-.26 0-.3.261c-.04.262-2.806 14.788-2.806 14.788s-.08.381.28.26c1.711-.86 4.115-.921 4.205-.923.09.002 2.493.063 4.204.924.361.12.28-.261.28-.261S33.687 2.67 33.647 2.409m-5.694 29.967a46.574 46.574 0 0 0-2.736-1.628s-.523-.299-.651 0c0 0-.712 1.175.25 2.823s3.227.412 3.227.412 1.293-.713-.09-1.607m-7.135-6.178s-1.293-.935-3.798-2.32c0 0-.2-.081-.1.25.1.332 3.006 3.878 3.006 3.878s.09.08.06.24c-.03.162.02.794.02.794l.15.372 1.824 2.12s.27.301.371 0l1.072-2.853s.18-.241 0-.432c-.18-.19-2.605-2.05-2.605-2.05m3.096 18.947l-.54-10.388s-.141-.622-.542-.643c-.5 0-.38.543-.38.543s.4 7.333.721 11.03c0 0 .1.743.481.844.38.1.26-1.386.26-1.386M21.95 34.247l-.053-.481s-.027-.403-.294-.644c-.267-.24-2.94-3.268-2.94-3.268s-.213-.16-.213-.429v-1.392s.053-.295-.374-.617a9.29 9.29 0 0 0-1.043-.642l-2.966.67s-.24.08-.24.535v1.58s.027.322.347.536l3.661 2.427 1.042 9.574s-.026.268.16.536c.188.268 3.234 3.135 3.234 3.135s.175.214.168-.51c-.008-.723-.462-4.125-.489-11.01m3.741-8.197c-.294-1.179-1.068-3.67-1.068-3.67s-.1-.372-.31-.509c-.492-.24-9.878-4.828-10.219-5.01-.287-.146-.534-.696-.534-.696l-.74-1.457s-.125-.147-.313-.216l-5.601-2.077s-.374-.214-.24.214c.133.429.534 2.733.534 2.733s.044.31.374.509l17.45 10.554s.968.663.667-.375" fill="#FEFEFE"/><path d="M14.094 15.991s.18.382.561.603c.38.22 9.86 4.621 9.86 4.621s.148.1.261-.281c.12-.463.971-1.407.971-1.407s.252-.314-.27-.482c-.64-.221-11.744-4.22-11.744-4.22s-.27-.064 0 .463l.361.703zm17.873 11.156c-1.875-.035-3.463-1.567-3.463-3.454 0-1.887 1.588-3.42 3.463-3.454 1.875.035 3.463 1.567 3.463 3.454 0 1.887-1.588 3.42-3.463 3.454m6.302-5.61c-2.06-3.714-5.852-3.618-6.302-3.593-.45-.025-4.243-.12-6.302 3.593 0 0-.107.254-.107.455 0 .2 2.058 7.688 2.058 7.688s.04.094.213.348c.174.255 2.232 1.755 2.232 1.755s.147.2.668.228c.447.023 1.07.006 1.238 0 .168.006.79.023 1.238 0 .521-.027.668-.228.668-.228s2.058-1.5 2.232-1.755c.173-.254.213-.348.213-.348s2.058-7.487 2.058-7.688c0-.201-.107-.455-.107-.455m.641 22.167v-1.849c0-.24-.254.014-.254.014l-1.215.884c-.388.308-.669.08-.669.08s-1.309-1.34-1.496-1.607c-.187-.268-.44-.241-.44-.241h-5.738s-.254-.027-.44.24c-.187.269-1.497 1.608-1.497 1.608s-.28.228-.668-.08l-1.216-.884s-.254-.255-.254-.014v1.849s-.013.348.28.576c.295.227 2.366 1.634 2.366 1.634s.4.224.681-.348l1.283-2.318s.08-.187.574-.2c.443-.013 3.066-.013 3.52 0 .493.013.574.2.574.2l1.282 2.318c.283.572.682.348.682.348s2.07-1.407 2.365-1.634c.294-.228.28-.576.28-.576" fill="#FEFEFE"/><path d="M38.81 35.201l-1.753.76a.067.067 0 0 0-.007.003c-.039.024-.48.274-1.066-.11 0 0-3.455-2.088-3.938-2.088l-.008.001-.007-.001h-.187a.088.088 0 0 0-.043.013c-.712.178-3.852 2.076-3.852 2.076-.586.383-1.027.133-1.066.109a.046.046 0 0 0-.007-.004l-1.752-.759c-.005-.002-.63-.36-.608.185.001.04.347 4.487.347 4.487.013.784.31 1.007.345 1.03l.005.003.929.505c.002.002.51.315.73.127l.015-.01c.056-.052.443-.418.715-.865a1.05 1.05 0 0 1 .773-.509h7.184c.034.003.49.046.773.51.272.446.659.812.715.864.004.004.01.006.015.01.219.188.727-.125.73-.127l.929-.505.005-.004c.034-.022.332-.245.345-1.029 0 0 .345-4.447.347-4.487.023-.544-.603-.187-.608-.185" fill="#FEFEFE"/></g></svg>