<svg id="Layer_1" xmlns="http://www.w3.org/2000/svg" viewBox="0 0 284.5 245.9" width="2500" height="2161"><style>.st0{fill:red}</style><path class="st0" d="M127.8 245.7c-4.7-.4-9.1-2.4-12.5-5.6-3.2-3.1-5.2-6.7-6.2-11-.4-1.9-.4-6.2 0-8.1 1.8-8.3 8-14.6 16.3-16.4 2-.4 5.6-.5 7.7-.1 8 1.4 14.6 7.5 16.5 15.3.8 3 .9 5.8.2 6.7-.2.2-.5.6-.8.8-.4.3-.6.3-16.1.4-15.5.1-15.7.1-16.3.4-.8.4-1.3 1.3-1.3 2.3 0 .9.9 2.6 2.2 4.3 2.2 2.7 5.3 4.7 8.9 5.4 2.2.5 5.2.3 7.2-.3 1.8-.5 3.4-1.3 4.7-2.2 1.7-1.3 2.4-1.4 3.6-.8.9.4 1.5 1.4 1.5 2.5 0 1-.4 1.6-1.5 2.5-2.9 2.2-6.7 3.7-10 4-2.2 0-2.6.1-4.1-.1zm14.7-23.8c1.1-.8 1.5-2.1.9-3.5-1.3-2.8-4-5.6-7-7.1-2.2-1.1-4.2-1.6-6.7-1.6-3.6 0-6.4.9-9.3 3.1-2.5 1.9-4.9 5.2-4.9 6.9 0 1.1.6 2.1 1.6 2.5.3.1 4.7.1 12.7.1 12.1-.1 12.3-.1 12.7-.4zm74.9 23.9c-1.7-.2-4.8-.9-6.5-1.5s-4-1.7-5.4-2.5c-1.3-.7-1.7-1-2-1.5-1-1.7 0-3.8 1.9-4 .7-.1 1 0 3.2 1.1 8.5 4.2 15.1 4 19.6-.5.9-1 1.9-2.6 2.2-3.8.5-2 .1-4.4-1.2-6-1.4-1.9-1.9-2.2-12-7.6-10.4-5.5-11.7-6.4-13.7-9-1.2-1.6-2.1-3.3-2.5-4.9-.3-1-.4-1.7-.4-3.2 0-2.1.2-3.1 1-5 1.9-4.3 6.6-7.7 12.2-8.7 1.1-.2 2-.2 4.2-.2 3 .1 4.8.4 7.5 1.4 2.2.8 5.2 2.3 5.8 2.9 1.5 1.7.3 4.4-1.9 4.4-.6 0-1.2-.2-2.7-.9-3.6-1.7-6.2-2.4-9.5-2.4-3.8 0-7 1.3-9.2 3.6-2.2 2.4-2.6 5.4-1.1 8.5.6 1.2 2.9 3.3 4.4 4.2.7.4 4.6 2.5 8.7 4.7 8.7 4.6 9.7 5.2 11.5 6.8 2 1.9 3.3 3.9 4 6.3.3 1 .4 1.5.4 3.4 0 2 0 2.4-.5 3.6-.5 1.7-.9 2.3-1.9 3.8-3.3 4.6-9.9 7.6-16.1 7zm-216.2-.4c-.3-.2-.6-.5-.9-.8l-.3-.5v-42.6l.4-1.6c1.6-5.8 5.9-10 11.5-11.3.8-.2 2.5-.3 7.9-.3h7.7c.9.1 1.7.5 2.2 1.2s.5 2.2 0 2.9c-.8 1.1-.6 1.1-9 1.1-7.4.1-7.6.1-8.6.4-3.2 1.2-5.9 4.2-6.6 7.6-.3 1.3-.3 9.9-.1 10.9.2.7 1.1 1.8 2 2.3.6.3.8.4 7.7.4 6.8.1 7.1.1 7.6.4 1.3.8 1.6 2.6.7 3.8-.2.3-.6.7-.8.8-.3.2-2.1.2-7.4.3-7.7.1-7.6.1-8.7 1-.3.2-.7.7-.9 1.1-.3.7-.4.7-.4 11l-.1 10.3-.4.6c-.6 1.3-2.4 1.7-3.5 1zm29.7 0c-.8-.5-1.1-.9-1.3-1.8-.1-.6-.2-4.5-.1-13.6.1-12.5.1-12.9.4-14 .5-1.8 1.1-3.1 2-4.5 2.8-4.2 7.4-6.8 12.5-7 2.3-.1 3.2 0 5.4.8 3.3 1.1 6.2 3.1 7.7 5.2.5.8.6 1.1.6 1.7 0 1.7-1.6 2.9-3.2 2.5-.4-.1-1-.6-1.7-1.2-2.6-2.5-5-3.5-8.2-3.6-3 0-5.4 1-7.5 3-1.1 1-1.7 2.1-2.3 3.5l-.4 1.2-.1 13.3v13.2l-.5.6c-.7 1-2.3 1.4-3.3.7zm48.1.2c-.2 0-.9-.2-1.6-.3-6.4-1.2-12.2-6-14.8-12.2-3.3-7.8-1.6-16.8 4.4-22.8 5.7-5.7 14.1-7.6 21.8-4.8 4.8 1.7 9.2 5.7 11.5 10.5 1.3 2.7 2.2 6.3 2 8.8-.1 1.3-.3 1.8-1.1 2.4-.4.3-.6.3-16.2.4l-15.7.1-.6.4c-1.4.8-1.6 2.4-.7 4.1.7 1.3 2.1 3.3 3 4 2.1 1.9 4.9 3.3 7.6 3.9 1.3.3 4.2.3 5.7.1 2.2-.4 4.5-1.4 6.5-2.8 1.2-.8 1.9-1.1 2.7-.9 1.3.3 2.1 1.3 2.1 2.6 0 .9-.3 1.5-1.3 2.3-2.4 2-6.3 3.7-9.6 4.1-1.1.2-5 .3-5.7.1zm15.5-23.7c.9-.5 1.3-1.3 1.3-2.3 0-.6-.1-1-.6-1.9-1.4-2.6-3.7-4.9-6.3-6.3-7.4-4.1-16.9-1.1-20.9 6.5-.9 1.8-.7 3.1.7 4l.5.4h24.6l.7-.4zm66.2 23.6c-.7-.4-1-.7-1.3-1.4-.2-.6-.2-2.9-.2-21.9v-21.3l.4-1.3c.5-1.7 1.4-3.7 2.3-4.9 2.2-3 5.6-5.3 9.2-6 2.9-.6 9.8-.5 12.2.2 5.1 1.5 9.1 5.4 10.4 10.4.7 2.5.7 5.3.1 8-.3 1.4-1.8 4.3-2.8 5.5l-.9 1 1.4.6c4.6 2.1 7.9 6 9.3 11 .5 1.7.5 5.9.1 7.6-1.6 6.4-6.4 11.1-12.7 12.4-1.3.3-2.3.3-14.2.3-11.3 0-12.9 0-13.3-.2zm27-5.4c5-1.4 8.2-5.6 8.2-10.7 0-5.6-4-10.2-9.6-10.9-1.6-.2-18.8-.2-19.6 0s-1.5.9-1.8 1.5c-.2.4-.2 2.4-.2 10.5v10l10.9-.1c10.5 0 10.8 0 12.1-.3zm-5.9-27.5c4.5-1.1 7.5-5.3 7.2-9.9-.3-4.1-3-7.5-7.1-8.7-1.5-.4-8.6-.4-10.1 0-3.4.9-6 3.6-6.9 6.9-.3 1.2-.3 1.7-.3 5.8v4.5l.5.6c.8 1 .7 1 8.6 1 6 .1 7.3.1 8.1-.2zm60.7 32.8c-.5-.2-.9-.6-1.1-1.1l-.4-.7v-47.9l.4-1.2c.9-2.9 3.4-5.2 6.4-5.9 1.4-.3 9.8-.3 12.1.1 6.3 1 11.7 3.7 16.1 8.1 11.3 11.2 11.3 29.3.1 40.5-3.7 3.7-8.3 6.3-13.1 7.6-3.3.8-4.2.9-12.3.9-7.3-.1-7.5-.1-8.2-.4zm15.8-5.7c9-1 16.5-7.2 19.2-15.8.8-2.4 1-4.1 1-6.8 0-3.2-.4-5.4-1.5-8.3-2.6-6.8-8.6-12.1-15.7-13.9-2.3-.6-3.7-.7-8.4-.6-4.2.1-4.5.1-4.9.4-.2.2-.6.5-.8.8-.3.4-.3.5-.3 21.6v21.1l.4.5c.7 1 1.2 1.1 5.5 1.1 2.3.1 4.7 0 5.5-.1zM123.1 167.6c-37.2-2-68.8-29.1-76.1-65.2-3.9-19.5-.6-40 9.3-56.3.8-1.3 1.5-2.6 1.5-2.9 0-.3-.6-1.3-1.3-2.4-4.1-6.1-9.3-19.1-10.7-26.6C44.6 7.8 46 2.7 49.4.9c2.4-1.2 7.1-1.2 11.3.1 6.7 2.1 16.1 6.8 23.5 11.9l3.9 2.7 3.6-1.6c17.7-8.2 38.1-9.8 57.2-4.5 6.2 1.7 14.2 5 18.8 7.8l2.1 1.3 3.9-2.6c7.6-5 16.8-9 25.1-10.9 9.3-2.1 14.8-.8 17.2 4 .9 1.8 1 2.6 1 7 0 2.9-.3 6.2-.8 8.1-1.9 8.4-6.2 18.2-11.4 26l-2.9 4.3.8 1.5c1.5 2.9 3.9 10.5 4.9 15.7 5.5 27-2.9 53.9-22.6 72.8-14.4 13.8-32 21.5-52.3 22.9-3.4.2-6.3.4-6.6.3-.2.1-1.6 0-3-.1zm14.8-3.5c4.8-.6 13.3-2.7 18-4.5 19.1-7.3 34.4-21.2 42.9-39 4.2-8.8 6.3-16.3 7.3-26.4 1-9.9-.8-23.3-4.3-32.8l-1-2.5-1.1 1.3c-1.7 2-3.7 2.8-7.6 3-2.6.1-4.4 0-7.1-.7-11.8-3-21.5-11.5-25.1-22.1-1.5-4.4-1.7-10.4-.5-13.6.9-2.2 3.1-4.5 4.9-4.9 2-.4 3.2-1 2.9-1.5-.4-.7-7.8-4.3-12.6-6.1-29.5-11-63.6-3.5-84.9 18.8-9.8 10.3-16.4 22.6-19.4 36.2-3.1 14.1-2.5 26.8 1.9 40.8 8.1 25.4 29 45.2 55.1 52 2.4.6 6.1 1.4 8.1 1.7 4.6.7 17.5.9 22.5.3zm-16.1-8.6c-28-2.3-49.7-18.8-60.4-45.9-2.1-5.4-4.2-13.2-5-18.8-1.5-10.6 2.4-26.7 9.6-39.2 4.5-7.9 12.2-16.6 19.2-21.9 7.9-5.9 18-10.6 28.9-13.4 7.1-1.8 8.8-1.9 4.6-.2C106 21.3 96.5 27.6 88.3 36 77.2 47.6 71.8 61.4 72.9 75.4c.4 4.7.5 4.8 2.9 3.8 4.3-1.8 11.3-2.5 15.9-1.4 9.7 2.3 19.5 10.4 28.3 23.6 6.1 9 12.5 13 21.1 13 18.6 0 39.6-21.1 44.8-45.1.2-1.1.5-2.2.7-3.3.2-.9.4-.9 2.9-.7 1.5.1 3 .4 3.4.6.7.4 2 4.3 3.2 9.8.5 2.4.7 5.4.7 12.2 0 7.8-.1 9.6-.9 13.3-1.4 6.4-2.8 10.5-5.9 16.7-6.6 13.5-17.7 24.3-31.7 30.9-8.1 3.8-15.5 5.8-24.7 6.6-5.4.6-6.1.6-11.8.1zm73.8-98c2.6-1.3 4.3-3.1 8-8.5 10.1-15.1 14.3-35.7 8.2-41-4.5-3.9-15-2.5-27.8 3.8-8.3 4.1-16.4 10-19 13.9-5.9 8.9 1.3 24.2 14.5 30.7 5.6 2.9 11.8 3.3 16.1 1.1zm-9.8-1.7c-5.3-1.3-11.5-5.2-13.4-8.6-3.1-5.4 0-9 14.4-16.9 19.3-10.6 21.6-12.2 22.8-15.7.4-1.2 1-2.1 1.3-2.1.8 0 1.7 3.9 1.4 6.2-.7 5.6-4.5 17.2-7.8 23.8-2.3 4.6-5 8.5-7.6 10.9-3.4 3.1-6 3.6-11.1 2.4zM60.7 39.4c.5-.7.9-1.4.9-1.5 0-.2-.6-1.2-1.3-2.2-2-2.9-5.3-10.1-7-15.2-2.6-7.8-3-12.9-1.1-13.5 1.6-.5 10.6 4.9 20.6 12.2l4.6 3.4 3.3-2.2c1.8-1.2 3.3-2.3 3.2-2.5-.1-.5-4.7-4.1-9.6-7.4C65.5 4.6 60.4 2.6 55.1 3c-7.2.5-8.4 7.5-3.7 21.5 1.2 3.6 5.5 12.7 7.1 15.2.8 1.2 1.1 1.2 2.2-.3zm146.8 15.5c-.1-.4-.1-.9.2-1.1.7-.7 2-.2 2.1.7.1.8.1.8-.3 0-.3-.7-.4-.7-.4-.2 0 1-1.3 1.5-1.6.6zm.6-.7c-.1-.3-.2-.2-.3.3 0 .5.1.7.2.6s.2-.6.1-.9z"/></svg>