<?xml version="1.0" encoding="utf-8"?>
<!-- Generator: Adobe Illustrator 24.2.0, SVG Export Plug-In . SVG Version: 6.00 Build 0)  -->
<svg version="1.1" id="Layer_1" xmlns="http://www.w3.org/2000/svg" xmlns:xlink="http://www.w3.org/1999/xlink" x="0px" y="0px"
	 viewBox="0 0 150 150" style="enable-background:new 0 0 150 150;" xml:space="preserve">
<style type="text/css">
	.st0{fill:#FFFFFF;}
</style>
<g>
	<path id="XMLID_25_" class="st0" d="M29.9,63.1c4.6,0,7.8,0.8,9.4,2.6c1.5,1.8,1.9,4.6,1.1,8.9C39.6,79,38,82.1,35.5,84
		c-2.5,1.9-6.2,2.9-11.1,2.9h-7.5l4.6-23.8H29.9L29.9,63.1z M-0.2,111h12.3l2.9-15h10.5c4.6,0,8.5-0.5,11.5-1.5c3-1,5.7-2.6,8.2-4.9
		c2.1-1.9,3.7-4,5.1-6.3c1.2-2.3,2.2-4.8,2.7-7.7c1.4-6.7,0.3-11.9-3-15.7c-3.3-3.7-8.5-5.6-15.6-5.6H10.9L-0.2,111"/>
	<path id="XMLID_26_" class="st0" d="M62.3,39h12.3l-2.9,15h10.9c6.8,0,11.6,1.2,14.2,3.6c2.6,2.5,3.4,6.3,2.3,11.6L94,95.6H81.6
		l4.9-25.2c0.5-2.9,0.4-4.8-0.5-5.9c-1-1.1-3-1.5-6.2-1.5H70l-6.3,32.5H51.4L62.3,39"/>
	<path id="XMLID_29_" class="st0" d="M126.5,63.1c4.6,0,7.8,0.8,9.4,2.6c1.5,1.8,1.9,4.6,1.1,8.9c-0.8,4.4-2.5,7.5-4.9,9.4
		c-2.5,1.9-6.2,2.9-11.1,2.9h-7.7l4.6-23.8H126.5L126.5,63.1z M96.2,111h12.3l2.9-15h10.5c4.6,0,8.5-0.5,11.5-1.5
		c3-1,5.7-2.6,8.2-4.9c2.1-1.9,3.7-4,5.1-6.3c1.2-2.3,2.2-4.8,2.7-7.7c1.4-6.7,0.3-11.9-3-15.7c-3.3-3.7-8.5-5.6-15.6-5.6h-23.5
		L96.2,111"/>
</g>
</svg>
