<?xml version="1.0" encoding="utf-8"?>
<!-- Generator: Adobe Illustrator 24.2.0, SVG Export Plug-In . SVG Version: 6.00 Build 0)  -->
<svg version="1.1" id="Layer_1" xmlns="http://www.w3.org/2000/svg" xmlns:xlink="http://www.w3.org/1999/xlink" x="0px" y="0px"
	 viewBox="0 0 150 150" style="enable-background:new 0 0 150 150;" xml:space="preserve">
<style type="text/css">
	.st0{fill:#FFFFFF;}
</style>
<g>
	<path id="XMLID_25_" class="st0" d="M42,66.3c3.4,0,5.7,0.6,6.9,1.9c1.1,1.3,1.4,3.4,0.8,6.5c-0.6,3.2-1.8,5.5-3.6,6.9
		c-1.8,1.4-4.5,2.1-8.1,2.1h-5.5l3.4-17.4H42L42,66.3z M20,101.3h9l2.1-11h7.7c3.4,0,6.2-0.4,8.4-1.1c2.2-0.7,4.2-1.9,6-3.6
		c1.5-1.4,2.7-2.9,3.7-4.6c0.9-1.7,1.6-3.5,2-5.6c1-4.9,0.2-8.7-2.2-11.5c-2.4-2.7-6.2-4.1-11.4-4.1H28.1L20,101.3"/>
	<path id="XMLID_26_" class="st0" d="M65.7,48.7h9l-2.1,11h8c5,0,8.5,0.9,10.4,2.6c1.9,1.8,2.5,4.6,1.7,8.5l-3.8,19.3h-9.1l3.6-18.4
		c0.4-2.1,0.3-3.5-0.4-4.3c-0.7-0.8-2.2-1.1-4.5-1.1h-7.2l-4.6,23.8h-9L65.7,48.7"/>
	<path id="XMLID_29_" class="st0" d="M112.6,66.3c3.4,0,5.7,0.6,6.9,1.9c1.1,1.3,1.4,3.4,0.8,6.5c-0.6,3.2-1.8,5.5-3.6,6.9
		c-1.8,1.4-4.5,2.1-8.1,2.1H103l3.4-17.4H112.6L112.6,66.3z M90.5,101.3h9l2.1-11h7.7c3.4,0,6.2-0.4,8.4-1.1c2.2-0.7,4.2-1.9,6-3.6
		c1.5-1.4,2.7-2.9,3.7-4.6c0.9-1.7,1.6-3.5,2-5.6c1-4.9,0.2-8.7-2.2-11.5c-2.4-2.7-6.2-4.1-11.4-4.1H98.6L90.5,101.3"/>
</g>
</svg>
