<?xml version="1.0" encoding="UTF-8"?>
<!-- Created with Inkscape (http://www.inkscape.org/) -->
<svg width="130" height="91" version="1.1" viewBox="0 0 130 91" xmlns="http://www.w3.org/2000/svg" xmlns:cc="http://creativecommons.org/ns#" xmlns:dc="http://purl.org/dc/elements/1.1/" xmlns:rdf="http://www.w3.org/1999/02/22-rdf-syntax-ns#">
 <metadata>
  <rdf:RDF>
   <cc:Work rdf:about="">
    <dc:format>image/svg+xml</dc:format>
    <dc:type rdf:resource="http://purl.org/dc/dcmitype/StillImage"/>
    <dc:title/>
   </cc:Work>
  </rdf:RDF>
 </metadata>
 <g transform="translate(1.3732 -.91549)">
  <path d="m16 84.5v-6.5h4.3c4.7437 0 6.7 1.3139 6.7 4.5 0 2.8827-1.8689 4.5-5.2 4.5-2.1333 0-2.8 0.47619-2.8 2 0 1.1111-0.66667 2-1.5 2-1.1795 0-1.5-1.3889-1.5-6.5zm6.7762-0.67621c0.85892-0.85892 0.87984-1.5333 0.07756-2.5-1.8013-2.1704-3.8538-1.544-3.8538 1.1762 0 2.6507 1.8135 3.2865 3.7762 1.3238zm6.7952 5.6048c-2.1498-2.1498-2.0029-7.7281 0.25731-9.7736 2.4273-2.1967 7.4541-2.1049 9.5163 0.17375 2.1967 2.4273 2.1049 7.4541-0.17375 9.5163-2.3135 2.0937-7.5442 2.1392-9.5998 0.08356zm7.8739-3.1468c1.4988-3.9057-2.183-7.4013-4.9164-4.6679-1.9418 1.9418-1.9418 3.8304 0 5.7722 1.7333 1.7333 4.0251 1.2185 4.9164-1.1043zm5.5546 3.1935c0-1.2837 0.62311-1.4974 2.9048-0.99624 4.3246 0.94983 4.7379-1.1837 0.56693-2.9265-3.0748-1.2847-3.5617-1.9182-3.2903-4.2803 0.28575-2.4867 0.75654-2.8041 4.5686-3.0799 3.4223-0.24761 4.25 0.01695 4.25 1.3584 0 1.2665-0.58475 1.5191-2.4387 1.0538-3.9174-0.98321-3.9299 1.1185-0.0143 2.4108 3.1994 1.0559 3.534 1.5005 3.2592 4.3306-0.29151 3.0026-0.534 3.1685-5.0562 3.4587-3.8533 0.24725-4.75-0.003717-4.75-1.3295zm15-3.9753c0-4.8333-0.24242-5.5-2-5.5-1.1 0-2-0.45-2-1s2.475-1 5.5-1 5.5 0.45 5.5 1-0.9 1-2 1c-1.7576 0-2 0.66667-2 5.5 0 4.2222-0.34848 5.5-1.5 5.5s-1.5-1.2778-1.5-5.5zm10-1v-6.5h4.5c2.475 0 4.5 0.45 4.5 1s-1.35 1-3 1c-2 0-3 0.5-3 1.5s1 1.5 3 1.5c1.65 0 3 0.45 3 1s-1.35 1-3 1c-2.6667 0-3 0.33333-3 3 0 2-0.5 3-1.5 3-1.1795 0-1.5-1.3889-1.5-6.5zm12 0c0-5.1111 0.32051-6.5 1.5-6.5s1.5 1.3889 1.5 6.5-0.32051 6.5-1.5 6.5-1.5-1.3889-1.5-6.5zm6.8615 3.224 2.0247-3.276-2.0413-3.224c-2.019-3.1887-2.0197-3.224-0.06555-3.224 1.0867 0 2.5454 0.68635 3.2416 1.5252 1.1345 1.367 1.4407 1.367 2.9512 0 0.92695-0.83888 2.4816-1.5252 3.4548-1.5252 1.6364 0 1.616 0.24244-0.27185 3.224l-2.0413 3.224 4.0493 6.552h-2.0731c-1.1402 0-2.6172-0.87123-3.2822-1.9361-1.1958-1.9148-1.224-1.9148-2.5652 0-0.74584 1.0648-2.2673 1.9361-3.3809 1.9361h-2.0249zm-50.612-12.473c11.412-0.16044 30.088-0.16044 41.5 0s2.075 0.29172-20.75 0.29172-32.162-0.13127-20.75-0.29172zm-11.924-8.2727c-8.5566-1.7387-15.643-7.819-16.896-14.497-0.99641-5.3113 1.3934-7.4814 8.2391-7.4814 4.7182 0 5.8068 0.41201 9.095 3.4424l3.7353 3.4424 4.2168-4.118c3.8815-3.7905 4.4242-4.0235 6.8249-2.9297 1.4345 0.65359 3.0244 0.93107 3.5332 0.61662 1.7627-1.0894 1.0194-9.064-1.0954-11.753-1.7234-2.1909-2.569-2.4839-5.75-1.9923-2.0512 0.31702-5.5295 1.4834-7.7295 2.5919-2.454 1.2365-6.8049 2.1986-11.257 2.4894l-7.2574 0.4739-3.465-3.674c-4.288-4.5466-6.1817-10.287-4.8881-14.817 1.7145-6.0039 8.4052-4.2681 10.197 2.6454 0.51006 1.9684 1.4076 3.0512 2.4849 2.998 0.92754-0.04583 3.9249-0.15833 6.6608-0.25 4.3833-0.14686 5.15-0.50636 6.4528-3.0258 0.81319-1.5725 2.8497-3.4271 4.5257-4.1213 2.2844-0.94623 3.056-1.9202 3.0826-3.8909 0.10934-8.1109 10.853-14.791 16.782-10.434 2.3619 1.7356 3.0418 1.8174 5.6829 0.68353 5.4141-2.3244 11.071-1.7332 14.734 1.5398 2.8345 2.5327 3.2658 3.556 3.2658 7.75 0 3.7784-0.62373 5.6474-2.8603 8.5711-3.0328 3.9645-2.9361 4.1467 2.6826 5.055 2.28 0.36859 2.9984-0.0071 3.7393-1.9558 1.1267-2.9634 10.354-12.338 12.144-12.338 0.71548 0 2.5661-1.3405 4.1125-2.9789 7.391-7.8307 23.603-5.1977 30.437 4.9433 3.2106 4.7642 3.6773 7.4199 2.2192 12.628-3.1264 11.166-14.769 15.097-29.47 9.9497-3.8479-1.3472-7.2967-2.1328-7.664-1.7456-0.36733 0.38714-0.81908 2.0539-1.0039 3.7039-0.31614 2.8226-0.11096 3.0185 3.4698 3.3137 4.3069 0.35499 5.5007 2.1208 3.8633 5.7144-0.68822 1.5105-0.73696 2.621-0.13146 2.9952 1.4877 0.91947 1.1376 5.7814-0.59441 8.2542-2.9689 4.2388-12.234 2.4651-18.693-3.5787-2.7108-2.5363-2.75-2.5418-2.75-0.38584 0 1.2029-0.45965 2.1871-1.0214 2.1871-0.56179 0-1.5301 1.1164-2.1518 2.4808-1.2589 2.763-4.503 4.243-6.006 2.74-0.54342-0.54342-3.7588-0.75466-7.2371-0.47545-7.8572 0.6307-13.195-1.5705-15.149-6.2473-0.72556-1.7365-2.0145-3.7343-2.8642-4.4396-2.0416-1.6944-4.5705-0.63748-4.5705 1.9101 0 1.1173-0.45 2.0314-1 2.0314-1.5168 0-1.2006 2.4869 0.75 5.8998 3.2867 5.7506-1.2244 8.1511-11.424 6.0786zm47.256-23.112c0.22805-2.4014 1.0283-4.8204 1.7783-5.3756 0.8661-0.64111 1.1896-2.1954 0.8866-4.2598-0.54716-3.7281-3.0977-4.8413-8.9254-3.8956-4.8524 0.78744-5.0769 1.2558-2.1211 4.4252 3.3494 3.5915 4.4159 5.8274 5.2873 11.085 0.8815 5.319 2.4995 4.2839 3.0943-1.9797zm45.668-11.572c-2.3615-0.45484-3.1531-2.2832-1-2.3096 0.90518-0.01109 0.86984-0.2561-0.12812-0.8882-2.1715-1.3754-0.31891-3.1079 3.1871-2.9805 1.755 0.0638 2.4284 0.31699 1.4964 0.56265-2.1045 0.55471-1.2345 3.3154 1.0516 3.3367 1.4262 0.01329 1.445 0.14326 0.14301 0.98469-0.94229 0.60895-1.0483 0.97507-0.28518 0.98469 2.0583 0.02595 3.5109-3.9679 2.8073-7.7184-1.0505-5.5998-5.253-14.266-6.9179-14.266-1.8718 0-11.604 2.0596-11.604 2.4557 0 0.15951 0.88703 2.2953 1.9712 4.7462 1.0842 2.4509 2.2711 7.0081 2.6377 10.127l0.66651 5.671 4.1123-0.13618c2.2909-0.07587 3.1158-0.32813 1.8623-0.56955zm-3.8438-8.446c-0.86485-1.3994 2.2482-3.8483 4.8919-3.8483 1.2921 0 1.7285 0.48833 1.3402 1.5-0.31658 0.825-0.13972 1.5 0.39301 1.5 0.53274 0 0.96862 0.45 0.96862 1 0 1.3931-6.722 1.2588-7.5938-0.1517zm-0.40624-4.6315c0-1.1185 4.9277-2.6225 5.7847-1.7655 0.79641 0.79641 0.0628 1.2979-3.0367 2.0758-1.6251 0.40787-2.748 0.28108-2.748-0.31031zm-1-3.2168c0-0.55 0.8687-1 1.9304-1 1.2179 0 2.0767-0.83048 2.3266-2.25 0.39455-2.2411 0.40026-2.2401 1.4451 0.25 0.90567 2.1584 0.75859 2.5889-1.0766 3.1503-3.2477 0.99364-4.6256 0.94887-4.6256-0.15032zm-77.349 9.532c-0.30982-0.80739-0.13297-1.7339 0.39301-2.059s0.98485 0.22302 1.0197 1.218c0.05105 1.4568 0.23946 1.371 0.96778-0.44098 0.49741-1.2375 0.5491-3.2104 0.11485-4.3843-0.7753-2.0958-0.82882-2.0844-2.9678 0.63486-2.5682 3.2649-2.8525 6.4995-0.57125 6.4995 1.002 0 1.3949-0.55264 1.0437-1.468zm-5.1127-1.4706c-0.31903-0.5162-0.0081-1.3037 0.69098-1.75 0.69907-0.4463 1.946-1.6726 2.771-2.7252 1.4141-1.8042 1.3725-1.8458-0.72708-0.72708-3.1522 1.6796-5.4871 6.1408-3.2139 6.1408 0.58246 0 0.798-0.42234 0.47897-0.93854z" fill="#f2e69e"/>
  <path d="m16 84.5v-6.5h4.3c4.7437 0 6.7 1.3139 6.7 4.5 0 2.8827-1.8689 4.5-5.2 4.5-2.1333 0-2.8 0.47619-2.8 2 0 1.1111-0.66667 2-1.5 2-1.1795 0-1.5-1.3889-1.5-6.5zm6.4182-0.10699c2.0385-0.78225 2.0385-3.0038 0-3.786-2.7426-1.0524-3.4182-0.67824-3.4182 1.893s0.67566 2.9454 3.4182 1.893zm7.2368 4.7782c-2.1967-2.4273-2.1049-7.4541 0.17375-9.5163 2.4273-2.1967 7.4541-2.1049 9.5163 0.17375 2.1967 2.4273 2.1049 7.4541-0.17375 9.5163-2.4273 2.1967-7.4541 2.1049-9.5163-0.17375zm7.4127-2.2978c1.3717-2.5631-0.203-6.8735-2.5111-6.8735-2.3965 0-3.9503 3.8405-2.6809 6.6265 1.3423 2.9461 3.6878 3.0577 5.192 0.24701zm5.9323 2.547c0-1.2232 0.65518-1.4356 2.9048-0.94145 4.2887 0.94196 4.7535-1.1772 0.63551-2.8978-2.6846-1.1217-3.5403-2.07-3.5403-3.9233 0-2.6804 1.6254-3.658 6.0818-3.658 1.8716 0 2.9182 0.51582 2.9182 1.4383 0 0.88065-0.87233 1.3653-2.25 1.25-2.7896-0.23341-3.8284 1.6781-1.1789 2.1693 2.9122 0.53991 4.4289 2.135 4.4289 4.6578 0 2.5896-1.6903 3.4845-6.5818 3.4845-2.4482 0-3.4182-0.44823-3.4182-1.5795zm15-3.9205c0-4.8333-0.24242-5.5-2-5.5-1.1 0-2-0.45-2-1s2.475-1 5.5-1 5.5 0.45 5.5 1-0.9 1-2 1c-1.7576 0-2 0.66667-2 5.5 0 4.2222-0.34848 5.5-1.5 5.5s-1.5-1.2778-1.5-5.5zm10-1v-6.5h4.5c2.475 0 4.5 0.45 4.5 1s-1.35 1-3 1c-2 0-3 0.5-3 1.5s1 1.5 3 1.5c1.65 0 3 0.45 3 1s-1.35 1-3 1c-2.6667 0-3 0.33333-3 3 0 2-0.5 3-1.5 3-1.1795 0-1.5-1.3889-1.5-6.5zm12 0c0-5.1111 0.32051-6.5 1.5-6.5s1.5 1.3889 1.5 6.5-0.32051 6.5-1.5 6.5-1.5-1.3889-1.5-6.5zm6.996 3.0064 2.1592-3.4936-2.173-2.7564c-1.955-2.4798-2.0011-2.7911-0.45941-3.1025 0.94248-0.19035 2.4226 0.36295 3.2892 1.2296 1.4308 1.4308 1.7349 1.4316 3.3074 0.0084 0.95246-0.86197 2.4832-1.4153 3.4016-1.2296 1.476 0.29846 1.4176 0.65758-0.5032 3.094l-2.173 2.7564 2.1592 3.4936c2.1407 3.4637 2.1418 3.4936 0.13431 3.4936-1.1137 0-2.6351-0.87123-3.3809-1.9361-1.3412-1.9148-1.3694-1.9148-2.5652 0-0.665 1.0648-2.142 1.9361-3.2822 1.9361h-2.0731zm-50.746-12.255c11.412-0.16044 30.088-0.16044 41.5 0s2.075 0.29172-20.75 0.29172-32.162-0.13127-20.75-0.29172zm-11.521-8.2666c-5.9614-1.0305-10.203-3.4772-13.849-7.9886-6.1452-7.604-4.1479-14 4.3698-13.992 4.5269 4e-3 9.8794 2.6294 11.875 5.8245 1.1132 1.7825 1.3548 1.6951 4.1656-1.5062 4.3379-4.9406 6.3458-5.7904 9.2245-3.9042 2.6961 1.7665 3.0529 1.4558 3.9337-3.4254 0.45025-2.4951 0.080705-4.4918-1.2941-6.9924-1.8386-3.344-2.137-3.4845-6.6971-3.1518-2.625 0.19152-6.4709 1.2333-8.5464 2.3152-4.8728 2.5398-13.908 3.4948-17.802 1.8817-3.5039-1.4514-7.807-7.2862-8.7125-11.814-0.36547-1.8273-0.1055-4.5188 0.60129-6.2252 2.2844-5.5151 8.2343-3.0969 9.637 3.9167 0.62855 3.1427 0.82113 3.2645 4.2619 2.6954 1.982-0.32784 5.2423-0.60103 7.2452-0.60708 3.0571-0.0092 3.7435-0.41685 4.2763-2.5397 0.39242-1.5635 1.9606-3.161 4.1084-4.1852 2.7159-1.2951 3.4737-2.2539 3.4737-4.3946 0-3.2079 3.9905-8.3181 8.1921-10.491 3.4298-1.7736 8.3285-1.0796 9.7019 1.3745 0.82792 1.4794 1.2561 1.4609 4.9714-0.21445 8.3176-3.7507 16.758 0.062519 17.788 8.0367 0.41559 3.2158-0.05916 4.7461-2.6978 8.6962-1.7612 2.6365-3.0342 4.9353-2.829 5.1085 0.2052 0.17319 2.0812 0.57864 4.1689 0.901 3.383 0.52236 3.8991 0.31438 4.7457-1.9122 1.0192-2.6806 9.3567-11.391 10.903-11.391 0.51336 0 3.0131-1.8 5.555-4 4.4109-3.8176 4.9267-3.9987 11.311-3.9718 8.3141 0.035012 14.522 2.9226 18.378 8.5487 3.553 5.1835 4.0923 7.6643 2.7497 12.65-2.7595 10.248-15.13 15.47-26.439 11.161-6.9261-2.6389-10.597-3.3234-10.983-2.0478-1.9041 6.3013-1.7699 6.6596 2.4949 6.6596 4.5342 0 6.1109 1.9717 4.1226 5.1555-0.86571 1.3862-0.89005 2.4336-0.09125 3.9262 1.4317 2.6751 0.27809 7.6757-2.0593 8.9266-4.4557 2.3846-13.986-0.65287-17.981-5.7305-1.8792-2.389-2.0039-2.4181-2.0039-0.46833 0 1.1436-1.5269 3.7459-3.393 5.7829-2.6099 2.8488-3.8216 3.5169-5.25 2.8942-1.0213-0.44522-5.3803-0.84933-9.6866-0.89804-7.5721-0.08564-7.9175-0.19536-10.5-3.3355-8.3884-10.2-8.0496-9.9207-9.6061-7.9059-0.78481 1.016-1.207 2.4204-0.93814 3.121s-0.22974 1.5495-1.1079 1.8865c-1.4039 0.53873-1.3203 1.095 0.69253 4.6067 3.8674 6.7472 0.59749 8.9382-10.482 7.0232zm10.271-2.5342c0-0.85231-0.71162-2.9258-1.5814-4.6077-0.93611-1.8102-1.3264-4.0741-0.95638-5.5482 0.44893-1.7887 0.26058-2.3658-0.66862-2.0486-0.71149 0.24285-1.245 1.6369-1.1856 3.0979 0.1253 3.0808-1.1913 3.5447-2.0833 0.73412-1.0606-3.3417-8.259-9.0856-11.278-8.9988-1.5109 0.04342-2.1687 0.31122-1.4618 0.59511 0.70693 0.28389 2.8266 3.5766 4.7103 7.3172s4.6285 7.7478 6.0995 8.9049c3.1952 2.5133 8.4048 2.8568 8.4048 0.55416zm-15.168-7.5043c-4.5065-7.8163-8.3745-11.28-9.9018-8.8669-1.4168 2.2385-1.109 3.9397 1.5267 8.4372 2.371 4.0457 7.2204 7.4138 10.743 7.461 1.3706 0.01837 0.91262-1.3418-2.3676-7.0312zm75.419 0.7247c0.4238-0.64389 0.6533-2.5207 0.51002-4.1707-0.21667-2.4951-0.65598-2.9569-2.6103-2.7441-1.2924 0.14074-3.4906 1.1532-4.8849 2.25-1.3943 1.0968-3.4644 1.9941-4.6002 1.9941-2.4487 0-1.4782 1.1831 2.8349 3.456 3.1398 1.6546 7.396 1.2727 8.7505-0.78528zm-27.251-2.1707c0-0.825-0.17686-1.5-0.39301-1.5s-0.65203 0.675-0.96862 1.5c-0.31658 0.825-0.13973 1.5 0.39301 1.5 0.53274 0 0.96862-0.675 0.96862-1.5zm11.463-5.9556c-0.80483-2.6742-1.4633-5.947-1.4633-7.2729 0-1.9279-0.45054-2.3466-2.25-2.0911-1.8377 0.261-2.3093 1.0525-2.5738 4.3196-0.17811 2.2-1.0602 4.815-1.9602 5.811-1.4175 1.5688-1.4411 1.9337-0.17616 2.7284 1.1154 0.7007 1.6715 0.21404 2.3549-2.061 0.81785-2.7226 2.6053-4.1725 2.6053-2.1132 0 1.0848 4.103 6.3652 4.5773 5.8909 0.19213-0.19213-0.30917-2.5373-1.114-5.2116zm-5.4633-6.5758c0-0.53274 0.675-0.96862 1.5-0.96862 1.9207 0 1.9207 0.6246 0 1.3616-0.825 0.31658-1.5 0.13973-1.5-0.39301zm13.816 8.7318c1.4122-1.132 4.5446-6.7161 4.0078-7.1449-0.17806-0.14224-1.7903-0.75342-3.5828-1.3582-3.1683-1.069-3.2264-1.0383-2.0863 1.1015 1.0364 1.9452 0.99073 2.051-0.39286 0.91011-0.86108-0.71006-1.8704-2.5056-2.243-3.99-0.64013-2.5505-2.0916-4.1694-3.7688-4.2037-1.1184-0.02284-0.92234 2.3321 0.83905 10.076 1.4578 6.4095 1.7675 6.9319 3.75 6.325 1.1885-0.36383 2.7531-1.1362 3.4769-1.7163zm-15.816-8.9852c0-3.0751 0.42853-4.0146 2.0211-4.431 1.3553-0.35442 1.7163-0.90005 1.0958-1.6564-0.50889-0.62032-1.0809-2.2529-1.2711-3.6279-0.3287-2.3762-0.65591-2.4952-6.61-2.4025-3.4453 0.05365-6.4887 0.322-6.763 0.59634-0.27433 0.27433 1.0641 2.1559 2.9743 4.1814 2.1213 2.2492 3.7172 5.1309 4.1003 7.4037 0.34496 2.0466 0.86994 4.5927 1.1666 5.658 0.52618 1.8895 0.57306 1.8909 1.9127 0.05887 0.7553-1.0329 1.3733-3.6342 1.3733-5.7806zm24 2.0464c0-1.7647-2.3121-0.15032-3.1922 2.229-0.86875 2.3484-0.84979 2.3574 1.1545 0.54351 1.1208-1.0143 2.0377-2.2619 2.0377-2.7725zm21-9.315c3.4517-1.3819 3.4186-1.3928-2.4017-0.78974-5.7868 0.59953-5.89 0.56664-5.3003-1.6885 0.70972-2.714-1.4115-12.485-3.7112-17.095-1.9918-3.9927-1.1891-4.9864 5.2095-6.4483l4.7037-1.0747-4.4342-1.2634c-4.9483-1.4099-8.8247-0.94641-12.561 1.502-3.2615 2.137-3.1748 3.3822 0.24572 3.5285 1.7022 0.07281 0.91633 0.42564-2.0627 0.92607-2.647 0.44465-6.022 1.6215-7.5 2.6153l-2.6873 1.8068 7 1.1005-4 0.69237c-4.625 0.80055-8.5 3.2159-8.5 5.2981 0 0.81458 0.94583 1.4433 2.1713 1.4433 2.489 0 5.8287 2.6672 5.8287 4.655 0 1.6903 2.1715 1.7426 3.9472 0.09501 1.0997-1.0204 1.2341-0.92856 0.73138 0.5-0.44714 1.2707-0.09278 1.75 1.2938 1.75 1.0503 0 2.1877-0.45 2.5276-1 1.0607-1.7163 2.3372-1.0934 1.8191 0.88759-0.97026 3.7103 10.616 5.3873 17.681 2.5591zm0.25-3.1524c-2.3615-0.45484-3.1531-2.2832-1-2.3096 0.83588-0.01024 0.75305-0.34154-0.25-1-1.3333-0.87528-1.3333-1.0941 0-1.9694 0.825-0.54158 2.4-0.95605 3.5-0.92105 1.1 0.035 1.4628 0.28218 0.80618 0.5493-1.6715 0.67999-0.442 3.3532 1.5508 3.3718 1.4262 0.01329 1.445 0.14326 0.14301 0.98469-0.825 0.53316-1.0275 0.97626-0.45 0.98469 1.8816 0.02744 3.45-2.3248 3.45-5.1742 0-3.595-4.8844-15.829-6.5794-16.479-1.2079-0.4635-12.421 1.4437-12.421 2.1126 0 0.16609 0.94388 2.4358 2.0975 5.0437 1.1581 2.6181 2.1658 7.15 2.25 10.119l0.1525 5.3772 4.5-0.12806c2.475-0.07043 3.4875-0.32308 2.25-0.56143zm-3.25-9.1873c0-1.8956 1.8281-3.107 4.6888-3.107 0.94489 0 1.3062 0.57072 0.94959 1.5-0.31658 0.825-0.13972 1.5 0.39301 1.5 0.53274 0 0.96862 0.45 0.96862 1s-1.575 1-3.5 1c-2.7674 0-3.5-0.39624-3.5-1.893zm-1-3.882c0-0.99286 5.1316-2.4124 5.9167-1.6367 0.66462 0.65669-0.22215 1.1993-3.1687 1.9388-1.6138 0.40504-2.748 0.28034-2.748-0.30214zm-1-3.225c0-0.55 0.8687-1 1.9304-1 1.2179 0 2.0767-0.83048 2.3266-2.25 0.39455-2.2411 0.40026-2.2401 1.4451 0.25 0.90567 2.1584 0.75859 2.5889-1.0766 3.1503-3.2477 0.99364-4.6256 0.94887-4.6256-0.15032zm-76.93 8.75c0.06677-2.1375 0.11104-2.15 0.88542-0.25 0.75441 1.851 0.86764 1.8005 1.5199-0.67756 0.38765-1.4727 0.28307-3.4312-0.2324-4.3523-0.82916-1.4816-1.1854-1.3591-3.0902 1.0624-1.1842 1.5054-2.153 3.5764-2.153 4.6023 0 2.706 2.9854 2.3318 3.0703-0.38486zm-5.5323-0.68854c-0.31903-0.5162-0.0081-1.3037 0.69098-1.75 0.69907-0.4463 1.946-1.6726 2.771-2.7252 1.4141-1.8042 1.3725-1.8458-0.72708-0.72708-3.1522 1.6796-5.4871 6.1408-3.2139 6.1408 0.58246 0 0.798-0.42234 0.47897-0.93854zm95.439-7.355c-1.1902-1.7635-1.9291-2.4658-1.642-1.5605 0.28712 0.90525 1.1166 3.6053 1.8434 6 1.2072 3.9781 1.349 4.1129 1.642 1.5605 0.19047-1.6596-0.55777-4.0951-1.8434-6z" fill="#abadaa"/>
  <path d="m16 84.5v-6.5h4.3c4.7437 0 6.7 1.3139 6.7 4.5 0 2.8827-1.8689 4.5-5.2 4.5-2.1333 0-2.8 0.47619-2.8 2 0 1.1111-0.66667 2-1.5 2-1.1795 0-1.5-1.3889-1.5-6.5zm7.5-2c0-1.3127-0.77318-2.1098-2.25-2.3196-1.8457-0.26213-2.25 0.15469-2.25 2.3196s0.40432 2.5817 2.25 2.3196c1.4768-0.20974 2.25-1.0068 2.25-2.3196zm6.155 6.6713c-2.1967-2.4273-2.1049-7.4541 0.17375-9.5163 2.4273-2.1967 7.4541-2.1049 9.5163 0.17375 2.1967 2.4273 2.1049 7.4541-0.17375 9.5163-2.4273 2.1967-7.4541 2.1049-9.5163-0.17375zm7.145-1.3713c3.0257-3.0257-0.17225-9.3091-3.6338-7.1399-2.0974 1.3143-2.6958 4.9968-1.1205 6.8949 1.46 1.7591 3.1529 1.8464 4.7543 0.24496zm6.8667 2.5333c-1.4887-1.4887-0.502-2.2504 2.2121-1.7076 4.3061 0.86122 4.7808-1.3233 0.66159-3.0445-3.6727-1.5346-4.6157-4.1059-2.3403-6.3813 1.6868-1.6868 7.8-1.5604 7.8 0.16133 0 0.895-0.81623 1.2053-2.3828 0.90583-3.9036-0.74623-4.0178 1.5386-0.15753 3.1516 3.6727 1.5346 4.6157 4.1059 2.3403 6.3813-1.2757 1.2757-7.0146 1.6521-8.1333 0.53333zm14.333-4.8333c0-4.8333-0.24242-5.5-2-5.5-1.1 0-2-0.45-2-1s2.475-1 5.5-1 5.5 0.45 5.5 1-0.9 1-2 1c-1.7576 0-2 0.66667-2 5.5 0 4.2222-0.34848 5.5-1.5 5.5s-1.5-1.2778-1.5-5.5zm10-1v-6.5h4.5c2.475 0 4.5 0.45 4.5 1s-1.35 1-3 1c-2 0-3 0.5-3 1.5s1 1.5 3 1.5c1.65 0 3 0.45 3 1s-1.35 1-3 1c-2.6667 0-3 0.33333-3 3 0 2-0.5 3-1.5 3-1.1795 0-1.5-1.3889-1.5-6.5zm12 0c0-5.1111 0.32051-6.5 1.5-6.5s1.5 1.3889 1.5 6.5-0.32051 6.5-1.5 6.5-1.5-1.3889-1.5-6.5zm6.9319 3.5956c2.5439-3.5726 2.5439-3.6186 0-7.1913l-2.0681-2.9044h2.0329c1.1181 0 2.5381 0.94395 3.1555 2.0977l1.1226 2.0977 1.4693-2.0977c0.80809-1.1537 2.3744-2.0977 3.4806-2.0977 2.0022 0 2.0019 0.01331-0.0567 2.9044-2.5439 3.5726-2.5439 3.6186 0 7.1913 2.0193 2.8358 2.0221 2.9044 0.12197 2.9044-1.0704 0-2.6082-0.99713-3.4174-2.2158l-1.4713-2.2158-1.1859 2.2158c-0.65224 1.2187-2.1007 2.2158-3.2188 2.2158h-2.0329zm-50.682-12.844c11.412-0.16044 30.088-0.16044 41.5 0s2.075 0.29172-20.75 0.29172-32.162-0.13127-20.75-0.29172zm-9.6281-8.3531c-10.879-1.5881-18.622-8.3648-18.622-16.297 0-4.2826 1.2719-5.0718 8.2018-5.0889 4.0706-0.01009 5.2117 0.48248 8.5 3.6691l3.7982 3.6807 4-3.9849c3.9409-3.926 5.3093-4.2691 9.6769-2.4263 1.3812 0.58279 1.7972-0.0946 2.3592-3.8421 0.53579-3.5729 0.2664-5.2537-1.2548-7.8289-1.7004-2.8785-2.433-3.2698-5.9954-3.2014-2.2321 0.04284-6.3874 1.0798-9.234 2.3045-6.3064 2.7129-13.615 3.6636-17.268 2.2463-4.5198-1.7532-8.7834-8.6248-8.7834-14.156 0-5.7969 1.8276-7.8276 5.5275-6.1418 1.6908 0.77039 2.8277 2.4703 3.6096 5.397l1.1414 4.2724 5.1108-0.2861c7.7098-0.4316 9.1657-0.9416 10.396-3.6418 0.62045-1.3617 2.4445-3.1566 4.0535-3.9887 2.1494-1.1115 3.1119-2.5069 3.6285-5.2603 1.01-5.3838 6.488-10.323 11.449-10.323 2.4179 0 4.3825 0.67265 5.4681 1.8722 1.6551 1.8288 1.7802 1.8274 5.405-0.063065 6.8073-3.5502 15.296-0.78297 17.046 5.5572 1.3286 4.8119 0.45494 7.9344-3.5192 12.577-3.4487 4.0291-3.4556 4.0564-1.0192 4.0564 1.3491 0 3.8592 0.28125 5.5779 0.625 2.5207 0.50414 3.125 0.2959 3.125-1.0769 0-0.93606 1.2934-2.9954 2.8743-4.5762 1.5809-1.5809 3.1495-3.5916 3.4859-4.4682 0.33641-0.87667 2.2981-2.2986 4.3593-3.1598 2.0612-0.86123 4.3449-2.4185 5.0748-3.4606 4.8545-6.9308 19.806-6.4315 27.545 0.91979 5.6446 5.3617 7.1189 11.771 4.2739 18.58-3.0045 7.1907-14.974 11.299-23.648 8.1167-5.8628-2.1508-12.113-3.6853-12.684-3.1141-0.25051 0.25051-0.81873 2.0661-1.2627 4.0347l-0.80725 3.5792h4.3273c3.4828 0 4.4541 0.39966 4.9773 2.048 0.3575 1.1264 0.09667 2.7147-0.57964 3.5296-0.9306 1.1213-0.95722 2.0795-0.10946 3.9402 1.9151 4.2031-1.2925 9.4978-5.7311 9.4603-3.599-0.030459-10.124-3.2025-12.99-6.3153-2.4557-2.6666-4.1046-2.6913-4.1046-0.061516 0 0.81575-0.45016 2.0267-1.0004 2.691-0.55019 0.66429-1.8421 2.3101-2.8709 3.6574-1.7623 2.3079-2.0085 2.3592-4.2548 0.88736-1.7584-1.1522-3.0392-1.3143-4.8791-0.61754-3.1904 1.2081-10.661 0.22921-13.763-1.8035-1.3192-0.86435-3.0352-3.0953-3.8133-4.9577-1.7471-4.1815-4.8947-6.1376-7.0276-4.3675-0.81487 0.67628-1.2548 1.8206-0.97761 2.5429 0.27719 0.72234-0.23925 1.7293-1.1476 2.2376-1.497 0.83774-1.4228 1.361 0.79153 5.5876 2.4016 4.584 2.4102 4.6877 0.50202 6.1022-1.0676 0.79139-2.1926 1.384-2.5 1.317-0.30738-0.06707-3.204-0.50808-6.4369-0.98004zm8.3781-2.4477c0-0.85231-0.71162-2.9258-1.5814-4.6077-0.93611-1.8102-1.3264-4.0741-0.95638-5.5482 0.44893-1.7887 0.26058-2.3658-0.66862-2.0486-0.71149 0.24285-1.245 1.6369-1.1856 3.0979 0.05942 1.461-0.27808 2.6563-0.75 2.6563-0.47192 0-0.85804-0.46005-0.85804-1.0223s-1.8573-3.0373-4.1274-5.5c-3.1532-3.4208-4.8465-4.4777-7.1743-4.4777h-3.047l2.064 2.25c1.1352 1.2375 3.2237 4.5681 4.6412 7.4013 1.4174 2.8332 3.7778 6.0957 5.2452 7.25 3.1898 2.5091 8.3983 2.8496 8.3983 0.54899zm-15.168-7.5043c-4.5065-7.8163-8.3745-11.28-9.9018-8.8669-1.4168 2.2385-1.109 3.9397 1.5267 8.4372 2.371 4.0457 7.2204 7.4138 10.743 7.461 1.3706 0.01837 0.91262-1.3418-2.3676-7.0312zm40.523 2.4712c0.89916-0.34504 1.2696-1.2317 0.90818-2.1736-0.44782-1.167-0.17814-1.425 1.0122-0.96817 1.1971 0.45939 1.4603 0.19965 1.0037-0.99044-0.38092-0.99265-0.21365-1.3626 0.43487-0.96178 0.58139 0.35932 1.5964-0.65836 2.2639-2.2699 1.2564-3.0332 0.70489-7.82-1.3463-11.686-1.8842-3.5512-8.019-9.7901-10.911-11.096-4.2919-1.9379-3.3838-3.4934 1.6028-2.7456 4.8064 0.72076 10.603-1.169 14.332-4.6723 5.3869-5.0607 5.5701-13.651 0.34887-16.351-8.6215-4.4584-18.863 1.89-20.654 12.802-0.41304 2.5174-1.0575 3.6383-1.9049 3.3131-2.0639-0.792-2.5323 2.207-0.56303 3.6049 2.2541 1.6001 4.1168 5.041 4.1168 7.6046 0 2.2417-2.7062 3.6557-4.3767 2.2869-1.843-1.5101-1.5129 19.075 0.34203 21.329 2.5215 3.064 9.2569 4.56 13.39 2.974zm-5.6462-36.042c-0.38987-0.38987-0.70885-2.0431-0.70885-3.6738 0-4.1422 7.538-11.702 11.668-11.702 3.4572 0 5.3562 1.604 5.2682 4.45-0.0598 1.934-0.11456 1.9227-0.96778-0.2-2.2114-5.5017-13.059-0.13967-13.463 6.6549-0.16306 2.7409 0.10296 3.1692 1.7077 2.7495 1.1709-0.30619 1.7528-0.04726 1.5154 0.67423-0.44621 1.356-3.9749 2.0919-5.0199 1.0468zm15.291 35.565c0-0.58246-0.45-0.7809-1-0.44098-1.2814 0.79194-1.2814 1.5 0 1.5 0.55 0 1-0.47656 1-1.059zm25.251-1.2703c0.4238-0.64389 0.6533-2.5207 0.51002-4.1707-0.21667-2.4951-0.65598-2.9569-2.6103-2.7441-1.2924 0.14074-3.4906 1.1532-4.8849 2.25-1.3943 1.0968-3.4644 1.9941-4.6002 1.9941-2.4487 0-1.4782 1.1831 2.8349 3.456 3.1398 1.6546 7.396 1.2727 8.7505-0.78528zm-26.631-1.1228c0.8161-2.1267-0.63103-4.1386-1.7297-2.4046-1.1792 1.861-1.1062 3.8568 0.14107 3.8568 0.56726 0 1.2821-0.65345 1.5886-1.4521zm10.843-7.0035c-0.80483-2.6742-1.4633-5.947-1.4633-7.2729 0-1.9279-0.45054-2.3466-2.25-2.0911-1.8377 0.261-2.3093 1.0525-2.5738 4.3196-0.17811 2.2-1.0602 4.815-1.9602 5.811-1.4175 1.5688-1.4411 1.9337-0.17616 2.7284 1.1154 0.7007 1.6715 0.21404 2.3549-2.061 0.81785-2.7226 2.6053-4.1725 2.6053-2.1132 0 1.0848 4.103 6.3652 4.5773 5.8909 0.19213-0.19213-0.30917-2.5373-1.114-5.2116zm-5.4633-6.5758c0-0.53274 0.675-0.96862 1.5-0.96862 1.9207 0 1.9207 0.6246 0 1.3616-0.825 0.31658-1.5 0.13973-1.5-0.39301zm13.816 8.7318c1.4122-1.132 4.5446-6.7161 4.0078-7.1449-0.17806-0.14224-1.7903-0.75342-3.5828-1.3582-3.1683-1.069-3.2264-1.0383-2.0863 1.1015 1.0364 1.9452 0.99073 2.051-0.39286 0.91011-0.86108-0.71006-1.8704-2.5056-2.243-3.99-0.64013-2.5505-2.0916-4.1694-3.7688-4.2037-1.1184-0.02284-0.92234 2.3321 0.83905 10.076 1.4578 6.4095 1.7675 6.9319 3.75 6.325 1.1885-0.36383 2.7531-1.1362 3.4769-1.7163zm-52.816-2.2004c0.68469-0.825 1.0199-1.5 0.74489-1.5s-1.0602 0.675-1.7449 1.5-1.0199 1.5-0.74489 1.5 1.0602-0.675 1.7449-1.5zm35.608-0.25c0.73064-0.9625 1.3428-3.1757 1.3602-4.9182 0.042324-4.2163 0.93573-6.3318 2.674-6.3318 1.121 0 1.1967-0.43263 0.35177-2.0113-0.59203-1.1062-0.94536-2.7937-0.78518-3.75 0.24592-1.4682-0.64232-1.7789-5.7088-1.9973-8.4891-0.36587-9.8326 0.78425-5.7998 4.965 3.7046 3.8404 5.2998 7.5604 5.2998 12.359 0 3.842 0.65112 4.2627 2.608 1.6849zm-27.608 0.37244c0-0.20766-0.7875-0.99516-1.75-1.75-1.5861-1.2439-1.6214-1.2085-0.37756 0.37756 1.3064 1.6657 2.1276 2.1955 2.1276 1.3724zm53-4.8608c0-1.7647-2.3121-0.15032-3.1922 2.229-0.86875 2.3484-0.84979 2.3574 1.1545 0.54351 1.1208-1.0143 2.0377-2.2619 2.0377-2.7725zm-8-5.9605c0-0.59441-0.7875-1.6785-1.75-2.4092-1.6667-1.2652-1.6667-1.33 0-1.3602 2.1828-0.03967 2.3103-2.8796 0.16615-3.7024-1.2771-0.49008-1.3255-0.77449-0.25-1.4686 2.0516-1.3241-1.0755-3.0515-4.1662-2.3015-1.375 0.33369-4.3 0.60452-6.5 0.60184-3.3084-4e-3 -3.5677 0.12279-1.5 0.7335 2.0454 0.60412 2.4407 1.2704 2.1741 3.6644-0.17923 1.6093-0.01101 2.6111 0.37382 2.2263 0.95014-0.95014 8.4116 2.9455 9.1056 4.7541 0.60263 1.5704 2.3465 1.0218 2.3465-0.73821zm29-3.3546c3.4517-1.3819 3.4186-1.3928-2.4017-0.78974-5.7868 0.59953-5.89 0.56664-5.3003-1.6885 0.70972-2.714-1.4115-12.485-3.7112-17.095-1.9918-3.9927-1.1891-4.9864 5.2095-6.4483l4.7037-1.0747-4.4342-1.2634c-4.9483-1.4099-8.8247-0.94641-12.561 1.502-3.2615 2.137-3.1748 3.3822 0.24572 3.5285 1.7022 0.07281 0.91633 0.42564-2.0627 0.92607-2.647 0.44465-6.022 1.6215-7.5 2.6153l-2.6873 1.8068 7 1.1005-4 0.69237c-4.625 0.80055-8.5 3.2159-8.5 5.2981 0 0.81458 0.94583 1.4433 2.1713 1.4433 2.489 0 5.8287 2.6672 5.8287 4.655 0 1.6903 2.1715 1.7426 3.9472 0.09501 1.0997-1.0204 1.2341-0.92856 0.73138 0.5-0.44714 1.2707-0.09278 1.75 1.2938 1.75 1.0503 0 2.1877-0.45 2.5276-1 1.0607-1.7163 2.3372-1.0934 1.8191 0.88759-0.97026 3.7103 10.616 5.3873 17.681 2.5591zm-91-2.6144c2.475-1.1681 6.2779-2.3957 8.451-2.728 3.1533-0.4822 4.6251-1.4885 7.29-4.9843 3.7836-4.9634 3.7687-6.4821-0.06807-6.9363-2.4567-0.29083-2.6729-0.027953-2.6729 3.25 0 5.9141-5.8525 9.8589-9 6.0664-0.88467-1.066-3.2253-1.5-8.0891-1.5-6.4812 0-7.0288 0.1846-10.324 3.4801-3.0883 3.0883-3.2891 3.5915-1.7833 4.4696 2.9607 1.7266 11.405 1.1439 16.197-1.1175zm18-1.8322c-0.5887-1.1-1.5743-2-2.1902-2s-0.30532 0.9 0.69017 2 1.9811 2 2.1902 2-0.10147-0.9-0.69017-2zm78.777 0.4433c2.8535-1.9987 2.8949-6.1695 0.13346-13.443-3.309-8.7161-3.6379-8.8953-12.743-6.9426l-4.9307 1.0574 1.922 3.9781c2.1795 4.511 4.2565 14.426 3.3346 15.917-1.0324 1.6705 9.8034 1.1703 12.284-0.56709zm-6.4776-0.78256c0.35051-0.91341 0.20141-1.6607-0.33132-1.6607-0.53274 0-0.96862-0.45-0.96862-1 0-1.6436 2.5368-1.1363 5 1 1.2683 1.1 1.8997 2.0061 1.403 2.0137-0.49666 0.0075-1.9914 0.30484-3.3217 0.66074-1.9745 0.52826-2.3016 0.34212-1.7814-1.0137zm1.9709-4.2649c0.3323-0.33229 1.1948-0.36782 1.9167-0.07895 0.79773 0.31923 0.56078 0.55618-0.60417 0.60417-1.0542 0.04342-1.6448-0.19293-1.3125-0.52522zm-4.2708-2.8606c0-1.4469 2.8962-3.5352 4.9029-3.5352 0.5689 0 0.77534 0.675 0.45876 1.5-0.31659 0.825-0.0509 1.5 0.5904 1.5s0.88789 0.45 0.54797 1c-0.99806 1.6149-6.5 1.2215-6.5-0.46482zm4-0.53518c0-0.55-0.45-1-1-1s-1 0.45-1 1 0.45 1 1 1 1-0.45 1-1zm-5-3.9809c0-0.56048 1.425-1.0191 3.1667-1.0191 3.6413 0 3.5093 0.43653-0.41667 1.3784-1.6325 0.39165-2.75 0.24564-2.75-0.35932zm-1-2.9121c0-0.60884 1.1731-1.107 2.607-1.107 1.9453 0 2.4558-0.39393 2.0114-1.5519-0.34149-0.88992-0.17385-1.2913 0.39301-0.94098 1.4981 0.92585 1.1823 3.4929-0.42966 3.4929-0.78002 0-2.13 0.27314-3 0.60699-0.86999 0.33384-1.5818 0.10884-1.5818-0.5zm-76.223 10.336c2.2411-1.5698 3.1366-6.7603 1.3562-7.8607-1.6689-1.0314-6.7548 6.6034-5.6209 8.4381 0.83317 1.3481 1.6793 1.2335 4.2647-0.57737zm33.953 0.86371c-0.97297-0.25354-2.323-0.23687-3 0.03705-0.67703 0.27392 0.11903 0.48137 1.769 0.46099s2.2039-0.2445 1.231-0.49804zm-39.223-3.2941c-0.33552-0.54288 0.30817-1.9726 1.4304-3.1772 2.8195-3.0264 1.6262-3.7148-1.4424-0.83202-2.8226 2.6517-3.2623 4.9963-0.93704 4.9963 0.85746 0 1.2845-0.44417 0.94898-0.98705zm94.469-7.3065c-1.1902-1.7635-1.9291-2.4658-1.642-1.5605 0.28712 0.90525 1.1166 3.6053 1.8434 6 1.2072 3.9781 1.349 4.1129 1.642 1.5605 0.19047-1.6596-0.55777-4.0951-1.8434-6zm-74.116-6.9673c1.9057-1.9057 1.2784-4.7186-1.3158-5.9006-4.9323-2.2473-12.545 3.394-12.545 9.2963 0 2.4924 0.37586 2.8651 2.8892 2.8651 1.5891 0 3.9423 0.85276 5.2295 1.895l2.3403 1.895 1.1314-4.4559c0.62227-2.4507 1.644-4.9685 2.2705-5.595z" fill="#a79c6c"/>
  <path d="m16 84.5v-6.5h4.3c4.7437 0 6.7 1.3139 6.7 4.5 0 2.8827-1.8689 4.5-5.2 4.5-2.1333 0-2.8 0.47619-2.8 2 0 1.1111-0.66667 2-1.5 2-1.1795 0-1.5-1.3889-1.5-6.5zm7.5-2c0-1.3127-0.77318-2.1098-2.25-2.3196-1.8457-0.26213-2.25 0.15469-2.25 2.3196s0.40432 2.5817 2.25 2.3196c1.4768-0.20974 2.25-1.0068 2.25-2.3196zm6.5 6.5c-2.557-2.557-2.557-6.443 0-9 1.1-1.1 3.125-2 4.5-2 5.5811 0 8.4608 7.0392 4.5 11-1.1 1.1-3.125 2-4.5 2s-3.4-0.9-4.5-2zm6.8-1.2c3.0257-3.0257-0.17225-9.3091-3.6338-7.1399-2.0974 1.3143-2.6958 4.9968-1.1205 6.8949 1.46 1.7591 3.1529 1.8464 4.7543 0.24496zm6.8667 2.5333c-1.4284-1.4284-0.52317-1.915 2.8333-1.5231 4.6036 0.53744 4.6036-1.4512 0-3.3747-3.6207-1.5128-4.5374-3.9982-2.3-6.2356 1.6623-1.6623 7.8-1.5625 7.8 0.12681 0 0.90541-0.95281 1.187-3 0.8865-4.1415-0.60784-3.8277 1.414 0.5 3.2222 3.6333 1.5181 4.5659 4.0986 2.3 6.3644-1.2757 1.2757-7.0146 1.6521-8.1333 0.53333zm14.333-4.8333c0-4.8333-0.24242-5.5-2-5.5-1.1 0-2-0.45-2-1s2.475-1 5.5-1 5.5 0.45 5.5 1-0.9 1-2 1c-1.7576 0-2 0.66667-2 5.5 0 4.2222-0.34848 5.5-1.5 5.5s-1.5-1.2778-1.5-5.5zm10-1v-6.5h4.5c2.475 0 4.5 0.45 4.5 1s-1.35 1-3 1c-2 0-3 0.5-3 1.5s1 1.5 3 1.5c1.65 0 3 0.45 3 1s-1.35 1-3 1c-2.6667 0-3 0.33333-3 3 0 2-0.5 3-1.5 3-1.1795 0-1.5-1.3889-1.5-6.5zm12 0c0-5.1111 0.32051-6.5 1.5-6.5s1.5 1.3889 1.5 6.5-0.32051 6.5-1.5 6.5-1.5-1.3889-1.5-6.5zm6.9319 3.5956c2.5439-3.5726 2.5439-3.6186 0-7.1913l-2.0681-2.9044h2.0329c1.1181 0 2.5666 0.99713 3.2188 2.2158l1.1859 2.2158 1.4713-2.2158c0.8092-1.2187 2.347-2.2158 3.4174-2.2158 1.9002 0 1.8973 0.06858-0.12197 2.9044-2.5439 3.5726-2.5439 3.6186 0 7.1913 2.0193 2.8358 2.0221 2.9044 0.12197 2.9044-1.0704 0-2.6082-0.99713-3.4174-2.2158l-1.4713-2.2158-1.1859 2.2158c-0.65224 1.2187-2.1007 2.2158-3.2188 2.2158h-2.0329zm-50.682-12.844c11.412-0.16044 30.088-0.16044 41.5 0s2.075 0.29172-20.75 0.29172-32.162-0.13127-20.75-0.29172zm-14.005-9.2283c-6.8656-1.6291-14.245-9.1025-14.245-14.427 0-4.3057 1.0432-5.4797 5.4569-6.1416 4.8218-0.72307 8.5421 0.74895 12.441 4.9225l2.3977 2.5667 4.1023-4.02c4.04-3.959 5.427-4.3086 9.7913-2.4684 1.3496 0.56907 1.8239-0.0066 2.3601-2.8648 2.0918-11.15-5.2969-15.738-16.22-10.071-5.6432 2.9278-13.654 4.1192-17.546 2.6096-4.5198-1.7532-8.7834-8.6248-8.7834-14.156 0-5.2188 1.7113-7.5162 4.8555-6.5183 1.9221 0.61005 5.1466 6.0636 5.1422 8.697-0.0017 1.0343 1.6189 1.2719 6.9484 1.0188 6.7257-0.31935 7.0164-0.44144 8.9807-3.7707 1.371-2.3237 3.0194-3.6385 5.0776-4.0502 2.3593-0.47186 2.9188-1.0152 2.4774-2.4059-0.92036-2.8998 2.1315-8.7371 5.7079-10.918 4.2573-2.5956 8.9734-2.6078 11.307-0.029166 1.1155 1.2326 2.227 1.6651 2.905 1.1303 0.60401-0.47638 2.7564-1.4 4.7831-2.0525 7.2186-2.3241 14.35 1.4834 14.845 7.9257 0.35937 4.681-0.02875 5.8459-3.4342 10.307l-3.4047 4.4604 4.9374 0.65498c5.5888 0.74139 6.872 0.28233 6.872-2.4586 0-1.0549 1.1075-2.6436 2.461-3.5304s2.7201-2.4288 3.0368-3.4266c0.31667-0.99772 2.2369-2.6023 4.2671-3.5657 2.0303-0.96342 4.4958-2.7743 5.4789-4.0241 3.8285-4.8672 14.696-5.7103 22.391-1.737 5.631 2.9077 10.365 9.5019 10.365 14.437 0 5.6538-3.0595 10.986-7.8482 13.677-4.8705 2.7374-15.25 3.2227-19.785 0.92516-1.5767-0.79883-4.5412-1.7555-6.5877-2.1259-3.4789-0.6297-3.7608-0.49204-4.3335 2.1164-0.33692 1.5344-0.78587 3.3524-0.99767 4.0399-0.26189 0.85008 0.84543 1.25 3.4611 1.25 4.8085 0 7.0623 2.2152 5.2334 5.1437-0.68055 1.0897-0.96949 2.9657-0.64209 4.1688 0.5193 1.9082 0.4552 1.9641-0.50216 0.43745-1.4293-2.2792-3.1425-2.2109-6.2709 0.25-3.5036 2.7559-4.1453 2.5091-1.1817-0.45454 1.35-1.35 2.4614-3.0375 2.4699-3.75 0.01117-0.94523 0.26502-0.90068 0.93895 0.16478 0.79047 1.2497 1.2208 1.1913 2.9847-0.40499 1.1336-1.0259 2.061-2.2455 2.061-2.7102 0-1.045-3.6756-1.1271-4.2528-0.095012-0.23069 0.4125-0.28231 0.1875-0.11472-0.5 0.26988-1.1071-2.5293-1.6872-7.352-1.5237-0.67072 0.02274-1.5189-0.91887-1.8848-2.0925-0.65255-2.0929-2.159-3.5881-3.6457-3.6185-0.4125-0.008422-0.77852 1.4472-0.81339 3.2347-0.05896 3.0228-0.12854 3.0875-0.99524 0.92576-1.6038-4.0003-4.3606-2.3533-4.9747 2.9722-0.29336 2.5438-1.1196 5.3315-1.8361 6.1948-1.5317 1.8455-0.54511 4.0304 1.4706 3.2568 1.7526-0.67253 1.8492 1.9338 0.14885 4.0143-4.4303 5.4208-4.6164 5.5198-7.1969 3.829-1.9536-1.28-2.8456-1.3567-4.6359-0.39854-2.7746 1.4849-10.028 0.58446-13.472-1.6725-1.3971-0.91539-3.1556-3.1373-3.9078-4.9376-2.4107-5.7697-8.537-6.7708-8.537-1.3951 0 0.98682-0.5625 1.9857-1.25 2.2198-0.92021 0.31328-0.67907 1.5601 0.914 4.7257 1.1902 2.3651 1.9296 4.9111 1.643 5.6578-0.57647 1.5023-8.4384 1.715-14.062 0.3805zm13.046-0.64665c0.3431-0.3431-0.27208-2.3799-1.3671-4.5263s-1.8632-4.9031-1.7072-6.1262c0.43127-3.38-1.6376-3.5326-2.2643-0.16702l-0.54803 2.9433-1.6869-3.1712c-1.922-3.6132-6.086-6.8814-10.028-7.8708-2.6566-0.66677-3.7966 0.73935-1.6666 2.0557 0.56231 0.34753 2.3385 3.239 3.947 6.4255 1.6086 3.1865 4.333 6.9787 6.0543 8.4272 2.8877 2.4298 7.7846 3.4918 9.2667 2.0097zm-12.094-3.1262c-1.0669-1.5125-3.122-5.0963-4.5667-7.9641-3.9-7.741-9.6296-9.8028-9.6296-3.4652 0 4.2057 3.8705 9.3531 8.97 11.929 6.1618 3.1129 7.6729 2.9683 5.2264-0.5zm47.736-6.1911c-0.045119-1.0392-0.42942-0.8088-1.1528 0.69113-0.59682 1.2375-1.7774 2.25-2.6234 2.25-1.2293 0-1.166-0.27224 0.31529-1.3554 1.3035-0.95317 1.6215-1.9176 1.0713-3.25-0.70808-1.7149-0.89423-1.6338-1.9625 0.85534-0.91794 2.1388-1.4469 2.4833-2.3802 1.55-1.5117-1.5117-1.5518-2.8781-0.074951-2.55 0.61875 0.1375 1.5872-1.0804 2.1522-2.7065 1.6148-4.6479-0.62465-11.266-5.5004-16.254l-4.1154-4.2104 2.728-1.0372c4.9019-1.8637 10.338-2.2872 13.97-1.0884 3.2484 1.0721 3.5122 1.4383 2.974 4.1294-0.47668 2.3834-0.29388 2.8391 0.94774 2.3626 1.912-0.7337 7.2821 1.9535 8.6019 4.3044 0.92244 1.6431 1.027 1.6343 1.7122-0.14459 0.48768-1.2662 0.17057-2.3035-0.95605-3.1273-1.5378-1.1244-1.4911-1.2836 0.53136-1.8125 2.1669-0.56666 2.1753-0.62607 0.36831-2.6227-1.4053-1.5528-1.5118-2.0506-0.44384-2.0747 0.97563-0.02209 0.81178-0.48048-0.53614-1.5-2.1919-1.6579-5.6856-1.9269-7.1089-0.54745-0.57926 0.56142-2.9893 0.51159-6.1756-0.12769-4.2005-0.84276-6.5386-0.71862-11.919 0.6328-6.5429 1.6435-6.7386 1.6357-8.723-0.34872l-2.03-2.03 4.9486 0.54525c12.679 1.3969 23.598-12.534 15.876-20.256-2.2841-2.2841-3.1831-2.5217-8.0221-2.1204-4.2412 0.35171-6.0999 1.0748-8.3815 3.2607-3.5378 3.3894-6.024 8.3549-6.024 12.031 0 1.9681-0.40023 2.5523-1.468 2.1425-2.8512-1.0941-2.6488 1.4523 0.39054 4.9139 3.3792 3.8486 3.8796 6.5248 1.5774 8.4354-1.8845 1.564-3.7651 0.18847-5.5137-4.0332-0.6759-1.6318-1.6243-2.9668-2.1076-2.9668-1.3196 0-1.1137 0.56665 1.7096 4.7056 2.4415 3.5792 2.5501 4.2591 1.9149 11.989-0.82767 10.072-0.23417 12.102 4.0611 13.897 5.7909 2.4196 12.839 1.6243 11.709-1.3212-0.41031-1.0692 0.63829-0.72205 3.3131 1.097 3.6215 2.4628 4.0067 2.5341 5.1634 0.95598 0.6875-0.93795 1.2195-2.4069 1.1823-3.2642zm-15.682-32.721c-2.4342-0.98222-1.3189-5.8972 2.2966-10.121 5.4621-6.3813 13.583-6.8935 13.383-0.84412-0.06607 1.9999-0.11556 2.012-0.82461 0.20216-1.6586-4.2334-7.0472-3.5042-11.812 1.5985-2.7147 2.9075-2.5847 8.5199 0.18558 8.01 1.0177-0.18732 1.452 0.11933 1.0623 0.75-0.68985 1.1162-2.1797 1.2567-4.2913 0.4046zm-14.537 25.143 2.7872 1.7599-2.1325-2.2252c-2.4932-2.6016-5.1971-2.1456-7.2515 1.223-1.3583 2.2272-1.34 2.2253 1.2153-0.1282 2.5329-2.3329 2.6602-2.3478 5.3814-0.62944zm29.952 1.2688c0.43069-0.6875 1.0197-3.2631 1.309-5.7235 0.39381-3.3496 1.0979-4.7579 2.8025-5.6055 2.0258-1.0073 2.1044-1.275 0.71308-2.4296-0.85994-0.71369-1.4344-2.2182-1.2766-3.3433 0.37682-2.6866-4.4858-3.7741-10.828-2.4215l-4.5904 0.97903 3.543 3.6472c4.0492 4.1683 5.6621 7.7893 5.6621 12.712 0 3.4724 1.2279 4.479 2.665 2.1849zm46.835-14.304c2.9702-1.4489 2.9481-1.4589-2.2221-1.0053-2.8722 0.25197-5.4862 0.03082-5.809-0.49145-0.34487-0.55802 1.8198-0.94959 5.2496-0.94959 6.0756 0 10.282-1.8641 10.282-4.5567 0-0.79381 0.45-1.4433 1-1.4433 1.7478 0 1.0694-7.374-0.98904-10.75-2.3284-3.8189-2.9985-4.1025-2.3625-1 0.25368 1.2375-0.25792 0.68952-1.1369-1.2177-2.4096-5.2286-2.3326-5.2151-14.271-2.5028l-2.2594 0.51332 1.8862 3.7286c1.9296 3.8144 4.521 14.174 3.7407 14.954-0.23836 0.23836-0.97477-2.1898-1.6365-5.3959s-2.0519-7.5005-3.0892-9.5431c-1.7873-3.5193-1.7944-3.762-0.13426-4.6339 0.96353-0.50603 3.7769-1.2655 6.2519-1.6878l4.5-0.76775-3-1.3033c-5.8229-2.5296-12.182-1.5923-16.86 2.485-1.7864 1.5571-1.7467 1.6466 1 2.2532l2.8604 0.63168-3.2161 0.11832c-3.4756 0.12786-10.284 2.9769-10.284 4.3035 0 0.44813 1.2375 0.85999 2.75 0.91524 2.3426 0.08557 2.1857 0.23322-1.0597 0.99678-8.2488 1.9407-10.473 5.67-4.4403 7.446 1.8006 0.5301 3.6902 1.9602 4.2371 3.2068 0.54292 1.2375 1.7539 2.25 2.691 2.25s1.9713 0.4328 2.2983 0.96179c0.3743 0.60564 1.5036 0.61613 3.0496 0.02834 1.7341-0.6593 2.3845-0.59866 2.2146 0.20646-0.72982 3.4584 12.925 5.096 18.759 2.2498zm-1.1851-4.8245c0.29086-0.75798 0.0811-1.8259-0.46623-2.3732-0.6601-0.6601-0.0891-1.2225 1.6961-1.6705 1.4802-0.3715 2.9381-0.42855 3.2399-0.12678 0.30176 0.30177-0.27019 0.54867-1.271 0.54867-1.6363 0-1.6013 0.18943 0.34757 1.8796l2.1672 1.8796-2.2642 0.6067c-3.3931 0.90919-4.031 0.77158-3.4494-0.74414zm-1.9086-6.7736c-0.39148-0.63344 0.11797-1.7584 1.1321-2.5 2.397-1.7527 3.4616-1.7061 3.4616 0.1517 0 0.825 0.47656 1.5 1.059 1.5s0.7809 0.45 0.44098 1c-0.84786 1.3719-5.2194 1.263-6.0938-0.1517zm3.5938-0.8483c0-0.55-0.45-1-1-1s-1 0.45-1 1 0.45 1 1 1 1-0.45 1-1zm-5-4.1732c0-0.45474 1.35-0.82681 3-0.82681 3.8564 0 3.8564 0.6473 0 1.2133-1.65 0.24217-3 0.06824-3-0.3865zm-1-3c0-0.45474 1.1731-0.82681 2.607-0.82681 1.9453 0 2.4558-0.39393 2.0114-1.5519-0.34149-0.88992-0.17385-1.2913 0.39301-0.94098 2.0065 1.2401 0.90002 3.2789-2.0114 3.7062-1.65 0.24217-3 0.06824-3-0.3865zm-87 17.654c1.925-0.69726 4.85-1.7528 6.5-2.3456s4.2003-1.3149 5.6674-1.6046c1.6904-0.33384 3.5062-1.901 4.9574-4.2785 1.2595-2.0634 2.6655-3.9079 3.1243-4.0989 1.5738-0.65503-1.4934-3.1528-3.8716-3.1528-2.0505 0-2.3776 0.4814-2.3776 3.5 0 5.8503-5.8742 9.7664-9 6-0.86143-1.038-3.1323-1.4958-7.3724-1.4863-7.4315 0.01656-10.628 0.78232-10.628 2.5463 0 0.72967-0.98195 2.0144-2.1821 2.8551-2.1787 1.526-2.1767 1.5308 1.25 3.016 3.6146 1.5667 7.7641 1.2835 13.932-0.95058zm11.171-7.1354c1.9199-1.7375 2.4975-6.8137 0.88835-7.8082-0.51721-0.31966-1.9227 0.44129-3.1234 1.691l-2.183 2.2722 1.1586-2.25c1.4726-2.8599-0.1616-3.0002-2.9118-0.25-2.3454 2.3454-2.6275 5-0.53138 5 0.95894 0 1.247-0.5775 0.83006-1.664-0.44554-1.1611-0.26432-1.4328 0.59956-0.89885 0.68096 0.42086 0.98097 1.4353 0.66669 2.2543-1.2719 3.3144 1.6229 4.3536 4.6063 1.6536zm14.161-15.045c2.2822-4.3806 2.0956-6.1474-0.78765-7.4611-5.062-2.3064-12.545 3.4178-12.545 9.5963 0 2.9531 0.23544 3.1651 3.5143 3.1651 2.0038 0 4.2603 0.74648 5.25 1.7367 1.6479 1.6489 1.7652 1.5957 2.3184-1.05 0.32049-1.5327 1.333-4.2269 2.25-5.9871zm33.916 47.45c-4.9396-2.7337-10.249-7.2331-10.249-8.6854 0-1.7558 0.9093-1.2374 3.9961 2.2782 6.4753 7.375 15.859 9.6589 17.984 4.3773 0.65674-1.6321 0.91011-1.7716 0.95671-0.52679 0.077603 2.0731-3.62 4.8067-6.5018 4.8067-1.1661 0-3.9497-1.0125-6.1858-2.25zm-3.8-7.2179c-0.79694-1.9073-1.4134-4.4948-1.37-5.75 0.08955-2.5885 0.36953-2.01 1.887 3.8984 0.64239 2.5012 1.7687 4.3627 2.8039 4.634 1.581 0.41439 1.5748 0.46351-0.07086 0.56951-1.1655 0.07507-2.3123-1.1077-3.25-3.3519zm-5.7156-8.6562c0.67833-0.68342 1.4852-0.99067 1.7931-0.68278 0.30789 0.30789-0.24711 0.86705-1.2333 1.2426-1.4252 0.54268-1.5401 0.42782-0.5598-0.5598z" fill="#5c5d57"/>
  <path d="m16 84.5v-6.5h3.9286c3.9808 0 7.0714 1.9668 7.0714 4.5 0 2.1449-2.9158 4.5-5.5714 4.5-1.7619 0-2.4286 0.54902-2.4286 2 0 1.1111-0.66667 2-1.5 2-1.1795 0-1.5-1.3889-1.5-6.5zm7.5-2c0-1.3127-0.77318-2.1098-2.25-2.3196-1.8457-0.26213-2.25 0.15469-2.25 2.3196s0.40432 2.5817 2.25 2.3196c1.4768-0.20974 2.25-1.0068 2.25-2.3196zm6.5 6.5c-2.557-2.557-2.557-6.443 0-9 1.1-1.1 3.125-2 4.5-2 5.5811 0 8.4608 7.0392 4.5 11-1.1 1.1-3.125 2-4.5 2s-3.4-0.9-4.5-2zm7.5712-2.4278c0.95389-3.8006-0.36167-6.5722-3.1196-6.5722-2.6921 0-4.1188 3.3228-2.9746 6.9278 0.96908 3.0533 5.302 2.8004 6.0941-0.35566zm6.6788 3.7655c-2.544-1.0265-1.137-1.9229 2.3747-1.513 4.3911 0.51264 4.2965-1.3746-0.1936-3.8625-3.6307-2.0118-4.2242-4.4674-1.4398-5.9576 2.4521-1.3123 6.1922-0.99111 6.7073 0.57608 0.22203 0.67547-0.77987 0.91416-2.6717 0.6365-4.232-0.62113-4.0539 2.1989 0.21622 3.4235 1.9315 0.55394 3.391 1.6979 3.6087 2.8286 0.62792 3.2605-4.4495 5.5439-8.6019 3.8684zm13.75-4.8377c0-4.8333-0.24242-5.5-2-5.5-1.1 0-2-0.45-2-1s2.475-1 5.5-1 5.5 0.45 5.5 1-0.9 1-2 1c-1.7576 0-2 0.66667-2 5.5 0 4.2222-0.34848 5.5-1.5 5.5s-1.5-1.2778-1.5-5.5zm10-1v-6.5h4.5c2.475 0 4.5 0.45 4.5 1s-1.35 1-3 1c-2 0-3 0.5-3 1.5s1 1.5 3 1.5c1.65 0 3 0.45 3 1s-1.35 1-3 1c-2.6667 0-3 0.33333-3 3 0 2-0.5 3-1.5 3-1.1795 0-1.5-1.3889-1.5-6.5zm12 0c0-5.1111 0.32051-6.5 1.5-6.5s1.5 1.3889 1.5 6.5-0.32051 6.5-1.5 6.5-1.5-1.3889-1.5-6.5zm6 5.9648c0-0.29435 0.73883-1.6628 1.6419-3.041 1.4232-2.172 1.4607-2.8666 0.28209-5.2148-0.74787-1.49-1.5242-3.0465-1.7252-3.459-0.89499-1.8369 2.4632-0.5209 3.6921 1.4468l1.3719 2.1968 1.7789-2.1968c1.6177-1.9978 3.9583-2.9804 3.9583-1.6617 0 0.29435-0.73883 1.6628-1.6419 3.041-1.4232 2.172-1.4607 2.8666-0.28209 5.2148 0.74787 1.49 1.5242 3.0465 1.7252 3.459 0.89499 1.8369-2.4632 0.5209-3.6921-1.4468l-1.3719-2.1968-1.7789 2.1968c-1.6177 1.9978-3.9583 2.9804-3.9583 1.6617zm-49.75-15.214c11.412-0.16044 30.088-0.16044 41.5 0s2.075 0.29172-20.75 0.29172-32.162-0.13127-20.75-0.29172zm-13.178-9.339c-2.4356-0.4778-4.9106-1.3568-5.5-1.9533-0.77012-0.7794-0.27951-0.7855 1.7434-0.02171 3.8427 1.4509 5.9928 1.371 5.0326-0.18709-0.44451-0.72129 0.28836-0.55778 1.7327 0.38656 1.3767 0.90011 3.3842 1.8604 4.4613 2.134 3.4923 0.88711-2.6146 0.59409-7.47-0.35841zm10.199 0.48369c0.33229-0.33229 1.1948-0.36782 1.9167-0.07895 0.79773 0.31923 0.56078 0.55618-0.60417 0.60417-1.0542 0.04342-1.6448-0.19293-1.3125-0.52522zm-20.771-6.3958c-1.5808-1.65-2.6492-3-2.3742-3 0.275 0 1.7934 1.35 3.3742 3s2.6492 3 2.3742 3-1.7934-1.35-3.3742-3zm53.071 1.1142c-0.30109-0.48718-3.5435-0.64528-7.2053-0.35135-7.2521 0.58213-12.779-1.3389-13.886-4.8266-0.99718-3.1418-4.5712-6.9363-6.5333-6.9363-1.2462 0-2.147 0.95077-2.5961 2.7401-0.69657 2.7754-3.3504 6.2529-3.3504 4.3903 0-0.55683 0.47185-1.304 1.0486-1.6605 1.4521-0.89744-0.91031-3.652-2.4119-2.8123-0.62518 0.34963-0.51794 0.0072 0.23831-0.76101 1.154-1.1722 1.4548-1.1774 1.8714-0.03253 0.3498 0.96131 1.1696 0.51991 2.7759-1.4946 2.1871-2.7428 2.3578-2.788 4.2073-1.1142 2.6501 2.3983 3.9962 2.2042 1.7703-0.25536-2.2277-2.4616-4.2092-2.5332-6.9213-0.25-2.0766 1.7482-2.0768 1.7477-0.17375-0.5 2.2026-2.6016 4.8121-2.8983 6.595-0.75 1.6437 1.9805 2.7558 1.8959 3.2847-0.25 0.23724-0.9625 0.41795 0.63522 0.4016 3.5505-0.0227 4.045 0.45814 5.7884 2.03 7.3602 2.2514 2.2514 9.4569 3.5146 13.812 2.4214 2.3268-0.58399 2.4855-0.87042 1.3095-2.3628-0.73604-0.93406 0.15878-0.46552 1.9885 1.0412 3.7713 3.1056 4.2784 3.2308 6.0325 1.4895 1.0097-1.0022 1.1272-0.90315 0.59301 0.5-0.695 1.8255-3.9332 2.3988-4.8817 0.86422zm23.7-0.71839c0.33229-0.33229 1.1948-0.36782 1.9167-0.07895 0.79773 0.31923 0.56078 0.55618-0.60417 0.60417-1.0542 0.04342-1.6448-0.19293-1.3125-0.52522zm-24.594-3.2002c-1.8068-1.9965-2.2647-3.6768-0.7461-2.7383 1.2942 0.79984 2.3828-1.2533 3.1589-5.9573l0.65989-4 0.12517 3.905 0.12517 3.905 4.5-3.81-1.8622 2.2028c-1.8407 2.1773-1.8321 2.2103 0.75 2.8584 2.8567 0.717 3.4919 2.8873 1.1122 3.8004-1.0535 0.40428-1.5044-0.08473-1.5147-1.643-0.01451-2.1844-0.03381-2.1812-1.25 0.20242-1.625 3.1849-3.0129 3.5346-5.0583 1.2746zm3.8285-0.20454c0.34296-0.55492 0.32032-1.9644-0.05031-3.1321-0.5297-1.6689-0.86114-1.8275-1.5492-0.74105-1.1656 1.8405-1.1438 4.8821 0.034994 4.8821 0.51754 0 1.2216-0.45403 1.5645-1.0089zm12.994 0.13981c-3.1515-1.9557-7.9287-7.0355-7.2525-7.7117 0.21753-0.21753 2.7243 1.8492 5.5707 4.5927 2.8463 2.7435 5.0642 4.9865 4.9285 4.9845-0.13568-0.002056-1.5967-0.84148-3.2467-1.8654zm-53.164-1.9642c-0.90616-1.451-0.85205-1.8333 0.25945-1.8333 0.77241 0 1.4044 0.825 1.4044 1.8333 0 1.0083-0.11675 1.8333-0.25945 1.8333s-0.77467-0.825-1.4044-1.8333zm-20.205-3.7167c-0.23603-5.4686 3.9173-7.23 7.5453-3.2 3.4258 3.8054 3.8806 5.4583 0.52883 1.9217-3.9576-4.1757-6.4865-3.8858-7.3241 0.83962-0.61554 3.4728-0.61896 3.4748-0.75 0.43865zm81.517-1.1613c0.96017-1.5338 1.8578-2.9521 1.9948-3.1517 0.13696-0.19967 0.18123 0.537 0.09836 1.637-0.08286 1.1-0.98052 2.5183-1.9948 3.1517-1.7777 1.1102-1.7812 1.0512-0.09836-1.637zm-64.199 0.63024c-0.36747-0.59458-2.0815-1.9429-3.809-2.9963-1.7275-1.0534-2.5855-1.9169-1.9067-1.9189 1.2797-0.0039 8.2976 5.9151 7.0748 5.9669-0.38004 0.01612-0.99164-0.45716-1.3591-1.0517zm69.321-0.29587c-1.6057-1.2194-1.54-1.4852 0.9196-3.7182l2.6489-2.4049-1.6411 2.4318c-1.2135 1.7982-1.3561 2.7753-0.54715 3.75 1.3768 1.659 0.8522 1.6366-1.3802-0.05877zm-22.692-6.3141c-0.04342-2.305 0.27701-4.411 0.71206-4.6799 0.43506-0.26888 0.62744 1.1671 0.42752 3.191-0.54665 5.5342-1.051 6.1931-1.1396 1.4889zm7 2.2743c-0.04342-1.0542 0.19293-1.6448 0.52522-1.3125 0.33229 0.33229 0.36782 1.1948 0.07895 1.9167-0.31923 0.79773-0.55618 0.56078-0.60417-0.60417zm-34.079-6.179c0-3.7064-2.6373-9.323-4.4656-9.5103-0.56892-0.058279-2.1594-0.12589-3.5344-0.15025-2.2701-0.04021-2.2945-0.08242-0.26551-0.45896 1.229-0.22807 3.6678-2.4105 5.4195-4.8498 3.5759-4.9794 3.8617-5.2112 3.1718-2.573-0.28747 1.0993 0.13913 2.1023 1.0413 2.4486 2.0057 0.76967 4.9274 6.4795 4.2366 8.2796-1.0142 2.6429-4.1799 1.5218-5.9023-2.0903-0.91797-1.925-2.1263-3.5-2.6852-3.5-1.4615 0-1.3044 0.4865 1.4838 4.5951 1.5988 2.3559 2.5 5.0756 2.5 7.5444 0 2.1232-0.225 3.8605-0.5 3.8605s-0.5-1.6181-0.5-3.5957zm20.607 1.1671c-0.34811-1.387-2.5178-4.3329-4.8215-6.5466s-3.9098-4.0248-3.569-4.0248 1.444-0.26745 2.4514-0.59433c1.4422-0.46793 1.5287-0.37919 0.4067 0.41723-1.1671 0.82844-0.87378 1.4755 1.6203 3.5741 2.9716 2.5005 6.087 8.1541 5.0595 9.1817-0.28298 0.28298-0.79932-0.62029-1.1474-2.0073zm25.393 1.6428c-3.5033-0.4167-6.9835-2.3148-8.1126-4.4246-1.2933-2.4165-0.39962-2.2558 2.0446 0.36783 1.7927 1.9243 2.0792 1.9769 2.6508 0.48726 0.35249-0.91858 0.08545-2.3394-0.59342-3.1574-1.0062-1.2124-0.93449-1.4873 0.38812-1.4873 2.0821 0 2.0495-0.85427-0.12756-3.3432-0.9625-1.1003-1.1875-1.6717-0.5-1.2697 1.616 0.94491 1.616-0.59282 0-2.3338-1.0048-1.0825-0.99265-1.2008 0.06168-0.60286 0.72143 0.40911 1.7331 1.8522 2.2481 3.2069 0.51504 1.3547 1.3562 2.2036 1.8692 1.8865 0.51303-0.31707 1.1838-0.17031 1.4906 0.32614s-0.33709 1.1367-1.4309 1.4227c-1.1536 0.30169-1.9888 1.3649-1.9888 2.5319 0 1.1065-0.27314 2.7236-0.60699 3.5936-0.49189 1.2818 0.1606 1.5818 3.441 1.5818 2.2264 0 4.2665 0.35357 4.5336 0.78571 0.50303 0.81392-1.0707 0.93954-5.3676 0.42845zm-13.039-4.2142c-0.10855-0.825-0.13293-1.8709-0.05417-2.3243 0.07876-0.45338-0.28686-0.55854-0.81248-0.23369s-1.2 0.19531-1.4986-0.28788c-0.47003-0.76052 0.91977-0.83601 4.9048-0.26641 0.60257 0.08613 0.5628 0.43492-0.10006 0.87762-0.60503 0.40408-1.357 1.4097-1.6711 2.2347-0.50755 1.3333-0.59293 1.3333-0.76836 0zm32.039-1.9358c4.125-0.34867 8.175-1.0372 9-1.5301 2.7519-1.6441 5.9652-5.0193 5.9827-6.2841 0.01-0.6875 0.48311-1.25 1.0525-1.25 1.4127 0-0.22643 2.9172-3.1934 5.6834-3.4565 3.2226-7.2354 4.3346-14.157 4.1657l-6.1849-0.15092zm-95.25-0.7265c0.6875-0.27741 1.8125-0.27741 2.5 0 0.6875 0.27741 0.125 0.50439-1.25 0.50439s-1.9375-0.22697-1.25-0.50439zm-5.9806-1.407c-2.84-1.6549-6.7694-9.3154-6.7694-13.197 0-3.2806 2.0084-6.7336 3.9164-6.7336 1.5152 0 4.1951 3.8201 5.1785 7.3817 0.54948 1.9901 1.4456 3.6183 1.9915 3.6183 0.99892 0-0.076809 1.5658-3.3666 4.9005-1.8585 1.8838-1.2338 3.0853 2.2802 4.3863 1.3333 0.49362 1.3333 0.56072 0 0.60386-0.825 0.0267-2.2788-0.40525-3.2306-0.95989zm-1.956-12.104c-0.35858-3.6309-2.348-4.8687-3.2512-2.0229-0.80067 2.5227 0.28395 5.1959 2.1082 5.1959 1.035 0 1.3657-0.91803 1.143-3.173zm16.687 11.293c8.6721-3.1474 9.1245-3.2212 4-0.65227-2.75 1.3786-5.9 2.4976-7 2.4867-1.1-0.01088 0.25-0.83638 3-1.8345zm70.583 0.51542c0.22917-0.2005 1.419-0.88591 2.6442-1.5231 1.8722-0.97378 2.1343-0.91564 1.643 0.36455-0.32147 0.83773-1.5113 1.5231-2.6442 1.5231-1.1328 0-1.8722-0.16404-1.643-0.36454zm21.167-1.3248c0.9625-0.25153 2.5375-0.25153 3.5 0 0.9625 0.25153 0.175 0.45732-1.75 0.45732s-2.7125-0.2058-1.75-0.45732zm-40.25-2.2517c0-0.58246 0.45-1.059 1-1.059 1.2814 0 1.2814 0.70806 0 1.5-0.55 0.33992-1 0.14148-1-0.44098zm41.379-0.60405c0.25564-0.66619-0.04-1.7161-0.65705-2.3331-0.82915-0.82914-0.82739-1.1219 0.00671-1.1219 0.62072 0 1.7312 0.60268 2.4679 1.3393s2.0062 1.5655 2.8214 1.8419c0.81518 0.27645 3.1e-4 0.72367-1.8108 0.99382-2.3191 0.34593-3.1555 0.13299-2.8281-0.72006zm-63.773-2.3376c-1.6488-1.8219-1.5589-1.8663 2.7855-1.3767 2.4691 0.2783 5.6328 0.219 7.0305-0.13178 3.4454-0.86474 9.5734-6.3933 11.184-10.09 0.72341-1.6602 1.3329-2.3185 1.3544-1.4629 0.04738 1.8831-4.3301 7.9952-6.7309 9.3982-1.457 0.85146-1.1777 1.1113 1.7701 1.6469l3.5 0.63592-4 0.14351c-2.2 0.07893-6.475 0.80783-9.5 1.6198s-5.5428 1.4816-5.595 1.4881c-0.05226 0.0065-0.86172-0.83533-1.7988-1.8708zm9.6646 1.2785c0.33229-0.33229 1.1948-0.36782 1.9167-0.07895 0.79773 0.31923 0.56078 0.55618-0.60417 0.60417-1.0542 0.04342-1.6448-0.19293-1.3125-0.52522zm9 0c0.33229-0.33229 1.1948-0.36782 1.9167-0.07895 0.79773 0.31923 0.56078 0.55618-0.60417 0.60417-1.0542 0.04342-1.6448-0.19293-1.3125-0.52522zm-40.398-2.1458c-1.2695-1.6188-1.2225-1.64 0.62756-0.28297 1.1 0.80687 2.1875 1.5944 2.4167 1.75 0.22917 0.15563-0.053234 0.28297-0.62756 0.28297s-1.6618-0.7875-2.4167-1.75zm4.4384-1.551c-0.05887-1.2095 0.11053-1.6337 0.37645-0.94279 0.26592 0.69093 0.89506 1.0019 1.3981 0.69098 1.3736-0.84894 1.0999 0.15413-0.37645 1.3794-0.98543 0.81783-1.3164 0.55092-1.3981-1.1276zm42.189 1.2436c5.0656-1.0478 9.1586-1.0008 5 0.05737-1.65 0.41985-4.35 0.76486-6 0.76669-2.5223 0.0028-2.3631-0.12842 1-0.82406zm31.579-1.3593c-0.0434-1.0542 0.19292-1.6448 0.52522-1.3125 0.33229 0.33229 0.36781 1.1948 0.0789 1.9167-0.31922 0.79773-0.55618 0.56078-0.60416-0.60417zm-88.329-0.32373c4.5062-0.25598 6.25-0.74377 6.25-1.7483 0-0.7663 0.3375-1.6019 0.75-1.8568 0.4125-0.25494 0.75 0.6185 0.75 1.941 0 2.3287-0.22071 2.3984-7 2.2118l-7-0.19268zm106.5-2.7596c-0.0111-2.2 0.18461-3.2177 0.4349-2.2617 0.25029 0.95609 0.25937 2.7561 0.0202 4-0.23921 1.2439-0.444 0.46166-0.4551-1.7383zm-12.586 1.8333c-1.2402-1.2402-0.67644-2.3941 1.5833-3.241 1.6889-0.63294 2.4058-0.43788 2.8749 0.78222 0.34368 0.89398 0.42962 1.9629 0.19098 2.3754-0.53768 0.92941-3.7456 0.98691-4.6492 0.08333zm3.3333-1.3333c0-0.55-0.42344-1-0.94098-1s-1.2191 0.45-1.559 1 0.0835 1 0.94098 1c0.85746 0 1.559-0.45 1.559-1zm-80-1.941c0-2.636-1.7357-3.5165-3.7358-1.8951-1.1752 0.95272-1.4327 0.97742-0.89718 0.08609 0.91737-1.527 0.1849-1.5802-2.6828-0.19483-2.11 1.0193-2.1182 1.0023-0.24313-0.5 1.0676-0.85534 2.7551-1.5552 3.75-1.5552 0.99488 0 1.8089-0.46774 1.8089-1.0394 0-0.62924 0.51328-0.55995 1.3007 0.17558 1.2564 1.1737 2.2638 6.8638 1.2152 6.8638-0.28374 0-0.51588-0.87344-0.51588-1.941zm16.525 0.56042c-1.4613-3.2753 5.0788-12.619 8.8325-12.619 0.59821 0-0.02498 0.76489-1.3849 1.6998-3.5384 2.4326-5.3892 5.2812-6.0406 9.2976-0.47113 2.905-0.71122 3.1818-1.4071 1.6221zm-7.5249-0.66771c0-0.57655-1.4625-1.6839-3.25-2.4609s-2.5626-1.4302-1.7225-1.4517c0.84012-0.02153 2.4959 0.63915 3.6795 1.4682 2.001 1.4016 2.1825 1.3489 2.5863-0.75 0.31579-1.6413 0.47149-1.3703 0.57051 0.99268 0.0749 1.7875-0.31382 3.25-0.86382 3.25s-1-0.47172-1-1.0483zm38.285-3.3969c2.5411-2.5052 5.2282-4.5549 5.9713-4.5549s2.8776-1.575 4.7434-3.5 3.7886-3.5 4.2729-3.5c0.48431 0-0.52297 1.181-2.2384 2.6244-1.7154 1.4434-2.8612 2.8822-2.5461 3.1972 0.31505 0.31504-1.3534 1.2795-3.7078 2.1433-2.4103 0.88431-4.6996 2.5173-5.2396 3.7375-0.52746 1.1918-2.0653 2.671-3.4174 3.2871-1.7549 0.79957-1.1362-0.18337 2.1618-3.4347zm22.794 3.0285c-0.0434-1.0542 0.19292-1.6448 0.52522-1.3125 0.33229 0.33229 0.36781 1.1948 0.0789 1.9167-0.31922 0.79773-0.55618 0.56078-0.60416-0.60417zm-19.329-2.2456c0.6875-0.27741 1.8125-0.27741 2.5 0 0.6875 0.27741 0.125 0.50439-1.25 0.50439s-1.9375-0.22697-1.25-0.50439zm26 0c0.6875-0.27741 1.8125-0.27741 2.5 0 0.6875 0.27741 0.125 0.50439-1.25 0.50439s-1.9375-0.22697-1.25-0.50439zm-8.2911-1.4042c-0.36253-0.58659-0.44468-1.281-0.18255-1.5431 0.26212-0.26213 0.74306 0.21781 1.0688 1.0665 0.67618 1.7621 0.0999 2.0721-0.8862 0.4766zm8.3676-1.6492c1.5504-0.29549 2.138-0.93452 1.7615-1.9158-0.31742-0.82718-0.13182-1.2046 0.42354-0.86141 2.1237 1.3125 0.97978 3.4925-1.7614 3.3567-2.4695-0.12229-2.5127-0.18141-0.42355-0.57957zm8.9415-1.2842c-0.68696-1.1-1.6229-2-2.0799-2-0.45698 0-1.5063-0.6754-2.3318-1.5009-0.92349-0.92349-2.531-1.3023-4.1786-0.98463-2.2086 0.42583-2.3273 0.35679-0.67767-0.39409 1.9167-0.87243 1.8958-0.95375-0.5-1.952-1.375-0.57289-1.9152-1.0701-1.2003-1.105 3.0728-0.14987 10.513 4.7843 12.328 8.1754 1.2972 2.4238 0.1805 2.2277-1.3599-0.23881zm-74.764 0.61803c-0.0021-0.48508 0.88288-2.3166 1.9665-4.0699 1.794-2.9028 1.8337-3.383 0.4433-5.368-0.96516-1.378-2.5817-2.1801-4.3935-2.1801-3.1581 0-8.7068 4.0954-10.051 7.4184-0.61881 1.5297-0.85889 1.6484-0.90547 0.44792-0.03486-0.8985 1.7379-3.261 3.9395-5.25 4.6275-4.1806 8.8683-4.7452 12.014-1.5994 1.8728 1.8728 2.2266 1.9085 4.9503 0.5 1.6134-0.83431 5.1273-1.5169 7.8088-1.5169 4.0232 0 5.2991 0.46977 7.2997 2.6878l2.4243 2.6878-2.8849-2.1878c-4.3038-3.2639-11.465-3.0266-15.679 0.51955-1.7696 1.4891-4.0525 4.0766-5.073 5.75-1.0205 1.6734-1.8571 2.6457-1.8592 2.1607zm20.625-3.1421c-0.32165-0.83821-1.6073-1.9347-2.857-2.4366-1.6109-0.64698-1.7836-0.93104-0.5936-0.97598 1.7849-0.067402 4.8214 2.4569 4.8214 4.008 0 1.4186-0.71758 1.1069-1.3708-0.59545zm4.5287-0.47598c0-1.375 0.22697-1.9375 0.50439-1.25 0.27741 0.6875 0.27741 1.8125 0 2.5-0.27741 0.6875-0.50439 0.125-0.50439-1.25zm34.113-0.60417c0.3323-0.33229 1.1948-0.36782 1.9167-0.07895 0.79773 0.31923 0.56078 0.55618-0.60417 0.60417-1.0542 0.04342-1.6448-0.19293-1.3125-0.52522zm-4.0325-5.0829c0.95609-0.25029 2.7561-0.25937 4-0.020181 1.2439 0.23919 0.46166 0.44398-1.7383 0.45508-2.2 0.011099-3.2178-0.1846-2.2617-0.4349z" fill="#cc000d"/>
  <path d="m16 84.5v-6.5h3.9286c3.9808 0 7.0714 1.9668 7.0714 4.5 0 2.1449-2.9158 4.5-5.5714 4.5-1.7619 0-2.4286 0.54902-2.4286 2 0 1.1111-0.66667 2-1.5 2-1.1795 0-1.5-1.3889-1.5-6.5zm7.5-2c0-1.3127-0.77318-2.1098-2.25-2.3196-1.8457-0.26213-2.25 0.15469-2.25 2.3196s0.40432 2.5817 2.25 2.3196c1.4768-0.20974 2.25-1.0068 2.25-2.3196zm6.5 6.5c-2.557-2.557-2.557-6.443 0-9 1.1-1.1 3.125-2 4.5-2 5.5811 0 8.4608 7.0392 4.5 11-1.1 1.1-3.125 2-4.5 2s-3.4-0.9-4.5-2zm7.5712-2.4278c0.95389-3.8006-0.36167-6.5722-3.1196-6.5722-2.6921 0-4.1188 3.3228-2.9746 6.9278 0.96908 3.0533 5.302 2.8004 6.0941-0.35566zm6.6788 3.7655c-2.544-1.0265-1.137-1.9229 2.3747-1.513 4.3911 0.51264 4.2965-1.3746-0.1936-3.8625-3.6307-2.0118-4.2242-4.4674-1.4398-5.9576 2.4521-1.3123 6.1922-0.99111 6.7073 0.57608 0.22203 0.67547-0.77987 0.91416-2.6717 0.6365-4.232-0.62113-4.0539 2.1989 0.21622 3.4235 1.9315 0.55394 3.391 1.6979 3.6087 2.8286 0.62792 3.2605-4.4495 5.5439-8.6019 3.8684zm13.75-4.8377c0-4.8333-0.24242-5.5-2-5.5-1.1 0-2-0.45-2-1s2.475-1 5.5-1 5.5 0.45 5.5 1-0.9 1-2 1c-1.7576 0-2 0.66667-2 5.5 0 4.2222-0.34848 5.5-1.5 5.5s-1.5-1.2778-1.5-5.5zm10-1v-6.5h4.5c2.475 0 4.5 0.45 4.5 1s-1.35 1-3 1c-2 0-3 0.5-3 1.5s1 1.5 3 1.5c1.65 0 3 0.45 3 1s-1.35 1-3 1c-2.6667 0-3 0.33333-3 3 0 2-0.5 3-1.5 3-1.1795 0-1.5-1.3889-1.5-6.5zm12 0c0-5.1111 0.32051-6.5 1.5-6.5s1.5 1.3889 1.5 6.5-0.32051 6.5-1.5 6.5-1.5-1.3889-1.5-6.5zm6 5.9648c0-0.29435 0.73883-1.6628 1.6419-3.041 1.4232-2.172 1.4607-2.8666 0.28209-5.2148-0.74787-1.49-1.5242-3.0465-1.7252-3.459-0.89499-1.8369 2.4632-0.5209 3.6921 1.4468l1.3719 2.1968 1.7789-2.1968c1.6177-1.9978 3.9583-2.9804 3.9583-1.6617 0 0.29435-0.73883 1.6628-1.6419 3.041-1.4232 2.172-1.4607 2.8666-0.28209 5.2148 0.74787 1.49 1.5242 3.0465 1.7252 3.459 0.89499 1.8369-2.4632 0.5209-3.6921-1.4468l-1.3719-2.1968-1.7789 2.1968c-1.6177 1.9978-3.9583 2.9804-3.9583 1.6617zm-49.75-15.214c11.412-0.16044 30.088-0.16044 41.5 0s2.075 0.29172-20.75 0.29172-32.162-0.13127-20.75-0.29172zm-13.178-9.339c-2.4356-0.4778-4.9106-1.3568-5.5-1.9533-0.77012-0.7794-0.27951-0.7855 1.7434-0.02171 3.8427 1.4509 5.9928 1.371 5.0326-0.18709-0.44451-0.72129 0.28836-0.55778 1.7327 0.38656 1.3767 0.90011 3.3842 1.8604 4.4613 2.134 3.4923 0.88711-2.6146 0.59409-7.47-0.35841zm10.199 0.48369c0.33229-0.33229 1.1948-0.36782 1.9167-0.07895 0.79773 0.31923 0.56078 0.55618-0.60417 0.60417-1.0542 0.04342-1.6448-0.19293-1.3125-0.52522zm-20.771-6.3958c-1.5808-1.65-2.6492-3-2.3742-3 0.275 0 1.7934 1.35 3.3742 3s2.6492 3 2.3742 3-1.7934-1.35-3.3742-3zm53.071 1.1142c-0.30109-0.48718-3.5435-0.64528-7.2053-0.35135-7.2521 0.58213-12.779-1.3389-13.886-4.8266-0.99718-3.1418-4.5712-6.9363-6.5333-6.9363-1.2462 0-2.147 0.95077-2.5961 2.7401-0.69657 2.7754-3.3504 6.2529-3.3504 4.3903 0-0.55683 0.47185-1.304 1.0486-1.6605 1.4521-0.89744-0.91031-3.652-2.4119-2.8123-0.62518 0.34963-0.51794 0.0072 0.23831-0.76101 1.154-1.1722 1.4548-1.1774 1.8714-0.03253 0.3498 0.96131 1.1696 0.51991 2.7759-1.4946 2.1871-2.7428 2.3578-2.788 4.2073-1.1142 2.6501 2.3983 3.9962 2.2042 1.7703-0.25536-2.2277-2.4616-4.2092-2.5332-6.9213-0.25-2.0766 1.7482-2.0768 1.7477-0.17375-0.5 2.2026-2.6016 4.8121-2.8983 6.595-0.75 1.6437 1.9805 2.7558 1.8959 3.2847-0.25 0.23724-0.9625 0.41795 0.63522 0.4016 3.5505-0.0227 4.045 0.45814 5.7884 2.03 7.3602 2.2514 2.2514 9.4569 3.5146 13.812 2.4214 2.3268-0.58399 2.4855-0.87042 1.3095-2.3628-0.73604-0.93406 0.15878-0.46552 1.9885 1.0412 3.7713 3.1056 4.2784 3.2308 6.0325 1.4895 1.0097-1.0022 1.1272-0.90315 0.59301 0.5-0.695 1.8255-3.9332 2.3988-4.8817 0.86422zm23.7-0.71839c0.33229-0.33229 1.1948-0.36782 1.9167-0.07895 0.79773 0.31923 0.56078 0.55618-0.60417 0.60417-1.0542 0.04342-1.6448-0.19293-1.3125-0.52522zm-24.594-3.2002c-1.8068-1.9965-2.2647-3.6768-0.7461-2.7383 1.2942 0.79984 2.3828-1.2533 3.1589-5.9573l0.65989-4 0.12517 3.905 0.12517 3.905 4.5-3.81-1.8622 2.2028c-1.8407 2.1773-1.8321 2.2103 0.75 2.8584 2.8567 0.717 3.4919 2.8873 1.1122 3.8004-1.0535 0.40428-1.5044-0.08473-1.5147-1.643-0.01451-2.1844-0.03381-2.1812-1.25 0.20242-1.625 3.1849-3.0129 3.5346-5.0583 1.2746zm3.8285-0.20454c0.34296-0.55492 0.32032-1.9644-0.05031-3.1321-0.5297-1.6689-0.86114-1.8275-1.5492-0.74105-1.1656 1.8405-1.1438 4.8821 0.034994 4.8821 0.51754 0 1.2216-0.45403 1.5645-1.0089zm12.994 0.13981c-3.1515-1.9557-7.9287-7.0355-7.2525-7.7117 0.21753-0.21753 2.7243 1.8492 5.5707 4.5927 2.8463 2.7435 5.0642 4.9865 4.9285 4.9845-0.13568-0.002056-1.5967-0.84148-3.2467-1.8654zm-53.164-1.9642c-0.90616-1.451-0.85205-1.8333 0.25945-1.8333 0.77241 0 1.4044 0.825 1.4044 1.8333 0 1.0083-0.11675 1.8333-0.25945 1.8333s-0.77467-0.825-1.4044-1.8333zm-20.205-3.7167c-0.23603-5.4686 3.9173-7.23 7.5453-3.2 3.4258 3.8054 3.8806 5.4583 0.52883 1.9217-3.9576-4.1757-6.4865-3.8858-7.3241 0.83962-0.61554 3.4728-0.61896 3.4748-0.75 0.43865zm81.517-1.1613c0.96017-1.5338 1.8578-2.9521 1.9948-3.1517 0.13696-0.19967 0.18123 0.537 0.09836 1.637-0.08286 1.1-0.98052 2.5183-1.9948 3.1517-1.7777 1.1102-1.7812 1.0512-0.09836-1.637zm-64.199 0.63024c-0.36747-0.59458-2.0815-1.9429-3.809-2.9963-1.7275-1.0534-2.5855-1.9169-1.9067-1.9189 1.2797-0.0039 8.2976 5.9151 7.0748 5.9669-0.38004 0.01612-0.99164-0.45716-1.3591-1.0517zm69.321-0.29587c-1.6057-1.2194-1.54-1.4852 0.9196-3.7182l2.6489-2.4049-1.6411 2.4318c-1.2135 1.7982-1.3561 2.7753-0.54715 3.75 1.3768 1.659 0.8522 1.6366-1.3802-0.05877zm-22.692-6.3141c-0.04342-2.305 0.27701-4.411 0.71206-4.6799 0.43506-0.26888 0.62744 1.1671 0.42752 3.191-0.54665 5.5342-1.051 6.1931-1.1396 1.4889zm7 2.2743c-0.04342-1.0542 0.19293-1.6448 0.52522-1.3125 0.33229 0.33229 0.36782 1.1948 0.07895 1.9167-0.31923 0.79773-0.55618 0.56078-0.60417-0.60417zm-34.079-6.179c0-3.7064-2.6373-9.323-4.4656-9.5103-0.56892-0.058279-2.1594-0.12589-3.5344-0.15025-2.2701-0.04021-2.2945-0.08242-0.26551-0.45896 1.229-0.22807 3.6678-2.4105 5.4195-4.8498 3.3574-4.6751 4.1554-5.4049 3.2067-2.9327-0.31708 0.82629 0.26907 2.2888 1.3025 3.25 1.0335 0.96121 1.442 1.4102 0.90789 0.99766-1.5328-1.1837-2.7595-0.8745-1.9835 0.5 0.56458 1 0.43638 1-0.64098 0-1.9096-1.7724-3.4448-1.5551-1.9277 0.27289 1.0568 1.2733 0.99492 1.4197-0.37756 0.89301-2.2205-0.8521-2.075-0.14357 0.85856 4.1792 1.5988 2.3559 2.5 5.0756 2.5 7.5444 0 2.1232-0.225 3.8605-0.5 3.8605s-0.5-1.6181-0.5-3.5957zm20.607 1.1671c-0.34811-1.387-2.5178-4.3329-4.8215-6.5466s-3.9098-4.0248-3.569-4.0248 1.444-0.26745 2.4514-0.59433c1.4422-0.46793 1.5287-0.37919 0.4067 0.41723-1.1671 0.82844-0.87378 1.4755 1.6203 3.5741 2.9716 2.5005 6.087 8.1541 5.0595 9.1817-0.28298 0.28298-0.79932-0.62029-1.1474-2.0073zm25.393 1.6428c-3.5033-0.4167-6.9835-2.3148-8.1126-4.4246-1.2933-2.4165-0.39962-2.2558 2.0446 0.36783 1.7927 1.9243 2.0792 1.9769 2.6508 0.48726 0.35249-0.91858 0.08545-2.3394-0.59342-3.1574-1.0062-1.2124-0.93449-1.4873 0.38812-1.4873 2.0821 0 2.0495-0.85427-0.12756-3.3432-0.9625-1.1003-1.1875-1.6717-0.5-1.2697 1.616 0.94491 1.616-0.59282 0-2.3338-1.0048-1.0825-0.99265-1.2008 0.06168-0.60286 0.72143 0.40911 1.7331 1.8522 2.2481 3.2069 0.51504 1.3547 1.3562 2.2036 1.8692 1.8865 0.51303-0.31707 1.1838-0.17031 1.4906 0.32614s-0.33709 1.1367-1.4309 1.4227c-1.1536 0.30169-1.9888 1.3649-1.9888 2.5319 0 1.1065-0.27314 2.7236-0.60699 3.5936-0.49189 1.2818 0.1606 1.5818 3.441 1.5818 2.2264 0 4.2665 0.35357 4.5336 0.78571 0.50303 0.81392-1.0707 0.93954-5.3676 0.42845zm-13.039-4.2142c-0.10855-0.825-0.13293-1.8709-0.05417-2.3243 0.07876-0.45338-0.28686-0.55854-0.81248-0.23369s-1.2 0.19531-1.4986-0.28788c-0.47003-0.76052 0.91977-0.83601 4.9048-0.26641 0.60257 0.08613 0.5628 0.43492-0.10006 0.87762-0.60503 0.40408-1.357 1.4097-1.6711 2.2347-0.50755 1.3333-0.59293 1.3333-0.76836 0zm32.039-1.9358c4.125-0.34867 8.175-1.0372 9-1.5301 2.7519-1.6441 5.9652-5.0193 5.9827-6.2841 0.01-0.6875 0.48311-1.25 1.0525-1.25 1.4127 0-0.22643 2.9172-3.1934 5.6834-3.4565 3.2226-7.2354 4.3346-14.157 4.1657l-6.1849-0.15092zm-95.25-0.7265c0.6875-0.27741 1.8125-0.27741 2.5 0 0.6875 0.27741 0.125 0.50439-1.25 0.50439s-1.9375-0.22697-1.25-0.50439zm-5.9806-1.407c-2.84-1.6549-6.7694-9.3154-6.7694-13.197 0-3.2806 2.0084-6.7336 3.9164-6.7336 1.5152 0 4.1951 3.8201 5.1785 7.3817 0.54948 1.9901 1.4456 3.6183 1.9915 3.6183 0.99892 0-0.076809 1.5658-3.3666 4.9005-1.8585 1.8838-1.2338 3.0853 2.2802 4.3863 1.3333 0.49362 1.3333 0.56072 0 0.60386-0.825 0.0267-2.2788-0.40525-3.2306-0.95989zm-1.956-12.104c-0.35858-3.6309-2.348-4.8687-3.2512-2.0229-0.80067 2.5227 0.28395 5.1959 2.1082 5.1959 1.035 0 1.3657-0.91803 1.143-3.173zm16.687 11.293c8.6721-3.1474 9.1245-3.2212 4-0.65227-2.75 1.3786-5.9 2.4976-7 2.4867-1.1-0.01088 0.25-0.83638 3-1.8345zm21.682-1.62c-0.62649-1.375-0.97548-2.5-0.77552-2.5s1.1007 1.125 2.0016 2.5 1.2499 2.5 0.77552 2.5-1.3751-1.125-2.0016-2.5zm4.5493 0.41984c0.35361-1.3522 0.8069-1.8055 1.0566-1.0566 0.24048 0.72144-0.03821 1.7872-0.61931 2.3683-0.74207 0.74207-0.87221 0.35164-0.43724-1.3117zm44.352 1.7156c0.22917-0.2005 1.419-0.88591 2.6442-1.5231 1.8722-0.97378 2.1343-0.91564 1.643 0.36455-0.32147 0.83773-1.5113 1.5231-2.6442 1.5231-1.1328 0-1.8722-0.16404-1.643-0.36454zm21.167-1.3248c0.9625-0.25153 2.5375-0.25153 3.5 0 0.9625 0.25153 0.175 0.45732-1.75 0.45732s-2.7125-0.2058-1.75-0.45732zm-40.25-2.2517c0-0.58246 0.45-1.059 1-1.059 1.2814 0 1.2814 0.70806 0 1.5-0.55 0.33992-1 0.14148-1-0.44098zm41.379-0.60405c0.25564-0.66619-0.15444-1.8305-0.77149-2.4475-0.82915-0.82914-0.94182-1.2363-0.10772-1.2363 0.62072 0 1.9601 0.83155 2.6967 1.5682s2.0062 1.5655 2.8214 1.8419c0.81518 0.27645 3.1e-4 0.72367-1.8108 0.99382-2.3191 0.34593-3.1555 0.13299-2.8281-0.72006zm-63.773-2.3376c-1.6488-1.8219-1.5589-1.8663 2.7855-1.3767 2.4691 0.2783 5.6328 0.219 7.0305-0.13178 3.4454-0.86474 9.5734-6.3933 11.184-10.09 0.72341-1.6602 1.3329-2.3185 1.3544-1.4629 0.04738 1.8831-4.3301 7.9952-6.7309 9.3982-1.457 0.85146-1.1777 1.1113 1.7701 1.6469l3.5 0.63592-4 0.14351c-2.2 0.07893-6.475 0.80783-9.5 1.6198s-5.5428 1.4816-5.595 1.4881c-0.05226 0.0065-0.86172-0.83533-1.7988-1.8708zm9.6646 1.2785c0.33229-0.33229 1.1948-0.36782 1.9167-0.07895 0.79773 0.31923 0.56078 0.55618-0.60417 0.60417-1.0542 0.04342-1.6448-0.19293-1.3125-0.52522zm9 0c0.33229-0.33229 1.1948-0.36782 1.9167-0.07895 0.79773 0.31923 0.56078 0.55618-0.60417 0.60417-1.0542 0.04342-1.6448-0.19293-1.3125-0.52522zm-40.398-2.1458c-1.2695-1.6188-1.2225-1.64 0.62756-0.28297 1.1 0.80687 2.1875 1.5944 2.4167 1.75 0.22917 0.15563-0.053234 0.28297-0.62756 0.28297s-1.6618-0.7875-2.4167-1.75zm4.4384-1.551c-0.05887-1.2095 0.11053-1.6337 0.37645-0.94279 0.26592 0.69093 0.89506 1.0019 1.3981 0.69098 1.3736-0.84894 1.0999 0.15413-0.37645 1.3794-0.98543 0.81783-1.3164 0.55092-1.3981-1.1276zm42.189 1.2436c5.0656-1.0478 9.1586-1.0008 5 0.05737-1.65 0.41985-4.35 0.76486-6 0.76669-2.5223 0.0028-2.3631-0.12842 1-0.82406zm31.579-1.3593c-0.0434-1.0542 0.19292-1.6448 0.52522-1.3125 0.33229 0.33229 0.36781 1.1948 0.0789 1.9167-0.31922 0.79773-0.55618 0.56078-0.60416-0.60417zm-88.329-0.32373c4.5062-0.25598 6.25-0.74377 6.25-1.7483 0-0.7663 0.3375-1.6019 0.75-1.8568 0.4125-0.25494 0.75 0.6185 0.75 1.941 0 2.3287-0.22071 2.3984-7 2.2118l-7-0.19268zm106.5-2.7596c-0.0111-2.2 0.18461-3.2177 0.4349-2.2617 0.25029 0.95609 0.25937 2.7561 0.0202 4-0.23921 1.2439-0.444 0.46166-0.4551-1.7383zm-12.586 1.8333c-1.2402-1.2402-0.67644-2.3941 1.5833-3.241 1.6889-0.63294 2.4058-0.43788 2.8749 0.78222 0.34368 0.89398 0.42962 1.9629 0.19098 2.3754-0.53768 0.92941-3.7456 0.98691-4.6492 0.08333zm3.3333-1.3333c0-0.55-0.42344-1-0.94098-1s-1.2191 0.45-1.559 1 0.0835 1 0.94098 1c0.85746 0 1.559-0.45 1.559-1zm-80-1.941c0-2.636-1.7357-3.5165-3.7358-1.8951-1.1752 0.95272-1.4327 0.97742-0.89718 0.08609 0.91737-1.527 0.1849-1.5802-2.6828-0.19483-2.11 1.0193-2.1182 1.0023-0.24313-0.5 1.0676-0.85534 2.7551-1.5552 3.75-1.5552 0.99488 0 1.8089-0.46774 1.8089-1.0394 0-0.62924 0.51328-0.55995 1.3007 0.17558 1.2564 1.1737 2.2638 6.8638 1.2152 6.8638-0.28374 0-0.51588-0.87344-0.51588-1.941zm16.525 0.56042c-1.4613-3.2753 5.0788-12.619 8.8325-12.619 0.59821 0-0.02498 0.76489-1.3849 1.6998-3.5384 2.4326-5.3892 5.2812-6.0406 9.2976-0.47113 2.905-0.71122 3.1818-1.4071 1.6221zm-7.5249-0.66771c0-0.57655-1.4625-1.6839-3.25-2.4609s-2.5626-1.4302-1.7225-1.4517c0.84012-0.02153 2.4959 0.63915 3.6795 1.4682 2.001 1.4016 2.1825 1.3489 2.5863-0.75 0.31579-1.6413 0.47149-1.3703 0.57051 0.99268 0.0749 1.7875-0.31382 3.25-0.86382 3.25s-1-0.47172-1-1.0483zm38.285-3.3969c2.5411-2.5052 5.2282-4.5549 5.9713-4.5549s2.8776-1.575 4.7434-3.5 3.7886-3.5 4.2729-3.5c0.48431 0-0.52297 1.181-2.2384 2.6244-1.7154 1.4434-2.8612 2.8822-2.5461 3.1972 0.31505 0.31504-1.3534 1.2795-3.7078 2.1433-2.4103 0.88431-4.6996 2.5173-5.2396 3.7375-0.52746 1.1918-2.0653 2.671-3.4174 3.2871-1.7549 0.79957-1.1362-0.18337 2.1618-3.4347zm22.794 3.0285c-0.0434-1.0542 0.19292-1.6448 0.52522-1.3125 0.33229 0.33229 0.36781 1.1948 0.0789 1.9167-0.31922 0.79773-0.55618 0.56078-0.60416-0.60417zm-19.329-2.2456c0.6875-0.27741 1.8125-0.27741 2.5 0 0.6875 0.27741 0.125 0.50439-1.25 0.50439s-1.9375-0.22697-1.25-0.50439zm26 0c0.6875-0.27741 1.8125-0.27741 2.5 0 0.6875 0.27741 0.125 0.50439-1.25 0.50439s-1.9375-0.22697-1.25-0.50439zm-8.2911-1.4042c-0.36253-0.58659-0.44468-1.281-0.18255-1.5431 0.26212-0.26213 0.74306 0.21781 1.0688 1.0665 0.67618 1.7621 0.0999 2.0721-0.8862 0.4766zm8.3676-1.6492c1.5504-0.29549 2.138-0.93452 1.7615-1.9158-0.31742-0.82718-0.13182-1.2046 0.42354-0.86141 2.1237 1.3125 0.97978 3.4925-1.7614 3.3567-2.4695-0.12229-2.5127-0.18141-0.42355-0.57957zm8.9415-1.2842c-0.68696-1.1-1.6229-2-2.0799-2-0.45698 0-1.5063-0.6754-2.3318-1.5009-0.92349-0.92349-2.531-1.3023-4.1786-0.98463-2.2086 0.42583-2.3273 0.35679-0.67767-0.39409 1.9167-0.87243 1.8958-0.95375-0.5-1.952-1.375-0.57289-1.9152-1.0701-1.2003-1.105 3.0728-0.14987 10.513 4.7843 12.328 8.1754 1.2972 2.4238 0.1805 2.2277-1.3599-0.23881zm-74.764 0.61803c-0.0021-0.48508 0.88288-2.3166 1.9665-4.0699 1.794-2.9028 1.8337-3.383 0.4433-5.368-0.96516-1.378-2.5817-2.1801-4.3935-2.1801-3.1581 0-8.7068 4.0954-10.051 7.4184-0.61881 1.5297-0.85889 1.6484-0.90547 0.44792-0.03486-0.8985 1.7379-3.261 3.9395-5.25 4.6275-4.1806 8.8683-4.7452 12.014-1.5994 1.8728 1.8728 2.2266 1.9085 4.9503 0.5 1.6134-0.83431 5.1273-1.5169 7.8088-1.5169 4.0232 0 5.2991 0.46977 7.2997 2.6878l2.4243 2.6878-2.8849-2.1878c-4.3038-3.2639-11.465-3.0266-15.679 0.51955-1.7696 1.4891-4.0525 4.0766-5.073 5.75-1.0205 1.6734-1.8571 2.6457-1.8592 2.1607zm20.625-3.1421c-0.32165-0.83821-1.6073-1.9347-2.857-2.4366-1.6109-0.64698-1.7836-0.93104-0.5936-0.97598 1.7849-0.067402 4.8214 2.4569 4.8214 4.008 0 1.4186-0.71758 1.1069-1.3708-0.59545zm4.5287-0.47598c0-1.375 0.22697-1.9375 0.50439-1.25 0.27741 0.6875 0.27741 1.8125 0 2.5-0.27741 0.6875-0.50439 0.125-0.50439-1.25zm34.113-0.60417c0.3323-0.33229 1.1948-0.36782 1.9167-0.07895 0.79773 0.31923 0.56078 0.55618-0.60417 0.60417-1.0542 0.04342-1.6448-0.19293-1.3125-0.52522zm-4.0325-5.0829c0.95609-0.25029 2.7561-0.25937 4-0.020181 1.2439 0.23919 0.46166 0.44398-1.7383 0.45508-2.2 0.011099-3.2178-0.1846-2.2617-0.4349z" fill="#2d2f2b"/>
  <path d="m16 84.5v-6.5h3.5c4.6309 0 8.0148 3.1696 6.4685 6.0588-0.59252 1.1071-2.4028 2.2781-4.0229 2.6021-2.004 0.4008-2.9456 1.1885-2.9456 2.4641 0 1.0312-0.675 1.875-1.5 1.875-1.1795 0-1.5-1.3889-1.5-6.5zm8-2c0-2-0.5-2.5-2.5-2.5s-2.5 0.5-2.5 2.5 0.5 2.5 2.5 2.5 2.5-0.5 2.5-2.5zm6.4545 6.0455c-1.35-1.35-2.4545-3.1705-2.4545-4.0455 0-2.0587 4.4413-6.5 6.5-6.5s6.5 4.4413 6.5 6.5c0 0.875-1.1045 2.6955-2.4545 4.0455s-3.1705 2.4545-4.0455 2.4545-2.6955-1.1045-4.0455-2.4545zm7.0455-4.0455c0-3.7778-0.16667-4-3-4-2.5514 0-3.0485 0.42385-3.3246 2.8345-0.50042 4.3701 0.45672 5.8405 3.5689 5.4825 2.4955-0.28704 2.7557-0.69468 2.7557-4.317zm7 5.5212c-1.6207-0.7136-1.2888-0.89394 1.75-0.9509 4.3674-0.08186 5.2757-2.6493 1.291-3.6493-3.0999-0.77802-4.748-2.718-3.9891-4.6956 0.76124-1.9838 4.0675-2.8209 6.7953-1.7205 1.8862 0.76088 1.7503 0.87627-1.0972 0.93181-4.2141 0.08219-4.2453 2.2562-0.05936 4.1329 1.7549 0.78676 3.3225 1.8805 3.4837 2.4305 0.83827 2.86-4.4765 5.1494-8.1744 3.5212zm13.5-4.5212c0-4.8333-0.24242-5.5-2-5.5-1.1 0-2-0.45-2-1s2.475-1 5.5-1 5.5 0.45 5.5 1-0.9 1-2 1c-1.7576 0-2 0.66667-2 5.5 0 4.2222-0.34848 5.5-1.5 5.5s-1.5-1.2778-1.5-5.5zm10-1v-6.5h4.5c2.475 0 4.5 0.45 4.5 1s-1.35 1-3 1c-2 0-3 0.5-3 1.5s1 1.5 3 1.5c1.65 0 3 0.45 3 1s-1.35 1-3 1c-2.6667 0-3 0.33333-3 3 0 2-0.5 3-1.5 3-1.1795 0-1.5-1.3889-1.5-6.5zm12 0c0-5.1111 0.32051-6.5 1.5-6.5s1.5 1.3889 1.5 6.5-0.32051 6.5-1.5 6.5-1.5-1.3889-1.5-6.5zm6.0222 5.75c0.01223-0.4125 0.88261-1.8698 1.9342-3.2385 1.8861-2.4549 1.8847-2.5325-0.1038-5.75-1.4782-2.3919-1.6582-3.2615-0.67472-3.2615 0.73756 0 1.9584 0.98858 2.713 2.1968l1.3719 2.1968 1.7789-2.1968c2.8032-3.4618 4.4618-2.6818 2.1297 1.0015l-2.0251 3.1984 2.0359 2.8592c2.45 3.4407 1.4146 5.1925-1.1786 1.9941-2.2454-2.7695-3.1679-2.8178-4.7716-0.25-1.2195 1.9527-3.2542 2.745-3.2098 1.25zm-49.772-14.999c11.412-0.16044 30.088-0.16044 41.5 0s2.075 0.29172-20.75 0.29172-32.162-0.13127-20.75-0.29172zm-13-9.9405c0.9625-0.25153 2.5375-0.25153 3.5 0 0.9625 0.25153 0.175 0.45732-1.75 0.45732s-2.7125-0.2058-1.75-0.45732zm40.75-4.894c-1.375-0.76297-2.1074-1.3938-1.6276-1.402 0.47984-0.008108 0.27203-0.80224-0.46181-1.7647-0.73384-0.9625-0.0014-0.56864 1.6276 0.87524 1.629 1.4439 3.6368 2.8709 4.4618 3.1711 1.3333 0.48517 1.3333 0.54369 0 0.52671-0.825-0.0105-2.625-0.64334-4-1.4063zm-12.729-0.02086c0.33229-0.33229 1.1948-0.36782 1.9167-0.07895 0.79773 0.31923 0.56078 0.55618-0.60417 0.60417-1.0542 0.04342-1.6448-0.19293-1.3125-0.52522zm-4.8658-2.6458-1.905-2.25 2.5 1.9893c1.375 1.0941 2.6875 2.1066 2.9167 2.25 0.22917 0.14336-0.038589 0.26066-0.59501 0.26066-0.55642 0-1.8689-1.0125-2.9167-2.25zm-17.841-2.4569c-0.54268-1.4252-0.42782-1.5401 0.5598-0.5598 0.68342 0.67833 0.99067 1.4852 0.68278 1.7931-0.30789 0.30789-0.86705-0.24711-1.2426-1.2333zm4.8151-1.6726c0.12614-0.85948 0.50861-1.8419 0.84993-2.1833 0.34132-0.34132 0.51737 0.08263 0.39122 0.94211-0.12614 0.85948-0.50861 1.8419-0.84993 2.1833-0.34132 0.34132-0.51737-0.08263-0.39122-0.94211zm35.278-0.06965c-0.37092-0.9666-0.07551-1.2647 0.88727-0.89522 0.79383 0.30462 1.1944 0.9567 0.89006 1.4491-0.76643 1.2401-1.1327 1.126-1.7773-0.55386zm-25.643-2.6343c0.008422-1.3292 0.45779-3.0917 0.9986-3.9167 0.69179-1.0553 0.7929-0.46242 0.34105 2-0.79139 4.3128-1.36 5.1263-1.3396 1.9167zm24.064-2.3333c-0.04342-1.0542 0.19293-1.6448 0.52522-1.3125 0.33229 0.33229 0.36782 1.1948 0.07895 1.9167-0.31923 0.79773-0.55618 0.56078-0.60417-0.60417zm-56.329-2.2456c0.6875-0.27741 1.8125-0.27741 2.5 0 0.6875 0.27741 0.125 0.50439-1.25 0.50439s-1.9375-0.22697-1.25-0.50439zm72.814-7.0446c-0.54268-1.4252-0.42782-1.5401 0.5598-0.5598 0.68342 0.67833 0.99067 1.4852 0.68278 1.7931-0.30789 0.30789-0.86705-0.24711-1.2426-1.2333zm-5.4853-0.7098c-0.04342-1.0542 0.19293-1.6448 0.52522-1.3125 0.33229 0.33229 0.36782 1.1948 0.07895 1.9167-0.31923 0.79773-0.55618 0.56078-0.60417-0.60417zm10-2c-0.04342-1.0542 0.19293-1.6448 0.52522-1.3125 0.33229 0.33229 0.36782 1.1948 0.07895 1.9167-0.31923 0.79773-0.55618 0.56078-0.60417-0.60417zm27.192-3.1875c0.3323-0.33229 1.1948-0.36782 1.9167-0.07895 0.79773 0.31923 0.56078 0.55618-0.60417 0.60417-1.0542 0.04342-1.6448-0.19293-1.3125-0.52522zm-110.08-3.1262c-2.5455-3.5749-2.7649-4.7035-0.76511-3.9361 1.9458 0.74668 3.798-1.7203 3.3999-4.5285-0.5067-3.5744-4.145-3.0634-4.9486 0.69496l-0.64151 3-0.11831-2.8157c-0.29951-7.1279 4.862-9.1421 7.5192-2.9343 0.88284 2.0625 1.9188 4.396 2.3022 5.1856 0.85118 1.7531-0.99611 6.0459-2.6063 6.0566-0.64167 0.0043-1.3428 0.5361-1.558 1.1818-0.21523 0.6457-1.3777-0.21126-2.5833-1.9044zm116.81 2.3374c0-0.21616 0.69837-0.661 1.5519-0.98855 0.88992-0.3415 1.2913-0.17385 0.94098 0.39301-0.58726 0.9502-2.4929 1.4054-2.4929 0.59554zm-4.6753-2.265c0.36189-0.3619-0.24391-1.26-0.92665-2.1356-0.88181-0.65086-0.62347-1.2931 0.85199-0.334 2.0054 1.5728 5.2708 3.1276 3.5587 3.1276-0.64166 0-3.8459-0.2961-3.484-0.65799zm-77.082-1.8539c1.456-1.5893 1.9498-1.6795 3-0.54853 1.0124 1.0902 1.0052 1.2112-0.03666 0.62105-0.71159-0.40304-2.0616-0.1562-3 0.54853-1.5362 1.1536-1.5325 1.0917 0.03666-0.62105zm18.334-0.45542c0.59212-0.5972 3.5171-1.2837 6.5-1.5255l5.4234-0.4397-4.8501 0.89769c-2.6675 0.49373-5.5925 1.1802-6.5 1.5255-1.183 0.45017-1.3453 0.32057-0.57334-0.458zm-14.838-1.4328c-1.5722-1.1932-1.5965-1.4731-0.22711-2.6096 1.3011-1.0798 1.4288-0.99903 0.84115 0.5324-0.42376 1.1043-0.30319 1.5647 0.31044 1.1854 0.5518-0.34103 1.0033 0.03515 1.0033 0.83596 0 0.80081-0.0375 1.4417-0.08333 1.4242-0.04583-0.01749-0.87582-0.63325-1.8444-1.3684zm70.72-2.6664c-0.36253-0.58659-0.38909-1.3366-0.059-1.6667 0.33008-0.33007 0.60014-0.02265 0.60014 0.68316 0 0.79126 0.76736 1.0826 2.0014 0.75992 1.1008-0.28786 1.7492-0.11534 1.441 0.38337-0.76628 1.2399-3.1782 1.1431-3.9835-0.15979zm-59.762-2.3266c-0.4092-1.0412-0.5084-2.1287-0.22046-2.4167 0.91206-0.91206 1.7146 0.58256 1.3324 2.4815-0.35024 1.7403-0.40373 1.7372-1.1119-0.06486zm-6.502-2.1069c-0.02038-1.65 0.18706-2.4461 0.46099-1.769 0.27392 0.67703 0.2906 2.027 0.03705 3-0.25354 0.97297-0.47766 0.41903-0.49804-1.231zm-14.195-1.4866c0-1.1749 2.8484-2.0677 3.4567-1.0834 0.28643 0.46345-0.37416 1.0767-1.468 1.3627s-1.9888 0.16034-1.9888-0.27932zm81.271 0.38246c0.3323-0.33229 1.1948-0.36782 1.9167-0.07895 0.79773 0.31923 0.56078 0.55618-0.60417 0.60417-1.0542 0.04342-1.6448-0.19293-1.3125-0.52522zm-1.2708-2.7792c0-0.21085 0.9-0.61872 2-0.90638s2-0.11514 2 0.38337c0 0.49851-0.9 0.90638-2 0.90638s-2-0.17252-2-0.38337zm-20-3.5576c0-0.51754 0.44485-1.2159 0.98855-1.5519 0.56686-0.35034 0.73451 0.05106 0.39301 0.94098-0.66479 1.7324-1.3816 2.0494-1.3816 0.61096zm21.507-4.0476c-0.35034-0.56686 0.0511-0.73451 0.94098-0.39301 1.7324 0.66479 2.0494 1.3816 0.61096 1.3816-0.51754 0-1.2159-0.44485-1.5519-0.98855zm-62.943-1.7183c-0.54268-1.4252-0.42782-1.5401 0.5598-0.55979 0.68342 0.67833 0.99067 1.4852 0.68278 1.7931s-0.86705-0.24711-1.2426-1.2333z" fill="#060705"/>
 </g>
</svg>
