<svg xmlns="http://www.w3.org/2000/svg" xmlns:xlink="http://www.w3.org/1999/xlink" viewBox="0 0 66 42" fill="#fff" fill-rule="evenodd" stroke="#000" stroke-linecap="round" stroke-linejoin="round"><use xlink:href="#A" x=".5" y=".5"/><symbol id="A" overflow="visible"><g stroke="none"><path d="M18.97 9.585c0 5.293-4.248 9.585-9.487 9.585S0 14.877 0 9.585 4.245 0 9.485 0s9.485 4.293 9.485 9.585z" fill="#e38000"/><path d="M18.97 31.3c0 5.3-4.248 9.58-9.487 9.58S0 36.6 0 31.305s4.245-9.585 9.485-9.585 9.485 4.293 9.485 9.585zM41.488 9.585c0 5.293-4.25 9.585-9.5 9.585s-9.485-4.3-9.485-9.585S26.75 0 31.988 0s9.487 4.293 9.487 9.585zm0 21.726c0 5.3-4.25 9.58-9.5 9.58s-9.485-4.3-9.485-9.585 4.248-9.585 9.485-9.585 9.487 4.293 9.487 9.585zM64 9.585c0 5.293-4.245 9.585-9.485 9.585s-9.485-4.3-9.485-9.585S49.275 0 54.515 0 64 4.293 64 9.585z" fill="#e17f03"/><path d="M64 31.3c0 5.3-4.245 9.58-9.485 9.58s-9.485-4.3-9.485-9.585 4.245-9.585 9.485-9.585S64 26.015 64 31.305z" fill="#e38000"/></g></symbol></svg>