<?xml version="1.0" encoding="utf-8"?>
<!-- Generator: Adobe Illustrator 24.1.1, SVG Export Plug-In . SVG Version: 6.00 Build 0)  -->
<svg version="1.1" id="Layer_1" xmlns="http://www.w3.org/2000/svg" xmlns:xlink="http://www.w3.org/1999/xlink" x="0px" y="0px"
	 viewBox="0 0 57.83 52.79" style="enable-background:new 0 0 57.83 52.79;" xml:space="preserve">
<style type="text/css">
	.st0{fill:none;stroke:#22ADF6;stroke-width:1.6223;stroke-linecap:round;stroke-linejoin:round;stroke-miterlimit:10;}
</style>
<path class="st0" d="M36.41,9.19c6.12,6.12,6.12,16.04,0,22.16s-16.04,6.12-22.16,0s-6.12-16.04,0-22.16S30.29,3.07,36.41,9.19z
	 M41.32,31.61 M36.66,36.27l14.29,14.3c0,0,2.82,2.82,5.15,0.48c2.33-2.33-0.48-5.15-0.48-5.15L43.91,34.2 M39.09,6.51
	c7.6,7.6,7.6,19.93,0,27.53s-19.93,7.6-27.53,0s-7.6-19.93,0-27.53S31.49-1.09,39.09,6.51z M44.96,22.42h6.02 M40.75,22.42H35
	l-2.42-4.39l-5.71,11.64l-5.93-18.89l-3.73,11.86h-7.19 M0.81,22.64h4.78"/>
</svg>
