<?xml version="1.0" encoding="utf-8"?>
<!-- Generator: Adobe Illustrator 24.2.0, SVG Export Plug-In . SVG Version: 6.00 Build 0)  -->
<svg version="1.1" id="Layer_1" xmlns="http://www.w3.org/2000/svg" xmlns:xlink="http://www.w3.org/1999/xlink" x="0px" y="0px"
	 viewBox="0 0 90 90" style="enable-background:new 0 0 90 90;" xml:space="preserve">
<style type="text/css">
	.st0{fill:url(#path1948_1_);}
	.st1{fill:url(#path1950_1_);}
</style>
<g>
	
		<linearGradient id="path1948_1_" gradientUnits="userSpaceOnUse" x1="179.5048" y1="173.5829" x2="259.9285" y2="242.7767" gradientTransform="matrix(0.5625 0 0 0.568 -98.9754 -92.5337)">
		<stop  offset="0" style="stop-color:#5A9FD4"/>
		<stop  offset="1" style="stop-color:#306998"/>
	</linearGradient>
	<path id="path1948" class="st0" d="M44.5,4c-3.4,0-6.6,0.3-9.5,0.8c-8.3,1.5-9.9,4.5-9.9,10.2v7.5H45v2.5H25.2h-7.4
		C12,25.1,7,28.5,5.4,35c-1.8,7.5-1.9,12.1,0,19.9c1.4,5.8,4.7,9.9,10.5,9.9h6.8v-8.9c0-6.5,5.7-12.2,12.4-12.2H55
		c5.5,0,9.9-4.5,9.9-9.9V15c0-5.3-4.6-9.3-9.9-10.2C51.5,4.3,48,4,44.5,4z M33.8,10c2.1,0,3.7,1.7,3.7,3.7s-1.7,3.7-3.7,3.7
		c-2.1,0-3.7-1.7-3.7-3.7C30.1,11.7,31.7,10,33.8,10z"/>
	
		<linearGradient id="path1950_1_" gradientUnits="userSpaceOnUse" x1="290.8481" y1="284.1033" x2="262.2815" y2="243.6865" gradientTransform="matrix(0.5625 0 0 0.568 -98.9754 -92.5337)">
		<stop  offset="0" style="stop-color:#FFD43B"/>
		<stop  offset="1" style="stop-color:#FFE873"/>
	</linearGradient>
	<path id="path1950" class="st1" d="M67.2,24.9v8.7c0,6.7-5.8,12.4-12.4,12.4H35.1c-5.4,0-9.9,4.6-9.9,9.9v18.7
		c0,5.3,4.6,8.4,9.9,9.9c6.3,1.8,12.3,2.2,19.8,0c5-1.4,9.9-4.3,9.9-9.9v-7.5H44.9v-2.3h19.8h9.9c5.8,0,7.9-3.9,9.9-9.9
		c2.1-6.1,2-12,0-19.9C83,29.3,80.3,25,74.6,25L67.2,24.9L67.2,24.9z M56.1,72.1c2.1,0,3.7,1.7,3.7,3.7s-1.7,3.7-3.7,3.7
		c-2.1,0-3.7-1.7-3.7-3.7C52.4,73.8,54,72.1,56.1,72.1z"/>
</g>
</svg>
