<?xml version="1.0" encoding="utf-8"?>
<!-- Generator: Adobe Illustrator 24.2.0, SVG Export Plug-In . SVG Version: 6.00 Build 0)  -->
<svg version="1.1" id="Layer_1" xmlns="http://www.w3.org/2000/svg" xmlns:xlink="http://www.w3.org/1999/xlink" x="0px" y="0px"
	 viewBox="0 0 150 150" style="enable-background:new 0 0 150 150;" xml:space="preserve">
<style type="text/css">
	.st0{fill:url(#path1948_1_);}
	.st1{fill:url(#path1950_1_);}
</style>
<g>
	
		<linearGradient id="path1948_1_" gradientUnits="userSpaceOnUse" x1="205.1793" y1="-49.4251" x2="290.1376" y2="-122.5203" gradientTransform="matrix(0.5625 0 0 -0.568 -85.8504 5.6263)">
		<stop  offset="0" style="stop-color:#5A9FD4"/>
		<stop  offset="1" style="stop-color:#306998"/>
	</linearGradient>
	<path id="path1948" class="st0" d="M74.5,31.2c-3.6,0-7,0.3-10,0.9c-8.8,1.6-10.4,4.8-10.4,10.9v8h20.9v2.7H54.1h-7.8
		c-6.1,0-11.4,3.6-13.1,10.6c-1.9,8-2,12.9,0,21.2c1.5,6.2,5,10.6,11.1,10.6h7.2v-9.5c0-6.9,6-13,13.1-13h20.9
		c5.8,0,10.4-4.8,10.4-10.6V42.9c0-5.7-4.8-9.9-10.4-10.9C81.8,31.5,78.1,31.2,74.5,31.2z M63.2,37.6c2.2,0,3.9,1.8,3.9,4
		c0,2.2-1.8,4-3.9,4c-2.2,0-3.9-1.8-3.9-4C59.3,39.4,61,37.6,63.2,37.6z"/>
	
		<linearGradient id="path1950_1_" gradientUnits="userSpaceOnUse" x1="322.9816" y1="-166.754" x2="292.6447" y2="-123.8326" gradientTransform="matrix(0.5625 0 0 -0.568 -85.8504 5.6263)">
		<stop  offset="0" style="stop-color:#FFD43B"/>
		<stop  offset="1" style="stop-color:#FFE873"/>
	</linearGradient>
	<path id="path1950" class="st1" d="M98.4,53.5v9.3c0,7.2-6.1,13.2-13.1,13.2H64.5c-5.7,0-10.4,4.9-10.4,10.6v19.9
		c0,5.7,4.9,9,10.4,10.6c6.6,1.9,13,2.3,20.9,0c5.3-1.5,10.4-4.6,10.4-10.6v-8H74.9V96h20.9h10.4c6.1,0,8.3-4.2,10.4-10.6
		c2.2-6.5,2.1-12.8,0-21.2c-1.5-6-4.4-10.6-10.4-10.6H98.4z M86.7,103.9c2.2,0,3.9,1.8,3.9,4c0,2.2-1.8,4-3.9,4
		c-2.2,0-3.9-1.8-3.9-4C82.8,105.7,84.5,103.9,86.7,103.9z"/>
</g>
</svg>
