<?xml version="1.0" encoding="utf-8"?>
<!-- Generator: Adobe Illustrator 24.1.1, SVG Export Plug-In . SVG Version: 6.00 Build 0)  -->
<svg version="1.1" id="Layer_1" xmlns="http://www.w3.org/2000/svg" xmlns:xlink="http://www.w3.org/1999/xlink" x="0px" y="0px"
	 viewBox="0 0 60 60" style="enable-background:new 0 0 60 60;" xml:space="preserve">
<style type="text/css">
	.st0{fill-rule:evenodd;clip-rule:evenodd;fill:#22ADF6;}
</style>
<g id="Network">
	<g id="Icon-6">
		<path id="servers" class="st0" d="M30,44c-1.1,0-2-0.9-2-2s0.9-2,2-2s2,0.9,2,2S31.1,44,30,44L30,44z M60,7v44c0,2.76-2.24,5-5,5
			h-6c-0.55,0-1-0.45-1-1s0.45-1,1-1h6c1.65,0,3-1.35,3-3V7c0-1.65-1.35-3-3-3h-6.5c-0.55,0-1-0.45-1-1s0.45-1,1-1H55
			C57.76,2,60,4.24,60,7L60,7z M48,13c0-0.55,0.45-1,1-1h6c0.55,0,1,0.45,1,1s-0.45,1-1,1h-6C48.45,14,48,13.55,48,13L48,13z M48,21
			c0-0.55,0.45-1,1-1h6c0.55,0,1,0.45,1,1s-0.45,1-1,1h-6C48.45,22,48,21.55,48,21L48,21z M48,29c0-0.55,0.45-1,1-1h6
			c0.55,0,1,0.45,1,1s-0.45,1-1,1h-6C48.45,30,48,29.55,48,29L48,29z M12.5,3c0,0.55-0.45,1-1,1H5C3.35,4,2,5.35,2,7v44
			c0,1.65,1.35,3,3,3h6c0.55,0,1,0.45,1,1s-0.45,1-1,1H5c-2.76,0-5-2.24-5-5V7c0-2.76,2.24-5,5-5h6.5C12.05,2,12.5,2.45,12.5,3
			L12.5,3z M12,49c0,0.55-0.45,1-1,1H9c-0.55,0-1-0.45-1-1s0.45-1,1-1h2C11.55,48,12,48.45,12,49L12,49z M36,53c0,0.55-0.45,1-1,1
			H25c-0.55,0-1-0.45-1-1s0.45-1,1-1h10C35.55,52,36,52.45,36,53L36,53z M48,49c0-0.55,0.45-1,1-1h2c0.55,0,1,0.45,1,1s-0.45,1-1,1
			h-2C48.45,50,48,49.55,48,49L48,49z M4,13c0-0.55,0.45-1,1-1h6c0.55,0,1,0.45,1,1s-0.45,1-1,1H5C4.45,14,4,13.55,4,13L4,13z M4,21
			c0-0.55,0.45-1,1-1h6c0.55,0,1,0.45,1,1s-0.45,1-1,1H5C4.45,22,4,21.55,4,21L4,21z M12,29c0,0.55-0.45,1-1,1H5c-0.55,0-1-0.45-1-1
			s0.45-1,1-1h6C11.55,28,12,28.45,12,29L12,29z M30.03,10c-0.55,0-1.01-0.45-1.01-1s0.44-1,1-1h0.01c0.55,0,1,0.45,1,1
			S30.58,10,30.03,10L30.03,10z M42,13c0,0.55-0.45,1-1,1H19c-0.55,0-1-0.45-1-1s0.45-1,1-1h22C41.55,12,42,12.45,42,13L42,13z
			 M30.03,18c-0.55,0-1.01-0.45-1.01-1s0.44-1,1-1h0.01c0.55,0,1,0.45,1,1S30.58,18,30.03,18L30.03,18z M42,21c0,0.55-0.45,1-1,1H19
			c-0.55,0-1-0.45-1-1s0.45-1,1-1h22C41.55,20,42,20.45,42,21L42,21z M30.03,26c-0.55,0-1.01-0.45-1.01-1s0.44-1,1-1h0.01
			c0.55,0,1,0.45,1,1S30.58,26,30.03,26L30.03,26z M42,5c0,0.55-0.45,1-1,1H19c-0.55,0-1-0.45-1-1s0.45-1,1-1h22
			C41.55,4,42,4.45,42,5L42,5z M42,29c0,0.55-0.45,1-1,1H19c-0.55,0-1-0.45-1-1s0.45-1,1-1h22C41.55,28,42,28.45,42,29L42,29z
			 M44,55c0,1.65-1.35,3-3,3H19c-1.65,0-3-1.35-3-3V5c0-1.65,1.35-3,3-3h22c1.65,0,3,1.35,3,3V55z M41,0H19c-2.76,0-5,2.24-5,5v50
			c0,2.76,2.24,5,5,5h22c2.76,0,5-2.24,5-5V5C46,2.24,43.76,0,41,0L41,0z"/>
	</g>
</g>
</svg>
