<?xml version="1.0" encoding="UTF-8"?>
<!-- Generator: Adobe Illustrator 19.2.0, SVG Export Plug-In . SVG Version: 6.00 Build 0)  -->
<svg width="1600" height="370" version="1.1" xmlns="http://www.w3.org/2000/svg"><title>RavenDB logo</title>
<style type="text/css">
	.st0{fill:#CA1C59;}
</style>
<g transform="matrix(4.339739 0 0 4.339739 4.49071 6.419748)">
	<rect class="st0" x="95.2" y="14.9" width="3.9" height="4.2" style="fill:#d11e5c"/>
	<rect class="st0" x="95.9" y="22.1" width="3.8" height="4" style="fill:#d11e5c"/>
	<rect class="st0" x="108.8" y="24.1" width="4.3" height="4.6" style="fill:#d11e5c"/>
	<rect class="st0" x="65.8" y="16.8" width="2.9" height="3.1" style="fill:#d11e5c"/>
	<rect class="st0" x="75.1" y="16.7" width="3.1" height="3.4" style="fill:#d11e5c"/>
	<polygon class="st0" points="103.2 16.4 103.2 20.8 107.4 20.8 107.4 19.4 111.4 19.4 111.4 14.2 106.7 14.2 106.7 16.4" style="fill:#d11e5c"/>
	<rect class="st0" x="61.5" y="9.6" width="2.3" height="2.6" style="fill:#d11e5c"/>
	<rect class="st0" x="114.4" y="31.4" width="3.9" height="4.2" style="fill:#d11e5c"/>
	<rect class="st0" x="102" y="29.1" width="3.4" height="3.6" style="fill:#d11e5c"/>
	<rect class="st0" x="88.9" y="12.8" width="3.3" height="3.4" style="fill:#d11e5c"/>
	<rect class="st0" x="85.7" y="18.9" width="3.6" height="3.9" style="fill:#d11e5c"/>
	<rect class="st0" x="118.7" y="25.7" width="2.3" height="2.6" style="fill:#d11e5c"/>
	<rect class="st0" x="78.3" y="22.9" width="2.2" height="2.5" style="fill:#d11e5c"/>
	<polygon class="st0" points="98.4 9.8 100.7 9.8 100.7 11.6 103.1 11.6 103.1 9.1 101.1 9.1 101.1 6.8 98.4 6.8" style="fill:#d11e5c"/>
	<rect class="st0" x="81.8" y="12.2" width="2.2" height="2.5" style="fill:#d11e5c"/>
	<rect class="st0" x="49.9" y="5.6" width="2.2" height="2.5" style="fill:#d11e5c"/>
	<rect class="st0" x="90.4" y="27.5" width="2.2" height="2.5" style="fill:#d11e5c"/>
	<rect class="st0" x="72.7" y="6.6" width="2.6" height="2.7" style="fill:#d11e5c"/>
	<rect class="st0" x="87" y="5.2" width="2.2" height="2.5" style="fill:#d11e5c"/>
	<path class="st0" d="m111.8 10.4v1.4h3.1v4.7h3.8v2.3h-4.3v4.8h4.6v-3.3h1.2v1.7h2.6v5.1h2v4.7h-1.3v1.6h-1c2.7 8.5 3.8 18.1 3.8 18.1 2.2-4.3 12.9-45.9-29.7-49.2 5.9 2.9 10.2 6.3 12.4 8.1z" style="fill:#d11e5c"/>
	<path class="st0" d="m95.6 80.1h13.8l-20-42.6h-12.9l-14 27.6h-4v9.6l-1.3 3.6-13.8-16.6c1.6-.4 2.9-.9 4.2-1.6.4-.3.9-.4 1.3-.7.1 0 .1-.1.3-.1.3-.1.7-.4.9-.5.1 0 .3-.1.3-.3.3-.1.5-.4.8-.7l.3-.3c.4-.3.7-.5.9-.8 2.1-2.1 3.1-4.4 3.1-7.3 0-1.3-.4-2.7-1.2-4.3s-2-2.9-3.5-4.2c-1.6-1.3-3.5-2.3-5.7-3.1s-4.9-1.3-7.8-1.3h-31.7v16.5h-3.1v9.8h3.1v17.3h13v-17.3h10.8l13.9 17.3h25.7l3.3-5.3h21.4zm-76.9-34.5h16.2c.8 0 1.6.1 2.3.4.8.3 1.4.5 2.1.9s1 .9 1.4 1.3c.4.5.5 1 .5 1.6 0 .5-.1 1.2-.5 1.7s-.9.9-1.4 1.4c-.7.4-1.3.8-2.1.9-.8.3-1.6.4-2.3.4h-16.2zm57.8 19.5 2.3-4.8 4.2-8.7 6.5 13.7h-13z" style="fill:#3a3a3c"/>
	<polygon class="st0" points="203.2 60.2 203.2 80 215.7 80 215.7 60.2 215.7 60.2 215.7 53 243.7 80 256.2 80 256.2 60.2 256.2 37.5 240.6 37.5 240.6 47 243.7 47 243.7 60.2 243.7 64.5 239.3 60.2 215.7 37.5 203.2 37.5" style="fill:#3a3a3c"/>
	<path class="st0" d="m362.9 72.8c1.2-2.2 1.6-6 .8-8.7-.4-1.2-.8-2.3-1.4-3.1-.1-.3-.4-.4-.5-.7l-.4-.4c-.1-.1-.1-.3-.3-.3-.3-.3-.7-.7-.9-.8-.8-.5-1.6-.9-2.3-1.2.5-.3 1.2-.7 1.8-1 .7-.4 1.3-1 1.8-1.7s1-1.4 1.3-2.5c.4-.9.7-2.7.5-4.6-.1-1-.3-2.2-.8-3.1-.8-1.6-1.3-2.3-2.7-3.5s-3.3-2.1-5.5-2.7c-2.2-.8-4.9-1-8.2-1h-30.6v16h-3.1v9.6h3.1v17.1h31.8c2.5 0 4.7-.3 6.8-.9s3.9-1.4 5.5-2.5c1.4-1.4 2.7-2.5 3.3-4zm-34.9-26.8h16.2c.8 0 1.6.1 2.2.4.8.3 1.4.5 2.1.9s1.2.8 1.6 1.3.5 1 .5 1.4c0 .5-.1 1-.5 1.6-.4.5-.9.9-1.6 1.3s-1.3.8-2.1.9c-.8.3-1.6.4-2.2.4h-16.2zm24 22.6c-.4.5-.9.9-1.6 1.3s-1.4.7-2.3.9c-.9.3-1.8.4-2.9.4h-17.2v-8.5h17.2c2.1 0 3.8.4 5.2 1.3 1.4.8 2.1 1.8 2.1 3 0 .6-.3 1.1-.5 1.6z" style="fill:#d11e5c"/>
	<path class="st0" d="m198.7 80.1v-8.5h-35.2v-8.6h26.6v-9.6h-26.6v-7.3h35.2v-8.6h-38.8c-4.9 2.1-9.1 6.5-9.1 6.5v9.4h-3.1v9.5h3.1v17.2z" style="fill:#3a3a3c"/>
	<path class="st0" d="m137.6 60.2c.1-.1.3-.4.3-.5.4-.7.7-1.3 1-1.8.3-.4.4-.8.7-1.2 1.4-2.7 2.7-5.1 3.6-6.6l-1.8 1.8c-.1.1-.4.3-.5.5-.4.4-.9.8-1.3 1.2-.3.1-.4.4-.7.5-.4.3-.8.7-1.2.9-.3.1-.4.4-.7.5-.4.3-.8.5-1.2.8-.3.1-.4.3-.7.4-.4.3-.8.5-1.2.8-.3.1-.4.3-.5.4-.4.3-.8.5-1.2.7-.1.1-.4.1-.5.3-.4.3-.8.4-1.2.7-.1.1-.3.1-.4.3-.4.3-.8.4-1.2.5-3.9 2-6.5 2.6-6.5 2.6l-1.4-2.6-12.5-23.3h-13l22.5 43.2h8.7c.2-.2 5.9-11 10.9-20.1z" style="fill:#3a3a3c"/>
	<path class="st0" d="m262.1 47v33h21.2c3.6 0 7.2-.5 10.3-1.7 3.3-1 6-2.6 8.3-4.6s4.2-4.2 5.6-6.8c1.2-2.1 1.8-4.4 2-6.8 0-.5.1-1 .1-1.4 0-2.9-.7-5.6-1.8-8.2-1.3-2.6-3-4.8-5.2-6.8s-4.8-3.5-7.9-4.6c-3.1-1.2-6.5-1.7-10.2-1.7h-25.4v9.6zm21.2-.9c2.1.3 4 .8 6 1.6s3.6 1.7 5.1 2.9c1.4 1.2 2.6 2.3 3.5 3.8.9 1.4 1.3 2.9 1.3 4.4 0 .5 0 1-.1 1.4-.1 1.3-.5 2.6-1.2 3.6-.9 1.6-2.1 3-3.5 4-1.4 1.2-3.1 2.1-5.1 2.7s-3.9.9-6 .9h-9.8v-25.3z" style="fill:#d11e5c"/>
	<path class="st0" d="m126.4 12.1 2.6-.1-1.6 1.4c.5.7.9 1.3 1.3 2l4.3-.8-3 3.3c7.4 25.3-5.5 40.8-5.5 40.8 10.6-3.6 24.6-19.4 35.8-25.1 10.8-5.6 20.8-.1 20.2-2.2-1.4-4.4-11.3-9.6-11.3-9.6-4.3-4.9-9.1-6.3-12.2-6.9-5.7-1-11.5.1-14.3.8-10.2-13.4-32.3-13.7-32.3-13.7 7.5 2.4 12.6 5.9 16 10.1zm33.3 8.2c1.3 0 3.6.9 5.5 2.6 0 0-1.2.3-2.5.1-1 0-2.2-.4-3.4-1.4-.9-.9-.5-1.4.4-1.3z" style="fill:#3a3a3c"/>
</g>
</svg>