<?xml version="1.0" encoding="utf-8"?>
<!-- Generator: Adobe Illustrator 24.1.1, SVG Export Plug-In . SVG Version: 6.00 Build 0)  -->
<svg version="1.1" id="Layer_1" xmlns="http://www.w3.org/2000/svg" xmlns:xlink="http://www.w3.org/1999/xlink" x="0px" y="0px"
	 viewBox="0 0 56.78 57.05" style="enable-background:new 0 0 56.78 57.05;" xml:space="preserve">
<style type="text/css">
	.st0{fill:none;stroke:#22ADF6;stroke-width:2;stroke-linecap:round;stroke-linejoin:round;stroke-miterlimit:10;}
</style>
<path class="st0" d="M41.58,10.54h12.2c1.1,0,2,0.9,2,2v35.59c0,1.1-0.9,2-2,2H3c-1.1,0-2-0.9-2-2V12.54c0-1.1,0.9-2,2-2h10.79
	 M23.28,50.13v5.92 M33.45,50.13v5.92 M18.53,56.05h20.27 M1,41.71h49.96 M41.59,35.74h-27.5H13c0-8.07,6.54-14.6,14.6-14.6
	s14.6,6.54,14.6,14.6H41.59z M35.6,13.14c0,4.42-3.58,8-8,8s-8-3.58-8-8 M19.69,7.88C20.23,3.99,23.57,1,27.61,1
	s7.38,2.99,7.92,6.88 M35.42,12.38H19.79c-0.93,0-1.69-0.76-1.69-1.69V9.58c0-0.93,0.76-1.69,1.69-1.69h15.64
	c0.93,0,1.69,0.76,1.69,1.69v1.11C37.12,11.62,36.35,12.38,35.42,12.38z M25.23,1.36V7 M29.81,1.36V7"/>
</svg>
