<svg xmlns="http://www.w3.org/2000/svg" role="img" viewBox="3.65 23.40 278.20 248.95"><title>RethinkDB logo</title><style>svg {enable-background:new 0 0 288 288}</style><style>.st12{fill:#fefefe}</style><path d="M9 265.6v-2.8c0-.6.3-.8.8-.8h2.9v-29.4H9.9c-.6 0-.8-.3-.8-.8V229c0-.6.3-.8.8-.8 4.8-.2 8.8-.3 12-.3 9.8 0 14.7 3.5 14.7 10.5 0 2.4-.6 4.6-1.9 6.5-1.2 1.9-2.9 3.3-5 4.3l6.6 13h3.5c.6 0 .8.3.8.8v2.8c0 .6-.3.8-.8.8h-7.5c-.6 0-1-.2-1.2-.7l-7.7-15.2h-1.1c-1.2 0-2.3-.1-3.2-.2V262h3.6c.6 0 .8.3.8.8v2.8c0 .6-.3.8-.8.8H9.9c-.6 0-.9-.3-.9-.8zm10.1-33.2V246c.3 0 .7.1 1.3.1 3.1 0 5.4-.6 7.1-1.8 1.7-1.2 2.5-3 2.5-5.4 0-4.3-3-6.4-8.9-6.4.1-.1-2-.1-2-.1zm37.4 34.7c-4.5 0-7.8-1.3-9.9-3.9-2.1-2.6-3.1-6.1-3.1-10.4 0-4.3 1.1-7.9 3.3-10.7 2.2-2.8 5.4-4.2 9.6-4.2 2.1 0 3.9.4 5.3 1.2 1.5.8 2.6 1.8 3.4 3.1 1.5 2.6 2.3 5.5 2.3 8.9 0 1.6-.1 2.4-.2 2.6-.2.2-.4.2-.8.2H49.8c.2 2.7.9 4.8 2 6.3s3.1 2.2 6 2.2c2.1 0 4.2-.5 6.4-1.5.5-.3.9-.1 1.1.5l1.1 2.6c.2.5 0 .8-.5 1.1-2.5 1.3-5.6 2-9.4 2zm-6.7-17.4h11.8c.1-4.7-1.8-7.1-5.5-7.1-2.2 0-3.8.7-4.7 2.1-1 1.4-1.5 3.1-1.6 5zm30.6-6.6v14.2c0 1.8.2 3.1.7 3.8.5.8 1.3 1.2 2.5 1.2s2.4-.3 3.6-.8c.4-.2.7 0 .9.5l1 2.6c0 .1.1.3.1.5s-.2.4-.6.6c-1.8.9-4 1.4-6.4 1.4-3.4 0-5.6-.9-6.6-2.6-.8-1.1-1.2-2.2-1.3-3.3-.2-1.5-.2-3-.2-4.5v-13.6h-3.2c-.6 0-.8-.3-.8-.8v-2.9c0-.6.3-.8.8-.8h3.2V231c0-.6.3-.8.8-.8h4.6c.6 0 .8.3.8.8v7.6H86c.6 0 .8.3.8.8v2.9c0 .6-.3.8-.8.8h-5.6zm10.8-15v-2.9c0-.6.3-.8.8-.8h8.5c.6 0 .8.3.8.8v17.4c2.1-3.1 5-4.7 8.8-4.7 5.8 0 8.8 3.2 8.8 9.6V262h3.3c.6 0 .8.3.8.8v2.8c0 .6-.3.8-.8.8h-12.4c-.6 0-.8-.3-.8-.8v-2.8c0-.6.3-.8.8-.8h2.7v-11.7c0-2.4-.3-4.1-.9-5.2-.6-1.1-1.8-1.6-3.7-1.6-1.9 0-3.4.6-4.7 1.7-1.2 1.1-1.9 2.4-1.9 3.8v13h3.4c.6 0 .8.3.8.8v2.8c0 .6-.3.8-.8.8H92c-.6 0-.8-.3-.8-.8v-2.8c0-.6.3-.8.8-.8h3.1v-33.1H92c-.6 0-.8-.3-.8-.8zm44.3 33.9h3.6c.6 0 .8.3.8.8v2.8c0 .6-.3.8-.8.8h-13.4c-.6 0-.8-.3-.8-.8v-2.8c0-.6.3-.8.8-.8h3.6v-18.9h-3.1c-.6 0-.8-.3-.8-.8v-2.9c0-.6.3-.8.8-.8h8.5c.6 0 .8.3.8.8V262zm-7.9-31.4c0-1.2.4-2.1 1.1-2.9.7-.8 1.7-1.2 2.9-1.2s2.2.4 2.9 1.2c.7.8 1.1 1.7 1.1 2.9s-.4 2.1-1.1 2.9c-.8.8-1.7 1.1-3 1.1-1.2 0-2.2-.4-2.9-1.1-.6-.8-1-1.8-1-2.9zm14.3 11.7v-3c0-.6.3-.8.8-.8h7.7c.5 0 .8.3.9.8l.5 3.3c2.1-3.2 5.1-4.7 9-4.7 5.8 0 8.8 3.2 8.8 9.6V262h3.3c.6 0 .8.3.8.8v2.8c0 .6-.3.8-.8.8h-12.3c-.6 0-.8-.3-.8-.8v-2.8c0-.6.3-.8.8-.8h2.7v-11.7c0-2.4-.3-4.1-.9-5.2-.6-1.1-1.8-1.6-3.7-1.6s-3.4.6-4.7 1.7c-1.2 1.1-1.9 2.4-1.9 3.8v13h3.5c.6 0 .8.3.8.8v2.8c0 .6-.3.8-.8.8h-12.8c-.6 0-.8-.3-.8-.8v-2.8c0-.6.3-.8.8-.8h3v-18.9h-3.1c-.5 0-.8-.3-.8-.8zm44.3-17.2v22.5h2.9l8.8-8.6c.4-.4.9-.6 1.5-.6h4.4c.6 0 .8.3.8.8v2.9c0 .6-.3.8-.8.8h-3.4l-6.2 6 7.7 12.8h3.3c.6 0 .8.3.8.8v2.8c0 .6-.3.8-.8.8h-7.3c-.5 0-1-.2-1.3-.7l-8.5-13.7h-1.9v9.9h3c.6 0 .8.3.8.8v2.8c0 .6-.3.8-.8.8h-12.3c-.6 0-.8-.3-.8-.8v-2.8c0-.6.3-.8.8-.8h3v-33.1h-3.1c-.6 0-.8-.3-.8-.8v-2.9c0-.6.3-.8.8-.8h8.5c.7.3.9.6.9 1.1zm23.5 3c4.8-.2 8.4-.3 10.7-.3 2.3 0 4.1 0 5.2.1 1.1.1 2.5.3 3.9.6 1.5.3 2.8.7 3.9 1.2s2.3 1.2 3.5 2.2c1.2.9 2.1 2 2.9 3.3 1.7 2.9 2.6 6.6 2.6 11.1 0 6.8-1.9 11.9-5.6 15.2-3.8 3.3-8.9 5-15.4 5h-11.8c-.6 0-.8-.3-.8-.8v-2.8c0-.6.3-.8.8-.8h2.9v-29.3h-2.9c-.6 0-.8-.3-.8-.8v-2.9c0-.8.3-1 .9-1zm22.6 29.9c2.3-2.7 3.4-6.4 3.4-11.1 0-4.7-1.1-8.3-3.2-10.7-2.1-2.4-5.5-3.7-10-3.7H219V262h3.7c4.1 0 7.3-1.3 9.6-4zm14.9 7.6v-2.8c0-.6.3-.8.8-.8h3v-29.3h-2.9c-.6 0-.8-.3-.8-.8V229c0-.6.3-.9.8-.9 4.5-.2 8.8-.3 12.9-.3s7.3.8 9.7 2.3c2.4 1.6 3.6 3.8 3.6 6.7 0 2.1-.6 3.9-1.9 5.5-1.3 1.6-2.8 2.7-4.6 3.4 2.9.5 5.1 1.5 6.6 3.2 1.5 1.7 2.3 3.8 2.3 6.2 0 3.2-1.2 5.8-3.6 7.8-2.4 2-5.5 3.1-9.4 3.4-1.6.1-4.2.2-7.8.2H248c-.6-.1-.8-.4-.8-.9zm10.1-17V262h2.5c3.3 0 5.9-.5 7.7-1.6 1.8-1.1 2.7-2.9 2.7-5.5 0-4.3-3-6.4-8.9-6.4l-4 .1zm0-16.3v11.6h2.1c5.6 0 8.4-1.9 8.4-5.8 0-2.2-.7-3.7-2-4.5-1.4-.8-3.3-1.3-5.8-1.3h-2.7z"/><g id="JeZY93.tif"><path fill="#06262c" d="M119 204.1c-12.3-9.5-13.9-23.5-15.5-37.4-.6-5.1-.3-10.4-.2-15.6.1-4.6 2-9.4-3.2-12.7-.9-.6-1.6-2.9-1.2-3.8 2.5-5.8-2.1-7.5-5.3-10.2-6.8-5.6-8.3-11.6-5-19.7 1.3-3.2 2-6.3 2.4-9.7 1.6-12.6 8.1-22.5 18.5-29.6 2.9-2 4.3-4 4.9-7.4 3.5-21.1 19-32.3 38.2-28.3 8.3 1.7 13.8 7 17.7 14.1 2.1 3.7 3.3 7.7 4.3 11.8 3 12 6 23.8 16.3 32.4 7.9 6.6 9.4 15.9 6.8 25.8-2.5 9.4-2.1 18.9-1.2 28.5 1.6 18-3.5 34.5-12.1 49.9-4.5 8.1-11.1 8.9-18.3 2.7-9.7-8.3-9.7-8.3-20.9-2.5-7.8 4.1-15.2 9-23.7 11.9-.9-.2-1.7-.2-2.5-.2z"/><path d="M175.2 177c-2.1-1.5-3.6-.2-5.3.4-13.7 5.6-27.3 11.3-40.1 18.8-9 5.3-12.2 4.3-16.8-5.3-7.1-14.6-7.1-30.1-5.9-45.8.2-2.3 1.5-2.2 3.1-2.5 14.1-3.1 19-10.1 16.7-24.5-.3-1.6.2-2.7.7-3.9 6.1-14.6 3.1-28.4-8.6-38.5-1.7-1.4-2-2.9-2.1-4.6-.3-7.9.3-15.7 3.7-22.9 4.8-10.5 12.8-16.6 24.9-16.5 12 0 20.7 5.9 23.5 16.9 6.5 26 20 49.8 23 76.8 2.4 21.5 1.9 42.4-9.1 61.9-2 3.6-3.7 8.1-9 7.5-5.5-.7-8.1-5.6-11.4-9.1-1.6-1.7 1-2 2-2.6 3.4-2.1 7.9-2.5 10.7-6.1z" class="st12"/><path d="M114.3 107.5c1.4 3.6 4.1 4.8 5.9 6.8 5 5.3 5.9 10.3 2.7 16.4-2.6 5-10.3 9.3-15.4 8.6-2.4-.3-4.4-1.4-5-3.7-.5-1.7-1.2-3.8 1.5-5 2.7-1.2.7-2.5-.5-3.3-2.6-1.9-5.5-3.4-7.9-5.4-7-5.7-7.6-14-1.2-20.4 4.5-4.5 9.7-8.3 14.5-12.6 2.7-2.4 4.1-1.4 5.2 1.4 1.5 3.9 3.3 7.7 4.4 11.7 1 3.1 3.4 7.8-4.2 5.5z" class="st12"/><path fill="#209fbc" d="M94.1 95.6c2.5-11.8 7.7-21 17.8-27.4 4.3 11.8.4 14.9-17.8 27.4z"/><path fill="#209ebb" d="M124.2 112.9c-1.8-.9-1.7-2.1-1.5-3.3 1.1-8.4-2.1-15.7-6.3-22.6-1.5-2.5-2.7-4.6.3-6.5 3.5-2.3 3.9 1.8 4.9 3.2 6.8 9.5 7.7 20.6 2.6 29.2z"/><path fill="#f0f2f2" d="M186.7 89.1c8.2 6.7 11.2 14.7 7.1 25.1-2.5-8.6-4.8-16.9-7.1-25.1z"/><path fill="#3f585d" d="M167.3 49.5c-3 .2-5.3.4-7.6.5 2.7-4.7 3.3-4.8 7.6-.5z"/><path fill="#09282e" d="M137.7 54c2.5-4.2 4.9-4.1 8.5-1.6-3.1.6-5.3 1-8.5 1.6z"/></g></svg>