<?xml version="1.0" encoding="utf-8"?>
<!-- Generator: Adobe Illustrator 19.0.0, SVG Export Plug-In . SVG Version: 6.00 Build 0)  -->
<svg version="1.1" id="Layer_1" xmlns="http://www.w3.org/2000/svg" xmlns:xlink="http://www.w3.org/1999/xlink" x="0px" y="0px"
	 viewBox="0 0 500 500" style="enable-background:new 0 0 500 500;" xml:space="preserve">
<style type="text/css">
	.st0{fill:#3D4C67;}
	.st1{fill:#F6861A;}
</style>
<g id="XMLID_1_">
	<path id="XMLID_3_" class="st0" d="M263.5,382.5c0-4.5-0.7-61.7-18.9-111c-18.9-51.3-51-94.3-51-94.3s66.4,40.4,96.9,74.1
		c26.3,29,49.2,74.7,55,86.8c-6.3,4.7-10.4,12.2-10.4,20.7c0,14.2,11.5,25.7,25.7,25.7c14.2,0,25.7-11.5,25.7-25.7
		c0-13.7-10.8-25-24.4-25.6c-4.1-10.4-21.2-50.8-55.8-89.8c-40.1-45.2-95.9-75.4-95.9-75.4s60.3,19.2,90.8,32.7
		c27,12,71.8,36.8,81.5,42.2c-0.9,2.6-1.3,5.3-1.3,8.1c0,14.2,11.5,25.7,25.7,25.7c14.2,0,25.7-11.5,25.7-25.7
		c0-14.2-11.5-25.7-25.7-25.7c-5.4,0-10.4,1.7-14.5,4.5c-9.9-6.5-50.2-31.9-111.2-55.2c-70.6-26.9-122.5-36.2-122.5-36.2l-9,20.2
		c0,0,34.1,22.6,67.8,95.7c30.9,67.1,28.9,117.6,28.3,125.5c-11.7,2.4-20.5,12.7-20.5,25.1c0,14.2,11.5,25.7,25.7,25.7
		c14.2,0,25.7-11.5,25.7-25.7C276.6,395.3,271.3,386.9,263.5,382.5z"/>
	<path id="XMLID_4_" class="st1" d="M158.6,141.9c0,13.5-10.9,24.4-24.4,24.4c-13.5,0-24.4-10.9-24.4-24.4
		c0-13.5,10.9-24.4,24.4-24.4C147.7,117.5,158.6,128.4,158.6,141.9"/>
	<path id="XMLID_5_" class="st0" d="M276.6,95.1c0,14.2-11.5,25.7-25.7,25.7c-14.2,0-25.7-11.5-25.7-25.7
		c0-14.2,11.5-25.7,25.7-25.7C265.1,69.4,276.6,80.9,276.6,95.1"/>
	<path id="XMLID_6_" class="st0" d="M386.3,143.2c0,14.2-11.5,25.7-25.7,25.7c-14.2,0-25.7-11.5-25.7-25.7
		c0-14.2,11.5-25.7,25.7-25.7C374.8,117.5,386.3,129,386.3,143.2"/>
	<path id="XMLID_7_" class="st0" d="M165,360.7c0,14.2-11.5,25.7-25.7,25.7c-14.2,0-25.7-11.5-25.7-25.7c0-14.2,11.5-25.7,25.7-25.7
		C153.5,335,165,346.5,165,360.7"/>
	<path id="XMLID_8_" class="st0" d="M118.8,251c0,14.2-11.5,25.7-25.7,25.7c-14.2,0-25.7-11.5-25.7-25.7c0-14.2,11.5-25.7,25.7-25.7
		C107.3,225.3,118.8,236.8,118.8,251"/>
</g>
</svg>
