<svg width="2500" height="1963" viewBox="0 0 256 201" xmlns="http://www.w3.org/2000/svg" preserveAspectRatio="xMidYMid"><path d="M256 21.928c-.461-11.598-.789-29.24-26.603-18.695-43.069 15.827-86.386 31.07-129.067 47.915-32.34 12.77-67.76 26.762-85.994 95.116C9.56 164.174 4.78 182.088 0 200h41.055c3.863-14.486 7.73-28.97 11.595-43.455 13.055-48.95 38.696-59.075 62.105-68.318 33.594-13.257 67.636-25.371 101.537-37.83V200H256V21.928z" fill="#3A4757"/><path d="M98.982 108.154c-4.176 2.322-8.17 5.014-11.916 8.349-12.62 11.23-19.462 27.265-23.75 43.276l-10.795 40.279h46.461v-91.904z" fill="#F7941E"/><path d="M150.721 87.13a1986.965 1986.965 0 0 0-32.137 12.28c-2.854 1.122-5.673 2.235-8.439 3.403v97.245h40.576V87.129z" fill="#BFD730"/><path d="M204.652 200.058V67.39c-14.262 5.184-28.532 10.347-42.769 15.599v117.068h42.769z" fill="#00BAD9"/></svg>