<?xml version="1.0" encoding="utf-8"?>
<!-- Generator: Adobe Illustrator 24.2.0, SVG Export Plug-In . SVG Version: 6.00 Build 0)  -->
<svg version="1.1" id="Layer_1" xmlns="http://www.w3.org/2000/svg" xmlns:xlink="http://www.w3.org/1999/xlink" x="0px" y="0px"
	 viewBox="0 0 150 150" style="enable-background:new 0 0 150 150;" xml:space="preserve">
<style type="text/css">
	.st0{fill:url(#SVGID_1_);}
	.st1{fill:url(#SVGID_2_);}
	.st2{fill:url(#SVGID_3_);}
	.st3{fill:url(#SVGID_4_);}
	.st4{fill:url(#SVGID_5_);}
	.st5{fill:url(#SVGID_6_);}
	.st6{fill:url(#SVGID_7_);}
	.st7{fill:url(#SVGID_8_);}
	.st8{fill:#FFFFFF;}
	.st9{fill:url(#SVGID_9_);}
	.st10{fill:url(#SVGID_10_);}
	.st11{fill:url(#SVGID_11_);}
	.st12{fill:url(#SVGID_12_);}
	.st13{fill:#9E1209;}
	.st14{fill:url(#SVGID_13_);}
	.st15{fill:url(#SVGID_14_);}
	.st16{fill:url(#SVGID_15_);}
	.st17{fill:url(#SVGID_16_);}
</style>
<g>
	
		<linearGradient id="SVGID_1_" gradientUnits="userSpaceOnUse" x1="1.2355" y1="150.6909" x2="1.1648" y2="150.8158" gradientTransform="matrix(202.9347 0 0 -202.7803 -149.9885 30672.2188)">
		<stop  offset="0" style="stop-color:#FB7655"/>
		<stop  offset="0" style="stop-color:#FB7655"/>
		<stop  offset="0.41" style="stop-color:#E42B1E"/>
		<stop  offset="0.99" style="stop-color:#990000"/>
		<stop  offset="1" style="stop-color:#990000"/>
	</linearGradient>
	<path class="st0" d="M93.7,85.9l-38.8,23.1l50.3-3.4l3.9-50.7L93.7,85.9z"/>
	
		<linearGradient id="SVGID_2_" gradientUnits="userSpaceOnUse" x1="-0.2184" y1="151.3282" x2="-0.525" y2="151.4392" gradientTransform="matrix(60.3079 0 0 -111.7781 121.0614 17008.9707)">
		<stop  offset="0" style="stop-color:#871101"/>
		<stop  offset="0" style="stop-color:#871101"/>
		<stop  offset="0.99" style="stop-color:#911209"/>
		<stop  offset="1" style="stop-color:#911209"/>
	</linearGradient>
	<path class="st1" d="M105.2,105.5l-4.3-29.8L89.1,91.2L105.2,105.5z"/>
	
		<linearGradient id="SVGID_3_" gradientUnits="userSpaceOnUse" x1="1.2099" y1="156.3262" x2="1.1117" y2="156.8904" gradientTransform="matrix(188.3195 0 0 -21.9864 -134.743 3552.8909)">
		<stop  offset="0" style="stop-color:#871101"/>
		<stop  offset="0" style="stop-color:#871101"/>
		<stop  offset="0.99" style="stop-color:#911209"/>
		<stop  offset="1" style="stop-color:#911209"/>
	</linearGradient>
	<path class="st2" d="M105.3,105.5L73.6,103L55,108.8L105.3,105.5z"/>
	
		<linearGradient id="SVGID_4_" gradientUnits="userSpaceOnUse" x1="1.5538" y1="151.7522" x2="1.5977" y2="151.5604" gradientTransform="matrix(65.2221 0 0 -97.0999 -47.0611 14819.9395)">
		<stop  offset="0" style="stop-color:#FFFFFF"/>
		<stop  offset="0" style="stop-color:#FFFFFF"/>
		<stop  offset="0.23" style="stop-color:#E57252"/>
		<stop  offset="0.46" style="stop-color:#DE3B20"/>
		<stop  offset="0.99" style="stop-color:#A60003"/>
		<stop  offset="1" style="stop-color:#A60003"/>
	</linearGradient>
	<path class="st3" d="M55.1,108.8L63,82.9l-17.4,3.7L55.1,108.8z"/>
	
		<linearGradient id="SVGID_5_" gradientUnits="userSpaceOnUse" x1="0.9806" y1="151.1386" x2="0.9906" y2="150.9606" gradientTransform="matrix(105.3202 0 0 -106.8253 -29.2826 16212.8506)">
		<stop  offset="0" style="stop-color:#FFFFFF"/>
		<stop  offset="0" style="stop-color:#FFFFFF"/>
		<stop  offset="0.23" style="stop-color:#E4714E"/>
		<stop  offset="0.56" style="stop-color:#BE1A0D"/>
		<stop  offset="0.99" style="stop-color:#A80D00"/>
		<stop  offset="1" style="stop-color:#A80D00"/>
	</linearGradient>
	<path class="st4" d="M89.1,91.3l-7.3-28.5L61,82.3L89.1,91.3z"/>
	
		<linearGradient id="SVGID_6_" gradientUnits="userSpaceOnUse" x1="0.3227" y1="150.6028" x2="0.3562" y2="150.3977" gradientTransform="matrix(94.3212 0 0 -66.4185 61.0506 10052.667)">
		<stop  offset="0" style="stop-color:#FFFFFF"/>
		<stop  offset="0" style="stop-color:#FFFFFF"/>
		<stop  offset="0.18" style="stop-color:#E46342"/>
		<stop  offset="0.4" style="stop-color:#C82410"/>
		<stop  offset="0.99" style="stop-color:#A80D00"/>
		<stop  offset="1" style="stop-color:#A80D00"/>
	</linearGradient>
	<path class="st5" d="M107.3,63.2L87.7,47.1l-5.5,17.7L107.3,63.2z"/>
	
		<linearGradient id="SVGID_7_" gradientUnits="userSpaceOnUse" x1="0.1155" y1="149.2146" x2="0.308" y2="149.4949" gradientTransform="matrix(70.7666 0 0 -24.3007 73.6577 3671.0752)">
		<stop  offset="0" style="stop-color:#FFFFFF"/>
		<stop  offset="0" style="stop-color:#FFFFFF"/>
		<stop  offset="0.54" style="stop-color:#C81F11"/>
		<stop  offset="0.99" style="stop-color:#BF0905"/>
		<stop  offset="1" style="stop-color:#BF0905"/>
	</linearGradient>
	<path class="st6" d="M98.1,41.4l-11.6,6.4l-7.3-6.5L98.1,41.4z"/>
	
		<linearGradient id="SVGID_8_" gradientUnits="userSpaceOnUse" x1="3.2743" y1="151.7111" x2="3.3359" y2="151.5566" gradientTransform="matrix(18.1773 0 0 -72.6448 -17.1773 11101.0957)">
		<stop  offset="0" style="stop-color:#FFFFFF"/>
		<stop  offset="0" style="stop-color:#FFFFFF"/>
		<stop  offset="0.31" style="stop-color:#DE4024"/>
		<stop  offset="0.99" style="stop-color:#BF190B"/>
		<stop  offset="1" style="stop-color:#BF190B"/>
	</linearGradient>
	<path class="st7" d="M41,95.4l4.8-8.8L41.9,76L41,95.4z"/>
	<path class="st8" d="M41.7,75.6l3.9,11.2L62.8,83l19.6-18.2l5.5-17.6l-8.7-6.1l-14.8,5.5c-4.7,4.3-13.7,12.9-14,13.1
		C50,59.9,44.4,70.5,41.7,75.6L41.7,75.6z"/>
	
		<linearGradient id="SVGID_9_" gradientUnits="userSpaceOnUse" x1="1.1569" y1="150.4496" x2="1.4901" y2="150.7928" gradientTransform="matrix(158.1624 0 0 -157.9374 -148.3454 23855.9512)">
		<stop  offset="0" style="stop-color:#BD0012"/>
		<stop  offset="0" style="stop-color:#BD0012"/>
		<stop  offset="7.000000e-02" style="stop-color:#FFFFFF"/>
		<stop  offset="0.17" style="stop-color:#FFFFFF"/>
		<stop  offset="0.27" style="stop-color:#C82F1C"/>
		<stop  offset="0.33" style="stop-color:#820C01"/>
		<stop  offset="0.46" style="stop-color:#A31601"/>
		<stop  offset="0.72" style="stop-color:#B31301"/>
		<stop  offset="0.99" style="stop-color:#E82609"/>
		<stop  offset="1" style="stop-color:#E82609"/>
	</linearGradient>
	<path class="st9" d="M55.5,55.5c10.1-10,23.1-15.9,28.1-10.9c5,5-0.3,17.3-10.4,27.3c-10.1,10-23,16.3-28,11.2
		C40.3,78.1,45.4,65.5,55.5,55.5L55.5,55.5z"/>
	
		<linearGradient id="SVGID_10_" gradientUnits="userSpaceOnUse" x1="1.1673" y1="151.5925" x2="1.0424" y2="151.6327" gradientTransform="matrix(127.0738 0 0 -97.4086 -73.3301 14866.2129)">
		<stop  offset="0" style="stop-color:#8C0C01"/>
		<stop  offset="0" style="stop-color:#8C0C01"/>
		<stop  offset="0.54" style="stop-color:#990C00"/>
		<stop  offset="0.99" style="stop-color:#A80D0E"/>
		<stop  offset="1" style="stop-color:#A80D0E"/>
	</linearGradient>
	<path class="st10" d="M55.1,108.8l7.8-26L89,91.2C79.6,100.1,69.1,107.5,55.1,108.8L55.1,108.8z"/>
	
		<linearGradient id="SVGID_11_" gradientUnits="userSpaceOnUse" x1="0.4275" y1="151.0245" x2="0.2775" y2="151.1442" gradientTransform="matrix(94.0112 0 0 -105.6032 62.0811 16029.418)">
		<stop  offset="0" style="stop-color:#7E110B"/>
		<stop  offset="0" style="stop-color:#7E110B"/>
		<stop  offset="0.99" style="stop-color:#9E0C00"/>
		<stop  offset="1" style="stop-color:#9E0C00"/>
	</linearGradient>
	<path class="st11" d="M82.4,64.7l6.7,26.5c7.9-8.3,14.9-17.2,18.4-28.2L82.4,64.7L82.4,64.7z"/>
	
		<linearGradient id="SVGID_12_" gradientUnits="userSpaceOnUse" x1="0.1393" y1="150.3214" x2="5.110757e-02" y2="150.4132" gradientTransform="matrix(79.7018 0 0 -81.7914 96.3546 12352.5371)">
		<stop  offset="0" style="stop-color:#79130D"/>
		<stop  offset="0" style="stop-color:#79130D"/>
		<stop  offset="0.99" style="stop-color:#9E120B"/>
		<stop  offset="1" style="stop-color:#9E120B"/>
	</linearGradient>
	<path class="st12" d="M107.4,63.2c2.7-8.1,3.3-19.7-9.3-21.8l-10.4,5.7L107.4,63.2L107.4,63.2z"/>
	<path class="st13" d="M41,95.2c0.4,13.3,10,13.5,14.1,13.6l-9.5-22.1L41,95.2L41,95.2z"/>
	
		<radialGradient id="SVGID_13_" cx="0.2926" cy="151.3129" r="0.1856" gradientTransform="matrix(93.1133 0 0 -48.6553 63.1192 7430.5117)" gradientUnits="userSpaceOnUse">
		<stop  offset="0" style="stop-color:#A80D00"/>
		<stop  offset="0" style="stop-color:#A80D00"/>
		<stop  offset="0.99" style="stop-color:#7E0E08"/>
		<stop  offset="1" style="stop-color:#7E0E08"/>
	</radialGradient>
	<path class="st14" d="M82.4,64.8c6,3.7,18.2,11.2,18.5,11.3c0.4,0.2,5.3-8.2,6.4-13L82.4,64.8L82.4,64.8z"/>
	
		<radialGradient id="SVGID_14_" cx="0.8288" cy="151.8753" r="0.2358" gradientTransform="matrix(97.4344 0 0 -75.848 -14.3214 11610.5605)" gradientUnits="userSpaceOnUse">
		<stop  offset="0" style="stop-color:#A30C00"/>
		<stop  offset="0" style="stop-color:#A30C00"/>
		<stop  offset="0.99" style="stop-color:#800E08"/>
		<stop  offset="1" style="stop-color:#800E08"/>
	</radialGradient>
	<path class="st15" d="M62.9,82.8l10.5,20.2c6.2-3.4,11.1-7.5,15.5-11.9L62.9,82.8L62.9,82.8z"/>
	
		<linearGradient id="SVGID_15_" gradientUnits="userSpaceOnUse" x1="1.9355" y1="151.7826" x2="1.7929" y2="152.022" gradientTransform="matrix(40.1367 0 0 -81.143 -27.5331 12424.9199)">
		<stop  offset="0" style="stop-color:#8B2114"/>
		<stop  offset="0" style="stop-color:#8B2114"/>
		<stop  offset="0.43" style="stop-color:#9E100A"/>
		<stop  offset="0.99" style="stop-color:#B3100C"/>
		<stop  offset="1" style="stop-color:#B3100C"/>
	</linearGradient>
	<path class="st16" d="M45.6,86.8l-1.5,17.7c2.8,3.8,6.7,4.2,10.7,3.9C51.9,101.1,46,86.5,45.6,86.8L45.6,86.8z"/>
	
		<linearGradient id="SVGID_16_" gradientUnits="userSpaceOnUse" x1="-4.676791e-02" y1="149.6983" x2="0.1176" y2="149.5246" gradientTransform="matrix(78.0993 0 0 -32.6239 97.7268 4928.2026)">
		<stop  offset="0" style="stop-color:#B31000"/>
		<stop  offset="0" style="stop-color:#B31000"/>
		<stop  offset="0.44" style="stop-color:#910F08"/>
		<stop  offset="0.99" style="stop-color:#791C12"/>
		<stop  offset="1" style="stop-color:#791C12"/>
	</linearGradient>
	<path class="st17" d="M87.6,47.1l20.8,2.9c-1.1-4.7-4.5-7.8-10.3-8.7L87.6,47.1L87.6,47.1z"/>
</g>
</svg>
