<?xml version="1.0" encoding="utf-8"?>
<!-- Generator: Adobe Illustrator 24.2.0, SVG Export Plug-In . SVG Version: 6.00 Build 0)  -->
<svg version="1.1" id="Layer_1" xmlns="http://www.w3.org/2000/svg" xmlns:xlink="http://www.w3.org/1999/xlink" x="0px" y="0px"
	 viewBox="0 0 70 70" style="enable-background:new 0 0 70 70;" xml:space="preserve">
<style type="text/css">
	.st0{fill:url(#SVGID_1_);}
	.st1{fill:url(#SVGID_2_);}
	.st2{fill:url(#SVGID_3_);}
	.st3{fill:url(#SVGID_4_);}
	.st4{fill:url(#SVGID_5_);}
	.st5{fill:url(#SVGID_6_);}
	.st6{fill:url(#SVGID_7_);}
	.st7{fill:url(#SVGID_8_);}
	.st8{fill:#FFFFFF;}
	.st9{fill:url(#SVGID_9_);}
	.st10{fill:url(#SVGID_10_);}
	.st11{fill:url(#SVGID_11_);}
	.st12{fill:url(#SVGID_12_);}
	.st13{fill:#9E1209;}
	.st14{fill:url(#SVGID_13_);}
	.st15{fill:url(#SVGID_14_);}
	.st16{fill:url(#SVGID_15_);}
	.st17{fill:url(#SVGID_16_);}
</style>
<g>
	
		<linearGradient id="SVGID_1_" gradientUnits="userSpaceOnUse" x1="-38.7646" y1="-40.6911" x2="-38.8355" y2="-40.8162" gradientTransform="matrix(202.9347 0 0 202.7803 7927.3994 8326.3857)">
		<stop  offset="0" style="stop-color:#FB7655"/>
		<stop  offset="0" style="stop-color:#FB7655"/>
		<stop  offset="0.41" style="stop-color:#E42B1E"/>
		<stop  offset="0.99" style="stop-color:#990000"/>
		<stop  offset="1" style="stop-color:#990000"/>
	</linearGradient>
	<path class="st0" d="M53.6,45.9L14.9,69l50.2-3.4L69,14.8L53.6,45.9z"/>
	
		<linearGradient id="SVGID_2_" gradientUnits="userSpaceOnUse" x1="-40.2201" y1="-41.328" x2="-40.5263" y2="-41.4389" gradientTransform="matrix(60.3079 0 0 111.7781 2493.3774 4673.3799)">
		<stop  offset="0" style="stop-color:#871101"/>
		<stop  offset="0" style="stop-color:#871101"/>
		<stop  offset="0.99" style="stop-color:#911209"/>
		<stop  offset="1" style="stop-color:#911209"/>
	</linearGradient>
	<path class="st1" d="M65.1,65.5l-4.3-29.8L49,51.2L65.1,65.5z"/>
	
		<linearGradient id="SVGID_3_" gradientUnits="userSpaceOnUse" x1="-38.7903" y1="-46.3256" x2="-38.8886" y2="-46.8907" gradientTransform="matrix(188.3195 0 0 21.9864 7358.0371 1094.3868)">
		<stop  offset="0" style="stop-color:#871101"/>
		<stop  offset="0" style="stop-color:#871101"/>
		<stop  offset="0.99" style="stop-color:#911209"/>
		<stop  offset="1" style="stop-color:#911209"/>
	</linearGradient>
	<path class="st2" d="M65.2,65.5L33.6,63L15,68.8L65.2,65.5z"/>
	
		<linearGradient id="SVGID_4_" gradientUnits="userSpaceOnUse" x1="-38.4461" y1="-41.7526" x2="-38.4021" y2="-41.5606" gradientTransform="matrix(65.2221 0 0 97.0999 2521.8228 4098.9507)">
		<stop  offset="0" style="stop-color:#FFFFFF"/>
		<stop  offset="0" style="stop-color:#FFFFFF"/>
		<stop  offset="0.23" style="stop-color:#E57252"/>
		<stop  offset="0.46" style="stop-color:#DE3B20"/>
		<stop  offset="0.99" style="stop-color:#A60003"/>
		<stop  offset="1" style="stop-color:#A60003"/>
	</linearGradient>
	<path class="st3" d="M15.1,68.8L23,42.9L5.6,46.6L15.1,68.8z"/>
	
		<linearGradient id="SVGID_5_" gradientUnits="userSpaceOnUse" x1="-39.0201" y1="-41.1392" x2="-39.01" y2="-40.9609" gradientTransform="matrix(105.3202 0 0 106.8253 4143.5254 4422.0674)">
		<stop  offset="0" style="stop-color:#FFFFFF"/>
		<stop  offset="0" style="stop-color:#FFFFFF"/>
		<stop  offset="0.23" style="stop-color:#E4714E"/>
		<stop  offset="0.56" style="stop-color:#BE1A0D"/>
		<stop  offset="0.99" style="stop-color:#A80D00"/>
		<stop  offset="1" style="stop-color:#A80D00"/>
	</linearGradient>
	<path class="st4" d="M49,51.3l-7.3-28.5L21,42.3L49,51.3z"/>
	
		<linearGradient id="SVGID_6_" gradientUnits="userSpaceOnUse" x1="-39.6784" y1="-40.6041" x2="-39.6448" y2="-40.3987" gradientTransform="matrix(94.3212 0 0 66.4185 3793.8984 2706.6316)">
		<stop  offset="0" style="stop-color:#FFFFFF"/>
		<stop  offset="0" style="stop-color:#FFFFFF"/>
		<stop  offset="0.18" style="stop-color:#E46342"/>
		<stop  offset="0.4" style="stop-color:#C82410"/>
		<stop  offset="0.99" style="stop-color:#A80D00"/>
		<stop  offset="1" style="stop-color:#A80D00"/>
	</linearGradient>
	<path class="st5" d="M67.2,23.1L47.6,7l-5.5,17.7L67.2,23.1z"/>
	
		<linearGradient id="SVGID_7_" gradientUnits="userSpaceOnUse" x1="-39.8854" y1="-39.2183" x2="-39.6928" y2="-39.4988" gradientTransform="matrix(70.7666 0 0 24.3007 2864.3218 957.9983)">
		<stop  offset="0" style="stop-color:#FFFFFF"/>
		<stop  offset="0" style="stop-color:#FFFFFF"/>
		<stop  offset="0.54" style="stop-color:#C81F11"/>
		<stop  offset="0.99" style="stop-color:#BF0905"/>
		<stop  offset="1" style="stop-color:#BF0905"/>
	</linearGradient>
	<path class="st6" d="M58,1.3L46.4,7.7l-7.3-6.5L58,1.3z"/>
	
		<linearGradient id="SVGID_8_" gradientUnits="userSpaceOnUse" x1="-36.7274" y1="-41.711" x2="-36.6657" y2="-41.5562" gradientTransform="matrix(18.1773 0 0 72.6448 669.9147 3070.168)">
		<stop  offset="0" style="stop-color:#FFFFFF"/>
		<stop  offset="0" style="stop-color:#FFFFFF"/>
		<stop  offset="0.31" style="stop-color:#DE4024"/>
		<stop  offset="0.99" style="stop-color:#BF190B"/>
		<stop  offset="1" style="stop-color:#BF190B"/>
	</linearGradient>
	<path class="st7" d="M1,55.4l4.8-8.8L1.9,36L1,55.4z"/>
	<path class="st8" d="M1.7,35.6l3.9,11.2L22.8,43l19.6-18.2l5.5-17.6L39.1,1L24.4,6.5c-4.7,4.3-13.7,12.9-14,13.1
		C10,19.8,4.4,30.4,1.7,35.6L1.7,35.6z"/>
	
		<linearGradient id="SVGID_9_" gradientUnits="userSpaceOnUse" x1="-38.8435" y1="-40.4502" x2="-38.5103" y2="-40.7934" gradientTransform="matrix(158.1624 0 0 157.9374 6138.1504 6442.8379)">
		<stop  offset="0" style="stop-color:#BD0012"/>
		<stop  offset="0" style="stop-color:#BD0012"/>
		<stop  offset="7.000000e-02" style="stop-color:#FFFFFF"/>
		<stop  offset="0.17" style="stop-color:#FFFFFF"/>
		<stop  offset="0.27" style="stop-color:#C82F1C"/>
		<stop  offset="0.33" style="stop-color:#820C01"/>
		<stop  offset="0.46" style="stop-color:#A31601"/>
		<stop  offset="0.72" style="stop-color:#B31301"/>
		<stop  offset="0.99" style="stop-color:#E82609"/>
		<stop  offset="1" style="stop-color:#E82609"/>
	</linearGradient>
	<path class="st9" d="M15.5,15.4C25.6,5.4,38.5-0.5,43.5,4.5s-0.3,17.3-10.4,27.3s-23,16.3-28,11.2C0.3,38.1,5.4,25.4,15.5,15.4
		L15.5,15.4z"/>
	
		<linearGradient id="SVGID_10_" gradientUnits="userSpaceOnUse" x1="-38.833" y1="-41.5933" x2="-38.9578" y2="-41.6334" gradientTransform="matrix(127.0738 0 0 97.4086 4969.6221 4111.2671)">
		<stop  offset="0" style="stop-color:#8C0C01"/>
		<stop  offset="0" style="stop-color:#8C0C01"/>
		<stop  offset="0.54" style="stop-color:#990C00"/>
		<stop  offset="0.99" style="stop-color:#A80D0E"/>
		<stop  offset="1" style="stop-color:#A80D0E"/>
	</linearGradient>
	<path class="st10" d="M15.1,68.8l7.8-26l26.1,8.4C39.5,60.1,29.1,67.5,15.1,68.8L15.1,68.8z"/>
	
		<linearGradient id="SVGID_11_" gradientUnits="userSpaceOnUse" x1="-39.573" y1="-41.0255" x2="-39.7229" y2="-41.1451" gradientTransform="matrix(94.0112 0 0 105.6032 3782.5291 4373.0654)">
		<stop  offset="0" style="stop-color:#7E110B"/>
		<stop  offset="0" style="stop-color:#7E110B"/>
		<stop  offset="0.99" style="stop-color:#9E0C00"/>
		<stop  offset="1" style="stop-color:#9E0C00"/>
	</linearGradient>
	<path class="st11" d="M42.3,24.6L49,51.2c7.9-8.3,14.9-17.2,18.4-28.2L42.3,24.6L42.3,24.6z"/>
	
		<linearGradient id="SVGID_12_" gradientUnits="userSpaceOnUse" x1="-39.8616" y1="-40.3225" x2="-39.9498" y2="-40.4143" gradientTransform="matrix(79.7018 0 0 81.7914 3244.4265 3315.4834)">
		<stop  offset="0" style="stop-color:#79130D"/>
		<stop  offset="0" style="stop-color:#79130D"/>
		<stop  offset="0.99" style="stop-color:#9E120B"/>
		<stop  offset="1" style="stop-color:#9E120B"/>
	</linearGradient>
	<path class="st12" d="M67.3,23.1C70,15,70.6,3.4,58,1.3L47.6,7L67.3,23.1L67.3,23.1z"/>
	<path class="st13" d="M1,55.2c0.4,13.3,10,13.5,14.1,13.6L5.6,46.7L1,55.2L1,55.2z"/>
	
		<radialGradient id="SVGID_13_" cx="-39.7077" cy="-41.3141" r="0.1859" gradientTransform="matrix(92.8398 0 0 48.6553 3736.7473 2038.4287)" gradientUnits="userSpaceOnUse">
		<stop  offset="0" style="stop-color:#A80D00"/>
		<stop  offset="0" style="stop-color:#A80D00"/>
		<stop  offset="0.99" style="stop-color:#7E0E08"/>
		<stop  offset="1" style="stop-color:#7E0E08"/>
	</radialGradient>
	<path class="st14" d="M42.3,24.7c6,3.7,18.2,11.2,18.5,11.3c0.4,0.2,5.3-8.2,6.4-13L42.3,24.7L42.3,24.7z"/>
	
		<radialGradient id="SVGID_14_" cx="-39.1718" cy="-41.8757" r="0.2361" gradientTransform="matrix(97.1482 0 0 75.848 3831.8708 3227.2805)" gradientUnits="userSpaceOnUse">
		<stop  offset="0" style="stop-color:#A30C00"/>
		<stop  offset="0" style="stop-color:#A30C00"/>
		<stop  offset="0.99" style="stop-color:#800E08"/>
		<stop  offset="1" style="stop-color:#800E08"/>
	</radialGradient>
	<path class="st15" d="M22.9,42.8L33.4,63c6.2-3.4,11.1-7.5,15.5-11.9L22.9,42.8L22.9,42.8z"/>
	
		<linearGradient id="SVGID_15_" gradientUnits="userSpaceOnUse" x1="-38.0649" y1="-41.7827" x2="-38.2076" y2="-42.0222" gradientTransform="matrix(40.1367 0 0 81.143 1537.9349 3459.1902)">
		<stop  offset="0" style="stop-color:#8B2114"/>
		<stop  offset="0" style="stop-color:#8B2114"/>
		<stop  offset="0.43" style="stop-color:#9E100A"/>
		<stop  offset="0.99" style="stop-color:#B3100C"/>
		<stop  offset="1" style="stop-color:#B3100C"/>
	</linearGradient>
	<path class="st16" d="M5.6,46.8L4.1,64.5c2.8,3.8,6.7,4.2,10.7,3.9C11.9,61.1,6,46.5,5.6,46.8L5.6,46.8z"/>
	
		<linearGradient id="SVGID_16_" gradientUnits="userSpaceOnUse" x1="-40.0472" y1="-39.7019" x2="-39.8828" y2="-39.5281" gradientTransform="matrix(78.0993 0 0 32.6239 3181.6987 1299.5735)">
		<stop  offset="0" style="stop-color:#B31000"/>
		<stop  offset="0" style="stop-color:#B31000"/>
		<stop  offset="0.44" style="stop-color:#910F08"/>
		<stop  offset="0.99" style="stop-color:#791C12"/>
		<stop  offset="1" style="stop-color:#791C12"/>
	</linearGradient>
	<path class="st17" d="M47.5,7l20.8,2.9C67.2,5.2,63.8,2.1,58,1.2L47.5,7L47.5,7z"/>
</g>
</svg>
