<?xml version="1.0" encoding="UTF-8"?>
<!DOCTYPE svg PUBLIC "-//W3C//DTD SVG 1.1//EN" "http://www.w3.org/Graphics/SVG/1.1/DTD/svg11.dtd">
<!-- Creator: CorelDRAW X6 -->
<svg xmlns="http://www.w3.org/2000/svg" xml:space="preserve" width="3.70833in" height="1.33333in" version="1.1" style="shape-rendering:geometricPrecision; text-rendering:geometricPrecision; image-rendering:optimizeQuality; fill-rule:evenodd; clip-rule:evenodd"
viewBox="0 0 3708 1333"
 xmlns:xlink="http://www.w3.org/1999/xlink">
 <defs>
  <style type="text/css">
   <![CDATA[
    .fil2 {fill:black;fill-rule:nonzero}
    .fil1 {fill:#BF2027;fill-rule:nonzero}
    .fil0 {fill:white;fill-rule:nonzero}
   ]]>
  </style>
 </defs>
 <g id="Layer_x0020_1">
  <metadata id="CorelCorpID_0Corel-Layer"/>
  <path class="fil0" d="M1859 -1c-536,0 -1019,81 -1358,212 -19,-12 -43,-19 -69,-19 -64,0 -112,47 -116,102 -200,106 -316,234 -316,372 0,355 773,646 1749,666l220 0c973,-20 1744,-309 1749,-663l0 -6c-5,-367 -835,-664 -1859,-664zm-1426 233c43,0 76,30 76,70 0,40 -33,70 -76,70 -43,0 -74,-33 -74,-70 0,-37 31,-70 74,-70zm59 228l0 466 -117 0 0 -466 117 0zm1367 830c-1002,0 -1815,-280 -1815,-625 0,-122 101,-235 276,-331 2,6 4,11 7,17 -151,84 -238,183 -238,290 0,305 719,553 1606,553 887,0 1606,-247 1606,-553 0,-305 -719,-553 -1606,-553 -453,0 -862,65 -1154,168 -3,-6 -6,-11 -10,-16 331,-122 803,-198 1327,-198 1002,0 1815,280 1815,625 0,345 -812,625 -1815,625zm-1139 -755c21,-47 65,-86 143,-86 125,0 170,88 170,184l0 294 -117 0 0 -236c0,-51 -4,-137 -85,-137 -77,0 -107,56 -107,119l0 255 -117 0 0 -466 111 0 0 75 2 0zm1057 -180l-209 571 -86 0 -209 -571 -2 0 0 571 -117 0 0 -688 187 0 184 482 186 -482 185 0 0 688 -117 0 0 -571 -2 0zm213 338c0,-147 113,-245 254,-245 141,0 254,98 254,245 0,147 -113,245 -254,245 -141,0 -254,-98 -254,-245zm710 -158c21,-47 65,-86 143,-86 125,0 170,88 170,184l0 294 -117 0 0 -236c0,-51 -4,-137 -86,-137 -77,0 -107,56 -107,119l0 255 -117 0 0 -466 111 0 0 75 2 0z"/>
  <path class="fil1" d="M1859 41c-524,0 -995,76 -1327,198 4,5 7,11 10,16 292,-104 701,-168 1154,-168 887,0 1606,247 1606,553 0,305 -719,553 -1606,553 -887,0 -1606,-247 -1606,-553 0,-106 87,-205 238,-290 -3,-5 -5,-11 -7,-17 -175,96 -276,210 -276,331 0,345 812,625 1815,625 1002,0 1815,-280 1815,-625 0,-345 -812,-625 -1815,-625z"/>
  <path class="fil0" d="M2382 694c0,-73 -51,-140 -137,-140 -86,0 -137,67 -137,140 0,73 51,140 137,140 86,0 137,-67 137,-140z"/>
  <polygon class="fil2" points="1896,927 1896,239 1712,239 1526,721 1342,239 1156,239 1156,927 1272,927 1272,356 1274,356 1483,927 1569,927 1778,356 1780,356 1780,927 "/>
  <path class="fil2" d="M2498 694c0,-147 -113,-245 -254,-245 -141,0 -254,98 -254,245 0,147 113,245 254,245 141,0 254,-98 254,-245zm-391 0c0,-73 51,-140 137,-140 86,0 137,67 137,140 0,73 -51,140 -137,140 -86,0 -137,-67 -137,-140z"/>
  <path class="fil2" d="M608 460l0 466 117 0 0 -255c0,-62 30,-119 107,-119 82,0 85,86 85,137l0 236 117 0 0 -294c0,-95 -45,-184 -170,-184 -78,0 -121,40 -143,86l-2 0 0 -75 -111 0z"/>
  <polygon class="fil2" points="376,927 492,927 492,460 376,460 "/>
  <path class="fil2" d="M2588 460l0 466 117 0 0 -255c0,-62 30,-119 107,-119 82,0 86,86 86,137l0 236 117 0 0 -294c0,-95 -45,-184 -170,-184 -78,0 -121,40 -143,86l-2 0 0 -75 -111 0z"/>
  <path class="fil1" d="M433 372c43,0 76,-30 76,-70 0,-40 -33,-70 -76,-70 -43,0 -74,33 -74,70 0,37 31,70 74,70z"/>
 </g>
</svg>
