<?xml version="1.0" encoding="utf-8"?>
<!-- Generator: Adobe Illustrator 24.1.1, SVG Export Plug-In . SVG Version: 6.00 Build 0)  -->
<svg version="1.1" id="Layer_1" xmlns="http://www.w3.org/2000/svg" xmlns:xlink="http://www.w3.org/1999/xlink" x="0px" y="0px"
	 viewBox="0 0 60 52" style="enable-background:new 0 0 60 52;" xml:space="preserve">
<style type="text/css">
	.st0{fill-rule:evenodd;clip-rule:evenodd;fill:#22ADF6;}
</style>
<g id="Network">
	<g id="Icon-8" transform="translate(0.000000, -8.000000)">
		<path id="modem" class="st0" d="M30,20c2.4,0,4.66,0.94,6.36,2.64c0.39,0.39,0.39,1.02,0,1.41c-0.19,0.2-0.45,0.29-0.71,0.29
			c-0.26,0-0.51-0.1-0.71-0.29C33.63,22.73,31.87,22,30,22c-1.87,0-3.63,0.73-4.95,2.05c-0.39,0.39-1.02,0.39-1.41,0
			c-0.39-0.39-0.39-1.02,0-1.41C25.34,20.94,27.6,20,30,20L30,20z M39.19,19.81C36.74,17.35,33.47,16,30,16
			c-3.47,0-6.74,1.35-9.19,3.81c-0.39,0.39-1.02,0.39-1.41,0c-0.39-0.39-0.39-1.02,0-1.41C22.23,15.56,25.99,14,30,14
			c4.01,0,7.77,1.56,10.61,4.39c0.39,0.39,0.39,1.02,0,1.41C40.41,20,40.16,20.1,39.9,20.1C39.65,20.1,39.39,20,39.19,19.81
			L39.19,19.81z M15.3,15.72c-0.4-0.39-0.41-1.02-0.02-1.41C19.23,10.24,24.45,8,30,8c5.66,0,10.9,2.24,14.73,6.31
			c0.38,0.4,0.36,1.04-0.04,1.41c-0.4,0.38-1.03,0.36-1.42-0.04C39.82,12.02,35.11,10,30,10c-5,0-9.72,2.02-13.28,5.7
			C16.52,15.9,16.26,16,16,16C15.75,16,15.5,15.91,15.3,15.72L15.3,15.72z M31,48c0.55,0,1,0.45,1,1s-0.45,1-1,1H11
			c-0.55,0-1-0.45-1-1s0.45-1,1-1H31z M30,28c0.55,0,1,0.45,1,1s-0.45,1-1,1s-1-0.45-1-1S29.45,28,30,28L30,28z M55,38H34
			c-0.55,0-1,0.45-1,1s0.45,1,1,1h21c1.65,0,3,1.35,3,3v12c0,1.65-1.35,3-3,3H5c-1.65,0-3-1.35-3-3V43c0-1.65,1.35-3,3-3h25
			c0.55,0,1-0.45,1-1v-7.18c1.16-0.42,2-1.51,2-2.82c0-1.65-1.35-3-3-3s-3,1.35-3,3c0,1.3,0.84,2.4,2,2.82V38H5c-2.76,0-5,2.24-5,5
			v12c0,2.76,2.24,5,5,5h50c2.76,0,5-2.24,5-5V43C60,40.24,57.76,38,55,38L55,38z M48,49c0-0.55,0.45-1,1-1s1,0.45,1,1s-0.45,1-1,1
			S48,49.55,48,49L48,49z M52,49c0-1.65-1.35-3-3-3s-3,1.35-3,3s1.35,3,3,3S52,50.65,52,49L52,49z"/>
	</g>
</g>
</svg>
