<?xml version="1.0" encoding="utf-8"?>
<!-- Generator: Adobe Illustrator 24.2.0, SVG Export Plug-In . SVG Version: 6.00 Build 0)  -->
<svg version="1.1" id="Layer_1" xmlns="http://www.w3.org/2000/svg" xmlns:xlink="http://www.w3.org/1999/xlink" x="0px" y="0px"
	 viewBox="0 0 2500 1270" style="enable-background:new 0 0 2500 1270;" xml:space="preserve">
<style type="text/css">
	.st0{fill:#FFFFFF;}
	.st1{fill:#C7402B;}
</style>
<path class="st0" d="M503.4,875.8c-28.8-15.3-61.4-26.1-96.8-32.1c-34.8-5.9-70.1-8.8-105.1-8.8c-28.8,0-57.6-2.5-86-7.3
	c-27.7-4.7-52.8-13.4-74.7-25.9c-21.3-12.1-38.8-29-52.3-50.3c-13.3-21-20-48.8-20-82.3c0.6-29.6,7.5-55,20.5-75.3
	c12.8-20.4,30.3-37.5,51-50c21.2-12.8,45.7-22.2,72.8-27.9c46.1-9.8,94.8-11.6,144.4-4.7c19.4,2.7,38.5,7.5,56.9,14.4
	c18.1,6.7,35.1,15.9,50.5,27.2c15.2,11.2,28.6,25.4,39.9,41.9l6.3,9.3l46.6-19.6l-9.9-14c-12.2-17.4-26.2-33.4-41.7-47.9
	c-15.3-14.2-33.3-26.2-53.5-35.7c-20-9.4-42.8-16.7-67.9-21.5c-24.8-4.8-53.8-7.3-86.1-7.3c-31,0-62.9,3.5-95,10.5
	c-32.5,7.1-62.8,18.9-89.7,35C86.3,519.7,63.1,542,46,568.7c-17.5,27.3-26.4,60.9-26.4,100c0,41.1,8.3,76,24.5,103.8
	c16.1,27.7,37.8,50.1,64.4,66.7c26,16.2,56.3,27.9,90.2,34.7c33.9,6.7,68.3,10,102.9,10c28,0,57.6,2.1,88.1,6.3
	c29.6,4.1,57.2,12.3,82,24.5c24.1,11.9,44.2,28.5,59.7,49.2c15,20.1,22.6,47.2,22.6,80.7c0,30-7.3,55.6-21.7,76.1
	c-14.9,21.2-34.2,38.7-57.5,52c-23.8,13.6-50.7,23.6-80,29.7c-29.8,6.2-59.3,9.4-87.7,9.4c-47.6,0-94.6-9.1-139.8-27
	c-44.8-17.7-85.2-44.9-118.5-79.7l-9-9.4l-37.1,32.2l10.4,10.4c33.2,33.3,74.5,62.2,122.6,86.1c48.7,24.2,106.4,36.4,171.4,36.4
	c30.9,0,63.7-3.5,97.6-10.5c34.3-7.1,66.5-19.2,95.6-36c29.6-17.1,54.3-39.4,73.3-66.4c19.5-27.7,29.4-62.5,29.4-103.2
	c0-41.3-9.3-76.3-27.6-104C557.1,913.4,533,891.5,503.4,875.8 M941.4,1217.2c-33.6,0-64.3-6.9-91.3-20.6
	c-27.3-13.8-51.7-32.8-71.8-56c-20.4-23.4-36.6-50.8-48.1-81.5c-11.6-30.5-18.2-62.7-19.6-95.3c0-29.8,5.5-60.4,16.4-90.7
	c10.7-29.9,26.6-57.7,47.1-81.9c20.3-24.1,45.1-44,73.6-59.2c28-15,59.5-22.6,93.7-22.6c32.1,0,62.5,7.1,90.2,21.1
	c27.9,14,52.8,33.3,73.5,56.6c20.7,23.4,37.3,50.9,49.2,81.5c11.8,30.3,17.9,62.6,17.9,95.2c0,29.8-5.5,60.3-16.4,90.7
	c-10.7,29.9-26.6,57.7-47.1,82c-20.4,24.1-45.4,44-73.4,58.6C1007.1,1209.8,975.6,1217.2,941.4,1217.2 M1145.1,757.8
	c-24.4-28.5-54-52-88-70c-34.5-18.2-73.5-27.4-115.7-27.4c-38.5,0-75.3,8.3-109.3,24.5c-33.6,16-63.8,38.5-88.8,66.2
	c-25,27.6-45.1,60.2-59.7,96.8c-14.6,36.6-22,75.6-22,116c0,38.1,6.8,75.5,20.3,110.9c13.2,35,32.4,67.4,56.8,95.7
	c24.4,28.2,54.1,51.2,88.2,68.4c34.4,17.4,72.8,26.6,114.2,27.3h0.5c39.2-0.8,76.2-9.6,110.2-26.2c33.6-16.3,63.7-39,88.7-66.7
	c25-27.7,44.9-59.9,59.1-95.7c14.2-35.9,21.4-74.2,21.4-113.8c0-35.8-6.6-72.4-19.7-108.6C1188.4,819.1,1169.4,786.3,1145.1,757.8
	 M1474.7,1203.7c-8.2,2.1-15.5,3.6-21.5,4.6c-6.9,1.1-13.8,2.2-20.7,3.2c-6.8,1-13.6,1.5-20.1,1.5c-16.4,0-28.5-5.4-37-16.7
	c-9.4-12.3-13.9-24.6-13.9-37.5v-717h-49v717c0,26.9,8.5,50.7,25.3,70.7c17.4,20.8,42.1,31.3,73.5,31.3c9.9,0,19.6-0.6,29.1-1.7
	c8.2-1,16.4-2.1,24.6-3.3c7.5-1.1,16.2-2.8,25.8-5l16.6-3.8l-21.8-46L1474.7,1203.7L1474.7,1203.7z M1686.1,709.8
	c-25.5,17.9-48,40.7-67.2,67.9V669h-49v586.4h49V890.3c6.8-23.9,16.1-46.3,27.8-66.7c11.5-20.1,26.2-38.2,43.5-53.6
	c17.1-15.1,37-27.3,59.1-36.4c22.1-9,47-14.3,74.1-15.7l13-0.7V669h-13.7C1770.5,669,1724.5,682.7,1686.1,709.8"/>
<path class="st1" d="M2385.8,134.9l-405.6,438.5L2490,338.3C2475.2,262,2439.1,191.5,2385.8,134.9L2385.8,134.9z M2084.9,4.5
	c-54.4-0.1-108.3,10.7-158.6,31.6l-54.4,458.6l272-486C2124.4,5.9,2104.6,4.5,2084.9,4.5z M2494,363.5l-483,270.3l453.2-53.8
	c22.1-51.4,33.5-106.9,33.4-162.8C2497.6,399,2496.3,381.1,2494,363.5L2494,363.5z M2315.9,759.2c54.1-36.7,98.8-85.6,130.4-142.8
	l-424.8,84.4L2315.9,759.2z M2168.8,13l-236.4,512.5l438.6-405.7C2315.9,66.9,2246.3,29,2168.8,13L2168.8,13z M2119.4,828.4
	c44.7-3.7,88.4-14.6,129.6-32.4L2011,767.7L2119.4,828.4L2119.4,828.4z M1708.7,247.5c-19,42-30.7,86.8-34.8,132.6l64.1,114.6
	L1708.7,247.5z M1890.6,53.1c-58.1,31.1-108,75.6-145.4,129.9l59.8,301.2L1890.6,53.1L1890.6,53.1z"/>
</svg>
