<?xml version="1.0" encoding="utf-8"?>
<!-- Generator: Adobe Illustrator 24.2.0, SVG Export Plug-In . SVG Version: 6.00 Build 0)  -->
<svg version="1.1" id="Layer_1" xmlns="http://www.w3.org/2000/svg" xmlns:xlink="http://www.w3.org/1999/xlink" x="0px" y="0px"
	 viewBox="0 0 2500 2021" style="enable-background:new 0 0 2500 2021;" xml:space="preserve">
<style type="text/css">
	.st0{fill:url(#SVGID_1_);}
	.st1{fill:url(#SVGID_2_);}
	.st2{fill:url(#SVGID_3_);}
	.st3{fill:#FFFFFF;}
</style>
<g transform="matrix(.569 0 0 .569 199.451 -82.735)">
	
		<linearGradient id="SVGID_1_" gradientUnits="userSpaceOnUse" x1="-20776.543" y1="-13422.0908" x2="-19935.8418" y2="-13918.8486" gradientTransform="matrix(0.1187 0 0 0.1187 4062.7339 3922.2202)">
		<stop  offset="0" style="stop-color:#909CA9"/>
		<stop  offset="1" style="stop-color:#EDEDEE"/>
	</linearGradient>
	<path class="st0" d="M2628.2,1276.4L2143,1434.8l-422.1,186.3l-118.1,31.2c-30.1,28.6-61.6,57.6-95.7,86.9
		c-37.4,32.3-72.2,61.6-99,82.9c-29.7,23.5-73.7,67.5-96.1,95.3c-33.4,41.8-59.8,86.2-71.1,120.3c-20.2,61.6-10.3,123.9,28.6,181.5
		c49.9,73.3,149.3,148.1,265.1,199.1c59,26,158.4,59.4,233.2,78.1c124.3,31.5,364.9,65.6,497.3,70.8c26.8,1.1,62.7,1.1,64.2,0
		c2.9-1.8,23.5-41.1,47.3-89.8c81.4-166.1,140.1-322,172-455.1c19.1-80.7,34.1-188.1,44-315.4c2.6-35.6,3.7-154.8,1.5-195.1
		c-3.3-66-9.2-119.5-18.3-172c-1.5-7.7-1.8-14.7-1.1-15c1.5-1.1,5.9-2.6,65.6-19.8L2628.2,1276.4L2628.2,1276.4L2628.2,1276.4
		L2628.2,1276.4z M2517.4,1341.3c4.4,0,16.1,112.6,19.1,183.7c0.7,15,0.4,24.9-0.4,24.9c-2.9,0-62-34.8-104.1-61.2
		c-36.7-23.1-106.3-69.3-117.3-78.1c-3.7-2.6-3.3-2.9,26.8-13.2C2392.4,1380.2,2513.4,1341.3,2517.4,1341.3z M2270.3,1422.7
		c3.3,0,11.7,4.8,31.9,17.2c75.5,47.3,178.2,104.5,222.2,123.6c13.6,5.9,15,3.7-16.1,24.9c-66.7,45.5-150,90.2-251.9,135.3
		c-18,8.1-33,14.3-33.4,14.3c-0.7,0,1.5-9.2,4.4-20.2c24.6-91.3,38.5-183.7,39.2-257.8c0.4-36.7,0.4-36.7,3.7-37.8
		C2269.5,1422.7,2269.9,1422.7,2270.3,1422.7L2270.3,1422.7z M2219.3,1442.1c2.2,2.2,0.7,84.3-2.2,106.7
		c-6.6,53.5-16.9,103.4-33.7,159.5c-4,13.6-7.7,24.9-8.4,25.7c-1.5,1.8-51.7-47.3-68.2-66.4c-28.6-33-51-66-67.5-98.3
		c-8.4-16.5-21.6-48.8-20.5-49.9C2024.6,1515.5,2217.8,1440.7,2219.3,1442.1L2219.3,1442.1z M1979.5,1536.4c0.4,0,0.7,0,1.1,0.4
		c0.7,0.7,3.3,6.6,5.5,13.2c11.7,31.9,38.1,78.8,60.9,108.9c24.9,33,57.6,68.2,84.7,91.3c8.8,7.3,16.9,14.3,18,15.4
		c2.2,2.2,2.9,1.8-56.8,24.6c-69.3,26.4-144.8,52.8-231.4,80.7c-20.7,6.7-41.3,13.4-62,20.2c-3.3,1.1-2.2-0.7,7.3-15.8
		c42.9-67.1,108.2-198.8,144.9-291.9c6.2-16.1,12.5-32.3,13.6-35.9c1.5-5.1,3.3-7,8.1-9.5
		C1975.8,1537.1,1978.4,1536.4,1979.5,1536.4L1979.5,1536.4z M1906.1,1566.8c1.1,0.7-17.6,40-35.9,75.9
		c-35.6,69.3-74.4,137.5-126.5,220.4c-8.8,14.3-17.2,27.5-18.3,29c-1.8,2.6-2.6,1.8-8.4-9.5c-12.5-24.6-22.7-56.1-28.2-85.1
		c-5.5-28.6-4.4-78.5,1.8-109.3c4.8-22.7,4.4-22.4,15.4-27.9C1752.8,1636.5,1904.7,1565.3,1906.1,1566.8L1906.1,1566.8z
		 M2538.7,1592.5v15.4c0,81.8-8.8,194-21.6,275.8c-2.2,14.3-4,26-4.4,26.4c0,0-10.6-2.9-23.1-6.6c-55-17.2-114.8-42.5-168.7-72.2
		c-35.6-19.4-87.3-51.3-85.8-52.8c0.4-0.4,15.8-8.4,33.7-18c71.9-37.4,140.8-77.7,200.6-117.7c22.4-15,56.1-39.2,63.4-45.8
		L2538.7,1592.5L2538.7,1592.5z M1629.2,1701c1.5,0,1.1,2.9-1.1,16.1c-1.5,9.5-3.3,27.1-4,39.2c-2.9,53.5,5.9,93.2,32.3,147.4
		c7.3,15,13.2,27.5,12.8,27.9c-2.6,2.2-245.3,73.3-321.6,94.2c-22.7,6.2-42.5,11.7-44,12.1c-2.6,0.7-2.9,0.4-1.8-5.9
		c8.4-53.9,49.5-124.3,106.7-183.7c38.1-39.6,68.6-62.7,120.7-92.4c37.4-21.3,95-53.2,99.4-54.6
		C1628.5,1701,1628.9,1701,1629.2,1701L1629.2,1701z M2201.3,1803.3c0.4-0.4,9.2,4.4,19.8,10.6c78.5,45.5,187.8,87.6,280.9,109.3
		l8.4,1.8l-11.7,6.6c-48.8,27.1-209,93.9-372.9,155.1c-23.8,8.8-47.3,17.6-51.7,19.4c-4.4,1.8-8.4,2.9-8.4,2.6c0-0.4,6.6-13.2,15-29
		c45.8-85.8,92-190.3,115.5-262.9C2199.1,1809.9,2200.9,1803.7,2201.3,1803.3L2201.3,1803.3z M2143,1822.4c0.4,0.4-2.6,8.1-6.2,16.9
		c-31.9,77.4-73.7,161.7-127.3,256.3c-13.6,24.2-24.9,43.6-25.3,43.6c-0.4,0-11.4-6.6-24.6-14.7c-77.7-47.7-146.7-106.3-191.8-163.2
		l-6.6-8.1l33.4-9.2c119.6-32.6,221.1-67.8,322-111.1C2130.9,1827.2,2142.6,1822.4,2143,1822.4z M2505.3,1948.9
		C2505.3,1948.9,2505.7,1949.3,2505.3,1948.9c0.4,8.4-18.3,84-33.7,138.6c-12.8,45.8-23.8,81.8-44,145.2c-8.8,27.9-16.5,51-16.9,51
		c-0.4,0-2.6-0.4-4.8-1.1c-108.9-19.8-206.5-47.3-298.1-84c-25.7-10.3-62.3-26.8-64.5-28.6c-0.7-0.7,21.3-11,49.1-23.1
		c166.9-73,339.9-155.9,399.3-191.4C2498.7,1951.1,2504.2,1948.9,2505.3,1948.9L2505.3,1948.9z M1668.9,1977.5
		c0.7,0.7-45.8,67.8-111.1,159.2c-22.7,31.9-49.1,69.3-59,83.2c-9.9,13.9-24.9,35.9-33.4,49.1l-15.4,23.8l-16.5-13.9
		c-19.4-16.1-53.2-50.6-68.2-69.7c-31.5-39.2-52.8-80.7-61.2-118.4c-4-17.6-4-26.4-0.4-27.5c5.5-1.5,103.4-24.6,195.1-45.8
		c51-11.7,110-25.7,131.3-30.8C1651.2,1981.6,1668.5,1977.5,1668.9,1977.5L1668.9,1977.5z M1715.8,1995.5l11.7,13.2
		c52.8,59,106.7,102.7,172,140.8c11.7,6.6,20.5,12.5,19.8,12.8c-2.6,1.8-226.6,81.4-330.4,117.3c-58.3,20.5-106.3,37-106.7,37
		c-0.4,0-3.7-2.2-7.3-4.8l-6.6-4.8l10.6-15.4c34.5-49.9,77.7-104.5,172-218.2L1715.8,1995.5L1715.8,1995.5z M2008.4,2204.9
		c0.4-0.4,16.5,5.5,36.3,12.8c47.7,18,85.4,29.3,136.1,42.2c62.3,15.8,152.6,31.2,205.7,35.6c8.1,0.7,12.5,1.5,11,2.6
		c-2.6,1.5-56.5,19.4-96.1,31.9c-63.1,19.8-255.6,76.6-412.6,121.7c-29,8.4-53.9,15.4-55.4,15.8c-3.7,0.7-15.8-2.6-15.8-4
		c0-0.7,8.8-12.1,19.4-24.6c52.8-63.1,105.2-133.5,148.9-200.2C1998.2,2220.3,2008.4,2205.3,2008.4,2204.9L2008.4,2204.9z
		 M1943.9,2206.7c0.4,0.4-25.7,42.2-71.1,114c-19.4,30.4-41.1,64.9-48.8,77c-7.3,11.7-18.3,30.1-24.6,40.3l-10.6,18.7l-5.5-1.5
		c-13.2-3.7-106-36.3-130.6-46.2c-30.4-12.1-62-26.8-85.4-39.2c-29.3-15.8-66-39.2-63.1-40c0.7-0.4,51-13.9,111.5-30.4
		c160.6-43.6,249.7-68.9,308-87.3C1934.4,2208.9,1943.5,2206.4,1943.9,2206.7L1943.9,2206.7z M2400.4,2313.8h0.4
		c1.5,3.7-57.9,168.7-79.6,220.8c-4.8,11.7-6.6,14.7-9.2,14.3c-6.2-0.4-92.4-12.5-144.9-20.2c-91.3-13.9-244.6-40.7-283.1-49.5
		l-8.8-1.8l54.6-12.5c117.4-26.4,173.8-40.7,231-58.3c72.2-22,143.8-49.5,216-83.2C2388.3,2318.2,2397.9,2314.2,2400.4,2313.8
		L2400.4,2313.8z"/>
	
		<linearGradient id="SVGID_2_" gradientUnits="userSpaceOnUse" x1="-20743.3809" y1="-29876.3809" x2="-20066.9297" y2="-29876.3809" gradientTransform="matrix(0.1187 0 0 0.1187 4062.7339 3922.2202)">
		<stop  offset="0" style="stop-color:#939FAB"/>
		<stop  offset="1" style="stop-color:#DCDEE1"/>
	</linearGradient>
	<path class="st1" d="M2128,145.4c-8.1-1.1-138.3,45.8-222.2,79.9c-113.3,46.2-201.3,90.2-255.6,128.3
		c-20.2,14.3-45.5,39.6-49.5,49.5c-1.5,3.7-2.2,8.1-2.2,12.5l49.1,46.6l117,37.4l278.3,49.9l318.3,54.6l3.3-27.5
		c-1.1,0-1.8-0.4-2.9-0.4l-41.8-6.6l-8.4-15c-43.3-76.3-90.9-170.9-118.8-234.7c-21.6-49.5-42.2-106.7-53.5-147.8
		C2132.7,147.3,2132,145.8,2128,145.4L2128,145.4L2128,145.4L2128,145.4z M2122.1,164.1h0.4c0.4,0.4,1.8,10.6,3.3,22.7
		c6.2,51.3,17.6,100.8,35.6,154.4c13.6,40.3,13.6,38.1-2.2,33.4c-37.4-10.3-205-39.2-326.4-56.1c-19.4-2.6-35.9-5.1-35.9-5.5
		c-1.5-1.5,87.6-48,126.9-66.4C1974,223.5,2111.8,166,2122.1,164.1L2122.1,164.1z M1768.6,328.4l14.3,4.8
		c77.7,26.4,273.2,63.8,381,72.6c12.1,1.1,22.4,2.2,22.7,2.2c0.4,0.4-9.9,5.9-23.1,12.1c-52.1,26-109.3,57.9-148.9,82.5
		c-11.7,7.3-22.4,13.2-23.8,13.2c-1.5,0-9.2-1.5-17.2-2.6l-14.7-2.2l-36.7-35.9c-64.5-62.7-115.2-111.1-134.6-129.4L1768.6,328.4z
		 M1753.9,339.8l51.7,64.5c28.2,35.6,56.8,70.4,63.1,78.1c6.2,7.7,11.4,13.9,11,14.3c-1.5,1.1-74.8-13.2-113.7-22
		c-40-9.2-56.5-13.6-81-21.3l-20.2-6.6v-5.1c0.4-24.6,31.5-61.2,84.3-98.6L1753.9,339.8L1753.9,339.8z M2193.3,427.8
		c1.5,0,3.3,3.3,7.7,13.2c12.5,27.5,51.3,101.6,60.9,115.9c2.9,4.8,8.1,5.1-43.6-3.3c-124.3-20.2-164.3-26.8-164.3-27.5
		c0-0.4,3.7-2.9,8.4-5.5c38.5-21.3,77.4-48.4,111.8-77.4c8.4-7,16.1-13.6,17.6-14.7C2192.1,427.8,2192.9,427.4,2193.3,427.8
		L2193.3,427.8z"/>
	
		<radialGradient id="SVGID_3_" cx="-3422.9236" cy="-5013.6382" r="898.12" gradientTransform="matrix(-0.114 -1.712736e-02 3.463960e-02 -0.228 2095.4026 -180.4704)" gradientUnits="userSpaceOnUse">
		<stop  offset="0" style="stop-color:#EE352C"/>
		<stop  offset="1" style="stop-color:#A91D22"/>
	</radialGradient>
	<path class="st2" d="M1603.2,398.1c0,0-8.1,12.8-0.4,31.9c4.8,11.7,18.7,26,34.5,40.7c0,0,163.2,159.2,183,181.9
		c90.2,104.1,129.4,206.8,133.1,348.4c2.2,90.9-15,170.9-57.9,263.7c-76.3,166.5-237.3,350.2-485.5,554.1l36.3-12.1
		c23.5-17.6,55.4-36.3,130.2-77.4c172.7-94.6,367.1-181.5,605.4-271c343.2-129.1,907.6-280.2,1228.9-329.3l33.4-5.1l-5.1-8.1
		c-29.3-45.5-49.5-73.7-73.7-103.8c-70.4-87.3-155.8-158.1-260.4-216.7c-143.8-80.3-329.7-143-565.1-189.6
		c-44.4-8.8-141.9-25.7-221.1-37.8c-168-26-276.5-44-396.1-64.5c-42.9-7.3-107.1-18.3-149.6-27.5c-22-4.8-64.2-14.7-97.2-26
		C1649.4,439.5,1611.3,429.3,1603.2,398.1L1603.2,398.1z M1697.8,489.8c0.4-0.4,6.2,1.8,13.9,4.4c13.9,4.8,31.9,10.3,53.2,16.1
		c16.1,4.4,32.2,8.7,48.4,12.8c22,5.5,40.3,10.6,40.7,10.6c2.6,2.6,39.6,121,52.1,166.5c4.8,17.2,8.4,31.9,8.1,31.9
		c-0.4,0.4-4.4-5.9-9.2-14.3c-42.9-75.5-110.7-152.2-189.2-213.8C1705.5,496.7,1697.8,490.1,1697.8,489.8L1697.8,489.8z
		 M1878.2,539.6c1.8,0,9.9,1.1,19.8,3.3c62.3,13.9,174.2,35.2,245.7,47.3c12.1,1.8,21.6,4,21.6,4.8c0,0.7-4.4,3.3-9.9,6.2
		c-12.1,6.2-60.9,35.2-77,46.2c-40.7,27.1-77.4,56.5-103.8,82.9c-10.6,10.6-19.8,19.4-19.8,19.4s-2.2-6.2-4-13.9
		c-13.2-51-40.7-126.5-65.6-179.7c-4-8.4-7.3-16.1-7.3-16.9C1877.9,540,1877.9,539.6,1878.2,539.6L1878.2,539.6z M2195.8,600.2
		c2.2,0.7,5.9,13.2,13.2,40.7c13.6,53.2,19.8,112.6,17.6,168c-0.7,15.4-1.5,29.7-2.2,31.5l-1.1,3.7l-19.1-6.2
		c-39.2-12.5-103-31.2-157.7-46.6c-31.2-8.4-56.5-16.1-56.5-16.9c0-2.2,45.5-47.7,64.9-64.9C2092,676.8,2192.5,599,2195.8,600.2
		L2195.8,600.2z M2221.1,603.8c1.1-1.1,151.8,24.9,220.4,38.1c51,9.9,125.1,25.3,129.4,27.1c2.2,0.7-5.5,5.1-30.1,16.1
		c-96.8,43.6-168.7,82.9-240.2,130.6c-18.7,12.5-34.5,22.7-34.8,22.7s-0.7-10.6-0.7-23.5c0-69.7-13.9-140.1-39.6-199.5
		C2223,609.7,2220.8,604.2,2221.1,603.8z M2610.9,680.8c1.1,1.1-3.7,30.8-8.1,48.4c-13.2,54.6-48.8,135.7-92.4,212
		c-7.7,13.6-14.7,24.6-15.4,24.9c-0.7,0.4-10.6-5.1-22-11.7c-42.5-24.9-90.9-48.4-143.8-70.4c-14.7-6.2-27.5-11.4-27.9-12.1
		c-2.6-2.2,115.5-80.3,177.9-117.7C2528.8,724.1,2609.5,679.4,2610.9,680.8L2610.9,680.8z M2638.8,685.2c3.3,0,70,18.3,104.9,28.6
		c86.2,25.7,185.2,62,249.7,91.3l26.8,12.1l-18.7,4.4c-157.7,36.3-292.6,78.1-422.8,130.9c-10.6,4.4-20.2,8.1-20.9,8.1
		c-0.7,0,2.9-8.4,7.7-18.7c39.2-83.2,64.5-170.2,70.8-244.2C2636.6,690.7,2637.7,685.2,2638.8,685.2L2638.8,685.2z M1974.3,837.8
		c1.1-1.1,52.1,11,79.6,18.7c41.8,11.7,130.5,41.4,130.5,43.6c0,0.4-9.9,8.8-21.6,19.1c-48,40-94.2,82.1-149.6,135.7
		c-16.5,15.8-30.4,28.6-31.2,28.6c-0.7,0-1.1-2.2-0.7-5.1c8.4-61.6,6.6-140.8-5.1-221.1C1975.1,846.9,1974,838.1,1974.3,837.8z
		 M3045.5,838.9c0.7,0.7-23.5,38.9-38.9,60.5c-22,31.5-54.3,73.3-127.3,165c-38.5,48.4-81.8,103-96.1,121.4
		c-14.7,18.3-26.8,33.7-27.1,33.7c-0.4,0-5.1-6.6-10.3-14.7c-41.1-61.6-90.2-115.5-148.5-163.9c-11-9.2-23.1-19.1-27.1-22
		c-4-2.9-7.3-5.9-7.3-6.2c0-1.1,62.3-27.9,109.6-46.9c82.9-33.7,195.8-74.1,280.5-100.1C2997.5,851.7,3044.8,838.1,3045.5,838.9
		L3045.5,838.9z M3073.7,846.2c1.5-0.4,10.3,4,20.9,10.3c89.1,51,176.4,116.6,245.3,184.1c19.4,19.1,67.5,68.9,66.7,69.3
		c0,0-16.9,1.5-36.7,2.9c-154.4,11.7-352,44.4-542,90.2c-12.8,2.9-24.2,5.5-24.9,5.5c-0.7,0,13.6-14.3,31.5-31.5
		c111.5-107.4,162.5-175.3,222.6-296.3C3065.7,862.7,3073,847.3,3073.7,846.2C3073.4,846.2,3073.4,846.2,3073.7,846.2L3073.7,846.2z
		 M2257.1,929.8c5.1,1.1,52.8,23.5,88.7,41.4c33,16.5,82.5,42.9,85.1,45.1c0.4,0.4-17.2,9.5-38.9,20.2
		c-68.9,34.5-128,67.1-189.6,104.5c-17.6,10.6-32.3,19.4-32.6,19.4c-1.5,0-1.1-1.5,8.8-19.4c33-60.1,59.4-132,74.4-202.1
		C2254.5,933.5,2256,929.8,2257.1,929.8L2257.1,929.8z M2209.4,938.6c1.1,1.1-11.4,46.2-19.1,70.8c-15,46.6-40.3,104.9-64.9,148.9
		c-5.9,10.3-14.7,25.3-19.4,33.7l-9.2,14.7l-20.5-19.8c-23.8-23.1-43.3-37.4-68.2-50.2c-9.9-5.1-17.6-9.5-17.6-10.3
		c0-2.9,62.7-59.8,110.7-100.8C2135.7,995.8,2208.3,937.5,2209.4,938.6L2209.4,938.6z M2500.9,1058.5l18,11.7
		c41.1,26.8,89.5,62.3,126.5,93.5c20.9,17.2,61.2,53.5,69.3,62.3l4.4,4.8l-29.7,8.4c-168,46.6-297.8,88-449.2,143.8
		c-16.9,6.2-31.2,11.4-32.3,11.4c-2.2,0-4,1.8,33.7-33c96.8-89.1,182.6-187.4,246.4-283.1L2500.9,1058.5L2500.9,1058.5z
		 M2424.3,1077.6c0.7,0.7-49.5,71.5-79.6,111.5c-35.9,47.7-99.7,127.6-143.8,179.7c-18.3,21.6-34.1,39.6-34.8,40
		c-1.1,0.4-1.5-5.1-1.5-13.6c0-44.4-11.4-91.7-31.2-132c-8.4-16.9-9.9-20.9-8.1-22.7c7-6.2,113.7-67.1,181.2-103.4
		C2352,1112.8,2423.2,1076.9,2424.3,1077.6L2424.3,1077.6z M1960.8,1191.3c1.1,0,9.5,4.4,19.1,9.5c23.5,12.8,44.4,27.1,63.1,42.5
		c0.7,0.7-8.8,8.4-21.3,17.6c-34.8,24.9-87.6,64.9-118.4,89.5c-32.3,25.7-33.4,26.4-29.7,20.9c24.2-37,36.3-57.9,49.1-84.7
		c11.4-23.8,22.7-52.1,30.8-76.6C1956.4,1199.4,1960,1191.3,1960.8,1191.3L1960.8,1191.3z M2084.3,1288.1c1.8-0.4,4,2.9,13.9,17.6
		c20.9,31.2,37,73,41.1,106.7l0.7,7.3l-50.2,19.4c-89.9,34.8-172.7,69.3-228.8,95c-15.8,7.3-43.3,20.5-61.2,29.3
		c-18,9.2-32.6,16.1-32.6,15.8c0-0.4,11.4-8.8,25.3-19.1c109.7-79.6,204.6-166.9,275.8-254.1c7.7-9.2,14.7-17.6,15.4-18
		L2084.3,1288.1L2084.3,1288.1z M2027.5,1302c1.5,1.5-40.3,48.8-68.9,77.7c-70.8,72.2-140.8,128.7-227.7,183.7
		c-11,7-20.9,13.2-22,13.9c-2.6,1.5,0.7-2.2,38.9-43.6c24.2-26,42.5-48,63.4-75.2c13.9-18,16.5-20.5,36.7-34.8
		C1901.7,1384.9,2026,1300.6,2027.5,1302z"/>
</g>
<path class="st3" d="M449.5,1522.1c-3.8,0-7.7,0.4-11.5,0.4c-77.7,4.1-130.2,38.4-160.8,105.2c-26.2,60.4-23.4,139.4,0.3,200.2
	c27.5,59.4,71.9,90.8,146.1,102.6c15.7,2.6,26.2,11.2,56.6,46.7l37.4,43.8h67.8l-45.1-45.5c-24.9-24.9-45.1-46.6-45.1-48.6
	c0-1.9,9.5-6.1,21.1-9.6c38.1-11.5,69.7-40.9,91.8-86c17.9-36.2,20.5-47.4,23-92.4C637.9,1604.9,567.2,1521.1,449.5,1522.1
	L449.5,1522.1L449.5,1522.1z M509,1872.6c-33,16-80.9,19.2-112.2,7.7c-32.3-11.9-63.7-45.5-77.7-83.5
	c-15.7-41.6-13.4-118.3,4.5-152.8c28.8-55,66.9-80.3,122.5-80.3c82.5,0,129.4,50.5,135.6,145.5
	C586.4,1788.5,559.9,1847.9,509,1872.6L509,1872.6z M1681,1636.6c-28.5,0-50.2,11.5-64.9,34.2l-11.5,18v-46.7h-49.2v280.2h49.2
	v-89.6c0-81.9,1-91.5,12.5-113.9c15.8-30.7,42.9-46.1,69.1-38.7l17.6,5.1v-48.6L1681,1636.6L1681,1636.6L1681,1636.6z M1391.6,1634
	c-9.6,0-19.9,1.3-30.1,3.5c-65.9,17.2-103,80.3-100.8,145.2c0,54.3,10.6,81.5,36.8,110c53.7,44.1,102.3,47.6,167.9,23.9
	c11.2-4.8,23.4-10.3,23.4-10.3v-44.1l-23.4,12.1c-53.1,23.1-93,23.1-125.1-4.1c-20.4-20.8-29.4-45.7-33.6-74.2h198.6v-37.8
	C1505.4,1681.4,1459.1,1632.8,1391.6,1634L1391.6,1634L1391.6,1634z M1311.3,1756.9c0,0,7.3-48,34.5-66.9
	c13.1-9.2,28.1-13.7,42.8-13.7c14.7,0,29.4,4.8,41.6,14c24.9,19.2,29.1,66.2,29.1,66.2h-148.1L1311.3,1756.9L1311.3,1756.9
	L1311.3,1756.9z M124,1706.4c-53.4-32.3-77.1-55.7-74.2-83.2c8.3-76.1,102.3-65.6,154.4-36.8l0.4-51.2c0,0-28.8-12.5-70-13.1
	c-63.3-1-104.2,19.8-123.4,62c-28.2,62.3-3.2,109.4,86.9,161.8c50.6,29.4,73,55,73,82.9c0,57.6-69.4,77.7-141,41.5
	c-14.7-7.3-27.2-13.5-27.9-13.5c-2.6,16.3-1.2,55.4-1.2,55.4s22,9.2,55,15.6c81.8,16.3,156.3-22.1,163.4-84.4
	C225.4,1784.9,204.2,1754.2,124,1706.4L124,1706.4L124,1706.4z M2116.8,1633.4c-9.6,0-19.8,1.3-30.4,3.6
	c-65.8,17.2-102.9,80.3-100.4,145.2c0,54.3,10.5,81.2,36.7,109.6c53.7,44.1,102.3,47.7,168.2,24c11.1-4.8,23.3-10.2,23.3-10.2v-44.2
	l-23.3,12.2c-53.2,23-93.1,23-125-4.2c-20.5-20.8-29.4-45.4-33.6-74.2h198.2v-37.8c0-76.6-46.4-125.3-113.8-124L2116.8,1633.4
	L2116.8,1633.4z M2036.5,1756.2c0,0,7.4-48,34.6-67.2c13.1-9.3,28.1-13.8,42.8-13.8c14.7,0,29.4,4.8,41.6,14.1
	c24.9,19.2,29.1,66.5,29.1,66.5h-148L2036.5,1756.2L2036.5,1756.2z M1133.8,1707c-53.4-32.3-77-55.7-74.1-83.2
	c8.3-76.1,102.3-65.6,154.4-36.8l0.4-51.2c0,0-28.8-12.5-70-13.1c-63.3-1-104.2,19.8-123.4,62c-28.1,62.3-2.9,109.4,87,161.8
	c50.5,29.4,72.9,54.6,72.9,82.5c0,57.6-69.4,78-141,41.5c-14.7-7.3-27.1-13.4-27.9-13.4c-2.6,16.3-1.2,55.4-1.2,55.4
	s21.7,8.9,54.6,15.6c81.9,16.4,156.4-22,163.4-84.3C1234.9,1785.7,1213.8,1755,1133.8,1707L1133.8,1707L1133.8,1707z M2406.2,1636
	c-28.5,0-50.5,11.5-64.9,34.3l-11.5,17.9v-46.6h-49.2v280.1h49.2V1832c0-81.9,1-91.5,12.5-113.8c15.8-30.7,42.9-46.1,69.1-38.7
	l17.6,5.1V1636L2406.2,1636L2406.2,1636z M742.2,1705.4v-178.4h-49.7v395.2h208.8v-46.7H742.2L742.2,1705.4L742.2,1705.4z
	 M1890.4,1761l-40.9,106.5l-39.4-107.1l-40-118.7h-50.8c32.9,93.4,68.8,188.3,104.9,280.4c15.7,0.4,31.4,0,47,0l55.3-138.8
	l56.3-141.6h-48.6C1934.2,1641.8,1912.8,1698,1890.4,1761L1890.4,1761L1890.4,1761z M856.6,1419.2c8,0,14.7-2.6,20.2-8.1
	c5.4-5.4,8.3-11.8,8.3-19.8c0-8-2.9-14.7-8.3-19.8c-5.5-5.1-11.8-7.7-19.8-7.7c-8.1,0-14.7,2.6-20.2,8c-5.5,5.4-8,12.1-8,19.8
	c0,8.1,2.6,14.7,8,19.8C841.9,1416.6,848.6,1419.1,856.6,1419.2L856.6,1419.2L856.6,1419.2z M839,1373.7c4.8-4.8,10.6-7,18-7
	c7,0,12.8,2.2,17.6,7c4.8,4.8,7.3,10.6,7.3,17.6c0,7-2.6,13.1-7.3,17.9c-4.8,4.8-10.6,7-17.6,7c-7.1,0-12.8-2.2-17.6-7
	c-4.8-4.8-7.3-10.9-7.3-17.9C832,1384.3,834.2,1378.5,839,1373.7z M850.8,1393.9h3.2c2.3,0,4.5,2.2,6.4,6.4l3.9,8.7h6l-4.8-9.6
	c-1.9-3.8-3.8-6.1-6.1-6.7c2.8-0.7,5.1-1.6,6.7-3.5c1.6-1.6,2.2-3.9,2.2-6.4c0-2.9-0.9-5.1-2.9-6.7c-2.2-1.8-5.7-2.8-10.3-2.8h-10.2
	v35.8h5.1v-15L850.8,1393.9L850.8,1393.9z M850.8,1377.3h4.5c3.2,0,5.5,0.7,6.7,1.6c1.2,1,1.5,2.2,1.5,4.5c0,4.1-2.6,6.1-7.3,6.1
	h-5.5L850.8,1377.3L850.8,1377.3L850.8,1377.3z M30.6,1390.7c0-12.5-0.4-21.7-0.7-27.2h0.3c1.3,6.4,2.9,11.3,4.1,14.4l47.7,106.5h8
	l47.7-107.4c1.3-2.9,2.6-7.3,4.1-13.5h0.4c-1,10.6-1.3,19.9-1.3,27.2v94h16.3v-139.7h-20.5L93,1442.3c-1.6,3.8-3.9,9.6-6.7,17.2
	h-0.7c-1-3.8-3.2-9.5-6.4-16.6l-42.8-98.2H14.7v139.7h15.7v-93.7L30.6,1390.7L30.6,1390.7z M193.1,1391h14.1v87h-14.1V1391z
	 M200.1,1359.1c2.9,0,5.4-1,7.3-2.9c1.9-1.9,3.2-4.4,3.2-7.3c0-2.9-1-5.4-3.2-7.3c-2-1.9-4.5-2.9-7.4-2.9c-2.9,0-5.4,1-7.3,2.9
	c-1.9,1.9-3.2,4.5-3.2,7.3c0,3.2,1,5.4,3.2,7.3C194.9,1358.1,197.2,1359.1,200.1,1359.1L200.1,1359.1L200.1,1359.1z M307.5,1479.9
	v-15.3c-7.7,5.8-16,8.6-24.6,8.6c-10.3,0-18.6-3.5-24.7-10.3c-6-6.7-9.3-16-9.3-27.5c0-12.1,3.2-21.7,9.9-29
	c6.4-7,14.7-10.6,24.9-10.6c8.3,0,16.3,2.6,23.7,7.7v-16.3c-6.7-3.5-14.4-5.1-23-5.1c-16,0-28.5,5.1-37.8,15
	c-9.2,9.9-14,23.4-14,39.6c0,14.4,4.1,26.6,12.8,35.9c9,9.5,20.5,14.4,34.5,14.4C290.9,1486.7,299.8,1484.4,307.5,1479.9
	L307.5,1479.9z M347.8,1433.5c0-11.5,2.6-20.8,7.3-27.1c4.5-5.8,9.9-8.7,16.3-8.7c5.4,0,9.3,1,12.1,3.2v-16.7
	c-2.2-1-5.4-1.3-9.5-1.3c-5.8,0-10.9,1.9-15.4,5.5c-4.8,3.8-8.6,9.5-10.8,16.9h-0.4V1385h-16v99.7h16v-51.2H347.8z M439.6,1486.7
	c15,0,27.1-4.8,36.1-14.4c8.9-9.5,13.4-22.4,13.4-38.4c0-16.3-4.1-28.8-12.5-38.1c-8.3-9.3-19.8-13.8-34.8-13.8s-27.1,4.5-36.1,13.1
	c-9.6,9.5-14.7,23-14.7,40.3c0,15,4.1,27.5,12.8,36.8C412.8,1481.9,424.6,1486.7,439.6,1486.7L439.6,1486.7L439.6,1486.7z
	 M416.9,1405.4c6.1-6.4,14.1-9.6,24-9.6c10.3,0,18,3.2,23.7,9.6c5.8,6.7,8.6,16.3,8.6,29.1c0,12.2-2.6,21.7-8,28.2
	c-5.4,6.7-13.4,10.3-24,10.3c-10.3,0-18.2-3.6-24.3-10.3c-6-6.7-8.9-16-8.9-28.2C407.3,1422.4,410.5,1412.5,416.9,1405.4
	L416.9,1405.4z M559.2,1478c6.1-5.4,9.3-12.1,9.3-20.5c0-7.3-2.6-13.4-7.3-18.2c-3.9-3.8-9.9-7.3-18.6-10.9
	c-7.7-3.2-12.5-6.1-15-8.3c-2.6-2.6-4.1-5.8-4.1-10.3c0-4.1,1.6-7.3,4.8-9.9c3.2-2.6,7.3-3.8,12.8-3.8c8.6,0,16,2.3,22.7,7.1v-16
	c-6.5-3.2-13.5-4.8-21.5-4.8c-10.3,0-18.9,2.8-25.3,8.3c-6.7,5.4-9.9,12.5-9.9,20.8c0,7.3,2.2,13.4,6.4,17.9
	c3.5,3.8,9.5,7.7,17.9,11.2c8,3.5,13.4,6.7,16.3,9.3c2.9,2.6,4.1,5.8,4.1,9.5c0,9.3-6.4,14.1-18.8,14.1c-9.6,0-18.2-3.2-25.9-9.5
	v17.2c7,4.2,15.3,6.1,24.6,6.1C543.4,1486.7,552.7,1483.8,559.2,1478L559.2,1478L559.2,1478z M635.3,1382.1
	c-15,0-27.1,4.5-36.1,13.1c-9.5,9.5-14.7,23-14.7,40.3c0,15,4.1,27.5,12.8,36.8c9,9.6,20.8,14.4,35.8,14.4
	c15.4,0,27.1-4.8,36.1-14.5c9-9.5,13.5-22.4,13.5-38.4c0-16.3-4.2-28.8-12.5-38.1C661.6,1386.5,650,1382,635.3,1382.1L635.3,1382.1
	L635.3,1382.1z M666.3,1434.5c0,12.2-2.6,21.7-8,28.2c-5.4,6.7-13.4,10.3-24,10.3c-10.3,0-18.2-3.6-24.3-10.3
	c-6-6.7-8.9-16-8.9-28.2c0-12.8,3.2-22.7,9.6-29.4c6-6.4,14-9.6,24-9.6c9.9,0,17.9,3.2,23.6,9.6
	C663.4,1412.1,666.3,1421.7,666.3,1434.5L666.3,1434.5L666.3,1434.5z M709.5,1484.4h16v-86.4h23.4v-13.4h-23.4v-15.4
	c0-14,5.4-21,16.6-21c3.8,0,7.6,1,10.5,2.6v-14.4c-2.9-1.3-6.7-1.6-11.5-1.6c-8.6,0-15.7,2.6-21.4,8c-6.7,6.4-10.3,14.7-10.3,25.9
	v16.4h-16.9v13.4h16.9v86L709.5,1484.4z M775.1,1457.2c0,19.5,8.6,29.4,26.2,29.4c6.4,0,11.2-1,15-3.3v-13.7
	c-2.9,2.2-6.4,3.2-10.3,3.2c-5.4,0-9.2-1.3-11.5-4.2c-2.3-2.9-3.6-7.7-3.6-14.4V1398h25.3v-13.4H791v-29.4c-5.5,1.9-10.9,3.5-16,5.1
	v24.3h-17.2v13.4H775L775.1,1457.2L775.1,1457.2z M2491.3,1641.1c-5.4-5.1-11.8-7.7-19.8-7.7c-8.1,0-14.7,2.6-20.2,8.1
	c-5.4,5.4-8,12.1-8,19.8c0,8,2.6,14.7,8,19.8c5.4,5.1,12.1,7.7,20.2,7.7c8,0,14.7-2.6,20.2-8c5.4-5.5,8.3-11.8,8.3-19.8
	C2499.6,1652.9,2496.7,1646.2,2491.3,1641.1L2491.3,1641.1z M2488.7,1678.9c-4.8,4.8-10.6,7-17.6,7c-7,0-12.8-2.2-17.6-7
	c-4.8-4.8-7.3-10.9-7.3-18c0-7,2.2-12.8,7-17.6c4.8-4.8,10.5-7,17.9-7c7,0,12.8,2.2,17.6,7c4.8,4.8,7.3,10.6,7.3,17.6
	C2496,1668.3,2493.8,1674,2488.7,1678.9z M2474.3,1662.5c2.9-0.7,5.1-1.9,6.7-3.5c1.6-1.7,2.2-3.9,2.2-6.5c0-2.9-0.9-5.1-2.9-6.7
	c-2.2-1.8-5.8-2.8-10.3-2.8h-10.2v35.8h5.1v-15h3.2c2.2,0,4.4,2.2,6.4,6.4l3.8,8.6h6.1l-4.8-9.6
	C2478.1,1665,2476.2,1663.1,2474.3,1662.5L2474.3,1662.5L2474.3,1662.5z M2470.8,1659.3h-5.5v-12.1h4.5c3.2,0,5.4,0.6,6.7,1.6
	c1.3,1,1.6,2.2,1.6,4.5C2478.1,1657.4,2475.6,1659.3,2470.8,1659.3L2470.8,1659.3L2470.8,1659.3z M1578.6,1380.5h4.5v-35.8h11.8
	v-4.5h-28.2v4.5h11.8L1578.6,1380.5L1578.6,1380.5z M1605.8,1353.6c0-3.5,0-6.3-0.3-8c0.3,1.9,1,3.2,1.2,4.1l13.8,30.7h2.2l13.8-31
	c0.4-1,0.7-2.2,1.3-3.8c-0.3,3.2-0.3,5.8-0.3,7.7v27.1h4.8v-40.3h-5.8L1624,1368c-0.3,1-1.3,2.9-1.9,5.1h-0.4
	c-0.3-1.3-0.9-2.6-1.8-4.8l-12.5-28.2h-6.5v40.3h4.5v-26.9L1605.8,1353.6L1605.8,1353.6z"/>
</svg>
