<svg height="2500" width="2500" xmlns="http://www.w3.org/2000/svg" viewBox="-1.6325113908404987 6.999290688731735 131.265022781681 126.53070931126827"><linearGradient id="a" gradientUnits="userSpaceOnUse" x1="64" x2="64" y1="7" y2="120.756"><stop offset="0" stop-color="#4387fd"/><stop offset="1" stop-color="#4683ea"/></linearGradient><path d="M27.791 115.183L1.541 69.716a11.499 11.499 0 0 1 0-11.5L27.79 12.75A11.499 11.499 0 0 1 37.75 7h52.5a11.499 11.499 0 0 1 9.959 5.75l26.25 45.467a11.499 11.499 0 0 1 0 11.5l-26.25 45.466a11.499 11.499 0 0 1-9.959 5.75h-52.5a11.499 11.499 0 0 1-9.959-5.75z" fill="url(#a)"/><g><path d="M80.147 39.913l48.046 48.247-33.144 45.37-47.197-42.624L34.814 66.7l5.231.758-6.042-6.136L50.5 41.75l25.03-4.511 4.158 4.157z" opacity=".07"/></g><path d="M94 64L80.147 39.913 66.294 64l13.853 24.087z" fill="#dae7fc"/><path d="M34 66.001L47.803 90h27.678L61.678 66.001z" fill="#b6cff8"/><path d="M61.5 62l14.025-24H47.846L34 62z" fill="#fff"/></svg>