<?xml version="1.0" encoding="utf-8"?>
<!-- Generator: Adobe Illustrator 24.1.1, SVG Export Plug-In . SVG Version: 6.00 Build 0)  -->
<svg version="1.1" id="Layer_1" xmlns="http://www.w3.org/2000/svg" xmlns:xlink="http://www.w3.org/1999/xlink" x="0px" y="0px"
	 viewBox="0 0 55.22 58.79" style="enable-background:new 0 0 55.22 58.79;" xml:space="preserve">
<style type="text/css">
	.st0{fill:none;stroke:#22ADF6;stroke-width:2;stroke-linecap:round;stroke-linejoin:round;stroke-miterlimit:10;}
</style>
<path class="st0" d="M36.86,57.79c-0.05-6.57,1.34-9.41,2.29-10.7c2.9-3.93,3.93-5.76,3.93-5.76 M41.76,6.12
	c0,0-3.22-5.12-14.99-5.12C16.43,1,10.63,6.69,7.83,13.3C7,15.24,6.8,17.39,7.23,19.45c0.26,1.25,0.01,2.47,0.11,2.75L1.11,34.72
	c0,0-0.77,2.1,1.66,2.13c2.43,0.03,3.47,0,3.47,0l1.11,9.34c0,0,0.25,3.03,3.47,3.66c4.02,0.79,5.02,1.45,5.45,3.15
	c0.43,1.7,0.17,4.7,0.17,4.7 M7.83,13.3c-0.82,1.94-1.18,3.59-0.6,6.15c0.12,1.35,0.24,1.97,0.11,2.75 M7.34,22.2
	c0.05-1.02,0.01-1.4-0.11-2.75 M49.62,30.68V17.07c0-1.1-0.9-2-2-2H34.01c-1.1,0-2,0.9-2,2v13.61c0,1.1,0.9,2,2,2h13.61
	C48.72,32.68,49.62,31.78,49.62,30.68z M35.13,32.68v4.6 M40.81,32.68v4.6 M46.38,32.68v4.6 M35.13,10.47v4.6 M40.81,10.47v4.6
	 M46.38,10.47v4.6 M32.01,18.25h-4.6 M32.01,23.94h-4.6 M32.01,29.51h-4.6 M54.22,18.25h-4.6 M54.22,23.94h-4.6 M54.22,29.51h-4.6
	 M45.76,26.82v-5.88c0-1.1-0.9-2-2-2h-5.88c-1.1,0-2,0.9-2,2v5.88c0,1.1,0.9,2,2,2h5.88C44.86,28.82,45.76,27.92,45.76,26.82z"/>
</svg>
