<?xml version="1.0" encoding="utf-8"?>
<!-- Generator: Adobe Illustrator 24.1.1, SVG Export Plug-In . SVG Version: 6.00 Build 0)  -->
<svg version="1.1" id="Layer_1" xmlns="http://www.w3.org/2000/svg" xmlns:xlink="http://www.w3.org/1999/xlink" x="0px" y="0px"
	 viewBox="0 0 55.89 59" style="enable-background:new 0 0 55.89 59;" xml:space="preserve">
<style type="text/css">
	.st0{fill:#22ADF6;}
</style>
<path class="st0" d="M46,12L46,12c0.12,0,0.24-0.03,0.35-0.07c0.04-0.02,0.07-0.04,0.11-0.06c0.04-0.02,0.09-0.04,0.13-0.07
	c0.02-0.02,0.03-0.04,0.05-0.05c0.05-0.04,0.09-0.1,0.14-0.15c0.04-0.05,0.08-0.1,0.1-0.15c0.03-0.05,0.04-0.11,0.06-0.17
	c0.02-0.07,0.04-0.13,0.04-0.2c0-0.02,0.01-0.04,0.01-0.07c0-0.04-0.02-0.07-0.02-0.11c-0.01-0.07-0.02-0.13-0.04-0.2
	c-0.02-0.07-0.05-0.13-0.08-0.18c-0.02-0.03-0.03-0.07-0.05-0.1C41.9,3.8,34.32,0.01,26.02,0h-0.04C19.82,0,13.84,2.2,9.15,6.2
	C8.73,6.55,8.68,7.18,9.04,7.6c0.36,0.42,0.99,0.47,1.41,0.11c3.54-3.02,7.89-4.9,12.47-5.5c-2.7,2.37-4.9,4.97-6.61,7.78H6
	c-0.02,0-0.04,0.01-0.06,0.01c-0.07,0.01-0.14,0.02-0.21,0.04c-0.06,0.02-0.11,0.03-0.17,0.06c-0.06,0.03-0.1,0.07-0.15,0.1
	c-0.05,0.04-0.11,0.08-0.15,0.14c-0.02,0.02-0.04,0.03-0.05,0.04c-2.32,3.06-3.89,6.55-4.67,10.36c-0.11,0.54,0.24,1.07,0.78,1.18
	c0.07,0.02,0.13,0.02,0.2,0.02c0.46,0,0.88-0.33,0.98-0.8C3.18,17.8,4.53,14.72,6.51,12h8.69c-1.55,3.07-2.55,6.37-2.97,9.9
	c-0.07,0.55,0.33,1.05,0.88,1.11c0.04,0,0.08,0.01,0.12,0.01c0.5,0,0.93-0.37,0.99-0.88c0.44-3.68,1.51-7.04,3.21-10.14
	c0.02,0,0.03,0.01,0.05,0.01h17.08c2.16,3.89,3.28,8.15,3.42,13H17c-0.55,0-1,0.45-1,1s0.45,1,1,1h22c0.55,0,1-0.45,1-1
	c0-5.21-1.05-9.81-3.18-14H46z M26,2.26c1.99,1.55,3.75,3.22,5.24,4.96c0.36,0.42,0.99,0.47,1.41,0.11
	c0.42-0.36,0.47-0.99,0.11-1.41c-1.1-1.29-2.35-2.53-3.72-3.72c5.78,0.71,11,3.46,14.85,7.81h-8.74h-0.58H18.64
	C20.51,7.19,22.96,4.62,26,2.26z M52,26c0,0.55-0.45,1-1,1h-8c-0.55,0-1-0.45-1-1s0.45-1,1-1h6.98c-0.15-3.68-1.16-7.3-2.92-10.52
	c-0.27-0.48-0.09-1.09,0.4-1.36c0.48-0.27,1.09-0.09,1.36,0.4C50.9,17.32,52,21.64,52,26z M4.54,38.88C4.39,38.96,4.23,39,4.07,39
	c-0.35,0-0.7-0.19-0.88-0.52C1.1,34.68,0,30.36,0,26c0-0.55,0.45-1,1-1h11.92c0.56-0.04,1.08,0.42,1.08,0.99v0
	c0,3.82,0.63,7.41,1.88,10.66c0.2,0.52-0.06,1.09-0.58,1.29c-0.52,0.2-1.1-0.06-1.29-0.58c-1.23-3.2-1.9-6.68-2-10.38H2.02
	c0.15,3.68,1.16,7.3,2.92,10.52C5.21,38.01,5.03,38.61,4.54,38.88z M28.94,50.37c-1.78,0.08-3.21-0.87-3.58-1.15
	c-2.58-2.12-4.85-4.58-6.66-7.22l9.96,0c0.55,0,1-0.45,1-1s-0.45-1-1-1l-11.8,0H16.3H6c-0.38,0-0.72,0.21-0.89,0.55
	c-0.17,0.34-0.13,0.74,0.09,1.05c4.68,6.3,11.89,10.08,19.77,10.38c0.01,0,0.03,0,0.04,0c0,0,2.59,0.07,4.18-0.35
	c0,0,0.53-0.16,0.47-0.73C29.59,50.42,29.19,50.35,28.94,50.37z M8.1,42h8.21c1.78,2.82,4.05,5.48,6.67,7.81
	C17.2,49.09,11.94,46.33,8.1,42z M45.89,48c0,0.74-0.4,1.38-1,1.72V52c0,0.55-0.45,1-1,1s-1-0.45-1-1v-2.28c-0.6-0.35-1-0.99-1-1.72
	c0-1.1,0.9-2,2-2S45.89,46.9,45.89,48L45.89,48z M53.89,54c0,1.65-1.35,3-3,3h-14c-1.65,0-3-1.35-3-3V44c0-1.65,1.35-3,3-3h14
	c1.65,0,3,1.35,3,3V54z M39.89,35c0-2.21,1.79-4,4-4s4,1.79,4,4v4h-8V35z M50.89,39h-1v-4c0-3.31-2.69-6-6-6s-6,2.69-6,6v4h-1
	c-2.76,0-5,2.24-5,5v10c0,2.76,2.24,5,5,5h14c2.76,0,5-2.24,5-5V44C55.89,41.24,53.65,39,50.89,39L50.89,39z"/>
</svg>
