<?xml version="1.0" encoding="utf-8"?>
<!-- Generator: Adobe Illustrator 24.1.1, SVG Export Plug-In . SVG Version: 6.00 Build 0)  -->
<svg version="1.1" id="Layer_1" xmlns="http://www.w3.org/2000/svg" xmlns:xlink="http://www.w3.org/1999/xlink" x="0px" y="0px"
	 viewBox="0 0 60 60.1" style="enable-background:new 0 0 60 60.1;" xml:space="preserve">
<style type="text/css">
	.st0{fill:none;stroke:#22ADF6;stroke-width:2;stroke-linecap:round;stroke-linejoin:round;stroke-miterlimit:10;}
</style>
<path class="st0" d="M46,40.3l11.8,11.9c1.6,1.6,1.6,4.1,0,5.7c-1.6,1.6-4.1,1.6-5.7,0L37.36,43 M24,1c12.7,0,23,10.3,23,23
	S36.7,47,24,47S1,36.7,1,24S11.3,1,24,1z M24,5c10.49,0,19,8.51,19,19s-8.51,19-19,19S5,34.49,5,24S13.51,5,24,5z M17,15h12 M13,21
	h14 M13,27h6 M15,33h8 M31,33h-4 M35,21h-4 M35,27H23"/>
</svg>
