<svg enable-background="new 0 0 1838.1 2381.9" viewBox="0 0 1838.1 2381.9" xmlns="http://www.w3.org/2000/svg"><path d="m0 949.1c1.7-28.7-2.6-62.2 2.9-95.6 9.1-56 38.9-96.9 89.3-122.4 12.4-6.3 20.1-12.8 22.9-28.2 22-120.4 70.3-229.8 141.7-329 8.2-11.4 14.7-19.2 4.2-34-13.4-18.8-3.9-36.1 10.1-51.7 100.7-112.8 222-196.5 366.2-241 344.2-106.1 647.4-33.4 906.5 217.8 23.9 23.2 55.8 46.6 25.3 87.3-5.1 6.8 4 12.7 7.8 18 74.2 101.2 123.3 213.4 145.2 337 2.4 13.7 10.9 18 20.9 23 62.2 31.6 92.8 83.6 93.1 152 .3 61.7 6.3 123.9-4 185.3-14.8 88.3-104.7 149.9-191.7 131.8-26.3-5.4-33.3-25.8-33.2-50.6.5-101.3 2.5-202.7.1-304-6.5-272.3-129.5-477.4-367.6-608.3-398.5-219-909.5 23.8-997.2 470.4-15.3 77.7-12.6 155.6-11.8 233.8.8 72.8-.1 145.6-1.8 218.3-.6 25.5-15.6 39.9-42.9 41.2-111.1 5.2-185.7-65.3-186-176.4-.1-23.3 0-46.6 0-74.7" fill="#2980c3"/><path d="m1125.3 1326.4c46.5 6.2 92.7 13.6 139.6 16.4 62.8 3.7 110.3-16.5 145.5-54.4 44.2-47.5 64.4-102.8 60.9-164.8-3.4-62.3-58.1-99.1-132.1-86.3-66.1 11.4-124.7 37.3-183.9 60.9-52.4 21-101.6 46.1-140 81.8-54.1 50.2-23.4 116.8 63 137.6 15.3 3.8 31.2 5.9 47 8.8m-258-129.9c-4.9-14.8-13.2-28.3-23-40.9-34.1-53.3-81.6-101.3-129.7-141.5-25.2-21.9-52.1-41.9-79.9-60.6-61.8-42.7-110.3-67.5-110.3-67.5l-.2.1c-73.5-36.8-140.6-.8-158.3 83.1-19.9 94.1-4 184.3 47.1 266.4 35.1 56.6 89.5 83.4 154.5 89.4 40.7 3.8 81.4 6 122.2 8.9 33.1.7 66.2 3.1 98.4-7.8 42.5-14.4 75.3-40.3 82.5-86 2.8-15.9 1.1-30.2-3.3-43.6m787.3 216.9c-.7-36.9-17-96.7-41.3-115.7-10.4-8.2-25.8-3.6-29.7 9-5.2 16.3-13.6 39.7-26.5 67.1-28.7 67.9-70.8 123.6-120.2 169.1-64.4 59.5-140.9 101.9-215.8 132.1h-.1c-18.6 7.5-37.1 14.3-55.3 20.3-.2.1-.3.1-.5.2-12.1 4-24 7.7-35.7 11.2-.1 0-.2.1-.3.1-5.7 1.7-11.3 3.2-16.8 4.8-.3.1-.6.2-.9.3-11.3 3.1-22.4 6-33.1 8.6-.5.1-.8.2-1.3.3-5 1.2-9.8 2.4-14.7 3.4-.5.1-.8.2-1.3.3-10.3 2.3-20.2 4.4-29.8 6.3-.6.1-1.3.3-1.9.4-4.2.8-8.4 1.7-12.4 2.4-.6.1-1 .2-1.6.3-9 1.7-17.7 3.1-25.9 4.5-.7.1-1.4.2-2.1.4-3.6.6-7.1 1.1-10.4 1.6-.5.1-.9.1-1.3.2-3.9.6-7.7 1.1-11.3 1.7-3.5.5-6.9.9-10.1 1.4-.6.1-1 .1-1.6.2-3.1.4-6.2.7-9.1 1.1h-.1c-24.1 2.9-39.1 3.7-41.5 3.8h-.4c-313.3 32.8 79.5 101.5 374.9 49.5.6-.1 1.3-.3 2-.4 6.9-1.2 13.8-2.6 20.7-3.9 6.1-1.2 12.1-2.5 17.9-3.9 4.6-1 9.1-2.1 13.6-3.1 2.8-.7 5.6-1.4 8.4-2 39.4-10 75.5-22.7 106.3-38.5 182.8-88.4 200.5-236.2 200.5-236.2 6.3-28.3 9.4-60.1 8.7-96.9" fill="#2980c3"/><path d="m226 2121.3h-25.7c-3.4 0-6.2 2.8-6.2 6.1v112.2c0 22.3 7.6 31.6 25.9 31.6 3.1 0 5.7-.2 8.7-.7 3.8-.7 7.3 2.1 7.3 6v24.5c0 3-2.2 5.5-5.2 6.1-8.7 1.6-15.2 2.2-23.5 2.2-20.5 0-35.7-5.3-44.6-16.5-8-9.8-10.3-20.5-10.3-48.7v-116.7c0-3.4-2.8-6.1-6.1-6.1h-19.8c-3.4 0-6.1-2.8-6.1-6.2v-24.8c0-3.4 2.8-6.1 6.1-6.1h19.9c3.4 0 6.1-2.8 6.1-6.2v-48.5c0-3.4 2.8-6.1 6.2-6.1h29.3c3.4 0 6.1 2.8 6.1 6.1v48.5c0 3.4 2.8 6.2 6.2 6.2h25.7c3.4 0 6.1 2.8 6.1 6.1v24.8c.1 3.4-2.7 6.2-6.1 6.2m130.7 32.1c0-26.3-8-37.1-27.2-37.1s-27.2 10.7-27.2 37.1v12.1h54.5v-12.1zm-48.3 48.7c-3.4 0-6.1 2.8-6.1 6.1v13.5c0 38.8 6.7 50.9 28.1 50.9 13 0 21.9-6.7 25-19.7 1.1-3.8 1.7-7.3 1.7-17.6 0-3.3 2.8-6.1 6.1-6.1h29.2c3.4 0 6.2 2.9 6.1 6.3-.6 26.9-2.2 36.1-9.3 46.9-11.1 18.3-31.7 28.2-58.9 28.2-25.4 0-44.6-8-55.8-23.2-9.8-13.8-13.8-30.4-13.8-60.3v-66.1c0-35.2 4-50 17.8-63.4 12.1-11.6 29.4-17.8 50.4-17.8 22.7 0 40.6 7.2 52.3 20.5 13 14.3 16.9 30.4 16.9 65.1v30.5c0 3.4-2.8 6.1-6.2 6.1zm219.7.1c0-4.7-5.2-7.6-9.3-5.2-29.8 17.3-42 31.9-42 50.6 0 14.7 8.9 25 21 25 11.1 0 21.4-6.2 29.4-18.5.6-1 1-2.3 1-3.5v-48.4zm2.1 99.1c-.6-2.3-1-4.9-1.4-7.6-.6-5-6.6-7.4-10.2-3.9-14.8 14.3-25.7 19.2-40.6 19.2-28.2 0-45.1-22.4-45.1-58.9 0-28.5 10.7-46 38.4-62.5 9.5-6.1 20.6-11.2 52.9-25.1 2.2-1 3.8-3.2 3.8-5.6v-7.5c0-22.7-6.3-31.7-21.9-31.7-14.4 0-21.5 7.9-24 26.4-.4 3-2.9 5.3-5.9 5.3h-31.6c-3.7 0-6.6-3.2-6.1-6.8 5.6-40.2 31-61.5 73.3-61.5 20.5 0 35.2 5.3 45.5 16.9 9.4 11.6 12.1 21.9 12.1 49.1v98.4c0 28.2.6 40 3.2 52.9.7 3.8-2.1 7.4-6 7.4h-30.6c-2.7.2-5.1-1.7-5.8-4.5m123.7-203.9c0 5.3 6.4 8.1 10.3 4.4 15.1-14.4 29-20.7 45.1-20.7 16 0 26.7 7.5 32.2 22 1.5 4 6.9 4.9 9.9 1.8 16.7-16.7 31.7-23.8 48.9-23.8 25 0 36.6 16.5 36.6 51.8v167.1c0 3.4-2.8 6.2-6.2 6.2h-29.3c-3.4 0-6.1-2.8-6.1-6.2v-156.3c0-19.2-4-25.9-15.6-25.9-11.1 0-22.6 7.4-33 20.6-.8 1.1-1.3 2.5-1.3 3.9v157.8c0 3.4-2.8 6.2-6.2 6.2h-29.2c-3.4 0-6.1-2.8-6.1-6.2v-156.3c0-19.2-4-25.9-15.6-25.9-11.1 0-22.6 7.4-33 20.6-.8 1.1-1.3 2.5-1.3 3.9v157.8c0 3.4-2.8 6.2-6.1 6.2h-29.3c-3.4 0-6.2-2.8-6.2-6.2v-209.6c0-3.4 2.8-6.1 6.2-6.1h29.3c3.4 0 6.1 2.8 6.1 6.1zm319 49.9c-3 1.3-6.6 0-8-3-8.3-19.1-17.4-26.6-32.1-26.6-13 0-21.9 8-21.9 19.6 0 12.1 6.3 18.3 37.4 35.2 25 13.8 36.2 21 45.1 30.4 9.8 10.3 15.6 25.4 15.6 42 0 39.3-27.2 65.6-68.3 65.6-36.2 0-59.3-17.8-73.8-56.6-1.2-3.2.6-6.8 3.8-7.9l27.1-9.4c3.1-1.1 6.6.5 7.7 3.6 8.6 23.1 19 32.4 35.1 32.4 13.8 0 23.6-9.4 23.6-22.4 0-12.5-7.2-20.5-31.3-33.5-30.4-16.9-38.8-22.7-48.7-33-10.3-10.8-16.1-25.9-16.1-42 0-36.2 27.2-62 64.7-62 33.4 0 55.6 15.3 69.6 47.9 1.3 3-.2 6.6-3.2 8zm105.5 110.9c0 2 1 4 2.7 5.2 9.8 6.6 17.7 9.3 26.3 9.3 8.5 0 16.1-4.4 19.2-11.6 3.6-7.6 4-13.4 4-36.6v-58.5c0-23.2-.5-29-4-36.6-3.1-7.2-10.7-11.6-19.2-11.6s-16.7 2.9-26.3 9.3c-1.7 1.1-2.8 3.1-2.8 5.2zm0-167.8v2.2c0 5.2 6 7.9 10 4.7 13.9-11.1 26-16.1 39-16.1 16.1 0 28.5 8 35.7 22.7 6.7 15.2 8.9 30.8 8.9 64.7v53.1c0 34.4-2.2 49.6-8.9 64.7-7.2 14.7-19.6 22.7-35.7 22.7-13.1 0-25.2-5-39-16.1-4-3.2-10-.6-10 4.7v78.1c0 3.4-2.8 6.2-6.1 6.2h-29.3c-3.4 0-6.2-2.8-6.2-6.2v-285.5c0-3.4 2.8-6.1 6.2-6.1h29.3c3.3 0 6.1 2.8 6.1 6.2m225.7 63c0-26.3-8-37.1-27.2-37.1s-27.2 10.7-27.2 37.1v12.1h54.5v-12.1zm-48.3 48.7c-3.4 0-6.1 2.8-6.1 6.1v13.5c0 38.8 6.7 50.9 28.1 50.9 13 0 21.9-6.7 25-19.7 1.1-3.8 1.7-7.3 1.7-17.6 0-3.3 2.8-6.1 6.1-6.1h29.2c3.4 0 6.2 2.9 6.1 6.3-.6 26.9-2.2 36.1-9.3 46.9-11.1 18.3-31.7 28.2-58.9 28.2-25.4 0-44.6-8-55.8-23.2-9.8-13.8-13.8-30.4-13.8-60.3v-66.1c0-35.2 4-50 17.8-63.4 12.1-11.6 29.4-17.8 50.4-17.8 22.7 0 40.6 7.2 52.3 20.5 13 14.3 16.9 30.4 16.9 65.1v30.5c0 3.4-2.8 6.1-6.1 6.1zm219.7.1c0-4.7-5.2-7.6-9.3-5.2-29.8 17.3-42 31.9-42 50.6 0 14.7 8.9 25 21 25 11.1 0 21.4-6.2 29.4-18.5.6-1 1-2.3 1-3.5zm2.3 99.1c-.6-2.3-1-4.9-1.4-7.6-.6-5-6.6-7.4-10.2-3.9-14.8 14.3-25.7 19.2-40.6 19.2-28.2 0-45.1-22.4-45.1-58.9 0-28.5 10.7-46 38.4-62.5 9.5-6.1 20.6-11.2 52.9-25.1 2.2-1 3.8-3.2 3.8-5.6v-7.5c0-22.7-6.3-31.7-21.9-31.7-14.4 0-21.5 7.9-24 26.4-.4 3-2.9 5.3-5.9 5.3h-31.6c-3.7 0-6.6-3.2-6.1-6.8 5.5-40.2 31-61.5 73.3-61.5 20.5 0 35.2 5.3 45.5 16.9 9.4 11.6 12.1 21.9 12.1 49.1v98.4c0 28.2.6 40 3.2 52.9.7 3.8-2.1 7.4-6 7.4h-30.5c-2.8.2-5.3-1.7-5.9-4.5m135-148.6 36.8-65.3c1.1-1.9 3.1-3.1 5.3-3.1h32.8c4.8 0 7.7 5.2 5.2 9.4l-37.7 60.5c-.9 1.6-1.2 3.4-.6 5.2l45.4 138.6c1.3 4-1.7 8-5.8 8h-33.4c-2.7 0-5.1-1.7-5.9-4.3l-26-86.3c-1.6-5.1-8.2-5.9-11-1.5l-15.5 24.7c-.6 1-.9 2.1-.9 3.2v58.1c0 3.4-2.8 6.1-6.2 6.1h-29.3c-3.4 0-6.1-2.8-6.1-6.1v-285.5c0-3.4 2.8-6.1 6.1-6.1h29.3c3.4 0 6.2 2.8 6.2 6.1v135.2c-.1 6.4 8.3 8.6 11.3 3.1" fill="#1b2336"/></svg>