<?xml version="1.0" encoding="utf-8"?>
<!-- Generator: Adobe Illustrator 24.2.3, SVG Export Plug-In . SVG Version: 6.00 Build 0)  -->
<svg version="1.1" id="Layer_1" xmlns="http://www.w3.org/2000/svg" xmlns:xlink="http://www.w3.org/1999/xlink" x="0px" y="0px"
	 viewBox="0 0 24.2 60.6" style="enable-background:new 0 0 24.2 60.6;" xml:space="preserve">
<style type="text/css">
	.st0{fill:#22ADF6;}
</style>
<path class="st0" d="M12.1,60.6C5.4,60.6,0,55.2,0,48.5c0-4.8,2.9-9.1,7.2-11V4.6C7.2,3.3,8.1,0,12.1,0S17,3.3,17,4.6v3.7h3.3
	c0.6,0,1,0.4,1,1s-0.4,1-1,1H17v2.3h1.7c0.6,0,1,0.4,1,1s-0.4,1-1,1H17v2.2h3.3c0.6,0,1,0.4,1,1s-0.4,1-1,1H17v2.2h1.7
	c0.6,0,1,0.4,1,1s-0.4,1-1,1H17v2.2h3.3c0.6,0,1,0.4,1,1s-0.4,1-1,1H17v2.3h1.7c0.6,0,1,0.4,1,1s-0.4,1-1,1H17v2.2h3.3
	c0.6,0,1,0.4,1,1s-0.4,1-1,1H17v1.9c4.3,1.9,7.2,6.3,7.2,11C24.2,55.2,18.8,60.6,12.1,60.6z M8.4,39.1C4.6,40.6,2,44.4,2,48.5
	c0,5.6,4.5,10.1,10.1,10.1c5.6,0,10.1-4.5,10.1-10.1c0-4.1-2.6-7.9-6.4-9.4c-0.4-0.1-0.8-0.5-0.8-1V4.6C15,4.2,14.9,2,12.1,2
	C9.3,2,9.2,4.2,9.2,4.6v33.5C9.2,38.6,8.8,39,8.4,39.1z M12.1,54.2c-3.2,0-5.7-2.6-5.7-5.7c0-2.8,2.1-5.2,4.7-5.7V8.9
	c0-0.6,0.4-1,1-1s1,0.4,1,1v33.9c2.7,0.5,4.7,2.8,4.7,5.7C17.8,51.7,15.3,54.2,12.1,54.2z M12.1,44.7c-2.1,0-3.7,1.7-3.7,3.7
	s1.7,3.7,3.7,3.7s3.7-1.7,3.7-3.7S14.2,44.7,12.1,44.7z"/>
</svg>
