<svg xmlns="http://www.w3.org/2000/svg" role="img" xmlns:xlink="http://www.w3.org/1999/xlink" viewBox="-15.37 -15.37 773.24 247.74"><title>Tengine logo</title><defs><filter id="a" width="101.8%" height="106.2%" x="-.9%" y="-3.6%" filterUnits="objectBoundingBox"><feOffset dy="-1" in="SourceAlpha" result="shadowOffsetOuter1"/><feGaussianBlur in="shadowOffsetOuter1" result="shadowBlurOuter1" stdDeviation="2"/><feColorMatrix in="shadowBlurOuter1" values="0 0 0 0 0 0 0 0 0 0 0 0 0 0 0 0 0 0 0.5 0"/></filter><path id="b" d="M110.998 78.504H67.346v133.887h-19.63V78.504H4.26V61.121h106.738v17.383zm86.523 84.766h-75.586c.326 11.523 3.483 20.426 9.473 26.709 5.99 6.282 14.355 9.424 25.098 9.424 12.11 0 23.21-3.874 33.3-11.622v17.09c-9.505 6.706-22.102 10.059-37.793 10.059-15.625 0-27.815-4.948-36.572-14.844-8.756-9.896-13.135-23.633-13.135-41.21 0-16.537 4.802-30.177 14.405-40.919 9.603-10.742 21.533-16.113 35.79-16.113 14.128 0 25.164 4.54 33.106 13.623 7.943 9.082 11.914 21.794 11.914 38.135v9.668zm-19.14-15.332c-.065-9.766-2.377-17.318-6.934-22.657-4.557-5.338-10.97-8.007-19.238-8.007-7.617 0-14.21 2.832-19.776 8.496-5.566 5.664-9.065 13.053-10.498 22.168h56.446zm135.937 64.453h-19.043v-61.426c0-22.2-8.105-33.3-24.316-33.3-8.399 0-15.3 3.124-20.703 9.374-5.404 6.25-8.106 14.16-8.106 23.73v61.622h-19.14V104.383h19.14v17.871h.39c8.139-13.607 19.955-20.41 35.45-20.41 11.85 0 20.866 3.792 27.05 11.377 6.186 7.585 9.278 18.636 9.278 33.154v66.016zm125.684-9.082c0 39.974-19.401 59.96-58.203 59.96-13.412 0-25.065-2.506-34.961-7.519v-18.457c12.044 6.706 23.6 10.059 34.668 10.059 26.237 0 39.355-13.802 39.355-41.406V194.52h-.39c-8.204 13.607-20.443 20.41-36.72 20.41-13.541 0-24.38-4.85-32.519-14.55-8.138-9.701-12.207-22.56-12.207-38.575 0-18.425 4.492-33.024 13.477-43.799 8.984-10.775 20.963-16.162 35.937-16.162 14.388 0 25.065 5.73 32.032 17.187h.39v-14.648h19.14v98.926zm-19.14-55.176c.064-8.333-2.735-15.495-8.4-21.484-5.663-5.99-12.63-8.985-20.898-8.985-10.416 0-18.522 3.825-24.316 11.475-5.794 7.65-8.692 18.148-8.692 31.494 0 11.458 2.8 20.736 8.399 27.832 5.599 7.096 13.02 10.645 22.266 10.645 9.31 0 16.927-3.386 22.851-10.157 5.925-6.77 8.854-15.364 8.79-25.78v-15.04zm50.976-81.836c0-3.385 1.155-6.234 3.467-8.545 2.31-2.311 5.159-3.467 8.544-3.467 3.451 0 6.364 1.14 8.74 3.418 2.377 2.279 3.565 5.144 3.565 8.594 0 3.386-1.188 6.201-3.564 8.447-2.377 2.246-5.29 3.37-8.74 3.37-3.451 0-6.316-1.124-8.594-3.37-2.279-2.246-3.418-5.061-3.418-8.447zm2.246 146.094V104.383h19.14v108.008h-19.14zm144.629 0H599.67v-61.426c0-22.2-8.106-33.3-24.317-33.3-8.398 0-15.3 3.124-20.703 9.374-5.403 6.25-8.105 14.16-8.105 23.73v61.622h-19.14V104.383h19.14v17.871h.39c8.138-13.607 19.955-20.41 35.45-20.41 11.849 0 20.865 3.792 27.05 11.377 6.185 7.585 9.278 18.636 9.278 33.154v66.016zm119.922-49.121h-75.586c.325 11.523 3.483 20.426 9.472 26.709 5.99 6.282 14.356 9.424 25.098 9.424 12.11 0 23.21-3.874 33.3-11.622v17.09c-9.505 6.706-22.102 10.059-37.792 10.059-15.625 0-27.816-4.948-36.572-14.844-8.757-9.896-13.135-23.633-13.135-41.21 0-16.537 4.801-30.177 14.404-40.919 9.603-10.742 21.533-16.113 35.791-16.113 14.128 0 25.163 4.54 33.106 13.623 7.942 9.082 11.914 21.794 11.914 38.135v9.668zm-19.141-15.332c-.065-9.766-2.376-17.318-6.934-22.657-4.557-5.338-10.97-8.007-19.238-8.007-7.617 0-14.209 2.832-19.775 8.496-5.567 5.664-9.066 13.053-10.498 22.168h56.445z"/></defs><g fill="none" transform="translate(0 -49)"><use fill="#000" filter="url(#a)" xlink:href="#b"/><use fill="#000" xlink:href="#b"/><use fill="#80E7FD" xlink:href="#b"/></g></svg>