<svg width="2500" height="1777" viewBox="0 0 256 182" xmlns="http://www.w3.org/2000/svg" preserveAspectRatio="xMidYMid"><path d="M44.298 119.344a161.082 161.082 0 0 0 9.712 10.892c-10.372 3.121-17.171 8.916-21.413 14.033-6.71 8.099-10.262 18.795-9.445 27.975H5.291c3.582-7.773 17.88-30.229 39.007-52.9M251.194 177.115h-21.717c-49.82-25.997-93.559-44.329-140.024-48.334.099-6.466 1.25-13.786 3.464-21.944l-4.28-1.151c-2.273 8.383-3.464 15.97-3.602 22.76a218.254 218.254 0 0 0-14.632-.482c-4.163 0-7.961.384-11.424 1.053-4.517-4.507-8.364-8.817-11.631-12.9 21.431-22.318 56.728-42.51 87.448-50.106 8.65 28.752 27.218 48.452 49.751 61.707a95.598 95.598 0 0 0 4.871-2.971l39.311 42.321 1.722-.148c10.735-.924 16.836 4.901 18.451 6.711 1.19 1.319 1.898 2.53 2.292 3.484" fill="#D1A41A"/><path d="M232.016 35.556c.797 39.055-19.129 70.14-47.026 86.081-47.35-23.586-56.265-83.355-48.196-115.414 2.243 12.261 6.327 19.946 15.144 23.715 19.227-5.501 45.687-5.935 65.18-.561 8.118-5.904 11.267-14.927 12.989-22.809 2.145 9.17 1.899 28.988 1.909 28.988" fill="#FFDC76"/><path d="M168.22 40.776c1.637 0 2.785.665 3.615 2.087 1.945 3.346 1.626 9.946.013 16.851h-13.096v2.869h12.359c-1.326 4.711-3.189 9.372-5.286 13.065l-.678 1.194 16.386 10.314-9.225 6.079 1.579 2.397 10.311-6.798 11.131 7.264 1.529-2.428-10.321-6.385s15.431-10.023 16.198-10.513l-.012-.018.018-.003c-3.401-5.014-4.479-9.295-3.063-14.168h1.158l12.444-.014.029-2.855H200.77c2.31-5.436 5.544-10.33 17.088-10.33v-2.869c-10.651 0-17.026 4.229-20.079 13.199h-22.981c1.607-7.171 1.886-14.22-.486-18.295-1.335-2.296-3.443-3.513-6.092-3.513-9.493 0-13.241 9.701-13.395 10.114l2.686 1.008c.134-.351 3.229-8.252 10.709-8.252zm15.944 44.646l-12.12-7.631 23.686.006-11.566 7.625zm12.595-22.839c-1.019 3.248-.61 8.141 1.898 12.34h-29.2c1.776-3.559 3.423-7.897 4.627-12.34h22.675z"/><path d="M157.512 49.028h-.001l-.001.002.002-.002"/><path d="M252.205 170.602c-4.863-5.44-14.389-8.015-22.344-7.824-5.071-6.036-31.977-34.441-37.409-40.169a102.67 102.67 0 0 0 28.463-30.284h14.847v-3.187h-12.968a104.914 104.914 0 0 0 2.38-4.465h10.588v-3.188h-9.046c6.72-14.513 10.439-31.175 10.078-49.411l.038.021c-.019-4.989-1.572-26.076-4.428-31.882-7.744 2.943-21.835 12.477-25.024 22.227-15.284-2.282-32.514-2.012-47.607.6C157.251 12.55 144.595 4.522 135.047 0c-4.027 6.796-5.811 22.553-5.358 33.731l-.053.035c.381 10.099 1.752 19.373 3.959 27.894-33.02 8.182-68.969 29.813-89.078 50.718C35.105 99.675 31.371 89.25 30.262 81.35c-1.401-9.977.981-19.13 6.887-26.469 9.247-11.487 22.385-12.296 35.894-10.024-.264 2.133.016 4.172.871 5.434 3.572 5.276 22.773 7.13 34.234 2.017-8.458-11.852-25.59-17.639-30.337-15.32-1.572.767-2.759 2.178-3.572 3.823-4.669-.835-9.306-1.457-12.696-1.432-11.914.088-21.022 4.251-27.843 12.726-6.693 8.315-9.398 18.641-7.823 29.861 1.492 10.627 6.753 21.93 15.572 33.652a302.611 302.611 0 0 0-4.244 4.647C15.711 144.315 0 170.105 0 174.378v2.214h28.355l-.497-2.625c-1.601-8.463 1.597-19.041 8.147-26.947 4.112-4.963 10.922-10.628 21.616-13.242 9.509 9.28 21.623 19.136 35.108 28.644H113.8v-2.214c0-2.498-1.238-4.685-3.488-6.157-3.329-2.176-8.467-2.476-13.187-.866-4.5-5.012-7.023-11.707-7.568-20.022 45.731 4.05 89.472 22.517 138.828 48.3h27.156l.356-1.78c.507-2.534-.874-5.929-3.692-9.081zM136.793 6.15c2.247 12.256 6.322 19.942 15.148 23.713 7.814-2.236 16.829-3.62 26.081-4.131l7.674 16.831 4.92-16.977c9.349.303 18.51 1.514 26.496 3.717 8.123-5.906 11.273-14.927 12.993-22.809 2.149 9.172 1.901 28.984 1.907 28.988.151 7.398-.444 14.508-1.694 21.285l-8.765 3.725 7.724 1.17a97.554 97.554 0 0 1-2.123 7.631l-7.474 2.17 5.955 2.144a95.214 95.214 0 0 1-3.372 7.878h-12.325v3.188h10.704a94.097 94.097 0 0 1-2.54 4.465h-8.164v3.187h6.159c-8.103 12.271-18.833 22.222-31.11 29.238-14.189-7.07-24.923-17.39-32.787-29.238h4.705v-3.187h-6.732a97.943 97.943 0 0 1-2.553-4.465h9.285v-3.188h-10.93a107.858 107.858 0 0 1-4.917-11.674l5.569-1.559-7.022-2.808a119.775 119.775 0 0 1-1.912-6.892l10.807-.737-12.358-6.557c-3.029-16.701-2.421-32.91.651-45.108zM32.596 144.195c-6.707 8.095-10.262 18.788-9.448 27.969H5.286c3.589-7.767 17.885-30.22 39.009-52.9 2.911 3.598 6.153 7.232 9.714 10.896-10.371 3.118-17.171 8.915-21.413 14.035zm196.875 32.84c-49.815-25.993-93.557-44.323-140.021-48.327.101-6.466 1.253-13.785 3.461-21.942l-4.273-1.158c-2.271 8.385-3.467 15.977-3.602 22.763a221.016 221.016 0 0 0-14.63-.487c-4.169 0-7.966.387-11.429 1.06-4.516-4.514-8.364-8.816-11.633-12.899 5.815-6.058 12.657-11.955 20.144-17.489l10.368 7.159-3.385-12.09a210.11 210.11 0 0 1 9.695-6.155l15.365 7.808-7.215-12.439a212.555 212.555 0 0 1 6.354-3.296l21.465 14.398-7.049-20.888c7.327-2.953 14.635-5.368 21.703-7.116a106.28 106.28 0 0 0 6.04 15.548h-9.749v3.188h11.356c.799 1.519 1.625 3.01 2.488 4.465H131.08v3.187h15.818c9.701 15.058 22.809 26.588 37.645 35.315a99.993 99.993 0 0 0 4.869-2.982l3.888 4.186-6.534 10.052 11.145-5.088 6.452 6.946-10.907 8.311 15.019-3.884 20.257 21.808 1.715-.147c10.738-.919 16.841 4.904 18.457 6.711 1.185 1.325 1.9 2.534 2.289 3.482h-21.722z"/></svg>