<?xml version="1.0" encoding="UTF-8" standalone="no"?><!DOCTYPE svg PUBLIC "-//W3C//DTD SVG 1.1//EN" "http://www.w3.org/Graphics/SVG/1.1/DTD/svg11.dtd"><svg width="669px" height="153px" version="1.1" xmlns="http://www.w3.org/2000/svg" xmlns:xlink="http://www.w3.org/1999/xlink" xml:space="preserve" xmlns:serif="http://www.serif.com/" style="fill-rule:evenodd;clip-rule:evenodd;stroke-linejoin:round;stroke-miterlimit:1.41421;"><g><g><path d="M87.5,6.548l0,86.4l-29.5,17c-0.597,0.299 -1.303,0.299 -1.9,0l-29.5,-17l0,-86.4l-20.9,12.1c-3.528,2.042 -5.706,5.824 -5.7,9.9l0,86.4c0.021,4.07 2.191,7.839 5.7,9.9l45.7,26.4c3.533,1.998 7.867,1.998 11.4,0l45.7,-26.4c3.528,-2.042 5.706,-5.824 5.7,-9.9l0,-86.4c-0.021,-4.07 -2.191,-7.839 -5.7,-9.9l-21,-12.1Z" style="fill:#2d2e83;fill-rule:nonzero;"/><path d="M87.5,6.548l0,86.4l-29.5,17c-0.597,0.299 -1.303,0.299 -1.9,0l-29.5,-17l0,-86.4l-20.9,12.1c-3.528,2.042 -5.706,5.824 -5.7,9.9l0,86.4c0.021,4.07 2.191,7.839 5.7,9.9l45.7,26.4c3.533,1.998 7.867,1.998 11.4,0l45.7,-26.4c3.528,-2.042 5.706,-5.824 5.7,-9.9l0,-86.4c-0.021,-4.07 -2.191,-7.839 -5.7,-9.9l-21,-12.1Z" style="fill:url(#_Linear1);fill-rule:nonzero;"/><path d="M114.2,28.548c-0.021,-4.07 -2.191,-7.839 -5.7,-9.9l-30.4,-17.6c-2.337,-1.398 -5.263,-1.398 -7.6,0c-2.354,1.359 -3.807,3.882 -3.8,6.6l0,66.6c0.021,4.07 2.191,7.839 5.7,9.9l36.1,20.9c3.528,2.042 5.706,5.824 5.7,9.9l0,-86.4Z" style="fill:#1fc2d7;fill-rule:nonzero;"/><path d="M0,28.548c0.021,-4.07 2.191,-7.839 5.7,-9.9l30.5,-17.6c2.337,-1.398 5.263,-1.398 7.6,0c2.354,1.359 3.807,3.882 3.8,6.6l0,66.6c-0.021,4.07 -2.191,7.839 -5.7,9.9l-36.1,20.9c-3.528,2.042 -5.706,5.824 -5.7,9.9l-0.1,-86.4Z" style="fill:#1fc2d7;fill-rule:nonzero;"/></g><g><path d="M221.9,44.348l0,64l-11.5,0l-0.6,-5c-7.6,3.9 -15.6,6.5 -22.6,6.5c-10.8,0 -18.7,-6.1 -18.6,-21.3l0,-44.2l12.8,0l0,42.4c0,9.1 3.4,11.8 9.3,11.8c4.8,0 11.5,-2 18.4,-5.5l0,-48.7l12.8,0Z" style="fill:#0d0d27;fill-rule:nonzero;"/><path d="M296.9,64.148l0,44.2l-12.8,0l0,-42.4c0,-9.1 -3.5,-11.8 -9.8,-11.8c-5.5,0 -12.9,2 -20.9,5.7l0,48.6l-12.8,0l0,-64l11.5,0l0.6,5.1c8.7,-4.1 17.5,-6.6 24.8,-6.6c11.4,0 19.4,6 19.4,21.2Z" style="fill:#0d0d27;fill-rule:nonzero;"/><path d="M349.7,42.948c19.3,0 24.5,12.8 24.6,33.6c0.1,20.8 -5.2,33.4 -24.5,33.4c-7.1,0 -12.8,-1.7 -21.9,-6.8l-0.6,5.4l-11.5,0l0,-90.6l12.8,0l0,31.6c8.5,-4.9 14.1,-6.6 21.1,-6.6Zm-3.5,55.7c11.8,0 14.9,-6.3 15,-22.2c0.1,-15.9 -3.1,-22.2 -14.9,-22.2c-5,0 -9.1,1.1 -17.7,5.9l0,32.7c8.6,4.7 12.7,5.8 17.6,5.8Z" style="fill:#0d0d27;fill-rule:nonzero;"/><path d="M448.6,76.348c0,21.3 -7.2,33.5 -29.8,33.5c-22.6,0 -29.8,-12.2 -29.8,-33.5c0,-21.3 7.2,-33.5 29.8,-33.5c22.6,0 29.8,12.3 29.8,33.5Zm-46.4,0c0,16 3.8,22.2 16.6,22.2c12.8,0 16.6,-6.2 16.6,-22.2c0,-16 -3.8,-22.2 -16.6,-22.2c-12.8,0 -16.6,6.2 -16.6,22.2Z" style="fill:#0d0d27;fill-rule:nonzero;"/><path d="M518.2,44.348l0,64l-11.5,0l-0.6,-5c-7.6,3.9 -15.6,6.5 -22.6,6.5c-10.8,0 -18.7,-6.1 -18.6,-21.3l0,-44.2l12.8,0l0,42.4c0,9.1 3.4,11.8 9.3,11.8c4.8,0 11.5,-2 18.4,-5.5l0,-48.7l12.8,0Z" style="fill:#0d0d27;fill-rule:nonzero;"/><path d="M593.2,64.148l0,44.2l-12.8,0l0,-42.4c0,-9.1 -3.5,-11.8 -9.8,-11.8c-5.5,0 -12.9,2 -20.9,5.7l0,48.6l-12.8,0l0,-64l11.5,0l0.6,5.1c8.7,-4.1 17.5,-6.6 24.8,-6.6c11.4,0 19.4,6 19.4,21.2Z" style="fill:#0d0d27;fill-rule:nonzero;"/><path d="M656.9,108.448l-0.6,-5.4c-9,5 -14.6,6.8 -21.9,6.8c-19.3,0 -24.5,-12.7 -24.5,-33.4c0,-20.7 5.2,-33.6 24.5,-33.6c7.1,0 12.6,1.7 21.2,6.5l0,-31.6l12.8,0l0,90.6l-11.5,0.1Zm-33.9,-32.1c0,15.9 3.2,22.2 15,22.2c5,0 9,-1.1 17.6,-5.9l0,-32.7c-8.8,-4.8 -12.8,-5.9 -17.6,-5.9c-11.8,0.1 -15,6.4 -15,22.3Z" style="fill:#0d0d27;fill-rule:nonzero;"/></g></g><defs><linearGradient id="_Linear1" x1="0" y1="0" x2="1" y2="0" gradientUnits="userSpaceOnUse" gradientTransform="matrix(114.2,0,0,114.2,1.23648e-05,79.6485)"><stop offset="0" style="stop-color:#0d0d27;stop-opacity:1"/><stop offset="0.02" style="stop-color:#10102f;stop-opacity:1"/><stop offset="0.1" style="stop-color:#1a1b4d;stop-opacity:1"/><stop offset="0.19" style="stop-color:#232365;stop-opacity:1"/><stop offset="0.28" style="stop-color:#282976;stop-opacity:1"/><stop offset="0.38" style="stop-color:#2c2d80;stop-opacity:1"/><stop offset="0.5" style="stop-color:#2d2e83;stop-opacity:1"/><stop offset="0.62" style="stop-color:#2c2d80;stop-opacity:1"/><stop offset="0.72" style="stop-color:#282976;stop-opacity:1"/><stop offset="0.81" style="stop-color:#232365;stop-opacity:1"/><stop offset="0.9" style="stop-color:#1a1b4d;stop-opacity:1"/><stop offset="0.98" style="stop-color:#10102f;stop-opacity:1"/><stop offset="1" style="stop-color:#0d0d27;stop-opacity:1"/></linearGradient></defs></svg>