<?xml version="1.0" encoding="utf-8"?>
<!-- Generator: Adobe Illustrator 24.2.0, SVG Export Plug-In . SVG Version: 6.00 Build 0)  -->
<svg version="1.1" id="Layer_1" xmlns:serif="http://www.serif.com/"
	 xmlns="http://www.w3.org/2000/svg" xmlns:xlink="http://www.w3.org/1999/xlink" x="0px" y="0px" viewBox="0 0 669 153"
	 style="enable-background:new 0 0 669 153;" xml:space="preserve">
<style type="text/css">
	.st0{fill:#2D2E83;}
	.st1{fill:url(#SVGID_1_);}
	.st2{fill:#1FC2D7;}
	.st3{fill:#FFFFFF;}
</style>
<g>
	<g>
		<path class="st0" d="M87.5,6.5v86.4l-29.5,17c-0.6,0.3-1.3,0.3-1.9,0l-29.5-17V6.5L5.7,18.6c-3.5,2-5.7,5.8-5.7,9.9v86.4
			c0,4.1,2.2,7.8,5.7,9.9l45.7,26.4c3.5,2,7.9,2,11.4,0l45.7-26.4c3.5-2,5.7-5.8,5.7-9.9V28.5c0-4.1-2.2-7.8-5.7-9.9
			C108.5,18.6,87.5,6.5,87.5,6.5z"/>
		
			<linearGradient id="SVGID_1_" gradientUnits="userSpaceOnUse" x1="257.7233" y1="152.0175" x2="258.7233" y2="152.0175" gradientTransform="matrix(114.2 0 0 -114.2 -29432 17440.0488)">
			<stop  offset="0" style="stop-color:#0D0D27"/>
			<stop  offset="2.000000e-02" style="stop-color:#10102F"/>
			<stop  offset="0.1" style="stop-color:#1A1B4D"/>
			<stop  offset="0.19" style="stop-color:#232365"/>
			<stop  offset="0.28" style="stop-color:#282976"/>
			<stop  offset="0.38" style="stop-color:#2C2D80"/>
			<stop  offset="0.5" style="stop-color:#2D2E83"/>
			<stop  offset="0.62" style="stop-color:#2C2D80"/>
			<stop  offset="0.72" style="stop-color:#282976"/>
			<stop  offset="0.81" style="stop-color:#232365"/>
			<stop  offset="0.9" style="stop-color:#1A1B4D"/>
			<stop  offset="0.98" style="stop-color:#10102F"/>
			<stop  offset="1" style="stop-color:#0D0D27"/>
		</linearGradient>
		<path class="st1" d="M87.5,6.5v86.4l-29.5,17c-0.6,0.3-1.3,0.3-1.9,0l-29.5-17V6.5L5.7,18.6c-3.5,2-5.7,5.8-5.7,9.9v86.4
			c0,4.1,2.2,7.8,5.7,9.9l45.7,26.4c3.5,2,7.9,2,11.4,0l45.7-26.4c3.5-2,5.7-5.8,5.7-9.9V28.5c0-4.1-2.2-7.8-5.7-9.9
			C108.5,18.6,87.5,6.5,87.5,6.5z"/>
		<path class="st2" d="M114.2,28.5c0-4.1-2.2-7.8-5.7-9.9L78.1,1c-2.3-1.4-5.3-1.4-7.6,0c-2.4,1.4-3.8,3.9-3.8,6.6v66.6
			c0,4.1,2.2,7.8,5.7,9.9l36.1,20.9c3.5,2,5.7,5.8,5.7,9.9C114.2,114.9,114.2,28.5,114.2,28.5z"/>
		<path class="st2" d="M0,28.5c0-4.1,2.2-7.8,5.7-9.9L36.2,1c2.3-1.4,5.3-1.4,7.6,0c2.4,1.4,3.8,3.9,3.8,6.6v66.6
			c0,4.1-2.2,7.8-5.7,9.9L5.8,105c-3.5,2-5.7,5.8-5.7,9.9C0.1,114.9,0,28.5,0,28.5z"/>
	</g>
	<g>
		<path class="st3" d="M221.9,44.3v64h-11.5l-0.6-5c-7.6,3.9-15.6,6.5-22.6,6.5c-10.8,0-18.7-6.1-18.6-21.3V44.3h12.8v42.4
			c0,9.1,3.4,11.8,9.3,11.8c4.8,0,11.5-2,18.4-5.5V44.3L221.9,44.3L221.9,44.3z"/>
		<path class="st3" d="M296.9,64.1v44.2h-12.8V65.9c0-9.1-3.5-11.8-9.8-11.8c-5.5,0-12.9,2-20.9,5.7v48.6h-12.8v-64h11.5l0.6,5.1
			c8.7-4.1,17.5-6.6,24.8-6.6C288.9,42.9,296.9,48.9,296.9,64.1L296.9,64.1z"/>
		<path class="st3" d="M349.7,42.9c19.3,0,24.5,12.8,24.6,33.6s-5.2,33.4-24.5,33.4c-7.1,0-12.8-1.7-21.9-6.8l-0.6,5.4h-11.5V17.9
			h12.8v31.6C337.1,44.6,342.7,42.9,349.7,42.9z M346.2,98.6c11.8,0,14.9-6.3,15-22.2s-3.1-22.2-14.9-22.2c-5,0-9.1,1.1-17.7,5.9
			v32.7C337.2,97.5,341.3,98.6,346.2,98.6z"/>
		<path class="st3" d="M448.6,76.3c0,21.3-7.2,33.5-29.8,33.5c-22.6,0-29.8-12.2-29.8-33.5s7.2-33.5,29.8-33.5
			C441.4,42.8,448.6,55.1,448.6,76.3z M402.2,76.3c0,16,3.8,22.2,16.6,22.2c12.8,0,16.6-6.2,16.6-22.2s-3.8-22.2-16.6-22.2
			C406,54.1,402.2,60.3,402.2,76.3z"/>
		<path class="st3" d="M518.2,44.3v64h-11.5l-0.6-5c-7.6,3.9-15.6,6.5-22.6,6.5c-10.8,0-18.7-6.1-18.6-21.3V44.3h12.8v42.4
			c0,9.1,3.4,11.8,9.3,11.8c4.8,0,11.5-2,18.4-5.5V44.3L518.2,44.3L518.2,44.3z"/>
		<path class="st3" d="M593.2,64.1v44.2h-12.8V65.9c0-9.1-3.5-11.8-9.8-11.8c-5.5,0-12.9,2-20.9,5.7v48.6h-12.8v-64h11.5l0.6,5.1
			c8.7-4.1,17.5-6.6,24.8-6.6C585.2,42.9,593.2,48.9,593.2,64.1z"/>
		<path class="st3" d="M656.9,108.4l-0.6-5.4c-9,5-14.6,6.8-21.9,6.8c-19.3,0-24.5-12.7-24.5-33.4s5.2-33.6,24.5-33.6
			c7.1,0,12.6,1.7,21.2,6.5V17.7h12.8v90.6L656.9,108.4z M623,76.3c0,15.9,3.2,22.2,15,22.2c5,0,9-1.1,17.6-5.9V59.9
			c-8.8-4.8-12.8-5.9-17.6-5.9C626.2,54.1,623,60.4,623,76.3z"/>
	</g>
</g>
</svg>
