<?xml version="1.0" encoding="utf-8"?>
<!-- Generator: Adobe Illustrator 23.0.4, SVG Export Plug-In . SVG Version: 6.00 Build 0)  -->
<svg version="1.1"
	 id="svg4742" inkscape:version="0.48.2 r9819" sodipodi:docname="New document 29" xmlns:cc="http://creativecommons.org/ns#" xmlns:dc="http://purl.org/dc/elements/1.1/" xmlns:inkscape="http://www.inkscape.org/namespaces/inkscape" xmlns:rdf="http://www.w3.org/1999/02/22-rdf-syntax-ns#" xmlns:sodipodi="http://sodipodi.sourceforge.net/DTD/sodipodi-0.dtd" xmlns:svg="http://www.w3.org/2000/svg"
	 xmlns="http://www.w3.org/2000/svg" xmlns:xlink="http://www.w3.org/1999/xlink" x="0px" y="0px" viewBox="0 0 120 120"
	 style="enable-background:new 0 0 120 120;" xml:space="preserve">
<style type="text/css">
	.st0{fill:none;}
	.st1{fill:#BAD05D;}
</style>
<g>
	<rect class="st0" width="120" height="120"/>
	<g id="layer1" transform="translate(-18.43636,-431.96218)" inkscape:groupmode="layer" inkscape:label="Layer 1">
		<path id="path4689" inkscape:connector-curvature="0" class="st1" d="M23.3,508.6c-2.2-0.6-3.6-2.2-4.4-5.1
			c-0.3-1.2-0.4-1.7-0.4-10.2l-0.1-8.9h2.8H24v7.2c0,4.2,0.1,7.8,0.2,8.5c0.4,2.7,1.5,4.1,3.3,4.1c1.7,0,2.9-1.3,3.7-4.1
			c0.2-0.9,0.3-2,0.4-8.4l0.1-7.4h2.8h2.8l0,11.3c0,6.2,0,11.6,0.1,11.9l0.1,1.2H32l-0.1-1.4c0-0.5-0.1-1.5-0.1-2.3l0-1.4l-0.7,1.4
			c-0.4,0.8-1,1.7-1.3,2C28.3,508.6,25.6,509.2,23.3,508.6L23.3,508.6z"/>
		<path id="path4687" inkscape:connector-curvature="0" d="M86.9,508.6c-4.5-0.7-7.1-2.9-8.4-7c-0.3-1-0.4-1.8-0.2-1.8
			c0,0,1.2-0.2,2.6-0.4c1.4-0.2,2.6-0.4,2.7-0.5c0.1,0,0.3,0.3,0.5,0.8c0.5,2,1.4,3.1,2.9,3.8c1,0.5,3.6,0.5,4.8,0.1
			c1-0.4,2-1.5,2.3-2.5c0.3-1.2,0.2-2.9-0.2-3.8c-0.7-1.6-1.7-2.2-5.9-3.6c-3.8-1.2-4.8-1.8-6.2-3.1c-1.8-1.8-2.6-4.3-2.4-7.2
			c0.3-4.4,2.6-7.1,6.7-8c1.7-0.4,5.3-0.4,6.8,0c2.6,0.6,4.2,1.8,5.3,3.9c0.7,1.3,1.3,3.5,1.2,3.7c-0.1,0.1-4.9,0.9-5.5,0.9
			c0,0-0.2-0.5-0.4-1c-0.4-1.4-1-2.3-2-2.8c-0.6-0.4-1-0.4-2.2-0.4c-2.4,0-3.6,0.9-4.1,3c-0.4,2.1,0.3,3.9,1.9,4.8
			c0.5,0.3,2.3,1,4,1.5c3.7,1.2,5.1,1.9,6.4,3.2c1.1,1.1,2.1,2.9,2.3,4.4c0.2,1.3,0.2,3.8-0.1,5.2c-0.7,3.5-3.2,5.9-6.8,6.7
			C91.5,508.7,88.2,508.9,86.9,508.6L86.9,508.6z"/>
		<path id="path4685" inkscape:connector-curvature="0" d="M114.1,508.7c-4.1-0.6-7.2-3.3-8.8-7.7c-1.6-4.2-2-10.5-0.8-15.8
			c1.1-5.3,4.1-8.8,8.4-9.9c1.5-0.4,4.5-0.4,5.8,0c3,0.8,5.4,2.8,6.8,5.9c1,2,1.1,1.8-1.7,2.8c-1.4,0.5-2.6,0.9-2.7,0.9
			c-0.1,0-0.3-0.3-0.4-0.6c-0.6-1.8-1.8-3.3-3.2-3.9c-1.1-0.5-2.9-0.4-3.9,0.1c-2.6,1.3-3.8,5-3.8,11.2c0,4.5,0.6,7.4,2,9.6
			c1.2,1.9,2.5,2.5,4.7,2.4c1.7-0.1,3-0.7,4.2-1.8l0.8-0.8v-2.7v-2.7h-2.8h-2.8v-2.2v-2.2h5.6h5.6v5.9v5.9l-0.7,0.8
			c-1.6,2.1-4.3,3.8-6.9,4.4C118,508.7,115.4,508.9,114.1,508.7L114.1,508.7z"/>
		<path id="path4683" inkscape:connector-curvature="0" d="M43.9,492.4c-1.8-8.8-3.5-16.2-3.5-16.4l-0.1-0.9h5.9
			c0.1,0,0.8,4.9,1.8,10.2c1,5.3,2.1,11.4,2.4,13.5c0.3,2.1,0.6,3.9,0.6,3.9l6.5-23.2l2.6,0l6.7,23.1c0,0.1,0.3-1.3,0.5-2.9
			c0.2-1.6,1.3-7.7,2.4-13.5l2-11.1h6l-0.1,0.9c0,0.3-1.6,7.6-3.5,16.3c-1.9,8.7-3.3,16.6-3.4,16.6h-7.2l-4.7-17.8l-4.5,17.8h-7.1
			L43.9,492.4z"/>
		<path id="path4157" inkscape:connector-curvature="0" d="M132.5,491.9v-16.8l5.9,0v16.8v16.9h-5.9V491.9z"/>
		<g id="g4701" transform="matrix(0.41666667,0,0,0.41666667,587.86386,301.1877)">
			
				<path id="path4691" sodipodi:cx="-769.28571" sodipodi:cy="715.93359" sodipodi:rx="30.714285" sodipodi:ry="30.714285" sodipodi:type="arc" class="st1" d="
				M-1176.1,430.8c0,2.8-2.3,5-5,5c-2.8,0-5-2.3-5-5c0-2.8,2.3-5,5-5C-1178.4,425.7-1176.1,428-1176.1,430.8z"/>
			
				<path id="path4693" sodipodi:cx="-685" sodipodi:cy="695.93359" sodipodi:rx="13.571428" sodipodi:ry="13.571428" sodipodi:type="arc" d="
				M-1179,430.8c0,1.2-0.9,2.1-2.1,2.1c-1.2,0-2.1-0.9-2.1-2.1s0.9-2.1,2.1-2.1C-1180,428.7-1179,429.6-1179,430.8z"/>
		</g>
	</g>
</g>
</svg>
