<?xml version="1.0" encoding="utf-8"?>
<!-- Generator: Adobe Illustrator 24.2.0, SVG Export Plug-In . SVG Version: 6.00 Build 0)  -->
<svg version="1.1" id="Layer_1" xmlns="http://www.w3.org/2000/svg" xmlns:xlink="http://www.w3.org/1999/xlink" x="0px" y="0px"
	 viewBox="0 0 678 103.4" style="enable-background:new 0 0 678 103.4;" xml:space="preserve">
<style type="text/css">
	.st0{fill:#FFFFFF;}
</style>
<g>
	<path class="st0" d="M291.3,95.6l-29.7-82.7c-0.4-1.1-0.9-2.7-0.9-4c0-3.6,3-7,7.4-7c3.8,0,6.3,2.5,7.4,6l24.6,71.2l24.8-71.4
		c1.1-3.4,3.4-5.8,7.2-5.8h0.8c4,0,6.4,2.5,7.6,5.8L365.1,79l25-71.6c1-3,3-5.7,7-5.7c4.2,0,7.2,3.2,7.2,6.8c0,1.3-0.6,2.8-0.9,4
		l-29.9,82.8c-1.5,4.3-4.5,6.6-8,6.6h-0.6c-3.8,0-6.6-2.3-8-6.6l-24.4-70.2l-24.6,70.2c-1.3,4.3-4.2,6.6-7.9,6.6h-0.4
		C295.8,102.2,292.8,99.9,291.3,95.6 M507.7,9c0-4,3.2-7.4,7.2-7.4c4.2,0,7.4,3.2,7.4,7.4v16.8c7.2-16.3,23.1-24,33.7-24
		c4.4,0,7.2,3.2,7.2,7.4c0,4-2.7,6.8-6.5,7.4c-18.9,2.3-34.5,16.5-34.5,44.7v33.2c0,4-3,7.4-7.2,7.4s-7.4-3.2-7.4-7.4L507.7,9z
		 M610,102.8c-26.4,0-47.9-20.4-47.9-50.4V52c0-27.9,19.5-50.4,46-50.4c28.4,0,44.6,23.4,44.6,49.1c0,3.9-3.2,6.8-6.7,6.8h-69.4
		c2,21,16.7,32.8,33.8,32.8c11.9,0,20.6-4.7,27.7-11.3c1.1-0.9,2.4-1.7,4.1-1.7c3.5,0,6.3,2.8,6.3,6.2c0,1.7-0.7,3.4-2.2,4.7
		C637.1,96.9,626.3,102.8,610,102.8 M638.4,46.7c-1.5-17.6-11.5-33-30.6-33c-16.7,0-29.3,14-31.2,33H638.4z M404.2,72.5v-0.4
		c0-20.6,17-31.5,41.7-31.5c12.5,0,21.3,1.7,30.1,4.2v-3.4c0-17.6-10.8-26.6-29.1-26.6c-9.8,0-15.5,1.3-22.7,4.5
		c-0.9,0.4-1.9,0.6-2.6,0.6c-3.4,0-6.4-2.8-6.4-6.2c0-3,1.3-4.9,4-6.1c9.6-4.2,16.9-5.6,29.3-5.6c13.8,0,24.4,3.6,31.5,10.8
		c6.6,6.6,10,16.1,10,28.5v53.9c0,4.1-3,7.2-7,7.2c-4.1,0-6.9-3-6.9-6.8v-9.3c-6.8,8.9-18.2,16.8-35.3,16.8
		C422.6,102.9,404.2,92.5,404.2,72.5 M476.2,64.9v-9.4c-7.2-2.1-16.8-4.2-28.7-4.2c-18.3,0-28.5,7.9-28.5,20.2v0.4
		c0,12.3,11.3,19.5,24.6,19.5C461.5,91.4,476.2,80.4,476.2,64.9 M26.7,8.2C23.5,1.2,15.6-2,8.2,1.3S-1.9,12.8,1.4,19.8l31,67.4
		c4.9,10.6,10,16.1,19.7,16.1c10.3,0,14.8-6,19.7-16.1c0,0,27-58.9,27.3-59.5s1.1-2.5,3.9-2.5c2.3,0,4.3,1.9,4.3,4.4v57.6
		c0,8.9,4.9,16.2,14.4,16.2s14.6-7.3,14.6-16.2V40.1c0-9.1,6.5-15,15.4-15s14.8,6.1,14.8,15v47.1c0,8.9,4.9,16.2,14.4,16.2
		s14.6-7.3,14.6-16.2V40.1c0-9.1,6.5-15,15.4-15s14.8,6.1,14.8,15v47.1c0,8.9,4.9,16.2,14.4,16.2s14.6-7.3,14.6-16.2V33.6
		c0-19.7-15.8-33.5-34.9-33.5c-19,0-31,13.2-31,13.2C182.5,5,173.7,0,158.9,0c-15.6,0-29.3,13.2-29.3,13.2C123.3,5,112.5,0,103.5,0
		C89.7,0.1,78.7,6.2,72,21.5L52.2,68.2L26.7,8.2z M653.8,13.7c0-6.7,5.3-12.2,12.1-12.2s12.1,5.4,12.1,12v0.1
		c0,6.6-5.3,12.2-12.1,12.2S653.8,20.3,653.8,13.7 M675.7,13.6c0-5.5-4.2-9.9-9.8-9.9c-5.5,0-9.8,4.5-9.8,9.9v0.1
		c0,5.4,4.2,9.9,9.8,9.9C671.4,23.6,675.7,19,675.7,13.6"/>
	<path class="st0" d="M661.3,8.9c0-0.7,0.6-1.3,1.3-1.3h4c1.5,0,2.7,0.4,3.4,1.2c0.7,0.6,1,1.6,1,2.7c0,1.8-0.9,3-2.3,3.6l1.8,2.2
		c0.2,0.3,0.4,0.6,0.4,1c0,0.7-0.6,1.2-1.2,1.2s-1-0.3-1.3-0.7l-2.5-3.2h-2.1v2.5c0,0.7-0.6,1.3-1.3,1.3s-1.3-0.6-1.3-1.3L661.3,8.9
		z M666.5,13.3c1.3,0,1.9-0.7,1.9-1.7c0-1.1-0.7-1.7-2-1.7h-2.6v3.4H666.5z"/>
</g>
</svg>
