<svg enable-background="new 0 0 678 103.4" viewBox="0 0 678 103.4" xmlns="http://www.w3.org/2000/svg"><g fill="#717073"><path d="m291.3 95.6-29.7-82.7c-.4-1.1-.9-2.7-.9-4 0-3.6 3-7 7.4-7 3.8 0 6.3 2.5 7.4 6l24.6 71.2 24.8-71.4c1.1-3.4 3.4-5.8 7.2-5.8h.8c4 0 6.4 2.5 7.6 5.8l24.6 71.3 25-71.6c1-3 3-5.7 7-5.7 4.2 0 7.2 3.2 7.2 6.8 0 1.3-.6 2.8-.9 4l-29.9 82.8c-1.5 4.3-4.5 6.6-8 6.6h-.6c-3.8 0-6.6-2.3-8-6.6l-24.4-70.2-24.6 70.2c-1.3 4.3-4.2 6.6-7.9 6.6h-.4c-3.8.3-6.8-2-8.3-6.3m216.4-86.6c0-4 3.2-7.4 7.2-7.4 4.2 0 7.4 3.2 7.4 7.4v16.8c7.2-16.3 23.1-24 33.7-24 4.4 0 7.2 3.2 7.2 7.4 0 4-2.7 6.8-6.5 7.4-18.9 2.3-34.5 16.5-34.5 44.7v33.2c0 4-3 7.4-7.2 7.4s-7.4-3.2-7.4-7.4zm102.3 93.8c-26.4 0-47.9-20.4-47.9-50.4v-.4c0-27.9 19.5-50.4 46-50.4 28.4 0 44.6 23.4 44.6 49.1 0 3.9-3.2 6.8-6.7 6.8h-69.4c2 21 16.7 32.8 33.8 32.8 11.9 0 20.6-4.7 27.7-11.3 1.1-.9 2.4-1.7 4.1-1.7 3.5 0 6.3 2.8 6.3 6.2 0 1.7-.7 3.4-2.2 4.7-9.2 8.7-20 14.6-36.3 14.6m28.4-56.1c-1.5-17.6-11.5-33-30.6-33-16.7 0-29.3 14-31.2 33zm-234.2 25.8v-.4c0-20.6 17-31.5 41.7-31.5 12.5 0 21.3 1.7 30.1 4.2v-3.4c0-17.6-10.8-26.6-29.1-26.6-9.8 0-15.5 1.3-22.7 4.5-.9.4-1.9.6-2.6.6-3.4 0-6.4-2.8-6.4-6.2 0-3 1.3-4.9 4-6.1 9.6-4.2 16.9-5.6 29.3-5.6 13.8 0 24.4 3.6 31.5 10.8 6.6 6.6 10 16.1 10 28.5v53.9c0 4.1-3 7.2-7 7.2-4.1 0-6.9-3-6.9-6.8v-9.3c-6.8 8.9-18.2 16.8-35.3 16.8-18.2-.2-36.6-10.6-36.6-30.6m72-7.6v-9.4c-7.2-2.1-16.8-4.2-28.7-4.2-18.3 0-28.5 7.9-28.5 20.2v.4c0 12.3 11.3 19.5 24.6 19.5 17.9 0 32.6-11 32.6-26.5m-449.5-56.7c-3.2-7-11.1-10.2-18.5-6.9s-10.1 11.5-6.8 18.5l31 67.4c4.9 10.6 10 16.1 19.7 16.1 10.3 0 14.8-6 19.7-16.1 0 0 27-58.9 27.3-59.5s1.1-2.5 3.9-2.5c2.3 0 4.3 1.9 4.3 4.4v57.6c0 8.9 4.9 16.2 14.4 16.2s14.6-7.3 14.6-16.2v-47.1c0-9.1 6.5-15 15.4-15s14.8 6.1 14.8 15v47.1c0 8.9 4.9 16.2 14.4 16.2s14.6-7.3 14.6-16.2v-47.1c0-9.1 6.5-15 15.4-15s14.8 6.1 14.8 15v47.1c0 8.9 4.9 16.2 14.4 16.2s14.6-7.3 14.6-16.2v-53.6c0-19.7-15.8-33.5-34.9-33.5-19 0-31 13.2-31 13.2-6.3-8.3-15.1-13.3-29.9-13.3-15.6 0-29.3 13.2-29.3 13.2-6.3-8.2-17.1-13.2-26.1-13.2-13.8.1-24.8 6.2-31.5 21.5l-19.8 46.7zm627.1 5.5c0-6.7 5.3-12.2 12.1-12.2s12.1 5.4 12.1 12v.1c0 6.6-5.3 12.2-12.1 12.2s-12.1-5.5-12.1-12.1m21.9-.1c0-5.5-4.2-9.9-9.8-9.9-5.5 0-9.8 4.5-9.8 9.9v.1c0 5.4 4.2 9.9 9.8 9.9 5.5 0 9.8-4.6 9.8-10"/><path d="m661.3 8.9c0-.7.6-1.3 1.3-1.3h4c1.5 0 2.7.4 3.4 1.2.7.6 1 1.6 1 2.7 0 1.8-.9 3-2.3 3.6l1.8 2.2c.2.3.4.6.4 1 0 .7-.6 1.2-1.2 1.2s-1-.3-1.3-.7l-2.5-3.2h-2.1v2.5c0 .7-.6 1.3-1.3 1.3s-1.3-.6-1.3-1.3zm5.2 4.4c1.3 0 1.9-.7 1.9-1.7 0-1.1-.7-1.7-2-1.7h-2.6v3.4z"/></g></svg>