<?xml version="1.0" encoding="UTF-8" standalone="no"?>
<!-- Created with Inkscape (http://www.inkscape.org/) -->
<svg id="svg2" xmlns:rdf="http://www.w3.org/1999/02/22-rdf-syntax-ns#" xmlns="http://www.w3.org/2000/svg" height="98.06639mm" width="104.9757mm" version="1.1" xmlns:cc="http://creativecommons.org/ns#" xmlns:dc="http://purl.org/dc/elements/1.1/" viewBox="0 0 371.96112 347.47933">
 <metadata id="metadata7">
  <rdf:RDF>
   <cc:Work rdf:about="">
    <dc:format>image/svg+xml</dc:format>
    <dc:type rdf:resource="http://purl.org/dc/dcmitype/StillImage"/>
    <dc:title/>
   </cc:Work>
  </rdf:RDF>
 </metadata>
 <g id="layer1" transform="translate(556.3421 -244.3165)">
  <g id="g4154" transform="matrix(1.25 0 0 -1.25 -388.4292 569.848)">
   <path id="path4156" d="m0 0v35.111h3.675c0.877 0 1.432-0.507 1.664-1.518l0.484-4.515c1.526 1.811 3.23 3.276 5.113 4.393s4.062 1.675 6.533 1.675c1.918 0 3.611-0.314 5.078-0.94 1.467-0.625 2.692-1.514 3.674-2.664s1.727-2.532 2.236-4.149 0.762-3.404 0.762-5.363v-22.03h-6.17v21.978c0 2.612-0.606 4.639-1.819 6.082s-3.067 2.164-5.564 2.164c-1.826 0-3.53-0.465-5.111-1.395-1.584-0.93-3.045-2.19-4.385-3.78v-25.049h-6.17zm-21.106 30.605c-2.981 0-5.327-0.774-7.037-2.325-1.709-1.55-2.773-3.698-3.189-6.444h19.098c0 1.291-0.197 2.471-0.589 3.542-0.391 1.071-0.971 1.997-1.733 2.777s-1.693 1.383-2.789 1.81c-1.099 0.427-2.352 0.64-3.761 0.64m-0.138 4.541c2.102 0 4.043-0.333 5.821-1.001 1.78-0.667 3.316-1.628 4.611-2.887 1.294-1.257 2.305-2.811 3.032-4.658 0.728-1.848 1.093-3.953 1.093-6.315 0-0.918-0.104-1.531-0.312-1.837-0.208-0.307-0.602-0.459-1.179-0.459h-23.362c0.047-2.219 0.346-4.148 0.901-5.788 0.555-1.641 1.317-3.011 2.288-4.108 0.97-1.097 2.126-1.918 3.466-2.461s2.843-0.814 4.508-0.814c1.547 0 2.88 0.179 4.002 0.537 1.12 0.358 2.085 0.745 2.893 1.162 0.809 0.415 1.486 0.802 2.028 1.161 0.543 0.357 1.01 0.537 1.404 0.537 0.508 0 0.902-0.197 1.179-0.59l1.733-2.253c-0.762-0.924-1.677-1.727-2.738-2.409-1.064-0.682-2.202-1.242-3.414-1.68-1.213-0.439-2.466-0.769-3.762-0.989-1.294-0.219-2.576-0.329-3.846-0.329-2.427 0-4.661 0.399-6.707 1.198-2.045 0.798-3.813 1.967-5.304 3.508-1.49 1.539-2.65 3.446-3.482 5.717-0.833 2.271-1.248 4.88-1.248 7.825 0 2.384 0.375 4.61 1.125 6.678 0.752 2.069 1.832 3.863 3.243 5.381 1.408 1.517 3.13 2.71 5.163 3.575 2.034 0.866 4.32 1.299 6.864 1.299m-36.394-4.991c-2.011 0-3.773-0.459-5.285-1.374-1.514-0.916-2.907-2.209-4.176-3.881v-16.187c1.131-1.454 2.373-2.478 3.725-3.073s2.859-0.892 4.523-0.892c3.258 0 5.766 1.121 7.523 3.364 1.755 2.241 2.632 5.438 2.632 9.589 0 2.198-0.203 4.085-0.605 5.661-0.406 1.576-0.989 2.87-1.75 3.879-0.763 1.01-1.699 1.748-2.808 2.214-1.11 0.467-2.37 0.7-3.779 0.7m-15.632-42.044v47h3.675c0.877 0 1.432-0.486 1.663-1.456l0.521-4.725c1.501 1.871 3.216 3.375 5.147 4.511 1.928 1.136 4.152 1.705 6.671 1.705 2.012 0 3.836-0.376 5.476-1.128 1.642-0.752 3.04-1.863 4.195-3.333 1.154-1.47 2.044-3.293 2.668-5.471 0.624-2.176 0.936-4.68 0.936-7.506 0-2.514-0.346-4.854-1.039-7.02s-1.688-4.04-2.981-5.623c-1.294-1.582-2.883-2.828-4.766-3.737s-4.003-1.363-6.361-1.363c-2.173 0-4.026 0.358-5.563 1.075-1.535 0.715-2.893 1.733-4.071 3.05v-15.979h-6.171zm-13.314 36.69c0 2.971-0.416 5.638-1.247 8.002-0.832 2.365-2.011 4.363-3.535 5.995s-3.375 2.887-5.546 3.765c-2.172 0.878-4.598 1.317-7.278 1.317-2.658 0-5.074-0.439-7.245-1.317-2.173-0.878-4.027-2.133-5.563-3.765s-2.72-3.63-3.552-5.995c-0.832-2.364-1.248-5.031-1.248-8.002 0-2.972 0.416-5.634 1.248-7.986 0.832-2.354 2.016-4.346 3.552-5.978s3.39-2.882 5.563-3.749c2.171-0.867 4.587-1.3 7.245-1.3 2.68 0 5.106 0.433 7.278 1.3 2.171 0.867 4.022 2.117 5.546 3.749s2.703 3.624 3.535 5.978c0.831 2.352 1.247 5.014 1.247 7.986m6.899 0c0-3.647-0.59-6.994-1.768-10.041-1.178-3.046-2.842-5.668-4.992-7.864-2.149-2.197-4.731-3.901-7.746-5.113-3.017-1.212-6.35-1.818-9.999-1.818-3.652 0-6.979 0.606-9.984 1.818-3.003 1.212-5.578 2.916-7.728 5.113-2.149 2.196-3.813 4.818-4.992 7.864-1.179 3.047-1.767 6.394-1.767 10.041 0 3.646 0.588 6.993 1.767 10.038 1.179 3.047 2.843 5.674 4.992 7.882 2.15 2.209 4.725 3.924 7.728 5.147 3.005 1.223 6.332 1.836 9.984 1.836 3.649 0 6.982-0.613 9.999-1.836 3.015-1.223 5.597-2.938 7.746-5.147 2.15-2.208 3.814-4.835 4.992-7.882 1.178-3.045 1.768-6.392 1.768-10.038" fill="#2e4349"/>
  </g>
  <g id="g4158" transform="matrix(1.25 0 0 -1.25 -211.4851 518.2039)">
   <path id="path4160" d="m0 0c-2.195-0.006-3.83-0.456-4.904-1.369-1.075-0.913-1.612-2.147-1.612-3.702 0-0.993 0.324-1.816 0.971-2.468 0.646-0.654 1.495-1.218 2.547-1.69 1.051-0.474 2.253-0.908 3.605-1.303 1.351-0.395 2.732-0.834 4.142-1.319 1.409-0.484 2.79-1.053 4.142-1.707s2.552-1.487 3.605-2.502c1.051-1.014 1.899-2.249 2.547-3.703 0.646-1.452 0.971-3.206 0.971-5.256 0-2.278-0.405-4.407-1.213-6.392-0.808-1.983-1.982-3.713-3.518-5.189-1.538-1.477-3.432-2.637-5.686-3.482-2.253-0.846-4.81-1.268-7.677-1.268-1.571 0-3.171 0.162-4.8 0.485-1.629 0.324-3.206 0.78-4.731 1.369-1.526 0.59-2.958 1.289-4.298 2.098s-2.508 1.709-3.5 2.703l3.465 5.37c0.255 0.407 0.613 0.736 1.074 0.985 0.462 0.249 0.96 0.375 1.491 0.375 0.693 0 1.392-0.213 2.097-0.638 0.706-0.425 1.502-0.896 2.391-1.41 0.891-0.516 1.912-0.986 3.069-1.411 1.155-0.425 2.518-0.637 4.089-0.637 2.125 0 3.778 0.456 4.957 1.37 1.179 0.912 1.768 2.36 1.768 4.344 0 1.148-0.325 2.085-0.971 2.806-0.648 0.721-1.496 1.318-2.547 1.791-1.053 0.474-2.247 0.891-3.589 1.252-1.338 0.361-2.714 0.76-4.123 1.2-1.411 0.44-2.786 0.98-4.125 1.623-1.341 0.643-2.537 1.487-3.587 2.535-1.053 1.048-1.901 2.355-2.549 3.922-0.646 1.566-0.97 3.499-0.97 5.799 0 1.848 0.381 3.651 1.143 5.409 0.763 1.758 1.883 3.324 3.363 4.7 1.478 1.374 3.293 2.473 5.442 3.296 2.15 0.822 4.609 1.234 7.383 1.234 1.547 0 3.055-0.121 4.522-0.364 1.467-0.242 2.861-0.601 4.176-1.075 1.318-0.473 2.55-1.039 3.693-1.698 1.144-0.658 2.166-1.404 3.067-2.235 0 0-1.383-2.642-2.847-5.392-0.624-1.171-2-2.176-3.66-1.404-1.673 0.779-4.826 2.958-8.813 2.948m-21.766 9.185v-9.011h-20.728v-12.791h17.261v-9.046h-17.261v-19.652h-11.784v50.5h32.512zm-40.14 0v-4.228c0-0.601-0.098-1.191-0.293-1.768-0.197-0.578-0.467-1.121-0.814-1.629l-23.709-33.864h24.056v-9.011h-38.958v4.506c0 0.531 0.091 1.057 0.275 1.577 0.186 0.519 0.44 0.999 0.762 1.438l23.779 33.968h-22.877v9.011h37.779z" fill="#2a667f"/>
  </g>
  <path id="path4164" d="m-308.4957 287.8248c-2.11875 2.13375-5.55875 2.1275-7.68125 0-2.125-2.11875-2.125-5.57125 0-7.69 2.11875-2.13125 5.565-2.13125 7.68375 0 2.13 2.125 2.13 5.57-0.002 7.69m-1.19125 151.7238c-3.7075 3.71125-9.72125 3.71125-13.43375 0-3.70875-3.70875-3.70875-9.725 0-13.43875 3.71-3.71 9.72625-3.71 13.43375 0 3.71375 3.71375 3.70875 9.725 0 13.43875m-31.74125-18.305c-3.7075-3.71375-3.7075-9.73 0-13.4425 3.70875-3.70875 9.7275-3.70875 13.4375 0 3.715 3.7125 3.7125 9.72875 0.002 13.4425-3.7125 3.70625-9.73125 3.70625-13.44 0m-4.86875 18.305c-3.70875 3.70875-9.72875 3.70875-13.435 0-3.71625-3.71375-3.71625-9.725 0-13.435 3.70625-3.71375 9.72375-3.71375 13.435 0 3.71375 3.71 3.71125 9.72125 0 13.435m-31.745-18.305c-3.70875-3.71375-3.70875-9.73 0-13.4425 3.71125-3.70875 9.7275-3.70875 13.4375 0.002 3.71375 3.71 3.71375 9.73 0 13.44-3.71 3.70625-9.72625 3.70625-13.4375 0m-4.87 18.305c-3.70625 3.70875-9.7275 3.70875-13.435-0.004-3.71375-3.71625-3.71125-9.72125 0-13.435 3.7075-3.71 9.72875-3.71 13.43625 0 3.71125 3.71375 3.715 9.725-0.001 13.43875m-31.7425-18.3125c-3.71-3.70625-3.71-9.725-0.001-13.435 3.715-3.7125 9.72875-3.7125 13.435 0 3.7125 3.7125 3.7125 9.72875 0 13.4425-3.70375 3.7025-9.72 3.70625-13.43375-0.007m-4.86875 18.30875c-3.70875 3.7125-9.72625 3.7125-13.4325 0-3.71375-3.71625-3.71375-9.7275 0-13.44125 3.70625-3.7075 9.72375-3.7075 13.4325 0 3.70625 3.71375 3.70625 9.73125 0 13.44125m-14.625-159.41c2.13-2.13125 5.56375-2.13125 7.6925 0 2.12 2.1175 2.12 5.57 0 7.6925-2.12875 2.13125-5.5725 2.13125-7.69 0-2.1225-2.12125-2.12625-5.57375-0.002-7.6925m11.80125 11.805c2.11875-2.1225 5.55875-2.1225 7.68875 0.002 2.12 2.13125 2.12 5.57 0 7.7-2.13 2.12375-5.57 2.12375-7.69125 0-2.1225-2.13-2.12875-5.56875 0.002-7.7025m11.79375 11.8175c2.12125-2.13 5.56625-2.13 7.6875 0 2.1275 2.12375 2.12125 5.5725-0.001 7.69375-2.12 2.1275-5.565 2.1275-7.68125 0-2.12875-2.12125-2.12875-5.5725-0.005-7.69375m0.005-23.6225c2.1225-2.12625 5.56125-2.13125 7.68125 0.002 2.12875 2.1225 2.1225 5.56875 0 7.69-2.12 2.13125-5.565 2.125-7.68125 0-2.12875-2.1225-2.12625-5.57375 0-7.6925m11.7875 35.43c2.12875-2.1225 5.57-2.1275 7.69 0.002 2.12625 2.12375 2.12625 5.57375 0 7.70125-2.12 2.12375-5.56 2.12375-7.69 0-2.11625-2.1275-2.12-5.5775 0-7.70375m0.005-23.625c2.12375-2.12 5.56-2.1225 7.685 0.002 2.12375 2.13125 2.1275 5.57 0 7.7-2.12 2.12375-5.56125 2.12375-7.69 0-2.11625-2.13-2.11625-5.575 0.005-7.7025m11.795-11.805c2.12125-2.12625 5.56-2.13125 7.68875 0 2.12 2.11875 2.12 5.57 0 7.6925-2.12625 2.13125-5.5675 2.12-7.68875 0-2.12375-2.12125-2.12375-5.5675 0-7.6925m11.7975 35.4325c2.12125-2.13 5.565-2.125 7.6875-0.002 2.125 2.12875 2.125 5.57625 0 7.7025-2.1225 2.12125-5.56375 2.12125-7.6875 0-2.125-2.12625-2.13-5.57375 0-7.7m0-23.625c2.12375-2.125 5.565-2.125 7.69 0s2.12 5.57-0.002 7.7c-2.1225 2.12375-5.56625 2.12375-7.6875 0-2.1225-2.13-2.125-5.575 0-7.7m11.79375-11.8075c2.1325-2.13125 5.56625-2.13125 7.6875 0 2.12375 2.11875 2.12375 5.57125 0.002 7.6925-2.12375 2.125-5.56 2.13125-7.69 0-2.12125-2.12125-2.12-5.57375 0-7.6925m3.6375 109.36c3.70625-3.71 9.72625-3.71 13.435 0 3.71375 3.71125 3.71375 9.7275 0 13.43875-3.71125 3.71125-9.72875 3.7075-13.435 0-3.71625-3.71125-3.71625-9.72625 0-13.43875m4.0525-54.4175c-2.12375 2.13375-5.565 2.125-7.6875 0-2.1225-2.1275-2.1225-5.57375-0.002-7.70375 2.125-2.12 5.56625-2.12 7.69 0.01 2.12125 2.12 2.12125 5.5675 0 7.69375m0-23.62875c-2.12375 2.13-5.565 2.13-7.69 0.003-2.12-2.12125-2.12125-5.57 0-7.69375 2.125-2.12875 5.56625-2.12875 7.6875 0 2.12375 2.12125 2.12375 5.5725 0.002 7.69125m-19.48375 27.74375c2.12125-2.12375 5.565-2.12375 7.6875 0 2.125 2.125 2.125 5.575-0.001 7.7025-2.12125 2.11875-5.565 2.11875-7.69375-0.001-2.1175-2.12625-2.1175-5.57375 0.007-7.70125m-2.87875 31.99625c3.71125-3.71 9.7275-3.71 13.4375 0.002 3.70875 3.7075 3.70875 9.72375 0 13.4325-3.71 3.71125-9.72625 3.71125-13.4375 0.002-3.70875-3.70875-3.71125-9.72125 0-13.4375m-4.87 18.30625c3.7125 3.71125 3.71 9.7275 0 13.43875-3.70625 3.7075-9.73 3.7075-13.435-0.002-3.71625-3.71125-3.71125-9.725 0-13.43625 3.705-3.7075 9.72875-3.71 13.435 0m-4.05-85.7375c2.125-2.13 5.56375-2.13 7.69 0 2.12 2.12375 2.12 5.5725 0 7.69125-2.12625 2.13-5.565 2.13-7.68875 0.003-2.11875-2.1225-2.12375-5.57-0.001-7.69375m0 23.62625c2.1225-2.13 5.56375-2.13 7.69-0.007 2.12 2.1275 2.12 5.575 0 7.70875-2.12625 2.12375-5.5675 2.12625-7.69-0.007-2.1225-2.12625-2.1175-5.57375 0-7.69375m35.39125-11.81875c2.125-2.1225 5.56375-2.1275 7.69125 0 2.11625 2.12875 2.11625 5.57625-0.002 7.7025-2.125 2.12125-5.56375 2.125-7.68875 0.001-2.1225-2.1275-2.1225-5.575 0-7.70375m0-23.625c2.125-2.1225 5.56375-2.12 7.68875 0 2.11875 2.1275 2.11875 5.5725 0 7.7025-2.125 2.12125-5.56375 2.12375-7.68875-0.006-2.1225-2.12375-2.1225-5.56875 0-7.69625m11.79375 11.8175c2.1275-2.13 5.57625-2.13 7.68875 0 2.1225 2.12125 2.12 5.5725 0 7.69125-2.1175 2.13-5.56125 2.13-7.68875 0-2.1225-2.12-2.12-5.57 0-7.69125m0.002-23.6225c2.125-2.13125 5.56875-2.13375 7.68625 0 2.1225 2.11875 2.1225 5.565 0 7.69-2.1175 2.13375-5.56125 2.13375-7.68625 0-2.1225-2.12-2.1225-5.57125 0-7.69m11.8 11.805c2.12125-2.12 5.57125-2.1225 7.69 0 2.11875 2.1275 2.11875 5.5725 0 7.69625-2.125 2.1275-5.56875 2.13-7.69 0-2.12375-2.12375-2.12375-5.5625 0-7.69625m58.7625-17.9c0-8.585-6.96-15.55-15.55375-15.55h-173.1088c-8.58625 0-15.55125 6.965-15.55125 15.55v59.41h23.19125l-23.19125 54.28875v59.41375c0 8.58625 6.965 15.55125 15.55125 15.55125h173.1088c8.59375 0 15.55375-6.965 15.55375-15.55125v-59.41375h-23.19l23.19-54.28875v-59.41z" fill="#2a667f"/>
 </g>
</svg>
