<?xml version="1.0" encoding="utf-8"?>
<!-- Generator: Adobe Illustrator 24.2.0, SVG Export Plug-In . SVG Version: 6.00 Build 0)  -->
<svg version="1.1" id="Layer_1" xmlns="http://www.w3.org/2000/svg" xmlns:xlink="http://www.w3.org/1999/xlink" x="0px" y="0px"
	 viewBox="0 0 889.7 543.2" style="enable-background:new 0 0 889.7 543.2;" xml:space="preserve">
<style type="text/css">
	.st0{clip-path:url(#SVGID_2_);}
	.st1{fill:#FFFFFF;fill-opacity:0.997;}
	.st2{fill-rule:evenodd;clip-rule:evenodd;fill:#FFFFFF;stroke:#FFFFFF;stroke-width:1.483;}
</style>
<g transform="translate(-147.142 -489.518) scale(1.97717)">
	<g>
		<defs>
			<path id="SVGID_1_" d="M299.3,256.3c-24.5,0-44.4,19.9-44.4,44.4c0,18.5,11.5,35.1,28.9,41.6v5.7l5.7,5.7l-0.7,41.8l-149.6-0.1
				c-2.4,0-4.4-1.7-4.4-1.7c-2.2-2.3,1.5-11.6,1.5-11.6l2.8-6c1.3-3,1.8-3.1,2.6-4.6c-3.2,0.3-5,0.7-7.2,1.2
				c-6.7,1.9-10,3.2-17.7,6.6c-7.5,3.6-10.7,5-15.7,8.3c-8.1,4.7-11.9,7.7-18.1,11.6c0.5,0.4,0.9,0.7,1.4,1c5,3.2,8.8,6.1,15.9,10.1
				c5.1,3.2,8.2,4.7,15.7,8.3c7.7,3.4,11,4.7,17.7,6.6c2.2,0.6,4,1,7.2,1.2c-0.8-1.4-1.3-1.6-2.6-4.6l-2.8-6c0,0-3.8-9.4-1.5-11.6
				c0,0,1-0.8,2.4-1.3c0.8-0.1,1.7-0.3,2.5-0.4l43,0l107.6,0.3l0.4,11.9l1.7,17.5l1,11.2l12,0l1-10.9l1.7-17.9l0.4-11.8l162.5,0.9
				l21.3,0.7c4.7,0.4,9.3,1.2,13.8,2.4l7.5,2.2c1.5-1.3,2.2-2.5,2.7-4c0.6-1.9,0.5-4.1,0.5-5.8c-0.1-1.6-0.1-3.8-0.3-5.3
				c-0.5-1.4-1.2-2.7-2.6-4l-7.5,2.2c-4.5,1.3-9.1,2.1-13.8,2.4l-21.5,1.1H307.7l-0.1-41.8l5.7-5.2l0-6.2
				c17.6-6.3,30.3-23,30.3-41.7C343.7,276.2,323.8,256.3,299.3,256.3L299.3,256.3z M299.2,264.3c25,0.4,36.8,20.3,36.6,36.6
				c-0.2,18.5-15.8,35.8-36.2,36.4c-20.1,0-36.4-16.3-36.4-36.4S279.1,264.3,299.2,264.3L299.2,264.3z"/>
		</defs>
		<use xlink:href="#SVGID_1_"  style="overflow:visible;fill:#FFFFFF;"/>
		<clipPath id="SVGID_2_">
			<use xlink:href="#SVGID_1_"  style="overflow:visible;"/>
		</clipPath>
		<g class="st0">
			<path class="st1" d="M299.3,256.3c-24.5,0-44.4,19.9-44.4,44.4c0,18.5,11.5,35.1,28.9,41.6v5.7l5.7,5.7l-0.7,41.8l-149.6-0.1
				c-2.4,0-4.4-1.7-4.4-1.7c-2.2-2.3,1.5-11.6,1.5-11.6l2.8-6c1.3-3,1.8-3.1,2.6-4.6c-3.2,0.3-5,0.7-7.2,1.2
				c-6.7,1.9-10,3.2-17.7,6.6c-7.5,3.6-10.7,5-15.7,8.3c-8.1,4.7-11.9,7.7-18.1,11.6c0.5,0.4,0.9,0.7,1.4,1c5,3.2,8.8,6.1,15.9,10.1
				c5.1,3.2,8.2,4.7,15.7,8.3c7.7,3.4,11,4.7,17.7,6.6c2.2,0.6,4,1,7.2,1.2c-0.8-1.4-1.3-1.6-2.6-4.6l-2.8-6c0,0-3.8-9.4-1.5-11.6
				c0,0,1-0.8,2.4-1.3c0.8-0.1,1.7-0.3,2.5-0.4l43,0l107.6,0.3l0.4,11.9l1.7,17.5l1,11.2l12,0l1-10.9l1.7-17.9l0.4-11.8l162.5,0.9
				l21.3,0.7c4.7,0.4,9.3,1.2,13.8,2.4l7.5,2.2c1.5-1.3,2.2-2.5,2.7-4c0.6-1.9,0.5-4.1,0.5-5.8c-0.1-1.6-0.1-3.8-0.3-5.3
				c-0.5-1.4-1.2-2.7-2.6-4l-7.5,2.2c-4.5,1.3-9.1,2.1-13.8,2.4l-21.5,1.1H307.7l-0.1-41.8l5.7-5.2l0-6.2
				c17.6-6.3,30.3-23,30.3-41.7C343.7,276.2,323.8,256.3,299.3,256.3L299.3,256.3z M299.2,264.3c25,0.4,36.8,20.3,36.6,36.6
				c-0.2,18.5-15.8,35.8-36.2,36.4c-20.1,0-36.4-16.3-36.4-36.4S279.1,264.3,299.2,264.3L299.2,264.3z"/>
			<path class="st1" d="M299.3,256.3c-24.5,0-44.4,19.9-44.4,44.4c0,18.5,11.5,35.1,28.9,41.6v5.7l5.7,5.7l-0.7,41.8l-149.6-0.1
				c-2.4,0-4.4-1.7-4.4-1.7c-2.2-2.3,1.5-11.6,1.5-11.6l2.8-6c1.3-3,1.8-3.1,2.6-4.6c-3.2,0.3-5,0.7-7.2,1.2
				c-6.7,1.9-10,3.2-17.7,6.6c-7.5,3.6-10.7,5-15.7,8.3c-8.1,4.7-11.9,7.7-18.2,11.6c0.5,0.4,0.9,0.7,1.4,1c5,3.2,8.8,6.1,15.9,10.1
				c5.1,3.2,8.2,4.7,15.7,8.3c7.7,3.4,11,4.7,17.7,6.6c2.2,0.6,4,1,7.2,1.2c-0.8-1.4-1.3-1.6-2.6-4.6l-2.8-6c0,0-3.8-9.4-1.5-11.6
				c0,0,1-0.8,2.4-1.3c0.8-0.1,1.6-0.3,2.5-0.4l43,0l107.6,0.3l0.4,11.9l1.7,17.5l1,11.2l12,0l1-10.9l1.7-17.9l0.4-11.8l162.5,0.9
				l21.3,0.7c4.8,0.4,9.5,1.3,13.8,2.4l7.5,2.2c1.5-1.3,2.2-2.5,2.6-4c0.6-1.9,0.5-4.1,0.5-5.8c-0.1-1.6-0.1-3.8-0.3-5.3
				c-0.5-1.4-1.2-2.6-2.6-4l-7.5,2.2c-4.5,1.3-9.1,2.1-13.8,2.4l-21.5,1.1H307.7l-0.1-41.8l5.7-5.2l0-6.2
				c17.6-6.3,30.3-23,30.3-41.7C343.7,276.2,323.8,256.3,299.3,256.3L299.3,256.3z M299.2,264.3c25,0.4,36.8,20.3,36.6,36.6
				c-0.2,18.5-15.8,35.8-36.2,36.4c-20.1,0-36.4-16.3-36.4-36.4C263.1,280.8,279.1,264.3,299.2,264.3z"/>
		</g>
	</g>
</g>
<path class="st2" d="M150.5,432.5l58,0.2l-42,75.9l39.6,0l-0.2,13l-61.3,0.1l41.9-76.3h-36.3L150.5,432.5L150.5,432.5z M271.4,432.4
	h12.9l0,89.3h-12.8L271.4,432.4z M459.4,432.5l12.7-0.1l-0.1,34.7l36.7-34.7l18.4,0.2L482,475.5l45.1,46.1h-18.3l-36.9-38l0.1,38.2
	h-12.6L459.4,432.5L459.4,432.5z M587.9,432.6l12.9-0.2v89.1l-12.8,0.1L587.9,432.6L587.9,432.6z M670.2,429.2l62.8,63.9l0.6-61.5
	l12.6,0.1l0.1,93l-63.6-63.8l-0.1,60.9l-12.8-0.2L670.2,429.2L670.2,429.2z M354.5,432.4c9.4,0.1,26.5,0.1,26.5,0.1
	c4.6,0.5,9.3,2.7,13.2,5.6c4.3,3.8,6.8,7.4,7.8,11.6c0.8,5.8,0.8,10.6,0.2,16.2c-1.5,5.9-3.7,9.5-7.1,13.1c-4.1,3.4-7.6,5-12.7,6.1
	c-4.4,0.5-10.6,0.4-15.5,0.4l0.3,36.5h-12.8L354.5,432.4L354.5,432.4z M366.8,472.7l0.2-27.4l9.7,0c5.3,0.5,8.4,1.8,10.5,4.2
	c2.1,3.1,2.7,5,2.7,8.5c0.3,2.1,0,4.9-1.7,8.6c-1.5,2.1-1.7,2.7-4.3,4.3c-3.1,1.3-1.2,1-7.6,1.8L366.8,472.7L366.8,472.7z"/>
</svg>
