<svg xmlns="http://www.w3.org/2000/svg" role="img" viewBox="-2.61 -2.61 889.72 543.22"><title>Zipkin logo</title><style>svg {fill-rule:evenodd;clip-rule:evenodd}</style><g transform="translate(-147.142 -489.518) scale(1.97717)"><clipPath id="a"><path d="M297.97 254.996c-24.502.001-44.363 19.862-44.363 44.364.012 18.531 11.545 35.102 28.916 41.556v5.675l5.736 5.741-.659 41.828-149.649-.094c-2.371-.006-4.424-1.733-4.424-1.733-2.243-2.267 1.512-11.638 1.512-11.638l2.829-6.035c1.343-3.006 1.835-3.144 2.619-4.589-3.184.289-4.974.663-7.17 1.245-6.674 1.886-9.977 3.174-17.661 6.622-7.539 3.582-10.666 5.048-15.729 8.266-8.085 4.687-11.907 7.738-18.149 11.599.458.389.939.692 1.44.957 4.978 3.209 8.844 6.069 15.873 10.143 5.063 3.218 8.19 4.684 15.729 8.266 7.684 3.448 10.987 4.736 17.661 6.622 2.196.582 3.986.95 7.17 1.24-.784-1.446-1.276-1.577-2.619-4.584l-2.829-6.035s-3.755-9.371-1.512-11.638c0 0 1.005-.828 2.409-1.339a64.316 64.316 0 0 1 2.486-.394l43.045-.028 107.589.316.405 11.87 1.66 17.523 1.025 11.227 11.958-.005.997-10.929 1.655-17.877.438-11.809 162.516.858 21.271.692a76.26 76.26 0 0 1 13.791 2.43l7.507 2.209c1.497-1.324 2.234-2.494 2.652-3.975.584-1.938.512-4.132.532-5.785-.068-1.565-.056-3.775-.349-5.254-.458-1.442-1.15-2.651-2.647-3.976l-7.507 2.209a70.254 70.254 0 0 1-13.797 2.425l-21.52 1.102H306.358l-.072-41.816 5.741-5.183-.006-6.234c17.573-6.334 30.288-22.993 30.312-41.672 0-24.502-19.862-44.363-44.363-44.363zm-.105 7.945c24.953.414 36.781 20.345 36.568 36.623-.243 18.513-15.845 35.815-36.242 36.436-20.113 0-36.418-16.305-36.418-36.419 0-20.114 15.978-36.64 36.092-36.64z"/></clipPath><g fill-opacity=".997" fill-rule="nonzero" clip-path="url(#a)"><path d="M297.97 254.996c-24.502.001-44.363 19.862-44.363 44.364.012 18.531 11.545 35.102 28.916 41.556v5.675l5.736 5.741-.659 41.828-149.649-.094c-2.371-.006-4.424-1.733-4.424-1.733-2.243-2.267 1.512-11.638 1.512-11.638l2.829-6.035c1.343-3.006 1.835-3.144 2.619-4.589-3.184.289-4.974.663-7.17 1.245-6.674 1.886-9.977 3.174-17.661 6.622-7.539 3.582-10.666 5.048-15.729 8.266-8.085 4.687-11.907 7.738-18.149 11.599.458.389.939.692 1.44.957 4.978 3.209 8.844 6.069 15.873 10.143 5.063 3.218 8.19 4.684 15.729 8.266 7.684 3.448 10.987 4.736 17.661 6.622 2.196.582 3.986.95 7.17 1.24-.784-1.446-1.276-1.577-2.619-4.584l-2.829-6.035s-3.755-9.371-1.512-11.638c0 0 1.005-.828 2.409-1.339a64.316 64.316 0 0 1 2.486-.394l43.045-.028 107.589.316.405 11.87 1.66 17.523 1.025 11.227 11.958-.005.997-10.929 1.655-17.877.438-11.809 162.516.858 21.271.692a76.26 76.26 0 0 1 13.791 2.43l7.507 2.209c1.497-1.324 2.234-2.494 2.652-3.975.584-1.938.512-4.132.532-5.785-.068-1.565-.056-3.775-.349-5.254-.458-1.442-1.15-2.651-2.647-3.976l-7.507 2.209a70.254 70.254 0 0 1-13.797 2.425l-21.52 1.102H306.358l-.072-41.816 5.741-5.183-.006-6.234c17.573-6.334 30.288-22.993 30.312-41.672 0-24.502-19.862-44.363-44.363-44.363zm-.105 7.945c24.953.414 36.781 20.345 36.568 36.623-.243 18.513-15.845 35.815-36.242 36.436-20.113 0-36.418-16.305-36.418-36.419 0-20.114 15.978-36.64 36.092-36.64z"/><path fill="#231f20" d="M297.972 254.995c-24.501 0-44.364 19.863-44.364 44.364a44.365 44.365 0 0 0 28.913 41.558v5.675l5.74 5.739-.663 41.827-149.648-.092c-2.37-.006-4.422-1.735-4.422-1.735-2.243-2.266 1.51-11.638 1.51-11.638l2.83-6.034c1.344-3.006 1.838-3.14 2.62-4.586-3.183.29-4.976.66-7.173 1.242-6.674 1.886-9.973 3.173-17.657 6.621-7.538 3.583-10.668 5.048-15.73 8.266-8.086 4.688-11.91 7.739-18.152 11.599.457.39.942.697 1.443.962 4.978 3.21 8.843 6.066 15.872 10.14 5.063 3.218 8.192 4.685 15.73 8.268 7.685 3.447 10.984 4.735 17.658 6.62 2.196.583 3.99.952 7.173 1.241-.783-1.445-1.277-1.58-2.62-4.586l-2.83-6.032s-3.754-9.374-1.51-11.64c0 0 1.003-.83 2.407-1.342.798-.146 1.641-.27 2.49-.392l43.044-.027 107.588.318.406 11.867 1.66 17.522 1.02 11.228 11.962-.004.993-10.926 1.656-17.879.442-11.808 162.514.854 21.27.697c4.829.403 9.53 1.255 13.795 2.429l7.504 2.208c1.497-1.325 2.23-2.494 2.648-3.974.585-1.939.514-4.13.535-5.784-.069-1.565-.056-3.78-.347-5.259-.458-1.441-1.153-2.65-2.648-3.974l-7.507 2.208a70.334 70.334 0 0 1-13.795 2.428l-21.518 1.104H306.36l-.075-41.82 5.742-5.182-.006-6.233c17.573-6.335 30.29-22.995 30.314-41.674 0-24.502-19.861-44.364-44.363-44.364zm-.107 7.946c24.953.414 36.779 20.348 36.565 36.626-.242 18.513-15.84 35.811-36.237 36.432-20.113 0-36.418-16.305-36.418-36.419 0-20.113 15.976-36.639 36.09-36.639z"/></g></g><path fill="#231f20" stroke="#231f20" stroke-width="1.483" d="M147.866 429.886l58.041.217-42.018 75.89 39.618-.034-.22 12.953-61.313.09 41.935-76.314h-36.26l.217-12.802zm120.882-.109h12.875l-.012 89.252h-12.786l-.077-89.252zm188.09.109l12.656-.109-.058 34.693 36.713-34.675 18.36.154-45.098 42.936 45.123 46.092H506.23l-36.902-38.033.099 38.237h-12.591l.002-89.295zm128.412.109l12.873-.218v89.135l-12.765.109-.109-89.026zm82.37-3.383l62.835 63.906.597-61.534 12.592.091.109 93.02-63.552-63.79-.075 60.935-12.838-.22.332-92.408zm-315.737 3.165c9.382.146 26.512.109 26.512.109 4.575.474 9.325 2.695 13.17 5.568 4.265 3.796 6.768 7.406 7.753 11.611.777 5.807.753 10.648.192 16.205-1.475 5.912-3.741 9.534-7.053 13.145-4.122 3.436-7.614 5-12.678 6.14-4.405.465-10.556.386-15.507.418l.309 36.546h-12.836l.138-89.742zm12.344 40.267l.164-27.42 9.736-.033c5.277.524 8.407 1.78 10.487 4.204 2.117 3.082 2.665 5.018 2.726 8.51.283 2.117-.006 4.887-1.744 8.62-1.518 2.123-1.667 2.746-4.284 4.267-3.077 1.269-1.189 1.038-7.609 1.842l-9.476.01z"/></svg>